<svg viewBox="0,0,954,1144.8" width="954" height="1144.8" style="width: 100%; height: auto;" xmlns="http://www.w3.org/2000/svg" xmlns:xlink="http://www.w3.org/1999/xlink"><rect width="954" height="1144.8" fill="black"/><g stroke="#000" stroke-opacity="0.2"><path d="M0,-15.873247654971056L3.5637661381291506,-4.905103281308338L15.096355617026989,-4.905103281308339L5.766294739448918,1.873582735131148L9.330060877578072,12.841727108793865L8.881784197001252e-16,6.063041092354379L-9.330060877578068,12.841727108793867L-5.766294739448918,1.8735827351311491L-15.09635561702699,-4.905103281308335L-3.563766138129152,-4.905103281308337Z" transform="translate(183.61919581725397,728.0105863193567)rotate(26.786331881737905)" fill="white" class="commune"><title>insee_com : 31483 
Population : 11517
 Nom : SAINT GAUDENS</title></path><path d="M0,-18.876579049491834L4.238056047668955,-5.833183721955068L17.952693510379785,-5.833183721955069L6.857318731355415,2.2280779191642193L11.095374779024372,15.271473246700983L8.881784197001252e-16,7.210211605581696L-11.095374779024368,15.271473246700985L-6.857318731355414,2.2280779191642206L-17.952693510379788,-5.833183721955065L-4.238056047668956,-5.833183721955068Z" transform="translate(525.1653180629903,453.9208959244097)rotate(26.35381539210879)" fill="white" class="commune"><title>insee_com : 31395 
Population : 24945
 Nom : MURET</title></path><path d="M0,-37.75315809898367L8.47611209533791,-11.666367443910136L35.90538702075957,-11.666367443910138L13.71463746271083,4.4561558383284385L22.190749558048743,30.542946493401967L1.7763568394002505e-15,14.420423211163392L-22.190749558048736,30.54294649340197L-13.714637462710828,4.456155838328441L-35.905387020759576,-11.66636744391013L-8.476112095337912,-11.666367443910136Z" transform="translate(589.0856467073323,342.8561370251664)rotate(5.693346232033286)" fill="white" class="commune"><title>insee_com : 31555 
Population : 479553
 Nom : TOULOUSE</title></path></g><text class="text" y="40" x="427" text-anchor="middle" font-size="36" font-family="Helvetica" fill="#6baed6">31  - HAUTE GARONNE</text><line x1="502.39557657994123" y1="472.19354195073953" x2="206.38893730030304" y2="709.7379402930269" stroke="yellow" opacity="0.35" stroke-width="2"/><line x1="210.65029254325918" y1="702.3336230330773" x2="562.0545499813271" y2="368.53310031144576" stroke="yellow" opacity="0.35" stroke-width="2"/><line x1="584.8242914643762" y1="350.26045428511594" x2="529.4266733059465" y2="446.51657866446016" stroke="yellow" opacity="0.35" stroke-width="2"/></svg>