<svg viewBox="0,0,900,600" width="900" height="600" style="width: 100%; height: auto;" xmlns="http://www.w3.org/2000/svg" xmlns:xlink="http://www.w3.org/1999/xlink"><rect width="954" height="1144.8" fill="black"/><g stroke="#000" stroke-opacity="0.2"><path d="M0,-8.694135801493626L1.951955103526407,-2.6866357140651846L8.2686145075655,-2.686635714065185L3.1583297020195467,1.0262035273835566L5.110284805545955,7.033703614811998L4.440892098500626e-16,3.320864373363256L-5.1102848055459535,7.033703614811999L-3.158329702019546,1.026203527383557L-8.268614507565502,-2.6866357140651833L-1.9519551035264078,-2.686635714065184Z" transform="translate(473.2660005331304,233.56680684195817)" fill="white" class="commune"><title>62</title></path><path d="M0,-12.295364763585766L2.760481380550424,-3.7994766639869093L11.693586778634064,-3.7994766639869098L4.466552699041819,1.4512709461809354L7.227034079592245,9.947159045779792L8.881784197001252e-16,4.696411435611947L-7.227034079592243,9.947159045779793L-4.466552699041818,1.4512709461809363L-11.693586778634064,-3.799476663986907L-2.760481380550425,-3.7994766639869084Z" transform="translate(294.0486894957479,100)" fill="white" class="commune"><title>62</title></path><path d="M0,-7.310867629204971L1.641392049291549,-2.2591823410500176L6.953048298526688,-2.259182341050018L2.6558281246175692,0.8629308674975495L4.297220173909119,5.914616155652502L4.440892098500626e-16,2.792502947104935L-4.297220173909118,5.914616155652503L-2.6558281246175692,0.8629308674975502L-6.953048298526689,-2.2591823410500163L-1.6413920492915497,-2.259182341050017Z" transform="translate(246.59526266579837,452.85075313562993)" fill="white" class="commune"><title>62</title></path><path d="M0,-12.295364763585766L2.760481380550424,-3.7994766639869093L11.693586778634064,-3.7994766639869098L4.466552699041819,1.4512709461809354L7.227034079592245,9.947159045779792L8.881784197001252e-16,4.696411435611947L-7.227034079592243,9.947159045779793L-4.466552699041818,1.4512709461809363L-11.693586778634064,-3.799476663986907L-2.760481380550425,-3.7994766639869084Z" transform="translate(704.5438672189046,579.9999999999964)" fill="white" class="commune"><title>62</title></path><path d="M0,-12.295364763585766L2.760481380550424,-3.7994766639869093L11.693586778634064,-3.7994766639869098L4.466552699041819,1.4512709461809354L7.227034079592245,9.947159045779792L8.881784197001252e-16,4.696411435611947L-7.227034079592243,9.947159045779793L-4.466552699041818,1.4512709461809363L-11.693586778634064,-3.799476663986907L-2.760481380550425,-3.7994766639869084Z" transform="translate(170.11692427966602,263.4199157331386)" fill="white" class="commune"><title>62</title></path><path d="M0,-10.339128153936105L2.3212788972794764,-3.1949663065867338L9.833095203611615,-3.194966306586734L3.7559081531660685,1.2203685362054149L6.077187050445547,8.364530383554786L4.440892098500626e-16,3.949195540762637L-6.077187050445545,8.364530383554786L-3.7559081531660685,1.2203685362054157L-9.833095203611615,-3.194966306586732L-2.3212788972794773,-3.1949663065867333Z" transform="translate(647.8761827520714,407.2221178877953)" fill="white" class="commune"><title>62</title></path><path d="M0,-10.339128153936105L2.3212788972794764,-3.1949663065867338L9.833095203611615,-3.194966306586734L3.7559081531660685,1.2203685362054149L6.077187050445547,8.364530383554786L4.440892098500626e-16,3.949195540762637L-6.077187050445545,8.364530383554786L-3.7559081531660685,1.2203685362054157L-9.833095203611615,-3.194966306586732L-2.3212788972794773,-3.1949663065867333Z" transform="translate(729.8830757203341,473.11063410532006)" fill="white" class="commune"><title>62</title></path></g><text class="text" y="25" x="477" text-anchor="middle" font-size="16" font-family="Helvetica" fill="#878787">62 - PAS DE CALAIS</text><line x1="461.31817979730494" y1="224.6623530524943" x2="305.9965102315734" y2="108.90445378946387" stroke="yellow" stroke-width="0.3"/><line x1="290.8851277070846" y1="123.52338354237533" x2="249.7588244544617" y2="429.3273695932546" stroke="yellow" stroke-width="0.3"/><line x1="277.12516963600547" y1="461.32736959325433" x2="674.0139602486975" y2="571.5233835423719" stroke="yellow" stroke-width="0.3"/><line x1="668.9154043562886" y1="558.8946610488725" x2="205.7453871422819" y2="284.52525468426245" stroke="yellow" stroke-width="0.3"/><line x1="201.9675415111597" y1="273.00672921011574" x2="616.0255655205776" y2="397.6353044108182" stroke="yellow" stroke-width="0.3"/><line x1="653.3433089499556" y1="411.6146856356303" x2="724.4159495224499" y2="468.7180663574851" stroke="yellow" stroke-width="0.3"/><line x1="712.7752707078538" y1="457.14104562109594" x2="490.37380554561065" y2="249.5363953261823" stroke="yellow" stroke-width="0.3"/></svg>