<svg viewBox="0,0,955,1146" width="955" height="1146" style="width: 100%; height: auto;" xmlns="http://www.w3.org/2000/svg" xmlns:xlink="http://www.w3.org/1999/xlink"><rect width="955" height="1146" fill="black"/><g stroke="#000" stroke-opacity="0.2"><path d="M0,-22.448162112566994L5.039926405668234,-6.936863585267022L21.349470856006818,-6.936863585267023L8.154772225169292,2.649646114250548L13.19469863083753,18.16094464155052L8.881784197001252e-16,8.574434942032948L-13.194698630837525,18.160944641550522L-8.154772225169292,2.649646114250549L-21.34947085600682,-6.936863585267019L-5.0399264056682345,-6.936863585267021Z" transform="translate(664.335145838405,1017.5320026098052)rotate(2.251745497547346)" fill="white" class="commune"><title>92002 Population : 62210</title></path><path d="M0,-26.69551410299918L5.993516340710753,-8.249367531402827L25.38894264350654,-8.249367531402829L9.697713151397894,3.150978011306063L15.69122949210865,21.597124582902413L1.7763568394002505e-15,10.196779040193524L-15.691229492108645,21.597124582902417L-9.697713151397892,3.1509780113060657L-25.388942643506542,-8.249367531402822L-5.993516340710755,-8.249367531402825Z" transform="translate(365.3989124969594,296.9846596188727)rotate(27.433755285089596)" fill="white" class="commune"><title>92050 Population : 94258</title></path><path d="M0,-26.69551410299918L5.993516340710753,-8.249367531402827L25.38894264350654,-8.249367531402829L9.697713151397894,3.150978011306063L15.69122949210865,21.597124582902413L1.7763568394002505e-15,10.196779040193524L-15.691229492108645,21.597124582902417L-9.697713151397892,3.1509780113060657L-25.388942643506542,-8.249367531402822L-5.993516340710755,-8.249367531402825Z" transform="translate(469.37673278963575,593.3541263614316)rotate(15.589112883502633)" fill="white" class="commune"><title>92012 Population : 119645</title></path></g><text class="text" y="40" x="427.5" text-anchor="middle" font-size="36" font-family="Helvetica" fill="#6baed6">92 - HAUTS DE SEINE</text><line x1="651.3379183018203" y1="989.2534775265802" x2="482.37396032622036" y2="621.6326514446565" stroke="yellow" opacity="0.35" stroke-width="2"/><line x1="462.4448781034573" y1="573.5961619119277" x2="372.3307671831378" y2="316.7426240683766" stroke="yellow" opacity="0.35" stroke-width="2"/><line x1="385.3279947197224" y1="345.02114915160155" x2="644.406063615642" y2="969.4955130770763" stroke="yellow" opacity="0.35" stroke-width="2"/></svg>