<svg viewBox="0,0,900,600" width="900" height="600" style="width: 100%; height: auto;" xmlns="http://www.w3.org/2000/svg" xmlns:xlink="http://www.w3.org/1999/xlink"><rect width="954" height="1144.8" fill="black"/><g stroke="#000" stroke-opacity="0.2"><path d="M0,-7.310867629204971L1.641392049291549,-2.2591823410500176L6.953048298526688,-2.259182341050018L2.6558281246175692,0.8629308674975495L4.297220173909119,5.914616155652502L4.440892098500626e-16,2.792502947104935L-4.297220173909118,5.914616155652503L-2.6558281246175692,0.8629308674975502L-6.953048298526689,-2.2591823410500163L-1.6413920492915497,-2.259182341050017Z" transform="translate(471.483830065808,580)" fill="white" class="commune"><title>01</title></path><path d="M0,-12.295364763585766L2.760481380550424,-3.7994766639869093L11.693586778634064,-3.7994766639869098L4.466552699041819,1.4512709461809354L7.227034079592245,9.947159045779792L8.881784197001252e-16,4.696411435611947L-7.227034079592243,9.947159045779793L-4.466552699041818,1.4512709461809363L-11.693586778634064,-3.799476663986907L-2.760481380550425,-3.7994766639869084Z" transform="translate(226.512365159585,214.64239648002695)" fill="white" class="commune"><title>01</title></path><path d="M0,-7.310867629204971L1.641392049291549,-2.2591823410500176L6.953048298526688,-2.259182341050018L2.6558281246175692,0.8629308674975495L4.297220173909119,5.914616155652502L4.440892098500626e-16,2.792502947104935L-4.297220173909118,5.914616155652503L-2.6558281246175692,0.8629308674975502L-6.953048298526689,-2.2591823410500163L-1.6413920492915497,-2.259182341050017Z" transform="translate(431.8642992950977,255.74442744416592)" fill="white" class="commune"><title>01</title></path><path d="M0,-8.694135801493626L1.951955103526407,-2.6866357140651846L8.2686145075655,-2.686635714065185L3.1583297020195467,1.0262035273835566L5.110284805545955,7.033703614811998L4.440892098500626e-16,3.320864373363256L-5.1102848055459535,7.033703614811999L-3.158329702019546,1.026203527383557L-8.268614507565502,-2.6866357140651833L-1.9519551035264078,-2.686635714065184Z" transform="translate(673.4876348404155,100.00000000000364)" fill="white" class="commune"><title>01</title></path></g><text class="text" y="25" x="477" text-anchor="middle" font-size="16" font-family="Helvetica" fill="#878787">01 - AIN</text><line x1="455.1523990720598" y1="555.6428264320018" x2="242.8437961533332" y2="238.99957004802513" stroke="yellow" stroke-width="0.3"/><line x1="240.2024941019525" y1="217.3825318776362" x2="418.1741703527302" y2="253.00429204655666" stroke="yellow" stroke-width="0.3"/><line x1="447.9725216647855" y1="245.3614656145551" x2="657.3794124707276" y2="110.38296182961446" stroke="yellow" stroke-width="0.3"/><line x1="660.0207145221083" y1="132.0000000000034" x2="484.95075038411517" y2="548.0000000000002" stroke="yellow" stroke-width="0.3"/></svg>