<svg viewBox="0,0,955,1146" width="955" height="1146" style="width: 100%; height: auto;" xmlns="http://www.w3.org/2000/svg" xmlns:xlink="http://www.w3.org/1999/xlink"><rect width="955" height="1146" fill="black"/><g stroke="#000" stroke-opacity="0.2"><path d="M0,-15.873247654971056L3.5637661381291506,-4.905103281308338L15.096355617026989,-4.905103281308339L5.766294739448918,1.873582735131148L9.330060877578072,12.841727108793865L8.881784197001252e-16,6.063041092354379L-9.330060877578068,12.841727108793867L-5.766294739448918,1.8735827351311491L-15.09635561702699,-4.905103281308335L-3.563766138129152,-4.905103281308337Z" transform="translate(623.531833150384,595.7277976411424)rotate(18.456956425359493)" fill="white" class="commune"><title>64422 Population : 10791</title></path><path d="M0,-22.448162112566994L5.039926405668234,-6.936863585267022L21.349470856006818,-6.936863585267023L8.154772225169292,2.649646114250548L13.19469863083753,18.16094464155052L8.881784197001252e-16,8.574434942032948L-13.194698630837525,18.160944641550522L-8.154772225169292,2.649646114250549L-21.34947085600682,-6.936863585267019L-5.0399264056682345,-6.936863585267021Z" transform="translate(186.92645444566392,366.3153807546187)rotate(21.470774404914355)" fill="white" class="commune"><title>64102 Population : 50589</title></path><path d="M0,-22.448162112566994L5.039926405668234,-6.936863585267022L21.349470856006818,-6.936863585267023L8.154772225169292,2.649646114250548L13.19469863083753,18.16094464155052L8.881784197001252e-16,8.574434942032948L-13.194698630837525,18.160944641550522L-8.154772225169292,2.649646114250549L-21.34947085600682,-6.936863585267019L-5.0399264056682345,-6.936863585267021Z" transform="translate(741.251372118551,483.91119579527003)rotate(0.749208635317643)" fill="white" class="commune"><title>64445 Population : 77251</title></path></g><text class="text" y="40" x="427.5" text-anchor="middle" font-size="36" font-family="Helvetica" fill="#6baed6">64 - PYRENEES ATLANTIQUES</text><line x1="216.03347969264527" y1="381.6095418803869" x2="594.4248079034027" y2="580.4336365153741" stroke="yellow" opacity="0.35" stroke-width="2"/><line x1="631.3798024149285" y1="588.2733575180843" x2="733.4034028540066" y2="491.36563591832817" stroke="yellow" opacity="0.35" stroke-width="2"/><line x1="704.2963776070252" y1="476.07147479255997" x2="223.88144895718972" y2="374.15510175732874" stroke="yellow" opacity="0.35" stroke-width="2"/></svg>