<svg viewBox="0,0,954,1144.8" width="954" height="1144.8" style="width: 100%; height: auto;" xmlns="http://www.w3.org/2000/svg" xmlns:xlink="http://www.w3.org/1999/xlink"><rect width="954" height="1144.8" fill="black"/><g stroke="#000" stroke-opacity="0.2"><path d="M0,-15.873247654971056L3.5637661381291506,-4.905103281308338L15.096355617026989,-4.905103281308339L5.766294739448918,1.873582735131148L9.330060877578072,12.841727108793865L8.881784197001252e-16,6.063041092354379L-9.330060877578068,12.841727108793867L-5.766294739448918,1.8735827351311491L-15.09635561702699,-4.905103281308335L-3.563766138129152,-4.905103281308337Z" transform="translate(111.72938846251054,778.0192493018076)rotate(24.025823584371988)" fill="white" class="commune"><title>insee_com : 97105 
Population : 10058
 Nom : BASSE TERRE</title></path><path d="M0,-15.873247654971056L3.5637661381291506,-4.905103281308338L15.096355617026989,-4.905103281308339L5.766294739448918,1.873582735131148L9.330060877578072,12.841727108793865L8.881784197001252e-16,6.063041092354379L-9.330060877578068,12.841727108793867L-5.766294739448918,1.8735827351311491L-15.09635561702699,-4.905103281308335L-3.563766138129152,-4.905103281308337Z" transform="translate(334.09234959149035,493.78735226477875)rotate(13.447766079898143)" fill="white" class="commune"><title>insee_com : 97120 
Population : 15923
 Nom : POINTE A PITRE</title></path></g><text class="text" y="40" x="427" text-anchor="middle" font-size="36" font-family="Helvetica" fill="#6baed6">971  - GUADELOUPE</text><line x1="126.55358587110919" y1="759.0704561660057" x2="319.2681521828917" y2="512.7361454005807" stroke="yellow" opacity="0.35" stroke-width="2"/><line x1="319.2681521828917" y1="512.7361454005807" x2="126.55358587110919" y2="759.0704561660057" stroke="yellow" opacity="0.35" stroke-width="2"/></svg>