<svg viewBox="0,0,954,1144.8" width="954" height="1144.8" style="width: 100%; height: auto;" xmlns="http://www.w3.org/2000/svg" xmlns:xlink="http://www.w3.org/1999/xlink"><rect width="954" height="1144.8" fill="black"/><path d="M516.3168253968242,375.187764473696L518.6126984126995,368.19498496703454L518.3257142857146,366.4467550443951L519.7606349206344,360.32783991395263L520.9085714285711,359.8907679756521L526.0742857142859,354.6458363675629L530.092063492064,348.0894944022002L538.7015873015871,334.5390961227531L545.0152380952377,340.22162375450716L555.3466666666673,327.54501260226243L560.799365079366,319.67640039572143L568.8349206349203,324.047886687913L570.8438095238089,320.11355297011323L571.7047619047626,320.55070466766483L577.4444444444434,310.4959938088141L579.4533333333338,311.37033490429167L586.0539682539675,317.05346653884044L594.6634920634924,321.4250054327131L604.7079365079362,309.1844755895727L598.9682539682544,303.93832379730884L611.0215873015877,289.5107552605623L621.6400000000003,298.2548501959245L626.8057142857151,292.57122839122894L620.4920634920636,287.32467671332415L624.5098412698408,287.32467671332415L633.9803174603185,286.0130190602795L633.1193650793648,285.13857623937656L638.5720634920635,280.7663095095195L633.6933333333336,275.95671479718294L637.9980952380956,272.45876106756623L643.4507936507944,268.0862399546604L646.6076190476197,271.14701394486474L651.7733333333335,266.33720694613294L650.6253968253968,264.5881599007698L657.8000000000002,263.2763654048904L658.9479365079369,266.77446651415084L663.2526984126989,264.15089594607707L662.6787301587301,263.2763654048904L674.7320634920634,256.2799947364256L667.8444444444458,239.66271414159564L681.3326984126979,239.22540017194115L681.0457142857149,232.6655853128177L687.6463492063494,231.79092841155943L686.7853968253967,217.79594050737796L690.5161904761908,217.3585826518538L691.3771428571436,212.1102199134475L697.977777777779,212.9849558151618L699.1257142857148,203.36266775091644L702.5695238095232,195.05216789996484L712.6139682539679,176.2430240099202L716.344761904762,176.6804644035292L717.4926984126987,169.6813127065543L719.7885714285721,170.11876627523452L720.0755555555552,169.6813127065543L719.2146031746024,168.36894673047937L721.7974603174607,164.86926547819166L724.954285714286,155.68233470473206L731.2679365079375,151.30746959641692L734.4247619047619,149.55749895324698L734.9987301587307,155.24485214735614L742.7473015873029,155.24485214735614L742.7473015873029,151.30746959641692L750.7828571428572,150.8699782534095L750.7828571428572,153.4949131324538L758.8184126984133,153.93239920394262L759.1053968253973,157.86973431386286L767.4279365079374,156.99477710580686L767.1409523809525,156.55729718395742L769.7238095238099,156.55729718395742L770.5847619047618,164.86926547819166L774.0285714285719,164.43180136883166L772.5936507936503,149.12000409592292L784.9339682539694,148.68250836012885L786.0819047619052,134.24465615153895L791.534603174604,131.61948930341168L791.534603174604,130.30689401572454L798.7092063492064,126.36906069653924L802.4400000000005,125.49397695824155L818.7980952380958,124.61888970475411L820.8069841269844,124.61888970475411L821.6679365079372,130.30689401572454L830.85142857143,128.99429081869312L834.2952380952393,137.74482940509915L835.1561904761911,138.61986393114785L831.9993650793658,139.93240912994952L835.4431746031742,144.74500719973003L830.85142857143,146.93251663059345L823.9638095238097,147.80751425257768L823.6768253968257,146.05751549414708L817.6501587301591,146.49501650163438L818.2241269841279,153.93239920394262L824.5377777777776,153.4949131324538L824.8247619047625,153.93239920394262L833.7212698412704,152.61993835368776L835.4431746031742,156.11981638366706L829.9904761904772,157.43225614912808L830.85142857143,161.8069982653833L837.1650793650797,160.05711196060292L840.8958730158729,167.4940316878201L843.4787301587303,174.05580886706593L837.4520634920646,174.9306975590298L837.7390476190476,178.8676531976671L850.6533333333346,177.1179039189592L854.6711111111117,190.67809328928706L854.3841269841278,191.11550470194197L856.9669841269842,200.30094152552192L857.5409523809521,200.30094152552192L857.827936507937,201.6131151758891L858.114920634921,201.1757248371432L860.6977777777774,205.98697027371963L859.5498412698416,206.42435095467954L865.8634920634931,219.98271661723265L860.1238095238095,221.29477174932254L864.7155555555564,233.54023870339734L866.1504761904762,239.66271414159564L860.4107936507935,241.84927082600188L861.2717460317463,245.78501757161575L852.3752380952383,247.97151282787672L859.5498412698416,268.9607511952927L858.4019047619049,269.39800549976644L857.5409523809521,269.39800549976644L846.0615873015877,268.5234960136877L839.7479365079362,267.2117252050375L829.9904761904772,263.71363111419487L822.5288888888881,264.15089594607707L819.0850793650789,263.71363111419487L816.2152380952384,262.83909881833824L815.3542857142857,263.2763654048904L811.0495238095236,269.8352589268761L824.2507936507945,288.1991107634094L826.2596825396831,291.6968118819641L832.2863492063489,304.8126911979052L843.1917460317454,322.2993026912445L846.0615873015877,325.7964566582814L849.5053968253978,331.0420824130706L852.0882539682534,332.7905962803343L856.9669841269842,338.0360537339875L858.9758730158737,344.59269806049997L860.9847619047623,347.6523979268386L866.437460317461,358.14247146015987L868.1593650793648,360.32783991395263L867.8723809523817,360.7649109758204L868.7333333333336,361.63905047101434L872.7511111111107,366.4467550443951L878.2038095238095,366.4467550443951L879.925714285715,367.320871758071L882.7955555555563,371.6914027564926L884.5174603174619,372.5654984425055L886.8133333333335,376.9359243060753L888.8222222222239,379.5581377726048L890.8311111111107,385.23949209367856L893.9879365079369,392.2317249554326L894.5619047619048,395.7277572986786L894.8488888888896,395.7277572986786L894.8488888888896,396.60175662575057L897.1447619047631,402.7196538220451L898.2926984126989,404.9045755059633L900.8755555555572,407.9634290818358L901.4495238095242,410.5852694218629L902.0234920634921,413.207078236941L901.1625396825402,417.5766895424749L904.6063492063504,430.68499810647336L907.7631746031748,446.8508268654987L912.9288888888896,445.97702892142115L912.9288888888896,449.0353064079245L924.1212698412701,447.2877245245036L923.8342857142861,450.34598363007535L929.0000000000009,450.7828742870188L928.4260317460321,452.53042816207744L927.2780952380954,457.7730057660665L925.5561904761917,462.57859119336354L926.4171428571426,473.0631373107317L927.8520634920642,478.74205601459835L927.8520634920642,480.48938586731674L926.4171428571426,482.67352849736926L927.2780952380954,487.04174814082216L924.1212698412701,488.35219697398134L918.3815873015874,492.7203028878139L915.511746031746,493.5939135729859L912.9288888888896,494.0307176033384L912.9288888888896,496.65152341572684L912.6419047619056,498.3987097956997L911.4939682539689,499.7090903960052L909.1980952380964,502.3298279797018L902.884444444444,503.2034001767461L898.2926984126989,506.2608753146196L896.8577777777782,507.5712086825515L897.1447619047631,508.0079847225279L890.5441269841276,516.3065633117803L889.9701587301588,515.8698038887233L888.8222222222239,518.4903473096783L887.3873015873023,524.60482619697L886.8133333333335,527.6620013687643L887.6742857142872,530.2824031286582L887.9612698412702,532.9027734111878L887.6742857142872,540.3269849475182L888.2482539682551,540.7636954046611L889.9701587301588,540.7636954046611L890.2571428571428,546.0041526991117L890.5441269841276,546.4408517913253L891.9790476190474,546.4408517913253L891.6920634920643,557.3580449945875L889.9701587301588,556.9213677558582L888.535238095239,563.0347695595992L892.840000000001,563.4714345618268L887.3873015873023,573.9511324239138L897.4317460317452,581.8105754867429L896.5707936507943,584.4303269259399L895.4228571428575,583.5570799413545L894.8488888888896,584.4303269259399L894.5619047619048,585.7401908494357L893.1269841269859,586.6134290963819L888.8222222222239,587.4866638482781L888.2482539682551,591.4161769823695L883.6565079365082,591.4161769823695L880.499682539682,593.1626045478915L878.2038095238095,594.9090181345819L873.8990476190475,600.5847657537961L875.0469841269842,602.3311199339223L874.7600000000002,603.2042917825456L876.1949206349218,604.9506249968836L875.6209523809539,605.8237863628019L877.3428571428576,607.5700986122829L877.6298412698416,608.4432494958455L877.6298412698416,608.4432494958455L884.230476190477,617.1745661665045L888.535238095239,621.1035446857859L882.2215873015884,624.1593679588113L883.9434920634931,627.2151484383212L885.0914285714289,632.8900558011665L881.3606349206348,632.0170027358108L882.5085714285715,636.8187513704179L882.2215873015884,639.4378424559836L882.2215873015884,641.6203943485161L879.638730158731,642.4934089934977L877.3428571428576,642.4934089934977L875.6209523809539,640.3108658324054L873.3250793650795,638.1283008424798L869.8812698412703,639.8743545807665L867.8723809523817,641.6203943485161L864.7155555555564,642.4934089934977L857.2539682539682,644.2394278059946L853.8101587301599,646.8584298314527L852.3752380952383,649.4774004257633L850.0793650793657,647.7314235217636L849.7923809523809,648.6044137198769L846.9225396825404,646.8584298314527L846.3485714285716,648.1679190574214L844.913650793651,647.2949271131656L843.1917460317454,649.0409075094212L842.3307936507945,649.9138924691943L840.0349206349201,648.1679190574214L836.017142857143,652.9693123275065L836.5911111111109,653.8422815727245L834.5822222222223,655.5882095870329L835.1561904761911,656.0246894080774L834.0082539682544,657.3341236334818L828.8425396825405,654.7152473258611L826.8336507936501,657.3341236334818L826.2596825396831,656.8976464313455L826.546666666668,656.4611683562689L824.2507936507945,654.7152473258611L822.241904761906,657.7705999627069L819.9460317460325,659.0800237125368L818.7980952380958,658.2070754190208L817.3631746031751,659.9529685143207L818.7980952380958,660.8259098244016L817.937142857144,662.1353152426309L816.5022222222224,663.0082478234544L813.9193650793659,661.6988476427796L813.9193650793659,661.6988476427796L812.7714285714292,660.389439605904L810.7625396825397,664.3176401479286L808.7536507936511,664.3176401479286L809.6146031746039,667.8093146064493L809.040634920636,669.9915827751392L805.5968253968249,670.8644839327899L804.4488888888891,672.6102757743502L802.4400000000005,680.0297353100905L804.1619047619051,680.9025963204622L803.8749206349203,680.9025963204622L806.7447619047625,682.6483078686288L805.8838095238088,684.3940054539125L808.7536507936511,685.7032694799127L808.4666666666672,686.5761078005598L810.7625396825397,687.8853587367048L811.0495238095236,687.4489426305809L812.4844444444452,688.7581883310049L811.9104761904764,689.6310144347372L818.511111111111,696.6134976125322L821.3809523809523,693.9950925979356L824.8247619047625,696.6134976125322L825.1117460317464,696.177098958171L827.9815873015868,697.0498953943898L829.1295238095236,696.6134976125322L830.2774603174612,697.9226883405354L831.1384126984121,699.6682637626363L832.8603174603177,700.1046554369968L835.4431746031742,702.7229871602904L837.4520634920646,703.5957574216591L837.4520634920646,706.214047266898L838.8869841269834,710.5777938819665L836.5911111111109,711.0141637452471L834.0082539682544,717.1232502348721L832.8603174603177,721.0504298363521L831.425396825397,723.66851031853L828.8425396825405,725.8502200673101L827.6946031746038,726.7228978612984L827.6946031746038,728.0319080107147L828.5555555555557,730.2135741495586L828.8425396825405,731.9588913615153L828.5555555555557,732.831544734654L827.120634920635,735.0131629052339L830.5644444444451,738.940020669892L832.2863492063489,744.6120238474687L832.5733333333337,745.4846266406239L834.5822222222223,747.6661183636752L835.4431746031742,749.41129604663L834.2952380952393,750.7201701533049L831.9993650793658,753.3378948245954L831.1384126984121,754.6467453893856L826.546666666668,764.2447431025503L829.9904761904772,763.3722152923874L833.1473015873025,762.0634170387348L836.017142857143,759.8820691796427L840.321904761905,755.5193080731551L849.218412698413,764.2447431025503L849.5053968253978,766.4260473717586L851.2273015873025,767.2985629769391L857.827936507937,767.2985629769391L871.3161904761919,765.5535282794153L877.6298412698416,766.4260473717586L880.212698412699,767.7348194720107L883.6565079365082,768.1710750953353L885.3784126984119,771.2248400495737L882.2215873015884,789.1103199296631L878.7777777777783,792.1637920223875L871.3161904761919,796.9620190352434L866.1504761904762,794.3448173727666L871.3161904761919,810.0475567982066L867.5853968253978,810.4837278846244L862.7066666666669,810.0475567982066L860.1238095238095,810.919898099819L853.8101587301599,813.5369010947761L845.4876190476189,818.7708129911043L852.6622222222231,834.0356728354527L859.8368253968265,852.7881828264799L881.3606349206348,901.6243721008068L883.0825396825403,905.5482347855868L881.0736507936499,909.472026981879L879.3517460317462,917.7553568195726L878.7777777777783,919.9351282541174L878.4907936507943,923.4227173057734L878.7777777777783,926.4743120492785L880.499682539682,932.1414463313413L881.6476190476196,933.8851503781625L882.7955555555563,937.3725167162775L882.7955555555563,939.9880049347994L883.3695238095252,940.8598273821408L884.5174603174619,940.4239165934268L886.2393650793656,938.6802647400182L890.5441269841276,936.0647608636937L894.2749206349208,930.8336591617845L894.8488888888896,930.8336591617845L897.7187301587301,933.8851503781625L898.005714285714,935.1929192792741L898.2926984126989,939.5520924063458L898.5796825396819,940.8598273821408L898.005714285714,942.6034618387057L897.7187301587301,947.8342817068042L901.7365079365072,953.5008618941938L904.0323809523807,960.0390410122636L904.0323809523807,964.3977183862007L904.6063492063504,969.6280164506752L905.4673015873013,974.8581893037481L905.1803174603192,978.3449016478553L907.4761904761908,988.3688896948297L907.4761904761908,990.112145019084L906.9022222222229,990.9837674653972L907.189206349206,992.291194615158L908.0501587301596,995.7776287669549L908.9111111111115,1003.1861166297458L907.7631746031748,1008.8512613913626L903.7453968253976,1013.6447306996852L900.5885714285723,1016.2593060010404L899.1536507936517,1018.0023388216796L895.9968253968264,1020.1811102952634L891.1180952380955,1013.2089651078859L882.7955555555563,1011.4658940500522L867.5853968253978,1006.6723769423261L865.2895238095243,1005.3650358436571L856.6800000000003,999.2640072875947L845.4876190476189,994.9060254445067L846.3485714285716,991.8553864345595L838.3130158730164,989.6763324919157L833.4342857142856,986.1898009798897L832.8603174603177,985.3181594085181L832.2863492063489,977.9090656479239L829.7034920634933,973.1148122646264L836.3041269841278,953.0649763288093L840.321904761905,948.7060728412471L831.1384126984121,946.5265884819382L829.7034920634933,945.2188874289859L825.9726984126992,943.9111785480054L808.4666666666672,936.0647608636937L806.4577777777777,925.6024321869481L799.2831746031752,920.8070307374L795.5523809523811,913.8317134211538L791.534603174604,916.0115240104205L785.7949206349203,909.036053551943L783.7860317460327,910.3439712310792L773.7415873015871,898.5724301664159L768.5758730158741,902.4963476780977L768.8628571428562,899.4444179277343L768.2888888888892,894.2124391408288L761.9752380952386,897.2644419972494L759.1053968253973,899.0084244822792L747.9130158730159,893.7764352514641L741.8863492063492,890.7243836551497L737.8685714285721,883.7481055657263L741.3123809523813,882.4400286161981L745.6171428571433,882.0040012254321L747.3390476190489,881.5679729640833L749.6349206349205,879.8238512139942L747.9130158730159,878.0797155355685L745.9041269841273,878.0797155355685L745.0431746031754,877.2076424730767L741.3123809523813,873.7193154016277L740.1644444444446,872.8472249280021L739.8774603174597,871.975130972045L740.4514285714286,870.6669835086504L735.8596825396826,865.8703757711628L734.7117460317468,864.126128656033L734.4247619047619,861.0736626829894L731.5549206349206,854.0964373866154L715.1968253968253,861.5097318626358L703.4304761904768,837.5246338345751L700.2736507936515,837.960750039987L700.2736507936515,838.8329798379273L699.1257142857148,839.2690934304264L698.551746031746,838.396865374496L690.5161904761908,841.4496483287949L689.6552380952371,841.0135390909563L687.0723809523815,842.3218641915591L677.3149206349208,827.9298569487873L674.1580952380955,830.1105250785185L671.2882539682541,833.1634238755796L670.1403174603174,832.2911714315997L671.0012698412693,830.5466560911736L671.2882539682541,828.802126813971L671.0012698412693,827.4937207096664L666.9834920634921,822.6961645858246L665.5485714285705,823.1323104072944L657.2260317460314,818.7708129911043L655.7911111111125,815.7177129645133L653.4952380952373,813.5369010947761L651.7733333333335,810.4837278846244L648.3295238095234,802.196328247257L645.7466666666669,801.7601406054746L641.7288888888888,802.196328247257L640.2939682539682,803.5048859440722L632.5453968253969,808.7390383108868L630.5365079365083,805.2496173409745L624.7968253968256,807.4305119820347L623.361904761904,808.7390383108868L617.9092063492062,795.2172214126913L624.2228571428568,793.4724098469596L621.3530158730164,786.9292422894505L616.4742857142865,789.1103199296631L615.9003174603176,787.3654595605913L610.4476190476198,789.9827448849683L608.4387301587303,792.1637920223875L606.7168253968266,786.4930241468537L600.1161904761912,787.3654595605913L599.8292063492063,786.4930241468537L596.385396825397,786.9292422894505L594.3765079365076,786.9292422894505L579.7403174603169,783.4394727451436L577.4444444444434,789.5465328430582L570.5568253968258,789.5465328430582L564.8171428571432,787.8016759601014L563.3822222222234,788.2378914881556L561.660317460317,789.1103199296631L555.6336507936503,789.1103199296631L544.7282539682528,786.4930241468537L541.8584126984124,786.9292422894505L539.8495238095238,787.8016759601014L537.2666666666664,789.5465328430582L538.1276190476183,793.0362047769595L538.1276190476183,796.0896219668211L537.5536507936504,796.9620190352434L538.988571428572,804.8134357986855L534.1098412698411,805.2496173409745L521.7695238095239,806.9943347964145L511.43809523809523,807.4305119820347L504.8374603174598,808.7390383108868L499.38476190476104,810.4837278846244L495.9409523809518,812.2284035179764L485.60952380952403,818.3346584579558L481.878730158729,822.6961645858246L483.02666666666664,823.1323104072944L480.7307936507932,828.3659923168889L473.2692063492068,825.7491670420277L470.6863492063485,825.3130264474021L468.9644444444448,825.7491670420277L467.5295238095232,825.3130264474021L469.8253968253957,822.2600178931898L468.103492063492,820.9515725886449L463.51174603174604,820.515422411554L456.62412698412663,820.515422411554L453.7542857142853,819.6431194436736L452.6063492063495,821.3877218947455L446.57968253968284,818.7708129911043L445.4317460317461,823.1323104072944L444.8577777777773,826.6214456180169L444.8577777777773,830.1105250785185L439.1180952380946,828.802126813971L436.2482539682542,829.6743931946694L430.5085714285724,828.802126813971L429.6476190476187,839.2690934304264L400.0882539682534,836.216279992339L392.33968253968305,837.0885167581146L389.4698412698408,810.919898099819L386.8869841269834,787.3654595605913L385.7390476190485,769.479836734652L385.45206349206364,748.5387089490541L384.5911111111118,735.8858040687919L384.01714285714297,732.831544734654L381.4342857142865,718.4323179525672L376.55555555555566,709.705051538127L372.5377777777785,701.4138252248231L358.7625396825388,697.0498953943898L349.8660317460308,691.3766561711673L345.84825396825363,686.1396890764881L343.5523809523811,679.1568708088598L342.9784126984123,665.6270246163476L342.40444444444347,661.2623791701044L340.3955555555558,647.7314235217636L338.96063492063513,639.0013294580567L332.9339682539676,623.2862799617287L319.1587301587306,611.4992500731896L314.85396825396856,610.1895407810516L301.07873015872974,606.2603657355066L260.3269841269839,607.5700986122829L246.83873015872996,607.5700986122829L207.80888888888876,608.8798236274451L144.95936507936494,611.0626811826369L117.12190476190335,611.9358180903946L115.6869841269845,613.2455169008754L114.82603174603082,609.3163968854642L117.69587301587308,599.2749909459089L118.55682539682493,594.9090181345819L110.23428571428576,580.9373180166294L111.38222222222248,580.5006879709545L111.09523809523762,580.0640570513206L105.35555555555493,570.8946058800793L106.2165079365077,570.4579557353863L98.18095238095248,554.3012859674927L115.39999999999964,546.0041526991117L119.70476190476165,536.8332698170561L121.71365079365023,533.7762231771194L123.72253968253972,531.5925922044844L127.16634920634897,528.9722061834182L133.19301587301652,525.0415681304585L140.0806349206341,515.8698038887233L144.38539682539613,510.628622596123L155.00380952380965,495.3411244460149L157.58666666666613,490.0994498372602L163.03936507936396,474.3736701363814L164.47428571428554,467.82092725663097L164.7612698412704,460.83111783556524L163.03936507936396,447.7246213083272L161.6044444444451,440.734167730232L160.16952380952353,436.8019391155394L158.73460317460285,433.7434900593071L156.15174603174637,430.68499810647336L153.85587301587384,428.0633994319942L150.69904761904672,425.0048278096947L143.2374603174594,420.63536535660387L138.9326984126974,418.4506012959755L127.74031746031778,414.51797082295525L107.65142857142837,409.7113261447812L103.34666666666635,408.83737936473335L92.15428571428492,406.21551800728776L76.94412698412634,400.5347102434898L67.47365079365045,397.0387549754814L56.28126984126902,394.8537544681167L45.94984126984127,394.8537544681167L39.63619047619068,394.41675173907424L34.18349206349103,393.5427436532045L32.74857142857127,392.6687320639612L36.47936507936447,390.9206983745098L25,360.32783991395263L30.73968253968178,345.9040032616176L35.905396825396565,341.5329552491603L55.420317460317165,325.7964566582814L62.307936507936574,329.73068780844915L67.47365079365045,335.85046180093195L73.21333333333314,343.71849021085654L78.09206349206306,340.22162375450716L78.95301587301674,341.5329552491603L84.1187301587297,338.0360537339875L85.55365079365038,341.5329552491603L88.42349206349172,345.9040032616176L89.57142857142844,345.0298006707162L90.14539682539635,343.71849021085654L95.88507936507995,342.8442788555112L97.03301587301576,344.1555945739383L113.39111111111106,358.14247146015987L115.39999999999964,359.8907679756521L117.69587301587308,361.63905047101434L123.72253968253972,364.26144792698324L131.471111111111,360.7649109758204L138.64571428571435,355.5200003985374L142.37650793650755,359.8907679756521L146.96825396825352,364.698511102848L154.42984126984084,373.8766354005784L156.15174603174637,369.9432008709409L157.01269841269823,370.8173035658838L159.30857142857167,367.320871758071L160.4565079365084,366.00969537335914L160.74349206349143,366.00969537335914L163.03936507936396,363.38731894653756L164.47428571428554,359.453695161239L167.9180952380948,352.89749778975965L166.19619047619017,349.40077856971766L170.21396825396914,340.65873512919643L173.08380952380958,341.9700639943476L184.56317460317405,316.61630782755674L186.8590476190475,317.49062437340035L188.0069841269833,317.49062437340035L193.7466666666669,319.67640039572143L194.3206349206357,319.67640039572143L197.76444444444405,320.55070466766483L203.50412698412674,322.73645000541L206.66095238095204,324.48503049550345L206.66095238095204,326.23359695918043L207.80888888888876,327.54501260226243L209.53079365079248,328.41928531456506L212.11365079365078,328.85642035573255L212.40063492063564,327.9821493967611L213.2615873015866,327.9821493967611L215.8444444444449,323.1735964428808L221.87111111111062,314.8676642146893L220.43619047618995,313.5561722990533L223.59301587301616,306.12423572238185L227.89777777777817,296.9432583186135L231.05460317460347,298.6920457344968L232.2025396825402,297.81765378045384L233.06349206349114,296.50605927221477L234.4984126984118,294.32005088598817L235.3593650793655,292.1340205750894L238.51619047618988,293.4456413926091L238.51619047618988,293.4456413926091L245.9777777777772,296.0688593489467L247.1257142857139,292.1340205750894L257.74412698412743,296.9432583186135L266.6406349206345,299.12924039605423L275.82412698412736,300.4408191193943L295.052063492064,304.37550793599803L300.217777777777,304.8126911979052L301.3657142857137,308.74730109627126L310.8361904761914,321.4250054327131L319.7326984126985,331.47921219471027L320.0196825396815,331.0420824130706L324.0374603174605,334.1019724770449L326.33333333333303,337.5989371004398L330.06412698412714,341.5329552491603L329.20317460317347,342.40717186318943L335.5168253968259,348.52659000104177L336.0907936507938,348.52659000104177L342.40444444444347,355.08291882113554L352.73587301587304,362.07611890431144L355.0317460317465,361.63905047101434L359.3365079365076,364.698511102848L366.7980952380949,370.38025265649776L369.3809523809532,365.135573402571L373.1117460317464,366.8838138394058L373.6857142857152,366.4467550443951L373.39873015873036,362.5131864612631L376.8425396825396,362.07611890431144L381.4342857142865,363.38731894653756L384.87809523809483,363.38731894653756L384.87809523809483,362.07611890431144L388.3219047619041,360.7649109758204L395.49650793650835,355.5200003985374L396.64444444444507,355.95708109950647L398.07936507936483,360.7649109758204L398.3663492063497,363.82438387483126L399.5142857142855,363.38731894653756L407.54984126984255,359.8907679756521L410.1326984126981,358.14247146015987L411.28063492063484,358.14247146015987L411.5676190476197,359.453695161239L411.85460317460183,359.453695161239L418.74222222222215,357.70539514065604L419.31619047619097,356.39416092427564L423.04698412698417,356.39416092427564L426.4907936507934,357.26831794471946L427.3517460317462,358.14247146015987L428.78666666666595,358.5795469034929L430.5085714285724,359.8907679756521L430.79555555555544,359.8907679756521L431.94349206349216,360.7649109758204L436.2482539682542,362.95025314195664L438.83111111111157,363.82438387483126L439.1180952380946,364.698511102848L439.6920634920634,364.698511102848L439.6920634920634,365.57263482603594L440.26603174603133,365.57263482603594L441.1269841269841,367.320871758071L443.1358730158736,369.0690946713148L443.42285714285754,370.8173035658838L444.8577777777773,371.2543535992445L446.005714285714,372.1284510375117L446.8666666666659,372.1284510375117L447.15365079365074,373.00254497129936L447.72761904761956,373.00254497129936L448.5885714285723,374.3136793010053L450.0234920634912,373.00254497129936L452.6063492063495,371.6914027564926L458.34603174603126,370.8173035658838L462.6507936507933,369.9432008709409L463.79873015873,369.0690946713148L465.52063492063644,368.6320402571873L470.39936507936454,368.19498496703454L471.5473015873022,368.19498496703454L471.8342857142852,367.75792880068184L473.55619047619075,368.19498496703454L473.8431746031756,367.75792880068184L474.70412698412656,368.19498496703454L475.5650793650793,367.320871758071L481.878730158729,371.6914027564926L483.8876190476185,372.1284510375117L486.4704761904759,375.187764473696L489.91428571428605,375.62480574598885L493.64507936508016,374.3136793010053L495.3669841269839,374.3136793010053L501.1066666666675,372.5654984425055L505.4114285714295,372.5654984425055L508.28126984126993,372.1284510375117Z" style="fill: none; stroke: rgb(8, 48, 107);"><title>SEINE SAINT DENIS</title></path><g stroke="#000" stroke-opacity="0.2"><path d="M0,-15.873247654971056L3.5637661381291506,-4.905103281308338L15.096355617026989,-4.905103281308339L5.766294739448918,1.873582735131148L9.330060877578072,12.841727108793865L8.881784197001252e-16,6.063041092354379L-9.330060877578068,12.841727108793867L-5.766294739448918,1.8735827351311491L-15.09635561702699,-4.905103281308335L-3.563766138129152,-4.905103281308337Z" transform="translate(678.7498412698405,621.976641416346)rotate(11.109810165448444)" fill="white" class="commune"><title>insee_com : 93062 
Population : 14648
 Nom : RAINCY</title></path><path d="M0,-22.448162112566994L5.039926405668234,-6.936863585267022L21.349470856006818,-6.936863585267023L8.154772225169292,2.649646114250548L13.19469863083753,18.16094464155052L8.881784197001252e-16,8.574434942032948L-13.194698630837525,18.160944641550522L-8.154772225169292,2.649646114250549L-21.34947085600682,-6.936863585267019L-5.0399264056682345,-6.936863585267021Z" transform="translate(475.27809523809447,588.3598951052409)rotate(10.308249142116304)" fill="white" class="commune"><title>insee_com : 93008 
Population : 53640
 Nom : BOBIGNY</title></path><path d="M0,-26.69551410299918L5.993516340710753,-8.249367531402827L25.38894264350654,-8.249367531402829L9.697713151397894,3.150978011306063L15.69122949210865,21.597124582902413L1.7763568394002505e-15,10.196779040193524L-15.691229492108645,21.597124582902417L-9.697713151397892,3.1509780113060657L-25.388942643506542,-8.249367531402822L-5.993516340710755,-8.249367531402825Z" transform="translate(226.17587301587264,457.336129112693)rotate(8.100655909898473)" fill="white" class="commune"><title>insee_com : 93066 
Population : 111135
 Nom : SAINT DENIS</title></path></g><text class="text" y="40" x="427" text-anchor="middle" font-size="36" font-family="Helvetica" fill="#6baed6">93  - SEINE SAINT DENIS</text><line x1="488.84287830687754" y1="590.6010115259812" x2="665.1850582010575" y2="619.7355249956056" stroke="yellow" opacity="0.35" stroke-width="2"/><line x1="648.5782433862427" y1="611.0006072627691" x2="256.3474708994705" y2="468.31216326626986" stroke="yellow" opacity="0.35" stroke-width="2"/><line x1="242.78268783068742" y1="466.07104684552957" x2="458.67128042327965" y2="579.6249773724044" stroke="yellow" opacity="0.35" stroke-width="2"/></svg>