<svg viewBox="0,0,955,1146" width="955" height="1146" style="width: 100%; height: auto;" xmlns="http://www.w3.org/2000/svg" xmlns:xlink="http://www.w3.org/1999/xlink"><rect width="955" height="1146" fill="black"/><g stroke="#000" stroke-opacity="0.2"><path d="M0,-13.34775705149959L2.9967581703553763,-4.1246837657014135L12.69447132175327,-4.124683765701414L4.848856575698947,1.5754890056530315L7.845614746054325,10.798562291451207L8.881784197001252e-16,5.098389520096762L-7.845614746054323,10.798562291451208L-4.848856575698946,1.5754890056530328L-12.694471321753271,-4.124683765701411L-2.9967581703553776,-4.124683765701413Z" transform="translate(176.1865729898518,673.045214260077)rotate(22.761708977990903)" fill="white" class="commune"><title>87126 Population : 3781</title></path><path d="M0,-13.34775705149959L2.9967581703553763,-4.1246837657014135L12.69447132175327,-4.124683765701414L4.848856575698947,1.5754890056530315L7.845614746054325,10.798562291451207L8.881784197001252e-16,5.098389520096762L-7.845614746054323,10.798562291451208L-4.848856575698946,1.5754890056530328L-12.694471321753271,-4.124683765701411L-2.9967581703553776,-4.124683765701413Z" transform="translate(316.77595628415327,387.45090476061887)rotate(29.283140350089358)" fill="white" class="commune"><title>87011 Population : 3963</title></path><path d="M0,-26.69551410299918L5.993516340710753,-8.249367531402827L25.38894264350654,-8.249367531402829L9.697713151397894,3.150978011306063L15.69122949210865,21.597124582902413L1.7763568394002505e-15,10.196779040193524L-15.691229492108645,21.597124582902417L-9.697713151397892,3.1509780113060657L-25.388942643506542,-8.249367531402822L-5.993516340710755,-8.249367531402825Z" transform="translate(463.01717408274817,641.6093205426005)rotate(10.98697689516208)" fill="white" class="commune"><title>87085 Population : 132660</title></path></g><text class="text" y="40" x="427.5" text-anchor="middle" font-size="36" font-family="Helvetica" fill="#6baed6">87 - HAUTE VIENNE</text><line x1="326.5253708040596" y1="404.3947991460843" x2="453.26775956284183" y2="624.665426157135" stroke="yellow" opacity="0.35" stroke-width="2"/><line x1="443.8951340098884" y1="643.7050467904322" x2="195.30861306271157" y2="670.9494880122453" stroke="yellow" opacity="0.35" stroke-width="2"/><line x1="185.55919854280523" y1="654.0055936267798" x2="307.40333073119984" y2="406.4905253939161" stroke="yellow" opacity="0.35" stroke-width="2"/></svg>