<svg viewBox="0,0,955,1146" width="955" height="1146" style="width: 100%; height: auto;" xmlns="http://www.w3.org/2000/svg" xmlns:xlink="http://www.w3.org/1999/xlink"><rect width="955" height="1146" fill="black"/><g stroke="#000" stroke-opacity="0.2"><path d="M0,-13.34775705149959L2.9967581703553763,-4.1246837657014135L12.69447132175327,-4.124683765701414L4.848856575698947,1.5754890056530315L7.845614746054325,10.798562291451207L8.881784197001252e-16,5.098389520096762L-7.845614746054323,10.798562291451208L-4.848856575698946,1.5754890056530328L-12.694471321753271,-4.124683765701411L-2.9967581703553776,-4.124683765701413Z" transform="translate(587.3741480007975,818.5558017326111)rotate(10.387596729816824)" fill="white" class="commune"><title>55122 Population : 5673</title></path><path d="M0,-15.873247654971056L3.5637661381291506,-4.905103281308338L15.096355617026989,-4.905103281308339L5.766294739448918,1.873582735131148L9.330060877578072,12.841727108793865L8.881784197001252e-16,6.063041092354379L-9.330060877578068,12.841727108793867L-5.766294739448918,1.8735827351311491L-15.09635561702699,-4.905103281308335L-3.563766138129152,-4.905103281308337Z" transform="translate(353.3332799015375,802.2965098618442)rotate(10.375462535070431)" fill="white" class="commune"><title>55029 Population : 15221</title></path><path d="M0,-15.873247654971056L3.5637661381291506,-4.905103281308338L15.096355617026989,-4.905103281308339L5.766294739448918,1.873582735131148L9.330060877578072,12.841727108793865L8.881784197001252e-16,6.063041092354379L-9.330060877578068,12.841727108793867L-5.766294739448918,1.8735827351311491L-15.09635561702699,-4.905103281308335L-3.563766138129152,-4.905103281308337Z" transform="translate(472.438047382077,455.8545795503669)rotate(16.683887315218115)" fill="white" class="commune"><title>55545 Population : 17913</title></path></g><text class="text" y="40" x="427.5" text-anchor="middle" font-size="36" font-family="Helvetica" fill="#6baed6">55 - MEUSE</text><line x1="368.93600444148814" y1="803.3804626532287" x2="571.7714234608468" y2="817.4718489412267" stroke="yellow" opacity="0.35" stroke-width="2"/><line x1="579.7117412928828" y1="794.3757202537948" x2="480.10045408999173" y2="480.0346610291832" stroke="yellow" opacity="0.35" stroke-width="2"/><line x1="464.497729550041" y1="478.9507082377987" x2="361.27359773357347" y2="779.2003811744124" stroke="yellow" opacity="0.35" stroke-width="2"/></svg>