<svg viewBox="0,0,954,1144.8" width="954" height="1144.8" style="width: 100%; height: auto;" xmlns="http://www.w3.org/2000/svg" xmlns:xlink="http://www.w3.org/1999/xlink"><rect width="954" height="1144.8" fill="black"/><g stroke="#000" stroke-opacity="0.2"><path d="M0,-13.34775705149959L2.9967581703553763,-4.1246837657014135L12.69447132175327,-4.124683765701414L4.848856575698947,1.5754890056530315L7.845614746054325,10.798562291451207L8.881784197001252e-16,5.098389520096762L-7.845614746054323,10.798562291451208L-4.848856575698946,1.5754890056530328L-12.694471321753271,-4.124683765701411L-2.9967581703553776,-4.124683765701413Z" transform="translate(239.4312912067561,537.7860639890678)rotate(24.622869653389866)" fill="white" class="commune"><title>insee_com : 09261 
Population : 6383
 Nom : SAINT GIRONS</title></path><path d="M0,-13.34775705149959L2.9967581703553763,-4.1246837657014135L12.69447132175327,-4.124683765701414L4.848856575698947,1.5754890056530315L7.845614746054325,10.798562291451207L8.881784197001252e-16,5.098389520096762L-7.845614746054323,10.798562291451208L-4.848856575698946,1.5754890056530328L-12.694471321753271,-4.124683765701411L-2.9967581703553776,-4.124683765701413Z" transform="translate(546.9479961478627,554.9932278116758)rotate(4.819173696920526)" fill="white" class="commune"><title>insee_com : 09122 
Population : 9532
 Nom : FOIX</title></path><path d="M0,-15.873247654971056L3.5637661381291506,-4.905103281308338L15.096355617026989,-4.905103281308339L5.766294739448918,1.873582735131148L9.330060877578072,12.841727108793865L8.881784197001252e-16,6.063041092354379L-9.330060877578068,12.841727108793867L-5.766294739448918,1.8735827351311491L-15.09635561702699,-4.905103281308335L-3.563766138129152,-4.905103281308337Z" transform="translate(548.6221942366102,416.82132465979157)rotate(21.53537288401301)" fill="white" class="commune"><title>insee_com : 09225 
Population : 15675
 Nom : PAMIERS</title></path></g><text class="text" y="40" x="427" text-anchor="middle" font-size="36" font-family="Helvetica" fill="#6baed6">09  - ARIEGE</text><line x1="547.0596093537791" y1="545.7817676015501" x2="548.5105810306937" y2="426.0327848699172" stroke="yellow" opacity="0.35" stroke-width="2"/><line x1="528.0094673679532" y1="424.8856406150766" x2="260.044018075413" y2="529.7217480337827" stroke="yellow" opacity="0.35" stroke-width="2"/><line x1="259.93240486949657" y1="538.9332082439083" x2="526.4468824851223" y2="553.8460835568352" stroke="yellow" opacity="0.35" stroke-width="2"/></svg>