<svg viewBox="0,0,954,1144.8" width="954" height="1144.8" style="width: 100%; height: auto;" xmlns="http://www.w3.org/2000/svg" xmlns:xlink="http://www.w3.org/1999/xlink"><rect width="954" height="1144.8" fill="black"/><g stroke="#000" stroke-opacity="0.2"><path d="M0,-13.34775705149959L2.9967581703553763,-4.1246837657014135L12.69447132175327,-4.124683765701414L4.848856575698947,1.5754890056530315L7.845614746054325,10.798562291451207L8.881784197001252e-16,5.098389520096762L-7.845614746054323,10.798562291451208L-4.848856575698946,1.5754890056530328L-12.694471321753271,-4.124683765701411L-2.9967581703553776,-4.124683765701413Z" transform="translate(716.9251034182453,615.3283010763516)rotate(23.53284090961163)" fill="white" class="commune"><title>insee_com : 61293 
Population : 3818
 Nom : MORTAGNE AU PERCHE</title></path><path d="M0,-15.873247654971056L3.5637661381291506,-4.905103281308338L15.096355617026989,-4.905103281308339L5.766294739448918,1.873582735131148L9.330060877578072,12.841727108793865L8.881784197001252e-16,6.063041092354379L-9.330060877578068,12.841727108793867L-5.766294739448918,1.8735827351311491L-15.09635561702699,-4.905103281308335L-3.563766138129152,-4.905103281308337Z" transform="translate(440.3420422381886,448.5536781068149)rotate(8.300022277930573)" fill="white" class="commune"><title>insee_com : 61006 
Population : 13823
 Nom : ARGENTAN</title></path><path d="M0,-18.876579049491834L4.238056047668955,-5.833183721955068L17.952693510379785,-5.833183721955069L6.857318731355415,2.2280779191642193L11.095374779024372,15.271473246700983L8.881784197001252e-16,7.210211605581696L-11.095374779024368,15.271473246700985L-6.857318731355414,2.2280779191642206L-17.952693510379788,-5.833183721955065L-4.238056047668956,-5.833183721955068Z" transform="translate(488.8584802961028,682.0540730431603)rotate(22.101707750167357)" fill="white" class="commune"><title>insee_com : 61001 
Population : 25848
 Nom : ALENCON</title></path></g><text class="text" y="40" x="427" text-anchor="middle" font-size="36" font-family="Helvetica" fill="#6baed6">61  - ORNE</text><line x1="485.62405109224187" y1="666.4873800474039" x2="443.5764714420495" y2="464.12037110257126" stroke="yellow" opacity="0.35" stroke-width="2"/><line x1="458.7809129835257" y1="459.671986304784" x2="698.4862326729082" y2="604.2099928783825" stroke="yellow" opacity="0.35" stroke-width="2"/><line x1="701.7206618767691" y1="619.7766858741389" x2="504.062921837579" y2="677.605688245373" stroke="yellow" opacity="0.35" stroke-width="2"/></svg>