<svg viewBox="0,0,600,600" width="600" height="600" style="width: 100%; height: auto;" xmlns="http://www.w3.org/2000/svg" xmlns:xlink="http://www.w3.org/1999/xlink"><rect width="752" height="902.4" fill="black"/><g stroke="#000" stroke-opacity="0.2"><path d="M0,-13.34775705149959L2.9967581703553763,-4.1246837657014135L12.69447132175327,-4.124683765701414L4.848856575698947,1.5754890056530315L7.845614746054325,10.798562291451207L8.881784197001252e-16,5.098389520096762L-7.845614746054323,10.798562291451208L-4.848856575698946,1.5754890056530328L-12.694471321753271,-4.124683765701411L-2.9967581703553776,-4.124683765701413Z" transform="translate(396.15646258503375,467.02205150233567)rotate(19.436616751147124)" fill="white" class="commune"><title>04039 Population : 1547</title></path><path d="M0,-13.34775705149959L2.9967581703553763,-4.1246837657014135L12.69447132175327,-4.124683765701414L4.848856575698947,1.5754890056530315L7.845614746054325,10.798562291451207L8.881784197001252e-16,5.098389520096762L-7.845614746054323,10.798562291451208L-4.848856575698946,1.5754890056530328L-12.694471321753271,-4.124683765701411L-2.9967581703553776,-4.124683765701413Z" transform="translate(456.7687074829928,188.74430945168933)rotate(12.439773368882586)" fill="white" class="commune"><title>04019 Population : 2610</title></path><path d="M0,-13.34775705149959L2.9967581703553763,-4.1246837657014135L12.69447132175327,-4.124683765701414L4.848856575698947,1.5754890056530315L7.845614746054325,10.798562291451207L8.881784197001252e-16,5.098389520096762L-7.845614746054323,10.798562291451208L-4.848856575698946,1.5754890056530328L-12.694471321753271,-4.124683765701411L-2.9967581703553776,-4.124683765701413Z" transform="translate(133.5034013605441,407.3052075697633)rotate(0.11126569011690512)" fill="white" class="commune"><title>04088 Population : 4966</title></path><path d="M0,-15.873247654971056L3.5637661381291506,-4.905103281308338L15.096355617026989,-4.905103281308339L5.766294739448918,1.873582735131148L9.330060877578072,12.841727108793865L8.881784197001252e-16,6.063041092354379L-9.330060877578068,12.841727108793867L-5.766294739448918,1.8735827351311491L-15.09635561702699,-4.905103281308335L-3.563766138129152,-4.905103281308337Z" transform="translate(301.12244897959135,339.13893142087545)rotate(25.600285418326713)" fill="white" class="commune"><title>04070 Population : 16186</title></path></g><text class="text" y="25" x="326" text-anchor="middle" font-size="24" font-family="Helvetica" fill="#6baed6">04 - ALPES DE HAUTE PROVENCE</text><line x1="452.7278911564622" y1="207.29615892173243" x2="400.19727891156435" y2="448.4702020322926" stroke="yellow" opacity="0.35" stroke-width="2"/><line x1="389.82086167800423" y1="458.49651016357166" x2="307.45804988662087" y2="347.66447275963947" stroke="yellow" opacity="0.35" stroke-width="2"/><line x1="289.9478458049882" y1="343.6833498308013" x2="144.67800453514727" y2="402.76078915983743" stroke="yellow" opacity="0.35" stroke-width="2"/><line x1="155.05442176870736" y1="392.7344810285584" x2="435.21768707482954" y2="203.31503599289425" stroke="yellow" opacity="0.35" stroke-width="2"/></svg>