<svg viewBox="0,0,954,1144.8" width="954" height="1144.8" style="width: 100%; height: auto;" xmlns="http://www.w3.org/2000/svg" xmlns:xlink="http://www.w3.org/1999/xlink"><rect width="954" height="1144.8" fill="black"/><g stroke="#000" stroke-opacity="0.2"><path d="M0,-13.34775705149959L2.9967581703553763,-4.1246837657014135L12.69447132175327,-4.124683765701414L4.848856575698947,1.5754890056530315L7.845614746054325,10.798562291451207L8.881784197001252e-16,5.098389520096762L-7.845614746054323,10.798562291451208L-4.848856575698946,1.5754890056530328L-12.694471321753271,-4.124683765701411L-2.9967581703553776,-4.124683765701413Z" transform="translate(606.9404214095421,682.0664951533181)rotate(3.949068695542742)" fill="white" class="commune"><title>insee_com : 23008 
Population : 3366
 Nom : AUBUSSON</title></path><path d="M0,-15.873247654971056L3.5637661381291506,-4.905103281308338L15.096355617026989,-4.905103281308339L5.766294739448918,1.873582735131148L9.330060877578072,12.841727108793865L8.881784197001252e-16,6.063041092354379L-9.330060877578068,12.841727108793867L-5.766294739448918,1.8735827351311491L-15.09635561702699,-4.905103281308335L-3.563766138129152,-4.905103281308337Z" transform="translate(389.0959069992732,458.1417343986104)rotate(1.3582909566036572)" fill="white" class="commune"><title>insee_com : 23096 
Population : 13161
 Nom : GUERET</title></path></g><text class="text" y="40" x="427" text-anchor="middle" font-size="36" font-family="Helvetica" fill="#6baed6">23  - CREUSE</text><line x1="592.4174537821908" y1="667.138177769671" x2="403.61887462662446" y2="473.0700517822576" stroke="yellow" opacity="0.35" stroke-width="2"/><line x1="403.61887462662446" y1="473.0700517822576" x2="592.4174537821908" y2="667.138177769671" stroke="yellow" opacity="0.35" stroke-width="2"/></svg>