<svg viewBox="0,0,600,600" width="600" height="600" style="width: 100%; height: auto;" xmlns="http://www.w3.org/2000/svg" xmlns:xlink="http://www.w3.org/1999/xlink"><rect width="752" height="902.4" fill="black"/><g stroke="#000" stroke-opacity="0.2"><path d="M0,-13.34775705149959L2.9967581703553763,-4.1246837657014135L12.69447132175327,-4.124683765701414L4.848856575698947,1.5754890056530315L7.845614746054325,10.798562291451207L8.881784197001252e-16,5.098389520096762L-7.845614746054323,10.798562291451208L-4.848856575698946,1.5754890056530328L-12.694471321753271,-4.124683765701411L-2.9967581703553776,-4.124683765701413Z" transform="translate(158.22222222222229,282.53463189198374)rotate(6.597624037769531)" fill="white" class="commune"><title>09261 Population : 6353</title></path><path d="M0,-13.34775705149959L2.9967581703553763,-4.1246837657014135L12.69447132175327,-4.124683765701414L4.848856575698947,1.5754890056530315L7.845614746054325,10.798562291451207L8.881784197001252e-16,5.098389520096762L-7.845614746054323,10.798562291451208L-4.848856575698946,1.5754890056530328L-12.694471321753271,-4.124683765701411L-2.9967581703553776,-4.124683765701413Z" transform="translate(344.8148148148149,288.6593447916275)rotate(2.8944355889037543)" fill="white" class="commune"><title>09122 Population : 9613</title></path><path d="M0,-15.873247654971056L3.5637661381291506,-4.905103281308338L15.096355617026989,-4.905103281308339L5.766294739448918,1.873582735131148L9.330060877578072,12.841727108793865L8.881784197001252e-16,6.063041092354379L-9.330060877578068,12.841727108793867L-5.766294739448918,1.8735827351311491L-15.09635561702699,-4.905103281308335L-3.563766138129152,-4.905103281308337Z" transform="translate(346.85185185185196,200.02260978009144)rotate(7.245738681014328)" fill="white" class="commune"><title>09225 Population : 15688</title></path></g><text class="text" y="25" x="326" text-anchor="middle" font-size="24" font-family="Helvetica" fill="#6baed6">09 - ARIEGE</text><line x1="344.9506172839507" y1="282.7502291241918" x2="346.71604938271616" y2="205.93172544752719" stroke="yellow" opacity="0.35" stroke-width="2"/><line x1="334.27654320987665" y1="205.5234112542176" x2="170.7975308641976" y2="277.0338304178576" stroke="yellow" opacity="0.35" stroke-width="2"/><line x1="170.6617283950618" y1="282.94294608529333" x2="332.3753086419754" y2="288.2510305983179" stroke="yellow" opacity="0.35" stroke-width="2"/></svg>