<svg viewBox="0,0,954,1144.8" width="954" height="1144.8" style="width: 100%; height: auto;" xmlns="http://www.w3.org/2000/svg" xmlns:xlink="http://www.w3.org/1999/xlink"><rect width="954" height="1144.8" fill="black"/><g stroke="#000" stroke-opacity="0.2"><path d="M0,-15.873247654971056L3.5637661381291506,-4.905103281308338L15.096355617026989,-4.905103281308339L5.766294739448918,1.873582735131148L9.330060877578072,12.841727108793865L8.881784197001252e-16,6.063041092354379L-9.330060877578068,12.841727108793867L-5.766294739448918,1.8735827351311491L-15.09635561702699,-4.905103281308335L-3.563766138129152,-4.905103281308337Z" transform="translate(697.8042882668253,276.81018950510406)rotate(20.62304674001618)" fill="white" class="commune"><title>insee_com : 44036 
Population : 11974
 Nom : CHATEAUBRIANT</title></path><path d="M0,-22.448162112566994L5.039926405668234,-6.936863585267022L21.349470856006818,-6.936863585267023L8.154772225169292,2.649646114250548L13.19469863083753,18.16094464155052L8.881784197001252e-16,8.574434942032948L-13.194698630837525,18.160944641550522L-8.154772225169292,2.649646114250549L-21.34947085600682,-6.936863585267019L-5.0399264056682345,-6.936863585267021Z" transform="translate(246.7195949970219,633.5110959626109)rotate(7.374998499405056)" fill="white" class="commune"><title>insee_com : 44184 
Population : 69993
 Nom : SAINT NAZAIRE</title></path><path d="M0,-31.746495309942112L7.127532276258301,-9.810206562616676L30.192711234053977,-9.810206562616678L11.532589478897837,3.747165470262296L18.660121755156144,25.68345421758773L1.7763568394002505e-15,12.126082184708759L-18.660121755156137,25.683454217587734L-11.532589478897837,3.7471654702622983L-30.19271123405398,-9.81020656261667L-7.127532276258304,-9.810206562616674Z" transform="translate(601.8586063132817,677.0536396961506)rotate(3.8671071276493185)" fill="white" class="commune"><title>insee_com : 44109 
Population : 309346
 Nom : NANTES</title></path></g><text class="text" y="40" x="427" text-anchor="middle" font-size="36" font-family="Helvetica" fill="#6baed6">44  - LOIRE ATLANTIQUE</text><line x1="691.4079094699224" y1="303.49308618450715" x2="608.2549851101846" y2="650.3707430167475" stroke="yellow" opacity="0.35" stroke-width="2"/><line x1="578.1826722255311" y1="674.150803447248" x2="270.39552908477253" y2="636.4139322115135" stroke="yellow" opacity="0.35" stroke-width="2"/><line x1="276.79190788167546" y1="609.7310355321104" x2="667.7319753821718" y2="300.5902499356045" stroke="yellow" opacity="0.35" stroke-width="2"/></svg>