<svg viewBox="0,0,954,1144.8" width="954" height="1144.8" style="width: 100%; height: auto;" xmlns="http://www.w3.org/2000/svg" xmlns:xlink="http://www.w3.org/1999/xlink"><rect width="954" height="1144.8" fill="black"/><g stroke="#000" stroke-opacity="0.2"><path d="M0,-15.873247654971056L3.5637661381291506,-4.905103281308338L15.096355617026989,-4.905103281308339L5.766294739448918,1.873582735131148L9.330060877578072,12.841727108793865L8.881784197001252e-16,6.063041092354379L-9.330060877578068,12.841727108793867L-5.766294739448918,1.8735827351311491L-15.09635561702699,-4.905103281308335L-3.563766138129152,-4.905103281308337Z" transform="translate(134.78985237563575,548.5942857958398)rotate(20.458518337085135)" fill="white" class="commune"><title>insee_com : 12300 
Population : 11867
 Nom : VILLEFRANCHE DE ROUERGUE</title></path><path d="M0,-18.876579049491834L4.238056047668955,-5.833183721955068L17.952693510379785,-5.833183721955069L6.857318731355415,2.2280779191642193L11.095374779024372,15.271473246700983L8.881784197001252e-16,7.210211605581696L-11.095374779024368,15.271473246700985L-6.857318731355414,2.2280779191642206L-17.952693510379788,-5.833183721955065L-4.238056047668956,-5.833183721955068Z" transform="translate(719.2329735764793,743.5090287388994)rotate(8.830429897831044)" fill="white" class="commune"><title>insee_com : 12145 
Population : 22109
 Nom : MILLAU</title></path><path d="M0,-18.876579049491834L4.238056047668955,-5.833183721955068L17.952693510379785,-5.833183721955069L6.857318731355415,2.2280779191642193L11.095374779024372,15.271473246700983L8.881784197001252e-16,7.210211605581696L-11.095374779024368,15.271473246700985L-6.857318731355414,2.2280779191642206L-17.952693510379788,-5.833183721955065L-4.238056047668956,-5.833183721955068Z" transform="translate(437.91750403175774,548.8295256997262)rotate(26.566285571163554)" fill="white" class="commune"><title>insee_com : 12202 
Population : 24057
 Nom : RODEZ</title></path></g><text class="text" y="40" x="427" text-anchor="middle" font-size="36" font-family="Helvetica" fill="#6baed6">12  - AVEYRON</text><line x1="700.4786089401645" y1="730.5303952029545" x2="456.67186866807253" y2="561.808159235671" stroke="yellow" opacity="0.35" stroke-width="2"/><line x1="417.7089939213496" y1="548.8138430394671" x2="154.99836248604387" y2="548.609968456099" stroke="yellow" opacity="0.35" stroke-width="2"/><line x1="173.75272712235864" y1="561.5886019920438" x2="680.2700988297563" y2="730.5147125426954" stroke="yellow" opacity="0.35" stroke-width="2"/></svg>