<svg viewBox="0,0,954,1144.8" width="954" height="1144.8" style="width: 100%; height: auto;" xmlns="http://www.w3.org/2000/svg" xmlns:xlink="http://www.w3.org/1999/xlink"><rect width="954" height="1144.8" fill="black"/><g stroke="#000" stroke-opacity="0.2"><path d="M0,-15.873247654971056L3.5637661381291506,-4.905103281308338L15.096355617026989,-4.905103281308339L5.766294739448918,1.873582735131148L9.330060877578072,12.841727108793865L8.881784197001252e-16,6.063041092354379L-9.330060877578068,12.841727108793867L-5.766294739448918,1.8735827351311491L-15.09635561702699,-4.905103281308335L-3.563766138129152,-4.905103281308337Z" transform="translate(627.2012470682453,799.8481260809458)rotate(20.79555625688352)" fill="white" class="commune"><title>insee_com : 57630 
Population : 12045
 Nom : SARREBOURG</title></path><path d="M0,-18.876579049491834L4.238056047668955,-5.833183721955068L17.952693510379785,-5.833183721955069L6.857318731355415,2.2280779191642193L11.095374779024372,15.271473246700983L8.881784197001252e-16,7.210211605581696L-11.095374779024368,15.271473246700985L-6.857318731355414,2.2280779191642206L-17.952693510379788,-5.833183721955065L-4.238056047668956,-5.833183721955068Z" transform="translate(634.4928207768435,504.16757457965286)rotate(5.500422522570725)" fill="white" class="commune"><title>insee_com : 57631 
Population : 20783
 Nom : SARREGUEMINES</title></path><path d="M0,-18.876579049491834L4.238056047668955,-5.833183721955068L17.952693510379785,-5.833183721955069L6.857318731355415,2.2280779191642193L11.095374779024372,15.271473246700983L8.881784197001252e-16,7.210211605581696L-11.095374779024368,15.271473246700985L-6.857318731355414,2.2280779191642206L-17.952693510379788,-5.833183721955065L-4.238056047668956,-5.833183721955068Z" transform="translate(543.9945655282877,443.52899187249204)rotate(11.382458793720986)" fill="white" class="commune"><title>insee_com : 57227 
Population : 21552
 Nom : FORBACH</title></path><path d="M0,-22.448162112566994L5.039926405668234,-6.936863585267022L21.349470856006818,-6.936863585267023L8.154772225169292,2.649646114250548L13.19469863083753,18.16094464155052L8.881784197001252e-16,8.574434942032948L-13.194698630837525,18.160944641550522L-8.154772225169292,2.649646114250549L-21.34947085600682,-6.936863585267019L-5.0399264056682345,-6.936863585267021Z" transform="translate(167.88381671529032,307.75993654542253)rotate(17.258680194988887)" fill="white" class="commune"><title>insee_com : 57672 
Population : 40701
 Nom : THIONVILLE</title></path><path d="M0,-26.69551410299918L5.993516340710753,-8.249367531402827L25.38894264350654,-8.249367531402829L9.697713151397894,3.150978011306063L15.69122949210865,21.597124582902413L1.7763568394002505e-15,10.196779040193524L-15.691229492108645,21.597124582902417L-9.697713151397892,3.1509780113060657L-25.388942643506542,-8.249367531402822L-5.993516340710755,-8.249367531402825Z" transform="translate(172.12430638979504,496.3459643982387)rotate(6.9263556966218465)" fill="white" class="commune"><title>insee_com : 57463 
Population : 116429
 Nom : METZ</title></path></g><text class="text" y="40" x="427" text-anchor="middle" font-size="36" font-family="Helvetica" fill="#6baed6">57  - MOSELLE</text><line x1="202.46276910169172" y1="516.5794418437525" x2="596.8627843563486" y2="779.614648635432" stroke="yellow" opacity="0.35" stroke-width="2"/><line x1="627.6873519821518" y1="780.136089314193" x2="634.006715862937" y2="523.8796113464057" stroke="yellow" opacity="0.35" stroke-width="2"/><line x1="628.4596037602731" y1="500.12500239917546" x2="550.027782544858" y2="447.57156405296945" stroke="yellow" opacity="0.35" stroke-width="2"/><line x1="518.9205156074212" y1="434.4777215173541" x2="192.9578666361568" y2="316.8112069005605" stroke="yellow" opacity="0.35" stroke-width="2"/><line x1="168.16651602692397" y1="320.33233840227695" x2="171.8416070781614" y2="483.7735625413843" stroke="yellow" opacity="0.35" stroke-width="2"/></svg>