<svg viewBox="0,0,954,1144.8" width="954" height="1144.8" style="width: 100%; height: auto;" xmlns="http://www.w3.org/2000/svg" xmlns:xlink="http://www.w3.org/1999/xlink"><rect width="954" height="1144.8" fill="black"/><g stroke="#000" stroke-opacity="0.2"><path d="M0,-22.448162112566994L5.039926405668234,-6.936863585267022L21.349470856006818,-6.936863585267023L8.154772225169292,2.649646114250548L13.19469863083753,18.16094464155052L8.881784197001252e-16,8.574434942032948L-13.194698630837525,18.160944641550522L-8.154772225169292,2.649646114250549L-21.34947085600682,-6.936863585267019L-5.0399264056682345,-6.936863585267021Z" transform="translate(266.2891555145361,877.909435464775)rotate(22.208975982269727)" fill="white" class="commune"><title>insee_com : 06069 
Population : 50396
 Nom : GRASSE</title></path><path d="M0,-37.75315809898367L8.47611209533791,-11.666367443910136L35.90538702075957,-11.666367443910138L13.71463746271083,4.4561558383284385L22.190749558048743,30.542946493401967L1.7763568394002505e-15,14.420423211163392L-22.190749558048736,30.54294649340197L-13.714637462710828,4.456155838328441L-35.905387020759576,-11.66636744391013L-8.476112095337912,-11.666367443910136Z" transform="translate(555.6359021688977,834.1880400972877)rotate(26.190006356982728)" fill="white" class="commune"><title>insee_com : 06088 
Population : 340017
 Nom : NICE</title></path></g><text class="text" y="40" x="427" text-anchor="middle" font-size="36" font-family="Helvetica" fill="#6baed6">06  - ALPES MARITIMES</text><line x1="285.5789386248269" y1="874.9946757736092" x2="536.346119058607" y2="837.1027997884536" stroke="yellow" opacity="0.35" stroke-width="2"/><line x1="536.346119058607" y1="837.1027997884536" x2="285.5789386248269" y2="874.9946757736092" stroke="yellow" opacity="0.35" stroke-width="2"/></svg>