<svg viewBox="0,0,600,600" width="600" height="600" style="width: 100%; height: auto;" xmlns="http://www.w3.org/2000/svg" xmlns:xlink="http://www.w3.org/1999/xlink"><rect width="752" height="902.4" fill="black"/><path d="M485.20408163265256,254.63255288810979L485.20408163265256,254.63255288810979L484.8299319727889,255.1549102093486L483.7074829931971,256.19959820693475L484.08163265306075,257.7665635979356L484.08163265306075,258.8111627937287L484.08163265306075,259.8557264752635L483.7074829931971,261.42250541640897L483.33333333333303,263.5114197391049L483.33333333333303,265.07801229813776L484.45578231292484,266.64452499986146L484.08163265306075,268.73308440115215L484.08163265306075,268.73308440115215L481.46258503401305,271.3435840854763L480.34013605442124,272.38772188339135L479.9659863945576,272.90977748225123L479.9659863945576,273.9538620820276L480.34013605442124,273.9538620820276L480.7142857142853,274.4758910838791L480.7142857142853,274.4758910838791L481.0884353741494,274.4758910838791L481.0884353741494,275.51992249378236L481.46258503401305,276.5639184483698L481.0884353741494,279.1737532420011L480.7142857142853,279.69569361706453L479.5918367346935,280.21762513198337L477.3469387755099,281.2614615831917L476.9727891156458,282.3052625993223L476.5986394557822,282.8271498203758L475.1020408163258,285.9582871576167L475.1020408163258,285.9582871576167L474.3537414965981,287.00192876139045L473.97959183673447,287.52373628248097L473.97959183673447,287.52373628248097L474.3537414965981,288.5673247653431L475.1020408163258,289.61087783885523L475.850340136054,290.65439550671L475.850340136054,290.65439550671L475.850340136054,291.1761410646468L475.1020408163258,293.7847361129352L475.1020408163258,294.30642857752537L474.3537414965981,294.8281121948203L473.6054421768704,295.34978696530015L472.4829931972786,296.39310996760105L471.73469387755085,296.39310996760105L469.4897959183668,298.4796498304786L469.4897959183668,298.4796498304786L469.86394557823087,299.00126268600434L469.86394557823087,299.52286669838577L470.23809523809496,300.04446186805944L470.98639455782313,301.087625681168L471.73469387755085,302.1307541289825L473.2312925170063,303.6953804988225L474.3537414965981,306.30291434075116L473.97959183673447,307.34586601716L473.97959183673447,308.38878235028096L473.97959183673447,308.91022726425217L474.3537414965981,308.91022726425217L474.7278911564622,309.4316633437884L475.850340136054,310.474509001353L476.5986394557822,311.5173193266419L476.9727891156458,313.0814685745463L476.5986394557822,313.0814685745463L476.5986394557822,313.60283399499895L476.2244897959181,313.60283399499895L476.2244897959181,314.1241905851348L476.2244897959181,315.6882073781999L476.5986394557822,316.7308410970254L476.5986394557822,317.77343950554496L477.3469387755099,320.9010229058913L477.3469387755099,321.42225591958413L477.721088435374,321.9434801098214L478.0952380952376,321.9434801098214L478.4693877551017,322.4646954770433L478.8435374149658,322.9859020217373L478.8435374149658,322.9859020217373L480.34013605442124,323.5070997443472L480.7142857142853,323.5070997443472L480.7142857142853,323.5070997443472L481.46258503401305,324.0282886453206L481.46258503401305,324.0282886453206L481.83673469387713,324.54946872513756L481.83673469387713,325.0706399842238L482.2108843537412,325.5918024230705L482.2108843537412,326.1129560421032L482.2108843537412,326.1129560421032L483.33333333333303,327.67636398502145L483.7074829931971,328.1974823294513L484.08163265306075,328.7185918563664L484.45578231292484,329.23969256621785L485.95238095238074,330.8029417980324L488.19727891156435,332.8871506960786L489.69387755102025,334.9712185797507L490.0680272108839,335.49221352059976L490.44217687074797,336.01319965032235L490.81632653061206,337.5761051773952L491.1904761904757,338.0970560672249L491.5646258503398,339.13893142087545L491.93877551020387,339.65985588558397L492.3129251700675,340.7016783930776L493.4353741496593,341.22257643678313L493.0612244897952,341.7434656743935L493.0612244897952,341.7434656743935L493.4353741496593,342.26434610635624L493.8095238095234,343.30608055520497L494.18367346938703,343.8269345730114L494.5578231292511,344.3477797870037L494.9319727891152,344.86861619763295L495.30612244897884,344.86861619763295L495.30612244897884,344.86861619763295L495.6802721088434,344.86861619763295L495.6802721088434,344.86861619763295L495.30612244897884,345.3894438053758L495.30612244897884,345.9102626106578L494.9319727891152,345.9102626106578L494.18367346938703,348.5142246164687L493.8095238095234,350.5972358236904L492.3129251700675,352.6801062647937L492.3129251700675,353.2008018837914L492.3129251700675,353.7214887071714L492.6870748299316,355.80414805383407L492.6870748299316,356.32479090605193L492.3129251700675,357.36605023232914L492.3129251700675,358.4072743907782L491.93877551020387,359.969044696747L491.5646258503398,362.0512820513104L491.93877551020387,363.6128677931338L491.93877551020387,364.1333788001393L491.93877551020387,364.1333788001393L491.93877551020387,364.65388102112047L491.93877551020387,365.17437445652104L492.3129251700675,365.17437445652104L493.0612244897952,365.6948591067776L494.18367346938703,366.2153349723776L495.30612244897884,367.25626035136884L497.5510204081629,369.8584200989426L497.92517006802655,370.3788257035485L499.79591836734653,371.4196105714618L501.2925170068024,372.46036032070697L502.41496598639424,373.5010749549292L503.16326530612196,374.0214191050254L504.28571428571377,374.5417544777265L505.78231292516966,374.5417544777265L506.9047619047615,374.5417544777265L508.0272108843533,375.582398892795L509.1496598639451,377.143299696294L509.1496598639451,377.663582414174L509.5238095238092,379.2243779243872L510.2721088435369,382.34573209014707L510.646258503401,382.34573209014707L510.646258503401,382.86592708634635L511.39455782312916,383.3861133128921L511.39455782312916,383.9062907702064L512.1428571428569,383.9062907702064L515.1360544217682,385.98691291643263L517.7551020408164,387.02717138604567L519.6258503401359,388.0673947915129L522.2448979591836,389.6276641623808L522.9931972789113,390.6677999233616L525.6122448979586,391.18785465933615L526.7346938775509,391.70790063289314L526.3605442176868,392.2279378445055L525.9863945578227,392.2279378445055L524.8639455782309,395.34797713856096L525.6122448979586,395.34797713856096L527.8571428571422,397.4278281529696L528.979591836734,398.4677011165695L529.3537414965981,400.5473419747177L529.7278911564626,403.14669608026816L530.1020408163258,404.70620351621255L530.1020408163258,404.70620351621255L529.7278911564626,405.7458313863317L529.7278911564626,407.82498213359213L529.7278911564626,408.3447479495262L530.1020408163258,409.90399291441645L530.1020408163258,410.42372374324987L531.5986394557822,409.90399291441645L532.721088435374,409.90399291441645L534.2176870748294,409.90399291441645L537.5850340136049,410.42372374324987L538.7074829931971,410.42372374324987L540.5782312925166,410.9434458264441L540.5782312925166,411.46315916447566L540.5782312925166,411.9828637577484L540.2040816326526,413.0222467119056L540.9523809523803,415.10090770334864L542.4489795918366,418.21863695251886L543.1972789115644,419.2578101199251L543.5714285714284,419.7773835964872L545.8163265306116,421.85559013225793L546.5646258503398,422.8946409842101L547.6870748299316,423.9336568970393L548.8095238095234,424.4531517523901L549.5578231292511,424.4531517523901L549.5578231292511,424.4531517523901L549.5578231292511,424.4531517523901L551.4285714285711,423.9336568970393L552.1768707482988,423.4141533077891L552.5510204081629,423.4141533077891L552.9251700680265,423.4141533077891L553.2993197278906,423.4141533077891L554.0476190476184,423.9336568970393L554.7959183673461,424.9726378743253L555.9183673469383,426.5310438440756L556.2925170068024,426.5310438440756L556.6666666666661,427.0504950368195L557.4149659863942,428.08937122922L557.7891156462579,428.08937122922L559.6598639455779,431.20579029455257L560.4081632653056,433.2832284476317L560.7823129251697,433.80256617038685L561.1564625850338,433.80256617038685L561.5306122448974,434.32189516786093L561.9047619047615,434.32189516786093L562.2789115646256,434.32189516786093L562.6530612244892,434.32189516786093L563.0272108843533,434.32189516786093L564.1496598639451,435.3605269886939L564.5238095238092,435.8798298129768L565.2721088435369,436.3991239137504L566.0204081632646,438.99546358104635L565.2721088435369,440.0339383993014L565.2721088435369,440.0339383993014L565.2721088435369,440.0339383993014L563.775510204081,440.0339383993014L563.775510204081,440.0339383993014L563.4013605442174,440.0339383993014L563.0272108843533,440.55316272838536L562.2789115646256,441.07237833803447L561.9047619047615,441.07237833803447L560.7823129251697,441.59158522868165L558.9115646258501,441.59158522868165L557.0408163265301,441.59158522868165L556.6666666666661,441.59158522868165L556.2925170068024,441.59158522868165L553.6734693877543,442.11078340081804L551.054421768707,442.11078340081804L549.1836734693875,442.62997285485835L548.0612244897957,442.62997285485835L546.9387755102039,443.6683256105316L546.5646258503398,443.6683256105316L546.1904761904757,443.6683256105316L544.6938775510198,444.18748891303403L543.9455782312921,444.18748891303403L542.0748299319721,441.59158522868165L540.9523809523803,439.5147053503497L540.9523809523803,438.99546358104635L539.4557823129248,437.95695387965316L538.7074829931971,437.43768594665016L537.9591836734689,436.3991239137504L536.8367346938771,435.3605269886939L534.9659863945576,434.84121544046866L533.4693877551017,434.84121544046866L532.721088435374,433.80256617038685L531.9727891156458,432.76388199911526L531.2244897959181,431.20579029455257L528.979591836734,431.20579029455257L525.9863945578227,430.16701885448856L525.6122448979586,430.16701885448856L525.238095238095,430.16701885448856L524.4897959183672,430.16701885448856L524.1156462585031,429.1282125005855L523.7414965986391,429.1282125005855L522.2448979591836,429.1282125005855L521.4965986394554,429.64762004198565L518.8775510204077,430.68640893853444L517.0068027210878,431.72516292303044L513.6394557823128,432.76388199911526L512.517006802721,433.2832284476317L511.7687074829928,434.32189516786093L511.7687074829928,436.3991239137504L510.2721088435369,437.95695387965316L509.1496598639451,439.5147053503497L508.40136054421737,440.55316272838536L507.65306122448965,442.62997285485835L506.9047619047615,444.18748891303403L506.1564625850333,445.22578936967693L505.78231292516966,446.26405496483494L505.4081632653056,446.26405496483494L505.4081632653056,446.7831746904594L505.0340136054415,446.7831746904594L503.53741496598604,447.8213880001276L502.7891156462583,448.85956645727856L502.04081632653015,449.37864261732466L500.5442176870747,449.897710065572L498.6734693877547,449.897710065572L497.5510204081629,450.4167688025009L496.054421768707,450.93581882857325L495.30612244897884,451.9738927499093L494.9319727891152,452.4929166460752L494.5578231292511,452.4929166460752L493.4353741496593,453.0119318331781L493.0612244897952,453.0119318331781L492.3129251700675,453.0119318331781L491.93877551020387,453.0119318331781L489.31972789115616,451.9738927499093L487.44897959183663,451.45486014423295L486.32653061224437,451.45486014423295L485.95238095238074,450.93581882857325L485.20408163265256,450.93581882857325L482.2108843537412,449.37864261732466L481.46258503401305,449.37864261732466L480.7142857142853,449.37864261732466L480.34013605442124,448.85956645727856L478.4693877551017,448.3404815850372L476.9727891156458,447.8213880001276L476.5986394557822,447.8213880001276L474.7278911564622,447.3022857020842L472.1088435374145,446.7831746904594L470.98639455782313,446.26405496483494L469.86394557823087,446.26405496483494L468.367346938775,445.74492652471963L466.87074829931953,445.22578936967693L465.37414965986363,444.7066434992739L464.6258503401359,444.7066434992739L463.8775510204082,444.7066434992739L463.8775510204082,444.7066434992739L464.2517006802718,446.26405496483494L464.2517006802718,446.7831746904594L465,447.8213880001276L465.37414965986363,448.3404815850372L466.12244897959135,449.37864261732466L466.49659863945544,449.37864261732466L467.99319727891134,449.37864261732466L469.86394557823087,449.37864261732466L470.6122448979586,449.897710065572L471.73469387755085,449.897710065572L472.4829931972786,450.4167688025009L472.85714285714266,450.93581882857325L473.2312925170063,451.45486014423295L473.6054421768704,451.45486014423295L473.6054421768704,451.9738927499093L473.97959183673447,453.5309383116546L473.97959183673447,454.56892514456194L473.6054421768704,455.0879054998986L473.6054421768704,455.0879054998986L473.6054421768704,455.6068771484206L473.97959183673447,457.6826766833219L474.3537414965981,459.2394349350034L475.1020408163258,460.7961148577342L475.47619047619037,461.3149907609877L475.850340136054,461.3149907609877L475.47619047619037,461.3149907609877L474.7278911564622,461.3149907609877L471.36054421768677,462.3527164636944L468.367346938775,462.8715662640607L467.24489795918316,463.3904073643498L466.12244897959135,464.9468784693345L464.6258503401359,467.5408230182875L464.2517006802718,468.0595858382294L463.8775510204082,470.1345501668111L463.12925170067956,472.20937539504666L462.7551020408164,474.2840615517089L463.12925170067956,474.2840615517089L464.2517006802718,474.2840615517089L465.37414965986363,474.2840615517089L465.7482993197277,474.2840615517089L465.7482993197277,474.2840615517089L466.49659863945544,474.2840615517089L467.61904761904725,474.8027113643184L469.11564625850315,475.3213524872008L470.23809523809496,475.83998492079627L471.36054421768677,476.87722372195276L472.1088435374145,476.87722372195276L473.2312925170063,476.87722372195276L475.850340136054,478.4330167653425L478.0952380952376,479.9887316294844L478.4693877551017,481.0258314453058L479.2176870748294,482.0628965237738L479.2176870748294,482.5814160376285L479.2176870748294,483.09992686847545L478.4693877551017,483.61842901679483L478.4693877551017,484.1369224830196L478.4693877551017,484.1369224830196L478.4693877551017,484.65540726758263L478.0952380952376,484.65540726758263L476.9727891156458,486.2108095359108L476.9727891156458,486.2108095359108L474.3537414965981,486.7292595983745L472.1088435374145,487.2477009814611L471.73469387755085,487.2477009814611L471.73469387755085,487.2477009814611L471.73469387755085,487.7661336855708L471.36054421768677,488.2845577111693L471.36054421768677,488.2845577111693L470.23809523809496,488.2845577111693L469.86394557823087,488.2845577111693L468.74149659863906,488.8029730587259L467.61904761904725,488.8029730587259L466.49659863945544,488.8029730587259L463.5034013605441,489.8397777214486L461.25850340136003,490.3581670375206L456.7687074829928,491.39491964130866L454.1496598639451,492.4316375436283L452.2789115646251,492.94998348286754L450.78231292516966,495.0232805040323L450.78231292516966,495.0232805040323L450.78231292516966,495.5415830776328L450.78231292516966,495.5415830776328L450.78231292516966,495.5415830776328L450.78231292516966,495.5415830776328L450.78231292516966,496.059876979456L450.4081632653056,496.059876979456L450.03401360544194,496.059876979456L449.65986394557785,496.059876979456L448.91156462585013,495.5415830776328L447.78911564625787,495.0232805040323L447.78911564625787,494.50496925821426L446.66666666666606,491.9132829299342L446.2925170068024,490.3581670375206L446.2925170068024,489.8397777214486L446.2925170068024,489.3213797286735L446.2925170068024,487.7661336855708L445.91836734693834,487.7661336855708L445.54421768707425,487.7661336855708L444.42176870748244,487.2477009814611L442.5510204081629,487.7661336855708L440.30612244897884,488.2845577111693L436.93877551020387,488.2845577111693L433.571428571428,487.7661336855708L432.82312925170027,487.7661336855708L432.44897959183663,487.7661336855708L432.07482993197254,488.2845577111693L430.57823129251665,490.876547677326L430.204081632653,491.39491964130866L430.204081632653,491.39491964130866L428.3333333333326,493.46832074807753L425.7142857142853,494.50496925821426L423.8435374149658,496.059876979456L423.0952380952376,497.6147066586782L421.9727891156458,498.65121642746453L421.5986394557822,498.65121642746453L421.2244897959181,498.65121642746453L420.850340136054,498.65121642746453L420.850340136054,498.65121642746453L420.47619047619037,498.65121642746453L420.47619047619037,498.65121642746453L420.1020408163263,498.65121642746453L420.1020408163263,498.65121642746453L419.7278911564622,499.1694583080025L419.3537414965981,499.1694583080025L419.3537414965981,499.6876915198882L418.6054421768704,500.2059160635654L418.6054421768704,500.72413193950706L418.6054421768704,501.2423391481425L418.23129251700675,501.76053768991187L418.23129251700675,502.2787275652845L417.85714285714266,502.2787275652845L417.10884353741494,502.796908774686L416.3605442176863,502.796908774686L415.6122448979586,503.31508131858936L415.6122448979586,502.796908774686L415.6122448979586,502.796908774686L415.6122448979586,502.796908774686L416.73469387755085,499.6876915198882L416.73469387755085,498.65121642746453L416.73469387755085,497.6147066586782L415.98639455782313,496.059876979456L415.23809523809496,493.9866493397021L414.11564625850315,492.4316375436283L413.74149659863906,491.9132829299342L411.87074829931953,490.3581670375206L411.12244897959135,488.8029730587259L409.99999999999955,487.7661336855708L409.2517006802718,487.2477009814611L408.5034013605441,486.7292595983745L407.7551020408159,486.2108095359108L406.6326530612241,485.6923507935935L406.2585034013605,485.6923507935935L406.2585034013605,486.2108095359108L405.5102040816323,487.7661336855708L404.38775510204005,489.3213797286735L403.26530612244915,489.8397777214486L402.8911564625846,490.3581670375206L402.1428571428569,490.3581670375206L401.7687074829928,490.3581670375206L400.27210884353735,491.39491964130866L399.5238095238092,492.4316375436283L398.40136054421737,492.94998348286754L396.9047619047615,493.46832074807753L394.65986394557785,494.50496925821426L393.1632653061224,495.0232805040323L392.4149659863947,493.9866493397021L391.66666666666606,492.94998348286754L391.2925170068024,492.4316375436283L390.54421768707425,491.39491964130866L388.6734693877547,490.876547677326L387.925170068027,491.39491964130866L387.1768707482988,491.39491964130866L386.8027210884352,491.9132829299342L383.8095238095234,493.9866493397021L383.8095238095234,493.9866493397021L383.43537414965976,493.46832074807753L382.31292517006796,493.46832074807753L379.31972789115616,492.94998348286754L378.571428571428,491.9132829299342L377.07482993197254,491.39491964130866L377.07482993197254,491.39491964130866L377.07482993197254,491.9132829299342L377.07482993197254,493.46832074807753L376.70068027210846,493.9866493397021L376.70068027210846,494.50496925821426L376.32653061224437,494.50496925821426L376.32653061224437,494.50496925821426L372.9591836734694,495.0232805040323L369.9659863945576,495.0232805040323L369.2176870748299,495.0232805040323L367.72108843537353,494.50496925821426L367.72108843537353,495.0232805040323L367.3469387755099,500.72413193950706L366.9727891156458,502.2787275652845L366.9727891156458,503.31508131858936L366.2244897959181,504.86954696168686L366.2244897959181,504.86954696168686L367.3469387755099,506.94204652912595L367.3469387755099,507.46014976504375L367.72108843537353,508.4963302528631L367.72108843537353,510.568587305017L367.3469387755099,511.0866299199406L365.1020408163263,513.1587138005707L362.85714285714266,515.2306591761626L360.98639455782313,517.3024660753435L360.6122448979586,517.8203961665567L359.86394557823087,519.3741345267226L359.11564625850315,520.409916843415L357.61904761904725,522.4813776766896L357.61904761904725,522.4813776766896L356.8707482993191,522.9992212625984L356.4965986394559,523.5170562004278L356.12244897959135,524.5527001336377L356.12244897959135,524.034882490625L354.99999999999955,524.034882490625L354.99999999999955,524.034882490625L354.99999999999955,523.5170562004278L354.99999999999955,523.5170562004278L354.99999999999955,522.9992212625984L354.62585034013546,521.4456645588798L354.62585034013546,521.4456645588798L354.2517006802718,521.4456645588798L354.2517006802718,521.4456645588798L354.2517006802718,520.927795026073L354.2517006802718,520.927795026073L353.87755102040774,520.409916843415L353.87755102040774,520.409916843415L353.5034013605441,519.8920300104401L353.12925170068,519.8920300104401L352.7551020408159,519.8920300104401L352.0068027210882,519.8920300104401L352.0068027210882,519.8920300104401L350.1360544217687,520.927795026073L349.01360544217687,521.4456645588798L348.2653061224487,521.9635254422792L345.64625850340144,523.5170562004278L343.0272108843533,521.9635254422792L342.27891156462556,520.927795026073L341.9047619047615,520.409916843415L341.53061224489784,519.8920300104401L340.78231292516966,519.8920300104401L338.53741496598604,519.3741345267226L336.2925170068024,518.8562303917934L335.5442176870747,518.3383176052157L335.1700680272106,517.8203961665567L334.79591836734653,517.8203961665567L334.79591836734653,517.3024660753435L332.92517006802655,514.1947037997052L330.3061224489793,511.6046638765147L328.43537414965976,510.568587305017L326.19047619047615,509.53247609833124L325.0680272108839,509.01440750566326L323.9455782312921,509.01440750566326L323.19727891156435,509.01440750566326L323.19727891156435,509.01440750566326L322.82312925170027,508.4963302528631L322.44897959183663,507.9782443394797L322.07482993197254,507.9782443394797L320.95238095238074,506.42393463128974L320.20408163265256,505.90581407105856L317.2108843537412,503.8332451974129L316.4625850340135,503.31508131858936L314.5918367346935,502.2787275652845L313.0952380952376,501.76053768991187L311.5986394557822,500.2059160635654L310.47619047619037,497.09643876953123L310.1020408163263,494.50496925821426L310.1020408163263,493.9866493397021L309.3537414965981,491.9132829299342L308.2312925170063,490.3581670375206L307.85714285714266,490.3581670375206L307.85714285714266,489.8397777214486L307.4829931972786,489.8397777214486L307.1088435374145,489.8397777214486L306.73469387755085,489.8397777214486L305.9863945578227,489.3213797286735L305.23809523809496,489.3213797286735L304.48979591836724,488.8029730587259L304.11564625850315,488.8029730587259L303.3673469387754,488.8029730587259L302.6190476190477,489.3213797286735L302.2448979591836,489.3213797286735L301.12244897959135,490.3581670375206L298.12925170068,490.3581670375206L296.6326530612241,490.3581670375206L295.8843537414964,490.3581670375206L295.1360544217682,490.3581670375206L293.6394557823128,490.3581670375206L292.89115646258506,490.876547677326L292.51700680272097,490.876547677326L292.1428571428569,491.39491964130866L291.0204081632651,491.9132829299342L290.27210884353735,492.94998348286754L289.52380952380963,493.9866493397021L288.77551020408146,494.50496925821426L288.0272108843533,495.5415830776328L286.9047619047619,496.57816220992754L286.53061224489784,497.09643876953123L285.7823129251701,498.1329658778486L283.91156462585013,500.72413193950706L283.53741496598604,501.76053768991187L283.16326530612196,502.796908774686L282.04081632653015,506.94204652912595L281.6666666666665,507.46014976504375L281.6666666666665,507.9782443394797L281.2925170068024,509.53247609833124L281.2925170068024,510.0505360313L278.29931972789063,513.1587138005707L277.5510204081629,513.6767131281922L277.1768707482988,514.1947037997052L276.054421768707,515.2306591761626L276.054421768707,515.7486238819984L274.5578231292511,516.7845273311541L272.6870748299316,517.8203961665567L270.0680272108839,519.8920300104401L268.94557823129253,520.409916843415L267.0748299319721,521.4456645588798L265.95238095238074,522.4813776766896L265.57823129251665,522.4813776766896L265.57823129251665,522.4813776766896L263.7074829931971,522.9992212625984L261.4625850340135,523.5170562004278L261.4625850340135,523.5170562004278L261.0884353741494,522.9992212625984L260.3401360544217,522.4813776766896L259.9659863945576,522.4813776766896L258.8435374149658,521.9635254422792L258.4693877551017,521.9635254422792L257.3469387755099,521.4456645588798L256.5986394557822,520.927795026073L256.5986394557822,520.409916843415L256.2244897959181,520.409916843415L256.5986394557822,518.8562303917934L256.2244897959181,518.3383176052157L255.85034013605446,518.3383176052157L255.85034013605446,518.3383176052157L255.47619047619037,518.3383176052157L253.60544217687038,518.3383176052157L253.2312925170063,518.3383176052157L252.85714285714266,518.8562303917934L252.85714285714266,518.8562303917934L252.48299319727857,520.409916843415L251.73469387755085,522.4813776766896L250.23809523809496,524.5527001336377L248.74149659863906,526.6238842428502L248.74149659863906,526.6238842428502L248.36734693877543,526.6238842428502L248.36734693877543,526.6238842428502L247.99319727891134,526.6238842428502L247.24489795918362,526.6238842428502L246.49659863945544,527.1416586566629L247.24489795918362,527.6594244259722L247.24489795918362,527.6594244259722L247.24489795918362,528.1771815512293L247.24489795918362,528.6949300328888L247.24489795918362,529.2126698713619L247.24489795918362,529.2126698713619L245.74829931972772,532.3189274208416L245.74829931972772,532.8366067696697L245.37414965986363,533.3542774789203L243.5034013605441,534.9072377735502L242.00680272108866,535.9425014468434L242.00680272108866,536.4601203278871L242.00680272108866,536.4601203278871L242.00680272108866,537.4953321810244L241.63265306122412,538.0129251539875L241.63265306122412,538.0129251539875L241.63265306122412,538.5305094918331L240.8843537414964,539.0480851949869L240.5102040816323,539.0480851949869L239.3877551020405,539.5656522638856L239.01360544217687,539.5656522638856L238.63945578231278,539.5656522638856L237.8911564625846,539.5656522638856L236.7687074829928,539.5656522638856L235.27210884353735,540.0832106989983L234.89795918367327,540.6007605007471L234.52380952380918,540.6007605007471L234.52380952380918,540.6007605007471L234.14965986394554,541.6358342059902L234.14965986394554,542.1533581103722L233.77551020408146,542.1533581103722L233.02721088435374,542.6708733831838L232.65306122448965,542.6708733831838L232.27891156462556,543.1883800248615L232.27891156462556,543.1883800248615L232.27891156462556,543.1883800248615L231.53061224489784,543.1883800248615L229.65986394557785,543.7058780358784L228.1632653061224,544.2233674166564L227.0408163265306,544.7408481676393L225.91836734693834,545.2583202892965L225.91836734693834,545.7757837820536L225.91836734693834,545.7757837820536L226.29251700680243,548.8803835566832L226.29251700680243,549.3977866596397L226.66666666666652,550.4325669899808L227.41496598639424,553.0193668958818L226.66666666666652,553.5367010086229L225.5442176870747,554.5713433692508L224.4217687074829,555.6059512463398L223.2993197278911,556.6405246434479L221.05442176870747,558.7095680119892L220.68027210884338,558.1923200969577L219.93197278911566,557.1577984131327L218.4353741496593,556.12324225466L216.93877551020387,555.0886516180071L216.56462585033978,553.5367010086229L215.81632653061206,551.467312822555L215.81632653061206,550.9499442182714L215.44217687074797,549.9151811372503L215.06802721088388,549.3977866596397L214.69387755102025,548.3629718279481L213.19727891156435,547.3281224913735L212.44897959183663,546.8106848826355L210.20408163265301,545.2583202892965L208.33333333333348,544.7408481676393L208.33333333333348,544.2233674166564L207.9591836734694,543.1883800248615L207.58503401360485,541.6358342059902L207.21088435374168,538.5305094918331L207.21088435374168,534.9072377735502L206.83673469387713,534.9072377735502L206.46258503401305,534.3895929804057L206.0884353741494,533.8719395490189L205.71428571428532,533.8719395490189L205.3401360544217,533.8719395490189L204.9659863945576,533.8719395490189L202.3469387755099,533.3542774789203L200.85034013605446,531.8012394319594L199.72789115646265,529.730401067136L198.60544217687038,529.730401067136L197.85714285714266,530.7658375323008L196.73469387755085,532.3189274208416L194.48979591836678,530.7658375323008L193.74149659863906,530.2481236206222L192.24489795918362,529.2126698713619L190.74829931972772,528.1771815512293L190,527.1416586566629L189.6258503401359,526.6238842428502L189.6258503401359,525.0705091299424L190,524.5527001336377L191.49659863945544,523.5170562004278L191.49659863945544,523.5170562004278L190.74829931972772,520.927795026073L190.37414965986363,519.3741345267226L190,518.3383176052157L190,517.8203961665567L190,516.7845273311541L189.6258503401359,516.7845273311541L189.6258503401359,516.2665799335155L189.25170068027182,515.7486238819984L188.8775510204082,515.7486238819984L188.5034013605441,515.7486238819984L188.12925170068002,515.7486238819984L187.75510204081638,515.7486238819984L187.3809523809523,515.7486238819984L187.0068027210882,516.2665799335155L186.25850340136049,516.2665799335155L185.8843537414964,516.2665799335155L185.5102040816323,516.2665799335155L185.13605442176868,515.7486238819984L185.13605442176868,515.2306591761626L184.7619047619046,514.1947037997052L184.7619047619046,513.1587138005707L185.13605442176868,512.640705816375L184.7619047619046,512.640705816375L184.7619047619046,512.640705816375L184.38775510204096,512.1226891751685L184.01360544217687,512.1226891751685L184.01360544217687,512.1226891751685L183.26530612244915,512.640705816375L182.8911564625846,513.1587138005707L182.51700680272052,513.1587138005707L181.7687074829928,513.6767131281922L181.39455782312916,514.1947037997052L180.646258503401,514.7126858155425L179.89795918367327,514.7126858155425L178.77551020408146,514.7126858155425L177.27891156462556,514.7126858155425L176.90476190476193,515.7486238819984L177.27891156462556,518.8562303917934L177.27891156462556,520.927795026073L177.27891156462556,521.9635254422792L177.27891156462556,522.4813776766896L176.90476190476193,522.9992212625984L176.53061224489784,524.034882490625L175.78231292517012,525.0705091299424L175.03401360544194,525.5883094799319L172.4149659863947,527.6594244259722L170.5442176870747,528.6949300328888L168.67346938775472,529.730401067136L166.05442176870747,530.2481236206222L163.06122448979568,529.730401067136L161.56462585034024,529.730401067136L160.44217687074843,529.730401067136L159.31972789115616,529.730401067136L157.82312925170027,531.2835428025865L157.82312925170027,531.8012394319594L157.44897959183663,531.8012394319594L156.70068027210846,532.3189274208416L156.32653061224482,532.8366067696697L156.32653061224482,532.3189274208416L156.32653061224482,531.2835428025865L155.95238095238074,529.730401067136L155.57823129251665,528.6949300328888L154.82993197278893,526.6238842428502L154.45578231292484,525.5883094799319L153.70748299319712,522.9992212625984L153.70748299319712,522.4813776766896L152.5850340136053,521.9635254422792L151.4625850340135,521.4456645588798L151.0884353741494,520.409916843415L150.3401360544217,518.8562303917934L150.3401360544217,518.3383176052157L149.9659863945576,518.3383176052157L149.9659863945576,517.8203961665567L149.59183673469397,517.8203961665567L149.21768707482988,517.3024660753435L148.46938775510216,517.3024660753435L148.46938775510216,517.3024660753435L146.9727891156458,517.3024660753435L145.47619047619037,517.3024660753435L144.7278911564622,517.3024660753435L144.35374149659856,516.7845273311541L140.98639455782313,516.7845273311541L140.2380952380954,516.7845273311541L139.11564625850315,516.2665799335155L137.99319727891134,515.7486238819984L133.12925170068002,514.1947037997052L132.75510204081593,514.1947037997052L130.8843537414964,513.1587138005707L130.51020408163276,514.1947037997052L129.7619047619046,514.7126858155425L129.01360544217687,515.7486238819984L128.63945578231278,516.2665799335155L127.14285714285688,518.8562303917934L126.39455782312916,520.409916843415L125.27210884353735,521.4456645588798L124.52380952380963,522.4813776766896L124.14965986394509,522.9992212625984L123.77551020408146,523.5170562004278L121.90476190476147,527.1416586566629L121.90476190476147,525.5883094799319L121.53061224489784,525.0705091299424L120.03401360544194,522.9992212625984L118.91156462585013,521.4456645588798L118.5374149659865,520.927795026073L117.41496598639469,519.8920300104401L115.91836734693834,518.8562303917934L113.29931972789109,517.8203961665567L111.05442176870747,516.2665799335155L109.55782312925157,515.2306591761626L109.18367346938749,514.7126858155425L107.68707482993204,513.6767131281922L107.31292517006796,513.6767131281922L106.93877551020387,513.1587138005707L106.56462585034024,513.1587138005707L106.56462585034024,513.1587138005707L106.19047619047615,510.568587305017L105.81632653061206,507.46014976504375L105.81632653061206,504.35140041163686L105.44217687074843,500.72413193950706L105.44217687074843,500.2059160635654L105.06802721088388,500.2059160635654L104.69387755102025,500.2059160635654L103.19727891156435,500.2059160635654L101.70068027210891,500.2059160635654L98.70748299319712,498.65121642746453L98.70748299319712,498.65121642746453L98.70748299319712,498.65121642746453L98.33333333333303,498.1329658778486L97.9591836734694,498.1329658778486L97.58503401360531,498.1329658778486L96.83673469387759,498.1329658778486L96.4625850340135,498.1329658778486L96.4625850340135,497.6147066586782L95.34013605442169,497.09643876953123L95.34013605442169,497.09643876953123L94.9659863945576,496.57816220992754L94.21768707482988,493.9866493397021L93.46938775510216,492.4316375436283L92.3469387755099,489.8397777214486L91.59863945578218,488.2845577111693L90.85034013605446,487.2477009814611L90.85034013605446,486.7292595983745L90.85034013605446,486.2108095359108L88.60544217687038,485.6923507935935L87.48299319727857,484.65540726758263L85.61224489795904,482.0628965237738L84.86394557823132,481.54436832648935L84.86394557823132,481.0258314453058L84.48979591836724,480.507285879783L83.74149659863951,477.9144277713931L83.36734693877543,477.39583009042326L82.24489795918362,477.39583009042326L80.37414965986363,476.87722372195276L79.25170068027182,476.3586086655705L77.3809523809523,476.3586086655705L76.63265306122412,475.83998492079627L75.51020408163231,475.83998492079627L74.76190476190459,475.3213524872008L74.01360544217687,474.8027113643184L71.76870748299325,474.8027113643184L70.27210884353735,474.8027113643184L67.27891156462556,475.3213524872008L66.15646258503375,475.83998492079627L64.65986394557785,475.83998492079627L63.537414965986045,476.87722372195276L61.29251700680243,475.3213524872008L60.17006802721062,475.3213524872008L59.047619047619264,476.3586086655705L59.047619047619264,476.3586086655705L57.925170068027455,476.3586086655705L56.428571428571104,475.83998492079627L55.68027210884338,475.3213524872008L55.306122448979295,474.8027113643184L54.93197278911566,474.8027113643184L54.183673469387486,474.8027113643184L53.80952380952385,474.8027113643184L53.435374149659765,474.8027113643184L52.312925170067956,475.3213524872008L51.93877551020387,475.3213524872008L51.19047619047615,475.83998492079627L50.442176870748426,478.4330167653425L49.69387755102025,479.9887316294844L49.69387755102025,479.9887316294844L49.31972789115616,479.9887316294844L48.197278911564354,479.4701686939334L48.197278911564354,478.9515970727116L48.197278911564354,478.9515970727116L47.44897959183663,479.4701686939334L44.82993197278893,481.0258314453058L44.82993197278893,481.54436832648935L44.82993197278893,481.0258314453058L44.45578231292484,481.54436832648935L42.9591836734694,481.54436832648935L42.58503401360531,481.0258314453058L42.58503401360531,481.0258314453058L42.21088435374122,481.0258314453058L42.9591836734694,477.9144277713931L43.33333333333303,474.8027113643184L43.70748299319712,474.2840615517089L44.081632653061206,473.2467358555259L44.081632653061206,469.61582212644134L44.081632653061206,463.3904073643498L45.20408163265256,462.8715662640607L46.70068027210891,461.83385796283255L47.44897959183663,461.3149907609877L48.197278911564354,460.7961148577342L48.94557823129253,460.2772302526246L48.94557823129253,460.2772302526246L49.69387755102025,459.7583369451895L51.93877551020387,458.20160480451887L53.06122448979613,456.6447943268031L53.80952380952385,455.0879054998986L54.557823129251574,453.5309383116546L54.93197278911566,452.4929166460752L56.05442176870747,451.45486014423295L57.55102040816337,449.37864261732466L58.29931972789109,446.26405496483494L58.29931972789109,446.26405496483494L58.673469387755176,445.74492652471963L59.4217687074829,445.22578936967693L59.4217687074829,445.22578936967693L59.4217687074829,445.22578936967693L59.4217687074829,444.7066434992739L59.795918367346985,443.1491535912828L60.544217687074706,442.62997285485835L60.918367346938794,442.11078340081804L61.29251700680243,441.59158522868165L61.666666666666515,441.07237833803447L62.0408163265306,439.5147053503497L62.0408163265306,439.5147053503497L62.414965986394236,437.95695387965316L62.414965986394236,437.43768594665016L62.414965986394236,436.91840929149475L62.414965986394236,436.91840929149475L63.16326530612241,435.3605269886939L63.91156462585013,434.32189516786093L65.40816326530603,432.2445268244046L66.15646258503375,430.68640893853444L66.15646258503375,430.68640893853444L65.40816326530603,430.16701885448856L65.40816326530603,430.16701885448856L65.40816326530603,429.64762004198565L65.0340136054424,430.68640893853444L61.666666666666515,429.64762004198565L59.795918367346985,429.64762004198565L56.05442176870747,430.68640893853444L56.05442176870747,428.08937122922L56.05442176870747,427.0504950368195L56.05442176870747,426.5310438440756L55.68027210884338,424.9726378743253L55.306122448979295,424.4531517523901L54.93197278911566,423.9336568970393L54.557823129251574,423.4141533077891L54.557823129251574,423.4141533077891L54.183673469387486,422.8946409842101L53.435374149659765,422.3751199258586L53.06122448979613,421.85559013225793L51.564625850340235,419.7773835964872L51.19047619047615,419.2578101199251L51.19047619047615,419.2578101199251L51.19047619047615,418.73822790542545L51.19047619047615,418.21863695251886L51.564625850340235,417.6990372607688L51.564625850340235,416.65981165887206L51.564625850340235,416.14018574784495L51.19047619047615,416.14018574784495L48.197278911564354,416.14018574784495L45.20408163265256,417.1794288296951L44.82993197278893,417.1794288296951L43.70748299319712,417.6990372607688L42.58503401360531,418.21863695251886L42.58503401360531,418.21863695251886L42.58503401360531,418.21863695251886L41.08843537414941,417.1794288296951L40.34013605442169,416.65981165887206L36.22448979591809,414.06159469256454L34.353741496598104,415.10090770334864L33.60544217687038,415.10090770334864L32.85714285714266,415.10090770334864L31.360544217686765,415.10090770334864L30.612244897959044,415.10090770334864L30.238095238094957,414.5812555689663L29.489795918367236,412.5025596067353L29.115646258503148,411.46315916447566L28.367346938775427,408.8645050179948L28.741496598639515,408.3447479495262L28.741496598639515,407.82498213359213L30.238095238094957,403.6665406436223L30.612244897959044,403.14669608026816L30.612244897959044,402.10698069715L30.612244897959044,401.0672303024985L30.612244897959044,400.5473419747177L30.986394557823132,399.5075390559541L30.986394557823132,398.4677011165695L31.734693877550853,395.34797713856096L32.482993197278574,392.74796629462435L32.482993197278574,390.6677999233616L32.482993197278574,390.6677999233616L32.85714285714266,389.107583136476L33.231292517006295,389.107583136476L33.979591836734926,388.58749334633467L35.102040816326735,385.46677053142776L35.850340136054456,383.3861133128921L36.22448979591809,382.86592708634635L37.3469387755099,381.8255283238068L37.721088435373986,381.30531578689624L39.21768707482988,379.7446255481591L39.21768707482988,379.2243779243872L39.9659863945576,377.143299696294L40.71428571428578,376.1027079360465L41.4625850340135,375.0620810735054L42.21088435374122,372.980722026954L42.21088435374122,370.3788257035485L42.21088435374122,368.8175825461949L42.21088435374122,367.25626035136884L42.21088435374122,364.1333788001393L42.58503401360531,361.01018095156905L42.58503401360531,360.4896172187655L42.58503401360531,358.92787328319537L42.21088435374122,356.8454249653878L41.83673469387759,353.2008018837914L42.58503401360531,350.07649621984456L42.58503401360531,350.07649621984456L40.34013605442169,351.1179666296521L39.9659863945576,351.1179666296521L37.3469387755099,351.6386886381806L36.22448979591809,352.1594018497344L33.979591836734926,352.6801062647937L32.85714285714266,353.2008018837914L30.986394557823132,353.2008018837914L28.741496598639515,353.2008018837914L26.87074829931953,353.7214887071714L26.87074829931953,353.2008018837914L26.496598639455897,352.6801062647937L26.496598639455897,352.1594018497344L26.12244897959181,351.1179666296521L25,349.0349906166957L25,348.5142246164687L25,347.9934498165494L25,346.4310726139738L25.374149659863633,343.8269345730114L25.374149659863633,341.22257643678313L25.74829931972772,337.5761051773952L25.74829931972772,334.4502148273241L25.74829931972772,333.929202262887L25,332.3661116928124L25.374149659863633,328.7185918563664L25.374149659863633,326.1129560421032L26.496598639455897,326.1129560421032L27.244897959183618,326.1129560421032L28.367346938775427,325.0706399842238L29.115646258503148,324.54946872513756L29.863945578231323,323.5070997443472L29.863945578231323,322.4646954770433L31.734693877550853,320.9010229058913L32.85714285714266,320.3797810682918L34.72789115646265,319.85853040631264L37.3469387755099,319.3372709195137L39.9659863945576,317.77343950554496L41.08843537414941,317.2521447148356L41.83673469387759,316.7308410970254L42.58503401360531,314.1241905851348L44.45578231292484,310.474509001353L44.82993197278893,308.91022726425217L44.82993197278893,308.38878235028096L51.564625850340235,309.4316633437884L55.306122448979295,307.34586601716L56.802721088435646,304.2169049434233L55.68027210884338,303.6953804988225L54.183673469387486,302.6523050920441L52.68707482993159,301.087625681168L51.564625850340235,299.52286669838577L51.564625850340235,299.00126268600434L51.564625850340235,298.4796498304786L50.442176870748426,297.9580281313247L50.06802721088434,297.4363975881097L50.06802721088434,297.4363975881097L51.19047619047615,293.2630348005987L52.312925170067956,292.21960563088214L52.68707482993159,292.21960563088214L53.06122448979613,291.1761410646468L54.183673469387486,290.1326410982583L53.435374149659765,289.61087783885523L53.80952380952385,289.08910572804234L54.183673469387486,288.5673247653431L55.306122448979295,288.5673247653431L57.176870748298825,288.0455349503027L57.55102040816337,288.5673247653431L58.673469387755176,289.08910572804234L59.795918367346985,289.08910572804234L62.0408163265306,288.5673247653431L63.16326530612241,288.0455349503027L63.537414965986045,287.52373628248097L63.91156462585013,286.4801123865982L66.53061224489784,287.00192876139045L66.90476190476193,289.08910572804234L67.65306122448965,289.61087783885523L69.52380952380963,292.21960563088214L69.89795918367372,293.2630348005987L71.02040816326553,294.30642857752537L72.89115646258506,294.8281121948203L75.13605442176868,295.87145288941247L77.3809523809523,298.4796498304786L78.12925170068002,299.00126268600434L77.75510204081638,300.56604819550193L77.0068027210882,301.6091943254978L76.25850340136049,302.6523050920441L75.13605442176868,303.6953804988225L75.13605442176868,306.30291434075116L75.13605442176868,307.8673286013909L74.76190476190459,308.38878235028096L75.51020408163231,307.8673286013909L78.87755102040819,308.91022726425217L79.25170068027182,308.91022726425217L79.62585034013591,308.91022726425217L79.99999999999955,308.91022726425217L80.37414965986363,309.4316633437884L80.74829931972818,309.4316633437884L83.74149659863951,309.4316633437884L84.86394557823132,309.4316633437884L86.73469387755085,309.4316633437884L89.72789115646265,309.4316633437884L91.59863945578218,309.95309058934436L92.72108843537444,310.474509001353L92.3469387755099,308.91022726425217L92.72108843537444,305.78142524766736L94.21768707482988,301.087625681168L93.09523809523762,301.087625681168L90.85034013605446,300.56604819550193L87.85714285714266,300.04446186805944L86.36054421768677,299.52286669838577L83.74149659863951,299.52286669838577L81.87074829931998,299.52286669838577L80.74829931972818,300.04446186805944L79.62585034013591,298.4796498304786L79.25170068027182,297.4363975881097L79.62585034013591,296.39310996760105L79.99999999999955,295.87145288941247L81.12244897959135,293.2630348005987L82.6190476190477,290.1326410982583L82.6190476190477,287.52373628248097L84.86394557823132,288.0455349503027L85.61224489795904,287.52373628248097L87.85714285714266,287.52373628248097L89.35374149659856,287.52373628248097L90.10204081632628,287.52373628248097L91.22448979591809,287.52373628248097L91.59863945578218,286.4801123865982L91.97278911564581,287.00192876139045L92.3469387755099,287.52373628248097L93.46938775510216,287.52373628248097L94.59183673469397,287.52373628248097L94.9659863945576,288.0455349503027L95.71428571428578,288.0455349503027L96.83673469387759,289.08910572804234L97.58503401360531,289.08910572804234L97.58503401360531,289.61087783885523L97.58503401360531,289.08910572804234L100.20408163265301,287.52373628248097L101.70068027210891,287.00192876139045L103.94557823129207,285.9582871576167L104.69387755102025,284.91461013530716L105.06802721088388,284.39275834104774L105.44217687074843,283.34902818404953L105.81632653061206,282.8271498203758L108.80952380952385,282.3052625993223L112.55102040816337,282.3052625993223L113.29931972789109,282.3052625993223L114.4217687074829,281.78336652040525L117.41496598639469,280.21762513198337L118.16326530612241,279.69569361706453L118.5374149659865,278.651804006342L119.28571428571422,278.1298459095997L120.78231292516966,277.08590313107925L121.15646258503375,277.08590313107925L121.15646258503375,277.08590313107925L121.15646258503375,277.08590313107925L121.53061224489784,277.08590313107925L122.65306122448965,277.08590313107925L123.02721088435328,277.08590313107925L124.89795918367327,277.60787895133035L126.7687074829928,278.651804006342L128.26530612244915,279.1737532420011L128.63945578231278,279.1737532420011L129.38775510204096,279.1737532420011L131.25850340136049,278.651804006342L132.0068027210882,277.60787895133035L132.0068027210882,277.60787895133035L132.3809523809523,277.08590313107925L134.25170068027182,276.5639184483698L134.99999999999955,276.0419249027582L134.99999999999955,276.0419249027582L135.37414965986363,275.51992249378236L135.37414965986363,275.51992249378236L135.74829931972772,275.51992249378236L136.12244897959135,274.99791122098395L143.23129251700675,276.5639184483698L143.60544217687084,277.08590313107925L148.46938775510216,281.78336652040525L148.8435374149658,281.78336652040525L149.9659863945576,282.3052625993223L151.0884353741494,282.3052625993223L152.9591836734694,282.3052625993223L154.82993197278893,282.3052625993223L155.20408163265301,282.3052625993223L155.95238095238074,282.8271498203758L156.70068027210846,283.34902818404953L157.82312925170027,283.87089769079466L159.69387755102025,284.39275834104774L160.06802721088388,284.91461013530716L160.44217687074843,284.39275834104774L160.81632653061206,284.91461013530716L161.56462585034024,284.91461013530716L162.31292517006796,285.43645307401675L163.43537414965976,285.9582871576167L164.55782312925157,285.43645307401675L165.3061224489793,285.43645307401675L167.5510204081629,285.43645307401675L168.67346938775472,285.43645307401675L170.91836734693834,285.43645307401675L170.91836734693834,285.43645307401675L171.29251700680288,285.9582871576167L171.66666666666606,285.9582871576167L171.66666666666606,287.52373628248097L172.78911564625832,287.52373628248097L175.40816326530603,287.00192876139045L175.40816326530603,287.00192876139045L175.78231292517012,287.00192876139045L176.15646258503375,287.00192876139045L176.90476190476193,287.00192876139045L177.65306122448965,287.00192876139045L178.77551020408146,287.00192876139045L179.14965986394554,286.4801123865982L180.27210884353735,283.87089769079466L180.27210884353735,283.34902818404953L181.02040816326507,280.7395477871978L179.52380952380918,279.1737532420011L179.14965986394554,279.1737532420011L178.40136054421737,278.651804006342L178.40136054421737,278.651804006342L176.15646258503375,278.651804006342L175.03401360544194,278.651804006342L173.53741496598604,278.651804006342L172.4149659863947,278.1298459095997L170.17006802721062,277.08590313107925L168.67346938775472,276.5639184483698L168.2993197278911,276.5639184483698L167.925170068027,276.0419249027582L166.8027210884352,274.99791122098395L166.4285714285711,274.99791122098395L166.4285714285711,274.4758910838791L166.05442176870747,273.4318242149784L165.68027210884338,272.90977748225123L165.68027210884338,272.38772188339135L165.3061224489793,271.8656574179586L165.3061224489793,270.8215018854571L165.3061224489793,269.77731088109795L165.3061224489793,268.73308440115215L164.93197278911566,267.68882244197084L164.55782312925157,267.16667815650726L164.1836734693875,266.1223629715496L163.43537414965976,265.60019207113874L163.06122448979568,265.60019207113874L162.31292517006796,265.07801229813776L161.19047619047615,264.0336261325865L160.81632653061206,263.5114197391049L160.81632653061206,263.5114197391049L160.81632653061206,262.98920447121054L160.81632653061206,261.42250541640897L160.81632653061206,260.3779949993441L160.81632653061206,259.8557264752635L160.44217687074843,259.3334490735542L160.44217687074843,258.8111627937287L160.06802721088388,258.2888676353323L160.06802721088388,258.2888676353323L157.82312925170027,257.244250681033L157.44897959183663,256.72192888418067L155.20408163265301,255.1549102093486L152.9591836734694,254.11018668461838L151.4625850340135,252.54303477599387L151.0884353741494,252.54303477599387L150.3401360544217,251.4982224171763L149.59183673469397,251.4982224171763L148.8435374149658,250.45337451829255L148.46938775510216,250.45337451829255L148.46938775510216,249.93093724015853L148.09523809523762,249.40849107563554L146.9727891156458,246.7961269407424L146.59863945578218,245.75111906580423L146.59863945578218,245.22860179340933L146.59863945578218,244.70607563045996L146.59863945578218,242.61588206385568L146.59863945578218,242.61588206385568L146.9727891156458,241.04814351539608L147.3469387755099,240.5255462113637L149.21768707482988,237.9124262611731L149.59183673469397,237.389775581898L150.71428571428532,235.8217701573194L151.0884353741494,235.2990838853366L151.83673469387713,234.2536846428702L151.83673469387713,233.2082497993797L151.83673469387713,232.6855190260576L151.83673469387713,232.6855190260576L151.83673469387713,232.16277935111793L151.4625850340135,231.11727329443238L152.5850340136053,231.11727329443238L154.45578231292484,230.0717316256014L156.32653061224482,229.54894743546902L156.32653061224482,229.54894743546902L156.70068027210846,229.54894743546902L157.07482993197254,230.0717316256014L157.82312925170027,230.0717316256014L157.82312925170027,230.0717316256014L158.57142857142844,231.11727329443238L159.31972789115616,231.6400307740696L160.81632653061206,232.16277935111793L161.56462585034024,232.16277935111793L162.6870748299316,232.16277935111793L163.43537414965976,232.16277935111793L165.68027210884338,234.2536846428702L166.05442176870747,234.2536846428702L166.4285714285711,234.77638871399904L166.8027210884352,235.2990838853366L166.8027210884352,238.4350680434036L166.4285714285711,240.00294001260045L166.05442176870747,241.57073192518874L166.05442176870747,242.09331144119642L167.5510204081629,244.70607563045996L169.4217687074829,246.27362744808488L172.0408163265306,248.88603602423245L176.90476190476193,253.58781159840146L177.65306122448965,253.58781159840146L178.02721088435374,254.11018668461838L178.40136054421737,254.63255288810979L178.77551020408146,255.1549102093486L179.89795918367327,256.19959820693475L180.27210884353735,256.72192888418067L180.646258503401,256.72192888418067L183.26530612244915,257.244250681033L183.63945578231233,256.19959820693475L183.26530612244915,255.67725864880776L182.8911564625846,254.63255288810979L182.8911564625846,254.11018668461838L182.8911564625846,253.06542762901154L182.8911564625846,252.54303477599387L183.26530612244915,252.02063303886462L184.38775510204096,250.45337451829255L184.7619047619046,249.93093724015853L184.7619047619046,249.40849107563554L184.7619047619046,249.40849107563554L184.7619047619046,247.84109925898883L184.7619047619046,247.3186175442279L184.38775510204096,247.3186175442279L184.38775510204096,247.3186175442279L183.63945578231233,246.7961269407424L183.26530612244915,246.7961269407424L182.8911564625846,246.7961269407424L182.14285714285688,247.3186175442279L181.39455782312916,247.3186175442279L181.02040816326507,247.3186175442279L180.646258503401,246.7961269407424L180.646258503401,246.7961269407424L180.27210884353735,246.27362744808488L180.27210884353735,246.27362744808488L179.89795918367327,245.75111906580423L179.89795918367327,245.22860179340933L180.27210884353735,243.66099663104615L180.27210884353735,243.13844379366128L180.27210884353735,243.13844379366128L180.646258503401,242.09331144119642L181.39455782312916,240.5255462113637L181.7687074829928,240.00294001260045L181.7687074829928,239.4803249186698L181.39455782312916,238.95770092909152L180.646258503401,237.389775581898L180.27210884353735,236.86711600515264L180.27210884353735,236.34444753044227L180.27210884353735,236.34444753044227L180.27210884353735,235.8217701573194L180.27210884353735,235.2990838853366L180.646258503401,235.2990838853366L181.02040816326507,234.77638871399904L181.7687074829928,234.77638871399904L182.14285714285688,234.77638871399904L182.8911564625846,234.2536846428702L183.63945578231233,234.2536846428702L184.01360544217687,234.2536846428702L184.38775510204096,234.2536846428702L184.7619047619046,234.2536846428702L185.13605442176868,233.73097167148444L185.13605442176868,233.73097167148444L185.5102040816323,233.2082497993797L185.5102040816323,232.6855190260576L185.5102040816323,232.16277935111793L185.5102040816323,231.6400307740696L184.7619047619046,230.59450691176244L184.01360544217687,230.0717316256014L184.01360544217687,229.54894743546902L184.01360544217687,229.02615434091422L184.01360544217687,229.02615434091422L184.7619047619046,226.93489290923026L184.7619047619046,226.4120552856184L185.13605442176868,225.88920875481926L185.13605442176868,225.36635331634534L184.7619047619046,224.84348896975644L184.7619047619046,223.79773355033467L184.7619047619046,223.2748424765996L184.7619047619046,222.75194249287233L184.7619047619046,222.22903359871634L184.38775510204096,222.22903359871634L184.38775510204096,221.70611579364777L184.01360544217687,221.70611579364777L184.01360544217687,221.70611579364777L183.63945578231233,221.70611579364777L183.26530612244915,221.70611579364777L182.51700680272052,222.22903359871634L182.14285714285688,222.22903359871634L182.14285714285688,222.75194249287233L181.39455782312916,223.79773355033467L181.02040816326507,223.79773355033467L180.646258503401,224.32061571457234L180.27210884353735,224.32061571457234L179.89795918367327,224.32061571457234L179.14965986394554,224.32061571457234L179.14965986394554,224.32061571457234L175.78231292517012,222.75194249287233L175.40816326530603,222.22903359871634L175.03401360544194,222.22903359871634L174.65986394557785,221.70611579364777L173.91156462585013,220.13730890840816L173.91156462585013,220.13730890840816L173.91156462585013,219.61435545511267L174.28571428571422,219.09139308858357L174.65986394557785,218.04544161403828L174.65986394557785,218.04544161403828L175.40816326530603,217.52245250507622L176.53061224489784,215.9534316859499L177.27891156462556,214.38433061866453L176.90476190476193,212.81514929072728L176.53061224489784,211.7689838099941L176.53061224489784,211.24588768961985L176.53061224489784,210.19966868650226L176.90476190476193,210.19966868650226L177.27891156462556,210.19966868650226L178.02721088435374,210.19966868650226L178.77551020408146,210.19966868650226L179.52380952380918,210.19966868650226L180.27210884353735,210.72278264860142L180.646258503401,210.72278264860142L181.02040816326507,210.19966868650226L181.39455782312916,210.19966868650226L182.14285714285688,209.67654580283124L182.51700680272052,209.15341399714453L182.8911564625846,208.6302732689619L182.8911564625846,208.1071236178359L183.63945578231233,207.06079754488383L183.63945578231233,206.0144357745594L184.01360544217687,204.96803830317003L184.38775510204096,204.44482617840185L184.7619047619046,204.44482617840185L185.13605442176868,203.92160512698683L185.5102040816323,203.92160512698683L185.8843537414964,203.39837514843384L186.25850340136049,203.39837514843384L187.0068027210882,202.35188840810952L189.25170068027182,199.2122138878658L189.25170068027182,198.68890354431642L189.6258503401359,197.1189189211982L190.74829931972772,193.97870846710066L190.74829931972772,193.4553087849963L190.74829931972772,191.88505611831715L191.1224489795918,190.83817631893908L192.24489795918362,188.22082038455846L193.36734693877543,185.60324092369774L193.74149659863906,185.07969820324433L194.11564625850315,184.55614653893645L194.48979591836678,182.9854378782802L194.86394557823087,181.93825404339805L195.2380952380954,180.89103442196938L195.2380952380954,180.36741119013095L195.6122448979586,179.84377901026892L195.98639455782313,179.32013788189215L196.73469387755085,178.79648780454954L197.48299319727857,178.79648780454954L198.60544217687038,178.27282877778998L200.47619047619037,176.70179799624748L201.97278911564626,175.65439938619602L202.72108843537399,175.65439938619602L203.4693877551017,175.13068665306855L203.8435374149658,174.60696496725723L204.21768707482988,174.0832343282782L204.59183673469352,173.55949473568035L204.9659863945576,173.03574618900893L204.9659863945576,173.03574618900893L204.9659863945576,173.03574618900893L205.3401360544217,172.51198868778374L205.71428571428532,172.51198868778374L207.21088435374168,172.51198868778374L208.33333333333348,171.98822223153184L208.70748299319712,171.98822223153184L209.82993197278893,171.98822223153184L209.82993197278893,171.98822223153184L209.82993197278893,171.4644468197912L212.82312925170072,169.8930668470275L213.57142857142844,169.36925560871168L213.94557823129207,169.36925560871168L215.06802721088388,168.8454354125679L216.19047619047615,168.32160625814504L216.56462585033978,168.32160625814504L216.93877551020387,168.32160625814504L217.3129251700675,168.8454354125679L218.06122448979568,168.8454354125679L218.4353741496593,168.32160625814504L218.8095238095234,168.32160625814504L219.55782312925112,168.32160625814504L219.55782312925112,167.79776814498837L219.93197278911566,167.79776814498837L220.3061224489793,167.2739210726104L221.05442176870747,165.70232609557206L221.4285714285711,165.178443181685L221.8027210884352,164.1306504688364L221.8027210884352,162.55889417984508L221.8027210884352,162.0349574897191L221.8027210884352,160.98705721599617L222.17687074829928,159.93912108118457L222.5510204081629,159.93912108118457L222.925170068027,159.41513956469862L222.925170068027,159.41513956469862L224.79591836734653,158.36714963125996L226.66666666666652,157.3191238274012L229.28571428571377,155.7470178564181L231.53061224489784,154.17483115599316L233.77551020408146,152.0784566211987L233.77551020408146,151.55434055564547L234.14965986394554,151.03021551643906L234.52380952380918,150.50608150307744L234.89795918367327,150.50608150307744L234.89795918367327,150.50608150307744L236.02040816326507,151.55434055564547L236.02040816326507,152.0784566211987L236.02040816326507,153.650750980476L236.7687074829928,154.17483115599316L239.3877551020405,155.7470178564181L240.8843537414964,156.79509747291377L241.25850340136003,156.27106214939704L241.25850340136003,154.17483115599316L241.25850340136003,154.17483115599316L239.7619047619046,152.0784566211987L240.5102040816323,149.98193851512042L242.00680272108866,147.36108893985875L243.12925170068047,145.78847146956105L243.8775510204082,144.74001492941534L243.8775510204082,144.21577318995332L243.8775510204082,144.21577318995332L243.8775510204082,144.21577318995332L243.5034013605441,143.16726276994086L242.38095238095184,142.11871642532424L242.38095238095184,142.11871642532424L241.63265306122412,141.59442978013976L242.00680272108866,140.54582954164653L242.38095238095184,140.02151594739917L242.38095238095184,139.4971933692177L242.38095238095184,138.97286180660012L242.75510204081638,137.92417172624846L243.12925170068047,137.92417172624846L243.5034013605441,137.39981320757215L243.8775510204082,137.39981320757215L244.25170068027182,136.8754457026007L245,136.8754457026007L245.37414965986363,136.8754457026007L246.49659863945544,136.8754457026007L247.61904761904725,137.39981320757215L249.48979591836724,138.4485212590953L250.23809523809496,139.4971933692177L251.36054421768677,139.4971933692177L252.48299319727857,138.97286180660012L252.85714285714266,138.4485212590953L253.2312925170063,137.92417172624846L253.60544217687038,137.92417172624846L253.97959183673493,137.92417172624846L255.47619047619037,137.92417172624846L255.85034013605446,137.92417172624846L256.2244897959181,138.4485212590953L256.97278911564626,138.4485212590953L257.3469387755099,138.97286180660012L257.721088435374,140.02151594739917L259.2176870748299,141.59442978013976L259.5918367346935,141.59442978013976L259.9659863945576,142.11871642532424L260.3401360544217,142.11871642532424L260.3401360544217,142.11871642532424L261.4625850340135,142.11871642532424L261.4625850340135,142.11871642532424L262.2108843537412,142.11871642532424L262.9591836734694,142.11871642532424L263.7074829931971,142.6429940884409L264.08163265306075,142.6429940884409L265.57823129251665,143.16726276994086L267.44897959183663,144.21577318995332L270.44217687074797,145.26424768911966L271.19047619047615,145.26424768911966L271.19047619047615,145.26424768911966L270.81632653061206,145.78847146956105L271.19047619047615,146.31268627117606L271.19047619047615,148.93362561349932L271.19047619047615,150.50608150307744L271.19047619047615,154.17483115599316L271.19047619047615,154.6989023601891L271.19047619047615,155.7470178564181L272.31292517006796,156.27106214939704L272.6870748299316,157.84314121335774L272.6870748299316,158.36714963125996L272.6870748299316,159.41513956469862L273.0612244897957,159.93912108118457L273.4353741496593,159.93912108118457L274.1836734693875,159.41513956469862L274.5578231292511,159.41513956469862L276.8027210884352,157.84314121335774L277.925170068027,156.79509747291377L277.925170068027,156.79509747291377L277.925170068027,156.79509747291377L277.925170068027,157.3191238274012L278.6734693877552,158.36714963125996L279.0476190476188,159.41513956469862L279.4217687074829,159.41513956469862L279.795918367347,159.41513956469862L280.5442176870747,160.4630936314643L281.2925170068024,161.51101183526407L281.6666666666665,162.55889417984508L281.6666666666665,163.60674066892898L281.6666666666665,164.1306504688364L283.16326530612196,166.2262000483679L284.65986394557785,166.75006504056364L285.7823129251701,167.79776814498837L287.27891156462556,169.36925560871168L288.0272108843533,170.4168691280138L289.1496598639451,171.98822223153184L290.27210884353735,174.0832343282782L292.1428571428569,176.70179799624748L293.6394557823128,178.79648780454954L294.3877551020405,179.84377901026892L295.1360544217682,181.41464870624623L295.8843537414964,182.9854378782802L296.25850340136003,184.55614653893645L297.38095238095184,186.65029953494377L297.7551020408164,187.1738154266386L297.7551020408164,187.1738154266386L298.12925170068,187.1738154266386L298.5034013605441,187.1738154266386L298.5034013605441,187.1738154266386L299.99999999999955,186.65029953494377L301.12244897959135,186.12677470077688L302.2448979591836,185.60324092369774L304.11564625850315,184.55614653893645L305.9863945578227,182.9854378782802L305.61224489795904,180.89103442196938L306.73469387755085,178.79648780454954L308.6054421768704,176.70179799624748L309.72789115646265,173.03574618900893L309.72789115646265,173.03574618900893L310.1020408163263,171.98822223153184L310.850340136054,171.98822223153184L310.850340136054,171.4644468197912L311.2244897959181,171.4644468197912L311.2244897959181,170.94066245211798L310.850340136054,170.94066245211798L310.47619047619037,169.36925560871168L310.47619047619037,168.32160625814504L310.1020408163263,166.75006504056364L309.3537414965981,164.65455130625924L307.85714285714266,162.55889417984508L306.36054421768677,159.41513956469862L305.61224489795904,156.79509747291377L305.23809523809496,155.22296459351128L304.48979591836724,153.650750980476L302.99319727891134,152.6025637135317L302.99319727891134,152.6025637135317L302.6190476190477,152.6025637135317L302.6190476190477,152.6025637135317L302.6190476190477,152.6025637135317L301.87074829931953,150.50608150307744L301.87074829931953,148.4094556989221L301.4965986394559,146.83689209445947L300.7482993197277,145.26424768911966L299.99999999999955,144.74001492941534L300.37414965986363,144.21577318995332L300.37414965986363,144.21577318995332L300.7482993197277,144.21577318995332L301.4965986394559,143.6915224702825L301.87074829931953,143.6915224702825L305.23809523809496,143.16726276994086L305.9863945578227,143.16726276994086L306.36054421768677,143.16726276994086L308.97959183673447,143.16726276994086L310.1020408163263,143.16726276994086L311.2244897959181,143.16726276994086L311.9727891156458,143.16726276994086L312.721088435374,143.16726276994086L313.0952380952376,142.6429940884409L313.0952380952376,141.07013415239635L315.3401360544217,139.4971933692177L321.7006802721089,136.35106921087936L322.44897959183663,135.3022892652807L322.44897959183663,135.3022892652807L323.57142857142844,137.39981320757215L324.31972789115616,138.4485212590953L325.8163265306116,139.4971933692177L327.31292517006796,140.02151594739917L328.8095238095234,141.59442978013976L329.1836734693875,142.11871642532424L329.9319727891152,142.6429940884409L332.1768707482988,143.6915224702825L334.79591836734653,144.21577318995332L335.1700680272106,144.21577318995332L335.1700680272106,144.21577318995332L335.1700680272106,143.16726276994086L334.79591836734653,143.16726276994086L334.79591836734653,142.6429940884409L335.1700680272106,142.11871642532424L336.2925170068024,141.59442978013976L337.78911564625787,140.54582954164653L339.65986394557785,140.02151594739917L339.65986394557785,138.4485212590953L340.03401360544194,136.35106921087936L340.03401360544194,135.82668373192791L340.40816326530603,134.77788581048299L340.40816326530603,133.7290519345188L340.40816326530603,132.68018210029913L340.40816326530603,131.63127630406234L340.40816326530603,131.10680991903791L341.53061224489784,129.53335681062526L342.65306122448965,127.4352934242379L343.0272108843533,126.38620776180687L341.53061224489784,123.76333616548072L340.40816326530603,123.23873485271542L339.65986394557785,123.23873485271542L339.2857142857142,122.71412454100209L337.41496598639424,120.61559329551892L337.04081632653015,120.09093798213144L337.78911564625787,119.56627366700559L338.1632653061224,119.04160034967936L340.40816326530603,118.51691802967252L341.53061224489784,117.99222670650852L342.65306122448965,117.46752637972895L344.1496598639451,115.36863502708002L346.39455782312916,113.26959957904182L346.7687074829928,113.26959957904182L347.1428571428569,113.26959957904182L347.8911564625846,113.794371951637L348.2653061224487,113.794371951637L348.2653061224487,113.794371951637L349.3877551020405,114.84388967518316L349.7619047619046,116.41809871344958L350.8843537414964,118.51691802967252L351.2585034013605,119.56627366700559L351.2585034013605,120.09093798213144L352.0068027210882,120.61559329551892L353.12925170068,121.14023960761915L353.87755102040774,121.14023960761915L355.37414965986363,123.23873485271542L356.8707482993191,125.33708611491602L356.8707482993191,125.86165143666221L356.8707482993191,125.86165143666221L357.2448979591836,125.86165143666221L362.10884353741494,128.48434310592347L362.10884353741494,128.48434310592347L362.10884353741494,130.0578501727723L363.6054421768704,132.1557336976657L364.7278911564622,133.7290519345188L365.47619047619037,134.77788581048299L365.47619047619037,135.3022892652807L365.47619047619037,135.82668373192791L365.1020408163263,136.8754457026007L365.1020408163263,137.39981320757215L366.5986394557817,140.54582954164653L366.9727891156458,140.54582954164653L366.9727891156458,141.07013415239635L367.72108843537353,141.07013415239635L369.9659863945576,142.11871642532424L370.3401360544217,142.11871642532424L371.0884353741494,142.11871642532424L371.4625850340135,142.11871642532424L374.08163265306075,141.07013415239635L374.45578231292484,140.54582954164653L374.8299319727889,140.54582954164653L374.8299319727889,139.4971933692177L375.57823129251665,138.97286180660012L376.32653061224437,139.4971933692177L378.19727891156435,141.07013415239635L378.9455782312921,142.6429940884409L379.31972789115616,143.16726276994086L379.6938775510198,143.16726276994086L380.8163265306116,143.16726276994086L382.31292517006796,143.16726276994086L384.1836734693875,143.16726276994086L384.5578231292511,143.16726276994086L386.054421768707,145.26424768911966L386.8027210884352,148.4094556989221L386.8027210884352,148.93362561349932L386.8027210884352,148.93362561349932L387.925170068027,150.50608150307744L388.6734693877547,151.03021551643906L389.79591836734653,151.03021551643906L390.1700680272106,151.03021551643906L390.54421768707425,151.03021551643906L391.2925170068024,150.50608150307744L392.04081632653015,149.98193851512042L392.78911564625787,149.45778655207687L392.78911564625787,149.45778655207687L393.1632653061224,149.45778655207687L395.78231292516966,149.98193851512042L396.5306122448974,150.50608150307744L397.65306122448965,151.03021551643906L398.77551020408146,151.55434055564547L399.5238095238092,152.0784566211987L400.27210884353735,152.0784566211987L400.646258503401,151.55434055564547L401.3945578231287,151.03021551643906L402.1428571428569,151.03021551643906L402.5170068027205,151.03021551643906L402.8911564625846,151.03021551643906L404.38775510204005,151.55434055564547L404.38775510204005,151.55434055564547L404.7619047619046,151.55434055564547L405.5102040816323,152.0784566211987L407.0068027210882,152.6025637135317L407.38095238095184,152.6025637135317L407.7551020408159,152.6025637135317L408.87755102040774,152.6025637135317L409.6258503401359,152.6025637135317L409.99999999999955,152.0784566211987L411.12244897959135,151.55434055564547L411.49659863945544,151.55434055564547L411.87074829931953,151.03021551643906L412.2448979591836,150.50608150307744L412.99319727891134,150.50608150307744L413.367346938775,150.50608150307744L414.11564625850315,150.50608150307744L415.23809523809496,151.03021551643906L415.23809523809496,151.03021551643906L415.23809523809496,151.55434055564547L415.98639455782313,152.0784566211987L415.98639455782313,152.6025637135317L417.4829931972786,153.12666183313922L417.4829931972786,153.12666183313922L420.1020408163263,153.650750980476L421.9727891156458,153.650750980476L423.0952380952376,153.650750980476L423.8435374149658,153.650750980476L426.46258503401305,153.12666183313922L428.3333333333326,152.6025637135317L430.57823129251665,153.12666183313922L431.70068027210846,153.650750980476L432.07482993197254,153.650750980476L432.44897959183663,153.650750980476L432.82312925170027,153.650750980476L433.19727891156435,153.650750980476L433.571428571428,153.650750980476L435.8163265306116,153.12666183313922L437.3129251700675,152.0784566211987L438.0612244897957,152.6025637135317L438.8095238095234,152.6025637135317L439.5578231292511,153.12666183313922L440.30612244897884,153.650750980476L441.4285714285711,153.650750980476L443.6734693877547,153.12666183313922L445.91836734693834,153.12666183313922L447.78911564625787,153.12666183313922L448.16326530612196,153.12666183313922L448.91156462585013,153.12666183313922L449.28571428571377,153.12666183313922L449.65986394557785,152.6025637135317L449.65986394557785,152.0784566211987L449.65986394557785,151.55434055564547L449.28571428571377,151.03021551643906L449.65986394557785,149.98193851512042L449.65986394557785,149.45778655207687L450.78231292516966,148.4094556989221L451.1564625850333,147.36108893985875L451.1564625850333,146.83689209445947L451.1564625850333,145.78847146956105L451.1564625850333,143.6915224702825L451.5306122448974,141.59442978013976L451.9047619047619,139.4971933692177L451.5306122448974,136.8754457026007L452.2789115646251,135.82668373192791L452.65306122448965,135.3022892652807L453.02721088435374,134.25347336705818L453.02721088435374,134.25347336705818L453.02721088435374,132.68018210029913L453.02721088435374,132.68018210029913L453.77551020408146,131.63127630406234L453.77551020408146,131.63127630406234L454.5238095238092,131.10680991903791L456.3945578231287,130.0578501727723L457.1428571428569,129.00885445515814L458.2653061224487,127.95982276243012L461.25850340136003,126.38620776180687L461.6326530612241,125.86165143666221L462.38095238095184,125.33708611491602L462.7551020408164,125.33708611491602L463.12925170067956,124.81251179612445L463.5034013605441,123.23873485271542L463.8775510204082,122.71412454100209L464.6258503401359,122.18950522990781L464.6258503401359,121.66487691893417L464.6258503401359,120.61559329551892L464.6258503401359,120.09093798213144L464.2517006802718,119.04160034967936L464.2517006802718,119.04160034967936L465,116.9428170488718L465,116.41809871344958L465.7482993197277,115.8933713730039L466.49659863945544,114.84388967518316L466.87074829931953,114.84388967518316L467.24489795918316,113.794371951637L467.24489795918316,112.2200278098826L467.61904761904725,110.12077616250826L467.99319727891134,107.49650886008021L467.61904761904725,104.87201623267538L467.61904761904725,103.82215607756734L467.24489795918316,103.29721247583075L467.99319727891134,103.82215607756734L468.367346938775,103.82215607756734L468.74149659863906,103.82215607756734L471.36054421768677,103.82215607756734L472.1088435374145,103.82215607756734L473.6054421768704,104.34709066302821L474.7278911564622,104.34709066302821L474.7278911564622,104.87201623267538L475.47619047619037,104.87201623267538L476.2244897959181,104.87201623267538L476.9727891156458,104.34709066302821L478.4693877551017,103.82215607756734L478.8435374149658,103.82215607756734L479.5918367346935,103.29721247583075L480.34013605442124,102.77225985732366L482.2108843537412,100.67235920638268L484.08163265306075,99.097339019223L486.70068027210846,98.04728045933734L487.0748299319721,98.04728045933734L487.82312925170027,98.04728045933734L488.57142857142844,97.52223764743758L488.9455782312921,97.52223764743758L490.44217687074797,96.47212495741769L490.44217687074797,96.47212495741769L490.81632653061206,94.896888249732L491.1904761904757,94.37179129926153L492.6870748299316,93.84668532402793L493.0612244897952,93.32157032358373L493.0612244897952,92.79644629746326L493.4353741496593,92.27131324517904L493.4353741496593,92.27131324517904L493.4353741496593,91.74617116627269L493.0612244897952,91.22102006028217L493.0612244897952,91.22102006028217L493.0612244897952,90.17069076512053L493.4353741496593,90.17069076512053L493.8095238095234,89.12032535593244L494.18367346938703,88.59512910739795L494.9319727891152,88.06992382894168L495.30612244897884,88.06992382894168L498.6734693877547,87.0194861804157L500.5442176870747,86.49425380940374L500.5442176870747,86.49425380940374L501.2925170068024,85.96901240657462L501.6666666666665,85.44376197148813L501.6666666666665,83.3426698989897L501.6666666666665,82.81737429547502L501.2925170068024,82.81737429547502L500.5442176870747,81.76675598271322L499.79591836734653,80.71610152580251L499.79591836734653,79.66541092098123L499.79591836734653,79.14005206191723L500.5442176870747,79.14005206191723L501.6666666666665,78.61468416447678L502.41496598639424,78.61468416447678L503.53741496598604,78.08930722815785L503.9115646258497,77.56392125250932L504.28571428571377,77.56392125250932L504.28571428571377,77.03852623706916L504.28571428571377,77.03852623706916L504.65986394557785,76.51312218133899L505.4081632653056,75.46228694717865L506.1564625850333,75.46228694717865L506.9047619047615,75.46228694717865L508.40136054421737,76.51312218133899L508.40136054421737,76.51312218133899L508.77551020408146,77.03852623706916L509.1496598639451,77.03852623706916L509.1496598639451,77.03852623706916L509.8979591836728,75.9877090848604L510.646258503401,74.41141554626302L510.646258503401,72.83504062396969L511.0204081632646,72.3095642290682L512.1428571428569,70.73308077539696L512.1428571428569,70.73308077539696L512.517006802721,70.73308077539696L514.0136054421764,70.73308077539696L514.0136054421764,70.73308077539696L514.3877551020405,71.78407878966391L514.7619047619046,71.78407878966391L515.1360544217682,72.3095642290682L515.5102040816323,72.3095642290682L515.8843537414959,71.78407878966391L516.25850340136,71.78407878966391L517.7551020408164,69.68204657741444L519.6258503401359,68.63097619193286L520.7482993197277,68.10542742770849L522.6190476190473,68.10542742770849L524.4897959183672,67.57986961518327L525.238095238095,68.10542742770849L526.7346938775509,68.10542742770849L527.1088435374145,68.10542742770849L527.8571428571422,68.10542742770849L528.2312925170063,68.10542742770849L529.7278911564626,67.05430275389153L531.9727891156458,65.47754787275335L532.3469387755099,64.95194481172075L532.3469387755099,64.42633269954968L532.3469387755099,63.90071153579993L531.9727891156458,62.32379373025833L532.3469387755099,60.74679444339927L533.8435374149653,58.11828119443453L535.3401360544212,58.11828119443453L536.8367346938771,58.11828119443453L538.7074829931971,58.11828119443453L541.3265306122444,57.06681249736357L543.1972789115644,56.01530756748616L545.0680272108839,53.91218899419982L546.5646258503398,52.334754925021116L548.8095238095234,49.70551688771229L550.3061224489793,48.12786529132791L551.8027210884347,44.97231729745545L552.5510204081629,44.44636089281266L552.5510204081629,43.394420874439675L552.5510204081629,42.86843725975632L553.2993197278906,42.86843725975632L555.5442176870747,41.2904319880181L555.5442176870747,41.2904319880181L555.9183673469383,41.2904319880181L556.6666666666661,41.81644281702029L557.4149659863942,42.86843725975632L560.0340136054419,43.92039541864142L562.6530612244892,44.44636089281266L563.775510204081,44.97231729745545L565.6462585034005,44.97231729745545L566.0204081632646,44.44636089281266L567.517006802721,43.92039541864142L567.517006802721,43.92039541864142L567.517006802721,44.44636089281266L567.517006802721,44.97231729745545L567.517006802721,45.49826463302452L567.8911564625846,46.0242028999819L568.2653061224487,46.550132098826L568.6394557823123,47.601963294022426L569.3877551020405,49.70551688771229L569.7619047619041,49.70551688771229L569.7619047619041,50.75723929378728L569.7619047619041,51.28308690076665L570.5102040816323,54.43798222789337L572.3809523809518,57.592551374767936L574.2517006802718,59.695416311806184L574.9999999999995,60.74679444339927L574.9999999999995,62.32379373025833L574.9999999999995,62.32379373025833L574.6258503401355,62.849442051625374L573.8775510204077,62.849442051625374L573.5034013605441,62.849442051625374L573.12925170068,62.849442051625374L572.7551020408159,62.32379373025833L572.0068027210882,61.798136355406314L569.7619047619041,61.798136355406314L568.2653061224487,62.32379373025833L568.2653061224487,62.32379373025833L567.8911564625846,62.849442051625374L567.517006802721,63.90071153579993L567.8911564625846,64.95194481172075L568.2653061224487,65.47754787275335L568.6394557823123,66.00314188315679L568.6394557823123,66.52872684338581L568.2653061224487,67.57986961518327L568.2653061224487,67.57986961518327L567.517006802721,68.63097619193286L566.7687074829923,69.68204657741444L566.3945578231292,69.68204657741444L565.2721088435369,70.20756819961389L564.1496598639451,70.73308077539696L563.4013605442174,72.3095642290682L562.2789115646256,74.41141554626302L561.9047619047615,74.93685576780626L561.9047619047615,75.46228694717865L561.9047619047615,75.46228694717865L561.9047619047615,75.9877090848604L561.9047619047615,77.03852623706916L561.9047619047615,78.61468416447678L561.9047619047615,79.66541092098123L561.9047619047615,80.71610152580251L561.9047619047615,83.86795646787868L561.9047619047615,84.91850250364587L562.2789115646256,85.44376197148813L561.9047619047615,85.96901240657462L561.9047619047615,86.49425380940374L561.1564625850338,87.0194861804157L560.7823129251697,87.54470952011616L557.7891156462579,88.06992382894168L555.9183673469383,88.59512910739795L554.7959183673461,89.12032535593244L554.7959183673461,89.12032535593244L554.4217687074829,89.12032535593244L554.4217687074829,89.12032535593244L554.4217687074829,90.69585992671273L554.4217687074829,90.69585992671273L554.7959183673461,91.74617116627269L555.1700680272106,92.27131324517904L555.1700680272106,92.79644629746326L555.5442176870747,92.79644629746326L554.7959183673461,93.84668532402793L554.0476190476184,94.37179129926153L551.4285714285711,95.42197617594502L549.1836734693875,96.47212495741769L546.1904761904757,96.99718581361958L545.0680272108839,98.04728045933734L543.9455782312921,98.04728045933734L543.5714285714284,98.04728045933734L542.8231292517003,98.04728045933734L542.4489795918366,97.52223764743758L542.4489795918366,97.52223764743758L540.5782312925166,99.097339019223L539.0816326530608,101.7223275681863L538.7074829931971,103.29721247583075L538.333333333333,105.39693278696723L538.333333333333,105.92184032639125L537.5850340136049,106.44673885140583L536.462585034013,106.44673885140583L534.5918367346935,106.97162836247298L533.4693877551017,108.02138034468226L533.0952380952376,108.02138034468226L533.0952380952376,108.54624281676297L532.3469387755099,110.64560258914935L532.721088435374,111.69522841238359L533.4693877551017,114.84388967518316L533.4693877551017,117.99222670650852L534.2176870748294,120.61559329551892L534.9659863945576,123.23873485271542L534.9659863945576,123.76333616548072L534.9659863945576,123.76333616548072L535.7142857142853,125.86165143666221L536.462585034013,127.4352934242379L536.8367346938771,127.95982276243012L537.5850340136049,129.00885445515814L537.9591836734689,129.53335681062526L539.0816326530608,130.0578501727723L539.8299319727885,130.58233454209403L540.5782312925166,132.1557336976657L540.9523809523803,133.7290519345188L541.3265306122444,135.82668373192791L543.9455782312921,137.92417172624846L545.442176870748,138.97286180660012L546.9387755102039,140.02151594739917L548.0612244897957,140.54582954164653L548.4353741496593,140.54582954164653L549.5578231292511,141.07013415239635L550.6802721088429,141.59442978013976L551.054421768707,141.59442978013976L551.8027210884347,143.16726276994086L552.1768707482988,143.6915224702825L552.9251700680265,147.36108893985875L553.6734693877543,150.50608150307744L554.0476190476184,150.50608150307744L554.4217687074829,151.03021551643906L554.7959183673461,151.55434055564547L556.6666666666661,153.12666183313922L559.2857142857138,154.17483115599316L560.7823129251697,155.22296459351128L562.6530612244892,156.79509747291377L563.4013605442174,157.3191238274012L563.775510204081,157.84314121335774L564.1496598639451,158.36714963125996L564.1496598639451,158.36714963125996L564.5238095238092,159.41513956469862L565.6462585034005,160.4630936314643L566.7687074829923,161.51101183526407L567.1428571428569,162.0349574897191L567.517006802721,162.0349574897191L567.517006802721,162.0349574897191L567.1428571428569,163.0828219060968L566.3945578231292,163.60674066892898L565.2721088435369,163.0828219060968L563.775510204081,162.0349574897191L563.0272108843533,162.0349574897191L562.6530612244892,162.0349574897191L562.2789115646256,162.0349574897191L562.2789115646256,162.0349574897191L561.5306122448974,163.0828219060968L561.9047619047615,164.1306504688364L560.7823129251697,165.178443181685L559.2857142857138,165.70232609557206L558.163265306122,165.70232609557206L557.4149659863942,164.65455130625924L557.4149659863942,164.1306504688364L556.2925170068024,163.0828219060968L556.2925170068024,163.0828219060968L552.1768707482988,165.70232609557206L549.5578231292511,166.75006504056364L546.9387755102039,166.75006504056364L546.5646258503398,167.2739210726104L546.9387755102039,168.8454354125679L547.3129251700675,171.98822223153184L548.0612244897957,173.55949473568035L548.0612244897957,174.60696496725723L548.0612244897957,176.17810316710893L547.6870748299316,179.32013788189215L548.0612244897957,181.41464870624623L547.6870748299316,185.07969820324433L547.6870748299316,187.6973223763598L548.4353741496593,190.31472301140093L548.4353741496593,190.83817631893908L548.4353741496593,191.36162068775957L548.0612244897957,192.40848261104838L548.0612244897957,192.93190016645895L547.6870748299316,192.93190016645895L547.3129251700675,193.4553087849963L547.3129251700675,193.97870846710066L546.9387755102039,193.97870846710066L546.9387755102039,193.97870846710066L546.1904761904757,194.50209921326314L545.442176870748,194.50209921326314L545.0680272108839,195.02548102397486L544.6938775510198,195.54885389963238L544.6938775510198,196.59557284778202L544.6938775510198,197.64225606143373L544.6938775510198,198.16558426899064L544.6938775510198,198.16558426899064L543.5714285714284,198.68890354431642L543.1972789115644,199.2122138878658L542.8231292517003,199.73551530012264L541.3265306122444,200.7820913325777L540.5782312925166,201.82863164539958L540.2040816326526,201.82863164539958L539.0816326530608,202.35188840810952L539.0816326530608,202.35188840810952L538.333333333333,202.87513624229177L537.5850340136049,203.92160512698683L536.462585034013,204.96803830317003L535.7142857142853,205.4912415017243L535.7142857142853,205.4912415017243L535.3401360544212,206.0144357745594L533.4693877551017,206.53762112211916L531.9727891156458,206.53762112211916L530.4761904761904,206.0144357745594L528.2312925170063,206.0144357745594L527.1088435374145,205.4912415017243L526.3605442176868,206.53762112211916L525.238095238095,208.1071236178359L523.3673469387754,210.19966868650226L522.2448979591836,211.24588768961985L521.8707482993191,211.7689838099941L520.7482993197277,212.81514929072728L520.3741496598636,212.81514929072728L519.6258503401359,213.3382186519848L518.8775510204077,213.3382186519848L517.0068027210878,213.3382186519848L516.6326530612241,213.3382186519848L515.5102040816323,213.8612790944826L515.1360544217682,214.38433061866453L515.1360544217682,214.38433061866453L515.1360544217682,214.90737322498535L514.7619047619046,216.47644754149587L514.3877551020405,216.99945448104336L514.0136054421764,218.5684218083734L513.2653061224487,219.61435545511267L512.517006802721,220.13730890840816L511.39455782312916,221.18318907722278L511.0204081632646,221.18318907722278L511.0204081632646,221.18318907722278L510.646258503401,221.70611579364777L510.2721088435369,222.75194249287233L510.2721088435369,223.79773355033467L510.2721088435369,225.36635331634534L510.646258503401,227.45772162610592L510.646258503401,229.02615434091422L510.646258503401,230.59450691176244L510.2721088435369,231.6400307740696L509.5238095238092,231.6400307740696L509.1496598639451,232.16277935111793L508.0272108843533,233.73097167148444L507.65306122448965,234.2536846428702L507.2789115646251,236.34444753044227L507.65306122448965,238.4350680434036L507.65306122448965,239.4803249186698L507.65306122448965,241.04814351539608L508.40136054421737,243.13844379366128L508.40136054421737,244.70607563045996L508.0272108843533,244.1835405765014L506.5306122448974,243.66099663104615L505.0340136054415,243.13844379366128L502.04081632653015,241.57073192518874L499.4217687074829,241.04814351539608L499.04761904761835,241.04814351539608L498.29931972789063,241.04814351539608L497.1768707482988,242.09331144119642L496.4285714285711,243.66099663104615L496.054421768707,245.75111906580423L496.4285714285711,248.36357208550908L496.8027210884352,249.40849107563554L496.8027210884352,249.93093724015853L495.30612244897884,250.97580291048143L494.9319727891152,250.97580291048143L494.5578231292511,250.97580291048143L492.3129251700675,251.4982224171763L491.1904761904757,251.4982224171763L490.44217687074797,251.4982224171763L490.0680272108839,252.02063303886462L489.69387755102025,252.54303477599387L489.31972789115616,254.11018668461838L489.31972789115616,254.11018668461838L488.9455782312921,254.63255288810979L488.57142857142844,254.63255288810979L487.82312925170027,255.1549102093486L486.32653061224437,255.67725864880776L485.95238095238074,255.67725864880776L485.95238095238074,255.67725864880776L485.20408163265256,254.63255288810979Z" style="fill: none; stroke: rgb(8, 48, 107);"><title>ALPES DE HAUTE PROVENCE</title></path><g stroke="#000" stroke-opacity="0.2"><path d="M0,-13.34775705149959L2.9967581703553763,-4.1246837657014135L12.69447132175327,-4.124683765701414L4.848856575698947,1.5754890056530315L7.845614746054325,10.798562291451207L8.881784197001252e-16,5.098389520096762L-7.845614746054323,10.798562291451208L-4.848856575698946,1.5754890056530328L-12.694471321753271,-4.124683765701411L-2.9967581703553776,-4.124683765701413Z" transform="translate(396.15646258503375,467.02205150233567)rotate(14.12607971131807)" fill="white" class="commune"><title>04039 Population : 1547</title></path><path d="M0,-13.34775705149959L2.9967581703553763,-4.1246837657014135L12.69447132175327,-4.124683765701414L4.848856575698947,1.5754890056530315L7.845614746054325,10.798562291451207L8.881784197001252e-16,5.098389520096762L-7.845614746054323,10.798562291451208L-4.848856575698946,1.5754890056530328L-12.694471321753271,-4.124683765701411L-2.9967581703553776,-4.124683765701413Z" transform="translate(456.7687074829928,188.74430945168933)rotate(7.136775870380443)" fill="white" class="commune"><title>04019 Population : 2610</title></path><path d="M0,-13.34775705149959L2.9967581703553763,-4.1246837657014135L12.69447132175327,-4.124683765701414L4.848856575698947,1.5754890056530315L7.845614746054325,10.798562291451207L8.881784197001252e-16,5.098389520096762L-7.845614746054323,10.798562291451208L-4.848856575698946,1.5754890056530328L-12.694471321753271,-4.124683765701411L-2.9967581703553776,-4.124683765701413Z" transform="translate(133.5034013605441,407.3052075697633)rotate(28.243365305219076)" fill="white" class="commune"><title>04088 Population : 4966</title></path><path d="M0,-15.873247654971056L3.5637661381291506,-4.905103281308338L15.096355617026989,-4.905103281308339L5.766294739448918,1.873582735131148L9.330060877578072,12.841727108793865L8.881784197001252e-16,6.063041092354379L-9.330060877578068,12.841727108793867L-5.766294739448918,1.8735827351311491L-15.09635561702699,-4.905103281308335L-3.563766138129152,-4.905103281308337Z" transform="translate(301.12244897959135,339.13893142087545)rotate(12.29195464483278)" fill="white" class="commune"><title>04070 Population : 16186</title></path></g><text class="text" y="25" x="326" text-anchor="middle" font-size="24" font-family="Helvetica" fill="#6baed6">04 - ALPES DE HAUTE PROVENCE</text><line x1="452.7278911564622" y1="207.29615892173243" x2="400.19727891156435" y2="448.4702020322926" stroke="yellow" opacity="0.35" stroke-width="2"/><line x1="389.82086167800423" y1="458.49651016357166" x2="307.45804988662087" y2="347.66447275963947" stroke="yellow" opacity="0.35" stroke-width="2"/><line x1="289.9478458049882" y1="343.6833498308013" x2="144.67800453514727" y2="402.76078915983743" stroke="yellow" opacity="0.35" stroke-width="2"/><line x1="155.05442176870736" y1="392.7344810285584" x2="435.21768707482954" y2="203.31503599289425" stroke="yellow" opacity="0.35" stroke-width="2"/></svg>