<svg viewBox="0,0,954,1144.8" width="954" height="1144.8" style="width: 100%; height: auto;" xmlns="http://www.w3.org/2000/svg" xmlns:xlink="http://www.w3.org/1999/xlink"><rect width="954" height="1144.8" fill="black"/><g stroke="#000" stroke-opacity="0.2"><path d="M0,-13.34775705149959L2.9967581703553763,-4.1246837657014135L12.69447132175327,-4.124683765701414L4.848856575698947,1.5754890056530315L7.845614746054325,10.798562291451207L8.881784197001252e-16,5.098389520096762L-7.845614746054323,10.798562291451208L-4.848856575698946,1.5754890056530328L-12.694471321753271,-4.124683765701411L-2.9967581703553776,-4.124683765701413Z" transform="translate(778.4953156197207,373.29404396670725)rotate(22.10479374271754)" fill="white" class="commune"><title>insee_com : 19275 
Population : 9736
 Nom : USSEL</title></path><path d="M0,-15.873247654971056L3.5637661381291506,-4.905103281308338L15.096355617026989,-4.905103281308339L5.766294739448918,1.873582735131148L9.330060877578072,12.841727108793865L8.881784197001252e-16,6.063041092354379L-9.330060877578068,12.841727108793867L-5.766294739448918,1.8735827351311491L-15.09635561702699,-4.905103281308335L-3.563766138129152,-4.905103281308337Z" transform="translate(403.4137613269854,650.0561345611786)rotate(26.28264534890539)" fill="white" class="commune"><title>insee_com : 19272 
Population : 14836
 Nom : TULLE</title></path><path d="M0,-22.448162112566994L5.039926405668234,-6.936863585267022L21.349470856006818,-6.936863585267023L8.154772225169292,2.649646114250548L13.19469863083753,18.16094464155052L8.881784197001252e-16,8.574434942032948L-13.194698630837525,18.160944641550522L-8.154772225169292,2.649646114250549L-21.34947085600682,-6.936863585267019L-5.0399264056682345,-6.936863585267021Z" transform="translate(238.53893411150375,754.4128747713185)rotate(16.708828130671918)" fill="white" class="commune"><title>insee_com : 19031 
Population : 46916
 Nom : BRIVE LA GAILLARDE</title></path></g><text class="text" y="40" x="427" text-anchor="middle" font-size="36" font-family="Helvetica" fill="#6baed6">19  - CORREZE</text><line x1="249.53058925920251" y1="747.4557587573091" x2="392.42210617928663" y2="657.013250575188" stroke="yellow" opacity="0.35" stroke-width="2"/><line x1="428.41919827983446" y1="631.6053285215472" x2="753.4898786668717" y2="391.74485000633865" stroke="yellow" opacity="0.35" stroke-width="2"/><line x1="742.4982235191729" y1="398.701966020348" x2="274.5360262120515" y2="729.0049527176777" stroke="yellow" opacity="0.35" stroke-width="2"/></svg>