<svg viewBox="0,0,600,600" width="600" height="600" style="width: 100%; height: auto;" xmlns="http://www.w3.org/2000/svg" xmlns:xlink="http://www.w3.org/1999/xlink"><rect width="752" height="902.4" fill="black"/><g stroke="#000" stroke-opacity="0.2"><path d="M0,-13.34775705149959L2.9967581703553763,-4.1246837657014135L12.69447132175327,-4.124683765701414L4.848856575698947,1.5754890056530315L7.845614746054325,10.798562291451207L8.881784197001252e-16,5.098389520096762L-7.845614746054323,10.798562291451208L-4.848856575698946,1.5754890056530328L-12.694471321753271,-4.124683765701411L-2.9967581703553776,-4.124683765701413Z" transform="translate(295.2744744187753,465.96380965330536)rotate(15.025326530219084)" fill="white" class="commune"><title>08490 Population : 4359</title></path><path d="M0,-13.34775705149959L2.9967581703553763,-4.1246837657014135L12.69447132175327,-4.124683765701414L4.848856575698947,1.5754890056530315L7.845614746054325,10.798562291451207L8.881784197001252e-16,5.098389520096762L-7.845614746054323,10.798562291451208L-4.848856575698946,1.5754890056530328L-12.694471321753271,-4.124683765701411L-2.9967581703553776,-4.124683765701413Z" transform="translate(176.94731386491276,408.37790087284884)rotate(15.09895003801888)" fill="white" class="commune"><title>08362 Population : 7662</title></path><path d="M0,-15.873247654971056L3.5637661381291506,-4.905103281308338L15.096355617026989,-4.905103281308339L5.766294739448918,1.873582735131148L9.330060877578072,12.841727108793865L8.881784197001252e-16,6.063041092354379L-9.330060877578068,12.841727108793867L-5.766294739448918,1.8735827351311491L-15.09635561702699,-4.905103281308335L-3.563766138129152,-4.905103281308337Z" transform="translate(383.3582712528007,301.6235652157593)rotate(5.536205320565426)" fill="white" class="commune"><title>08409 Population : 16846</title></path><path d="M0,-22.448162112566994L5.039926405668234,-6.936863585267022L21.349470856006818,-6.936863585267023L8.154772225169292,2.649646114250548L13.19469863083753,18.16094464155052L8.881784197001252e-16,8.574434942032948L-13.194698630837525,18.160944641550522L-8.154772225169292,2.649646114250549L-21.34947085600682,-6.936863585267019L-5.0399264056682345,-6.936863585267021Z" transform="translate(302.8353153487344,255.99953406348868)rotate(3.7133717471642127)" fill="white" class="commune"><title>08105 Population : 46682</title></path></g><text class="text" y="25" x="326" text-anchor="middle" font-size="24" font-family="Helvetica" fill="#6baed6">08 - ARDENNES</text><line x1="308.2035124090055" y1="259.0411361403067" x2="377.9900741925296" y2="298.58196313894126" stroke="yellow" opacity="0.35" stroke-width="2"/><line x1="377.48601813053233" y1="312.5795815115957" x2="301.1467275410437" y2="455.007793357469" stroke="yellow" opacity="0.35" stroke-width="2"/><line x1="287.3859970485178" y1="462.1247490679416" x2="184.83579123517026" y2="412.2169614582126" stroke="yellow" opacity="0.35" stroke-width="2"/><line x1="185.33984729716752" y1="398.21934308555814" x2="294.44278191647965" y2="266.1580918507794" stroke="yellow" opacity="0.35" stroke-width="2"/></svg>