<svg viewBox="0,0,954,1144.8" width="954" height="1144.8" style="width: 100%; height: auto;" xmlns="http://www.w3.org/2000/svg" xmlns:xlink="http://www.w3.org/1999/xlink"><rect width="954" height="1144.8" fill="black"/><path d="M540.3094462540703,809.8948927859601L536.99674267101,811.5718475512986L510.86319218240897,812.6898118197569L509.7589576547234,812.6898118197569L496.876221498369,797.5969178483647L492.8273615635171,800.9509645408252L476.9999999999982,812.1308302430552L475.15960912051924,812.1308302430552L470.3745928338758,811.5718475512986L467.4299674267095,812.1308302430552L467.4299674267095,814.3667498592986L465.58957654723054,813.2487922812579L462.27687296416843,811.5718475512986L457.4918566775232,810.4538788229111L428.04560260586186,807.6589374875475L421.4201954397395,806.540953147749L423.6286644951124,799.8329534374352L355.90228013029264,776.9127427069179L308.78827361563344,761.2588383737311L275.29315960911845,750.0769426479819L264.98697068403817,743.3675909937301L243.63843648208422,729.3892589716997L227.07491856677552,719.8835948022897L213.08794788273553,737.2172108272789L203.8859934853408,745.6040593976504L185.48208469055317,746.1631737090647L184.7459283387616,745.0449439703953L183.64169381107422,725.4752010213851L193.21172638436292,717.0877498405171L186.58631921824053,709.2592355033557L185.48208469055317,708.1408584536402L184.3778501628658,708.1408584536402L167.0781758957637,712.0551585943322L138.73615635179158,707.0224769392516L126.22149837133475,684.6539089656726L124.38110749185398,661.7242729080026L129.16612377849924,647.1825554613897L121.80456026058528,646.623243559472L91.99022801302817,634.8774356098729L83.89250814332263,624.2498515748302L82.42019543973765,623.1311350597534L80.21172638436474,622.0124140758126L33.83387622149712,606.3498510778008L25,602.4340734614234L25.73615635179158,587.3298469089204L30.52117263843502,569.4274864047766L36.042345276871856,552.6429839473567L40.459283387621326,535.8574753663561L48.92508143322448,520.749657270062L52.60586319218237,515.1539622133423L59.96742671009633,510.6773256487504L66.96091205211633,507.31980125349946L80.21172638436474,501.16423528949963L86.46905537459133,497.24698648488265L90.14983713354923,493.88930102987797L94.19869706840291,488.8526973440021L104.1368078175874,473.7423426194L107.08143322475553,475.98096515092766L137.6319218241024,487.1738093138265L139.84039087947713,486.0545450338104L151.2508143322466,451.914834775147L221.18566775244108,465.3473486962321L228.54723127035868,462.5489614455146L230.01954397394002,461.98928063872154L233.7003257328979,438.4816762949922L234.06840390879552,437.3622173241165L246.9511400651445,422.8088433026278L246.9511400651445,422.8088433026278L251,417.21119027913664L271.2442996742666,402.09696795316995L273.0846905537437,400.9773634627636L285.59934853420054,398.7381410468661L298.85016286644895,388.6614184860373L317.9902280130282,374.6653686250502L332.34527687296395,364.58777933727833L350.01302931596,354.50982717235456L372.09771986970554,344.4315120941028L377.2508143322466,339.3922184513067L379.0912052117237,337.71243373915786L414.79478827361527,336.59257166285533L495.40390879478764,333.7928968669148L545.4625407166113,332.11307854534243L562.7622149837116,332.11307854534243L615.0293159609118,330.4332501407189L632.6970684039079,335.47270510543603L638.2182410423447,337.1525032611098L655.8859934853408,352.27023296340485L663.6156351791524,372.4259356968978L665.4560260586313,383.6229211613245L668.0325732899,400.9773634627636L668.7687296416916,406.5753411320038L669.504885993485,423.9283604749944L672.4495114006495,432.88433667330537L677.6026058631905,439.6011307890294L689.0130293159582,446.87747588395723L706.6807817589579,452.47453572347877L711.8338762214971,463.10864113346906L718.0912052117255,474.3019999304961L721.4039087947876,492.7700635964575L722.1400651465792,496.687375038804L723.2442996742666,512.9156528779422L723.6123778501624,539.7741840361559L725.0846905537437,562.71380614597L728.3973941368058,592.9240998750611L732.0781758957655,626.4872711997887L732.0781758957655,629.2840205963003L730.9739413680763,641.030063110491L729.8697068403908,649.9790982182894L719.5635179153087,699.1936813195352L716.9869706840382,708.7000475366658L714.4104234527695,712.0551585943322L718.4592833876213,712.6143398639688L723.2442996742666,713.1735200175608L730.9739413680763,712.0551585943322L735.7589576547216,710.3776080882235L753.4267100977177,701.430502393283L751.5863192182424,695.8384162199218L749.00977198697,681.8577123753785L747.1693811074892,675.7059816244291L743.856677524429,670.1133818851085L743.4885993485332,665.0799466489698L743.4885993485332,663.40211480367L744.9609120521163,660.6057060607418L745.3289902280139,658.3685589654488L752.3224755700321,653.3349126706598L754.5309446254068,655.0128048200568L758.5798045602605,662.8428352884657L760.0521172638437,665.6392216973181L761.5244299674268,666.7577684442804L763.7328990227998,667.8763107243576L773.6710097719861,668.9948485380155L795.3876221498358,672.3504351799202L795.7557003257316,671.2319107657531L809.00651465798,672.9096957120637L811.9511400651463,651.6570104701968L821.1530944625392,653.3349126706598L821.521172638435,650.538403419021L822.2573289902266,650.538403419021L822.6254071661224,648.3011759147048L821.8892508143308,648.8604844661313L822.2573289902266,644.3859847827698L843.6058631921824,645.5046164049127L843.2377850162848,649.9790982182894L848.3908794788258,650.538403419021L884.8306188925071,658.3685589654488L892.5602605863187,660.0464209621132L899.5537459283387,662.8428352884657L906.5472312703569,666.7577684442804L912.4364820846895,671.2319107657531L915.7491856677534,675.7059816244291L919.7980456026053,682.9761943609919L928.2638436482066,695.2792014626903L929,697.516053793137L929,701.430502393283L927.8957654723108,708.7000475366658L926.0553745928337,712.0551585943322L924.2149837133547,714.2918769760872L918.3257328990203,718.7652601658483L916.1172638436474,721.0019249745237L913.5407166123769,724.9160454215598L911.7003257328979,729.9484056434594L909.859934853419,739.4537283279351L910.2280130293166,747.2813989848655L911.7003257328979,747.8405099489028L912.0684039087937,746.7222869048419L915.7491856677534,748.9587285299785L913.9087947882726,755.1088509507244L912.4364820846895,761.817921445705L912.0684039087937,761.817921445705L912.4364820846895,763.4951639677747L911.3322475570003,766.8496188911959L903.6026058631905,788.6525970536459L902.866449511399,793.1247931394319L902.1302931596074,794.2428310081305L902.866449511399,794.8018482696789L897.3452768729621,798.7149378733011L889.6156351791506,804.3049710866471L890.7198697068397,807.6589374875475L889.6156351791506,806.540953147749L888.1433224755692,806.540953147749L869.0032573289882,805.981959305238L859.0651465798037,802.6279728319496L853.9120521172626,801.5099684196757L848.02280130293,800.9509645408252L834.7719869706834,801.5099684196757L827.7785016286634,801.5099684196757L818.9446254071663,799.2739462128957L809.3745928338758,799.8329534374352L809.7426710097698,794.8018482696789L807.9022801302926,793.1247931394319L804.5895765472287,792.006750809669L800.540716612375,791.4477279719722L797.5960912052105,794.2428310081305L798.3322475570021,788.6525970536459L791.7068403908797,781.944169086084L793.1791530944629,780.2670369984698L792.0749185667737,779.1489433629613L790.6026058631905,780.8260821431759L783.9771986970663,773.5584082595014L784.7133550488597,771.8812259767728L782.1368078175892,770.7630988775054L775.1433224755692,767.9677616076951L768.517915309445,766.8496188911959L762.9967426710082,766.2905458596069L752.3224755700321,766.8496188911959L745.6970684039079,766.8496188911959L732.8143322475571,763.4951639677747L728.3973941368058,762.9360842425667L717.7231270358297,763.4951639677747L712.9381107491845,762.3770034019835L709.2573289902266,761.2588383737311L705.9446254071645,759.0224949299591L700.4234527687295,753.9906569156155L690.1172638436474,742.8084711033152L685.3322475570021,738.3354718093469L680.1791530944629,736.098945381731L669.1368078175892,741.6902279748465L656.2540716612366,746.7222869048419L651.1009771986955,747.8405099489028L635.6416938110724,757.9043165141193L633.0651465798037,760.1406688830466L623.863192182409,764.6133200712211L617.6058631921824,769.0858998623153L603.9869706840382,776.3536897543818L601.4104234527676,780.2670369984698Z" style="fill: none; stroke: rgb(8, 48, 107);"><title>PARIS</title></path><g stroke="#000" stroke-opacity="0.2"><path d="M0,-44.54138473356747L10.000163930483316,-13.764044835665187L42.36137419566881,-13.764044835665189L16.180605132592746,5.257397304546639L26.18076906307607,36.034737202448916L1.7763568394002505e-15,17.01329506223709L-26.18076906307606,36.03473720244892L-16.180605132592746,5.257397304546643L-42.361374195668816,-13.764044835665178L-10.000163930483321,-13.764044835665185Z" transform="translate(497.2442996742666,586.210982905468)rotate(26.396656009754363)" fill="white" class="commune"><title>insee_com : 75056 
Population : 2187526
 Nom : PARIS</title></path></g><text class="text" y="40" x="427" text-anchor="middle" font-size="36" font-family="Helvetica" fill="#6baed6">75  - PARIS</text><line x1="497.2442996742666" y1="586.210982905468" x2="497.2442996742666" y2="586.210982905468" stroke="yellow" opacity="0.35" stroke-width="2"/></svg>