<svg viewBox="0,0,954,1144.8" width="954" height="1144.8" style="width: 100%; height: auto;" xmlns="http://www.w3.org/2000/svg" xmlns:xlink="http://www.w3.org/1999/xlink"><rect width="954" height="1144.8" fill="black"/><g stroke="#000" stroke-opacity="0.2"><path d="M0,-13.34775705149959L2.9967581703553763,-4.1246837657014135L12.69447132175327,-4.124683765701414L4.848856575698947,1.5754890056530315L7.845614746054325,10.798562291451207L8.881784197001252e-16,5.098389520096762L-7.845614746054323,10.798562291451208L-4.848856575698946,1.5754890056530328L-12.694471321753271,-4.124683765701411L-2.9967581703553776,-4.124683765701413Z" transform="translate(613.6465488862066,821.1822488988837)rotate(11.670151332825418)" fill="white" class="commune"><title>insee_com : 80561 
Population : 6255
 Nom : MONTDIDIER</title></path><path d="M0,-13.34775705149959L2.9967581703553763,-4.1246837657014135L12.69447132175327,-4.124683765701414L4.848856575698947,1.5754890056530315L7.845614746054325,10.798562291451207L8.881784197001252e-16,5.098389520096762L-7.845614746054323,10.798562291451208L-4.848856575698946,1.5754890056530328L-12.694471321753271,-4.124683765701411L-2.9967581703553776,-4.124683765701413Z" transform="translate(796.4702073960277,603.7648628199422)rotate(5.985755792629991)" fill="white" class="commune"><title>insee_com : 80620 
Population : 7579
 Nom : PERONNE</title></path><path d="M0,-18.876579049491834L4.238056047668955,-5.833183721955068L17.952693510379785,-5.833183721955069L6.857318731355415,2.2280779191642193L11.095374779024372,15.271473246700983L8.881784197001252e-16,7.210211605581696L-11.095374779024368,15.271473246700985L-6.857318731355414,2.2280779191642206L-17.952693510379788,-5.833183721955065L-4.238056047668956,-5.833183721955068Z" transform="translate(250.1320092176012,468.06142765440745)rotate(19.298399094371373)" fill="white" class="commune"><title>insee_com : 80001 
Population : 22946
 Nom : ABBEVILLE</title></path><path d="M0,-26.69551410299918L5.993516340710753,-8.249367531402827L25.38894264350654,-8.249367531402829L9.697713151397894,3.150978011306063L15.69122949210865,21.597124582902413L1.7763568394002505e-15,10.196779040193524L-15.691229492108645,21.597124582902417L-9.697713151397892,3.1509780113060657L-25.388942643506542,-8.249367531402822L-5.993516340710755,-8.249367531402825Z" transform="translate(479.0831778777572,631.2618724810127)rotate(1.6044806817188784)" fill="white" class="commune"><title>insee_com : 80021 
Population : 134057
 Nom : AMIENS</title></path></g><text class="text" y="40" x="427" text-anchor="middle" font-size="36" font-family="Helvetica" fill="#6baed6">80  - SOMME</text><line x1="265.3954204616116" y1="478.9414573095145" x2="463.8197666337468" y2="620.3818428259057" stroke="yellow" opacity="0.35" stroke-width="2"/><line x1="488.05406927832047" y1="643.9232309088708" x2="604.6756574856432" y2="808.5208904710256" stroke="yellow" opacity="0.35" stroke-width="2"/><line x1="625.8347927868613" y1="806.6877564936209" x2="784.281963495373" y2="618.259355225205" stroke="yellow" opacity="0.35" stroke-width="2"/><line x1="760.0476608507993" y1="594.7179671422399" x2="286.55455576282964" y2="477.10832333210976" stroke="yellow" opacity="0.35" stroke-width="2"/></svg>