<svg viewBox="0,0,955,1146" width="955" height="1146" style="width: 100%; height: auto;" xmlns="http://www.w3.org/2000/svg" xmlns:xlink="http://www.w3.org/1999/xlink"><rect width="955" height="1146" fill="black"/><g stroke="#000" stroke-opacity="0.2"><path d="M0,-13.34775705149959L2.9967581703553763,-4.1246837657014135L12.69447132175327,-4.124683765701414L4.848856575698947,1.5754890056530315L7.845614746054325,10.798562291451207L8.881784197001252e-16,5.098389520096762L-7.845614746054323,10.798562291451208L-4.848856575698946,1.5754890056530328L-12.694471321753271,-4.124683765701411L-2.9967581703553776,-4.124683765701413Z" transform="translate(838.8885135135138,653.8933756503175)rotate(5.7183539938951995)" fill="white" class="commune"><title>10033 Population : 4950</title></path><path d="M0,-13.34775705149959L2.9967581703553763,-4.1246837657014135L12.69447132175327,-4.124683765701414L4.848856575698947,1.5754890056530315L7.845614746054325,10.798562291451207L8.881784197001252e-16,5.098389520096762L-7.845614746054323,10.798562291451208L-4.848856575698946,1.5754890056530328L-12.694471321753271,-4.124683765701411L-2.9967581703553776,-4.124683765701413Z" transform="translate(95.93243243243296,412.7523798286493)rotate(19.046480909003048)" fill="white" class="commune"><title>10268 Population : 5973</title></path><path d="M0,-22.448162112566994L5.039926405668234,-6.936863585267022L21.349470856006818,-6.936863585267023L8.154772225169292,2.649646114250548L13.19469863083753,18.16094464155052L8.881784197001252e-16,8.574434942032948L-13.194698630837525,18.160944641550522L-8.154772225169292,2.649646114250549L-21.34947085600682,-6.936863585267019L-5.0399264056682345,-6.936863585267021Z" transform="translate(449.3716216216221,596.0222269773367)rotate(3.740126931368817)" fill="white" class="commune"><title>10387 Population : 60640</title></path></g><text class="text" y="40" x="427.5" text-anchor="middle" font-size="36" font-family="Helvetica" fill="#6baed6">10 - AUBE</text><line x1="789.3581081081084" y1="637.8173092622062" x2="145.46283783783835" y2="428.8284462167605" stroke="yellow" opacity="0.35" stroke-width="2"/><line x1="119.49504504504557" y1="424.97036963856175" x2="425.8090090090095" y2="583.8042371674242" stroke="yellow" opacity="0.35" stroke-width="2"/><line x1="475.3394144144149" y1="599.8803035555354" x2="812.920720720721" y2="650.0352990721187" stroke="yellow" opacity="0.35" stroke-width="2"/></svg>