<svg viewBox="0,0,600,600" width="600" height="600" style="width: 100%; height: auto;" xmlns="http://www.w3.org/2000/svg" xmlns:xlink="http://www.w3.org/1999/xlink"><rect width="752" height="902.4" fill="black"/><path d="M71.25382262996936,281.92470836648135L71.25382262996936,281.92470836648135L72.51529051987768,281.92470836648135L71.67431192660547,280.73367924972626L71.67431192660547,280.1381490555759L71.25382262996936,279.5426084368628L71.25382262996936,278.94705739300844L71.67431192660547,277.755924027766L71.67431192660547,277.755924027766L72.51529051987768,277.160341705272L73.35626911314978,275.96914577782445L73.77675840978577,275.3735321717686L74.1972477064221,274.1822736722752L74.1972477064221,273.5866287777462L74.1972477064221,271.7996315084274L74.1972477064221,270.6082478353237L73.35626911314978,268.82109407438475L73.77675840978577,265.24650479373304L73.77675840978577,265.24650479373304L75.03822629969409,263.4590692444799L75.45871559633008,262.86323651569546L76.7201834862384,262.2673933464757L76.7201834862384,262.2673933464757L76.7201834862384,259.28802087463555L75.87920489296641,257.5002720712764L74.6177370030581,255.11646076251782L75.03822629969409,252.7324822928931L74.1972477064221,250.34833662732854L73.77675840978577,249.15620108512303L73.77675840978577,249.15620108512303L75.45871559633008,249.15620108512303L77.56116207951072,249.15620108512303L79.24311926605503,249.75227408247883L80.92507645259946,248.5601176347518L83.86850152905197,246.77180455991765L85.55045871559628,244.98339738804498L86.8119266055046,243.79107365667005L87.23241590214059,241.40630069393956L87.6529051987767,240.21385145378372L87.6529051987767,239.02136036859156L87.23241590214059,237.8288274339502L87.6529051987767,236.03994955472808L88.4938837920489,234.84731197730798L89.33486238532123,234.84731197730798L89.75535168195722,234.84731197730798L93.11926605504584,234.84731197730798L93.53975535168195,234.84731197730798L94.38073394495405,234.2509774895625L94.80122324159026,234.2509774895625L95.22171253822626,233.65463253506823L95.22171253822626,233.65463253506823L95.64220183486225,233.05827711329766L96.48318042813457,231.2691480386493L96.90366972477057,230.67275074217105L96.90366972477057,230.67275074217105L96.48318042813457,230.67275074217105L96.48318042813457,230.67275074217105L96.06269113149858,230.67275074217105L93.53975535168195,228.88349603030292L89.75535168195722,227.09414707317774L87.6529051987767,224.70820183433898L85.97094801223238,222.91863291399568L85.12996941896029,222.91863291399568L83.02752293577976,222.32208898688987L82.60703363914376,218.14598808973824L82.18654434250743,216.3560733495833L82.18654434250743,215.1627444408805L82.18654434250743,214.56606426028156L82.18654434250743,213.3726724438966L82.18654434250743,212.179238683555L80.92507645259946,211.5825060730167L78.82262996941881,210.3890093884802L78.40214067278282,209.7922453133724L78.40214067278282,209.7922453133724L78.40214067278282,209.19547074898946L78.40214067278282,208.59868569474202L78.40214067278282,208.0018901501062L78.40214067278282,208.0018901501062L78.82262996941881,206.8082675874757L79.66360856269114,204.42089655326708L80.92507645259946,202.03335761108247L81.34556574923545,201.43644663579835L80.92507645259946,200.24259319364137L80.92507645259946,200.24259319364137L79.66360856269114,199.64565072569894L78.82262996941881,199.048697759099L78.40214067278282,198.45173429327406L77.98165137614671,197.25777586182085L78.82262996941881,197.25777586182085L79.24311926605503,197.85476032769657L79.66360856269114,198.45173429327406L80.08409785932713,198.45173429327406L80.50458715596312,198.45173429327406L83.44801223241575,197.85476032769657L83.44801223241575,197.25777586182085L83.86850152905197,197.25777586182085L83.86850152905197,196.6607808950721L83.86850152905197,196.6607808950721L85.97094801223238,193.07859054569053L87.6529051987767,191.8844430640056L88.9143730886849,191.28735356472316L91.85779816513752,188.30174846157752L91.85779816513752,187.70459591576946L93.11926605504584,186.51025929453317L93.11926605504584,185.91307521799536L93.11926605504584,185.31588063013623L93.11926605504584,184.71867553036645L93.11926605504584,184.71867553036645L93.53975535168195,184.12145991815487L94.80122324159026,183.52423379296306L95.22171253822626,182.92699715420895L96.06269113149858,182.92699715420895L97.32415902140656,183.52423379296306L97.74464831804289,182.92699715420895L99.4266055045872,182.3297500013614L99.8470948012232,182.3297500013614L99.8470948012232,181.73249233385286L99.8470948012232,181.73249233385286L99.4266055045872,178.148725490184L99.00611620795098,176.95405240003674L99.00611620795098,175.75933723139678L99.4266055045872,173.96718557158601L100.68807339449529,171.57750270918768L100.68807339449529,171.57750270918768L101.10856269113151,170.98005568346707L101.52905198776762,170.98005568346707L101.94954128440361,170.3825981325972L102.79051987767593,170.3825981325972L104.05198776758391,170.3825981325972L105.31345565749223,170.3825981325972L105.73394495412845,170.3825981325972L106.15443425076444,169.78513005603963L106.57492354740054,169.78513005603963L106.99541284403676,169.18765145321595L106.99541284403676,169.18765145321595L107.41590214067276,168.59016232358408L107.83639143730875,167.99266266658742L108.25688073394508,165.60255875394432L108.25688073394508,162.01708697008144L108.25688073394508,161.41947147560495L108.67737003058107,160.82184544712436L108.67737003058107,160.2242088840867L109.09785932721707,160.2242088840867L111.62079510703359,157.23586803124272L111.62079510703359,157.23586803124272L112.04128440366958,156.63816824927562L112.4617737003058,156.63816824927562L112.88226299694179,157.23586803124272L113.3027522935779,157.23586803124272L113.72324159021412,157.23586803124272L114.14373088685011,157.83355727534945L114.5642201834861,157.83355727534945L115.40519877675843,158.43123598212696L116.24617737003041,158.43123598212696L117.08715596330273,159.02890415214642L118.34862385321105,159.02890415214642L119.18960244648315,159.02890415214642L119.61009174311914,159.02890415214642L120.03058103975536,159.02890415214642L120.03058103975536,159.02890415214642L120.45107033639135,158.43123598212696L120.87155963302746,157.23586803124272L122.13302752293578,154.84500567055147L123.81498470948009,153.05174823102425L125.0764525993884,150.0627749893938L126.75840978593271,147.07353813473674L127.1788990825687,147.07353813473674L127.1788990825687,146.47565912414575L127.1788990825687,145.27986945886732L127.1788990825687,144.6819588030703L127.59938837920481,144.0840375977823L127.59938837920481,143.4861058424067L128.0198776758408,142.88816353643415L130.12232415902145,139.89829372782697L130.96330275229343,138.70227193064784L131.38379204892942,138.10424519974913L131.80428134556576,137.50620791323672L132.22477064220175,137.50620791323672L132.64525993883774,136.90816007057947L135.5886850152906,136.31010167118438L137.2706422018349,135.7120327145276L139.3730886850152,135.11395320002703L139.7935779816513,135.11395320002703L140.21406727828753,135.11395320002703L140.63455657492352,135.7120327145276L140.63455657492352,135.7120327145276L141.05504587155963,135.7120327145276L141.47553516819562,135.7120327145276L141.89602446483173,135.7120327145276L145.25993883792057,134.51586312714426L147.78287461773698,132.12339724069534L149.4648318042813,129.73076237568966L149.4648318042813,129.73076237568966L149.4648318042813,129.1325772523669L149.4648318042813,129.1325772523669L149.4648318042813,128.53438156510674L149.4648318042813,127.93617531337077L147.78287461773698,126.14149316563635L146.52140672782866,124.9449855678431L146.52140672782866,124.9449855678431L145.68042813455656,123.74843569875156L145.68042813455656,123.74843569875156L145.68042813455656,123.74843569875156L146.10091743119256,123.15014491107286L146.10091743119256,122.5518435539052L146.52140672782866,121.95353162670654L146.52140672782866,121.95353162670654L148.20336391437297,120.15853241923469L150.3058103975535,118.96181342050477L151.1467889908256,117.76505212824486L151.98776758409792,115.96983087975968L152.8287461773699,112.3791028113883L153.2492354740059,112.3791028113883L153.2492354740059,111.18210882520725L153.2492354740059,111.18210882520725L152.8287461773699,110.58359596147056L152.8287461773699,109.98507251657793L152.8287461773699,109.98507251657793L151.98776758409792,108.1894386893L151.5672782874616,108.1894386893L151.5672782874616,107.59087291415563L151.5672782874616,106.39370961146778L151.5672782874616,106.39370961146778L151.5672782874616,105.79511208281474L151.1467889908256,103.99925598087066L151.1467889908256,103.40061610637713L151.5672782874616,103.40061610637713L151.5672782874616,102.80196564403377L151.98776758409792,102.80196564403377L152.40825688073392,102.20330459330216L152.8287461773699,101.60463295359295L153.2492354740059,101.00595072436045L153.66972477064223,99.80855449513183L153.66972477064223,99.80855449513183L154.09021406727823,99.20984049401522L153.66972477064223,98.61111590113433L153.66972477064223,98.61111590113433L151.98776758409792,95.01854588601418L150.3058103975535,92.62328730371883L149.4648318042813,92.02444616485081L148.6238532110092,91.42559442753554L148.20336391437297,91.42559442753554L148.20336391437297,91.42559442753554L146.52140672782866,88.43117674493624L145.68042813455656,85.43649401778748L145.25993883792057,84.8375256608706L145.25993883792057,84.23854669883804L146.10091743119256,83.63955713110408L146.52140672782866,83.04055695713032L147.36238532110087,82.44154617636377L147.36238532110087,82.44154617636377L147.78287461773698,82.44154617636377L149.04434250764518,82.44154617636377L149.4648318042813,82.44154617636377L150.3058103975535,82.44154617636377L150.7262996941896,82.44154617636377L151.98776758409792,81.84252478823328L153.2492354740059,81.84252478823328L154.09021406727823,81.84252478823328L157.87461773700295,83.04055695713032L158.71559633027493,83.04055695713032L160.39755351681947,84.23854669883804L162.07951070336378,84.8375256608706L164.18195718654442,86.63439891845337L164.60244648318042,87.23333546332651L165.0229357798164,87.23333546332651L165.0229357798164,87.83226140531042L165.0229357798164,89.62897561940918L165.0229357798164,89.62897561940918L165.4434250764524,90.82673209122731L165.86391437308873,91.42559442753554L165.86391437308873,91.42559442753554L165.86391437308873,91.42559442753554L167.96636085626903,92.62328730371883L170.48929663608544,93.22211784472165L171.75076452599376,93.22211784472165L173.85321100917417,93.22211784472165L174.2737003058104,93.22211784472165L174.6941896024464,92.62328730371883L175.9556574923547,93.22211784472165L176.3761467889908,93.22211784472165L176.7966360856268,93.22211784472165L180.16055045871542,95.61733404106417L181.84250764525973,98.01238071597254L182.26299694189584,98.61111590113433L182.68348623853217,98.61111590113433L183.10397553516805,98.61111590113433L183.52446483180415,100.40725790506986L184.36544342507636,100.40725790506986L184.36544342507636,101.00595072436045L185.20642201834858,101.60463295359295L185.62691131498445,101.60463295359295L187.7293577981652,101.60463295359295L188.9908256880733,101.00595072436045L190.25229357798162,101.00595072436045L190.6727828746175,101.00595072436045L190.6727828746175,100.40725790506986L191.51376146788994,100.40725790506986L191.51376146788994,99.80855449513183L191.9342507645258,100.40725790506986L192.35474006116192,100.40725790506986L192.77522935779825,100.40725790506986L195.71865443425077,102.20330459330216L196.13914373088687,102.20330459330216L196.98012232415908,102.20330459330216L197.40061162079496,103.99925598087066L197.82110091743107,106.39370961146778L199.50305810397572,109.38653848994727L200.3440366972477,109.38653848994727L200.3440366972477,109.38653848994727L201.1850152905199,106.39370961146778L202.446483180428,103.99925598087066L202.86697247706434,103.99925598087066L203.28746177370022,103.99925598087066L207.49235474006105,102.80196564403377L210.43577981651356,103.40061610637713L211.69724770642188,103.40061610637713L213.3792048929663,102.20330459330216L213.7996941896024,101.60463295359295L213.7996941896024,101.60463295359295L215.4816513761466,100.40725790506986L215.9021406727827,100.40725790506986L216.3226299694188,100.40725790506986L216.74311926605492,100.40725790506986L217.16360856269102,100.40725790506986L217.16360856269102,100.40725790506986L217.58409785932713,100.40725790506986L218.00458715596324,101.60463295359295L218.42507645259934,102.80196564403377L218.42507645259934,102.20330459330216L218.84556574923545,102.20330459330216L218.42507645259934,101.00595072436045L219.26605504587155,99.20984049401522L219.68654434250743,97.41363493792232L218.84556574923545,93.8209377883868L218.42507645259934,92.62328730371883L218.00458715596324,91.42559442753554L217.58409785932713,90.82673209122731L218.00458715596324,89.62897561940918L217.58409785932713,89.62897561940918L215.4816513761466,89.62897561940918L212.95871559632997,87.83226140531042L212.5382262996941,87.23333546332651L211.69724770642188,86.63439891845337L210.01529051987768,85.43649401778748L206.23088685015273,83.63955713110408L206.23088685015273,83.63955713110408L205.81039755351662,83.04055695713032L204.12844036697243,81.24349279217131L203.70795107033632,81.24349279217131L203.70795107033632,80.64445018763217L203.28746177370022,80.04539697407381L203.70795107033632,79.44633315090323L204.96941896024464,75.8517273791731L205.81039755351662,71.65753772262178L206.65137614678906,68.0621039451471L207.07186544342494,63.86694795134099L207.07186544342494,63.86694795134099L207.07186544342494,63.26759745797244L207.49235474006105,63.26759745797244L208.75382262996936,62.068864594984916L208.33333333333326,59.07184646638052L208.33333333333326,58.472410955440864L208.33333333333326,57.273508043821494L208.33333333333326,55.47507394376589L208.75382262996936,54.87557464611746L208.75382262996936,54.87557464611746L209.17431192660547,54.87557464611746L209.59480122324135,54.87557464611746L210.01529051987768,54.87557464611746L210.01529051987768,54.87557464611746L210.43577981651356,54.276064715417306L210.85626911314966,53.676544151061535L211.27675840978577,53.676544151061535L211.69724770642188,53.077012952519L211.69724770642188,52.47747111923309L211.69724770642188,52.47747111923309L211.69724770642188,51.877918650618085L212.11773700305798,50.07919742730883L212.5382262996941,48.28038046603251L212.5382262996941,48.28038046603251L212.95871559632997,47.68075353454333L212.95871559632997,47.081115963261254L212.5382262996941,45.88180889908108L212.11773700305798,44.68245926900272L212.95871559632997,44.08276849036338L215.9021406727827,42.28363229321258L217.16360856269102,42.28363229321258L218.42507645259934,42.28363229321258L218.84556574923545,42.88335500300673L218.84556574923545,42.88335500300673L220.52752293577964,43.48306706854419L222.62996941895994,44.08276849036338L224.3119266055046,44.08276849036338L225.5733944954129,44.08276849036338L226.4143730886849,44.08276849036338L227.2553516819571,44.08276849036338L227.2553516819571,44.68245926900272L227.2553516819571,44.68245926900272L225.9938837920488,47.68075353454333L225.15290519877658,49.47960241185501L224.73241590214047,50.07919742730883L224.3119266055046,51.877918650618085L224.3119266055046,53.676544151061535L223.89143730886826,56.074562608879205L223.89143730886826,56.674040642054024L223.89143730886826,57.273508043821494L224.73241590214047,57.273508043821494L226.4143730886849,56.074562608879205L227.67584097859321,54.276064715417306L228.0963302752291,53.676544151061535L228.51681957186543,53.676544151061535L228.93730886850153,53.676544151061535L230.61926605504573,53.676544151061535L232.30122324159015,54.276064715417306L233.98318042813457,53.676544151061535L234.40366972477045,53.676544151061535L234.82415902140656,53.077012952519L234.82415902140656,51.877918650618085L235.66513761467877,51.877918650618085L236.50611620795098,52.47747111923309L236.50611620795098,52.47747111923309L236.50611620795098,52.47747111923309L236.50611620795098,52.47747111923309L236.50611620795098,52.47747111923309L237.7675840978593,53.676544151061535L238.6085626911315,54.87557464611746L240.2905198776757,57.273508043821494L241.97247706422013,59.07184646638052L243.23394495412845,60.270685601382866L244.49541284403654,61.469482224216335L244.49541284403654,61.469482224216335L245.33639143730875,61.469482224216335L245.33639143730875,61.469482224216335L245.75688073394485,61.469482224216335L247.43883792048928,61.469482224216335L249.96177370030568,61.469482224216335L251.6437308868501,60.87008922652967L253.3256880733943,59.67127134817929L255.42813455657506,57.273508043821494L256.6896024464829,55.47507394376589L257.11009174311926,55.47507394376589L257.95107033639124,53.077012952519L258.37155963302735,50.67878180522166L259.63302752293566,51.27835554614285L260.4740061162079,52.47747111923309L260.894495412844,56.674040642054024L260.894495412844,57.87296481477097L260.894495412844,61.469482224216335L260.894495412844,64.46628782003609L260.894495412844,65.06561706458524L260.894495412844,65.06561706458524L261.73547400611596,65.06561706458524L263.8379204892965,64.46628782003609L265.5198776758409,63.86694795134099L265.940366972477,63.86694795134099L266.3608562691131,63.86694795134099L267.2018348623851,63.86694795134099L270.98623853211006,65.06561706458524L272.24770642201815,65.66493568558872L272.24770642201815,65.66493568558872L273.08868501529037,66.86354105913051L273.08868501529037,66.86354105913051L273.5091743119265,68.0621039451471L274.7706422018348,69.85986861978745L274.7706422018348,69.85986861978745L275.1911314984709,70.45910227241257L275.1911314984709,70.45910227241257L276.4525993883792,71.05832530649786L277.2935779816512,71.05832530649786L277.2935779816512,71.05832530649786L278.9755351681956,70.45910227241257L281.07798165137615,68.66136945670951L282.7599388379206,68.0621039451471L284.44189602446477,69.26062434807682L287.3853211009173,68.66136945670951L287.3853211009173,68.66136945670951L287.3853211009173,68.66136945670951L287.8058103975534,68.66136945670951L287.8058103975534,68.66136945670951L288.2262996941895,69.85986861978745L288.6467889908256,70.45910227241257L289.0672782874615,71.05832530649786L288.6467889908256,73.45511126874408L288.2262996941895,74.05428121856676L286.1238532110092,76.45085487162942L284.8623853211009,77.6490780182612L284.44189602446477,77.6490780182612L284.44189602446477,79.44633315090323L284.44189602446477,82.44154617636377L284.44189602446477,84.8375256608706L284.8623853211009,86.03545177013439L285.28287461773675,86.63439891845337L286.54434250764507,87.23333546332651L288.6467889908256,90.22785915538043L291.5902140672781,92.62328730371883L292.4311926605503,93.22211784472165L293.27217125382253,95.01854588601418L293.27217125382253,96.2161116010393L295.37461773700306,98.61111590113433L296.6360856269114,100.40725790506986L298.3180428134556,101.60463295359295L298.7385321100917,102.20330459330216L299.1590214067278,102.20330459330216L299.5795107033639,102.20330459330216L299.5795107033639,102.20330459330216L300.4204892966359,101.60463295359295L302.1024464831803,100.40725790506986L302.9434250764525,99.20984049401522L303.7844036697247,98.01238071597254L304.2048929663606,97.41363493792232L306.30733944954136,96.81487856646345L308.83027522935777,96.2161116010393L310.0917431192661,95.61733404106417L310.51223241590196,95.61733404106417L313.8761467889906,96.2161116010393L313.8761467889906,96.81487856646345L313.8761467889906,97.41363493792232L314.7171253822628,98.01238071597254L315.1376146788989,98.01238071597254L318.50152905198775,99.80855449513183L318.9220183486236,99.80855449513183L319.76299694189584,99.80855449513183L320.60397553516805,99.80855449513183L321.86544342507636,99.20984049401522L323.9678899082569,99.20984049401522L324.3883792048928,99.20984049401522L325.2293577981652,99.20984049401522L326.9113149847094,99.80855449513183L328.59327217125383,100.40725790506986L328.59327217125383,100.40725790506986L329.0137614678897,98.61111590113433L330.69571865443413,96.81487856646345L332.79816513761443,95.61733404106417L334.48012232415886,95.61733404106417L337.4235474006116,93.8209377883868L338.6850152905199,92.02444616485081L338.6850152905199,92.02444616485081L339.9464831804278,90.82673209122731L340.7874617737002,90.22785915538043L343.3103975535166,91.42559442753554L344.15137614678906,92.02444616485081L344.99235474006105,94.41974713529999L345.4128440366974,96.2161116010393L347.0948012232416,96.81487856646345L347.93577981651356,97.41363493792232L349.1972477064219,97.41363493792232L349.1972477064219,96.81487856646345L350.0382262996941,96.81487856646345L350.4587155963302,96.2161116010393L350.8792048929663,96.2161116010393L351.7201834862383,95.61733404106417L352.1406727828744,95.61733404106417L352.9816513761466,95.61733404106417L356.7660550458713,96.2161116010393L356.7660550458713,96.2161116010393L357.18654434250766,96.2161116010393L358.86850152905185,98.61111590113433L359.28899082568796,99.80855449513183L359.28899082568796,101.00595072436045L360.12996941895994,102.80196564403377L362.2324159021407,104.59788526806005L363.4938837920488,105.79511208281474L366.0168195718654,106.39370961146778L366.0168195718654,105.79511208281474L366.0168195718654,103.99925598087066L366.4373088685013,103.40061610637713L367.2782874617733,102.20330459330216L369.8012232415899,101.00595072436045L371.06269113149824,101.60463295359295L372.7446483180429,102.80196564403377L372.7446483180429,103.40061610637713L374.00611620795075,103.99925598087066L374.00611620795075,103.99925598087066L374.00611620795075,103.99925598087066L374.8470948012232,104.59788526806005L375.6880733944952,105.1965039685274L376.9495412844035,105.79511208281474L378.2110091743118,109.38653848994727L379.89296636085624,109.98507251657793L382.83639143730875,111.78061110833005L382.83639143730875,111.78061110833005L383.25688073394485,111.78061110833005L384.9388379204893,111.18210882520725L386.6207951070335,110.58359596147056L386.6207951070335,111.18210882520725L386.20030581039737,111.78061110833005L385.77981651376126,112.3791028113883L385.35932721712516,113.5760544795703L385.35932721712516,114.17451444581093L385.77981651376126,115.96983087975968L387.0412844036696,119.56017820627676L387.46177370030546,121.35520912888751L387.46177370030546,122.5518435539052L387.46177370030546,123.15014491107286L387.46177370030546,123.74843569875156L388.3027522935779,127.33795849657326L388.7232415902138,127.93617531337077L389.5642201834862,130.32893693561346L390.8256880733943,134.51586312714426L391.6666666666665,135.7120327145276L392.5076452599387,136.90816007057947L394.61009174311926,138.70227193064784L396.29204892966345,141.69224727039546L397.13302752293544,142.88816353643415L397.13302752293544,144.0840375977823L397.13302752293544,144.6819588030703L397.55351681957177,145.8777695657118L397.9740061162079,145.8777695657118L399.65596330275207,145.8777695657118L400.9174311926604,145.8777695657118L403.440366972477,146.47565912414575L405.5428134556573,147.07353813473674L406.80428134556564,147.671406598045L408.48623853211006,148.86711188498157L409.7477064220184,150.0627749893938L413.111620795107,151.85619056350333L413.5321100917431,151.85619056350333L416.8960244648317,154.24726373152953L418.5779816513759,156.63816824927562L418.99847094801225,157.23586803124272L419.83944954128424,157.23586803124272L423.20336391437286,157.23586803124272L424.04434250764507,157.83355727534945L424.8853211009173,158.43123598212696L425.7262996941895,159.02890415214642L426.5672782874615,159.02890415214642L427.8287461773698,158.43123598212696L428.2492354740059,157.83355727534945L428.2492354740059,157.23586803124272L427.8287461773698,154.84500567055147L429.0902140672781,153.64951125188236L430.35168195718643,153.05174823102425L432.45412844036673,152.4539746684095L433.29510703363894,152.4539746684095L434.13608562691115,152.4539746684095L434.13608562691115,152.4539746684095L434.55657492354726,152.4539746684095L434.55657492354726,151.85619056350333L434.55657492354726,151.85619056350333L435.39755351681947,151.85619056350333L435.8180428134556,151.85619056350333L435.8180428134556,151.85619056350333L436.23853211009146,151.85619056350333L436.23853211009146,152.4539746684095L436.23853211009146,151.85619056350333L437.4999999999998,151.85619056350333L437.9204892966359,151.25839591573094L440.4434250764525,149.46494870973402L442.5458715596328,147.671406598045L442.9663608562689,147.671406598045L443.80733944954113,147.07353813473674L443.80733944954113,147.07353813473674L442.9663608562689,145.8777695657118L442.5458715596328,145.27986945886732L442.9663608562689,144.6819588030703L443.3868501529048,144.0840375977823L444.6483180428131,143.4861058424067L445.06880733944945,143.4861058424067L445.06880733944945,143.4861058424067L446.33027522935777,142.88816353643415L446.33027522935777,142.29021067926806L446.75076452599365,142.29021067926806L446.75076452599365,142.29021067926806L446.33027522935777,139.30028810648582L445.90978593272143,136.90816007057947L445.06880733944945,135.11395320002703L445.48929663608556,133.31965130402023L446.33027522935777,132.12339724069534L448.43272171253807,129.73076237568966L448.43272171253807,129.1325772523669L448.8532110091742,129.1325772523669L449.2737003058103,128.53438156510674L449.6941896024464,128.53438156510674L450.9556574923547,129.1325772523669L452.217125382263,129.1325772523669L452.6376146788989,129.73076237568966L453.058103975535,129.73076237568966L453.058103975535,129.73076237568966L453.4785932721711,129.73076237568966L453.8990825688072,129.1325772523669L455.1605504587153,128.53438156510674L456.00152905198775,127.93617531337077L456.84250764525973,126.73973111417581L456.84250764525973,126.73973111417581L456.84250764525973,126.14149316563635L456.84250764525973,126.14149316563635L456.4220183486236,125.54324465036552L456.4220183486236,125.54324465036552L456.4220183486236,124.9449855678431L456.84250764525973,123.15014491107286L457.26299694189606,122.5518435539052L459.36544342507636,120.15853241923469L459.36544342507636,120.15853241923469L459.78593272171224,120.15853241923469L461.46788990825667,119.56017820627676L461.8883792048928,119.56017820627676L461.8883792048928,119.56017820627676L462.3088685015289,118.96181342050477L462.729357798165,118.96181342050477L462.729357798165,118.96181342050477L464.8318042813453,120.7568760599097L465.6727828746177,121.35520912888751L465.2522935779814,124.9449855678431L466.9342507645258,128.53438156510674L466.9342507645258,133.31965130402023L466.5137614678897,135.11395320002703L466.5137614678897,135.11395320002703L466.0932721712536,135.11395320002703L465.6727828746177,135.11395320002703L464.8318042813453,135.11395320002703L463.9908256880733,134.51586312714426L461.46788990825667,134.51586312714426L458.94495412844026,135.11395320002703L458.10397553516805,135.11395320002703L457.26299694189606,136.31010167118438L457.26299694189606,136.90816007057947L456.84250764525973,137.50620791323672L456.84250764525973,137.50620791323672L459.78593272171224,140.4962887952097L460.6269113149847,141.09427330921972L461.04740061162056,141.69224727039546L463.9908256880733,142.88816353643415L465.6727828746177,142.88816353643415L466.0932721712536,143.4861058424067L466.9342507645258,144.6819588030703L466.9342507645258,145.27986945886732L466.9342507645258,145.8777695657118L464.8318042813453,148.86711188498157L464.8318042813453,149.46494870973402L463.9908256880733,150.0627749893938L462.3088685015289,151.25839591573094L461.8883792048928,151.25839591573094L460.6269113149847,150.66059072453572L460.6269113149847,150.66059072453572L460.20642201834835,150.66059072453572L459.78593272171224,151.25839591573094L456.4220183486236,151.25839591573094L455.1605504587153,153.05174823102425L455.1605504587153,153.05174823102425L455.1605504587153,153.05174823102425L455.1605504587153,154.24726373152953L454.3195718654433,155.44273706948297L453.4785932721711,157.23586803124272L453.4785932721711,157.23586803124272L453.4785932721711,157.23586803124272L453.8990825688072,157.83355727534945L454.7400611620794,157.83355727534945L455.58103975535164,157.83355727534945L456.00152905198775,157.83355727534945L456.4220183486236,157.83355727534945L458.5244648318039,156.63816824927562L460.20642201834835,156.04045792886245L461.04740061162056,156.04045792886245L461.8883792048928,156.04045792886245L463.1498470948011,156.63816824927562L464.4113149847094,157.83355727534945L464.4113149847094,159.02890415214642L464.4113149847094,159.62656178595353L464.4113149847094,159.62656178595353L466.9342507645258,160.82184544712436L468.61620795107024,160.82184544712436L468.61620795107024,160.82184544712436L470.71865443425077,159.62656178595353L473.6620795107033,159.02890415214642L474.50305810397526,159.62656178595353L474.9235474006116,159.02890415214642L475.7645259938836,158.43123598212696L477.4464831804278,157.83355727534945L478.2874617737002,157.83355727534945L479.1284403669722,158.43123598212696L479.54892966360853,158.43123598212696L480.8103975535166,158.43123598212696L481.23088685015273,157.83355727534945L482.07186544342494,157.23586803124272L482.07186544342494,157.23586803124272L483.33333333333326,155.44273706948297L483.75382262996914,154.84500567055147L484.17431192660524,154.24726373152953L484.5948012232416,154.24726373152953L485.01529051987745,154.24726373152953L485.01529051987745,154.24726373152953L485.85626911314966,154.24726373152953L486.27675840978577,154.24726373152953L486.27675840978577,154.24726373152953L486.6972477064219,154.24726373152953L486.6972477064219,154.84500567055147L486.27675840978577,154.84500567055147L486.27675840978577,156.63816824927562L486.6972477064219,158.43123598212696L486.6972477064219,158.43123598212696L486.6972477064219,158.43123598212696L487.9587155963302,159.62656178595353L488.7996941896024,159.02890415214642L489.2201834862383,159.62656178595353L489.2201834862383,159.62656178595353L489.2201834862383,159.62656178595353L489.6406727828744,161.41947147560495L489.6406727828744,162.61469193111407L489.6406727828744,166.20010052590806L488.7996941896024,167.99266266658742L487.9587155963302,169.18765145321595L487.9587155963302,169.78513005603963L488.3792048929661,169.78513005603963L488.3792048929661,169.78513005603963L489.2201834862383,169.18765145321595L490.0611620795105,168.59016232358408L491.3226299694188,167.99266266658742L492.5840978593269,167.99266266658742L493.00458715596324,167.99266266658742L495.10703363914354,166.20010052590806L496.36850152905185,165.00500645183638L495.94801223241575,163.80987025505237L496.36850152905185,163.80987025505237L496.78899082568796,163.2122863592449L497.20948012232407,163.2122863592449L500.5733944954127,163.2122863592449L504.7782874617735,162.01708697008144L506.46024464831794,162.01708697008144L507.72171253822603,162.61469193111407L508.56269113149824,162.61469193111407L509.82415902140656,165.00500645183638L511.9266055045871,166.79763176830966L513.1880733944954,167.99266266658742L514.0290519877674,167.99266266658742L514.4495412844033,167.99266266658742L514.4495412844033,170.98005568346707L514.4495412844033,172.17493921029018L514.0290519877674,172.77236518737118L513.6085626911313,173.96718557158601L513.6085626911313,175.16196386627053L513.6085626911313,176.35670007579756L514.0290519877674,178.148725490184L513.6085626911313,179.94065623789356L513.1880733944954,181.13522415113766L512.347094801223,183.52423379296306L512.347094801223,184.12145991815487L511.9266055045871,184.12145991815487L511.9266055045871,184.71867553036645L513.6085626911313,186.51025929453317L514.0290519877674,186.51025929453317L515.2905198776757,187.107432860259L516.551987767584,186.51025929453317L517.3929663608562,188.30174846157752L517.8134556574921,189.49602202638198L517.8134556574921,190.0931430464443L517.3929663608562,191.8844430640056L517.3929663608562,193.07859054569053L517.8134556574921,196.06377542691553L517.8134556574921,198.45173429327406L517.8134556574921,199.048697759099L518.6544342507646,200.24259319364137L519.4954128440365,200.83952516349382L521.1773700305807,201.43644663579835L522.438837920489,201.43644663579835L522.8593272171252,201.43644663579835L522.8593272171252,201.43644663579835L523.2798165137613,200.83952516349382L523.7003058103974,200.83952516349382L523.7003058103974,200.83952516349382L524.9617737003055,200.83952516349382L525.8027522935779,201.43644663579835L525.8027522935779,202.03335761108247L526.2232415902138,203.82402756046577L527.9051987767582,203.82402756046577L528.7461773700304,203.2271480728814L529.5871559633026,202.63025808993189L530.0076452599385,203.2271480728814L530.0076452599385,203.2271480728814L531.2691131498468,203.2271480728814L532.1100917431193,203.82402756046577L532.1100917431193,204.42089655326708L532.1100917431193,204.42089655326708L532.1100917431193,205.0177550518165L533.3715596330271,205.0177550518165L533.3715596330271,205.0177550518165L533.3715596330271,205.6146030566597L533.3715596330271,206.8082675874757L533.3715596330271,208.0018901501062L532.9510703363912,209.7922453133724L532.5305810397551,211.5825060730167L532.9510703363912,213.3726724438966L532.9510703363912,215.1627444408805L532.9510703363912,216.3560733495833L532.9510703363912,216.95272207881862L532.5305810397551,218.14598808973824L531.6896024464829,218.7426053725685L531.6896024464829,218.7426053725685L531.6896024464829,218.7426053725685L531.2691131498468,218.7426053725685L530.4281345565748,219.33921217433453L529.1666666666665,219.93580849561113L528.7461773700304,220.53239433696217L528.7461773700304,221.12896969893336L528.7461773700304,221.72553458204857L528.7461773700304,221.72553458204857L528.7461773700304,221.72553458204857L529.5871559633026,222.91863291399568L529.5871559633026,224.11168933716908L529.5871559633026,224.70820183433898L529.5871559633026,224.70820183433898L529.5871559633026,225.30470385599256L529.1666666666665,225.90119540265005L528.7461773700304,226.4976764748535L528.7461773700304,227.09414707317774L528.7461773700304,227.69060719815388L528.7461773700304,228.28705685034583L530.0076452599385,232.46191122365417L531.6896024464829,235.44363599883582L532.1100917431193,237.23254527173412L531.6896024464829,238.42509913272806L531.6896024464829,238.42509913272806L532.1100917431193,238.42509913272806L534.6330275229354,239.02136036859156L536.735474006116,239.02136036859156L537.5764525993882,239.6176111420864L537.5764525993882,240.21385145378372L535.4740061162079,242.59870809345375L535.0535168195718,243.19489610431629L535.0535168195718,244.98339738804498L535.8944954128438,248.5601176347518L537.5764525993882,251.540430361787L538.8379204892965,253.9244924250088L539.6788990825685,256.3083873098112L540.0993883792046,258.0961987837036L540.0993883792046,258.6921150513117L540.5198776758409,258.0961987837036L540.9403669724768,258.0961987837036L542.6223241590212,256.90433491350996L543.8837920489295,256.3083873098112L545.5657492354737,256.3083873098112L548.0886850152904,258.0961987837036L549.7706422018346,259.28802087463555L550.1911314984707,259.8839162542572L550.611620795107,259.8839162542572L551.0321100917429,259.8839162542572L551.0321100917429,259.8839162542572L551.452599388379,259.8839162542572L554.8165137614676,261.0756756845112L557.3394495412842,262.86323651569546L558.6009174311923,264.0548915333966L560.2828746177368,264.0548915333966L561.964831804281,263.4590692444799L564.4877675840976,263.4590692444799L565.7492354740059,264.0548915333966L566.5902140672781,264.65070338296937L566.5902140672781,265.8422957662697L566.169724770642,267.03384639877913L566.5902140672781,268.22535528486696L566.5902140672781,268.22535528486696L566.5902140672781,268.22535528486696L567.4311926605503,268.22535528486696L568.6926605504584,268.22535528486696L569.5336391437306,268.22535528486696L570.3746177370028,267.6296060598579L570.7951070336389,267.6296060598579L571.215596330275,268.22535528486696L569.5336391437306,270.01254034906015L568.2721712538225,270.01254034906015L565.3287461773698,270.01254034906015L565.3287461773698,270.01254034906015L563.2262996941893,270.6082478353237L561.5443425076451,271.2039448882606L559.4418960244648,271.7996315084274L558.1804281345565,272.3953076963735L556.9189602446481,272.9909734526191L557.3394495412842,273.5866287777462L557.3394495412842,273.5866287777462L556.9189602446481,273.5866287777462L556.0779816513759,273.5866287777462L554.8165137614676,272.9909734526191L554.3960244648317,272.3953076963735L554.3960244648317,272.3953076963735L553.9755351681956,271.7996315084274L553.9755351681956,271.7996315084274L553.1345565749234,271.2039448882606L552.2935779816512,271.2039448882606L551.452599388379,271.2039448882606L550.1911314984707,270.6082478353237L549.3501529051987,270.6082478353237L547.2477064220184,270.01254034906015L547.2477064220184,270.01254034906015L546.827217125382,268.82109407438475L546.827217125382,267.6296060598579L546.827217125382,266.4380763011068L545.9862385321101,266.4380763011068L545.5657492354737,266.4380763011068L545.5657492354737,266.4380763011068L545.5657492354737,266.4380763011068L541.781345565749,268.22535528486696L538.8379204892965,268.82109407438475L538.4174311926602,269.4168224289351L538.8379204892965,271.2039448882606L539.6788990825685,271.7996315084274L539.6788990825685,272.3953076963735L539.6788990825685,272.3953076963735L539.6788990825685,272.3953076963735L539.2584097859326,272.9909734526191L539.2584097859326,274.1822736722752L539.6788990825685,275.96914577782445L540.5198776758409,277.160341705272L541.3608562691129,277.755924027766L541.781345565749,276.5647489554867L543.0428134556571,275.96914577782445L543.8837920489295,275.96914577782445L543.8837920489295,275.96914577782445L545.5657492354737,277.160341705272L547.2477064220184,278.35149592350353L548.0886850152904,278.94705739300844L548.9296636085626,278.94705739300844L550.1911314984707,278.94705739300844L551.0321100917429,279.5426084368628L550.611620795107,281.92470836648135L550.611620795107,281.92470836648135L550.1911314984707,281.92470836648135L550.1911314984707,281.92470836648135L550.1911314984707,282.5202072901884L550.1911314984707,282.5202072901884L549.7706422018346,285.497545583763L548.9296636085626,289.66538158434923L547.2477064220184,292.6420948129962L546.4067278287459,293.23740621722027L545.1452599388376,293.83270720886503L544.7247706422017,296.21380706076525L545.1452599388376,299.7851445544111L546.4067278287459,300.9755071272921L547.2477064220184,301.57067280525735L547.2477064220184,302.165828078294L547.2477064220184,302.7609729469332L546.827217125382,303.95123147327104L546.827217125382,303.95123147327104L546.4067278287459,303.95123147327104L545.5657492354737,304.5463451320247L545.5657492354737,305.1414483885783L544.3042813455654,306.92669575048785L544.3042813455654,306.92669575048785L543.8837920489295,307.5217574036942L544.3042813455654,308.71184951218675L545.1452599388376,311.0919089528652L547.2477064220184,313.4718020541404L548.5091743119262,315.8515288508861L548.5091743119262,316.44643456906124L548.5091743119262,316.44643456906124L549.7706422018346,317.63621483203315L550.611620795107,317.04132989593927L553.1345565749234,315.25661274083905L554.3960244648317,314.06674934301554L555.65749235474,312.2818762937459L556.0779816513759,312.2818762937459L556.0779816513759,312.2818762937459L556.498470948012,311.6868978211278L556.9189602446481,311.6868978211278L557.3394495412842,311.6868978211278L558.1804281345565,312.8768443712215L558.1804281345565,312.8768443712215L558.6009174311923,313.4718020541404L560.7033639143731,315.25661274083905L555.65749235474,324.1792634940939L557.7599388379203,325.3687736890424L557.7599388379203,325.3687736890424L558.1804281345565,325.3687736890424L558.6009174311923,325.3687736890424L560.2828746177368,324.1792634940939L562.8058103975534,322.3949203185075L564.4877675840976,321.800118488969L564.9082568807339,321.800118488969L566.169724770642,322.3949203185075L566.169724770642,322.3949203185075L566.5902140672781,322.98971176218765L566.5902140672781,324.7740237834114L566.169724770642,328.34236748076L567.0107033639142,328.93705509563733L569.9541284403667,328.93705509563733L571.215596330275,328.93705509563733L572.0565749235473,328.34236748076L572.8975535168192,327.7476694854704L574.1590214067276,327.15296110918644L574.1590214067276,327.15296110918644L574.5795107033639,327.15296110918644L574.5795107033639,327.15296110918644L574.9999999999998,328.34236748076L574.9999999999998,328.93705509563733L574.9999999999998,328.93705509563733L574.5795107033639,329.531732330619L573.7385321100915,333.0995777931821L573.7385321100915,333.0995777931821L573.7385321100915,333.69418238414437L572.4770642201834,335.4779339059205L570.7951070336389,336.66704971661966L569.9541284403667,336.0724969979492L568.2721712538225,336.66704971661966L567.4311926605503,336.66704971661966L564.9082568807339,337.26159206244847L564.9082568807339,337.26159206244847L564.4877675840976,337.85612403600317L564.0672782874617,338.4506456378076L564.4877675840976,340.8286283384914L564.9082568807339,342.01755747248535L565.3287461773698,344.98969887799467L565.3287461773698,345.5840960612404L567.4311926605503,346.17848287978995L569.1131498470947,346.77285933420717L570.7951070336389,347.36722542502685L569.5336391437306,350.9332043646282L568.6926605504584,353.31031645437906L568.2721712538225,355.687262821928L568.2721712538225,356.87567387071977L567.8516819571864,356.87567387071977L567.4311926605503,356.87567387071977L563.2262996941893,356.28147352378073L561.123853211009,356.28147352378073L560.7033639143731,356.28147352378073L558.1804281345565,358.0640435019777L556.9189602446481,359.25237172004563L556.0779816513759,359.84652030047073L552.7140672782873,362.817107938321L551.8730886850151,364.5993363290836L551.452599388379,365.7874368519697L550.611620795107,366.9754959898164L550.1911314984707,366.9754959898164L549.7706422018346,366.9754959898164L549.7706422018346,366.9754959898164L549.3501529051987,366.9754959898164L548.9296636085626,366.38147159375876L548.9296636085626,366.38147159375876L548.5091743119262,365.7874368519697L548.5091743119262,365.19339176393623L548.0886850152904,365.19339176393623L547.6681957186543,365.19339176393623L545.9862385321101,365.7874368519697L544.7247706422017,366.9754959898164L543.4633027522934,369.3514901277158L541.781345565749,371.1333771276113L540.0993883792046,372.91517105499224L539.2584097859326,374.102981973494L539.2584097859326,374.102981973494L538.8379204892965,374.102981973494L537.9969418960243,374.102981973494L537.1559633027521,374.102981973494L534.6330275229354,373.50908168385286L533.7920489296635,373.50908168385286L533.3715596330271,373.50908168385286L532.1100917431193,372.91517105499224L529.1666666666665,370.53942513641596L529.1666666666665,369.3514901277158L529.1666666666665,368.7575071091087L529.1666666666665,368.16351374695296L529.1666666666665,368.16351374695296L529.5871559633026,367.56951004071016L530.8486238532109,366.38147159375876L531.6896024464829,364.5993363290836L531.2691131498468,364.0052705468879L531.2691131498468,364.0052705468879L527.9051987767582,364.5993363290836L527.0642201834862,364.5993363290836L526.6437308868499,364.5993363290836L526.6437308868499,364.5993363290836L526.6437308868499,365.19339176393623L526.2232415902138,365.19339176393623L524.1207951070335,365.7874368519697L523.7003058103974,366.38147159375876L523.7003058103974,366.38147159375876L523.2798165137613,368.16351374695296L522.438837920489,369.3514901277158L521.1773700305807,369.3514901277158L521.5978593272171,371.1333771276113L522.438837920489,374.6968719244578L523.2798165137613,377.6661666179134L523.7003058103974,378.8538121434394L524.1207951070335,380.0414163315181L523.2798165137613,380.0414163315181L521.5978593272171,380.0414163315181L519.9159021406729,380.6352029253612L518.2339449541282,381.8227451153907L517.8134556574921,382.4165007126576L516.551987767584,383.0102459788068L515.2905198776757,383.0102459788068L514.4495412844033,383.60398091436946L514.4495412844033,383.60398091436946L515.2905198776757,385.97881736170166L515.2905198776757,386.5725006524881L515.2905198776757,387.16617361595127L514.4495412844033,390.13438354213577L514.4495412844033,390.7279945529226L514.4495412844033,391.3215952401697L514.8700305810396,391.9151856043827L516.551987767584,394.28944384195347L516.551987767584,396.07002915492194L515.2905198776757,397.8505215996083L514.8700305810396,397.8505215996083L514.0290519877674,399.6309211906082L513.6085626911313,400.2243670893113L514.0290519877674,400.2243670893113L513.6085626911313,400.2243670893113L512.7675840978591,400.81780267309296L511.506116207951,402.0046428980313L510.24464831804266,403.7848258870363L509.40366972477045,404.37819959260014L507.72171253822603,404.97156298703703L506.88073394495405,404.97156298703703L504.7782874617735,404.97156298703703L503.9373088685013,404.37819959260014L502.675840978593,404.37819959260014L500.5733944954127,406.1582588446181L500.1529051987766,406.7515913088537L499.7324159021407,407.3449134640832L500.1529051987766,408.53152684976885L500.1529051987766,410.311369624309L499.31192660550437,412.09111964706244L498.4709480122324,412.09111964706244L498.0504587155963,412.09111964706244L498.0504587155963,412.6843490456522L497.62996941895994,412.6843490456522L495.94801223241575,411.4978799443343L495.10703363914354,410.311369624309L495.10703363914354,410.311369624309L495.10703363914354,410.311369624309L494.68654434250743,409.12481808126176L493.4250764525991,407.3449134640832L492.1636085626908,406.1582588446181L490.9021406727825,404.97156298703703L488.7996941896024,404.97156298703703L487.9587155963302,403.7848258870363L487.9587155963302,402.0046428980313L486.6972477064219,399.0374649764635L485.01529051987745,397.2570344358501L483.33333333333326,394.882982599207L481.23088685015273,391.9151856043827L479.54892966360853,388.9471305477273L479.54892966360853,388.35348856302517L478.7079510703361,387.7598362526078L478.7079510703361,387.7598362526078L477.4464831804278,387.7598362526078L477.0259938837919,387.7598362526078L476.6055045871558,387.7598362526078L475.3440366972475,387.7598362526078L473.6620795107033,387.16617361595127L472.82110091743107,387.16617361595127L472.82110091743107,387.7598362526078L471.55963302752275,390.13438354213577L470.71865443425077,393.69589476437613L468.61620795107024,394.882982599207L466.0932721712536,396.07002915492194L463.1498470948011,397.2570344358501L462.729357798165,397.2570344358501L462.729357798165,397.2570344358501L462.3088685015289,397.2570344358501L462.3088685015289,397.8505215996083L462.3088685015289,397.8505215996083L462.3088685015289,397.8505215996083L462.3088685015289,398.44399844630243L462.3088685015289,398.44399844630243L463.1498470948011,399.6309211906082L463.9908256880733,401.4112279424771L463.9908256880733,401.4112279424771L463.9908256880733,402.5980475402903L463.9908256880733,403.191441869767L463.57033639143697,403.191441869767L463.1498470948011,403.7848258870363L462.729357798165,404.37819959260014L462.3088685015289,404.37819959260014L462.3088685015289,404.97156298703703L461.8883792048928,406.7515913088537L462.3088685015289,407.3449134640832L463.1498470948011,407.9382253108852L463.57033639143697,408.53152684976885L463.9908256880733,408.53152684976885L463.57033639143697,409.71809900594235L463.1498470948011,409.71809900594235L462.729357798165,409.71809900594235L462.729357798165,409.71809900594235L462.3088685015289,410.311369624309L460.20642201834835,413.87077693255196L459.36544342507636,414.463975421957L458.94495412844026,415.0571636093591L458.10397553516805,416.2435090803847L458.10397553516805,416.2435090803847L458.5244648318039,416.83666636506314L460.20642201834835,420.39539379554844L461.04740061162056,422.7676728099723L461.04740061162056,422.7676728099723L461.04740061162056,422.7676728099723L461.04740061162056,422.7676728099723L460.20642201834835,423.3607168261042L460.6269113149847,424.54677397719934L460.6269113149847,427.5117367396888L460.6269113149847,428.69764980989567L460.6269113149847,429.2905909111287L460.6269113149847,429.2905909111287L460.20642201834835,429.2905909111287L458.94495412844026,428.69764980989567L458.5244648318039,428.69764980989567L458.5244648318039,428.69764980989567L458.5244648318039,428.69764980989567L458.5244648318039,429.2905909111287L458.10397553516805,429.2905909111287L457.68348623853194,429.2905909111287L457.68348623853194,429.2905909111287L453.8990825688072,428.69764980989567L453.4785932721711,428.69764980989567L452.6376146788989,428.10469841959275L451.3761467889906,427.5117367396888L450.5351681957186,426.91876476962716L449.2737003058103,426.91876476962716L448.8532110091742,428.69764980989567L450.11467889908226,432.2551421000244L450.5351681957186,433.4408905708988L451.3761467889906,434.03374937890476L451.3761467889906,434.03374937890476L451.3761467889906,434.62659790269026L450.5351681957186,435.21943614276825L449.6941896024464,435.21943614276825L449.2737003058103,435.21943614276825L448.8532110091742,435.21943614276825L448.43272171253807,435.21943614276825L448.01223241590196,435.21943614276825L447.17125382262975,435.81226409969895L446.33027522935777,436.4050817740135L445.48929663608556,436.99788916622856L445.06880733944945,437.5906862769116L445.06880733944945,438.18347310658646L444.6483180428131,438.7762496557698L444.22782874617724,441.14725305857064L442.5458715596328,443.51809201679134L441.7048929663606,444.7034498399189L440.0229357798164,445.88876656479624L439.1819571865442,446.4814095167094L439.1819571865442,446.4814095167094L438.7614678899081,447.6666646022277L438.340978593272,448.8518786002205L438.340978593272,449.44447019273866L438.340978593272,450.0370515149916L438.340978593272,450.0370515149916L438.340978593272,450.62962256749233L439.1819571865442,453.5923238027681L439.6024464831803,455.96229999046045L439.6024464831803,458.9245392806988L439.6024464831803,458.9245392806988L440.0229357798164,459.51695635153374L440.0229357798164,460.1093631611948L440.4434250764525,460.1093631611948L440.0229357798164,460.70175971023855L440.0229357798164,461.2941459992071L440.0229357798164,461.88652202862795L438.7614678899081,462.4788877990213L437.9204892966359,463.66358856494116L437.4999999999998,466.6251609844621L439.1819571865442,468.99423433178526L438.7614678899081,470.77093168824285L437.9204892966359,471.955345336748L437.4999999999998,471.955345336748L437.0795107033639,471.955345336748L436.65902140672756,473.13971798562125L436.65902140672756,473.13971798562125L436.65902140672756,473.13971798562125L435.8180428134556,473.13971798562125L435.39755351681947,473.13971798562125L434.97706422018314,473.73188893653423L434.55657492354726,473.73188893653423L434.13608562691115,474.9162000939723L433.71559633027505,475.50834030157785L432.87461773700284,478.46888764978576L431.6131498470945,481.4291788974115L432.03363914373085,483.79722754797695L432.03363914373085,486.7570579829153L432.03363914373085,486.7570579829153L431.6131498470945,487.9409184973665L431.6131498470945,488.53283340112466L431.1926605504584,488.53283340112466L430.77217125382253,489.71663250435086L431.1926605504584,490.308516704903L432.03363914373085,490.9003906721009L432.45412844036673,490.9003906721009L433.29510703363894,490.9003906721009L434.13608562691115,492.0841079086531L434.97706422018314,495.6350140738323L435.39755351681947,498.0020802729159L435.39755351681947,499.18555201197887L434.97706422018314,499.18555201197887L434.13608562691115,499.18555201197887L431.6131498470945,498.0020802729159L429.5107033639142,498.59382125538104L426.1467889908256,499.77727254324054L425.7262996941895,499.77727254324054L425.7262996941895,499.77727254324054L425.3058103975534,500.3689828497263L424.4648318042812,502.14405242574503L424.4648318042812,506.2855236682917L423.20336391437286,508.0602866205554L422.3623853211009,510.42649418353903L420.68042813455645,513.3840237994009L419.83944954128424,516.9327223308792L419.41896024464813,519.889690345597L418.99847094801225,521.6637486701256L418.5779816513759,523.4377151490189L417.73700305810394,524.0290169009968L417.3165137614676,525.8028609413923L416.0550458715593,526.9853726273614L414.7935779816512,529.3502736001828L413.111620795107,532.3061703617459L412.2706422018348,534.0795860684775L411.4296636085626,536.4439976320245L411.4296636085626,536.4439976320245L411.4296636085626,537.0350750421385L411.8501529051987,537.626142261026L412.69113149847067,537.626142261026L411.4296636085626,540.5813255054018L411.0091743119265,540.5813255054018L411.4296636085626,540.5813255054018L411.0091743119265,540.5813255054018L408.48623853211006,540.5813255054018L408.06574923547396,540.5813255054018L407.6452599388376,539.9903092347558L407.6452599388376,539.9903092347558L407.22477064220175,539.3992827755319L406.38379204892954,538.8082461271842L406.38379204892954,538.2171992892036L405.96330275229343,538.2171992892036L405.1223241590212,537.0350750421385L404.70183486238534,535.8529100301239L403.8608562691129,535.2618122359163L403.440366972477,535.2618122359163L403.0198776758409,534.6707042488888L403.440366972477,532.8973191254372L403.440366972477,532.3061703617459L402.1788990825687,531.7150114025462L402.1788990825687,531.7150114025462L399.65596330275207,528.1678435122049L397.13302752293544,523.4377151490189L396.29204892966345,522.2550810341236L395.8715596330271,521.6637486701256L395.8715596330271,521.6637486701256L395.45107033639124,521.6637486701256L395.45107033639124,521.6637486701256L395.03058103975513,521.6637486701256L394.61009174311926,521.6637486701256L394.61009174311926,521.6637486701256L393.76911314984704,521.6637486701256L393.34862385321094,521.6637486701256L393.34862385321094,521.072406101066L393.34862385321094,521.072406101066L393.34862385321094,521.072406101066L392.92813455657483,521.072406101066L392.92813455657483,519.889690345597L392.92813455657483,519.889690345597L392.92813455657483,519.2983171581145L393.34862385321094,518.7069337634457L393.76911314984704,518.1155401610304L394.1896024464829,517.5241363503483L394.1896024464829,517.5241363503483L394.61009174311926,517.5241363503483L394.1896024464829,516.3412981020629L394.1896024464829,515.1584190143294L393.34862385321094,513.3840237994009L392.0871559633026,511.6095366717236L391.2461773700304,509.83495761690574L391.6666666666665,505.6939155803957L391.6666666666665,505.10229727304613L391.2461773700304,503.9190299978218L390.4051987767584,501.5523727904365L389.9847094801221,500.3689828497263L389.1437308868501,498.0020802729159L388.7232415902138,496.22679596506714L388.3027522935779,495.04322195407804L387.8822629969418,492.0841079086531L387.46177370030546,490.9003906721009L388.7232415902138,487.9409184973665L389.9847094801221,486.7570579829153L390.4051987767584,485.5731565223032L391.6666666666665,482.02120642073714L391.6666666666665,481.4291788974115L391.2461773700304,479.06096638522286L390.4051987767584,477.8767986703424L388.7232415902138,474.3240496391336L388.3027522935779,473.73188893653423L388.3027522935779,473.73188893653423L387.8822629969418,474.3240496391336L387.0412844036696,474.3240496391336L386.6207951070335,475.50834030157785L385.35932721712516,475.50834030157785L384.09785932721684,474.9162000939723L383.67737003058096,474.3240496391336L381.99541284403654,471.955345336748L381.99541284403654,471.3631436377109L381.99541284403654,471.3631436377109L382.41590214067264,470.17870948778L382.41590214067264,469.58647703581664L383.67737003058096,468.40198137516563L384.51834862385317,468.40198137516563L385.77981651376126,468.99423433178526L387.0412844036696,469.58647703581664L387.8822629969418,470.77093168824285L389.5642201834862,471.3631436377109L389.9847094801221,471.3631436377109L390.8256880733943,469.58647703581664L391.2461773700304,467.80971816544115L391.6666666666665,466.6251609844621L392.0871559633026,464.2559235615081L392.0871559633026,462.4788877990213L390.8256880733943,460.1093631611948L390.8256880733943,459.51695635153374L388.7232415902138,456.55476837510287L387.46177370030546,454.1848332481313L385.35932721712516,452.4072741119671L385.35932721712516,452.4072741119671L383.67737003058096,453.5923238027681L381.15443425076455,456.55476837510287L379.89296636085624,457.73967435344093L379.0519877675838,458.33211194817704L378.6314984709479,458.33211194817704L375.26758409785907,457.73967435344093L373.5856269113149,456.55476837510287L372.7446483180429,455.96229999046045L371.90366972477045,455.36982134143545L372.32415902140656,454.77733242749673L371.06269113149824,452.4072741119671L370.64220183486214,451.2221833508047L369.8012232415899,450.62962256749233L368.96024464831794,448.8518786002205L368.1192660550457,446.4814095167094L367.6987767584096,445.88876656479624L367.6987767584096,442.9253976920336L367.2782874617733,441.7399782134671L367.2782874617733,441.14725305857064L366.8577981651374,439.36901592503636L366.0168195718654,438.7762496557698L364.7553516819571,436.4050817740135L364.334862385321,434.62659790269026L364.334862385321,434.03374937890476L364.7553516819571,432.8480214781048L364.334862385321,431.66225243607914L363.4938837920488,429.2905909111287L362.6529051987766,428.69764980989567L362.2324159021407,428.10469841959275L361.8119266055046,428.10469841959275L360.9709480122324,427.5117367396888L360.9709480122324,427.5117367396888L360.5504587155963,427.5117367396888L360.12996941895994,425.1397871132067L359.70948012232407,424.54677397719934L359.70948012232407,423.9537505483386L359.70948012232407,423.9537505483386L360.5504587155963,423.3607168261042L360.9709480122324,423.9537505483386L361.39143730886826,423.9537505483386L361.8119266055046,423.3607168261042L362.2324159021407,423.3607168261042L362.2324159021407,422.1746184993972L362.6529051987766,420.9884789927055L362.6529051987766,420.9884789927055L362.6529051987766,420.9884789927055L360.9709480122324,419.8022983017763L360.12996941895994,419.209192510858L358.86850152905185,419.209192510858L358.02752293577964,418.6160764222841L358.44801223241575,415.0571636093591L358.44801223241575,413.2775681406274L358.44801223241575,412.09111964706244L358.86850152905185,411.4978799443343L359.28899082568796,409.71809900594235L359.70948012232407,406.7515913088537L359.70948012232407,406.1582588446181L360.12996941895994,404.97156298703703L359.28899082568796,404.37819959260014L359.28899082568796,404.37819959260014L358.86850152905185,404.37819959260014L358.44801223241575,404.37819959260014L358.44801223241575,404.37819959260014L358.02752293577964,404.97156298703703L357.60703363914354,405.56491607085627L356.7660550458713,406.1582588446181L356.34556574923545,406.1582588446181L355.92507645259934,406.1582588446181L355.50458715596324,406.1582588446181L351.2996941896024,406.1582588446181L348.77675840978577,406.1582588446181L347.0948012232416,406.1582588446181L344.15137614678906,406.7515913088537L342.4694189602444,407.3449134640832L340.7874617737002,406.7515913088537L339.1055045871558,405.56491607085627L338.6850152905199,404.97156298703703L338.2645259938836,404.97156298703703L337.8440366972475,404.97156298703703L337.0030581039755,404.97156298703703L336.1620795107033,404.97156298703703L335.7415902140672,404.97156298703703L335.7415902140672,405.56491607085627L334.90061162079496,406.7515913088537L333.21865443425054,407.9382253108852L332.37767584097855,407.9382253108852L331.5366972477061,408.53152684976885L331.11620795107024,408.53152684976885L328.59327217125383,410.90462993693654L328.1727828746175,411.4978799443343L327.7522935779816,412.09111964706244L327.3318042813455,412.6843490456522L326.9113149847094,413.87077693255196L326.9113149847094,414.463975421957L326.9113149847094,415.0571636093591L323.9678899082569,416.2435090803847L322.7064220183486,414.463975421957L321.44495412844026,410.90462993693654L321.44495412844026,409.12481808126176L321.44495412844026,407.9382253108852L321.86544342507636,404.97156298703703L322.28593272171247,404.37819959260014L322.7064220183486,402.5980475402903L324.3883792048928,400.2243670893113L324.8088685015289,398.44399844630243L325.2293577981652,397.2570344358501L325.6498470948011,397.2570344358501L325.6498470948011,396.66353695447106L325.6498470948011,396.66353695447106L324.3883792048928,394.28944384195347L323.5474006116208,391.3215952401697L323.12691131498445,389.54076220724164L323.12691131498445,388.35348856302517L323.12691131498445,388.35348856302517L323.12691131498445,387.7598362526078L323.9678899082569,385.97881736170166L324.8088685015289,384.1977055199095L324.8088685015289,384.1977055199095L324.8088685015289,383.60398091436946L324.3883792048928,383.60398091436946L324.3883792048928,383.60398091436946L323.9678899082569,381.8227451153907L323.5474006116208,380.0414163315181L321.86544342507636,377.6661666179134L320.60397553516805,376.47847975063996L319.34250764525973,375.290751537279L318.0810397553514,372.3212500863483L317.2400611620794,371.1333771276113L316.399082568807,369.9454628032945L315.9785932721711,369.9454628032945L314.7171253822628,369.3514901277158L314.2966360856269,369.3514901277158L313.8761467889906,369.3514901277158L313.0351681957186,370.53942513641596L311.3532110091744,371.7273187773935L311.3532110091744,372.3212500863483L310.93272171253807,372.3212500863483L310.51223241590196,372.3212500863483L310.51223241590196,371.7273187773935L310.0917431192661,370.53942513641596L310.0917431192661,369.9454628032945L310.51223241590196,369.3514901277158L310.93272171253807,369.3514901277158L310.93272171253807,368.7575071091087L310.93272171253807,368.16351374695296L310.93272171253807,368.16351374695296L310.0917431192661,365.7874368519697L308.83027522935777,365.19339176393623L308.83027522935777,365.19339176393623L308.83027522935777,365.7874368519697L308.83027522935777,365.7874368519697L308.40978593272166,365.7874368519697L306.72782874617724,366.9754959898164L305.886850152905,367.56951004071016L304.62538226299694,368.16351374695296L303.7844036697247,369.9454628032945L303.7844036697247,370.53942513641596L303.7844036697247,371.1333771276113L303.7844036697247,372.91517105499224L302.9434250764525,374.6968719244578L302.5229357798164,374.6968719244578L302.1024464831803,374.6968719244578L301.6819571865442,374.102981973494L301.2614678899081,374.102981973494L300.840978593272,373.50908168385286L300.4204892966359,372.91517105499224L299.9999999999998,372.3212500863483L299.5795107033639,372.3212500863483L299.5795107033639,372.3212500863483L298.7385321100917,373.50908168385286L298.7385321100917,373.50908168385286L298.7385321100917,373.50908168385286L298.3180428134556,376.47847975063996L297.05657492354726,379.44761940438184L296.6360856269114,381.2289791864823L296.21559633027505,384.7914197959326L295.37461773700306,385.38512374302445L295.37461773700306,385.38512374302445L294.95412844036696,385.38512374302445L294.53363914373085,385.97881736170166L291.5902140672781,387.16617361595127L289.0672782874615,387.7598362526078L287.8058103975534,387.16617361595127L286.9648318042812,385.97881736170166L286.1238532110092,385.38512374302445L286.1238532110092,385.38512374302445L285.28287461773675,385.38512374302445L284.8623853211009,385.38512374302445L284.44189602446477,385.38512374302445L283.18042813455645,387.16617361595127L282.33944954128424,388.35348856302517L281.49847094801225,390.13438354213577L279.3960244648317,393.1023353659657L276.8730886850151,396.07002915492194L276.0321100917431,397.2570344358501L275.1911314984709,398.44399844630243L275.6116207951068,402.0046428980313L275.6116207951068,403.191441869767L275.6116207951068,403.191441869767L275.1911314984709,404.37819959260014L274.7706422018348,404.97156298703703L274.3501529051987,406.1582588446181L273.9296636085626,406.1582588446181L273.08868501529037,407.3449134640832L272.24770642201815,407.3449134640832L271.40672782874594,407.3449134640832L269.72477064220175,407.3449134640832L267.6223241590212,406.1582588446181L267.6223241590212,406.1582588446181L265.940366972477,405.56491607085627L265.0993883792048,405.56491607085627L265.0993883792048,405.56491607085627L264.2584097859326,405.56491607085627L263.4174311926604,405.56491607085627L262.9969418960243,406.1582588446181L262.9969418960243,406.1582588446181L262.9969418960243,406.7515913088537L262.15596330275207,407.9382253108852L261.3149847094801,409.12481808126176L260.4740061162079,409.71809900594235L260.05351681957177,411.4978799443343L259.21253822629956,414.463975421957L258.37155963302735,416.83666636506314L257.95107033639124,417.42981334990327L255.84862385321094,420.39539379554844L254.16666666666674,421.58155389381136L252.4847094801221,422.7676728099723L252.0642201834862,423.3607168261042L252.0642201834862,424.54677397719934L252.4847094801221,425.73278995693545L252.4847094801221,426.32578250889856L252.90519877675843,426.32578250889856L253.3256880733943,426.32578250889856L254.16666666666674,426.91876476962716L254.58715596330262,427.5117367396888L255.00764525993873,428.10469841959275L255.42813455657506,428.69764980989567L255.42813455657506,429.883521723812L255.42813455657506,430.47644224851683L255.00764525993873,433.4408905708988L253.7461773700304,434.62659790269026L253.7461773700304,435.21943614276825L250.38226299694202,436.4050817740135L249.96177370030568,436.4050817740135L249.96177370030568,436.4050817740135L249.54128440366958,436.4050817740135L249.54128440366958,436.99788916622856L249.54128440366958,436.99788916622856L250.38226299694202,439.36901592503636L251.223241590214,441.14725305857064L251.223241590214,442.33269309110983L251.223241590214,444.7034498399189L250.8027522935779,445.88876656479624L250.8027522935779,447.07404219568343L251.223241590214,450.0370515149916L250.8027522935779,452.4072741119671L250.8027522935779,452.9998040909013L249.54128440366958,454.1848332481313L248.27981651376126,455.36982134143545L247.43883792048928,455.96229999046045L245.75688073394485,457.73967435344093L245.33639143730875,458.33211194817704L244.49541284403654,458.33211194817704L243.23394495412845,458.33211194817704L242.39296636085624,457.73967435344093L241.5519877675838,457.1472264959193L239.8700305810396,457.73967435344093L239.8700305810396,457.73967435344093L239.4495412844035,457.73967435344093L237.3470948012232,460.1093631611948L236.50611620795098,461.2941459992071L236.50611620795098,461.88652202862795L236.08562691131488,461.88652202862795L235.66513761467877,461.88652202862795L235.66513761467877,461.88652202862795L235.2446483180429,461.88652202862795L234.82415902140656,461.88652202862795L234.82415902140656,462.4788877990213L234.82415902140656,462.4788877990213L235.2446483180429,463.66358856494116L235.2446483180429,464.2559235615081L235.2446483180429,466.03286701215984L234.82415902140656,468.40198137516563L233.98318042813457,472.54753678587804L233.14220183486214,473.73188893653423L231.46024464831794,474.3240496391336L231.03975535168183,474.3240496391336L231.03975535168183,474.3240496391336L230.61926605504573,475.50834030157785L230.61926605504573,476.6925899772177L231.03975535168183,479.06096638522286L230.61926605504573,480.83714113272435L230.61926605504573,483.2052307454942L231.46024464831794,484.389214111241L231.46024464831794,484.389214111241L231.88073394495405,484.9811904358394L231.46024464831794,484.9811904358394L231.03975535168183,485.5731565223032L231.03975535168183,485.5731565223032L231.03975535168183,485.5731565223032L230.61926605504573,486.7570579829153L230.61926605504573,489.1247380699497L230.61926605504573,489.1247380699497L230.61926605504573,489.71663250435086L230.19877675840985,489.71663250435086L228.0963302752291,491.49225440651935L227.2553516819571,492.67595117906967L227.2553516819571,493.26778421828567L227.67584097859321,493.26778421828567L228.51681957186543,493.26778421828567L228.93730886850153,493.26778421828567L231.46024464831794,493.26778421828567L231.46024464831794,492.67595117906967L231.46024464831794,492.67595117906967L231.88073394495405,492.0841079086531L233.98318042813457,489.71663250435086L233.14220183486214,493.26778421828567L232.30122324159015,494.45141960525143L231.03975535168183,495.6350140738323L229.77828746177352,496.22679596506714L229.3577981651374,496.81856762829557L227.2553516819571,499.18555201197887L225.9938837920488,500.96068293193457L225.9938837920488,500.96068293193457L225.9938837920488,500.96068293193457L225.5733944954129,500.96068293193457L223.89143730886826,500.96068293193457L223.89143730886826,500.96068293193457L222.62996941895994,501.5523727904365L222.20948012232407,501.5523727904365L221.78899082568796,501.5523727904365L220.94801223241575,502.7357218383804L218.42507645259934,505.10229727304613L216.74311926605492,506.2855236682917L216.3226299694188,508.0602866205554L216.74311926605492,508.6518538359596L216.74311926605492,508.6518538359596L216.3226299694188,508.6518538359596L216.3226299694188,508.6518538359596L215.9021406727827,509.83495761690574L214.64067278287462,512.2010425943736L211.69724770642188,512.2010425943736L210.01529051987768,513.3840237994009L209.17431192660547,514.5669641543172L208.33333333333326,515.7498636633863L207.91284403669738,517.5241363503483L207.07186544342494,519.889690345597L206.65137614678906,520.4810533263917L206.23088685015273,521.6637486701256L205.38990825688074,523.4377151490189L204.12844036697243,525.2115897966396L203.70795107033632,526.3941218847904L203.70795107033632,526.3941218847904L203.70795107033632,527.576613169651L203.70795107033632,528.1678435122049L203.70795107033632,529.9414733466765L204.54892966360853,533.4884576941804L202.86697247706434,535.8529100301239L202.0259938837919,537.0350750421385L202.0259938837919,537.0350750421385L201.60550458715602,537.626142261026L200.3440366972477,538.2171992892036L199.50305810397572,538.2171992892036L199.08256880733938,537.0350750421385L197.82110091743107,536.4439976320245L197.82110091743107,536.4439976320245L197.40061162079496,536.4439976320245L196.98012232415908,536.4439976320245L196.55963302752275,536.4439976320245L196.13914373088687,537.0350750421385L195.71865443425077,537.626142261026L195.71865443425077,539.3992827755319L195.71865443425077,539.9903092347558L195.71865443425077,541.1723315879826L195.71865443425077,541.1723315879826L195.71865443425077,541.1723315879826L195.29816513761443,541.7633274830587L194.87767584097855,541.7633274830587L194.03669724770612,541.1723315879826L192.77522935779825,540.5813255054018L191.51376146788994,539.9903092347558L189.8318042813455,539.3992827755319L188.1498470948011,538.8082461271842L188.1498470948011,538.2171992892036L187.30886850152888,538.2171992892036L186.4678899082569,538.8082461271842L186.0474006116208,538.8082461271842L185.62691131498445,538.8082461271842L185.62691131498445,539.3992827755319L185.62691131498445,539.3992827755319L185.62691131498445,540.5813255054018L185.62691131498445,541.1723315879826L185.20642201834858,541.1723315879826L184.36544342507636,542.3543131911392L182.26299694189584,543.5362540484384L182.26299694189584,543.5362540484384L181.84250764525973,544.1272091987194L181.42201834862374,544.1272091987194L181.00152905198775,544.1272091987194L181.00152905198775,544.1272091987194L179.74006116207943,543.5362540484384L179.31957186544344,543.5362540484384L178.8990825688071,542.3543131911392L178.8990825688071,541.7633274830587L178.4785932721711,541.7633274830587L178.4785932721711,541.1723315879826L178.05810397553512,541.1723315879826L177.2171253822628,541.1723315879826L176.7966360856268,541.1723315879826L175.53516819571848,541.1723315879826L174.6941896024464,541.7633274830587L174.2737003058104,541.7633274830587L173.85321100917417,541.7633274830587L173.43272171253807,541.7633274830587L173.01223241590208,541.7633274830587L172.59174311926608,541.1723315879826L171.33027522935777,540.5813255054018L170.90978593272177,539.9903092347558L170.48929663608544,539.9903092347558L169.64831804281346,539.3992827755319L168.80733944954113,539.3992827755319L168.38685015290514,539.3992827755319L168.38685015290514,539.3992827755319L167.96636085626903,539.3992827755319L167.96636085626903,539.3992827755319L165.86391437308873,539.9903092347558L165.86391437308873,539.9903092347558L165.0229357798164,539.3992827755319L164.60244648318042,539.3992827755319L164.60244648318042,539.9903092347558L164.18195718654442,539.9903092347558L162.9204892966361,539.9903092347558L161.6590214067278,539.9903092347558L161.23853211009157,538.2171992892036L159.13608562691127,537.0350750421385L158.71559633027493,537.0350750421385L158.29510703363894,537.0350750421385L158.29510703363894,537.0350750421385L157.87461773700295,537.0350750421385L157.45412844036696,537.626142261026L157.03363914373074,538.2171992892036L155.77217125382253,539.9903092347558L153.2492354740059,542.3543131911392L150.7262996941896,542.9452887127445L147.78287461773698,543.5362540484384L146.94189602446488,543.5362540484384L145.25993883792057,542.9452887127445L145.25993883792057,542.9452887127445L145.25993883792057,542.9452887127445L143.99847094801225,541.1723315879826L142.31651376146795,539.9903092347558L139.3730886850152,538.8082461271842L138.9525993883792,538.8082461271842L138.9525993883792,538.8082461271842L138.53211009174322,538.2171992892036L138.1116207951069,537.626142261026L138.1116207951069,537.626142261026L138.53211009174322,537.0350750421385L138.9525993883792,535.8529100301239L139.7935779816513,534.6707042488888L140.21406727828753,534.6707042488888L140.63455657492352,533.4884576941804L140.21406727828753,530.5326628955554L139.7935779816513,529.9414733466765L139.3730886850152,529.9414733466765L138.9525993883792,529.3502736001828L138.53211009174322,529.3502736001828L138.1116207951069,529.3502736001828L137.6911314984709,528.1678435122049L136.00917431192659,525.8028609413923L135.16819571865437,525.8028609413923L134.74770642201827,526.3941218847904L134.74770642201827,526.3941218847904L133.06574923547396,527.576613169651L132.64525993883774,527.576613169651L130.96330275229343,528.1678435122049L128.0198776758408,529.3502736001828L125.0764525993884,529.3502736001828L123.81498470948009,528.7590636555433L122.55351681957177,527.576613169651L120.45107033639135,527.576613169651L119.61009174311914,528.1678435122049L117.50764525993873,528.7590636555433L115.40519877675843,529.9414733466765L113.72324159021412,531.1238422473216L113.72324159021412,531.1238422473216L112.88226299694179,531.1238422473216L112.04128440366958,531.1238422473216L112.04128440366958,531.1238422473216L111.20030581039748,531.1238422473216L110.35932721712527,531.1238422473216L109.93883792048928,531.1238422473216L109.51834862385306,531.7150114025462L108.25688073394508,532.3061703617459L107.83639143730875,532.8973191254372L107.41590214067276,533.4884576941804L106.15443425076444,534.6707042488888L104.89296636085624,535.8529100301239L104.05198776758391,536.4439976320245L103.63149847094792,536.4439976320245L102.3700305810396,536.4439976320245L100.68807339449529,535.8529100301239L99.4266055045872,535.2618122359163L99.00611620795098,535.2618122359163L96.90366972477057,534.6707042488888L94.80122324159026,534.6707042488888L93.96024464831794,535.2618122359163L91.43730886850153,536.4439976320245L89.33486238532123,537.0350750421385L88.9143730886849,537.626142261026L87.23241590214059,539.3992827755319L85.97094801223238,541.1723315879826L86.39143730886838,541.7633274830587L87.23241590214059,542.9452887127445L87.23241590214059,543.5362540484384L87.6529051987767,544.7181541641512L87.6529051987767,547.6727262368622L88.07339449541291,549.4453472960777L88.9143730886849,551.2178767344849L89.75535168195722,552.3995121334083L90.17584097859321,552.3995121334083L91.43730886850153,553.5811068225848L91.43730886850153,554.1718889023578L90.59633027522932,554.1718889023578L90.17584097859321,554.1718889023578L90.17584097859321,554.1718889023578L89.75535168195722,554.1718889023578L87.6529051987767,555.9441740887087L86.39143730886838,557.1256466741361L85.97094801223238,557.7163677067911L85.55045871559628,557.7163677067911L84.70948012232407,557.7163677067911L83.86850152905197,555.3534225348812L82.18654434250743,554.1718889023578L81.76605504587144,553.5811068225848L80.08409785932713,551.8086995229278L77.14067278287462,550.0362006216019L75.87920489296641,549.4453472960777L75.45871559633008,548.8544837904628L73.77675840978577,547.0818321877996L72.93577981651379,545.9000135425231L72.09480122324146,546.4909279565363L71.67431192660547,547.0818321877996L70.83333333333337,545.9000135425231L69.99235474006105,544.7181541641512L69.99235474006105,544.7181541641512L69.57186544342505,544.1272091987194L69.57186544342505,544.1272091987194L69.57186544342505,543.5362540484384L69.57186544342505,540.5813255054018L69.57186544342505,539.3992827755319L69.99235474006105,538.8082461271842L70.83333333333337,537.626142261026L72.09480122324146,536.4439976320245L72.09480122324146,536.4439976320245L72.09480122324146,535.8529100301239L71.67431192660547,535.2618122359163L71.67431192660547,535.2618122359163L70.41284403669715,533.4884576941804L68.73088685015273,531.1238422473216L68.31039755351674,531.1238422473216L68.31039755351674,530.5326628955554L67.46941896024475,529.9414733466765L69.57186544342505,529.3502736001828L69.57186544342505,529.3502736001828L69.57186544342505,528.7590636555433L70.83333333333337,527.576613169651L71.25382262996936,527.576613169651L72.09480122324146,525.8028609413923L73.77675840978577,523.4377151490189L73.77675840978577,523.4377151490189L73.77675840978577,522.8464031935837L73.35626911314978,522.2550810341236L70.83333333333337,519.889690345597L69.15137614678906,516.9327223308792L67.88990825688074,514.5669641543172L66.62844036697243,513.3840237994009L66.62844036697243,512.7925383034235L66.20795107033643,511.6095366717236L65.78746177370022,509.83495761690574L64.1055045871559,508.0602866205554L63.6850152905198,508.0602866205554L63.26452599388358,508.0602866205554L62.84403669724759,508.0602866205554L62.84403669724759,508.0602866205554L62.4235474006116,508.6518538359596L61.16207951070339,509.83495761690574L60.7415902140674,511.0180205349716L60.32110091743107,511.0180205349716L59.48012232415908,511.6095366717236L59.059633027522864,511.6095366717236L59.059633027522864,511.6095366717236L56.95718654434245,512.2010425943736L56.536697247706456,512.2010425943736L56.95718654434245,512.2010425943736L56.536697247706456,512.2010425943736L56.536697247706456,511.6095366717236L55.695718654434245,511.6095366717236L54.85474006116192,510.42649418353903L53.17278287461761,509.24341083456966L53.17278287461761,508.6518538359596L53.17278287461761,508.6518538359596L53.17278287461761,508.0602866205554L54.013761467889935,505.10229727304613L54.013761467889935,502.7357218383804L56.536697247706456,500.3689828497263L59.059633027522864,497.4103290640778L60.32110091743107,495.6350140738323L61.16207951070339,492.0841079086531L62.00305810397549,489.1247380699497L62.4235474006116,487.9409184973665L62.4235474006116,487.34899335815135L62.84403669724759,485.5731565223032L62.84403669724759,485.5731565223032L62.84403669724759,482.613223703258L62.84403669724759,480.2450931261519L63.26452599388358,477.284699446318L63.26452599388358,476.6925899772177L62.84403669724759,476.6925899772177L62.4235474006116,474.9162000939723L61.582568807339385,471.955345336748L61.16207951070339,469.58647703581664L61.16207951070339,467.21744470204794L61.16207951070339,466.6251609844621L61.16207951070339,466.6251609844621L62.00305810397549,466.6251609844621L62.00305810397549,466.6251609844621L62.4235474006116,466.6251609844621L62.84403669724759,467.21744470204794L62.84403669724759,467.21744470204794L62.84403669724759,466.6251609844621L62.84403669724759,466.6251609844621L62.84403669724759,466.6251609844621L64.1055045871559,466.03286701215984L64.94648318042812,465.4405627845954L66.20795107033643,465.4405627845954L67.04892966360842,465.4405627845954L68.31039755351674,463.66358856494116L69.57186544342505,462.4788877990213L69.57186544342505,461.2941459992071L69.57186544342505,460.1093631611948L69.57186544342505,459.51695635153374L69.57186544342505,459.51695635153374L69.15137614678906,459.51695635153374L69.15137614678906,458.9245392806988L69.15137614678906,458.9245392806988L69.57186544342505,458.9245392806988L69.99235474006105,458.33211194817704L70.41284403669715,457.73967435344093L70.41284403669715,457.1472264959193L70.83333333333337,456.55476837510287L70.83333333333337,454.77733242749673L70.83333333333337,454.77733242749673L70.83333333333337,454.77733242749673L70.41284403669715,454.1848332481313L69.15137614678906,450.62962256749233L69.15137614678906,450.62962256749233L69.15137614678906,450.0370515149916L68.73088685015273,449.44447019273866L68.31039755351674,449.44447019273866L68.31039755351674,449.44447019273866L67.88990825688074,446.4814095167094L67.88990825688074,444.7034498399189L67.88990825688074,444.11077606591425L68.31039755351674,444.11077606591425L68.31039755351674,443.51809201679134L68.73088685015273,441.7399782134671L68.31039755351674,441.14725305857064L66.20795107033643,439.9617719149064L64.1055045871559,439.36901592503636L62.00305810397549,438.18347310658646L61.16207951070339,436.99788916622856L59.900611620795075,435.21943614276825L57.798165137614774,434.62659790269026L57.377675840978554,434.62659790269026L57.377675840978554,434.62659790269026L57.377675840978554,434.62659790269026L56.95718654434245,434.03374937890476L56.95718654434245,434.03374937890476L54.85474006116192,431.66225243607914L53.17278287461761,428.10469841959275L52.75229357798162,428.10469841959275L52.75229357798162,427.5117367396888L52.331804281345626,427.5117367396888L52.331804281345626,426.91876476962716L52.331804281345626,426.32578250889856L52.331804281345626,425.1397871132067L52.331804281345626,424.54677397719934L51.91131498470929,424.54677397719934L51.91131498470929,423.9537505483386L51.4908256880733,423.3607168261042L51.4908256880733,421.58155389381136L50.22935779816521,420.39539379554844L47.706422018348576,420.39539379554844L47.706422018348576,420.39539379554844L47.706422018348576,419.8022983017763L47.285932721712584,418.6160764222841L46.86544342507659,418.0229500354726L46.024464831804266,416.83666636506314L44.76299694189595,415.65034149532585L43.92201834862385,414.463975421957L43.92201834862385,413.87077693255196L42.660550458715534,412.09111964706244L42.24006116207954,410.90462993693654L41.399082568807216,409.12481808126176L40.978593272171224,408.53152684976885L39.71712538226291,407.3449134640832L38.4556574923547,406.1582588446181L37.194189602446386,403.7848258870363L36.773700305810394,402.0046428980313L34.67125382262975,399.0374649764635L33.83027522935777,397.2570344358501L33.83027522935777,394.28944384195347L34.25076452599376,391.3215952401697L34.67125382262975,388.9471305477273L35.93272171253807,387.7598362526078L36.773700305810394,387.16617361595127L39.296636085626915,386.5725006524881L40.978593272171224,385.97881736170166L43.92201834862385,383.60398091436946L43.92201834862385,383.60398091436946L43.92201834862385,383.0102459788068L43.50152905198786,383.0102459788068L43.08103975535164,383.0102459788068L42.660550458715534,381.8227451153907L41.81957186544355,379.44761940438184L40.55810397553523,377.0723283522748L39.296636085626915,375.8846208124851L38.0351681957186,374.6968719244578L37.194189602446386,374.102981973494L36.35321100917429,373.50908168385286L35.93272171253807,372.3212500863483L34.67125382262975,371.1333771276113L33.83027522935777,370.53942513641596L32.98929663608544,369.9454628032945L32.98929663608544,369.9454628032945L32.14831804281346,369.9454628032945L31.72782874617735,370.53942513641596L31.72782874617735,369.9454628032945L31.72782874617735,369.9454628032945L31.307339449541132,369.3514901277158L30.88685015290514,368.7575071091087L30.88685015290514,366.9754959898164L31.307339449541132,365.19339176393623L31.72782874617735,362.2230111108438L31.72782874617735,360.4406585292272L32.14831804281346,359.84652030047073L32.56880733944945,358.65821278738804L32.56880733944945,358.0640435019777L32.56880733944945,357.4698638632799L30.045871559633042,354.4988103512442L27.943425076452627,352.121781126938L27.522935779816407,350.9332043646282L27.522935779816407,350.33890044402506L27.102446483180415,349.150261521263L27.102446483180415,346.77285933420717L26.26146788990809,345.5840960612404L25,344.39529132951066L25,343.8008734152827L25.840978593272098,343.8008734152827L26.26146788990809,343.8008734152827L29.625382262996936,343.20644513471416L30.045871559633042,343.20644513471416L30.466360856269034,343.20644513471416L32.14831804281346,342.01755747248535L34.25076452599376,339.6396577283849L34.25076452599376,339.6396577283849L34.67125382262975,339.6396577283849L35.091743119266084,339.6396577283849L36.35321100917429,339.0451568684257L36.773700305810394,339.0451568684257L38.0351681957186,339.0451568684257L40.13761467889924,339.0451568684257L40.13761467889924,339.6396577283849L40.55810397553523,339.6396577283849L40.55810397553523,339.6396577283849L41.399082568807216,341.42309808973005L41.399082568807216,342.01755747248535L41.399082568807216,342.01755747248535L42.24006116207954,342.01755747248535L42.660550458715534,342.01755747248535L43.92201834862385,341.42309808973005L43.92201834862385,340.8286283384914L44.34250764525996,340.8286283384914L45.18348623853217,339.6396577283849L46.024464831804266,339.0451568684257L46.44495412844026,339.0451568684257L48.96788990825689,338.4506456378076L50.6498470948012,338.4506456378076L50.6498470948012,338.4506456378076L51.91131498470929,339.0451568684257L53.17278287461761,339.6396577283849L53.5932721712536,339.6396577283849L53.5932721712536,339.6396577283849L53.5932721712536,339.6396577283849L54.43425076452593,338.4506456378076L54.43425076452593,337.85612403600317L55.27522935779814,336.0724969979492L56.11620795107024,334.8833604399624L56.95718654434245,331.91033748247355L57.798165137614774,330.72105566305254L57.377675840978554,328.93705509563733L56.95718654434245,328.34236748076L56.95718654434245,327.7476694854704L57.377675840978554,327.7476694854704L57.377675840978554,327.15296110918644L57.798165137614774,327.15296110918644L57.798165137614774,326.558242351377L57.798165137614774,326.558242351377L55.695718654434245,324.7740237834114L54.43425076452593,324.1792634940939L53.5932721712536,324.1792634940939L53.17278287461761,323.58449282052607L51.4908256880733,321.800118488969L51.07033639143731,321.20530627300104L48.5474006116209,318.23108937791767L48.5474006116209,318.23108937791767L47.706422018348576,317.63621483203315L47.285932721712584,317.04132989593927L47.285932721712584,317.04132989593927L46.44495412844026,315.25661274083905L45.603975535168274,311.6868978211278L45.18348623853217,308.71184951218675L44.34250764525996,305.1414483885783L42.660550458715534,303.95123147327104L40.13761467889924,301.57067280525735L39.71712538226291,299.7851445544111L38.87614678899092,297.404294525506L38.4556574923547,296.8090559977718L38.87614678899092,296.8090559977718L40.13761467889924,296.8090559977718L40.55810397553523,296.8090559977718L40.978593272171224,296.8090559977718L40.978593272171224,296.21380706076525L40.978593272171224,296.21380706076525L40.55810397553523,295.61854771390426L40.55810397553523,295.61854771390426L40.13761467889924,295.61854771390426L39.71712538226291,295.61854771390426L39.296636085626915,295.02327795666133L39.296636085626915,295.02327795666133L39.296636085626915,295.02327795666133L39.71712538226291,293.83270720886503L40.13761467889924,293.23740621722027L40.13761467889924,293.23740621722027L40.55810397553523,293.23740621722027L40.55810397553523,293.23740621722027L40.978593272171224,293.23740621722027L41.399082568807216,293.23740621722027L41.81957186544355,292.6420948129962L42.24006116207954,292.04677299567993L42.24006116207954,291.4514407646893L43.50152905198786,289.66538158434923L45.603975535168274,288.47462338584955L47.285932721712584,288.47462338584955L49.388379204892885,288.47462338584955L50.22935779816521,285.497545583763L52.75229357798162,283.11569579149364L55.695718654434245,281.92470836648135L56.536697247706456,281.92470836648135L56.536697247706456,281.92470836648135L56.536697247706456,281.92470836648135L56.95718654434245,281.3291990198413L57.377675840978554,279.5426084368628L57.377675840978554,278.94705739300844L57.798165137614774,278.35149592350353L57.798165137614774,278.35149592350353L58.218654434250766,278.35149592350353L59.900611620795075,278.94705739300844L63.26452599388358,279.5426084368628L65.36697247706411,279.5426084368628L66.62844036697243,279.5426084368628L68.31039755351674,280.73367924972626L70.41284403669715,281.92470836648135L70.41284403669715,281.3291990198413L70.83333333333337,281.92470836648135Z" style="fill: none; stroke: rgb(8, 48, 107);"><title>CANTAL</title></path><g stroke="#000" stroke-opacity="0.2"><path d="M0,-13.34775705149959L2.9967581703553763,-4.1246837657014135L12.69447132175327,-4.124683765701414L4.848856575698947,1.5754890056530315L7.845614746054325,10.798562291451207L8.881784197001252e-16,5.098389520096762L-7.845614746054323,10.798562291451208L-4.848856575698946,1.5754890056530328L-12.694471321753271,-4.124683765701411L-2.9967581703553776,-4.124683765701413Z" transform="translate(131.80428134556576,199.64565072569894)rotate(5.757879233759291)" fill="white" class="commune"><title>15120 Population : 3667</title></path><path d="M0,-13.34775705149959L2.9967581703553763,-4.1246837657014135L12.69447132175327,-4.124683765701414L4.848856575698947,1.5754890056530315L7.845614746054325,10.798562291451207L8.881784197001252e-16,5.098389520096762L-7.845614746054323,10.798562291451208L-4.848856575698946,1.5754890056530328L-12.694471321753271,-4.124683765701411L-2.9967581703553776,-4.124683765701413Z" transform="translate(453.8990825688072,312.8768443712215)rotate(3.64572624279921)" fill="white" class="commune"><title>15187 Population : 6504</title></path><path d="M0,-18.876579049491834L4.238056047668955,-5.833183721955068L17.952693510379785,-5.833183721955069L6.857318731355415,2.2280779191642193L11.095374779024372,15.271473246700983L8.881784197001252e-16,7.210211605581696L-11.095374779024368,15.271473246700985L-6.857318731355414,2.2280779191642206L-17.952693510379788,-5.833183721955065L-4.238056047668956,-5.833183721955068Z" transform="translate(183.94495412844026,375.290751537279)rotate(4.805643536946802)" fill="white" class="commune"><title>15014 Population : 25954</title></path></g><text class="text" y="25" x="326" text-anchor="middle" font-size="24" font-family="Helvetica" fill="#6baed6">15 - CANTAL</text><line x1="180.46890927624864" y1="363.5810781498403" x2="135.28032619775738" y2="211.3553241131376" stroke="yellow" opacity="0.35" stroke-width="2"/><line x1="153.27726809378186" y1="207.19439696873377" x2="432.4260958205911" y2="305.3280981281867" stroke="yellow" opacity="0.35" stroke-width="2"/><line x1="435.90214067278276" y1="317.03777151562537" x2="201.9418960244647" y2="371.12982439287515" stroke="yellow" opacity="0.35" stroke-width="2"/></svg>