<svg viewBox="0,0,954,1144.8" width="954" height="1144.8" style="width: 100%; height: auto;" xmlns="http://www.w3.org/2000/svg" xmlns:xlink="http://www.w3.org/1999/xlink"><rect width="954" height="1144.8" fill="black"/><g stroke="#000" stroke-opacity="0.2"><path d="M0,-15.873247654971056L3.5637661381291506,-4.905103281308338L15.096355617026989,-4.905103281308339L5.766294739448918,1.873582735131148L9.330060877578072,12.841727108793865L8.881784197001252e-16,6.063041092354379L-9.330060877578068,12.841727108793867L-5.766294739448918,1.8735827351311491L-15.09635561702699,-4.905103281308335L-3.563766138129152,-4.905103281308337Z" transform="translate(465.51311012504993,539.1271920342842)rotate(21.79551268967358)" fill="white" class="commune"><title>insee_com : 74042 
Population : 12608
 Nom : BONNEVILLE</title></path><path d="M0,-15.873247654971056L3.5637661381291506,-4.905103281308338L15.096355617026989,-4.905103281308339L5.766294739448918,1.873582735131148L9.330060877578072,12.841727108793865L8.881784197001252e-16,6.063041092354379L-9.330060877578068,12.841727108793867L-5.766294739448918,1.8735827351311491L-15.09635561702699,-4.905103281308335L-3.563766138129152,-4.905103281308337Z" transform="translate(226.4399354578445,468.95732232414593)rotate(6.957202087572323)" fill="white" class="commune"><title>insee_com : 74243 
Population : 14258
 Nom : SAINT JULIEN EN GENEVOIS</title></path><path d="M0,-18.876579049491834L4.238056047668955,-5.833183721955068L17.952693510379785,-5.833183721955069L6.857318731355415,2.2280779191642193L11.095374779024372,15.271473246700983L8.881784197001252e-16,7.210211605581696L-11.095374779024368,15.271473246700985L-6.857318731355414,2.2280779191642206L-17.952693510379788,-5.833183721955065L-4.238056047668956,-5.833183721955068Z" transform="translate(515.617829770068,227.60641508803383)rotate(17.48753904383327)" fill="white" class="commune"><title>insee_com : 74281 
Population : 34756
 Nom : THONON LES BAINS</title></path><path d="M0,-26.69551410299918L5.993516340710753,-8.249367531402827L25.38894264350654,-8.249367531402829L9.697713151397894,3.150978011306063L15.69122949210865,21.597124582902413L1.7763568394002505e-15,10.196779040193524L-15.691229492108645,21.597124582902417L-9.697713151397892,3.1509780113060657L-25.388942643506542,-8.249367531402822L-5.993516340710755,-8.249367531402825Z" transform="translate(261.5934651068974,726.4969705465046)rotate(24.8878323588189)" fill="white" class="commune"><title>insee_com : 74010 
Population : 126924
 Nom : ANNECY</title></path></g><text class="text" y="40" x="427" text-anchor="middle" font-size="36" font-family="Helvetica" fill="#6baed6">74  - HAUTE SAVOIE</text><line x1="259.2498964636272" y1="709.327660665014" x2="228.78350410111472" y2="486.1266322056365" stroke="yellow" opacity="0.35" stroke-width="2"/><line x1="245.71846174532607" y1="452.86726184173847" x2="496.3393034825865" y2="243.6964755704413" stroke="yellow" opacity="0.35" stroke-width="2"/><line x1="512.2775151270669" y1="248.37446688445053" x2="468.8534247680511" y2="518.3591402378676" stroke="yellow" opacity="0.35" stroke-width="2"/><line x1="451.9184671238398" y1="551.6185106017656" x2="275.18810810810754" y2="714.0056519790232" stroke="yellow" opacity="0.35" stroke-width="2"/></svg>