<svg viewBox="0,0,955,1146" width="955" height="1146" style="width: 100%; height: auto;" xmlns="http://www.w3.org/2000/svg" xmlns:xlink="http://www.w3.org/1999/xlink"><rect width="955" height="1146" fill="black"/><g stroke="#000" stroke-opacity="0.2"><path d="M0,-13.34775705149959L2.9967581703553763,-4.1246837657014135L12.69447132175327,-4.124683765701414L4.848856575698947,1.5754890056530315L7.845614746054325,10.798562291451207L8.881784197001252e-16,5.098389520096762L-7.845614746054323,10.798562291451208L-4.848856575698946,1.5754890056530328L-12.694471321753271,-4.124683765701411L-2.9967581703553776,-4.124683765701413Z" transform="translate(487.41340970034344,876.3399948941369)rotate(9.155122338747583)" fill="white" class="commune"><title>68004 Population : 5775</title></path><path d="M0,-13.34775705149959L2.9967581703553763,-4.1246837657014135L12.69447132175327,-4.124683765701414L4.848856575698947,1.5754890056530315L7.845614746054325,10.798562291451207L8.881784197001252e-16,5.098389520096762L-7.845614746054323,10.798562291451208L-4.848856575698946,1.5754890056530328L-12.694471321753271,-4.124683765701411L-2.9967581703553776,-4.124683765701413Z" transform="translate(363.49578844606276,639.3540971749317)rotate(27.610668752914517)" fill="white" class="commune"><title>68334 Population : 7838</title></path><path d="M0,-22.448162112566994L5.039926405668234,-6.936863585267022L21.349470856006818,-6.936863585267023L8.154772225169292,2.649646114250548L13.19469863083753,18.16094464155052L8.881784197001252e-16,8.574434942032948L-13.194698630837525,18.160944641550522L-8.154772225169292,2.649646114250549L-21.34947085600682,-6.936863585267019L-5.0399264056682345,-6.936863585267021Z" transform="translate(603.8959736793668,274.1760902229289)rotate(10.89410275124804)" fill="white" class="commune"><title>68066 Population : 69899</title></path><path d="M0,-26.69551410299918L5.993516340710753,-8.249367531402827L25.38894264350654,-8.249367531402829L9.697713151397894,3.150978011306063L15.69122949210865,21.597124582902413L1.7763568394002505e-15,10.196779040193524L-15.691229492108645,21.597124582902417L-9.697713151397892,3.1509780113060657L-25.388942643506542,-8.249367531402822L-5.993516340710755,-8.249367531402825Z" transform="translate(554.328925177655,719.2660945501411)rotate(3.8394780253655183)" fill="white" class="commune"><title>68224 Population : 108999</title></path></g><text class="text" y="40" x="427.5" text-anchor="middle" font-size="36" font-family="Helvetica" fill="#6baed6">68 - HAUT RHIN</text><line x1="600.5915037792527" y1="303.84875717807637" x2="557.6333950777691" y2="689.5934275949936" stroke="yellow" opacity="0.35" stroke-width="2"/><line x1="549.867890812501" y1="729.7376879064075" x2="491.8744440654975" y2="865.8684015378706" stroke="yellow" opacity="0.35" stroke-width="2"/><line x1="479.1522349500581" y1="860.5409350461899" x2="371.7569631963481" y2="655.1531570228786" stroke="yellow" opacity="0.35" stroke-width="2"/><line x1="379.5224674616164" y1="615.0088967114648" x2="587.8692946638132" y2="298.52129068639573" stroke="yellow" opacity="0.35" stroke-width="2"/></svg>