<svg viewBox="0,0,900,600" width="900" height="600" style="width: 100%; height: auto;" xmlns="http://www.w3.org/2000/svg" xmlns:xlink="http://www.w3.org/1999/xlink"><rect width="954" height="1144.8" fill="black"/><g stroke="#000" stroke-opacity="0.2"><path d="M0,-12.295364763585766L2.760481380550424,-3.7994766639869093L11.693586778634064,-3.7994766639869098L4.466552699041819,1.4512709461809354L7.227034079592245,9.947159045779792L8.881784197001252e-16,4.696411435611947L-7.227034079592243,9.947159045779793L-4.466552699041818,1.4512709461809363L-11.693586778634064,-3.799476663986907L-2.760481380550425,-3.7994766639869084Z" transform="translate(309.75867495531566,100.00000000001091)" fill="white" class="commune"><title>26</title></path><path d="M0,-7.310867629204971L1.641392049291549,-2.2591823410500176L6.953048298526688,-2.259182341050018L2.6558281246175692,0.8629308674975495L4.297220173909119,5.914616155652502L4.440892098500626e-16,2.792502947104935L-4.297220173909118,5.914616155652503L-2.6558281246175692,0.8629308674975502L-6.953048298526689,-2.2591823410500163L-1.6413920492915497,-2.259182341050017Z" transform="translate(440.328184479677,580.0000000000109)" fill="white" class="commune"><title>26</title></path><path d="M0,-7.310867629204971L1.641392049291549,-2.2591823410500176L6.953048298526688,-2.259182341050018L2.6558281246175692,0.8629308674975495L4.297220173909119,5.914616155652502L4.440892098500626e-16,2.792502947104935L-4.297220173909118,5.914616155652503L-2.6558281246175692,0.8629308674975502L-6.953048298526689,-2.2591823410500163L-1.6413920492915497,-2.259182341050017Z" transform="translate(590.2413250446848,248.32203690414826)" fill="white" class="commune"><title>26</title></path></g><text class="text" y="25" x="477" text-anchor="middle" font-size="16" font-family="Helvetica" fill="#878787">26 - DROME</text><line x1="318.4633089236064" y1="132.0000000000109" x2="431.62355051138627" y2="548.0000000000109" stroke="yellow" stroke-width="0.3"/><line x1="450.32239385067754" y1="557.8881357936201" x2="580.2471156736843" y2="270.4339011105391" stroke="yellow" stroke-width="0.3"/><line x1="571.5424817053935" y1="238.4339011105391" x2="328.4575182946069" y2="109.88813579362007" stroke="yellow" stroke-width="0.3"/></svg>