<svg viewBox="0,0,955,1146" width="955" height="1146" style="width: 100%; height: auto;" xmlns="http://www.w3.org/2000/svg" xmlns:xlink="http://www.w3.org/1999/xlink"><rect width="955" height="1146" fill="black"/><g stroke="#000" stroke-opacity="0.2"><path d="M0,-13.34775705149959L2.9967581703553763,-4.1246837657014135L12.69447132175327,-4.124683765701414L4.848856575698947,1.5754890056530315L7.845614746054325,10.798562291451207L8.881784197001252e-16,5.098389520096762L-7.845614746054323,10.798562291451208L-4.848856575698946,1.5754890056530328L-12.694471321753271,-4.124683765701411L-2.9967581703553776,-4.124683765701413Z" transform="translate(748.6140724946696,243.35715896571492)rotate(8.735697049068376)" fill="white" class="commune"><title>16106 Population : 2691</title></path><path d="M0,-15.873247654971056L3.5637661381291506,-4.905103281308338L15.096355617026989,-4.905103281308339L5.766294739448918,1.873582735131148L9.330060877578072,12.841727108793865L8.881784197001252e-16,6.063041092354379L-9.330060877578068,12.841727108793867L-5.766294739448918,1.8735827351311491L-15.09635561702699,-4.905103281308335L-3.563766138129152,-4.905103281308337Z" transform="translate(107.33120113717129,547.2277512247529)rotate(10.213236227975171)" fill="white" class="commune"><title>16102 Population : 18702</title></path><path d="M0,-22.448162112566994L5.039926405668234,-6.936863585267022L21.349470856006818,-6.936863585267023L8.154772225169292,2.649646114250548L13.19469863083753,18.16094464155052L8.881784197001252e-16,8.574434942032948L-13.194698630837525,18.160944641550522L-8.154772225169292,2.649646114250549L-21.34947085600682,-6.936863585267019L-5.0399264056682345,-6.936863585267021Z" transform="translate(416.07320540156365,592.3318081698962)rotate(3.3442412036820492)" fill="white" class="commune"><title>16015 Population : 41935</title></path></g><text class="text" y="40" x="427.5" text-anchor="middle" font-size="36" font-family="Helvetica" fill="#6baed6">16 - CHARENTE</text><line x1="395.4904051172708" y1="589.32487104022" x2="127.91400142146412" y2="550.2346883544291" stroke="yellow" opacity="0.35" stroke-width="2"/><line x1="150.0833925610045" y1="526.969711740817" x2="705.8618810708364" y2="263.6151984496508" stroke="yellow" opacity="0.35" stroke-width="2"/><line x1="726.4446813551292" y1="266.622135579327" x2="438.24259654110404" y2="569.0668315562841" stroke="yellow" opacity="0.35" stroke-width="2"/></svg>