<svg viewBox="0,0,955,1146" width="955" height="1146" style="width: 100%; height: auto;" xmlns="http://www.w3.org/2000/svg" xmlns:xlink="http://www.w3.org/1999/xlink"><rect width="955" height="1146" fill="black"/><g stroke="#000" stroke-opacity="0.2"><path d="M0,-13.34775705149959L2.9967581703553763,-4.1246837657014135L12.69447132175327,-4.124683765701414L4.848856575698947,1.5754890056530315L7.845614746054325,10.798562291451207L8.881784197001252e-16,5.098389520096762L-7.845614746054323,10.798562291451208L-4.848856575698946,1.5754890056530328L-12.694471321753271,-4.124683765701411L-2.9967581703553776,-4.124683765701413Z" transform="translate(200.7415902140674,407.8714798304645)rotate(13.311888978170689)" fill="white" class="commune"><title>15120 Population : 3667</title></path><path d="M0,-13.34775705149959L2.9967581703553763,-4.1246837657014135L12.69447132175327,-4.124683765701414L4.848856575698947,1.5754890056530315L7.845614746054325,10.798562291451207L8.881784197001252e-16,5.098389520096762L-7.845614746054323,10.798562291451208L-4.848856575698946,1.5754890056530328L-12.694471321753271,-4.124683765701411L-2.9967581703553776,-4.124683765701413Z" transform="translate(730.7339449541282,594.188262101743)rotate(24.587830055605213)" fill="white" class="commune"><title>15187 Population : 6504</title></path><path d="M0,-18.876579049491834L4.238056047668955,-5.833183721955068L17.952693510379785,-5.833183721955069L6.857318731355415,2.2280779191642193L11.095374779024372,15.271473246700983L8.881784197001252e-16,7.210211605581696L-11.095374779024368,15.271473246700985L-6.857318731355414,2.2280779191642206L-17.952693510379788,-5.833183721955065L-4.238056047668956,-5.833183721955068Z" transform="translate(286.5366972477061,696.8875093477036)rotate(17.058956178800596)" fill="white" class="commune"><title>15014 Population : 25954</title></path></g><text class="text" y="40" x="427.5" text-anchor="middle" font-size="36" font-family="Helvetica" fill="#6baed6">15 - CANTAL</text><line x1="280.8170234454635" y1="677.6197740465543" x2="206.46126401630997" y2="427.1392151316138" stroke="yellow" opacity="0.35" stroke-width="2"/><line x1="236.0744138634048" y1="420.29259864854976" x2="695.4011213047909" y2="581.7671432836578" stroke="yellow" opacity="0.35" stroke-width="2"/><line x1="701.1207951070334" y1="601.0348785848071" x2="316.1498470948009" y2="690.0408928646395" stroke="yellow" opacity="0.35" stroke-width="2"/></svg>