<svg viewBox="0,0,954,1144.8" width="954" height="1144.8" style="width: 100%; height: auto;" xmlns="http://www.w3.org/2000/svg" xmlns:xlink="http://www.w3.org/1999/xlink"><rect width="954" height="1144.8" fill="black"/><g stroke="#000" stroke-opacity="0.2"><path d="M0,-13.34775705149959L2.9967581703553763,-4.1246837657014135L12.69447132175327,-4.124683765701414L4.848856575698947,1.5754890056530315L7.845614746054325,10.798562291451207L8.881784197001252e-16,5.098389520096762L-7.845614746054323,10.798562291451208L-4.848856575698946,1.5754890056530328L-12.694471321753271,-4.124683765701411L-2.9967581703553776,-4.124683765701413Z" transform="translate(319.4948755490482,458.2606448309598)rotate(7.9949793703666305)" fill="white" class="commune"><title>insee_com : 46127 
Population : 4094
 Nom : GOURDON</title></path><path d="M0,-13.34775705149959L2.9967581703553763,-4.1246837657014135L12.69447132175327,-4.124683765701414L4.848856575698947,1.5754890056530315L7.845614746054325,10.798562291451207L8.881784197001252e-16,5.098389520096762L-7.845614746054323,10.798562291451208L-4.848856575698946,1.5754890056530328L-12.694471321753271,-4.124683765701411L-2.9967581703553776,-4.124683765701413Z" transform="translate(799.5104929233773,589.4779008426485)rotate(7.791481368738261)" fill="white" class="commune"><title>insee_com : 46102 
Population : 9792
 Nom : FIGEAC</title></path><path d="M0,-15.873247654971056L3.5637661381291506,-4.905103281308338L15.096355617026989,-4.905103281308339L5.766294739448918,1.873582735131148L9.330060877578072,12.841727108793865L8.881784197001252e-16,6.063041092354379L-9.330060877578068,12.841727108793867L-5.766294739448918,1.8735827351311491L-15.09635561702699,-4.905103281308335L-3.563766138129152,-4.905103281308337Z" transform="translate(362.9521717911175,757.8094040351061)rotate(7.880283937531955)" fill="white" class="commune"><title>insee_com : 46042 
Population : 19878
 Nom : CAHORS</title></path></g><text class="text" y="40" x="427" text-anchor="middle" font-size="36" font-family="Helvetica" fill="#6baed6">46  - LOT</text><line x1="392.0560598666015" y1="746.5873038222757" x2="770.4066048478934" y2="600.700001055479" stroke="yellow" opacity="0.35" stroke-width="2"/><line x1="767.5094517650888" y1="580.7300837752026" x2="351.4959167073368" y2="467.0084618984057" stroke="yellow" opacity="0.35" stroke-width="2"/><line x1="322.3920286318528" y1="478.2305621112362" x2="360.0550187083129" y2="737.8394867548297" stroke="yellow" opacity="0.35" stroke-width="2"/></svg>