<svg viewBox="0,0,954,1144.8" width="954" height="1144.8" style="width: 100%; height: auto;" xmlns="http://www.w3.org/2000/svg" xmlns:xlink="http://www.w3.org/1999/xlink"><rect width="954" height="1144.8" fill="black"/><g stroke="#000" stroke-opacity="0.2"><path d="M0,-13.34775705149959L2.9967581703553763,-4.1246837657014135L12.69447132175327,-4.124683765701414L4.848856575698947,1.5754890056530315L7.845614746054325,10.798562291451207L8.881784197001252e-16,5.098389520096762L-7.845614746054323,10.798562291451208L-4.848856575698946,1.5754890056530328L-12.694471321753271,-4.124683765701411L-2.9967581703553776,-4.124683765701413Z" transform="translate(559.3954029192191,554.5841910140734)rotate(28.81760158812523)" fill="white" class="commune"><title>insee_com : 26113 
Population : 4621
 Nom : DIE</title></path><path d="M0,-13.34775705149959L2.9967581703553763,-4.1246837657014135L12.69447132175327,-4.124683765701414L4.848856575698947,1.5754890056530315L7.845614746054325,10.798562291451207L8.881784197001252e-16,5.098389520096762L-7.845614746054323,10.798562291451208L-4.848856575698946,1.5754890056530328L-12.694471321753271,-4.124683765701411L-2.9967581703553776,-4.124683765701413Z" transform="translate(414.60993501583516,901.9801171237959)rotate(23.988837730124704)" fill="white" class="commune"><title>insee_com : 26220 
Population : 6793
 Nom : NYONS</title></path><path d="M0,-22.448162112566994L5.039926405668234,-6.936863585267022L21.349470856006818,-6.936863585267023L8.154772225169292,2.649646114250548L13.19469863083753,18.16094464155052L8.881784197001252e-16,8.574434942032948L-13.194698630837525,18.160944641550522L-8.154772225169292,2.649646114250549L-21.34947085600682,-6.936863585267019L-5.0399264056682345,-6.936863585267021Z" transform="translate(257.60601704452256,393.5995609435922)rotate(11.928539736911024)" fill="white" class="commune"><title>insee_com : 26362 
Population : 63714
 Nom : VALENCE</title></path></g><text class="text" y="40" x="427" text-anchor="middle" font-size="36" font-family="Helvetica" fill="#6baed6">26  - DROME</text><line x1="549.7430383923269" y1="577.7439194213882" x2="424.2622995427274" y2="878.8203887164811" stroke="yellow" opacity="0.35" stroke-width="2"/><line x1="404.143007151081" y1="868.0880800451157" x2="268.0729449092767" y2="427.49159802227246" stroke="yellow" opacity="0.35" stroke-width="2"/><line x1="277.72530943616897" y1="404.3318696149576" x2="539.2761105275727" y2="543.851882342708" stroke="yellow" opacity="0.35" stroke-width="2"/></svg>