<svg viewBox="0,0,954,1144.8" width="954" height="1144.8" style="width: 100%; height: auto;" xmlns="http://www.w3.org/2000/svg" xmlns:xlink="http://www.w3.org/1999/xlink"><rect width="954" height="1144.8" fill="black"/><g stroke="#000" stroke-opacity="0.2"><path d="M0,-13.34775705149959L2.9967581703553763,-4.1246837657014135L12.69447132175327,-4.124683765701414L4.848856575698947,1.5754890056530315L7.845614746054325,10.798562291451207L8.881784197001252e-16,5.098389520096762L-7.845614746054323,10.798562291451208L-4.848856575698946,1.5754890056530328L-12.694471321753271,-4.124683765701411L-2.9967581703553776,-4.124683765701413Z" transform="translate(471.19243685209585,879.6301279028339)rotate(2.172512442336302)" fill="white" class="commune"><title>insee_com : 08490 
Population : 4340
 Nom : VOUZIERS</title></path><path d="M0,-13.34775705149959L2.9967581703553763,-4.1246837657014135L12.69447132175327,-4.124683765701414L4.848856575698947,1.5754890056530315L7.845614746054325,10.798562291451207L8.881784197001252e-16,5.098389520096762L-7.845614746054323,10.798562291451208L-4.848856575698946,1.5754890056530328L-12.694471321753271,-4.124683765701411L-2.9967581703553776,-4.124683765701413Z" transform="translate(471.19243685209585,879.6301279028339)rotate(22.60212934943915)" fill="white" class="commune"><title>insee_com : 08490 
Population : 4340
 Nom : VOUZIERS</title></path><path d="M0,-13.34775705149959L2.9967581703553763,-4.1246837657014135L12.69447132175327,-4.124683765701414L4.848856575698947,1.5754890056530315L7.845614746054325,10.798562291451207L8.881784197001252e-16,5.098389520096762L-7.845614746054323,10.798562291451208L-4.848856575698946,1.5754890056530328L-12.694471321753271,-4.124683765701411L-2.9967581703553776,-4.124683765701413Z" transform="translate(249.97707694554038,767.4493705792192)rotate(4.994760777952275)" fill="white" class="commune"><title>insee_com : 08362 
Population : 7592
 Nom : RETHEL</title></path><path d="M0,-15.873247654971056L3.5637661381291506,-4.905103281308338L15.096355617026989,-4.905103281308339L5.766294739448918,1.873582735131148L9.330060877578072,12.841727108793865L8.881784197001252e-16,6.063041092354379L-9.330060877578068,12.841727108793867L-5.766294739448918,1.8735827351311491L-15.09635561702699,-4.905103281308335L-3.563766138129152,-4.905103281308337Z" transform="translate(631.3623886698792,569.3737243027936)rotate(21.975719678440722)" fill="white" class="commune"><title>insee_com : 08409 
Population : 16428
 Nom : SEDAN</title></path><path d="M0,-22.448162112566994L5.039926405668234,-6.936863585267022L21.349470856006818,-6.936863585267023L8.154772225169292,2.649646114250548L13.19469863083753,18.16094464155052L8.881784197001252e-16,8.574434942032948L-13.194698630837525,18.160944641550522L-8.154772225169292,2.649646114250549L-21.34947085600682,-6.936863585267019L-5.0399264056682345,-6.936863585267021Z" transform="translate(483.665498612937,511.4821735902515)rotate(27.28048056618748)" fill="white" class="commune"><title>insee_com : 08105 
Population : 46428
 Nom : CHARLEVILLE MEZIERES</title></path></g><text class="text" y="40" x="427" text-anchor="middle" font-size="36" font-family="Helvetica" fill="#6baed6">08  - ARDENNES</text><line x1="493.51195795006646" y1="515.3416103044209" x2="621.5159293327498" y2="565.5142875886241" stroke="yellow" opacity="0.35" stroke-width="2"/><line x1="620.6843918820271" y1="590.0574845427963" x2="481.8704336399481" y2="858.9463676628312" stroke="yellow" opacity="0.35" stroke-width="2"/><line x1="456.4447461916588" y1="872.1514107479263" x2="264.72476760597743" y2="774.9280877341268" stroke="yellow" opacity="0.35" stroke-width="2"/><line x1="265.5563050567001" y1="750.3848907799547" x2="468.0862705017772" y2="528.546653389516" stroke="yellow" opacity="0.35" stroke-width="2"/></svg>