<svg viewBox="0,0,955,1146" width="955" height="1146" style="width: 100%; height: auto;" xmlns="http://www.w3.org/2000/svg" xmlns:xlink="http://www.w3.org/1999/xlink"><rect width="955" height="1146" fill="black"/><g stroke="#000" stroke-opacity="0.2"><path d="M0,-15.873247654971056L3.5637661381291506,-4.905103281308338L15.096355617026989,-4.905103281308339L5.766294739448918,1.873582735131148L9.330060877578072,12.841727108793865L8.881784197001252e-16,6.063041092354379L-9.330060877578068,12.841727108793867L-5.766294739448918,1.8735827351311491L-15.09635561702699,-4.905103281308335L-3.563766138129152,-4.905103281308337Z" transform="translate(432.2499999999998,314.54859138289976)rotate(18.329811686577067)" fill="white" class="commune"><title>56178 Population : 14491</title></path><path d="M0,-22.448162112566994L5.039926405668234,-6.936863585267022L21.349470856006818,-6.936863585267023L8.154772225169292,2.649646114250548L13.19469863083753,18.16094464155052L8.881784197001252e-16,8.574434942032948L-13.194698630837525,18.160944641550522L-8.154772225169292,2.649646114250549L-21.34947085600682,-6.936863585267019L-5.0399264056682345,-6.936863585267021Z" transform="translate(545.6411764705881,642.28209302084)rotate(2.356890592905466)" fill="white" class="commune"><title>56260 Population : 53218</title></path><path d="M0,-22.448162112566994L5.039926405668234,-6.936863585267022L21.349470856006818,-6.936863585267023L8.154772225169292,2.649646114250548L13.19469863083753,18.16094464155052L8.881784197001252e-16,8.574434942032948L-13.194698630837525,18.160944641550522L-8.154772225169292,2.649646114250549L-21.34947085600682,-6.936863585267019L-5.0399264056682345,-6.936863585267021Z" transform="translate(215.04999999999973,570.2934665849352)rotate(7.558942453893593)" fill="white" class="commune"><title>56121 Population : 57274</title></path></g><text class="text" y="40" x="427.5" text-anchor="middle" font-size="36" font-family="Helvetica" fill="#6baed6">56 - MORBIHAN</text><line x1="229.52999999999972" y1="553.2438082381328" x2="417.76999999999975" y2="331.5982497297021" stroke="yellow" opacity="0.35" stroke-width="2"/><line x1="439.80941176470566" y1="336.39749149209575" x2="538.0817647058822" y2="620.4331929116439" stroke="yellow" opacity="0.35" stroke-width="2"/><line x1="523.6017647058823" y1="637.4828512584463" x2="237.08941176470563" y2="575.0927083473289" stroke="yellow" opacity="0.35" stroke-width="2"/></svg>