<svg viewBox="0,0,954,1144.8" width="954" height="1144.8" style="width: 100%; height: auto;" xmlns="http://www.w3.org/2000/svg" xmlns:xlink="http://www.w3.org/1999/xlink"><rect width="954" height="1144.8" fill="black"/><path d="M408.8790838103105,175.47625366217108L422.53578299869696,162.11529354110826L443.67115079024643,140.34032922709594L459.92912601451644,126.97746933650342L478.4632177701842,114.60380658973008L481.0644938060668,112.12899968685815L491.7947574540849,100.24958151814644L497.32246903033683,95.79465245991014L508.3778921828398,87.87458025087835L523.3352293891676,78.46916475644684L530.8138979923324,70.05348950318876L536.9919285775541,64.60789982200367L543.4951186672633,60.64739557376015L548.0473517300579,58.66711964143906L554.5505418197672,54.70652015862288L560.7285724049889,50.25076984622865L567.2317624946963,46.29003543726867L586.7413327638205,39.85370658960892L607.5515410508851,30.94158980771317L618.9321237078748,27.97081276657991L628.3617493379506,26.485410849010805L638.4416939769981,24.999999999970896L640.0674914994252,25.99027489166474L646.2455220846477,26.980545814003563L653.3990311833259,27.47567978646839L665.1047733448004,27.47567978646839L677.7859940197304,29.951334763434716L688.5162576677485,33.912331124418415L705.749711405474,40.3488147619064L718.430932080405,43.31944295929861L723.3083246476863,44.30964442071854L746.0694899616637,49.75568151767948L758.7507106365929,54.21144075904158L763.6281032038742,56.686827836500015L772.0822503204945,61.63752758788178L775.6590048698354,65.10295838920865L778.260280905718,68.0732889608189L781.1867164460864,71.53862949484028L782.8125139685126,75.00392142604687L784.4383114909406,79.45922535282443L786.0641090133659,87.37956730855512L788.0150660402796,102.22952420727233L787.6899065357939,110.14913631853415L786.0641090133659,117.57354215654777L779.8860784281442,135.3912061121373L776.9596428877758,141.33014195627766L764.9287412218164,158.651223005465L760.0513486545351,164.58959991126903L752.2475205468872,174.98141616757493L745.4191709526931,179.43491795196314L741.5172568988692,182.40387455985183L739.2411403674705,184.87797782299458L736.9650238360728,188.34168078482617L732.0876312687915,198.73249844071688L712.5780609996682,208.13333802911802L721.6825271252592,226.43921017288812L720.7070486118027,226.9339446593076L727.2102387015102,237.32314015447628L727.535398205996,237.8178528584831L726.2347601880547,238.31256457229028L735.6643858181305,254.14281670126365L734.688907304675,259.08956260964624L731.4373122598208,270.46670257189544L732.4127907732773,274.9184843854164L727.8605577104809,279.37018603782053L708.3509874413576,288.2733488751983L692.7433312260591,297.17619111572276L680.0621105511282,306.07871279129176L663.1538163178884,318.44279448798625L651.4480741564139,327.34455049876124L640.3926510039091,329.322674981202L638.7668534814838,330.31173128815135L620.8830807347877,343.66360424348386L617.3063261854468,348.60855942583294L617.3063261854468,348.60855942583294L605.925743528459,361.4649801410851L605.6005840239732,362.4539078963571L602.348988979119,383.22047728463076L601.0483509611786,383.71489815964014L594.5451608714693,386.18698770855553L532.7648550192453,374.32073250351823L522.6849103801969,404.47968241671333L520.733953353285,405.4684381825209L493.7457144809987,395.58070264119306L491.14443844511334,393.6031080953835L482.36513182400813,406.95156441960717L478.7883772746691,411.40088976960396L475.5367822298149,414.36706220326596L470.00907065356387,417.82755175049533L458.30332849208844,423.26536607844173L452.12529790686585,426.23139623220777L445.6221078171593,430.1860477775044L442.37051277230603,435.1292732960428L434.8918441691412,448.4754887680174L430.9899301153164,463.3037725679169L426.1125375480351,478.13116756032105L421.8854639897263,493.9460760549118L421.23514498075474,507.28911876451457L429.0389730884035,510.7483086670982L470.00907065356387,524.5845846457232L471.9600276804749,525.5728604648903L473.26066569841805,526.5611323362391L480.41417479709526,535.9495182417741L506.7520946604145,546.3257408563804L513.2552847501202,546.8198358415975L509.02821119181044,559.6659591625503L510.65400871423844,579.9219525541412L521.7094318667423,599.6822995528346L546.7467137121166,604.1281601888768L562.0292104229302,600.6702754852886L563.0046889363866,600.6702754852886L563.9801674498431,601.6582474736206L569.833038530579,608.5739409578673L561.3788914139595,615.9833981016709L562.3543699274151,633.2712688229512L563.0046889363866,634.2591106770269L579.2626641606566,633.7651902428479L587.3916517727921,626.3562654439302L599.7477129432364,611.0437846539135L614.3798906450784,619.441068854765L633.2391419052319,631.7894986489555L642.343608030822,637.7165261180489L671.9331229389936,647.5945898324717L713.5535395131237,661.4232167644077L773.3828883384367,681.670883841376L771.4319313115257,687.596717006003L762.3274651859329,703.3982452988275L750.946882528945,724.1362206476624L738.9159808629838,723.6424795176135L729.8115147373937,722.1612502190983L725.9096006835689,730.0610374043754L727.2102387015102,741.9102455688699L734.0385882957025,741.4165398841724L735.9895453226172,743.3913567158161L738.2656618540141,741.9102455688699L745.744330457178,744.8724590025668L746.7198089706344,742.4039502691012L747.0449684751193,742.8976539846917L746.7198089706344,738.4542851017031L747.370127979606,736.9731444192294L748.3456064930615,736.9731444192294L748.3456064930615,734.0108364715416L748.9959255020322,731.0484930788225L749.6462445110028,730.0610374043754L753.5481585648276,730.554765733832L752.2475205468872,738.4542851017031L745.4191709526931,763.6323211201525L728.5108767194533,830.7612366577378L739.5662998719545,835.6964681949466L749.321085006517,839.1510717547499L748.0204469885757,848.0341167846636L748.6707659975464,848.5276099443436L747.0449684751193,853.9559698036464L748.3456064930615,854.4494511638186L747.0449684751193,859.3842106878292L751.5972015379157,860.8646193724126L748.3456064930615,870.7337844763824L748.9959255020322,870.7337844763824L747.6952874840918,874.6813404107234L754.1984775737983,876.6550947848591L751.2720420334299,884.5499550025852L748.9959255020322,883.5631112367846L746.3946494661486,888.0038772208791L744.7688519437224,887.0170472158643L738.2656618540141,901.819084496994L734.688907304675,912.673349702236L732.4127907732773,916.1268798018864L725.2592816745973,926.9805181086995L723.6334841521721,927.9671889201854L721.3573676207734,932.9004840320267L719.4064105938623,935.367094747693L718.7560915848908,935.367094747693L717.7806130714343,938.8203084904235L717.4554535669495,939.3136208099604L716.8051345579788,940.7935518746963L716.8051345579788,941.7801676730451L717.7806130714343,942.2734740987653L717.4554535669495,944.739991492941L715.8296560445215,950.1662433217571L714.5290180265811,958.5520351126906L711.9277419906975,957.5654861048388L710.3019444682695,961.018390445417L711.277422981726,967.9240547617665L708.6761469458443,971.8700622387696L709.0013064503291,972.3633087544586L695.9949262709133,991.5991569892794L705.0993923965043,997.0243826494552L703.1484353695923,999.4903550450108L705.4245519009883,1003.4358598316903L700.5471593337088,1007.3813017944049L707.7006684323869,1011.3266809361812L713.5535395131237,1011.8198489120114L722.9831651432014,1018.2309432794573L723.3083246476863,1017.2446318654402L725.2592816745973,1017.7377880631248L728.1857172149676,1019.7104030394985L730.4618337463644,1020.203554329928L732.7379502777621,1023.1624414627149L735.0140668091599,1024.1487293223618L730.4618337463644,1032.5320176382666L734.3637478001892,1034.0113920189615L727.8605577104809,1042.8874528443266L724.9341221701125,1045.3529688760464L723.6334841521721,1044.3667654068558L721.0322081162876,1047.325364040531L720.381889107316,1046.3391684206144L714.2038585220944,1051.2701072750497L722.9831651432014,1063.1039602478559L718.430932080405,1068.03456555109L718.430932080405,1068.03456555109L717.7806130714343,1069.5137280139606L713.8786990176104,1072.9650727629487L714.2038585220944,1073.458118089271L709.9767849637856,1076.4163694497256L715.1793370355508,1082.8257929339889L726.8850791970253,1077.8954818886996L728.5108767194533,1082.3327662428783L723.9586436566569,1089.23505067121L722.0076866297441,1094.6581393060915L721.3573676207734,1098.1091339304403L717.4554535669495,1098.602129240171L717.7806130714343,1100.5741006731405L714.5290180265811,1114.8704243868997L713.8786990176104,1115.363386359997L709.6516254592998,1115.8563473525573L693.3936502350298,1119.7999999999884L680.0621105511282,1119.307046850241L677.4608345152446,1105.5039606172068L673.5589204614207,1092.1931137272913L672.5834419479634,1086.2769523105817L675.8350369928194,1063.5970251925173L673.233760956934,1066.0623352011899L666.4054113627417,1071.4859308987798L658.9267427595769,1076.4163694497256L652.7487121743552,1079.8676180761831L648.1964791115606,1082.8257929339889L633.8894609142035,1089.23505067121L609.5024980777971,1097.6161376402015L606.9012220419136,1099.09512356919L604.9502650150025,1100.5741006731405L602.348988979119,1103.532028405869L600.398031952207,1100.0811092857039L598.772234429779,1096.6301421179378L596.1709583938973,1093.6721320164506L593.8948418624987,1089.7280636322976L587.716811277277,1075.4302895862493L587.0664922683054,1071.978979167674L587.716811277277,1069.5137280139606L586.7413327638205,1068.03456555109L585.7658542503641,1067.0484523379419L585.1155352413934,1064.090089156205L586.7413327638205,1063.5970251925173L589.0174492952174,1064.090089156205L590.3180873131587,1063.5970251925173L592.9193633490422,1059.1594053759472L593.8948418624987,1059.1594053759472L594.2200013669844,1058.1732568479201L597.1464369073537,1056.2009480195993L598.447074925295,1055.7078683599539L598.772234429779,1054.7217060974508L599.4225534387506,1054.2286234945059L599.7477129432364,1053.7355399106746L600.7231914566919,1053.7355399106746L600.7231914566919,1052.7493697996542L601.6986699701492,1052.7493697996542L602.0238294746323,1051.7631957642734L602.6741484836039,1052.2562832724361L604.2999460060319,1049.7908359204303L605.2754245194883,1049.2977435067296L606.2509030329438,1049.7908359204303L606.2509030329438,1048.8046501118224L607.2263815464003,1048.8046501118224L607.5515410508851,1047.8184603787086L608.8521790688264,1046.3391684206144L610.1528170867696,1045.8460691388464L610.4779765912544,1044.8598676321271L611.7786146091948,1044.8598676321271L612.4289336181655,1043.3805580129847L613.7295716361077,1043.3805580129847L618.2818046989041,1039.9288012268662L616.0056881675064,1036.9701142854174L620.232761725817,1030.559504725854L615.6805286630206,1025.1350132564257L615.6805286630206,1024.1487293223618L614.3798906450784,1023.1624414627149L610.4779765912544,1018.7240975143213L609.1773385733122,1015.7651573832845L609.5024980777971,1014.2856740678544L607.2263815464003,1012.806181918917L604.2999460060319,1006.8881249846891L601.3735104656635,1003.4358598316903L596.821277402868,1000.4767371315684L593.8948418624987,999.4903550450108L594.2200013669844,998.5039690317935L589.667768304188,996.0379868193995L586.7413327638205,992.5855704902788L586.4161732593348,992.0923642305715L589.9929278086738,985.6805935141747L587.3916517727921,984.2009305549145L574.7104310978602,979.7618886575219L572.1091550619776,979.7618886575219L568.2072410081537,980.2551194624393L571.458836053007,971.8700622387696L573.084633575435,965.4577681734518L565.931124476755,965.4577681734518L566.9066029902115,960.0318512586236L566.5814434857257,959.0453081435408L561.0537319094738,957.5654861048388L553.5750633063099,961.5116585657815L545.4460756941753,968.4173091332777L544.145437676234,969.8970663561777L535.6912905596137,963.9779844359728L534.0654930371866,963.4847212260938L521.3842723622565,962.0049257039209L519.7584748398294,963.4847212260938L515.206241777033,963.4847212260938L510.0036897052669,965.4577681734518L506.10177565144295,962.4981918600679L505.77661614695717,961.5116585657815L502.85018060658876,960.0318512586236L495.37151200342396,964.9645079096372L489.51864092268715,956.0856552270707L474.88646322084514,950.1662433217571L468.058113626651,936.8470493887435L449.8491813754699,938.3269951884286L449.52402187098323,939.3136208099604L448.5485433575277,939.3136208099604L449.19886236649836,937.8336809042667L448.8737028620126,930.4338487564528L450.1743408799548,924.0204820946383L449.19886236649836,920.0737123894214L445.9472673216442,914.6468013690319L442.69567227679,913.6600775008556L442.04535326782025,912.673349702236L441.3950342588496,910.2065130099072L442.37051277230603,903.2992395772308L442.04535326782025,901.3256975048571L440.744715249878,899.3521397085569L436.19248218708344,897.3785661880102L435.86732268259766,897.3785661880102L435.5421631781128,896.3917735310679L434.56668466465544,894.9115771747311L433.2660466467132,891.9511579257378L430.6647706108315,889.4841148567793L429.0389730884035,889.4841148567793L425.78737804355023,888.4972907491028L423.83642101663736,886.5236307391024L422.53578299869696,883.069687879557L420.90998547626896,881.095984620857L420.5848259717841,879.122265634709L421.5603044852396,874.1878993595601L420.5848259717841,871.7206793583173L420.5848259717841,869.7468856621126L419.28418795384096,867.2796214223199L419.60934745832765,867.2796214223199L423.1861020076676,865.7992510809563L429.0389730884035,862.3450192082964L418.30870944038634,841.125109296263L412.13067885516375,841.125109296263L404.9771697564838,843.5926340964797L379.9398879111095,830.2677080947906L371.81090029897405,832.7353410745854L365.63286971375237,844.5796371329343L365.3077102092666,844.0861361063144L363.6819126868395,847.047127515194L363.03159367786884,846.0601343123126L380.2650474155944,814.4742747490236L379.9398879111095,814.4742747490236L374.73733583934427,801.6413684561267L365.3077102092666,796.7054581808334L362.0561151644133,796.2118617420492L360.4303176419853,795.7182643192355L357.17872259713204,792.2630548104644L356.85356309264716,791.2758432383125L357.8290416061018,788.3141849066888L357.17872259713204,785.846109237551L356.5284035881614,784.8588720818225L353.60196804779116,782.8843859620392L351.00069201190945,779.4289973665727L337.9943118324936,778.9353664881492L337.34399282352297,778.4417346255213L331.16596223829947,783.3780089681095L286.94426962828766,785.3524911517743L300.27580931218745,768.0752381774073L296.6990547628484,766.5942746829824L295.0732572404222,766.1006182165002L285.9687911148303,768.5688907070144L285.64363161034544,768.0752381774073L284.01783408791744,768.5688907070144L278.8152820161522,749.3157127021987L278.8152820161522,747.8346369954816L287.5945886372574,745.3661577957973L283.69267458343256,740.922833215096L284.01783408791744,740.922833215096L282.7171960699761,738.4542851017031L278.8152820161522,731.5422194390267L279.14044152063707,731.5422194390267L278.8152820161522,731.0484930788225L272.9624109354136,724.1362206476624L271.6617729174732,725.123699953896L269.06049688158964,722.1612502190983L268.73533737710386,721.6675051502825L269.06049688158964,721.1737590967386L265.80890183673637,717.7175091489335L265.80890183673637,717.2237552173319L266.459220845707,714.2612109476759L265.80890183673637,713.7674501227157L264.833423323279,713.2736883128237L264.18310431430837,712.7799255182326L264.18310431430837,709.3235583804781L266.7843803501919,702.4106793299434L260.6063497649693,696.9789960774069L242.7225770182722,693.0286061259394L237.52002494650696,706.854695165297L233.61811089268213,710.8048644914234L221.26204972223786,710.3110967727262L218.9859331908392,709.8173280690098L216.70981665944237,708.3360160491138L214.10854062355793,706.854695165297L212.15758359664505,704.8795868653688L207.60535053385047,702.4106793299434L194.59897035443464,692.0409987877065L193.948651345464,692.0409987877065L190.37189679612402,692.0409987877065L185.81966373332943,688.0905300331942L185.16934472435878,687.1029029937927L183.86870670641565,684.6338181559986L182.56806868847525,682.6585325534979L182.24290918399038,678.7079140610294L180.94227116604816,679.2017448206607L184.51902571538722,668.3372405209229L184.8441852198721,665.8679684922681L176.71519760773845,638.2104386669816L175.08940008531044,630.8016469379072L166.9604124731759,594.2483614195953L166.63525296869102,589.3083141197276L167.93589098663324,581.8980582603544L167.28557197766168,579.4279236620059L165.98493395972037,576.4637295965222L166.31009346420524,570.0411873097182L165.98493395972037,565.1006567321019L171.83780504045717,558.1837482001574L178.6661546346504,543.3611502249842L179.31647364362016,542.8670483331662L179.64163314810685,541.8788415892632L179.96679265259172,541.3847367371782L179.96679265259172,540.8906308985606L183.2183876974459,533.9730455499666L184.8441852198721,531.9965570697677L185.49450422884365,531.9965570697677L185.81966373332943,531.0083069087123L186.4699827423001,530.5141803480219L190.37189679612402,530.0200528005371L201.1021604441421,534.9612838694302L203.05311747105407,535.9495182417741L207.28019102936378,536.4436339478416L212.15758359664505,536.9377486670564L212.15758359664505,536.4436339478416L212.15758359664505,535.4554015490576L210.53178607421978,533.9730455499666L209.55630756076243,528.043532742071L194.27381084994886,510.7483086670982L193.6234918409773,508.27746367210057L182.24290918399038,493.9460760549118L184.19386621090143,492.4634713306732L180.2919521570775,489.99244371190434L181.5925901750188,486.03874818372424L180.94227116604816,485.0503144286631L182.24290918399038,484.0618767242995L183.2183876974459,484.0618767242995L184.8441852198721,479.6138581809064L180.2919521570775,477.63693537874497L183.86870670641565,472.20031621085946L187.7706207602423,469.7290861818474L190.6970563006107,468.24633631447796L190.04673729163824,465.28080991693423L190.6970563006107,462.31524796786834L193.948651345464,458.36111006489955L195.89960837237686,456.3840174106881L192.3228538230369,453.4183488000417L193.29833233649242,450.9469311302819L194.59897035443464,445.0154279759736L195.2492893634053,444.02683028861065L201.75247945311366,433.15199494356057L203.70343648002563,431.1747007846134L203.70343648002563,429.6917197922012L203.37827697553985,427.7143979713146L187.12030175127165,434.1406360955152L175.08940008531044,433.64631601344445L173.46360256288517,429.1973908189684L178.01583562567976,425.2427234661882L181.26743067053303,421.2879928825132L187.12030175127165,413.37834201118676L188.74609927369693,410.41215772004216L205.00407449796785,376.2984812441282L206.95503152488072,373.3318522021L211.5072645876753,370.859634148248L215.73433814598593,368.8818419108866L218.33561418186855,367.39848735235864L221.26204972223786,364.9262099824846L223.21300674914892,361.9594445130497L223.86332575812048,357.01475630232017L223.86332575812048,354.5423751194903L221.9123687312076,341.1910895695619L222.56268774017826,337.23501466744347L223.86332575812048,332.78435474744765L225.81428278503245,328.82814534410136L231.99231337025412,320.4209901858121L233.943270397167,316.464582963672L235.5690679195941,311.02441966271726L238.17034395547762,304.59498143882956L239.47098197341893,302.1220760648721L242.7225770182722,298.16537602059543L249.22576710798148,290.7463927658973L259.3057117470271,281.8433189865027L266.459220845707,275.41312186094L280.1159200340935,267.99345581425587L285.9687911148303,265.0255270442576L303.8525638615274,259.58423175645294L316.53378453645746,254.6374957463995L320.1105390857956,252.65877362640458L323.3621341306516,250.68003566825064L330.8408027338146,243.25962725956924L344.4975019222011,234.3548431393283L362.0561151644133,223.96552288747625L367.58382674066434,219.51282339013414L378.96440939765307,208.13333802911802L381.8908449380215,204.66991241043434L385.46759948736144,199.72207734026597L388.7191945322147,195.26894109178102Z" style="fill: none; stroke: rgb(8, 48, 107);"><title>HAUTS DE SEINE</title></path><g stroke="#000" stroke-opacity="0.2"><path d="M0,-22.448162112566994L5.039926405668234,-6.936863585267022L21.349470856006818,-6.936863585267023L8.154772225169292,2.649646114250548L13.19469863083753,18.16094464155052L8.881784197001252e-16,8.574434942032948L-13.194698630837525,18.160944641550522L-8.154772225169292,2.649646114250549L-21.34947085600682,-6.936863585267019L-5.0399264056682345,-6.936863585267021Z" transform="translate(653.7241906878126,999.9835465791693)rotate(24.274532690096315)" fill="white" class="commune"><title>insee_com : 92002 
Population : 62570
 Nom : ANTONY</title></path><path d="M0,-26.69551410299918L5.993516340710753,-8.249367531402827L25.38894264350654,-8.249367531402829L9.697713151397894,3.150978011306063L15.69122949210865,21.597124582902413L1.7763568394002505e-15,10.196779040193524L-15.691229492108645,21.597124582902417L-9.697713151397892,3.1509780113060657L-25.388942643506542,-8.249367531402822L-5.993516340710755,-8.249367531402825Z" transform="translate(365.95802921823724,316.95913732846384)rotate(3.7246420263577305)" fill="white" class="commune"><title>insee_com : 92050 
Population : 95105
 Nom : NANTERRE</title></path><path d="M0,-26.69551410299918L5.993516340710753,-8.249367531402827L25.38894264350654,-8.249367531402829L9.697713151397894,3.150978011306063L15.69122949210865,21.597124582902413L1.7763568394002505e-15,10.196779040193524L-15.691229492108645,21.597124582902417L-9.697713151397892,3.1509780113060657L-25.388942643506542,-8.249367531402822L-5.993516340710755,-8.249367531402825Z" transform="translate(474.56130371636027,593.7543611272995)rotate(26.67660950303222)" fill="white" class="commune"><title>insee_com : 92012 
Population : 120071
 Nom : BOULOGNE BILLANCOURT</title></path></g><text class="text" y="40" x="427" text-anchor="middle" font-size="36" font-family="Helvetica" fill="#6baed6">92  - HAUTS DE SEINE</text><line x1="641.7799982230491" y1="972.901600882378" x2="486.50549618112376" y2="620.8363068240908" stroke="yellow" opacity="0.35" stroke-width="2"/><line x1="467.3210854164854" y1="575.3013462073772" x2="373.1982475181121" y2="335.41215224838623" stroke="yellow" opacity="0.35" stroke-width="2"/><line x1="385.1424399828756" y1="362.49409794517754" x2="634.5397799231743" y2="954.4485859624557" stroke="yellow" opacity="0.35" stroke-width="2"/></svg>