<svg viewBox="0,0,954,1144.8" width="954" height="1144.8" style="width: 100%; height: auto;" xmlns="http://www.w3.org/2000/svg" xmlns:xlink="http://www.w3.org/1999/xlink"><rect width="954" height="1144.8" fill="black"/><g stroke="#000" stroke-opacity="0.2"><path d="M0,-13.34775705149959L2.9967581703553763,-4.1246837657014135L12.69447132175327,-4.124683765701414L4.848856575698947,1.5754890056530315L7.845614746054325,10.798562291451207L8.881784197001252e-16,5.098389520096762L-7.845614746054323,10.798562291451208L-4.848856575698946,1.5754890056530328L-12.694471321753271,-4.124683765701411L-2.9967581703553776,-4.124683765701413Z" transform="translate(141.20701168614323,328.76119944720267)rotate(10.143549101393866)" fill="white" class="commune"><title>insee_com : 97225 
Population : 4123
 Nom : SAINT PIERRE</title></path><path d="M0,-13.34775705149959L2.9967581703553763,-4.1246837657014135L12.69447132175327,-4.124683765701414L4.848856575698947,1.5754890056530315L7.845614746054325,10.798562291451207L8.881784197001252e-16,5.098389520096762L-7.845614746054323,10.798562291451208L-4.848856575698946,1.5754890056530328L-12.694471321753271,-4.124683765701411L-2.9967581703553776,-4.124683765701413Z" transform="translate(797.4855711900746,934.106437242106)rotate(24.83574298882021)" fill="white" class="commune"><title>insee_com : 97217 
Population : 8791
 Nom : MARIN</title></path><path d="M0,-15.873247654971056L3.5637661381291506,-4.905103281308338L15.096355617026989,-4.905103281308339L5.766294739448918,1.873582735131148L9.330060877578072,12.841727108793865L8.881784197001252e-16,6.063041092354379L-9.330060877578068,12.841727108793867L-5.766294739448918,1.8735827351311491L-15.09635561702699,-4.905103281308335L-3.563766138129152,-4.905103281308337Z" transform="translate(598.0579537324084,338.7932733449961)rotate(10.347881827046267)" fill="white" class="commune"><title>insee_com : 97230 
Population : 12243
 Nom : TRINITE</title></path><path d="M0,-26.69551410299918L5.993516340710753,-8.249367531402827L25.38894264350654,-8.249367531402829L9.697713151397894,3.150978011306063L15.69122949210865,21.597124582902413L1.7763568394002505e-15,10.196779040193524L-15.691229492108645,21.597124582902417L-9.697713151397892,3.1509780113060657L-25.388942643506542,-8.249367531402822L-5.993516340710755,-8.249367531402825Z" transform="translate(368.87789172428893,631.8615315586649)rotate(15.332575946627177)" fill="white" class="commune"><title>insee_com : 97209 
Population : 80041
 Nom : FORT DE FRANCE</title></path></g><text class="text" y="40" x="427" text-anchor="middle" font-size="36" font-family="Helvetica" fill="#6baed6">972  - MARTINIQUE</text><line x1="156.38507035535295" y1="348.96788825463346" x2="353.69983305507924" y2="611.654842751234" stroke="yellow" opacity="0.35" stroke-width="2"/><line x1="397.451737022008" y1="652.011191937561" x2="768.9117258923555" y2="913.9567768632099" stroke="yellow" opacity="0.35" stroke-width="2"/><line x1="784.1903966928968" y1="894.4188929822988" x2="611.3531282295861" y2="378.48081760480346" stroke="yellow" opacity="0.35" stroke-width="2"/><line x1="567.6012242626573" y1="338.12446841847657" x2="171.66374115589423" y2="329.4300043737222" stroke="yellow" opacity="0.35" stroke-width="2"/></svg>