<svg viewBox="0,0,954,1144.8" width="954" height="1144.8" style="width: 100%; height: auto;" xmlns="http://www.w3.org/2000/svg" xmlns:xlink="http://www.w3.org/1999/xlink"><rect width="954" height="1144.8" fill="black"/><g stroke="#000" stroke-opacity="0.2"><path d="M0,-13.34775705149959L2.9967581703553763,-4.1246837657014135L12.69447132175327,-4.124683765701414L4.848856575698947,1.5754890056530315L7.845614746054325,10.798562291451207L8.881784197001252e-16,5.098389520096762L-7.845614746054323,10.798562291451208L-4.848856575698946,1.5754890056530328L-12.694471321753271,-4.124683765701411L-2.9967581703553776,-4.124683765701413Z" transform="translate(418.3594225235594,614.0153089886117)rotate(2.3340544963573864)" fill="white" class="commune"><title>insee_com : 50147 
Population : 8501
 Nom : COUTANCES</title></path><path d="M0,-15.873247654971056L3.5637661381291506,-4.905103281308338L15.096355617026989,-4.905103281308339L5.766294739448918,1.873582735131148L9.330060877578072,12.841727108793865L8.881784197001252e-16,6.063041092354379L-9.330060877578068,12.841727108793867L-5.766294739448918,1.8735827351311491L-15.09635561702699,-4.905103281308335L-3.563766138129152,-4.905103281308337Z" transform="translate(465.75656395333976,922.963952553222)rotate(17.45422675295056)" fill="white" class="commune"><title>insee_com : 50025 
Population : 10155
 Nom : AVRANCHES</title></path><path d="M0,-15.873247654971056L3.5637661381291506,-4.905103281308338L15.096355617026989,-4.905103281308339L5.766294739448918,1.873582735131148L9.330060877578072,12.841727108793865L8.881784197001252e-16,6.063041092354379L-9.330060877578068,12.841727108793867L-5.766294739448918,1.8735827351311491L-15.09635561702699,-4.905103281308335L-3.563766138129152,-4.905103281308337Z" transform="translate(618.5433064219893,554.9020636703208)rotate(20.928674009794854)" fill="white" class="commune"><title>insee_com : 50502 
Population : 19116
 Nom : SAINT LO</title></path><path d="M0,-22.448162112566994L5.039926405668234,-6.936863585267022L21.349470856006818,-6.936863585267023L8.154772225169292,2.649646114250548L13.19469863083753,18.16094464155052L8.881784197001252e-16,8.574434942032948L-13.194698630837525,18.160944641550522L-8.154772225169292,2.649646114250549L-21.34947085600682,-6.936863585267019L-5.0399264056682345,-6.936863585267021Z" transform="translate(316.9712448396418,99.21650612791564)rotate(22.065894375526884)" fill="white" class="commune"><title>insee_com : 50129 
Population : 79200
 Nom : CHERBOURG EN COTENTIN</title></path><path d="M0,-22.448162112566994L5.039926405668234,-6.936863585267022L21.349470856006818,-6.936863585267023L8.154772225169292,2.649646114250548L13.19469863083753,18.16094464155052L8.881784197001252e-16,8.574434942032948L-13.194698630837525,18.160944641550522L-8.154772225169292,2.649646114250549L-21.34947085600682,-6.936863585267019L-5.0399264056682345,-6.936863585267021Z" transform="translate(317.7038998201258,99.39057038289684)rotate(13.125357270040785)" fill="white" class="commune"><title>insee_com : 50129 
Population : 79200
 Nom : CHERBOURG EN COTENTIN</title></path></g><text class="text" y="40" x="427" text-anchor="middle" font-size="36" font-family="Helvetica" fill="#6baed6">50  - MANCHE</text><line x1="337.0760489451317" y1="129.5955432974093" x2="598.4385023164995" y2="524.5230265008271" stroke="yellow" opacity="0.35" stroke-width="2"/><line x1="608.357523590746" y1="579.4395229291808" x2="475.9423467845831" y2="898.426493294362" stroke="yellow" opacity="0.35" stroke-width="2"/><line x1="462.59675452468775" y1="902.3673763155814" x2="421.5192319522114" y2="634.6118852262523" stroke="yellow" opacity="0.35" stroke-width="2"/><line x1="411.60021067796487" y1="579.6953887978985" x2="323.73045668523633" y2="133.5364263186287" stroke="yellow" opacity="0.35" stroke-width="2"/></svg>