<svg viewBox="0,0,955,1146" width="955" height="1146" style="width: 100%; height: auto;" xmlns="http://www.w3.org/2000/svg" xmlns:xlink="http://www.w3.org/1999/xlink"><rect width="955" height="1146" fill="black"/><g stroke="#000" stroke-opacity="0.2"><path d="M0,-18.876579049491834L4.238056047668955,-5.833183721955068L17.952693510379785,-5.833183721955069L6.857318731355415,2.2280779191642193L11.095374779024372,15.271473246700983L8.881784197001252e-16,7.210211605581696L-11.095374779024368,15.271473246700985L-6.857318731355414,2.2280779191642206L-17.952693510379788,-5.833183721955065L-4.238056047668956,-5.833183721955068Z" transform="translate(502.60392655660235,436.5192393720645)rotate(2.6627027238160537)" fill="white" class="commune"><title>69264 Population : 37266</title></path><path d="M0,-37.75315809898367L8.47611209533791,-11.666367443910136L35.90538702075957,-11.666367443910138L13.71463746271083,4.4561558383284385L22.190749558048743,30.542946493401967L1.7763568394002505e-15,14.420423211163392L-22.190749558048736,30.54294649340197L-13.714637462710828,4.456155838328441L-35.905387020759576,-11.66636744391013L-8.476112095337912,-11.666367443910136Z" transform="translate(597.6402199494478,735.2576018938998)rotate(10.372352543482364)" fill="white" class="commune"><title>69123 Population : 515695</title></path></g><text class="text" y="40" x="427.5" text-anchor="middle" font-size="36" font-family="Helvetica" fill="#6baed6">69 - RHONE</text><line x1="591.3044670565914" y1="715.3417110591108" x2="508.9396794494587" y2="456.4351302068535" stroke="yellow" opacity="0.35" stroke-width="2"/><line x1="508.9396794494587" y1="456.4351302068535" x2="591.3044670565914" y2="715.3417110591108" stroke="yellow" opacity="0.35" stroke-width="2"/></svg>