<svg viewBox="0,0,954,1144.8" width="954" height="1144.8" style="width: 100%; height: auto;" xmlns="http://www.w3.org/2000/svg" xmlns:xlink="http://www.w3.org/1999/xlink"><rect width="954" height="1144.8" fill="black"/><g stroke="#000" stroke-opacity="0.2"><path d="M0,-13.34775705149959L2.9967581703553763,-4.1246837657014135L12.69447132175327,-4.124683765701414L4.848856575698947,1.5754890056530315L7.845614746054325,10.798562291451207L8.881784197001252e-16,5.098389520096762L-7.845614746054323,10.798562291451208L-4.848856575698946,1.5754890056530328L-12.694471321753271,-4.124683765701411L-2.9967581703553776,-4.124683765701413Z" transform="translate(291.4301895383917,500.51701127159686)rotate(1.507944770301809)" fill="white" class="commune"><title>insee_com : 22070 
Population : 6895
 Nom : GUINGAMP</title></path><path d="M0,-15.873247654971056L3.5637661381291506,-4.905103281308338L15.096355617026989,-4.905103281308339L5.766294739448918,1.873582735131148L9.330060877578072,12.841727108793865L8.881784197001252e-16,6.063041092354379L-9.330060877578068,12.841727108793867L-5.766294739448918,1.8735827351311491L-15.09635561702699,-4.905103281308335L-3.563766138129152,-4.905103281308337Z" transform="translate(857.8902043371847,583.6956984703866)rotate(23.649386812361595)" fill="white" class="commune"><title>insee_com : 22050 
Population : 14166
 Nom : DINAN</title></path><path d="M0,-15.873247654971056L3.5637661381291506,-4.905103281308338L15.096355617026989,-4.905103281308339L5.766294739448918,1.873582735131148L9.330060877578072,12.841727108793865L8.881784197001252e-16,6.063041092354379L-9.330060877578068,12.841727108793867L-5.766294739448918,1.8735827351311491L-15.09635561702699,-4.905103281308335L-3.563766138129152,-4.905103281308337Z" transform="translate(131.30451363196562,367.42281349670884)rotate(20.981013155547437)" fill="white" class="commune"><title>insee_com : 22113 
Population : 19880
 Nom : LANNION</title></path><path d="M0,-22.448162112566994L5.039926405668234,-6.936863585267022L21.349470856006818,-6.936863585267023L8.154772225169292,2.649646114250548L13.19469863083753,18.16094464155052L8.881784197001252e-16,8.574434942032948L-13.194698630837525,18.160944641550522L-8.154772225169292,2.649646114250549L-21.34947085600682,-6.936863585267019L-5.0399264056682345,-6.936863585267021Z" transform="translate(489.0145711195855,537.4293475285958)rotate(13.233958829635261)" fill="white" class="commune"><title>insee_com : 22278 
Population : 44372
 Nom : SAINT BRIEUC</title></path></g><text class="text" y="40" x="427" text-anchor="middle" font-size="36" font-family="Helvetica" fill="#6baed6">22  - COTES D ARMOR</text><line x1="475.8422790141726" y1="534.9685251114626" x2="304.6024816438046" y2="502.97783368873013" stroke="yellow" opacity="0.35" stroke-width="2"/><line x1="280.75514447796326" y1="491.644064753271" x2="141.97955869239402" y2="376.2957600150347" stroke="yellow" opacity="0.35" stroke-width="2"/><line x1="179.74355967898023" y1="381.84100582828734" x2="809.4511582901702" y2="569.277506138808" stroke="yellow" opacity="0.35" stroke-width="2"/><line x1="833.2984954560114" y1="580.6112750742672" x2="513.6062800007588" y2="540.5137709247152" stroke="yellow" opacity="0.35" stroke-width="2"/></svg>