<svg viewBox="0,0,955,1146" width="955" height="1146" style="width: 100%; height: auto;" xmlns="http://www.w3.org/2000/svg" xmlns:xlink="http://www.w3.org/1999/xlink"><rect width="955" height="1146" fill="black"/><g stroke="#000" stroke-opacity="0.2"><path d="M0,-13.34775705149959L2.9967581703553763,-4.1246837657014135L12.69447132175327,-4.124683765701414L4.848856575698947,1.5754890056530315L7.845614746054325,10.798562291451207L8.881784197001252e-16,5.098389520096762L-7.845614746054323,10.798562291451208L-4.848856575698946,1.5754890056530328L-12.694471321753271,-4.124683765701411L-2.9967581703553776,-4.124683765701413Z" transform="translate(582.7079880067586,967.0616450812158)rotate(18.848974004579205)" fill="white" class="commune"><title>39478 Population : 9526</title></path><path d="M0,-15.873247654971056L3.5637661381291506,-4.905103281308338L15.096355617026989,-4.905103281308339L5.766294739448918,1.873582735131148L9.330060877578072,12.841727108793865L8.881784197001252e-16,6.063041092354379L-9.330060877578068,12.841727108793867L-5.766294739448918,1.8735827351311491L-15.09635561702699,-4.905103281308335L-3.563766138129152,-4.905103281308337Z" transform="translate(354.33843042212266,689.3350278832659)rotate(28.044720253733583)" fill="white" class="commune"><title>39300 Population : 17364</title></path><path d="M0,-18.876579049491834L4.238056047668955,-5.833183721955068L17.952693510379785,-5.833183721955069L6.857318731355415,2.2280779191642193L11.095374779024372,15.271473246700983L8.881784197001252e-16,7.210211605581696L-11.095374779024368,15.271473246700985L-6.857318731355414,2.2280779191642206L-17.952693510379788,-5.833183721955065L-4.238056047668956,-5.833183721955068Z" transform="translate(313.4042644399715,269.11493810593674)rotate(8.85968484678479)" fill="white" class="commune"><title>39198 Population : 23579</title></path></g><text class="text" y="40" x="427.5" text-anchor="middle" font-size="36" font-family="Helvetica" fill="#6baed6">39 - JURA</text><line x1="316.13320883878157" y1="297.1296107577587" x2="351.60948602331257" y2="661.320355231444" stroke="yellow" opacity="0.35" stroke-width="2"/><line x1="369.56306759443174" y1="707.8501356964625" x2="567.4833508344495" y2="948.5465372680192" stroke="yellow" opacity="0.35" stroke-width="2"/><line x1="564.7544064356395" y1="920.5318646161973" x2="331.3578460110906" y2="315.6447185709553" stroke="yellow" opacity="0.35" stroke-width="2"/></svg>