<svg viewBox="0,0,955,1146" width="955" height="1146" style="width: 100%; height: auto;" xmlns="http://www.w3.org/2000/svg" xmlns:xlink="http://www.w3.org/1999/xlink"><rect width="955" height="1146" fill="black"/><g stroke="#000" stroke-opacity="0.2"><path d="M0,-15.873247654971056L3.5637661381291506,-4.905103281308338L15.096355617026989,-4.905103281308339L5.766294739448918,1.873582735131148L9.330060877578072,12.841727108793865L8.881784197001252e-16,6.063041092354379L-9.330060877578068,12.841727108793867L-5.766294739448918,1.8735827351311491L-15.09635561702699,-4.905103281308335L-3.563766138129152,-4.905103281308337Z" transform="translate(365.64756172962916,735.6553920590377)rotate(21.18210218743928)" fill="white" class="commune"><title>42147 Population : 15569</title></path><path d="M0,-18.876579049491834L4.238056047668955,-5.833183721955068L17.952693510379785,-5.833183721955069L6.857318731355415,2.2280779191642193L11.095374779024372,15.271473246700983L8.881784197001252e-16,7.210211605581696L-11.095374779024368,15.271473246700985L-6.857318731355414,2.2280779191642206L-17.952693510379788,-5.833183721955065L-4.238056047668956,-5.833183721955068Z" transform="translate(371.4960552339626,269.8719024995298)rotate(16.086356858464615)" fill="white" class="commune"><title>42187 Population : 34685</title></path><path d="M0,-31.746495309942112L7.127532276258301,-9.810206562616676L30.192711234053977,-9.810206562616678L11.532589478897837,3.747165470262296L18.660121755156144,25.68345421758773L1.7763568394002505e-15,12.126082184708759L-18.660121755156137,25.683454217587734L-11.532589478897837,3.7471654702622983L-30.19271123405398,-9.81020656261667L-7.127532276258304,-9.810206562616674Z" transform="translate(589.3524382703708,914.0609661437629)rotate(23.253222781372358)" fill="white" class="commune"><title>42218 Population : 171924</title></path></g><text class="text" y="40" x="427.5" text-anchor="middle" font-size="36" font-family="Helvetica" fill="#6baed6">42 - LOIRE</text><line x1="366.0374612965847" y1="704.6031594217371" x2="371.10615566700704" y2="300.92413513683033" stroke="yellow" opacity="0.35" stroke-width="2"/><line x1="386.0198141030565" y1="312.817840075812" x2="574.828679401277" y2="871.1150285674807" stroke="yellow" opacity="0.35" stroke-width="2"/><line x1="574.4387798343214" y1="902.1672612047812" x2="380.5612201656786" y2="747.5490969980194" stroke="yellow" opacity="0.35" stroke-width="2"/></svg>