<svg viewBox="0,0,954,1144.8" width="954" height="1144.8" style="width: 100%; height: auto;" xmlns="http://www.w3.org/2000/svg" xmlns:xlink="http://www.w3.org/1999/xlink"><rect width="954" height="1144.8" fill="black"/><g stroke="#000" stroke-opacity="0.2"><path d="M0,-13.34775705149959L2.9967581703553763,-4.1246837657014135L12.69447132175327,-4.124683765701414L4.848856575698947,1.5754890056530315L7.845614746054325,10.798562291451207L8.881784197001252e-16,5.098389520096762L-7.845614746054323,10.798562291451208L-4.848856575698946,1.5754890056530328L-12.694471321753271,-4.124683765701411L-2.9967581703553776,-4.124683765701413Z" transform="translate(677.094861660079,809.5264527136242)rotate(6.234603071012424)" fill="white" class="commune"><title>insee_com : 17197 
Population : 3432
 Nom : JONZAC</title></path><path d="M0,-13.34775705149959L2.9967581703553763,-4.1246837657014135L12.69447132175327,-4.124683765701414L4.848856575698947,1.5754890056530315L7.845614746054325,10.798562291451207L8.881784197001252e-16,5.098389520096762L-7.845614746054323,10.798562291451208L-4.848856575698946,1.5754890056530328L-12.694471321753271,-4.124683765701411L-2.9967581703553776,-4.124683765701413Z" transform="translate(626.6677291852607,397.4665717239004)rotate(19.80703866090674)" fill="white" class="commune"><title>insee_com : 17347 
Population : 6976
 Nom : SAINT JEAN D ANGELY</title></path><path d="M0,-18.876579049491834L4.238056047668955,-5.833183721955068L17.952693510379785,-5.833183721955069L6.857318731355415,2.2280779191642193L11.095374779024372,15.271473246700983L8.881784197001252e-16,7.210211605581696L-11.095374779024368,15.271473246700985L-6.857318731355414,2.2280779191642206L-17.952693510379788,-5.833183721955065L-4.238056047668956,-5.833183721955068Z" transform="translate(370.9013132729824,404.4280521900291)rotate(24.763158187857478)" fill="white" class="commune"><title>insee_com : 17299 
Population : 24151
 Nom : ROCHEFORT</title></path><path d="M0,-18.876579049491834L4.238056047668955,-5.833183721955068L17.952693510379785,-5.833183721955069L6.857318731355415,2.2280779191642193L11.095374779024372,15.271473246700983L8.881784197001252e-16,7.210211605581696L-11.095374779024368,15.271473246700985L-6.857318731355414,2.2280779191642206L-17.952693510379788,-5.833183721955065L-4.238056047668956,-5.833183721955068Z" transform="translate(560.3920693612138,564.0868559729824)rotate(18.01473155498806)" fill="white" class="commune"><title>insee_com : 17415 
Population : 25470
 Nom : SAINTES</title></path><path d="M0,-22.448162112566994L5.039926405668234,-6.936863585267022L21.349470856006818,-6.936863585267023L8.154772225169292,2.649646114250548L13.19469863083753,18.16094464155052L8.881784197001252e-16,8.574434942032948L-13.194698630837525,18.160944641550522L-8.154772225169292,2.649646114250549L-21.34947085600682,-6.936863585267019L-5.0399264056682345,-6.936863585267021Z" transform="translate(262.0363381359174,219.34147643937104)rotate(26.16881261201)" fill="white" class="commune"><title>insee_com : 17300 
Population : 75735
 Nom : ROCHELLE</title></path></g><text class="text" y="40" x="427" text-anchor="middle" font-size="36" font-family="Helvetica" fill="#6baed6">17  - CHARENTE MARITIME</text><line x1="656.6819584342726" y1="782.5198926787178" x2="391.3142164987888" y2="431.43461222493545" stroke="yellow" opacity="0.35" stroke-width="2"/><line x1="363.64364826384474" y1="392.08894713998524" x2="269.29400314505506" y2="231.68058148941492" stroke="yellow" opacity="0.35" stroke-width="2"/><line x1="286.34509753920696" y1="231.216482791673" x2="602.3589697819712" y2="385.59156537159845" stroke="yellow" opacity="0.35" stroke-width="2"/><line x1="622.2493518636576" y1="408.5745906738392" x2="564.8104466828169" y2="552.9788370230436" stroke="yellow" opacity="0.35" stroke-width="2"/><line x1="568.1722555144714" y1="580.4494957556919" x2="669.3146755068213" y2="793.1638129309147" stroke="yellow" opacity="0.35" stroke-width="2"/></svg>