<svg viewBox="0,0,954,1144.8" width="954" height="1144.8" style="width: 100%; height: auto;" xmlns="http://www.w3.org/2000/svg" xmlns:xlink="http://www.w3.org/1999/xlink"><rect width="954" height="1144.8" fill="black"/><g stroke="#000" stroke-opacity="0.2"><path d="M0,-13.34775705149959L2.9967581703553763,-4.1246837657014135L12.69447132175327,-4.124683765701414L4.848856575698947,1.5754890056530315L7.845614746054325,10.798562291451207L8.881784197001252e-16,5.098389520096762L-7.845614746054323,10.798562291451208L-4.848856575698946,1.5754890056530328L-12.694471321753271,-4.124683765701411L-2.9967581703553776,-4.124683765701413Z" transform="translate(221.3653360282974,547.922743952211)rotate(3.522957110990008)" fill="white" class="commune"><title>insee_com : 30350 
Population : 3820
 Nom : VIGAN</title></path><path d="M0,-22.448162112566994L5.039926405668234,-6.936863585267022L21.349470856006818,-6.936863585267023L8.154772225169292,2.649646114250548L13.19469863083753,18.16094464155052L8.881784197001252e-16,8.574434942032948L-13.194698630837525,18.160944641550522L-8.154772225169292,2.649646114250549L-21.34947085600682,-6.936863585267019L-5.0399264056682345,-6.936863585267021Z" transform="translate(490.4183931278426,442.88083534276666)rotate(13.164131189016405)" fill="white" class="commune"><title>insee_com : 30007 
Population : 40219
 Nom : ALES</title></path><path d="M0,-26.69551410299918L5.993516340710753,-8.249367531402827L25.38894264350654,-8.249367531402829L9.697713151397894,3.150978011306063L15.69122949210865,21.597124582902413L1.7763568394002505e-15,10.196779040193524L-15.691229492108645,21.597124582902417L-9.697713151397892,3.1509780113060657L-25.388942643506542,-8.249367531402822L-5.993516340710755,-8.249367531402825Z" transform="translate(651.8959070237493,671.7331800230422)rotate(6.59136475122998)" fill="white" class="commune"><title>insee_com : 30189 
Population : 150610
 Nom : NIMES</title></path></g><text class="text" y="40" x="427" text-anchor="middle" font-size="36" font-family="Helvetica" fill="#6baed6">30  - GARD</text><line x1="501.183560720903" y1="458.1376583214517" x2="641.1307394306888" y2="656.4763570443572" stroke="yellow" opacity="0.35" stroke-width="2"/><line x1="623.1938689573858" y1="663.4791509516534" x2="250.06737409466086" y2="556.1767730235998" stroke="yellow" opacity="0.35" stroke-width="2"/><line x1="239.3022065016004" y1="540.9199500449147" x2="472.48152265453956" y2="449.88362925006294" stroke="yellow" opacity="0.35" stroke-width="2"/></svg>