<svg viewBox="0,0,955,1146" width="955" height="1146" style="width: 100%; height: auto;" xmlns="http://www.w3.org/2000/svg" xmlns:xlink="http://www.w3.org/1999/xlink"><rect width="955" height="1146" fill="black"/><g stroke="#000" stroke-opacity="0.2"><path d="M0,-15.873247654971056L3.5637661381291506,-4.905103281308338L15.096355617026989,-4.905103281308339L5.766294739448918,1.873582735131148L9.330060877578072,12.841727108793865L8.881784197001252e-16,6.063041092354379L-9.330060877578068,12.841727108793867L-5.766294739448918,1.8735827351311491L-15.09635561702699,-4.905103281308335L-3.563766138129152,-4.905103281308337Z" transform="translate(805.9940891993552,729.7084505827479)rotate(2.5566258974005462)" fill="white" class="commune"><title>85092 Population : 13424</title></path><path d="M0,-22.448162112566994L5.039926405668234,-6.936863585267022L21.349470856006818,-6.936863585267023L8.154772225169292,2.649646114250548L13.19469863083753,18.16094464155052L8.881784197001252e-16,8.574434942032948L-13.194698630837525,18.160944641550522L-8.154772225169292,2.649646114250549L-21.34947085600682,-6.936863585267019L-5.0399264056682345,-6.936863585267021Z" transform="translate(333.79903277807637,684.5047261220898)rotate(8.449290014404408)" fill="white" class="commune"><title>85194 Population : 43219</title></path><path d="M0,-22.448162112566994L5.039926405668234,-6.936863585267022L21.349470856006818,-6.936863585267023L8.154772225169292,2.649646114250548L13.19469863083753,18.16094464155052L8.881784197001252e-16,8.574434942032948L-13.194698630837525,18.160944641550522L-8.154772225169292,2.649646114250549L-21.34947085600682,-6.936863585267019L-5.0399264056682345,-6.936863585267021Z" transform="translate(506.92101020956477,579.7667518928647)rotate(23.195291361275185)" fill="white" class="commune"><title>85191 Population : 53741</title></path></g><text class="text" y="40" x="427.5" text-anchor="middle" font-size="36" font-family="Helvetica" fill="#6baed6">85 - VENDEE</text><line x1="786.0558839333692" y1="719.7123373367557" x2="526.8592154755509" y2="589.7628651388569" stroke="yellow" opacity="0.35" stroke-width="2"/><line x1="495.37954504746557" y1="586.7492835081464" x2="345.34049794017557" y2="677.5221945068081" stroke="yellow" opacity="0.35" stroke-width="2"/><line x1="365.27870320616165" y1="687.5183077528003" x2="774.51441877127" y2="726.6948689520374" stroke="yellow" opacity="0.35" stroke-width="2"/></svg>