<svg viewBox="0,0,600,600" width="600" height="600" style="width: 100%; height: auto;" xmlns="http://www.w3.org/2000/svg" xmlns:xlink="http://www.w3.org/1999/xlink"><rect width="752" height="902.4" fill="black"/><path d="M160.64321250888418,188.48878734501704L161.4250177683014,187.92740376628353L161.81592039800998,187.36601008801517L162.2068230277186,186.24319243073114L162.5977256574272,185.6817684506459L161.4250177683014,185.12033436886486L160.64321250888418,185.12033436886486L160.25230987917558,185.12033436886486L158.29779673063257,185.12033436886486L156.34328358208958,185.12033436886486L154.7796730632552,182.31301241610345L154.38877043354657,179.50543784116962L154.7796730632552,176.6976105772046L154.7796730632552,175.01279290027378L154.38877043354657,175.01279290027378L150.8706467661692,176.13601479583667L150.4797441364606,176.13601479583667L150.08884150675198,175.57440890371436L149.69793887704338,174.4511667849838L149.3070362473348,174.4511667849838L148.9161336176262,172.76622776275326L148.52523098791758,171.08119771466227L148.52523098791758,171.08119771466227L148.52523098791758,171.08119771466227L150.4797441364606,168.8343493631328L151.26154939587778,168.27261198226915L152.043354655295,167.7108644831278L152.43425728500358,167.14910686519943L153.60696517412939,165.4637732932133L154.38877043354657,163.77834863272074L151.6524520255864,161.530974033838L150.08884150675198,161.530974033838L148.52523098791758,161.530974033838L148.134328358209,162.09283286925347L147.35252309879178,162.09283286925347L146.9616204690832,162.09283286925347L147.35252309879178,160.40722598835782L147.35252309879178,159.84533677722357L148.134328358209,158.159608383874L148.52523098791758,157.0357388163029L148.52523098791758,156.47378883930287L148.52523098791758,155.91182873279104L147.7434257285004,155.91182873279104L147.35252309879178,155.34985849620352L146.9616204690832,154.78787812904557L147.7434257285004,154.78787812904557L148.9161336176262,153.66388700075186L150.08884150675198,153.10187623858292L151.26154939587778,151.9778243154542L151.6524520255864,152.5398553436571L152.043354655295,153.10187623858292L153.60696517412939,154.22588763073145L153.99786780383798,154.22588763073145L155.17057569296378,154.78787812904557L155.952380952381,154.78787812904557L157.90689410092398,154.78787812904557L159.4705046197584,154.22588763073145L161.03411513859277,153.66388700075186L161.81592039800998,153.10187623858292L162.98862828713578,153.66388700075186L164.16133617626159,154.22588763073145L164.9431414356788,154.78787812904557L166.11584932480457,153.66388700075186L166.50675195451316,153.10187623858292L166.89765458422178,153.66388700075186L166.89765458422178,153.66388700075186L168.0703624733476,153.66388700075186L168.46126510305618,152.5398553436571L168.85216773276477,151.41578315345396L168.46126510305618,150.85373185709977L167.679459843639,150.29167042582776L169.2430703624734,147.48121122749944L170.4157782515992,145.2326613860714L172.37029140014218,142.98394930055656L172.37029140014218,141.29730874304005L171.58848614072497,141.29730874304005L170.80668088130778,141.29730874304005L170.4157782515992,141.29730874304005L170.02487562189057,141.29730874304005L169.63397299218198,140.17283098551343L169.63397299218198,138.48603825968166L169.63397299218198,137.3614590431789L169.2430703624734,136.2368392355529L169.2430703624734,135.67451410871945L168.85216773276477,135.11217883249992L168.46126510305618,135.11217883249992L167.28855721393037,136.2368392355529L166.89765458422178,136.2368392355529L165.72494669509598,136.79915421351689L164.55223880597018,136.79915421351689L164.16133617626159,136.79915421351689L164.55223880597018,136.79915421351689L164.55223880597018,136.2368392355529L164.9431414356788,135.67451410871945L165.3340440653874,134.54983340635954L165.72494669509598,133.42511210211524L165.72494669509598,131.17554767084584L165.72494669509598,130.61313118014368L166.50675195451316,130.61313118014368L168.85216773276477,129.48826773547262L171.9793887704336,127.800896402332L172.37029140014218,127.23841897816601L173.54299928926798,126.67593139653764L173.93390191897657,126.11343365690118L174.32480454868517,126.11343365690118L175.8884150675196,125.55092575871822L178.6247334754798,124.42587948461733L180.18834399431418,124.42587948461733L181.36105188343998,124.98840770148672L181.36105188343998,124.98840770148672L181.36105188343998,124.98840770148672L181.75195451314858,124.98840770148672L182.5337597725658,124.42587948461733L182.14285714285717,123.30079256990211L182.14285714285717,123.30079256990211L182.5337597725658,122.17566501026158L184.09737029140018,120.48789745218528L185.27007818052599,119.92528793902238L186.05188343994317,119.92528793902238L186.4427860696518,119.92528793902238L188.00639658848618,118.8000384188017L190.74271499644638,117.11208789557713L189.96090973702917,114.29863367327198L188.78820184790337,114.29863367327198L187.22459132906897,114.86134485527873L184.48827292110877,114.86134485527873L183.31556503198297,114.29863367327198L183.70646766169156,114.29863367327198L184.48827292110877,113.73591232143372L184.48827292110877,113.1731807991855L185.27007818052599,113.1731807991855L185.66098081023458,112.61043910602166L186.05188343994317,112.61043910602166L186.83368869936038,112.04768724140013L186.83368869936038,112.04768724140013L187.22459132906897,111.48492520475702L187.22459132906897,110.35937061331788L186.83368869936038,109.23377532737868L186.4427860696518,108.6709624226387L186.83368869936038,108.10813934266116L187.61549395877756,106.98246265479247L188.00639658848618,106.41960904585721L188.00639658848618,105.8567452595089L188.39729921819477,105.29387129522365L188.00639658848618,104.73098715247397L188.00639658848618,101.91641374263418L188.39729921819477,101.91641374263418L189.96090973702917,101.91641374263418L190.35181236673776,101.91641374263418L190.74271499644638,101.91641374263418L191.52452025586356,101.91641374263418L192.69722814498937,101.35346851767463L193.86993603411517,101.35346851767463L195.43354655294957,99.66457174711832L197.77896233120117,97.41256680962397L197.38805970149258,96.84954011151785L196.99715707178396,95.72345615501399L196.21535181236678,95.1603988955685L194.26083866382376,93.47116598585853L193.47903340440658,92.90806797037294L193.47903340440658,92.90806797037294L191.91542288557218,89.5292658610997L191.13361762615497,86.15009678223578L191.13361762615497,85.02362552030536L190.74271499644638,84.46037459271611L190.74271499644638,83.897113466679L190.35181236673776,83.897113466679L191.13361762615497,83.897113466679L192.30632551528078,82.77056061700932L193.08813077469796,82.20726889232537L193.47903340440658,82.20726889232537L193.86993603411517,82.20726889232537L196.21535181236678,81.64396696699623L199.73347547974416,82.20726889232537L203.64250177683016,82.77056061700932L204.81520966595596,82.77056061700932L205.59701492537317,82.20726889232537L205.98791755508176,82.20726889232537L206.37882018479036,81.64396696699623L207.16062544420757,81.08065484049803L207.55152807391616,80.51733251230326L207.94243070362475,79.95399998184075L209.11513859275055,80.51733251230326L209.89694385216777,81.08065484049803L211.06965174129357,81.64396696699623L212.63326226012796,83.3338421416156L213.41506751954518,83.897113466679L214.19687277896236,83.3338421416156L214.58777540867095,82.77056061700932L215.36958066808816,82.77056061700932L216.15138592750537,82.20726889232537L216.93319118692256,81.08065484049803L216.93319118692256,81.08065484049803L217.32409381663115,79.95399998184075L217.71499644633977,78.82730431200616L218.10589907604836,77.13718427682397L219.27860696517416,76.01038656010496L220.84221748400856,75.44697239214656L221.62402274342577,74.88354801705646L223.96943852167735,74.32011343429258L226.31485429992895,74.32011343429258L226.70575692963754,74.32011343429258L227.87846481876335,74.32011343429258L228.66027007818056,73.75666864333834L229.83297796730636,73.19321364361895L230.61478322672355,72.62974843462507L229.83297796730636,72.06627301578555L229.44207533759774,72.06627301578555L228.26936744847197,70.9392915464523L226.70575692963754,69.8122692312827L226.31485429992895,69.24874275516413L225.92395167022036,69.24874275516413L227.48756218905476,66.99453471443849L229.44207533759774,64.74016322967873L231.39658848614076,63.04927733512159L234.52380952380955,60.794619739881455L234.52380952380955,60.794619739881455L235.30561478322676,60.794619739881455L237.26012793176974,60.794619739881455L239.60554371002135,61.35829946914964L239.99644633972994,61.35829946914964L241.16915422885575,61.92196897775648L241.56005685856434,61.92196897775648L241.95095948827296,62.48562826624038L243.12366737739876,63.04927733512159L243.90547263681594,63.61291618496762L243.90547263681594,63.61291618496762L244.29637526652454,63.04927733512159L245.07818052594175,61.35829946914964L243.90547263681594,59.10351922258633L243.12366737739876,57.412326699719415L242.34186211798155,56.28481389636727L242.34186211798155,55.72104215663785L243.12366737739876,55.15726019079375L243.90547263681594,54.02966557865875L244.68727789623316,54.593467998314736L245.07818052594175,55.15726019079375L245.46908315565037,55.72104215663785L246.64179104477614,57.412326699719415L247.81449893390194,59.10351922258633L247.81449893390194,59.10351922258633L250.55081734186214,59.10351922258633L252.11442786069654,59.10351922258633L252.50533049040513,58.53979860519394L253.67803837953096,57.97606776442626L255.63255152807395,56.848575410556805L257.19616204690834,56.28481389636727L258.3688699360341,55.72104215663785L259.15067519545136,55.15726019079375L259.93248045486854,56.28481389636727L261.49609097370296,58.53979860519394L263.05970149253733,59.667229617145495L265.40511727078894,60.23092978938439L266.96872778962336,61.92196897775648L267.75053304904054,62.48562826624038L268.9232409381664,63.04927733512159L269.70504619758356,63.61291618496762L270.48685145700074,64.74016322967873L271.2686567164179,65.8673694047211L271.65955934612657,65.8673694047211L271.65955934612657,66.43095716747484L272.83226723525235,66.99453471443849L274.7867803837953,66.99453471443849L275.17768301350395,66.43095716747484L275.17768301350395,66.99453471443849L275.56858564321254,66.99453471443849L275.56858564321254,66.99453471443849L277.5230987917555,64.74016322967873L279.0867093105899,62.48562826624038L280.25941719971576,61.92196897775648L281.8230277185501,60.23092978938439L282.99573560767595,60.23092978938439L283.38663823738455,60.23092978938439L285.7320540156361,60.23092978938439L288.4683724235963,60.23092978938439L290.81378820184796,60.23092978938439L291.59559346126514,60.23092978938439L293.1592039800995,61.35829946914964L293.55010660980815,61.35829946914964L294.33191186922534,62.48562826624038L294.72281449893393,63.04927733512159L294.72281449893393,63.61291618496762L294.72281449893393,63.61291618496762L297.4591329068941,65.30377142564612L298.2409381663113,66.43095716747484L299.41364605543714,66.99453471443849L299.80454868514573,66.99453471443849L299.41364605543714,66.99453471443849L299.41364605543714,67.55810204613226L299.41364605543714,67.55810204613226L299.80454868514573,68.12165916312006L299.80454868514573,68.12165916312006L301.75906183368875,68.12165916312006L304.49538024164895,68.6852060659694L305.6680881307747,69.24874275516413L306.4498933901919,69.8122692312827L306.84079601990055,70.9392915464523L308.0135039090263,73.19321364361895L308.4044065387349,73.19321364361895L309.18621179815216,73.75666864333834L311.1407249466951,74.88354801705646L313.4861407249467,76.01038656010496L312.70433546552954,78.26394117154996L312.70433546552954,78.82730431200616L313.8770433546553,79.39065724859756L315.8315565031983,79.39065724859756L318.9587775408671,79.95399998184075L319.7405828002843,79.95399998184075L320.5223880597015,80.51733251230326L322.86780383795315,80.51733251230326L325.99502487562194,79.39065724859756L327.9495380241649,78.26394117154996L328.73134328358213,77.13718427682397L330.6858564321251,77.13718427682397L330.6858564321251,77.13718427682397L331.46766169154233,78.26394117154996L333.42217484008535,78.82730431200616L333.42217484008535,79.39065724859756L335.3766879886283,76.5737905214919L337.7221037668799,77.7005678266687L339.6766169154229,77.7005678266687L340.8493248045487,77.7005678266687L341.6311300639659,77.7005678266687L342.02203269367453,77.7005678266687L343.5856432125089,77.13718427682397L343.9765458422175,77.13718427682397L343.9765458422175,77.13718427682397L344.75835110163473,77.7005678266687L347.4946695095949,77.7005678266687L351.4036958066809,77.13718427682397L352.5764036958067,77.7005678266687L352.9673063255153,77.7005678266687L353.35820895522386,78.26394117154996L354.1400142146411,78.82730431200616L357.2672352523099,77.13718427682397L358.8308457711443,76.5737905214919L361.1762615493959,77.13718427682397L361.9580668088131,77.13718427682397L363.5216773276475,78.26394117154996L363.13077469793893,78.82730431200616L363.5216773276475,79.39065724859756L363.9125799573561,80.51733251230326L364.6943852167733,81.08065484049803L365.0852878464819,81.08065484049803L366.25799573560766,82.77056061700932L367.0398009950249,83.897113466679L367.4307036247335,84.46037459271611L367.4307036247335,85.02362552030536L367.4307036247335,85.58686624996335L367.4307036247335,86.15009678223578L367.4307036247335,86.15009678223578L368.6034115138593,86.71331711765379L368.99431414356786,86.71331711765379L370.5579246624023,86.71331711765379L372.1215351812367,86.71331711765379L372.9033404406539,86.15009678223578L373.6851457000711,85.58686624996335L373.6851457000711,85.58686624996335L375.2487562189055,84.46037459271611L377.5941719971571,85.02362552030536L378.76687988628294,85.02362552030536L379.5486851457001,85.02362552030536L381.89410092395167,84.46037459271611L383.0668088130775,83.897113466679L384.23951670220333,83.3338421416156L385.8031272210377,81.64396696699623L387.36673773987206,79.95399998184075L388.1485429992893,79.39065724859756L389.3212508884151,78.82730431200616L389.71215351812367,78.26394117154996L389.71215351812367,77.13718427682397L389.71215351812367,76.5737905214919L389.3212508884151,75.44697239214656L389.71215351812367,75.44697239214656L390.8848614072495,75.44697239214656L391.6666666666667,76.01038656010496L392.0575692963753,76.01038656010496L392.0575692963753,76.01038656010496L392.4484719260839,76.5737905214919L392.83937455579246,77.13718427682397L393.2302771855011,77.13718427682397L394.0120824449183,76.5737905214919L393.2302771855011,76.01038656010496L391.6666666666667,73.75666864333834L391.2757640369581,73.19321364361895L391.6666666666667,69.24874275516413L392.0575692963753,66.99453471443849L391.6666666666667,65.8673694047211L388.9303482587065,64.74016322967873L386.5849324804549,63.61291618496762L383.8486140724947,64.74016322967873L381.89410092395167,65.30377142564612L381.1122956645345,65.8673694047211L380.7213930348259,65.30377142564612L380.3304904051173,64.1765448162987L379.93958777540865,63.04927733512159L379.93958777540865,61.92196897775648L379.93958777540865,60.794619739881455L380.3304904051173,60.23092978938439L380.7213930348259,60.23092978938439L379.15778251599147,56.848575410556805L379.15778251599147,56.28481389636727L379.15778251599147,56.28481389636727L379.93958777540865,55.72104215663785L381.1122956645345,55.15726019079375L381.89410092395167,54.593467998314736L383.0668088130775,54.593467998314736L383.0668088130775,54.02966557865875L382.2850035536603,52.90203005561489L383.8486140724947,53.46585293127282L384.63041933191187,53.46585293127282L386.1940298507463,51.77435361733296L386.97583511016353,50.64663625946196L387.7576403695807,48.9549834889076L388.5394456289979,47.827163813060906L388.5394456289979,47.827163813060906L388.5394456289979,47.26323862485151L388.9303482587065,43.31547571821284L390.10305614783226,41.0593859750843L390.10305614783226,41.0593859750843L390.49395877754085,40.495337940104946L391.6666666666667,40.495337940104946L394.4029850746269,41.0593859750843L396.7484008528785,41.0593859750843L397.5302061122957,38.803132388420636L398.31201137171286,37.11083465519914L398.7029140014215,37.11083465519914L400.26652452025587,37.67494414290195L401.04832977967305,37.67494414290195L402.2210376687989,38.239043387140555L403.3937455579247,38.803132388420636L403.78464818763325,38.803132388420636L404.5664534470505,39.36721114732791L404.9573560767591,39.36721114732791L404.9573560767591,39.93127966436077L403.78464818763325,42.187451324916765L402.61194029850753,44.44345915934173L402.2210376687989,45.007435524181346L403.00284292821607,46.135357545172155L404.1755508173419,47.827163813060906L404.9573560767591,47.827163813060906L406.52096659559345,47.827163813060906L407.30277185501075,47.827163813060906L408.08457711442793,48.391078767570434L409.2572850035537,48.9549834889076L409.6481876332623,50.082762234324036L410.0390902629709,50.64663625946196L410.4299928926795,51.21050005362122L410.4299928926795,52.338196951153805L410.8208955223881,54.02966557865875L412.3845060412225,56.28481389636727L412.7754086709311,56.28481389636727L413.55721393034827,57.412326699719415L414.7299218194741,58.53979860519394L415.5117270788913,59.10351922258633L416.2935323383085,60.23092978938439L416.2935323383085,63.04927733512159L417.0753375977257,65.30377142564612L417.0753375977257,65.30377142564612L417.4662402274343,65.30377142564612L420.2025586353945,63.61291618496762L422.5479744136461,62.48562826624038L426.0660980810235,63.04927733512159L427.2388059701492,63.61291618496762L428.0206112295665,64.74016322967873L428.41151385927503,65.30377142564612L430.36602700781805,68.12165916312006L430.36602700781805,68.6852060659694L430.36602700781805,69.8122692312827L430.7569296375267,69.8122692312827L431.9296375266524,68.6852060659694L432.7114427860697,68.12165916312006L433.10234541577825,68.12165916312006L434.66595593461267,68.12165916312006L437.0113717128643,68.12165916312006L438.18407960199005,69.24874275516413L438.57498223169864,70.37578549486716L438.96588486140723,72.06627301578555L438.96588486140723,72.62974843462507L438.96588486140723,72.62974843462507L439.7476901208245,72.06627301578555L440.9203980099503,70.9392915464523L442.48400852878467,70.37578549486716L444.4385216773277,70.37578549486716L444.4385216773277,69.8122692312827L444.04761904761904,68.6852060659694L443.26581378820185,67.55810204613226L442.87491115849326,65.30377142564612L444.04761904761904,63.04927733512159L444.04761904761904,63.04927733512159L445.61122956645346,64.1765448162987L446.00213219616205,64.1765448162987L446.3930348258707,63.61291618496762L446.00213219616205,63.04927733512159L446.78393745557923,62.48562826624038L447.1748400852879,61.35829946914964L447.95664534470507,61.35829946914964L449.1293532338309,61.35829946914964L450.3020611229566,60.794619739881455L450.69296375266526,61.35829946914964L451.47476901208245,61.92196897775648L453.03837953091687,62.48562826624038L456.94740582800284,61.92196897775648L459.68372423596304,60.23092978938439L460.0746268656717,60.23092978938439L460.8564321250889,59.667229617145495L460.8564321250889,59.667229617145495L461.63823738450606,60.23092978938439L462.4200426439233,60.23092978938439L462.4200426439233,60.23092978938439L463.98365316275766,60.23092978938439L464.7654584221749,60.23092978938439L467.5017768301351,59.10351922258633L469.84719260838665,58.53979860519394L472.5835110163469,59.10351922258633L474.14712153518127,59.10351922258633L474.53802416488986,59.10351922258633L474.53802416488986,58.53979860519394L474.53802416488986,57.412326699719415L473.7562189054727,55.15726019079375L473.3653162757641,54.593467998314736L472.19260838663826,52.90203005561489L471.0199004975125,51.77435361733296L470.23809523809524,50.64663625946196L471.0199004975125,49.51887797765448L471.0199004975125,49.51887797765448L471.4108031272211,49.51887797765448L472.5835110163469,47.827163813060906L473.3653162757641,46.6993032024111L474.53802416488986,45.007435524181346L476.4925373134328,44.44345915934173L476.8834399431414,43.87947255752442L477.27434257285,43.87947255752442L478.44705046197583,43.31547571821284L479.61975835110167,41.62342376983361L480.01066098081026,41.62342376983361L481.5742714996446,41.0593859750843L481.9651741293532,41.0593859750843L483.13788201847905,41.0593859750843L483.91968727789623,41.0593859750843L483.91968727789623,36.546714923450054L483.91968727789623,36.546714923450054L484.3105899076049,35.4184447257212L484.70149253731347,34.85429425863185L484.70149253731347,35.4184447257212L484.70149253731347,35.4184447257212L485.09239516702206,35.4184447257212L486.26510305614784,35.98258494713809L487.4378109452736,35.98258494713809L489.3923240938167,37.11083465519914L490.56503198294246,37.67494414290195L490.56503198294246,37.67494414290195L490.95593461265105,37.67494414290195L491.34683724235964,37.67494414290195L491.73773987206823,37.67494414290195L496.42857142857144,35.98258494713809L500.3375977256574,35.98258494713809L501.11940298507466,35.98258494713809L501.51030561478325,35.98258494713809L502.29211087420043,35.98258494713809L503.46481876332626,37.67494414290195L503.46481876332626,38.803132388420636L504.63752665245204,38.803132388420636L506.20113717128646,38.239043387140555L506.98294243070364,38.239043387140555L507.37384506041224,38.239043387140555L508.54655294953807,38.239043387140555L510.8919687277897,39.36721114732791L513.6282871357498,39.36721114732791L517.5373134328358,38.803132388420636L519.4918265813789,38.803132388420636L521.0554371002133,37.11083465519914L522.6190476190477,35.98258494713809L523.4008528784648,35.98258494713809L524.1826581378821,35.98258494713809L524.5735607675906,35.98258494713809L524.5735607675906,35.98258494713809L523.0099502487562,37.11083465519914L523.4008528784648,37.67494414290195L524.9644633972991,38.803132388420636L526.9189765458423,39.93127966436077L527.3098791755508,40.495337940104946L527.7007818052595,40.495337940104946L527.7007818052595,41.0593859750843L526.137171286425,42.187451324916765L525.7462686567164,42.187451324916765L525.3553660270078,42.187451324916765L524.1826581378821,42.187451324916765L523.0099502487562,42.751468640864914L522.6190476190477,43.31547571821284L523.0099502487562,45.007435524181346L523.7917555081734,46.6993032024111L524.1826581378821,47.26323862485151L524.9644633972991,48.9549834889076L526.137171286425,49.51887797765448L527.3098791755508,49.51887797765448L528.0916844349681,50.082762234324036L530.4371002132195,52.90203005561489L531.6098081023454,54.593467998314736L532.000710732054,55.72104215663785L532.000710732054,57.97606776442626L532.000710732054,59.667229617145495L531.6098081023454,61.35829946914964L530.4371002132195,63.61291618496762L530.046197583511,63.61291618496762L529.2643923240938,64.1765448162987L528.4825870646766,64.1765448162987L529.2643923240938,65.30377142564612L528.4825870646766,65.8673694047211L528.0916844349681,66.99453471443849L526.5280739161336,69.24874275516413L526.137171286425,70.37578549486716L526.5280739161336,72.06627301578555L526.9189765458423,72.62974843462507L528.8734896943852,73.19321364361895L529.6552949538025,74.88354801705646L529.6552949538025,75.44697239214656L529.2643923240938,77.7005678266687L528.4825870646766,78.82730431200616L528.0916844349681,78.82730431200616L527.7007818052595,79.39065724859756L526.5280739161336,80.51733251230326L526.137171286425,80.51733251230326L525.3553660270078,80.51733251230326L524.5735607675906,82.20726889232537L524.1826581378821,83.3338421416156L524.1826581378821,84.46037459271611L524.9644633972991,85.58686624996335L525.3553660270078,86.15009678223578L525.7462686567164,86.71331711765379L526.5280739161336,87.27652725678854L527.3098791755508,87.83972720016027L528.4825870646766,87.83972720016027L530.4371002132195,89.5292658610997L532.000710732054,90.09242502681445L534.3461265103056,91.78184136780328L535.1279317697229,92.90806797037294L535.5188343994314,92.90806797037294L535.9097370291399,93.47116598585853L536.3006396588487,93.47116598585853L538.2551528073916,94.5973314479088L538.2551528073916,94.5973314479088L538.2551528073916,94.5973314479088L539.4278606965174,95.1603988955685L540.6005685856433,96.84954011151785L541.7732764747691,98.53858964828032L541.7732764747691,100.22754752046603L541.7732764747691,102.47934878586238L542.1641791044776,103.60518832936577L542.9459843638949,104.16809283069233L543.3368869936035,104.73098715247397L543.727789623312,104.73098715247397L544.5095948827293,104.73098715247397L544.5095948827293,104.73098715247397L544.9004975124378,103.60518832936577L546.0732054015637,102.47934878586238L546.8550106609808,101.91641374263418L547.2459132906895,101.35346851767463L549.9822316986497,98.53858964828032L549.9822316986497,97.97558332170593L551.1549395877755,96.84954011151785L551.545842217484,95.72345615501399L551.545842217484,95.72345615501399L552.3276474769012,95.72345615501399L552.3276474769012,95.72345615501399L552.7185501066099,96.2865032268237L553.1094527363184,96.2865032268237L554.2821606254442,96.84954011151785L555.8457711442786,97.97558332170593L556.2366737739871,98.53858964828032L555.8457711442786,99.10158578991468L555.4548685145701,99.66457174711832L555.4548685145701,99.66457174711832L555.4548685145701,100.79051311047442L555.8457711442786,100.79051311047442L556.2366737739871,100.79051311047442L556.6275764036958,100.79051311047442L558.1911869225303,102.47934878586238L560.9275053304905,104.16809283069233L561.7093105899077,103.60518832936577L561.7093105899077,103.60518832936577L562.1002132196163,104.16809283069233L562.4911158493248,104.73098715247397L564.4456289978679,106.41960904585721L565.227434257285,106.98246265479247L566.4001421464109,107.54530608688583L566.4001421464109,107.54530608688583L567.5728500355367,107.54530608688583L567.5728500355367,107.54530608688583L567.5728500355367,107.54530608688583L567.5728500355367,107.54530608688583L568.3546552949538,108.6709624226387L567.9637526652452,108.6709624226387L566.7910447761194,111.48492520475702L566.0092395167022,112.04768724140013L564.8365316275765,112.61043910602166L565.227434257285,114.29863367327198L565.6183368869936,115.42404586796329L567.181947405828,116.54941738758498L567.9637526652452,117.11208789557713L568.7455579246624,117.11208789557713L569.1364605543711,117.11208789557713L570.7000710732054,117.11208789557713L571.090973702914,117.6747482364226L571.4818763326226,117.6747482364226L571.090973702914,118.8000384188017L570.3091684434969,121.61308598726464L571.090973702914,122.7382338709649L571.4818763326226,124.42587948461733L571.4818763326226,126.67593139653764L571.4818763326226,127.23841897816601L571.090973702914,127.23841897816601L573.4363894811656,128.36336366958858L574.2181947405827,128.36336366958858L575,129.48826773547262L574.6090973702914,131.17554767084584L573.8272921108742,133.9874778297417L574.2181947405827,135.67451410871945L574.2181947405827,136.79915421351689L573.8272921108742,137.3614590431789L572.6545842217483,138.48603825968166L571.4818763326226,139.04831264761742L570.3091684434969,139.61057688937217L568.3546552949538,140.17283098551343L567.181947405828,141.85953240552044L567.181947405828,143.5461425341964L566.7910447761194,144.10832562597716L566.4001421464109,144.10832562597716L566.0092395167022,144.67049857642996L565.6183368869936,144.67049857642996L566.0092395167022,148.60542531740066L565.6183368869936,148.60542531740066L562.1002132196163,149.16751715653663L559.363894811656,150.85373185709977L557.0184790334044,152.5398553436571L554.6730632551528,154.22588763073145L554.6730632551528,154.22588763073145L553.8912579957356,155.34985849620352L553.500355366027,155.34985849620352L551.9367448471926,156.47378883930287L551.1549395877755,157.0357388163029L548.8095238095239,158.159608383874L547.636815920398,156.47378883930287L546.8550106609808,156.47378883930287L546.4641080312722,157.0357388163029L546.0732054015637,157.0357388163029L544.5095948827293,157.59767866430775L544.1186922530205,157.59767866430775L543.3368869936035,158.72152797552917L542.9459843638949,159.28343743978985L542.5550817341862,159.84533677722357L542.1641791044776,159.84533677722357L539.818763326226,157.0357388163029L538.2551528073916,156.47378883930287L536.6915422885572,155.91182873279104L535.9097370291399,156.47378883930287L535.1279317697229,156.47378883930287L532.3916133617627,157.0357388163029L530.8280028429282,155.34985849620352L529.2643923240938,153.66388700075186L528.0916844349681,153.10187623858292L526.5280739161336,151.9778243154542L524.5735607675906,152.5398553436571L523.7917555081734,152.5398553436571L523.4008528784648,152.5398553436571L523.4008528784648,152.5398553436571L522.2281449893391,155.34985849620352L521.8372423596304,157.59767866430775L523.0099502487562,158.159608383874L524.1826581378821,159.28343743978985L524.5735607675906,159.84533677722357L524.9644633972991,160.40722598835782L524.9644633972991,160.40722598835782L524.9644633972991,160.96910507370558L524.9644633972991,163.77834863272074L524.9644633972991,166.02556127077696L525.3553660270078,167.14910686519943L524.5735607675906,169.39607662627532L523.7917555081734,171.08119771466227L523.7917555081734,171.08119771466227L523.7917555081734,171.6428845122391L524.1826581378821,172.20456119474693L525.7462686567164,173.8895305573351L527.3098791755508,175.01279290027378L528.4825870646766,176.6976105772046L529.2643923240938,179.50543784116962L529.2643923240938,179.50543784116962L528.8734896943852,180.06697296914354L525.7462686567164,181.75151771302626L525.3553660270078,182.31301241610345L524.9644633972991,182.31301241610345L524.1826581378821,183.43597150812275L523.7917555081734,184.55889018487142L523.4008528784648,185.12033436886486L523.0099502487562,185.6817684506459L522.6190476190477,185.6817684506459L521.8372423596304,186.24319243073114L521.4463397299219,186.80460630968446L522.2281449893391,187.36601008801517L523.0099502487562,187.92740376628353L523.4008528784648,187.92740376628353L523.4008528784648,187.92740376628353L523.7917555081734,187.36601008801517L524.5735607675906,186.80460630968446L524.5735607675906,186.80460630968446L524.9644633972991,186.80460630968446L525.7462686567164,187.36601008801517L526.137171286425,187.36601008801517L526.5280739161336,187.36601008801517L526.9189765458423,187.92740376628353L526.9189765458423,188.48878734501704L526.9189765458423,188.48878734501704L526.137171286425,189.61152420596773L525.7462686567164,190.17287748927993L525.7462686567164,191.2955537641974L525.3553660270078,191.85687675690133L525.3553660270078,193.5407851623204L524.5735607675906,194.6633402940388L524.5735607675906,195.22460271995078L522.6190476190477,198.5919653494857L521.4463397299219,200.27551045023938L521.0554371002133,200.27551045023938L520.6645344705046,201.3978234108945L520.273631840796,203.08121720273994L520.273631840796,203.6423282957403L519.4918265813789,205.32560106929668L517.5373134328358,208.69187439002053L516.7555081734187,209.25288466110214L515.9737029140015,209.81388485290518L515.1918976545842,210.3748749659935L514.0191897654585,211.49682495811794L512.455579246624,213.1796743691848L511.28287135749827,214.30152359804197L511.67377398720686,214.86243310049394L511.67377398720686,215.42333252901517L511.67377398720686,219.34934650342984L511.67377398720686,221.031772865339L511.28287135749827,222.71410861457844L510.11016346837243,222.71410861457844L509.71926083866384,223.83561544749318L509.71926083866384,224.95708201874731L509.71926083866384,226.07850833260818L509.71926083866384,226.63920639436037L511.28287135749827,228.32124020519768L512.455579246624,229.44254577244646L512.455579246624,230.00318346565473L512.455579246624,230.5638110993168L510.8919687277897,232.24563364823553L509.71926083866384,232.80622104897338L508.54655294953807,232.80622104897338L508.1556503198295,232.80622104897338L507.37384506041224,232.80622104897338L506.98294243070364,232.24563364823553L506.98294243070364,232.24563364823553L506.20113717128646,230.5638110993168L504.24662402274345,227.76057233012034L502.29211087420043,227.19989439334677L500.3375977256574,228.32124020519768L499.55579246624023,228.32124020519768L499.16488983653164,228.32124020519768L498.77398720682305,227.76057233012034L498.38308457711446,227.19989439334677L498.38308457711446,226.63920639436037L498.38308457711446,226.07850833260818L498.38308457711446,224.95708201874731L497.99218194740587,224.39635376555088L497.6012793176973,223.83561544749318L496.81947405828004,223.83561544749318L495.6467661691542,222.71410861457844L494.864960909737,223.27486706400668L493.69225302061125,224.39635376555088L492.91044776119406,224.39635376555088L491.34683724235964,224.39635376555088L490.17412935323387,223.83561544749318L489.7832267235253,223.27486706400668L489.00142146410803,223.27486706400668L487.046908315565,222.71410861457844L486.6560056858564,222.71410861457844L486.26510305614784,222.71410861457844L485.09239516702206,223.27486706400668L484.70149253731347,223.27486706400668L484.3105899076049,223.83561544749318L484.3105899076049,223.83561544749318L483.91968727789623,224.39635376555088L483.52878464818764,224.95708201874731L483.91968727789623,225.51780020757724L483.52878464818764,226.63920639436037L483.13788201847905,227.19989439334677L482.74697938877046,227.76057233012034L482.74697938877046,229.44254577244646L482.74697938877046,230.5638110993168L483.91968727789623,232.24563364823553L483.91968727789623,233.36679839281715L483.52878464818764,235.60900720976497L482.74697938877046,236.73005129066587L481.9651741293532,237.85105515881514L481.9651741293532,238.41154201445897L481.9651741293532,238.41154201445897L481.9651741293532,238.97201881852016L482.3560767590618,239.532485571508L482.74697938877046,240.0929422739864L483.13788201847905,240.0929422739864L483.91968727789623,240.65338892647196L485.48329779673065,243.45547145756427L485.48329779673065,246.81763895606855L484.70149253731347,246.81763895606855L484.3105899076049,246.81763895606855L483.91968727789623,246.81763895606855L481.9651741293532,247.37796505005463L478.05614783226724,247.37796505005463L477.66524520255865,247.37796505005463L477.27434257285,247.93828110094546L476.8834399431414,247.37796505005463L476.1016346837242,247.93828110094546L475.31982942430704,248.49858710926492L474.92892679459845,248.49858710926492L474.14712153518127,249.61916900036158L473.7562189054727,250.1794448841938L473.3653162757641,250.73971072757558L472.5835110163469,251.29996653106718L471.0199004975125,252.4204480204353L470.23809523809524,252.4204480204353L469.0653873489695,252.4204480204353L468.2835820895523,253.5408893565509L467.8926794598437,255.2214760826173L467.8926794598437,255.2214760826173L467.11087420042645,255.2214760826173L467.11087420042645,255.2214760826173L466.32906894100927,255.2214760826173L466.71997157071786,256.9019724876889L466.32906894100927,257.46211788719665L466.32906894100927,258.582378586103L465.9381663113007,259.1424938865712L465.9381663113007,259.7025991550727L465.9381663113007,260.2626943921641L464.7654584221749,260.2626943921641L464.3745557924663,259.1424938865712L463.59275053304907,259.1424938865712L462.4200426439233,258.582378586103L461.2473347547975,259.1424938865712L459.68372423596304,262.50297503685215L459.2928216062545,263.623055184431L459.2928216062545,265.303100199264L459.2928216062545,265.303100199264L459.2928216062545,265.303100199264L459.2928216062545,265.303100199264L459.68372423596304,266.9830549789622L459.68372423596304,268.6629195378191L458.1201137171287,271.4624933506457L456.94740582800284,271.4624933506457L455.7746979388771,271.4624933506457L454.21108742004265,270.34269389012843L453.42928216062546,270.34269389012843L453.42928216062546,270.34269389012843L453.03837953091687,271.4624933506457L453.03837953091687,272.5822527299497L453.03837953091687,272.5822527299497L452.25657427149963,273.70197203227144L451.8656716417911,273.70197203227144L451.8656716417911,274.26181665589684L451.8656716417911,275.94129042293207L450.69296375266526,278.7402130536175L449.1293532338309,282.0985897732171L447.5657427149965,282.65828418751335L446.3930348258707,284.33730737416045L446.3930348258707,284.89696175271456L446.3930348258707,284.89696175271456L446.00213219616205,285.4566061236728L445.22032693674487,286.01624048753L445.22032693674487,286.01624048753L444.4385216773277,286.57586484484636L443.65671641791045,286.57586484484636L443.26581378820185,286.57586484484636L442.87491115849326,286.57586484484636L442.87491115849326,286.01624048753L442.48400852878467,285.4566061236728L442.48400852878467,285.4566061236728L442.093105899076,285.4566061236728L442.093105899076,285.4566061236728L441.7022032693675,285.4566061236728L441.7022032693675,286.01624048753L441.7022032693675,286.57586484484636L442.093105899076,286.57586484484636L442.093105899076,289.3738365515819L441.7022032693675,292.73107249374516L441.7022032693675,292.73107249374516L441.31130063965884,293.29057681359336L441.31130063965884,293.8500711337547L439.3567874911159,294.96902977711943L439.3567874911159,296.08794842807765L440.13859275053306,296.647392757699L440.52949538024166,297.20682709079847L440.52949538024166,297.20682709079847L440.9203980099503,297.20682709079847L440.9203980099503,297.20682709079847L440.52949538024166,297.7662514279182L440.52949538024166,298.32566576957106L439.3567874911159,298.88507011626643L439.3567874911159,298.88507011626643L438.57498223169864,299.44446446856455L437.79317697228146,299.44446446856455L437.4022743425728,299.44446446856455L437.0113717128643,299.44446446856455L436.2295664534471,299.44446446856455L435.05685856432126,300.00384882697836L435.05685856432126,301.1225875642449L435.05685856432126,302.24128633230066L435.44776119402985,302.24128633230066L435.83866382373844,302.8006207292019L436.2295664534471,303.3599451353657L436.2295664534471,303.3599451353657L436.2295664534471,303.3599451353657L436.2295664534471,303.9192595513523L435.44776119402985,304.47856397765645L435.05685856432126,305.0378584148348L434.2750533049041,305.0378584148348L433.88415067519543,305.59714286340386L433.88415067519543,305.0378584148348L433.4932480454869,305.0378584148348L431.14783226723523,305.59714286340386L429.58422174840086,307.8341807820725L429.1933191186923,307.8341807820725L429.1933191186923,307.8341807820725L428.8024164889837,308.39341529547164L428.0206112295665,308.39341529547164L427.62970859985785,308.39341529547164L427.62970859985785,308.95263982344113L428.0206112295665,309.511854366483L429.1933191186923,311.1894380913254L431.14783226723523,313.9852113167726L430.7569296375267,315.10345074200814L429.58422174840086,316.2216502507181L429.1933191186923,316.2216502507181L429.1933191186923,316.2216502507181L428.0206112295665,317.89887467953304L428.0206112295665,318.45792953544515L427.62970859985785,318.45792953544515L427.2388059701492,318.45792953544515L426.0660980810235,319.0169744153791L426.0660980810235,319.0169744153791L425.67519545131495,319.576009319866L425.67519545131495,319.576009319866L421.7661691542289,318.45792953544515L421.7661691542289,318.45792953544515L419.8116560056859,319.0169744153791L419.0298507462687,319.576009319866L417.0753375977257,321.81204919394077L416.2935323383085,321.81204919394077L415.9026297085999,321.25305418595235L415.5117270788913,319.576009319866L415.1208244491827,317.89887467953304L415.1208244491827,314.54433601921846L415.1208244491827,313.9852113167726L415.1208244491827,313.9852113167726L412.7754086709311,313.4260766341613L411.99360341151385,314.54433601921846L410.8208955223881,316.2216502507181L408.08457711442793,318.45792953544515L407.6936744847193,319.0169744153791L405.73916133617627,321.25305418595235L406.1300639658849,322.9300092919948L406.1300639658849,323.4889743831227L405.73916133617627,324.6068746521887L404.5664534470505,326.28365028073677L404.1755508173419,327.40145085586846L403.00284292821607,327.9603361918489L402.2210376687989,327.40145085586846L401.83013503909024,327.40145085586846L401.4392324093817,326.8425555523354L401.4392324093817,327.40145085586846L401.4392324093817,327.9603361918489L401.4392324093817,328.5192115607824L401.4392324093817,328.5192115607824L401.4392324093817,328.5192115607824L401.4392324093817,329.0780769632329L401.83013503909024,329.0780769632329L401.83013503909024,329.636932399706L402.61194029850753,329.636932399706L402.61194029850753,329.636932399706L404.9573560767591,332.98985576244013L406.1300639658849,334.6661829457116L406.9118692253021,336.3424204824951L406.9118692253021,338.0185683869531L406.52096659559345,339.1359505345572L406.1300639658849,340.8119490833669L406.1300639658849,341.92923167362824L406.52096659559345,342.48785803766077L406.9118692253021,343.60508090614167L407.30277185501075,344.1636774116487L407.6936744847193,344.7222639653555L407.6936744847193,344.7222639653555L406.9118692253021,346.39796392094286L406.9118692253021,346.95651067270956L406.9118692253021,346.95651067270956L404.9573560767591,349.1905981933087L403.3937455579247,350.8660593876557L403.00284292821607,351.98298378885374L402.2210376687989,352.5414310724991L402.61194029850753,353.6582958085455L402.2210376687989,355.33351834233326L401.4392324093817,357.0086514043651L401.04832977967305,357.567009211547L401.04832977967305,357.567009211547L401.04832977967305,358.12535707950155L403.00284292821607,359.8003410533711L403.78464818763325,362.591782274485L403.78464818763325,363.15004071312796L403.78464818763325,363.15004071312796L402.61194029850753,366.49938274984015L400.6574271499645,368.173919694902L399.0938166311301,369.29022801108295L397.5302061122957,369.8483672766015L396.7484008528785,370.40649661441057L393.2302771855011,372.08082506694336L391.6666666666667,372.08082506694336L391.2757640369581,372.08082506694336L390.8848614072495,372.08082506694336L388.9303482587065,372.08082506694336L388.1485429992893,371.5227255090722L388.1485429992893,372.63891469922964L387.7576403695807,374.8711739827995L386.1940298507463,377.66127482402953L385.8031272210377,378.7772457142564L385.0213219616205,379.33521628013114L384.63041933191187,379.89317692720215L383.0668088130775,379.89317692720215L381.89410092395167,380.4511276559788L381.50319829424313,380.4511276559788L381.89410092395167,381.009068467014L382.2850035536603,382.1249203378793L382.2850035536603,382.6828313987571L382.2850035536603,383.2407325439817L381.89410092395167,384.35650508950494L381.50319829424313,384.9143764908622L379.15778251599147,387.14576296570885L377.5941719971571,389.3769908566974L376.03056147832274,391.6080601972644L375.2487562189055,392.72353542159544L374.8578535891969,393.83897102082847L374.8578535891969,397.74268363090596L374.8578535891969,398.30031725045046L374.8578535891969,401.6459110637916L374.8578535891969,401.6459110637916L374.4669509594883,401.6459110637916L371.73063255152806,403.3185743414324L371.3397299218195,403.3185743414324L371.3397299218195,402.7610298126019L371.3397299218195,402.20347538690476L370.9488272921109,402.20347538690476L370.9488272921109,402.20347538690476L369.3852167732765,401.0883368427458L368.99431414356786,400.53075272327624L368.2125088841507,399.41555478688315L367.0398009950249,398.30031725045046L366.25799573560766,397.74268363090596L365.8670931058991,397.74268363090596L365.8670931058991,398.30031725045046L362.3489694385217,399.41555478688315L360.39445628997873,400.53075272327624L359.61265103056155,401.0883368427458L359.2217484008529,401.6459110637916L358.8308457711443,402.20347538690476L358.04904051172707,402.20347538690476L357.2672352523099,401.6459110637916L355.3127221037669,401.6459110637916L355.3127221037669,401.6459110637916L355.3127221037669,401.6459110637916L354.92181947405834,401.6459110637916L354.1400142146411,402.20347538690476L354.1400142146411,402.20347538690476L354.1400142146411,402.7610298126019L353.7491115849325,403.3185743414324L353.7491115849325,403.3185743414324L353.7491115849325,403.3185743414324L354.1400142146411,404.43363371050873L354.1400142146411,405.54865349832835L354.1400142146411,405.54865349832835L354.1400142146411,406.10614855054155L353.7491115849325,406.10614855054155L353.7491115849325,406.6636337090167L353.35820895522386,406.6636337090167L353.35820895522386,407.2211089742377L352.9673063255153,407.2211089742377L350.62189054726366,407.77857434676116L347.8855721393035,407.2211089742377L347.8855721393035,407.2211089742377L347.1037668798863,406.6636337090167L347.1037668798863,406.6636337090167L346.7128642501777,407.2211089742377L346.3219616204691,407.77857434676116L346.3219616204691,408.33602982707816L346.3219616204691,410.00833692009473L346.7128642501777,411.1231588640185L345.9310589907605,412.2379412516784L344.75835110163473,413.3526840872146L342.02203269367453,414.4673873747997L340.0675195451315,415.5820511186066L336.9402985074627,415.5820511186066L336.9402985074627,416.1393681629015L336.54939587775414,416.1393681629015L336.1584932480455,416.1393681629015L336.1584932480455,416.69667532279345L336.1584932480455,418.9258051289762L336.1584932480455,420.59754872307167L336.1584932480455,422.26920339516437L335.3766879886283,424.4979379924371L334.9857853589197,425.0550969489923L334.9857853589197,425.6122460294973L334.5948827292111,425.6122460294973L334.20398009950253,425.0550969489923L334.20398009950253,425.0550969489923L333.81307746979394,423.94076915928235L333.42217484008535,423.3835904490261L332.6403695806681,421.7119950504857L330.2949538024165,419.483062874755L327.1677327647477,416.69667532279345L326.3859275053305,415.5820511186066L325.60412224591335,415.5820511186066L324.8223169864961,416.1393681629015L324.4314143567875,416.69667532279345L324.0405117270789,416.69667532279345L324.0405117270789,417.81125999152573L323.64960909737033,420.0403107392849L323.64960909737033,421.7119950504857L323.64960909737033,423.3835904490261L325.2132196162047,425.0550969489923L327.9495380241649,426.7265145643905L330.2949538024165,428.95493314430496L330.2949538024165,429.51201310691977L329.9040511727079,429.51201310691977L329.1222459132907,430.6261434169537L327.9495380241649,431.1831937654206L326.7768301350391,431.1831937654206L326.3859275053305,431.1831937654206L326.3859275053305,430.6261434169537L325.99502487562194,430.6261434169537L325.60412224591335,431.1831937654206L324.8223169864961,431.74023424354164L324.8223169864961,431.74023424354164L324.4314143567875,431.74023424354164L323.64960909737033,431.74023424354164L322.86780383795315,431.1831937654206L322.0859985785359,430.6261434169537L320.91329068941013,430.6261434169537L320.13148542999295,430.6261434169537L318.5678749111585,431.74023424354164L318.5678749111585,431.74023424354164L318.17697228144993,431.74023424354164L317.7860696517413,432.29726485182255L317.0042643923241,433.41129646101035L315.8315565031983,433.96829746292497L314.65884861407255,434.5252885971058L313.8770433546553,435.08226986404406L311.92253020611236,437.86702820849314L311.92253020611236,437.86702820849314L311.92253020611236,438.98086249384505L311.92253020611236,438.98086249384505L311.92253020611236,438.98086249384505L312.3134328358209,440.0946573268775L312.3134328358209,440.6515399500822L311.1407249466951,443.43580515364374L310.7498223169865,444.5494422189695L310.35891968727793,445.1062459645291L310.35891968727793,445.6630398527268L309.5771144278607,446.7765980590848L309.5771144278607,447.3333623782746L309.5771144278607,449.5603211072994L308.7953091684435,450.67374135040154L308.7953091684435,451.2304366934259L308.7953091684435,451.2304366934259L307.23169864960914,454.5704018846409L306.0589907604833,457.3534353705654L305.2771855010661,459.5796849287799L304.49538024164895,462.91876395954387L303.3226723525231,465.7010591920043L303.3226723525231,466.8139084139584L303.3226723525231,469.5958593274154L303.7135749822317,469.5958593274154L303.7135749822317,469.5958593274154L304.49538024164895,472.93387588802943L305.2771855010661,473.4901775682738L306.4498933901919,475.15902362528504L306.4498933901919,475.7152859847665L306.4498933901919,475.7152859847665L306.4498933901919,475.7152859847665L306.84079601990055,476.8277812175693L307.23169864960914,477.94023713893694L307.62260127931773,480.72120498186996L308.7953091684435,484.61414735810104L309.18621179815216,485.7263282150234L309.5771144278607,485.7263282150234L309.5771144278607,485.7263282150234L309.5771144278607,486.2824039138213L309.96801705756934,487.9505720978159L309.96801705756934,489.06263513195154L310.35891968727793,491.28664340629985L310.7498223169865,493.51049464963944L311.1407249466951,495.17828005038245L311.1407249466951,496.8459771536873L311.5316275764037,500.7369270939125L311.5316275764037,502.4043299728837L310.35891968727793,505.18313869547273L310.35891968727793,506.29459357003L310.35891968727793,506.29459357003L309.5771144278607,506.85030630627807L308.4044065387349,507.9617023792416L306.0589907604833,508.5173857170121L304.88628287135754,510.74002108857167L304.49538024164895,510.74002108857167L304.49538024164895,511.29565543917124L303.7135749822317,511.29565543917124L303.3226723525231,511.29565543917124L302.9317697228145,511.29565543917124L302.9317697228145,511.29565543917124L302.54086709310593,510.74002108857167L302.54086709310593,510.74002108857167L302.14996446339734,510.18437694158274L300.97725657427156,509.62872299765877L298.6318407960199,509.07305925631954L297.4591329068941,509.07305925631954L295.8955223880597,509.62872299765877L292.7683013503909,510.18437694158274L292.3773987206823,510.74002108857167L291.98649609097373,510.74002108857167L291.98649609097373,511.8512799938726L291.20469083155655,512.962499717687L289.25017768301353,515.1848216372564L289.25017768301353,516.8514602561227L288.4683724235963,519.0735080132472L288.07746979388776,519.628995479532L288.07746979388776,520.739941048083L286.51385927505333,524.07254287873L286.12295664534474,524.6279422699445L285.7320540156361,525.1833318776371L285.7320540156361,525.1833318776371L285.34115138592756,525.1833318776371L282.99573560767595,526.2940817444105L280.25941719971576,526.8494420045281L278.30490405117274,527.404792483183L276.7412935323383,527.404792483183L275.95948827292113,527.404792483183L275.56858564321254,526.8494420045281L275.17768301350395,526.8494420045281L274.7867803837953,526.2940817444105L274.39587775408677,526.8494420045281L274.39587775408677,527.404792483183L275.56858564321254,530.1813981719351L275.56858564321254,530.1813981719351L275.56858564321254,530.7366899724111L275.56858564321254,530.7366899724111L275.17768301350395,530.7366899724111L274.0049751243781,531.847244240169L273.22316986496094,531.847244240169L273.61407249466953,532.9577594004586L272.83226723525235,535.1786724150297L272.44136460554375,535.7338762329091L272.44136460554375,537.3994290489645L272.83226723525235,537.9545937768307L273.22316986496094,538.509748733457L273.22316986496094,539.0648939193925L272.83226723525235,540.1751549811597L271.65955934612657,541.2853769662433L270.48685145700074,544.060760995395L267.35963041933195,546.280892435152L264.62331201137175,546.8359008849766L264.23240938166316,546.8359008849766L263.4506041222459,546.8359008849766L263.4506041222459,546.8359008849766L263.4506041222459,547.3908995717902L262.66879886282874,550.1657465785138L262.66879886282874,550.1657465785138L262.66879886282874,551.2756170579996L262.66879886282874,552.3854485018128L262.66879886282874,552.3854485018128L262.66879886282874,552.9403495866281L261.49609097370296,552.3854485018128L260.7142857142858,552.3854485018128L260.32338308457713,551.2756170579996L260.32338308457713,551.2756170579996L260.32338308457713,551.2756170579996L259.54157782515995,551.8305376591197L259.15067519545136,552.3854485018128L259.15067519545136,553.4952409140606L259.15067519545136,555.1598563571642L258.75977256574276,555.1598563571642L257.58706467661693,555.7147086601763L257.19616204690834,556.269551208381L256.80525941719975,556.269551208381L255.24164889836536,555.1598563571642L251.72352523098795,553.4952409140606L250.94171997157076,552.9403495866281L250.55081734186214,552.3854485018128L250.55081734186214,552.3854485018128L248.59630419331916,550.1657465785138L248.20540156361054,550.1657465785138L245.85998578535896,547.9458884961023L245.85998578535896,546.8359008849766L245.07818052594175,546.280892435152L244.68727789623316,545.7258742217819L244.29637526652454,545.1708462443712L243.90547263681594,545.1708462443712L243.12366737739876,545.1708462443712L242.73276474769014,545.1708462443712L241.95095948827296,545.1708462443712L241.56005685856434,545.7258742217819L241.16915422885575,545.7258742217819L240.77825159914715,546.280892435152L238.82373845060414,547.9458884961023L237.26012793176974,549.0558370592444L235.69651741293535,549.6107966991149L234.13290689410096,549.0558370592444L232.17839374555797,549.0558370592444L231.78749111584935,549.0558370592444L231.78749111584935,549.0558370592444L229.83297796730636,547.9458884961023L228.66027007818056,546.280892435152L228.66027007818056,546.280892435152L228.66027007818056,546.280892435152L227.87846481876335,545.7258742217819L227.48756218905476,545.7258742217819L227.48756218905476,545.7258742217819L227.09665955934616,545.7258742217819L225.53304904051174,546.8359008849766L224.75124378109456,547.3908995717902L222.79673063255154,550.720686697965L220.45131485429997,553.4952409140606L220.06041222459135,554.6049942988138L220.06041222459135,555.1598563571642L219.66950959488275,555.7147086601763L219.66950959488275,555.7147086601763L218.88770433546557,556.269551208381L215.76048329779675,557.9340203291358L214.97867803837957,557.9340203291358L214.58777540867095,558.4888238631684L213.80597014925377,558.4888238631684L211.46055437100216,559.0436176449402L211.06965174129357,559.0436176449402L210.28784648187636,559.0436176449402L209.50604122245917,559.0436176449402L209.50604122245917,559.0436176449402L209.50604122245917,559.0436176449402L209.11513859275055,559.5984016749426L208.72423596304196,560.1531759537247L208.33333333333337,560.7079404817632L208.33333333333337,561.2626952596002L208.33333333333337,562.9269010969256L207.94243070362475,565.1457057413681L207.55152807391616,565.1457057413681L207.55152807391616,565.1457057413681L205.98791755508176,564.0363229134346L205.20611229566455,563.4816168790021L205.20611229566455,563.4816168790021L205.20611229566455,563.4816168790021L205.20611229566455,562.9269010969256L205.20611229566455,561.8174402877339L204.81520966595596,560.1531759537247L204.81520966595596,559.5984016749426L205.20611229566455,557.9340203291358L205.20611229566455,556.8243840022551L205.59701492537317,555.7147086601763L205.98791755508176,555.7147086601763L206.37882018479036,555.1598563571642L206.76972281449898,554.0501224846084L206.76972281449898,554.0501224846084L207.94243070362475,551.2756170579996L208.33333333333337,549.0558370592444L208.33333333333337,548.5008676584075L208.33333333333337,547.3908995717902L207.94243070362475,546.280892435152L207.55152807391616,545.1708462443712L207.55152807391616,544.6158085024217L205.98791755508176,544.6158085024217L204.03340440653878,545.1708462443712L202.07889125799576,545.1708462443712L198.95167022032697,544.6158085024217L195.82444918265816,542.9506366840615L192.30632551528078,540.7302708580391L191.91542288557218,540.1751549811597L191.52452025586356,539.0648939193925L191.52452025586356,538.509748733457L191.52452025586356,537.3994290489645L190.35181236673776,534.6234588233528L190.35181236673776,534.6234588233528L189.57000710732058,534.0682354573801L188.39729921819477,534.0682354573801L188.39729921819477,534.0682354573801L188.39729921819477,534.0682354573801L187.22459132906897,533.5130023165839L186.83368869936038,533.5130023165839L186.4427860696518,533.5130023165839L185.66098081023458,533.5130023165839L184.87917555081737,534.0682354573801L183.70646766169156,534.6234588233528L183.31556503198297,534.6234588233528L181.36105188343998,535.1786724150297L178.23383084577117,535.1786724150297L174.32480454868517,535.1786724150297L171.58848614072497,535.1786724150297L169.2430703624734,534.6234588233528L167.28855721393037,534.6234588233528L166.89765458422178,534.6234588233528L166.11584932480457,534.6234588233528L162.98862828713578,534.6234588233528L161.4250177683014,534.0682354573801L161.03411513859277,534.0682354573801L160.25230987917558,532.4025067084985L160.25230987917558,532.4025067084985L160.64321250888418,531.847244240169L161.4250177683014,531.2919719949896L161.4250177683014,531.2919719949896L161.81592039800998,531.2919719949896L162.2068230277186,530.7366899724111L162.2068230277186,530.1813981719351L162.2068230277186,530.1813981719351L161.81592039800998,526.8494420045281L161.81592039800998,524.6279422699445L161.81592039800998,524.07254287873L161.81592039800998,522.4062859986152L161.81592039800998,521.2953991513896L162.2068230277186,519.628995479532L162.2068230277186,517.4069868802253L162.2068230277186,515.1848216372564L162.98862828713578,512.4068947532069L163.37953091684437,511.29565543917124L163.37953091684437,510.74002108857167L163.37953091684437,510.74002108857167L163.37953091684437,510.74002108857167L163.37953091684437,510.74002108857167L162.98862828713578,510.74002108857167L159.861407249467,509.62872299765877L157.5159914712154,508.5173857170121L156.73418621179817,508.5173857170121L155.952380952381,507.9617023792416L155.56147832267237,507.9617023792416L154.7796730632552,507.9617023792416L152.82515991471217,508.5173857170121L151.26154939587778,509.62872299765877L150.4797441364606,510.18437694158274L149.69793887704338,511.29565543917124L149.3070362473348,511.8512799938726L149.3070362473348,510.18437694158274L149.69793887704338,507.9617023792416L149.69793887704338,507.9617023792416L149.69793887704338,507.4060092425134L148.9161336176262,506.29459357003L148.52523098791758,505.73887103327434L148.52523098791758,505.73887103327434L148.134328358209,505.73887103327434L148.134328358209,505.18313869547273L148.134328358209,505.18313869547273L147.35252309879178,504.6273965561122L146.9616204690832,504.6273965561122L146.9616204690832,504.07164461470165L146.179815209666,504.07164461470165L145.0071073205402,503.5158828707099L144.61620469083158,502.4043299728837L144.225302061123,501.8485388180525L144.225302061123,501.8485388180525L143.05259417199719,501.2927378585591L142.27078891257997,501.2927378585591L139.9253731343284,500.7369270939125L136.407249466951,500.7369270939125L136.407249466951,500.7369270939125L136.0163468372424,500.7369270939125L134.452736318408,500.1811065236034L134.06183368869938,500.1811065236034L132.498223169865,500.1811065236034L131.71641791044777,500.7369270939125L130.9346126510306,501.2927378585591L129.7619047619048,502.4043299728837L129.3710021321962,502.4043299728837L128.58919687277898,501.8485388180525L127.4164889836532,501.2927378585591L127.4164889836532,501.2927378585591L127.8073916133618,500.7369270939125L128.1982942430704,500.1811065236034L128.1982942430704,498.5135859734546L128.1982942430704,498.5135859734546L127.4164889836532,498.5135859734546L126.2437810945274,498.5135859734546L125.8528784648188,498.5135859734546L123.50746268656721,497.957726175282L121.1620469083156,496.29008792923196L119.5984363894812,494.06643292824447L118.4257285003554,493.51049464963944L117.25302061122959,493.51049464963944L116.47121535181239,492.9545465586525L116.0803127221038,495.7341888949668L115.68941009239519,496.8459771536873L115.2985074626866,497.40185656887843L114.5167022032694,496.8459771536873L112.95309168443501,496.8459771536873L111.38948116560061,497.40185656887843L110.2167732764748,498.5135859734546L108.6531627576404,499.06943596387646L108.6531627576404,499.06943596387646L108.26226012793181,499.06943596387646L107.4804548685146,499.06943596387646L107.08955223880601,499.06943596387646L107.08955223880601,499.06943596387646L107.08955223880601,498.5135859734546L106.6986496090974,498.5135859734546L106.6986496090974,498.5135859734546L106.30774697938881,499.06943596387646L105.52594171997161,500.1811065236034L104.7441364605544,501.2927378585591L104.7441364605544,502.4043299728837L104.7441364605544,502.9601113236022L105.13503909026299,505.18313869547273L105.13503909026299,505.73887103327434L104.3532338308458,505.73887103327434L104.3532338308458,505.73887103327434L102.78962331201139,505.18313869547273L102.78962331201139,505.18313869547273L102.39872068230281,504.6273965561122L98.8805970149254,504.07164461470165L97.316986496091,502.4043299728837L96.92608386638238,502.4043299728837L96.5351812366738,501.8485388180525L96.14427860696519,501.2927378585591L96.14427860696519,500.7369270939125L96.14427860696519,500.7369270939125L95.36247334754803,500.7369270939125L94.97157071783941,500.1811065236034L94.97157071783941,500.1811065236034L94.97157071783941,499.6252761470896L95.36247334754803,499.06943596387646L95.75337597725662,497.957726175282L95.75337597725662,496.8459771536873L95.75337597725662,496.29008792923196L95.36247334754803,495.17828005038245L94.97157071783941,492.39858865477436L94.97157071783941,491.8426209375102L94.58066808813082,491.8426209375102L94.58066808813082,491.28664340629985L94.18976545842222,490.73065606066666L93.79886282871362,490.17465890006497L93.40796019900502,490.17465890006497L93.40796019900502,490.17465890006497L93.01705756929643,490.17465890006497L92.23525230987921,490.17465890006497L92.6261549395878,490.17465890006497L93.01705756929643,489.06263513195154L94.18976545842222,487.9505720978159L95.36247334754803,486.8384697935653L97.316986496091,484.61414735810104L97.316986496091,484.61414735810104L97.316986496091,484.61414735810104L96.5351812366738,484.05804219894344L95.75337597725662,484.05804219894344L95.36247334754803,483.5019272186546L95.75337597725662,482.94580241668154L97.7078891257996,480.72120498186996L97.7078891257996,479.6088473210548L97.316986496091,479.05265375297677L97.316986496091,478.49645035910726L97.7078891257996,478.49645035910726L98.4896943852168,478.49645035910726L99.27149964463399,479.05265375297677L100.0533049040512,480.72120498186996L100.8351101634684,481.8335233457037L100.8351101634684,481.8335233457037L102.39872068230281,482.94580241668154L105.52594171997161,482.3896677925368L107.08955223880601,482.3896677925368L108.26226012793181,481.8335233457037L109.04406538734901,480.72120498186996L109.8258706467662,479.05265375297677L109.8258706467662,478.49645035910726L110.2167732764748,477.94023713893694L110.2167732764748,476.8277812175693L110.2167732764748,476.8277812175693L109.8258706467662,474.60275143638137L108.6531627576404,472.37756437631833L106.30774697938881,472.93387588802943L103.9623312011372,472.93387588802943L102.00781805259419,472.93387588802943L100.8351101634684,472.93387588802943L99.27149964463399,472.93387588802943L98.4896943852168,472.93387588802943L96.92608386638238,474.60275143638137L96.92608386638238,474.60275143638137L96.14427860696519,474.60275143638137L96.14427860696519,474.60275143638137L96.14427860696519,474.04646941755345L96.14427860696519,472.37756437631833L96.14427860696519,471.2649118563568L96.5351812366738,469.5958593274154L96.5351812366738,469.03948881595716L96.5351812366738,469.03948881595716L94.97157071783941,469.03948881595716L93.01705756929643,469.03948881595716L92.23525230987921,469.03948881595716L91.06254442075341,468.4831084694051L91.45344705046202,465.7010591920043L89.88983653162762,465.7010591920043L88.71712864250182,465.7010591920043L87.54442075337602,465.1446198239937L87.15351812366742,465.1446198239937L86.7626154939588,465.1446198239937L86.37171286425021,465.1446198239937L85.19900497512441,464.58817061724767L84.80810234541582,464.0317115712678L84.4171997157072,462.3622753927448L84.4171997157072,461.8057769846346L84.4171997157072,459.5796849287799L84.80810234541582,457.3534353705654L84.80810234541582,456.796848367394L84.80810234541582,456.796848367394L85.58990760483302,456.796848367394L87.93532338308462,456.796848367394L88.32622601279321,455.68364482107063L88.71712864250182,455.68364482107063L88.71712864250182,455.68364482107063L91.84434968017061,456.2402515177273L95.36247334754803,455.68364482107063L96.5351812366738,454.0137656438601L97.316986496091,452.3437978249676L96.92608386638238,451.2304366934259L96.92608386638238,451.2304366934259L97.316986496091,450.11703615521037L97.7078891257996,450.11703615521037L99.27149964463399,449.5603211072994L101.226012793177,449.0035962061702L102.00781805259419,449.0035962061702L102.39872068230281,448.4468614513098L103.9623312011372,448.4468614513098L105.13503909026299,449.0035962061702L106.30774697938881,449.5603211072994L108.26226012793181,447.8901168421762L108.26226012793181,444.5494422189695L110.6076759061834,444.5494422189695L113.3439943141436,443.9926286155096L114.5167022032694,443.9926286155096L114.12579957356081,443.9926286155096L114.12579957356081,442.8789718328626L114.5167022032694,442.3221286526241L114.907604832978,440.0946573268775L114.12579957356081,439.53776484163245L112.95309168443501,439.53776484163245L110.6076759061834,439.53776484163245L109.4349680170576,439.53776484163245L107.4804548685146,440.0946573268775L107.08955223880601,440.0946573268775L107.08955223880601,439.53776484163245L106.6986496090974,439.53776484163245L106.30774697938881,438.4239502829696L106.6986496090974,437.86702820849314L106.6986496090974,437.3100962699209L106.6986496090974,437.3100962699209L107.4804548685146,436.19620279831724L107.87135749822322,434.5252885971058L107.87135749822322,433.41129646101035L109.04406538734901,430.6261434169537L109.4349680170576,430.6261434169537L109.4349680170576,430.06908319763534L109.04406538734901,428.3978433092634L109.04406538734901,428.3978433092634L108.6531627576404,427.84074360128216L106.6986496090974,427.2836340198264L106.6986496090974,427.2836340198264L106.30774697938881,426.1693852344615L106.30774697938881,426.1693852344615L106.6986496090974,425.6122460294973L106.30774697938881,425.6122460294973L104.7441364605544,424.4979379924371L103.9623312011372,423.3835904490261L102.78962331201139,422.26920339516437L102.00781805259419,421.15477682662095L102.00781805259419,419.483062874755L101.6169154228856,418.9258051289762L101.226012793177,418.3685375014029L98.8805970149254,416.69667532279345L97.7078891257996,416.69667532279345L96.92608386638238,416.69667532279345L96.92608386638238,416.69667532279345L95.36247334754803,417.81125999152573L94.97157071783941,417.81125999152573L94.18976545842222,417.81125999152573L94.18976545842222,417.81125999152573L94.18976545842222,417.81125999152573L94.18976545842222,417.2539725988354L94.58066808813082,413.91004067423273L95.36247334754803,411.68055500211995L95.75337597725662,409.4509111132393L96.14427860696519,408.33602982707816L102.39872068230281,410.00833692009473L102.39872068230281,408.33602982707816L103.18052594172,407.2211089742377L103.5714285714286,406.6636337090167L105.13503909026299,404.9911485518205L105.13503909026299,403.3185743414324L105.52594171997161,401.0883368427458L107.4804548685146,399.41555478688315L108.6531627576404,398.8579409689264L109.8258706467662,398.8579409689264L111.38948116560061,399.41555478688315L111.38948116560061,399.41555478688315L111.7803837953092,397.74268363090596L112.17128642501781,397.18504010979086L111.38948116560061,396.6273866865886L110.998578535892,394.39667396233926L110.998578535892,393.83897102082847L111.38948116560061,393.28125817407636L111.38948116560061,392.72353542159544L111.38948116560061,392.72353542159544L111.38948116560061,392.1658027628255L111.38948116560061,392.1658027628255L111.38948116560061,392.1658027628255L110.6076759061834,392.1658027628255L109.04406538734901,392.1658027628255L107.87135749822322,392.72353542159544L107.08955223880601,393.28125817407636L104.3532338308458,390.492545343699L103.9623312011372,389.93477305462875L102.00781805259419,389.3769908566974L101.226012793177,388.8191987493483L102.39872068230281,387.14576296570885L103.18052594172,386.0300895533437L103.9623312011372,385.47223797863626L104.3532338308458,385.47223797863626L104.7441364605544,385.47223797863626L105.13503909026299,385.47223797863626L105.52594171997161,385.47223797863626L105.9168443496802,385.47223797863626L106.30774697938881,384.9143764908622L106.6986496090974,384.35650508950494L107.08955223880601,383.2407325439817L106.6986496090974,382.6828313987571L106.30774697938881,382.1249203378793L105.13503909026299,381.56699936080986L103.9623312011372,381.009068467014L103.18052594172,381.009068467014L102.78962331201139,381.009068467014L102.00781805259419,381.009068467014L102.00781805259419,381.009068467014L102.00781805259419,381.009068467014L102.00781805259419,381.009068467014L102.00781805259419,379.89317692720215L101.6169154228856,379.89317692720215L100.44420753375981,379.89317692720215L98.8805970149254,380.4511276559788L97.316986496091,381.56699936080986L97.316986496091,381.56699936080986L96.92608386638238,382.1249203378793L96.5351812366738,382.1249203378793L95.36247334754803,382.6828313987571L94.97157071783941,383.2407325439817L95.36247334754803,382.6828313987571L96.14427860696519,381.009068467014L96.92608386638238,379.89317692720215L95.75337597725662,379.33521628013114L94.18976545842222,378.219265229076L92.6261549395878,376.54526425231234L91.06254442075341,377.1032744986078L89.10803127221041,378.219265229076L86.7626154939588,377.66127482402953L85.19900497512441,376.54526425231234L84.80810234541582,375.9872440845975L84.02629708599862,375.42921399492843L83.24449182658141,374.8711739827995L81.68088130774701,374.3131240476978L80.8990760483298,374.3131240476978L80.8990760483298,374.3131240476978L80.50817341862121,374.3131240476978L80.1172707889126,374.3131240476978L80.8990760483298,372.63891469922964L80.50817341862121,372.63891469922964L80.1172707889126,372.08082506694336L80.1172707889126,370.9646160250668L80.50817341862121,370.40649661441057L80.50817341862121,369.8483672766015L81.28997867803842,369.29022801108295L81.68088130774701,368.73207881736744L83.63539445629003,369.29022801108295L84.4171997157072,368.173919694902L85.98081023454161,366.49938274984015L86.37171286425021,365.3829751331832L86.7626154939588,364.2665277890046L87.93532338308462,361.475235593196L88.71712864250182,360.35864916971695L89.49893390191903,359.24202299990066L89.88983653162762,357.567009211547L89.88983653162762,357.567009211547L89.49893390191903,357.567009211547L87.54442075337602,355.33351834233326L86.7626154939588,354.2167132619943L85.58990760483302,352.5414310724991L84.4171997157072,350.8660593876557L83.24449182658141,349.7490952044682L83.24449182658141,349.7490952044682L82.85358919687282,349.7490952044682L81.28997867803842,349.1905981933087L80.8990760483298,349.1905981933087L80.50817341862121,349.1905981933087L79.72636815920401,348.6320912350857L79.33546552949541,348.0735743292498L79.33546552949541,348.0735743292498L78.94456289978682,347.51504747530635L78.5536602700782,346.95651067270956L77.771855010661,346.39796392094286L77.771855010661,346.39796392094286L77.38095238095241,346.39796392094286L76.99004975124382,346.39796392094286L73.4719260838664,345.8394072194751L73.08102345415782,345.8394072194751L72.6901208244492,345.28084056778243L72.6901208244492,345.28084056778243L72.6901208244492,345.28084056778243L72.6901208244492,344.7222639653555L71.90831556503201,342.48785803766077L69.56289978678043,340.8119490833669L66.04477611940302,339.1359505345572L65.65387348969443,339.1359505345572L65.65387348969443,339.1359505345572L63.69936034115142,336.3424204824951L60.96304193319122,334.6661829457116L59.79033404406542,333.5486414518018L59.008528784648234,332.98985576244013L58.22672352523102,331.8722544963239L58.22672352523102,331.3134389184961L57.83582089552243,330.75461337681554L57.05401563610522,327.40145085586846L57.05401563610522,327.40145085586846L57.05401563610522,327.40145085586846L57.05401563610522,326.8425555523354L54.70859985785361,324.04792950301635L54.31769722814502,323.4889743831227L54.70859985785361,322.9300092919948L53.92679459843643,323.4889743831227L53.53589196872781,324.04792950301635L51.581378820184824,325.7247350405232L50.40867093105902,326.28365028073677L48.845060412224626,326.8425555523354L48.063255152807415,326.8425555523354L47.67235252309882,327.40145085586846L47.28144989339023,327.40145085586846L47.28144989339023,327.40145085586846L45.71783937455584,327.9603361918489L45.326936744847245,327.9603361918489L44.936034115138625,328.5192115607824L44.54513148543003,328.5192115607824L44.15422885572144,329.0780769632329L43.76332622601285,329.0780769632329L42.98152096659564,328.5192115607824L40.63610518834403,326.28365028073677L39.07249466950964,325.7247350405232L37.508884150675215,324.6068746521887L37.11798152096665,324.04792950301635L36.72707889125803,324.04792950301635L37.508884150675215,322.9300092919948L38.681592039801046,321.81204919394077L39.46339729921823,320.6940492046415L39.85429992892682,320.6940492046415L41.02700781805265,318.45792953544515L41.417910447761244,317.89887467953304L42.19971570717843,315.6625554856546L42.59061833688702,315.10345074200814L42.59061833688702,313.4260766341613L42.98152096659564,312.30777732626666L43.76332622601285,311.1894380913254L44.936034115138625,308.95263982344113L45.326936744847245,307.8341807820725L46.10874200426446,306.7156817967989L46.49964463397305,306.7156817967989L48.063255152807415,307.8341807820725L49.62686567164184,308.39341529547164L50.40867093105902,308.95263982344113L50.79957356076761,308.95263982344113L50.79957356076761,308.95263982344113L51.581378820184824,308.39341529547164L52.75408670931063,307.8341807820725L53.53589196872781,307.2749362826835L54.31769722814502,307.2749362826835L55.490405117270825,306.7156817967989L56.27221037668804,306.7156817967989L56.66311300639663,305.0378584148348L56.66311300639663,305.0378584148348L56.27221037668804,304.47856397765645L55.490405117270825,303.3599451353657L54.70859985785361,302.8006207292019L51.19047619047623,298.32566576957106L49.23596304193322,296.08794842807765L45.71783937455584,291.612033852849L45.326936744847245,291.612033852849L45.326936744847245,291.612033852849L44.936034115138625,291.612033852849L44.54513148543003,291.612033852849L42.59061833688702,291.612033852849L42.19971570717843,291.612033852849L41.808813077469836,291.612033852849L41.808813077469836,291.0524995307678L40.63610518834403,289.9334008806618L41.02700781805265,289.9334008806618L41.808813077469836,288.25467788274545L42.59061833688702,287.1354791961421L42.98152096659564,286.01624048753L43.37242359630423,284.33730737416045L43.76332622601285,283.77764298745024L43.76332622601285,283.21796859208916L42.98152096659564,282.0985897732171L42.19971570717843,280.9791709133424L41.808813077469836,279.85971200822314L41.417910447761244,279.2999675373685L41.02700781805265,276.5010949790849L41.417910447761244,276.5010949790849L41.417910447761244,276.5010949790849L41.808813077469836,274.26181665589684L41.808813077469836,272.02237805017285L41.808813077469836,270.902598630797L41.808813077469836,268.6629195378191L41.808813077469836,267.54301985573693L42.19971570717843,266.9830549789622L42.98152096659564,266.9830549789622L43.37242359630423,266.9830549789622L44.15422885572144,266.9830549789622L45.326936744847245,266.42308007763495L46.10874200426446,266.42308007763495L46.10874200426446,265.8630951512532L46.89054726368164,265.303100199264L48.845060412224626,263.0630201247732L48.454157782516006,261.94291992017315L46.89054726368164,261.38285477417594L46.49964463397305,261.38285477417594L45.71783937455584,260.8227795983403L44.936034115138625,260.2626943921641L44.54513148543003,260.2626943921641L44.15422885572144,259.7025991550727L43.37242359630423,259.1424938865712L43.37242359630423,258.582378586103L42.98152096659564,258.582378586103L40.63610518834403,259.1424938865712L38.681592039801046,259.1424938865712L36.33617626154944,259.1424938865712L35.16346837242364,259.1424938865712L31.645344705046227,259.7025991550727L26.17270788912583,260.2626943921641L25.39090262970862,253.5408893565509L25.00000000000003,252.980673707385L25.00000000000003,252.980673707385L25.00000000000003,252.980673707385L25.78180525941724,251.86021229518155L26.954513148543015,250.73971072757558L28.127221037668818,250.1794448841938L28.51812366737741,249.61916900036158L28.909026297086,249.0588830755696L29.69083155650324,247.37796505005463L30.081734186211833,245.69695663671519L30.472636815920424,245.1366004102747L30.472636815920424,245.1366004102747L31.254442075337636,245.69695663671519L32.42714996446344,245.69695663671519L34.772565742715045,245.69695663671519L38.290689410092426,245.69695663671519L39.07249466950964,246.25730281847427L40.24520255863544,245.1366004102747L41.417910447761244,244.01585782122493L41.808813077469836,244.01585782122493L42.98152096659564,242.89507504707217L44.15422885572144,241.77425208357454L45.71783937455584,244.57623413862893L46.49964463397305,244.01585782122493L47.67235252309882,242.89507504707217L48.454157782516006,242.3346685892684L48.845060412224626,241.21382552948126L48.845060412224626,239.532485571508L48.454157782516006,237.85105515881514L48.454157782516006,237.2905582510648L48.063255152807415,236.73005129066587L48.454157782516006,235.0484700882298L48.845060412224626,233.9273656802725L48.845060412224626,233.36679839281715L48.845060412224626,233.36679839281715L49.62686567164184,233.36679839281715L50.40867093105902,233.9273656802725L51.581378820184824,234.4879229119033L55.099502487562205,235.0484700882298L56.27221037668804,235.0484700882298L56.66311300639663,235.60900720976497L58.61762615493964,235.60900720976497L59.79033404406542,236.16953427706903L60.57213930348263,236.16953427706903L61.35394456289984,236.73005129066587L61.35394456289984,236.73005129066587L61.74484719260843,236.73005129066587L62.135749822317024,237.2905582510648L62.526652452025616,237.2905582510648L62.917555081734236,237.2905582510648L62.917555081734236,237.2905582510648L65.26297085998584,236.16953427706903L66.82658137882021,235.60900720976497L69.17199715707181,235.0484700882298L71.12651030561483,234.4879229119033L73.08102345415782,233.36679839281715L73.4719260838664,233.36679839281715L73.86282871357503,233.36679839281715L76.2082444918266,233.36679839281715L77.771855010661,233.36679839281715L78.5536602700782,233.9273656802725L79.72636815920401,234.4879229119033L80.50817341862121,234.4879229119033L80.8990760483298,234.4879229119033L84.02629708599862,233.9273656802725L84.4171997157072,233.9273656802725L85.98081023454161,233.36679839281715L86.37171286425021,232.80622104897338L86.37171286425021,232.80622104897338L87.15351812366742,232.24563364823553L89.10803127221041,229.44254577244646L89.49893390191903,228.8818980191354L90.28073916133623,227.76057233012034L90.28073916133623,227.76057233012034L89.88983653162762,226.63920639436037L89.49893390191903,225.51780020757724L89.10803127221041,224.95708201874731L89.88983653162762,223.83561544749318L90.67164179104482,223.27486706400668L93.01705756929643,222.71410861457844L93.40796019900502,222.71410861457844L94.18976545842222,222.71410861457844L94.97157071783941,223.83561544749318L95.75337597725662,223.83561544749318L97.316986496091,224.39635376555088L97.7078891257996,224.39635376555088L97.7078891257996,223.83561544749318L97.7078891257996,223.27486706400668L97.7078891257996,222.71410861457844L98.8805970149254,222.71410861457844L98.8805970149254,222.1533400986882L99.66240227434261,222.71410861457844L100.8351101634684,222.71410861457844L101.226012793177,222.71410861457844L101.226012793177,222.71410861457844L105.13503909026299,222.71410861457844L105.52594171997161,222.71410861457844L107.08955223880601,223.27486706400668L108.26226012793181,223.27486706400668L109.04406538734901,223.27486706400668L109.04406538734901,223.27486706400668L109.4349680170576,223.27486706400668L110.6076759061834,223.27486706400668L110.998578535892,223.27486706400668L111.7803837953092,223.83561544749318L112.5621890547264,224.39635376555088L112.17128642501781,225.51780020757724L111.7803837953092,226.63920639436037L111.38948116560061,228.8818980191354L111.7803837953092,228.8818980191354L111.7803837953092,228.8818980191354L111.7803837953092,228.8818980191354L113.3439943141436,228.8818980191354L114.12579957356081,228.8818980191354L114.907604832978,230.00318346565473L114.907604832978,230.5638110993168L115.2985074626866,231.12442867395293L114.907604832978,231.68503619007242L114.907604832978,231.68503619007242L114.907604832978,232.24563364823553L115.68941009239519,233.36679839281715L115.68941009239519,233.9273656802725L117.64392324093821,236.73005129066587L118.4257285003554,238.41154201445897L119.2075337597726,239.532485571508L119.5984363894812,239.532485571508L119.5984363894812,240.0929422739864L119.9893390191898,238.97201881852016L121.55294953802421,238.97201881852016L122.72565742715,238.97201881852016L123.50746268656721,239.532485571508L124.680170575693,239.532485571508L127.8073916133618,237.85105515881514L127.8073916133618,237.2905582510648L128.98009950248758,236.16953427706903L129.7619047619048,234.4879229119033L130.543710021322,232.80622104897338L131.71641791044777,232.24563364823553L133.6709310589908,231.12442867395293L134.06183368869938,231.12442867395293L134.452736318408,231.12442867395293L134.452736318408,231.12442867395293L134.452736318408,231.68503619007242L135.2345415778252,232.24563364823553L135.6254442075338,232.24563364823553L136.407249466951,232.24563364823553L137.5799573560768,232.24563364823553L139.53447050461978,232.24563364823553L140.7071783937456,232.80622104897338L141.0980810234542,232.24563364823553L141.87988628287138,231.68503619007242L142.6616915422886,230.00318346565473L142.6616915422886,230.00318346565473L143.8343994314144,230.5638110993168L143.8343994314144,230.5638110993168L145.0071073205402,231.68503619007242L145.0071073205402,231.68503619007242L144.61620469083158,233.36679839281715L144.225302061123,233.36679839281715L144.225302061123,233.36679839281715L143.44349680170578,233.9273656802725L142.6616915422886,235.0484700882298L141.4889836531628,236.73005129066587L142.27078891257997,237.2905582510648L142.6616915422886,237.2905582510648L143.44349680170578,237.2905582510648L145.0071073205402,237.2905582510648L145.78891257995738,235.60900720976497L146.5707178393746,234.4879229119033L147.35252309879178,233.36679839281715L147.7434257285004,232.24563364823553L147.35252309879178,231.68503619007242L147.35252309879178,231.12442867395293L148.134328358209,230.00318346565473L148.134328358209,229.44254577244646L147.7434257285004,228.8818980191354L146.9616204690832,228.8818980191354L145.3980099502488,227.76057233012034L145.0071073205402,227.76057233012034L145.3980099502488,227.19989439334677L145.3980099502488,227.19989439334677L145.78891257995738,227.19989439334677L146.5707178393746,226.07850833260818L146.9616204690832,226.07850833260818L147.7434257285004,225.51780020757724L148.52523098791758,224.95708201874731L148.9161336176262,224.39635376555088L149.3070362473348,223.83561544749318L149.3070362473348,223.27486706400668L149.69793887704338,222.1533400986882L150.08884150675198,221.031772865339L150.4797441364606,219.34934650342984L150.8706467661692,218.78851757749726L151.6524520255864,217.6668295144991L152.43425728500358,216.54510116642632L152.82515991471217,214.86243310049394L152.82515991471217,214.30152359804197L152.82515991471217,213.7406040211099L152.43425728500358,212.05778483822724L152.043354655295,210.93585500089466L152.043354655295,210.3748749659935L151.6524520255864,209.25288466110214L151.26154939587778,205.88667182711652L150.4797441364606,205.32560106929668L150.08884150675198,204.7645202284766L149.69793887704338,204.7645202284766L148.9161336176262,205.32560106929668L149.3070362473348,204.20342930413244L149.3070362473348,203.6423282957403L150.8706467661692,201.3978234108945L152.43425728500358,199.71433883850113L152.82515991471217,199.71433883850113L153.99786780383798,199.15315713842574L154.7796730632552,199.15315713842574L155.56147832267237,199.15315713842574L156.34328358208958,199.15315713842574L158.29779673063257,198.03076347116803L158.29779673063257,196.90832944420254L158.6886993603412,195.22460271995078L157.5159914712154,194.6633402940388L157.1250888415068,194.6633402940388L157.5159914712154,194.10206777502026L157.90689410092398,192.97949245541895L159.4705046197584,190.17287748927993L160.25230987917558,189.0501608247214Z" style="fill: none; stroke: rgb(8, 48, 107);"><title>CHARENTE</title></path><g stroke="#000" stroke-opacity="0.2"><path d="M0,-13.34775705149959L2.9967581703553763,-4.1246837657014135L12.69447132175327,-4.124683765701414L4.848856575698947,1.5754890056530315L7.845614746054325,10.798562291451207L8.881784197001252e-16,5.098389520096762L-7.845614746054323,10.798562291451208L-4.848856575698946,1.5754890056530328L-12.694471321753271,-4.124683765701411L-2.9967581703553776,-4.124683765701413Z" transform="translate(464.7654584221749,99.66457174711832)rotate(10.773992498554778)" fill="white" class="commune"><title>16106 Population : 2691</title></path><path d="M0,-15.873247654971056L3.5637661381291506,-4.905103281308338L15.096355617026989,-4.905103281308339L5.766294739448918,1.873582735131148L9.330060877578072,12.841727108793865L8.881784197001252e-16,6.063041092354379L-9.330060877578068,12.841727108793867L-5.766294739448918,1.8735827351311491L-15.09635561702699,-4.905103281308335L-3.563766138129152,-4.905103281308337Z" transform="translate(75.0355366027008,284.33730737416045)rotate(12.455988712993731)" fill="white" class="commune"><title>16102 Population : 18702</title></path><path d="M0,-22.448162112566994L5.039926405668234,-6.936863585267022L21.349470856006818,-6.936863585267023L8.154772225169292,2.649646114250548L13.19469863083753,18.16094464155052L8.881784197001252e-16,8.574434942032948L-13.194698630837525,18.160944641550522L-8.154772225169292,2.649646114250549L-21.34947085600682,-6.936863585267019L-5.0399264056682345,-6.936863585267021Z" transform="translate(262.66879886282874,311.7486126999356)rotate(13.859672832291798)" fill="white" class="commune"><title>16015 Population : 41935</title></path></g><text class="text" y="25" x="326" text-anchor="middle" font-size="24" font-family="Helvetica" fill="#6baed6">16 - CHARENTE</text><line x1="250.15991471215355" y1="309.92119234488393" x2="87.544420753376" y2="286.16472772921213" stroke="yellow" opacity="0.35" stroke-width="2"/><line x1="101.01753139066574" y1="272.025791665691" x2="438.78346363420997" y2="111.97608745558779" stroke="yellow" opacity="0.35" stroke-width="2"/><line x1="451.2923477848852" y1="113.80350781063947" x2="276.14190950011846" y2="297.60967663641446" stroke="yellow" opacity="0.35" stroke-width="2"/></svg>