<svg viewBox="0,0,954,1144.8" width="954" height="1144.8" style="width: 100%; height: auto;" xmlns="http://www.w3.org/2000/svg" xmlns:xlink="http://www.w3.org/1999/xlink"><rect width="954" height="1144.8" fill="black"/><g stroke="#000" stroke-opacity="0.2"><path d="M0,-18.876579049491834L4.238056047668955,-5.833183721955068L17.952693510379785,-5.833183721955069L6.857318731355415,2.2280779191642193L11.095374779024372,15.271473246700983L8.881784197001252e-16,7.210211605581696L-11.095374779024368,15.271473246700985L-6.857318731355414,2.2280779191642206L-17.952693510379788,-5.833183721955065L-4.238056047668956,-5.833183721955068Z" transform="translate(555.2851843264548,361.66748695746355)rotate(17.4956815391891)" fill="white" class="commune"><title>insee_com : 76217 
Population : 29080
 Nom : DIEPPE</title></path><path d="M0,-26.69551410299918L5.993516340710753,-8.249367531402827L25.38894264350654,-8.249367531402829L9.697713151397894,3.150978011306063L15.69122949210865,21.597124582902413L1.7763568394002505e-15,10.196779040193524L-15.691229492108645,21.597124582902417L-9.697713151397892,3.1509780113060657L-25.388942643506542,-8.249367531402822L-5.993516340710755,-8.249367531402825Z" transform="translate(567.0751217250174,749.8424199308174)rotate(25.402765376269222)" fill="white" class="commune"><title>insee_com : 76540 
Population : 110145
 Nom : ROUEN</title></path><path d="M0,-31.746495309942112L7.127532276258301,-9.810206562616676L30.192711234053977,-9.810206562616678L11.532589478897837,3.747165470262296L18.660121755156144,25.68345421758773L1.7763568394002505e-15,12.126082184708759L-18.660121755156137,25.683454217587734L-11.532589478897837,3.7471654702622983L-30.19271123405398,-9.81020656261667L-7.127532276258304,-9.810206562616674Z" transform="translate(47.11268258752611,708.8812386232494)rotate(11.59174616894564)" fill="white" class="commune"><title>insee_com : 76351 
Population : 170147
 Nom : HAVRE</title></path></g><text class="text" y="40" x="427" text-anchor="middle" font-size="36" font-family="Helvetica" fill="#6baed6">76  - SEINE MARITIME</text><line x1="521.4070175438595" y1="384.81507040184925" x2="80.99084937012135" y2="685.7336551788636" stroke="yellow" opacity="0.35" stroke-width="2"/><line x1="81.7768451966922" y1="711.6119840437539" x2="532.4109591158514" y2="747.1116745103129" stroke="yellow" opacity="0.35" stroke-width="2"/><line x1="566.2891258984466" y1="723.9640910659272" x2="556.0711801530256" y2="387.5458158223538" stroke="yellow" opacity="0.35" stroke-width="2"/></svg>