<svg viewBox="0,0,954,1144.8" width="954" height="1144.8" style="width: 100%; height: auto;" xmlns="http://www.w3.org/2000/svg" xmlns:xlink="http://www.w3.org/1999/xlink"><rect width="954" height="1144.8" fill="black"/><g stroke="#000" stroke-opacity="0.2"><path d="M0,-18.876579049491834L4.238056047668955,-5.833183721955068L17.952693510379785,-5.833183721955069L6.857318731355415,2.2280779191642193L11.095374779024372,15.271473246700983L8.881784197001252e-16,7.210211605581696L-11.095374779024368,15.271473246700985L-6.857318731355414,2.2280779191642206L-17.952693510379788,-5.833183721955065L-4.238056047668956,-5.833183721955068Z" transform="translate(475.94595964716586,606.5019107979169)rotate(9.02951663842337)" fill="white" class="commune"><title>insee_com : 95500 
Population : 30767
 Nom : PONTOISE</title></path><path d="M0,-22.448162112566994L5.039926405668234,-6.936863585267022L21.349470856006818,-6.936863585267023L8.154772225169292,2.649646114250548L13.19469863083753,18.16094464155052L8.881784197001252e-16,8.574434942032948L-13.194698630837525,18.160944641550522L-8.154772225169292,2.649646114250549L-21.34947085600682,-6.936863585267019L-5.0399264056682345,-6.936863585267021Z" transform="translate(730.3821352529653,681.4209904100644)rotate(2.910615126507973)" fill="white" class="commune"><title>insee_com : 95585 
Population : 58587
 Nom : SARCELLES</title></path><path d="M0,-26.69551410299918L5.993516340710753,-8.249367531402827L25.38894264350654,-8.249367531402829L9.697713151397894,3.150978011306063L15.69122949210865,21.597124582902413L1.7763568394002505e-15,10.196779040193524L-15.691229492108645,21.597124582902417L-9.697713151397892,3.1509780113060657L-25.388942643506542,-8.249367531402822L-5.993516340710755,-8.249367531402825Z" transform="translate(611.7796816384466,750.5377488060403)rotate(26.130500519750107)" fill="white" class="commune"><title>insee_com : 95018 
Population : 110210
 Nom : ARGENTEUIL</title></path></g><text class="text" y="40" x="427" text-anchor="middle" font-size="36" font-family="Helvetica" fill="#6baed6">95  - VAL D OISE</text><line x1="602.7241001723612" y1="740.9353596054988" x2="485.0015411132512" y2="616.1042999984585" stroke="yellow" opacity="0.35" stroke-width="2"/><line x1="492.9083713542192" y1="611.4965161053934" x2="713.419723545912" y2="676.4263851025879" stroke="yellow" opacity="0.35" stroke-width="2"/><line x1="722.4753050119974" y1="686.0287743031295" x2="619.6865118794145" y2="745.9299649129753" stroke="yellow" opacity="0.35" stroke-width="2"/></svg>