<svg viewBox="0,0,954,1144.8" width="954" height="1144.8" style="width: 100%; height: auto;" xmlns="http://www.w3.org/2000/svg" xmlns:xlink="http://www.w3.org/1999/xlink"><rect width="954" height="1144.8" fill="black"/><g stroke="#000" stroke-opacity="0.2"><path d="M0,-13.34775705149959L2.9967581703553763,-4.1246837657014135L12.69447132175327,-4.124683765701414L4.848856575698947,1.5754890056530315L7.845614746054325,10.798562291451207L8.881784197001252e-16,5.098389520096762L-7.845614746054323,10.798562291451208L-4.848856575698946,1.5754890056530328L-12.694471321753271,-4.124683765701411L-2.9967581703553776,-4.124683765701413Z" transform="translate(159.34121226304683,672.6685308419255)rotate(2.4951955182070797)" fill="white" class="commune"><title>insee_com : 87126 
Population : 3778
 Nom : ROCHECHOUART</title></path><path d="M0,-13.34775705149959L2.9967581703553763,-4.1246837657014135L12.69447132175327,-4.124683765701414L4.848856575698947,1.5754890056530315L7.845614746054325,10.798562291451207L8.881784197001252e-16,5.098389520096762L-7.845614746054323,10.798562291451208L-4.848856575698946,1.5754890056530328L-12.694471321753271,-4.124683765701411L-2.9967581703553776,-4.124683765701413Z" transform="translate(319.2813011935407,368.9785729573414)rotate(18.502889011964996)" fill="white" class="commune"><title>insee_com : 87011 
Population : 3808
 Nom : BELLAC</title></path><path d="M0,-26.69551410299918L5.993516340710753,-8.249367531402827L25.38894264350654,-8.249367531402829L9.697713151397894,3.150978011306063L15.69122949210865,21.597124582902413L1.7763568394002505e-15,10.196779040193524L-15.691229492108645,21.597124582902417L-9.697713151397892,3.1509780113060657L-25.388942643506542,-8.249367531402822L-5.993516340710755,-8.249367531402825Z" transform="translate(470.1947889851001,668.5194528567881)rotate(22.89349706838001)" fill="white" class="commune"><title>insee_com : 87085 
Population : 132175
 Nom : LIMOGES</title></path></g><text class="text" y="40" x="427" text-anchor="middle" font-size="36" font-family="Helvetica" fill="#6baed6">87  - HAUTE VIENNE</text><line x1="329.3422003796446" y1="388.9479649506378" x2="460.13388979899617" y2="648.5500608634917" stroke="yellow" opacity="0.35" stroke-width="2"/><line x1="449.47121720362986" y1="668.7960580557973" x2="180.06478404451704" y2="672.3919256429164" stroke="yellow" opacity="0.35" stroke-width="2"/><line x1="170.00388485841307" y1="652.4225336496199" x2="308.61862859817444" y2="389.224570149647" stroke="yellow" opacity="0.35" stroke-width="2"/></svg>