<svg viewBox="0,0,954,1144.8" width="954" height="1144.8" style="width: 100%; height: auto;" xmlns="http://www.w3.org/2000/svg" xmlns:xlink="http://www.w3.org/1999/xlink"><rect width="954" height="1144.8" fill="black"/><g stroke="#000" stroke-opacity="0.2"><path d="M0,-15.873247654971056L3.5637661381291506,-4.905103281308338L15.096355617026989,-4.905103281308339L5.766294739448918,1.873582735131148L9.330060877578072,12.841727108793865L8.881784197001252e-16,6.063041092354379L-9.330060877578068,12.841727108793867L-5.766294739448918,1.8735827351311491L-15.09635561702699,-4.905103281308335L-3.563766138129152,-4.905103281308337Z" transform="translate(678.7498412698405,621.976641416346)rotate(2.396794387888499)" fill="white" class="commune"><title>insee_com : 93062 
Population : 14648
 Nom : RAINCY</title></path><path d="M0,-22.448162112566994L5.039926405668234,-6.936863585267022L21.349470856006818,-6.936863585267023L8.154772225169292,2.649646114250548L13.19469863083753,18.16094464155052L8.881784197001252e-16,8.574434942032948L-13.194698630837525,18.160944641550522L-8.154772225169292,2.649646114250549L-21.34947085600682,-6.936863585267019L-5.0399264056682345,-6.936863585267021Z" transform="translate(475.27809523809447,588.3598951052409)rotate(7.085476637360243)" fill="white" class="commune"><title>insee_com : 93008 
Population : 53640
 Nom : BOBIGNY</title></path><path d="M0,-26.69551410299918L5.993516340710753,-8.249367531402827L25.38894264350654,-8.249367531402829L9.697713151397894,3.150978011306063L15.69122949210865,21.597124582902413L1.7763568394002505e-15,10.196779040193524L-15.691229492108645,21.597124582902417L-9.697713151397892,3.1509780113060657L-25.388942643506542,-8.249367531402822L-5.993516340710755,-8.249367531402825Z" transform="translate(226.17587301587264,457.336129112693)rotate(20.618505381723068)" fill="white" class="commune"><title>insee_com : 93066 
Population : 111135
 Nom : SAINT DENIS</title></path></g><text class="text" y="40" x="427" text-anchor="middle" font-size="36" font-family="Helvetica" fill="#6baed6">93  - SEINE SAINT DENIS</text><line x1="488.84287830687754" y1="590.6010115259812" x2="665.1850582010575" y2="619.7355249956056" stroke="yellow" opacity="0.35" stroke-width="2"/><line x1="648.5782433862427" y1="611.0006072627691" x2="256.3474708994705" y2="468.31216326626986" stroke="yellow" opacity="0.35" stroke-width="2"/><line x1="242.78268783068742" y1="466.07104684552957" x2="458.67128042327965" y2="579.6249773724044" stroke="yellow" opacity="0.35" stroke-width="2"/></svg>