<svg viewBox="0,0,600,600" width="600" height="600" style="width: 100%; height: auto;" xmlns="http://www.w3.org/2000/svg" xmlns:xlink="http://www.w3.org/1999/xlink"><rect width="752" height="902.4" fill="black"/><path d="M244.41679367548295,242.36324637509097L244.41679367548295,241.86314797605155L244.41679367548295,240.86292505242454L244.77082683678577,238.86237469036132L245.12485999808837,237.361870453984L245.8329263206938,235.86128780549916L246.54099264329898,234.86085580482177L246.54099264329898,234.86085580482177L246.54099264329898,234.36062673261767L246.18695948199638,232.35962328728056L246.18695948199638,231.85935063455327L246.18695948199638,229.85817284433506L246.18695948199638,227.85685554537122L246.8950258046018,227.3565044189636L247.24905896590417,227.3565044189636L247.24905896590417,227.3565044189636L249.3732579337202,225.35501269298402L250.78939057893103,224.8546179541081L251.1434237402334,223.85380230433657L253.26762270804943,225.85539870843422L254.32972219195744,225.85539870843422L255.03778851456286,226.856144570982L255.74585483716783,227.3565044189636L256.0998879984709,228.3571979506669L256.45392115977324,229.3578565996795L256.80795432107584,229.3578565996795L257.1619874823789,229.3578565996795L257.87005380498385,229.3578565996795L259.64021961149706,228.3571979506669L262.1184517406159,227.3565044189636L264.2426507084317,226.856144570982L265.6587833536423,225.85539870843422L267.07491599885293,225.35501269298402L269.19911496666896,225.35501269298402L271.323313934485,225.35501269298402L271.6773470957871,225.35501269298402L271.6773470957871,225.35501269298402L271.6773470957871,224.8546179541081L273.80154606360315,223.85380230433657L274.5096123862086,223.35338139252053L275.5717118701166,222.85295175545616L276.6338113540244,222.85295175545616L277.3418776766298,222.85295175545616L278.0499439992352,222.35251339271053L278.7580103218404,221.3516104883347L278.4039771605378,219.85019067768008L278.0499439992352,218.8492004958607L276.6338113540244,215.84602043153427L276.6338113540244,215.84602043153427L276.279778192722,215.84602043153427L276.279778192722,215.34545986118974L274.5096123862086,214.34431252240392L273.09347974099796,213.84372575304587L271.6773470957871,213.34313024978474L271.6773470957871,212.8425260121403L270.261214450577,210.84002170871827L270.261214450577,210.33937379236886L270.261214450577,209.83871713889312L270.96928077318194,207.33530279878323L272.03138025708995,204.33091717019488L272.385413418393,204.33091717019488L272.73944657969514,203.83015563564913L272.73944657969514,203.83015563564913L272.73944657969514,203.32938535802532L272.73944657969514,203.32938535802532L272.73944657969514,201.326216807749L272.73944657969514,200.32458006231172L272.73944657969514,199.82374857041577L272.73944657969514,199.32290833178195L273.09347974099796,199.32290833178195L273.09347974099796,199.32290833178195L273.447512902301,198.82205934598096L273.80154606360315,198.82205934598096L273.80154606360315,199.32290833178195L274.5096123862086,199.82374857041577L274.86364554751117,199.82374857041577L275.217678708814,199.82374857041577L275.217678708814,199.82374857041577L275.217678708814,199.82374857041577L275.5717118701166,199.32290833178195L275.217678708814,198.32120161251805L275.5717118701166,196.8185759217049L277.3418776766298,194.81495250577063L278.0499439992352,193.81308829177942L279.1120434831432,193.31214305666072L280.174142967051,193.81308829177942L280.52817612835383,193.81308829177942L281.236242450959,193.81308829177942L281.59027561226185,193.81308829177942L283.00640825747223,193.81308829177942L284.06850774138024,193.81308829177942L284.42254090268307,193.81308829177942L285.13060722528803,194.31402477465235L286.5467398704991,194.81495250577063L287.96287251570925,195.81678171451858L288.3169056770121,195.81678171451858L288.67093883831467,195.31587148557446L291.1491709674333,194.31402477465235L291.5032041287359,194.31402477465235L291.5032041287359,194.81495250577063L292.2112704513413,194.81495250577063L292.2112704513413,194.81495250577063L292.2112704513413,194.81495250577063L292.5653036126439,194.31402477465235L292.5653036126439,193.31214305666072L292.9193367739467,192.81118906887423L293.2733699352493,192.31022632792883L293.98143625785474,191.80925483338797L295.75160206436794,191.3082745847787L297.1677347095783,191.3082745847787L298.22983419348634,190.80728558164265L300.7080663226052,190.80728558164265L301.77016580651275,190.80728558164265L301.77016580651275,190.30628782354688L302.1241989678158,190.30628782354688L302.47823212911817,188.80324201476833L302.83226529042076,187.8011676922688L302.83226529042076,185.79691395084956L302.1241989678158,183.79252005636954L302.1241989678158,183.29139968038362L301.77016580651275,182.28913264238508L301.0620994839078,181.28683055326474L299.29193367739435,180.78566636338292L299.29193367739435,180.78566636338292L298.937900516092,180.78566636338292L298.937900516092,180.78566636338292L298.22983419348634,180.78566636338292L297.52176787088115,180.78566636338292L297.1677347095783,181.28683055326474L296.81370154827596,181.28683055326474L296.81370154827596,181.28683055326474L295.75160206436794,181.28683055326474L295.04353574176275,180.78566636338292L294.68950258045993,180.78566636338292L294.68950258045993,180.78566636338292L293.6274030965519,179.28212120697572L293.6274030965519,178.78092195772115L293.2733699352493,177.77849716076526L292.5653036126439,177.27727161213988L291.1491709674333,176.27479421233147L290.0870714835253,173.76844725966657L290.0870714835253,171.26188104229004L290.0870714835253,171.26188104229004L290.0870714835253,170.76054148198818L290.4411046448281,170.25919314835483L290.4411046448281,170.25919314835483L290.7951378061307,170.25919314835483L290.7951378061307,170.25919314835483L291.5032041287359,170.25919314835483L291.5032041287359,170.76054148198818L292.2112704513413,170.76054148198818L292.5653036126439,170.76054148198818L292.9193367739467,170.76054148198818L294.3354694191571,169.25647015918003L294.3354694191571,168.2537120711131L295.04353574176275,165.24522717669242L297.52176787088115,164.2423286562007L296.10563522567077,162.2364262596493L295.04353574176275,160.2303833644146L294.68950258045993,159.22730922058327L294.68950258045993,158.72575897301067L295.04353574176275,158.72575897301067L295.3975689030651,158.72575897301067L297.1677347095783,158.22419994104348L298.58386735478916,157.72263212423059L298.58386735478916,157.72263212423059L298.937900516092,157.22105552209905L298.937900516092,157.22105552209905L298.937900516092,156.71947013419413L298.937900516092,156.21787596007198L299.29193367739435,155.71627299924512L299.29193367739435,155.71627299924512L299.29193367739435,155.71627299924512L300.35403316130214,155.71627299924512L302.47823212911817,157.22105552209905L303.5403316130262,158.22419994104348L303.8943647743288,158.22419994104348L303.8943647743288,158.22419994104348L304.9564642582368,156.21787596007198L307.4346963873552,156.21787596007198L309.20486219386885,156.71947013419413L309.20486219386885,155.21466125127336L309.20486219386885,153.2081263786131L309.20486219386885,151.2014508746397L308.4967958712632,150.19806037671515L307.788729548658,149.1946347098783L305.3104974195396,147.1876778547994L304.60243109693397,147.1876778547994L303.5403316130262,147.1876778547994L302.47823212911817,147.1876778547994L302.1241989678158,147.1876778547994L300.7080663226052,146.18414665917226L298.22983419348634,144.67878389524412L298.22983419348634,144.17697871328346L298.58386735478916,143.6751647335841L298.937900516092,143.17334195565127L299.9999999999998,142.16967000330624L300.7080663226052,140.66409607660535L300.35403316130214,139.1584429410359L300.7080663226052,136.64884499483014L300.7080663226052,136.64884499483014L301.0620994839078,136.64884499483014L302.83226529042076,136.64884499483014L304.60243109693397,137.15078219159113L306.72663006475,137.652710584116L309.91292851647404,138.15463017290313L312.74519380689526,138.15463017290313L313.09922696819785,138.15463017290313L313.4532601295007,138.15463017290313L313.8072932908033,138.15463017290313L314.16132645210587,138.15463017290313L315.2234259360139,138.6565409583891L315.5774590973165,139.1584429410359L316.63955858122426,139.66033612132014L317.3476249038299,140.16222049969292L317.3476249038299,140.16222049969292L317.7016580651323,140.66409607660535L317.7016580651323,140.66409607660535L317.7016580651323,140.66409607660535L318.76375754904006,142.67151037904114L320.1798901942509,143.6751647335841L320.5339233555537,144.17697871328346L320.5339233555537,144.67878389524412L320.1798901942509,146.68591665470376L319.4718238716457,147.6894302598921L318.76375754904006,147.6894302598921L318.4097243877379,149.1946347098783L318.4097243877379,149.69635193963768L318.76375754904006,150.19806037671515L319.1177907103429,151.2014508746397L319.4718238716457,151.70313293644722L320.1798901942509,152.20480620738817L321.5960228394615,152.7064706879537L321.9500560007641,154.211411392007L321.9500560007641,154.211411392007L321.9500560007641,154.211411392007L322.30408916206693,153.70977327981382L323.72022180727754,152.7064706879537L323.72022180727754,152.7064706879537L323.72022180727754,152.7064706879537L323.72022180727754,152.7064706879537L322.30408916206693,150.19806037671515L321.9500560007641,149.69635193963768L322.6581223233695,147.6894302598921L322.6581223233695,147.6894302598921L323.36618864597494,147.1876778547994L324.42828812988273,148.69290868698226L325.84442077509334,149.1946347098783L329.0307192268174,149.1946347098783L329.38475238812,149.1946347098783L329.38475238812,149.1946347098783L329.38475238812,149.1946347098783L329.38475238812,148.69290868698226L329.38475238812,148.191173870473L329.7387855494228,148.191173870473L329.7387855494228,147.6894302598921L329.7387855494228,147.6894302598921L329.38475238812,146.68591665470376L328.6766860655148,145.1805802798881L328.32265290421196,145.1805802798881L328.32265290421196,144.67878389524412L327.26055342030395,144.67878389524412L326.55248709769876,144.67878389524412L326.19845393639616,144.17697871328346L325.84442077509334,143.17334195565127L325.49038761379074,143.17334195565127L325.49038761379074,142.16967000330624L325.49038761379074,142.16967000330624L325.49038761379074,141.6678208279518L324.42828812988273,138.6565409583891L324.42828812988273,138.15463017290313L324.42828812988273,137.652710584116L324.7823212911853,137.652710584116L324.7823212911853,136.64884499483014L324.42828812988273,136.14689899339646L324.7823212911853,135.64494418682443L325.13635445248815,134.13902693163618L325.84442077509334,132.6330304135372L326.19845393639616,129.62079953875218L326.19845393639616,127.61246940541969L326.55248709769876,127.11036484076249L326.55248709769876,126.60825146262869L326.90652025900135,126.60825146262869L327.6145865816068,125.60399826414869L327.96861974290937,125.60399826414869L328.6766860655148,125.60399826414869L329.0307192268174,125.10185844286752L329.0307192268174,125.10185844286752L329.7387855494228,124.59970980628714L329.7387855494228,124.09755235392367L329.7387855494228,123.09321100004308L330.09281871072494,121.08442248267602L330.446851872028,121.08442248267602L331.15491819463296,120.58220330695985L332.92508400114616,120.58220330695985L333.279117162449,120.07997531176807L334.341216646357,119.57773849666046L334.69524980766005,119.07549286113863L335.0492829689622,119.07549286113863L335.0492829689622,118.07097512706605L335.7573492915676,115.05721018715485L336.1113824528702,114.05255128226418L336.8194487754756,113.04785707542032L337.1734819367782,111.54074956586919L337.88154825938364,110.5359670879152L336.8194487754756,108.02385638207488L336.8194487754756,108.02385638207488L337.1734819367782,107.52140774960571L337.1734819367782,104.50653047681772L336.8194487754756,104.0040200140138L337.1734819367782,102.49643561521953L337.52751509808104,100.98877169106709L337.88154825938364,100.48619937522744L340.35978038850226,99.98361822136576L340.35978038850226,97.4705798657742L340.00574722719966,94.95732049042635L338.5896145819888,92.44384003731102L338.5896145819888,89.9301384483806L340.00574722719966,91.94111741225424L340.00574722719966,91.94111741225424L340.71381354980485,92.44384003731102L342.48397935631806,91.94111741225424L343.9001120015289,91.94111741225424L344.25414516283126,91.43838594129193L345.6702778080421,91.94111741225424L346.37834413064706,91.94111741225424L346.7323772919501,91.94111741225424L347.0864104532527,92.44384003731102L347.0864104532527,92.44384003731102L347.4404436145551,92.94655381694974L347.4404436145551,92.94655381694974L347.79447677585813,92.94655381694974L348.1485099371605,92.44384003731102L348.8565762597657,91.94111741225424L348.8565762597657,91.94111741225424L349.2106094210685,90.93564562396205L349.2106094210685,89.9301384483806L349.2106094210685,89.42737158917953L348.8565762597657,88.92459588177371L349.2106094210685,87.41621566556933L349.9186757436737,86.91340456064063L352.39690787279255,87.91901792043427L354.87514000191095,88.42181132566839L355.58320632451614,90.4328964598244L356.64530580842415,90.93564562396205L358.061438453635,90.93564562396205L359.123537937543,90.93564562396205L359.4775710988456,89.9301384483806L358.061438453635,86.91340456064063L358.4154716149376,86.91340456064063L358.7695047762402,86.91340456064063L359.123537937543,86.41058460514978L359.4775710988456,86.41058460514978L360.8937037440562,86.41058460514978L364.0800021957798,85.90775579866022L366.2042011635958,84.90207163080413L367.97436697010903,84.39921626850992L368.32840013141185,84.39921626850992L368.68243329271445,84.39921626850992L369.03646645401705,84.39921626850992L371.1606654218331,85.90775579866022L374.3469638735569,86.41058460514978L374.7009970348597,86.41058460514978L374.7009970348597,85.90775579866022L375.0550301961623,84.90207163080413L377.53326232528093,83.8963520533398L380.0114944543993,82.89059706254557L380.71956077700474,82.38770628598286L381.42762709960994,82.38770628598286L381.78166026091276,81.38189816822705L382.48972658351795,80.37605462784268L382.48972658351795,79.87311957299607L382.48972658351795,78.36426126430524L382.1356934222151,76.85532322957442L382.1356934222151,76.85532322957442L381.78166026091276,76.3523261655937L380.71956077700474,75.34630545624896L379.65746129309696,73.83720793176326L379.65746129309696,73.83720793176326L379.3034281317939,73.83720793176326L377.1792291639779,73.83720793176326L377.1792291639779,73.83720793176326L376.82519600267574,71.82495382003617L376.82519600267574,71.32186813202861L377.1792291639779,70.31567016064582L377.53326232528093,69.81255787633563L377.88729548658375,69.30943672566718L378.2413286478859,68.80630670818573L378.94939497049177,67.29686345009031L379.3034281317939,64.27773746666571L379.3034281317939,63.27129117193908L379.65746129309696,63.27129117193908L381.0735939383071,63.27129117193908L383.90585922872856,62.26480938753957L384.25989239003115,62.26480938753957L384.613925551334,62.26480938753957L385.67602503524176,62.76805471619082L386.0300581965446,62.76805471619082L387.4461908417552,62.76805471619082L388.1542571643606,62.76805471619082L388.508290325663,60.755020159631385L388.508290325663,60.755020159631385L388.508290325663,60.251739334795275L388.1542571643606,59.748449634731514L387.0921576804526,59.24515105898172L387.0921576804526,58.74184360709478L386.0300581965446,57.73520207298134L385.67602503524176,56.2251731890683L385.32199187393917,54.21167703637548L385.67602503524176,53.20487567701275L386.0300581965446,52.19803879066603L389.21635664826863,51.694607023695426L390.632489293479,50.687716839856876L392.04862193868985,50.687716839856876L392.04862193868985,50.687716839856876L392.402655099992,50.18425842205397L392.75668826129504,50.18425842205397L394.526854067808,49.17731493230531L394.88088722911107,48.67382985945733L395.23492039041344,48.67382985945733L395.23492039041344,48.17033590064602L394.526854067808,46.659800703848305L393.81878774520305,45.149185516704165L393.4647545839,45.149185516704165L393.81878774520305,45.149185516704165L394.88088722911107,43.63849032657163L396.29701987432145,43.13490748256663L396.29701987432145,43.13490748256663L396.65105303562405,43.13490748256663L397.00508619692664,42.63131574747604L398.4212188421375,41.12048719100494L399.4833183260455,40.11322368936453L400.8994509712559,39.10592461211854L402.6696167777691,38.098589955574425L404.4397825842825,37.09121971597415L405.8559152294931,36.58752125135288L406.56398155209854,36.08381388957787L407.62608103600655,35.58009763015434L408.33414735861174,35.07637247263847L408.33414735861174,35.07637247263847L408.68818051991457,35.07637247263847L409.39624684251953,35.07637247263847L410.1043131651247,35.07637247263847L412.22851213294075,35.07637247263847L413.99867793945396,35.07637247263847L414.7067442620596,35.07637247263847L414.7067442620596,35.07637247263847L414.7067442620596,35.58009763015434L415.06077742336197,35.58009763015434L415.06077742336197,35.58009763015434L415.4148105846648,35.58009763015434L415.4148105846648,35.07637247263847L415.7688437459674,35.07637247263847L416.4769100685728,33.56514360677829L416.8309432298754,33.06138285216366L416.8309432298754,33.06138285216366L416.8309432298754,33.06138285216366L416.8309432298754,32.55761319710655L416.8309432298754,32.55761319710655L418.247075875086,32.55761319710655L420.0172416815992,32.05383464115221L421.78740748811265,31.04625082462735L422.14144064941524,30.54244556312551L422.14144064941524,30.54244556312551L423.55757329462585,30.54244556312551L423.55757329462585,30.54244556312551L423.55757329462585,30.54244556312551L424.2656396172308,28.02328570453028L424.2656396172308,27.519427019306022L424.61967277853387,27.015559428509732L424.9737059398367,27.015559428509732L425.68177226244165,27.015559428509732L426.0358054237447,27.015559428509732L426.38983858504685,26.511682931635733L426.38983858504685,26.511682931635733L429.5761370367709,25.503903217853804L432.4084023271921,25L433.4705018111001,25L434.88663445631073,25L435.24066761761355,25L436.30276710152157,26.511682931635733L437.01083342412676,27.015559428509732L438.78099923063996,29.03097636005623L440.19713187585035,30.54244556312551L441.25923135975836,30.54244556312551L441.61326452106096,31.04625082462735L441.61326452106096,31.55004718380951L441.61326452106096,32.55761319710655L441.61326452106096,33.56514360677829L441.25923135975836,35.07637247263847L441.25923135975836,35.07637247263847L440.19713187585035,36.08381388957787L439.843098714548,36.08381388957787L439.4890655532449,36.08381388957787L439.4890655532449,36.08381388957787L438.78099923063996,36.08381388957787L438.0729329080348,35.58009763015434L437.71889974673195,35.58009763015434L437.3648665854289,36.58752125135288L437.3648665854289,37.5949092838855L437.01083342412676,38.60226173150295L437.01083342412676,40.11322368936453L437.01083342412676,41.12048719100494L437.01083342412676,42.12771512083782L436.65680026282394,42.63131574747604L436.65680026282394,43.63849032657163L437.01083342412676,45.149185516704165L437.01083342412676,45.65273280101246L437.3648665854289,46.156271196581656L437.71889974673195,47.16332132331445L438.0729329080348,47.66683305542756L439.1350323919428,49.17731493230531L440.55116503715294,50.18425842205397L443.02939716627156,52.19803879066603L444.4455298114824,53.20487567701275L446.2156956179956,54.21167703637548L446.9237619406008,54.71506439460427L448.693927747114,56.2251731890683L450.81812671493003,59.24515105898172L451.17215987623285,59.748449634731514L451.52619303753545,60.251739334795275L453.6503920053515,62.26480938753957L454.0044251666541,62.76805471619082L454.0044251666541,63.27129117193908L454.35845832795644,64.27773746666571L454.35845832795644,65.7873403737758L454.35845832795644,66.79369796063474L454.35845832795644,69.81255787633563L454.35845832795644,71.32186813202861L454.35845832795644,72.83109860303739L454.35845832795644,73.33415769894782L454.7124914892595,74.84328180994271L454.7124914892595,75.84932024129739L454.7124914892595,76.3523261655937L454.35845832795644,77.86129077844453L454.0044251666541,78.8672228916912L453.6503920053515,80.37605462784268L452.94232568274606,81.88480665470706L451.88022619883805,83.39347898483538L451.88022619883805,83.8963520533398L451.52619303753545,84.90207163080413L451.52619303753545,85.40491814070629L451.17215987623285,87.41621566556933L451.52619303753545,88.92459588177371L451.52619303753545,90.93564562396205L451.52619303753545,92.44384003731102L451.88022619883805,93.9519548417702L451.88022619883805,94.95732049042635L452.23425936014087,95.96265076664713L452.94232568274606,97.97320521662186L453.6503920053515,101.49133516937945L454.35845832795644,103.50150071646567L454.7124914892595,104.50653047681772L454.7124914892595,105.00903210530669L455.42055781186446,106.01400886127158L455.42055781186446,106.51648398967518L455.42055781186446,107.01895028563376L455.42055781186446,107.01895028563376L455.0665246505621,107.52140774960571L454.7124914892595,107.52140774960571L454.0044251666541,108.02385638207488L453.2963588440489,109.02872715431658L452.94232568274606,109.53114929502408L452.94232568274606,110.0335626060587L452.58829252144346,111.03836274101923L452.58829252144346,111.54074956586919L452.58829252144346,112.0431275629162L452.94232568274606,112.54549673260044L453.2963588440489,113.04785707542032L453.2963588440489,113.55020859182696L454.35845832795644,115.05721018715485L454.7124914892595,115.55952640251053L455.0665246505621,117.06642210584323L455.42055781186446,117.56870302757306L455.42055781186446,118.57323840476965L455.0665246505621,119.07549286113863L454.7124914892595,120.07997531176807L454.35845832795644,121.08442248267602L454.0044251666541,123.09321100004308L454.0044251666541,123.59538608533694L454.0044251666541,124.59970980628714L454.7124914892595,125.60399826414869L455.42055781186446,126.60825146262869L455.7745909731675,127.11036484076249L456.48265729577247,127.61246940541969L457.19072361837766,127.61246940541969L459.3149225861937,128.11456515709506L459.3149225861937,128.11456515709506L459.6689557474965,128.11456515709506L460.0229889087989,128.11456515709506L461.0850883927069,129.62079953875218L461.0850883927069,130.12286004306225L461.0850883927069,131.12695462006377L461.0850883927069,131.62898869370474L460.3770220701017,132.6330304135372L459.6689557474965,133.63703689988324L458.6068562635885,135.1429805746593L457.19072361837766,137.15078219159113L455.7745909731675,139.1584429410359L455.42055781186446,139.66033612132014L454.35845832795644,140.16222049969292L452.58829252144346,141.16596285255218L452.58829252144346,141.16596285255218L452.23425936014087,141.6678208279518L452.23425936014087,142.67151037904114L452.23425936014087,143.17334195565127L452.23425936014087,144.17697871328346L451.88022619883805,145.1805802798881L451.88022619883805,145.6823678677174L451.88022619883805,146.18414665917226L452.23425936014087,146.68591665470376L452.23425936014087,147.1876778547994L452.58829252144346,147.6894302598921L452.94232568274606,148.69290868698226L454.0044251666541,149.69635193963768L454.7124914892595,150.69976002155818L455.0665246505621,151.2014508746397L456.1286241344701,153.2081263786131L456.48265729577247,153.70977327981382L456.8366904570755,154.211411392007L457.89878994098353,155.21466125127336L459.6689557474965,156.71947013419413L460.3770220701017,157.72263212423059L460.7310552314045,158.22419994104348L461.0850883927069,158.22419994104348L461.4391215540097,159.7288506842342L462.1471878766149,164.743782305879L462.1471878766149,164.743782305879L461.79315471531254,166.24809058355095L461.4391215540097,166.7495091205128L460.7310552314045,168.2537120711131L460.7310552314045,169.25647015918003L460.7310552314045,170.25919314835483L460.7310552314045,170.25919314835483L461.0850883927069,171.76321182970423L461.0850883927069,172.26453384468186L461.79315471531254,173.26715155920465L462.1471878766149,173.76844725966657L463.2092873605229,174.26973418952912L464.97945316703635,175.27228173935873L466.04155265094437,175.77354236021347L469.2278511026682,176.7760372961602L470.2899505865762,177.27727161213988L470.64398374787856,177.77849716076526L470.9980169091816,177.77849716076526L471.35205007048376,178.2797139424656L471.7060832317866,178.78092195772115L472.06011639308963,179.7833116907059L472.41414955439177,180.28449340935913L472.41414955439177,181.28683055326474L472.06011639308963,182.28913264238508L471.7060832317866,183.29139968038362L470.9980169091816,184.29363167093834L470.64398374787856,184.7947345245775L469.9359174252736,185.79691395084956L467.1036521348524,188.30220923216257L466.39558581224696,188.80324201476833L465.68751948964155,189.80528131000028L465.33348632833895,190.80728558164265L464.97945316703635,191.80925483338797L464.62542000573376,192.81118906887423L464.97945316703635,194.31402477465235L465.33348632833895,195.81678171451858L466.39558581224696,197.3194599008384L466.39558581224696,197.3194599008384L466.74961897354956,198.32120161251805L466.74961897354956,199.32290833178195L466.39558581224696,200.82540280793182L465.33348632833895,201.82702206221438L463.91735368312834,202.82860633689415L463.91735368312834,203.32938535802532L463.56332052182574,204.33091717019488L463.56332052182574,204.8316699621464L463.56332052182574,205.3324140119439L463.91735368312834,205.83314932004214L464.62542000573376,206.33387588691767L465.33348632833895,207.33530279878323L466.04155265094437,207.8360031447046L467.1036521348524,209.33805174784356L467.457685296155,209.33805174784356L468.8738179413656,211.34066088842155L469.2278511026682,211.84129133192255L469.2278511026682,212.34191303967236L469.5818842639708,213.84372575304587L469.5818842639708,214.34431252240392L469.2278511026682,215.34545986118974L469.2278511026682,216.34657226980926L469.5818842639708,218.34869231116318L469.5818842639708,218.8492004958607L469.5818842639708,219.85019067768008L469.9359174252736,220.3506726757223L469.9359174252736,220.8511459457768L470.2899505865762,222.35251339271053L471.35205007048376,224.3542144913772L472.06011639308963,225.85539870843422L472.7681827156946,226.856144570982L473.12221587699764,227.3565044189636L474.1843153609052,228.3571979506669L475.6004480061158,229.3578565996795L476.308514328721,229.85817284433506L477.0165806513264,230.35848036970128L477.370613812629,230.8587791762111L477.72464697393184,231.35906926434473L478.07868013523444,232.35962328728056L478.07868013523444,232.85988722299953L479.14077961914245,235.86128780549916L479.49481278044505,236.36149073488195L479.84884594174764,236.86168495089078L480.20287910305046,237.361870453984L480.91094542565565,237.86204724462732L481.2649785869585,238.3622153232718L481.2649785869585,239.36252534637606L481.2649785869585,240.36280052695292L481.2649785869585,240.86292505242454L481.2649785869585,241.36304086864038L481.2649785869585,241.36304086864038L479.84884594174764,243.36341704996812L478.07868013523444,245.8636913728078L477.370613812629,247.3637515063565L476.308514328721,249.36370983973757L475.95448116741863,250.36363679546412L475.95448116741863,250.86358722218938L475.95448116741863,252.36338630320824L475.2464148448132,253.86310709511235L474.8923816835106,254.36299663028694L474.1843153609052,255.36274961016534L472.7681827156946,256.36246780579313L472.06011639308963,256.8623138606563L471.35205007048376,257.3621512208083L470.9980169091816,257.8619798867294L470.64398374787856,257.8619798867294L470.2899505865762,258.86161113764683L469.9359174252736,260.36099281856514L469.9359174252736,261.86029627584503L470.2899505865762,263.3595215217465L470.2899505865762,264.35896157431125L470.64398374787856,264.858668568555L472.06011639308963,267.3570732374101L472.41414955439177,268.3563743057057L472.41414955439177,268.8560118132409L472.41414955439177,269.8552607774145L472.41414955439177,270.3548722349333L472.41414955439177,271.35406910314487L472.06011639308963,272.35323124526985L472.06011639308963,272.85279929518583L471.7060832317866,273.3523586649426L470.9980169091816,274.3514513657756L468.16575161876017,276.8490312467984L467.1036521348524,278.84693897132456L466.74961897354956,279.8458407834769L466.39558581224696,280.34527867860015L466.39558581224696,281.843540325659L466.39558581224696,282.3429435300677L466.74961897354956,283.84110111588234L466.74961897354956,284.3404696368525L466.39558581224696,285.33918067003833L466.39558581224696,285.83852318317076L466.04155265094437,286.3378570279383L465.68751948964155,287.3364987141358L465.33348632833895,287.3364987141358L464.97945316703635,287.83580655650076L464.27138684443094,287.83580655650076L462.50122103791773,288.33510573230524L460.3770220701017,288.33510573230524L459.6689557474965,288.8343962419931L458.96088942489155,288.8343962419931L458.96088942489155,289.3336780860409L458.6068562635885,289.3336780860409L458.2528231022857,289.83295126488156L458.2528231022857,290.3322157789662L457.89878994098353,291.3307188147155L457.89878994098353,291.8299573372824L457.89878994098353,292.3291871969159L457.89878994098353,292.82840839404525L458.2528231022857,293.82682480268704L458.2528231022857,295.32438445833395L458.6068562635885,297.82014402840286L458.96088942489155,298.81838725071793L458.6068562635885,300.31568716081165L457.5447567796805,300.8147698197572L456.8366904570755,300.8147698197572L455.0665246505621,301.3138438239039L455.0665246505621,300.8147698197572L454.7124914892595,300.8147698197572L454.35845832795644,300.8147698197572L453.6503920053515,301.3138438239039L452.58829252144346,302.3119658696123L452.23425936014087,302.8110139120945L451.17215987623285,305.3061243387747L451.17215987623285,305.8051204701296L450.46409355362766,305.8051204701296L449.756027231022,306.30410795122225L449.40199406971965,307.30205696437406L449.40199406971965,307.30205696437406L449.40199406971965,307.8010184973464L449.756027231022,308.2999713818681L449.756027231022,308.79891561835757L449.756027231022,309.29785120729866L449.40199406971965,311.293507096485L449.40199406971965,311.79239945438894L449.0479609084168,312.2912831674512L448.33989458581163,312.790158236101L446.2156956179956,315.28440392919947L443.737463488877,317.27964493053514L443.02939716627156,317.27964493053514L442.3213308436664,317.27964493053514L441.9672976823638,317.77843358003156L439.1350323919428,319.27474769369655L438.78099923063996,319.77350178815686L438.4269660693369,319.77350178815686L438.4269660693369,320.2722472449823L437.3648665854289,321.7684317942076L437.3648665854289,322.26714270501907L437.01083342412676,322.76584498048396L437.01083342412676,323.2645386209988L437.3648665854289,324.26189999907365L438.78099923063996,327.25377694204144L439.843098714548,328.7495988907431L439.843098714548,328.7495988907431L439.843098714548,328.7495988907431L439.843098714548,329.74677037488436L439.4890655532449,330.7439073445712L438.4269660693369,332.2395480923951L437.71889974673195,333.2365987917183L436.30276710152157,334.73211015088236L436.65680026282394,335.72907460235L437.01083342412676,337.22445660662925L437.3648665854289,337.72290003040325L437.71889974673195,340.2149878371383L438.0729329080348,340.2149878371383L438.0729329080348,342.70686016493346L438.0729329080348,344.2018801550839L437.71889974673195,349.1847201791061L437.71889974673195,349.1847201791061L437.71889974673195,350.1811848367506L438.0729329080348,351.17761505375165L438.4269660693369,351.67581724811316L438.4269660693369,352.17401083367076L439.1350323919428,353.17037218012047L440.19713187585035,354.6648496448979L440.55116503715294,355.16299158697075L440.905198198456,355.6611249233829L440.905198198456,356.6573657809786L441.25923135975836,357.15547330306435L441.25923135975836,360.14393776985526L441.61326452106096,361.1400237778762L441.9672976823638,361.6380538812118L442.3213308436664,363.1320925940381L443.02939716627156,364.128075409375L443.3834303275744,365.12402383434164L443.737463488877,365.62198515155615L444.0914966501796,366.61788199768125L444.0914966501796,367.613744462411L444.4455298114824,368.60957254931054L444.4455298114824,369.10747370218814L443.3834303275744,369.10747370218814L443.3834303275744,370.6011256039892L443.3834303275744,373.09037361097944L443.02939716627156,373.58819744202265L443.02939716627156,374.0860126839798L442.3213308436664,375.0816174024367L442.3213308436664,376.0771877699917L442.3213308436664,376.0771877699917L442.67536400496897,377.57047892115224L443.3834303275744,379.0636928028689L443.3834303275744,379.5614135945398L443.3834303275744,381.05452446914205L443.02939716627156,382.54755810250936L442.67536400496897,384.04051450672705L442.3213308436664,385.0357758770806L441.9672976823638,385.5333936938623L441.25923135975836,387.52377918216735L440.55116503715294,388.0213541117555L440.19713187585035,388.51892046526336L438.4269660693369,390.01156807366715L437.71889974673195,390.50910012725217L437.3648665854289,391.00662360698334L436.30276710152157,392.4991426074848L435.94873394021874,392.99663179623894L435.94873394021874,394.9865028394888L435.94873394021874,395.4839491745952L434.88663445631073,396.9762367653457L433.8245349724027,398.9658336023858L433.4705018111001,399.9605806215295L432.4084023271921,401.4526369110681L431.7003360045869,402.9446161243395L430.6382365206789,404.9338018664166L429.9301701980735,406.92285063396776L430.2842033593761,407.4200914269386L430.6382365206789,408.4145473372919L430.6382365206789,409.90616702055195L430.2842033593761,411.39770969577876L430.2842033593761,412.88917537504676L430.2842033593761,413.88344305830105L429.9301701980735,413.88344305830105L429.9301701980735,413.88344305830105L429.5761370367709,414.3805640703722L427.8059712302577,414.8776765300245L427.09790490765226,415.37478043768715L426.38983858504685,415.37478043768715L426.0358054237447,415.87187579379315L424.9737059398367,416.3689625988045L423.55757329462585,416.3689625988045L423.20354013332326,416.3689625988045L422.14144064941524,416.3689625988045L420.37127484290204,416.8660408531796L419.6632085202966,416.8660408531796L419.309175358994,417.36311055734404L418.95514219769143,417.36311055734404L417.8930427137834,419.3513038808378L417.5390095524808,420.3453492529443L417.184976391178,420.84235911813084L417.184976391178,421.3393604366938L417.5390095524808,423.3272802533829L417.8930427137834,424.8181303979836L417.184976391178,427.30270978330736L416.4769100685728,428.2964817483371L416.12287690727,428.7933549206864L415.4148105846648,426.3089036548481L414.7067442620596,426.3089036548481L413.99867793945396,426.80581098972834L413.29061161684876,427.79960003602173L412.93657845554594,428.2964817483371L412.93657845554594,428.7933549206864L412.5825452942436,430.78076221930314L412.5825452942436,433.7616170439069L412.93657845554594,435.7486828862493L412.93657845554594,436.2454280124912L413.29061161684876,437.2388926668609L413.6446447781516,437.2388926668609L413.99867793945396,436.7421646058683L413.99867793945396,436.7421646058683L414.3527111007568,437.2388926668609L414.3527111007568,437.2388926668609L415.7688437459674,438.7290256598171L416.4769100685728,439.722405001241L416.4769100685728,440.2190818771269L416.4769100685728,440.2190818771269L417.184976391178,440.71575022370234L417.8930427137834,441.7090613307628L416.8309432298754,444.6887899950525L416.4769100685728,445.68196467601956L416.4769100685728,446.17853922967697L416.12287690727,446.67510525934995L416.12287690727,446.67510525934995L415.7688437459674,447.1716627655114L415.06077742336197,446.67510525934995L413.99867793945396,448.16475220903885L413.29061161684876,449.15780756379536L412.93657845554594,449.15780756379536L412.5825452942436,450.1508288333571L412.5825452942436,451.14381602123467L412.22851213294075,451.64029683566696L411.52044581033556,454.61900283695286L411.16641264903274,455.1154240270989L411.16641264903274,456.108240859885L411.16641264903274,458.09377234787826L411.16641264903274,459.58283157245387L411.16641264903274,460.07916762274544L411.16641264903274,461.07181418911205L411.87447897163815,462.5607202097963L412.22851213294075,463.0570051974428L412.5825452942436,463.55328167620246L412.93657845554594,464.0495496464973L413.6446447781516,464.54580910880395L414.3527111007568,465.5383025111587L415.06077742336197,467.02697881574204L415.06077742336197,467.02697881574204L415.06077742336197,467.52318723931603L415.4148105846648,469.5079358890034L415.4148105846648,471.49254848854616L415.4148105846648,472.9809186723214L415.7688437459674,474.46921235577975L415.7688437459674,475.4613656504662L415.4148105846648,478.437621600875L415.06077742336197,479.9256348852905L414.7067442620596,481.9095336860628L414.3527111007568,483.8932966135799L413.6446447781516,485.3810296594165L413.29061161684876,485.8769236961416L412.93657845554594,486.3728092443198L411.87447897163815,487.36455487679996L411.52044581033556,487.8604149620005L410.8123794877306,488.35626656040404L410.1043131651247,488.35626656040404L409.04221368121716,488.85210967247986L406.91801471340113,489.34794429866815L406.91801471340113,489.34794429866815L405.5018820681905,489.8437704394055L405.14784890688793,490.33958809512114L404.4397825842825,490.8353972662808L404.0857494229799,491.82699015663457L403.7317162616771,492.32277387673093L403.3776831003747,494.3058239334496L403.0236499390719,495.29729807381227L402.6696167777691,498.27151698524904L402.6696167777691,499.26285546426516L402.6696167777691,501.2454307062944L402.6696167777691,501.7410533285256L402.3155836164667,503.22787035045985L402.3155836164667,503.7234590776352L402.3155836164667,504.21903933216527L402.3155836164667,506.2012756324584L402.6696167777691,508.18337640539903L402.6696167777691,508.67888042578124L402.3155836164667,510.1653416791887L401.9615504551639,511.15627351271905L401.60751729386106,512.1471714820182L401.2534841325587,512.642607768692L400.8994509712559,513.1380355906222L400.5454178099535,513.6334549482672L400.5454178099535,513.6334549482672L399.12928516474267,515.6150477446863L398.06718568083465,519.0825093647545L397.71315251953206,519.5778271851923L397.71315251953206,520.0731365470419L397.35911935822946,520.5684374507691L397.35911935822946,522.5495564931189L397.00508619692664,525.5209813873116L397.00508619692664,529.4824078778875L396.65105303562405,531.9580248022212L396.65105303562405,532.9482124357528L397.00508619692664,535.4235337098362L397.35911935822946,536.4136031047819L397.35911935822946,537.8986438710199L397.35911935822946,539.8785800355363L397.71315251953206,540.373542974161L397.71315251953206,540.8684974726493L398.06718568083465,542.3533103317313L398.06718568083465,542.8482310740874L398.06718568083465,544.8278296685494L398.06718568083465,546.312440032958L398.06718568083465,547.3021381008439L397.71315251953206,549.7762356833628L397.35911935822946,551.2605930477621L397.35911935822946,551.7553619743485L397.71315251953206,552.2501224708867L398.06718568083465,553.7343533845815L398.4212188421375,554.2290801653071L398.77525200343985,554.7237985181782L398.77525200343985,555.2185084436205L399.12928516474267,557.1972638799671L398.77525200343985,558.6812419907656L398.77525200343985,559.6705186109575L398.77525200343985,560.1651442863003L398.77525200343985,561.1543703695497L398.77525200343985,561.6489707783694L398.4212188421375,562.6381463325561L398.4212188421375,563.6272882050835L398.06718568083465,564.1218465118L398.06718568083465,565.6054709190903L398.06718568083465,568.078009914494L398.06718568083465,569.0669666003305L398.06718568083465,570.0558896272341L398.06718568083465,570.5503385196826L397.71315251953206,571.5392110647226L397.35911935822946,572.0336347182092L396.29701987432145,571.5392110647226L395.23492039041344,570.5503385196826L394.526854067808,568.5724924650058L394.1728209065054,567.0890195662214L393.81878774520305,566.0999955520128L393.81878774520305,566.0999955520128L393.4647545839,565.6054709190903L393.11072142259763,565.110937868365L392.75668826129504,565.110937868365L392.402655099992,564.6163963994222L392.04862193868985,564.6163963994222L391.694588777387,564.6163963994222L391.340555616084,564.6163963994222L390.2784561321762,565.110937868365L388.1542571643606,566.5945117675728L387.4461908417552,567.0890195662214L386.3840913578472,568.078009914494L386.0300581965446,568.078009914494L385.67602503524176,568.078009914494L385.67602503524176,567.5835189483732L384.9679587126366,567.5835189483732L384.9679587126366,566.5945117675728L384.613925551334,566.0999955520128L384.613925551334,565.6054709190903L384.25989239003115,564.6163963994222L384.25989239003115,563.6272882050835L383.55182606742596,563.1327214788107L383.55182606742596,562.6381463325561L383.19779290612314,562.6381463325561L382.48972658351795,562.1435627658975L382.1356934222151,561.6489707783694L381.78166026091276,561.6489707783694L381.0735939383071,561.1543703695497L380.71956077700474,561.1543703695497L380.0114944543993,561.1543703695497L379.65746129309696,561.1543703695497L378.94939497049177,561.1543703695497L378.94939497049177,561.1543703695497L375.7630965187677,560.1651442863003L375.4090633574649,559.6705186109575L373.9929307122543,559.1758845126024L373.2848643896491,558.6812419907656L372.9308312283463,558.186591044996L372.5767980670437,557.6919316748754L372.5767980670437,557.6919316748754L372.2227649057411,557.1972638799671L371.86873174443826,557.1972638799671L371.51469858313567,556.7025876598163L371.1606654218331,556.7025876598163L370.8066322605305,556.7025876598163L370.4525990992279,557.1972638799671L369.74453277662246,557.1972638799671L369.39049961531987,557.6919316748754L369.39049961531987,557.6919316748754L366.912267486201,556.7025876598163L366.2042011635958,556.7025876598163L365.850168002293,556.2079030140012L364.4340353570826,554.7237985181782L363.37193587317483,552.744874537806L363.0179027118718,551.7553619743485L363.0179027118718,551.2605930477621L362.66386955056964,550.7658156907055L361.9558032279642,548.7866219488242L360.8937037440562,547.7969744835718L360.5396705827536,547.3021381008439L360.5396705827536,546.8072932841169L360.5396705827536,546.8072932841169L360.5396705827536,546.8072932841169L360.5396705827536,546.312440032958L360.8937037440562,546.312440032958L361.60177006666163,545.8175783469524L361.9558032279642,545.8175783469524L361.9558032279642,545.8175783469524L361.9558032279642,545.3227082256199L361.9558032279642,544.8278296685494L361.9558032279642,544.8278296685494L361.9558032279642,544.332942675308L361.9558032279642,544.332942675308L361.2477369053588,543.8380472454483L360.8937037440562,543.8380472454483L360.5396705827536,544.332942675308L360.5396705827536,544.332942675308L359.4775710988456,545.3227082256199L359.123537937543,545.3227082256199L358.7695047762402,545.8175783469524L356.2912726471218,545.8175783469524L356.2912726471218,545.8175783469524L355.93723948581896,545.8175783469524L355.58320632451614,545.8175783469524L354.5211068406081,544.332942675308L353.81304051800294,542.8482310740874L353.45900735670057,542.8482310740874L353.10497419539774,542.3533103317313L352.7509410340949,541.8583811509961L352.39690787279255,541.8583811509961L352.39690787279255,541.8583811509961L351.33480838888454,542.3533103317313L349.2106094210685,540.373542974161L349.2106094210685,539.8785800355363L348.8565762597657,539.8785800355363L348.5025430984631,539.3836086563606L347.0864104532527,537.8986438710199L346.0243109693447,537.4036387251872L345.6702778080421,537.4036387251872L345.6702778080421,537.8986438710199L344.9622114854369,537.8986438710199L344.6081783241341,538.3936405745444L343.5460788402261,538.3936405745444L342.48397935631806,538.3936405745444L341.0678467111077,537.8986438710199L340.71381354980485,537.8986438710199L340.00574722719966,537.8986438710199L339.65171406589684,538.3936405745444L338.94364774329165,538.8886288361682L338.23558142068623,538.8886288361682L337.88154825938364,538.8886288361682L337.52751509808104,538.8886288361682L337.1734819367782,538.8886288361682L336.465415614173,537.8986438710199L335.403316130265,536.9086251365843L334.341216646357,536.9086251365843L332.92508400114616,537.4036387251872L332.92508400114616,537.4036387251872L332.571050839844,537.4036387251872L332.21701767854097,536.9086251365843L332.21701767854097,536.4136031047819L331.15491819463296,536.4136031047819L329.7387855494228,536.4136031047819L329.38475238812,536.9086251365843L328.32265290421196,537.4036387251872L327.96861974290937,537.8986438710199L327.96861974290937,538.3936405745444L327.6145865816068,538.3936405745444L327.6145865816068,539.3836086563606L327.26055342030395,540.373542974161L327.26055342030395,542.3533103317313L326.90652025900135,544.8278296685494L326.90652025900135,552.2501224708867L326.19845393639616,558.6812419907656L326.55248709769876,558.6812419907656L327.96861974290937,558.186591044996L327.96861974290937,558.186591044996L327.96861974290937,558.6812419907656L327.6145865816068,558.6812419907656L327.26055342030395,559.1758845126024L325.49038761379074,561.6489707783694L324.07425496858014,564.1218465118L323.36618864597494,565.110937868365L323.36618864597494,565.110937868365L323.0121554846721,565.6054709190903L321.2419896781589,565.6054709190903L320.8879565168561,564.6163963994222L320.5339233555537,563.6272882050835L320.1798901942509,562.6381463325561L319.1177907103429,562.6381463325561L318.4097243877379,563.1327214788107L316.99359174252686,563.6272882050835L315.5774590973165,563.1327214788107L313.4532601295007,563.1327214788107L311.68309432298724,563.1327214788107L309.5588953551712,563.1327214788107L307.788729548658,562.1435627658975L307.788729548658,561.6489707783694L307.4346963873552,561.6489707783694L307.0806632260528,560.6597615390056L306.72663006475,559.6705186109575L307.0806632260528,558.6812419907656L306.72663006475,557.6919316748754L306.37259690344763,556.7025876598163L306.0185637421448,555.7132099420887L306.72663006475,553.2396181755685L307.4346963873552,550.2710299027094L308.14276270996083,548.2918024327519L309.5588953551712,543.3431433785154L310.26696167777664,541.8583811509961L310.26696167777664,540.8684974726493L310.26696167777664,540.373542974161L309.91292851647404,539.8785800355363L309.20486219386885,538.8886288361682L307.788729548658,535.4235337098362L307.4346963873552,534.9284863458015L306.37259690344763,534.4334305368211L305.664530580842,533.9383662824403L304.9564642582368,533.9383662824403L304.9564642582368,533.9383662824403L304.60243109693397,533.9383662824403L304.60243109693397,533.9383662824403L304.2483979356316,534.4334305368211L303.1862984517236,535.4235337098362L300.7080663226052,536.4136031047819L299.29193367739435,536.9086251365843L298.58386735478916,537.4036387251872L296.81370154827596,537.4036387251872L295.75160206436794,537.4036387251872L295.75160206436794,537.4036387251872L291.8572372900387,537.8986438710199L289.7330383222227,537.4036387251872L288.3169056770121,537.4036387251872L286.5467398704991,537.8986438710199L285.8386735478932,537.8986438710199L284.42254090268307,537.8986438710199L283.36044141877505,538.3936405745444L283.00640825747223,538.3936405745444L283.36044141877505,538.3936405745444L283.7144745800779,538.8886288361682L284.06850774138024,539.3836086563606L284.06850774138024,539.8785800355363L284.42254090268307,540.8684974726493L284.06850774138024,541.3634435314416L281.94430877356444,543.8380472454483L281.59027561226185,545.3227082256199L279.4660766444458,546.8072932841169L279.4660766444458,547.3021381008439L278.7580103218404,547.3021381008439L277.6959108379324,548.2918024327519L275.217678708814,549.7762356833628L272.385413418393,550.2710299027094L270.96928077318194,549.2814330322071L270.61524761187957,548.7866219488242L270.261214450577,548.7866219488242L269.55314812797155,549.7762356833628L269.55314812797155,550.2710299027094L269.9071812892739,551.2605930477621L270.261214450577,551.7553619743485L270.61524761187957,552.744874537806L270.61524761187957,554.2290801653071L269.9071812892739,560.6597615390056L269.9071812892739,561.1543703695497L269.55314812797155,561.1543703695497L268.49104864406354,562.6381463325561L267.07491599885293,565.110937868365L266.72088283755033,567.0890195662214L266.0128165149449,569.5614323209411L266.0128165149449,569.5614323209411L263.8886175471291,571.5392110647226L262.8265180632211,572.0336347182092L262.1184517406159,572.0336347182092L261.41038541801026,572.528049959572L261.0563522567079,572.528049959572L260.7023190954051,573.0224567892656L259.28618645019446,574.50562681265L259.28618645019446,575L258.93215328889187,574.50562681265L257.51602064368103,574.50562681265L256.0998879984709,574.0112452153626L255.74585483716783,574.0112452153626L255.03778851456286,573.5168552077193L254.68375535326027,573.5168552077193L253.26762270804943,572.528049959572L250.78939057893103,570.0558896272341L250.4353574176282,569.5614323209411L250.4353574176282,569.5614323209411L250.0813242563254,569.5614323209411L249.3732579337202,569.0669666003305L248.665191611115,568.078009914494L248.31115844981218,567.0890195662214L247.24905896590417,566.0999955520128L246.18695948199638,564.6163963994222L245.12485999808837,563.6272882050835L244.06276051418035,562.6381463325561L244.06276051418035,562.1435627658975L243.70872735287776,561.6489707783694L243.70872735287776,561.6489707783694L241.93856154636433,560.6597615390056L240.8764620624563,560.6597615390056L239.8143625785483,560.1651442863003L239.1062962559431,559.6705186109575L237.69016361073295,559.1758845126024L236.62806412682494,558.6812419907656L235.9199978042193,558.186591044996L234.5038651590089,558.186591044996L234.5038651590089,557.6919316748754L233.4417656751009,557.1972638799671L233.08773251379807,556.7025876598163L232.37966619119288,554.2290801653071L231.31756670728487,552.744874537806L230.96353354598227,551.2605930477621L230.60950038467945,549.7762356833628L230.60950038467945,549.2814330322071L230.60950038467945,548.7866219488242L230.60950038467945,548.2918024327519L230.25546722337685,548.2918024327519L229.90143406207426,548.2918024327519L228.83933457816624,548.7866219488242L228.13126825556105,549.2814330322071L227.77723509425823,549.2814330322071L227.42320193295564,549.2814330322071L227.42320193295564,549.7762356833628L227.42320193295564,550.2710299027094L227.42320193295564,550.2710299027094L227.06916877165304,550.7658156907055L226.36110244904808,550.7658156907055L226.00706928774503,551.2605930477621L225.6530361264422,551.2605930477621L225.29900296514006,551.2605930477621L223.52883715862663,551.2605930477621L221.7586713521132,550.7658156907055L221.4046381908106,550.7658156907055L218.92640606169198,550.2710299027094L218.2183397390868,550.7658156907055L217.8643065777842,550.2710299027094L217.51027341648137,548.2918024327519L217.51027341648137,548.2918024327519L217.8643065777842,547.3021381008439L217.8643065777842,546.8072932841169L217.8643065777842,545.3227082256199L217.8643065777842,543.8380472454483L216.09414077127076,542.8482310740874L215.38607444866534,542.3533103317313L214.67800812606015,541.3634435314416L212.90784231954694,538.8886288361682L212.55380915824412,538.3936405745444L212.55380915824412,538.3936405745444L211.84574283563893,538.8886288361682L211.4917096743361,539.3836086563606L210.07557702912595,540.8684974726493L209.7215438678229,541.3634435314416L208.30541122261252,541.8583811509961L206.8892785774019,541.8583811509961L206.53524541609931,541.8583811509961L206.1812122547965,541.8583811509961L205.8271790934939,541.8583811509961L205.11911277088848,541.3634435314416L204.7650796095861,540.8684974726493L204.7650796095861,540.373542974161L204.4110464482833,540.373542974161L204.4110464482833,540.373542974161L203.7029801256781,540.373542974161L202.99491380307245,540.373542974161L202.64088064177008,540.373542974161L202.28684748046726,540.373542974161L200.51668167395405,540.8684974726493L198.39248270613803,542.3533103317313L196.97635006092742,542.8482310740874L195.9142505770194,542.8482310740874L195.2061842544142,542.8482310740874L193.0819852865984,543.8380472454483L190.60375315748,545.8175783469524L188.83358735096635,547.3021381008439L188.83358735096635,547.3021381008439L188.479554189664,547.3021381008439L188.12552102836116,547.3021381008439L186.70938838315055,547.7969744835718L186.35535522184796,548.2918024327519L186.00132206054514,548.7866219488242L186.00132206054514,548.7866219488242L186.00132206054514,548.7866219488242L185.64728889924254,548.7866219488242L185.29325573793994,548.2918024327519L184.93922257663735,548.2918024327519L184.93922257663735,547.7969744835718L184.23115625403193,547.7969744835718L184.23115625403193,547.7969744835718L184.23115625403193,547.7969744835718L184.23115625403193,547.3021381008439L184.23115625403193,547.3021381008439L183.16905677012392,545.3227082256199L182.10695728621613,543.8380472454483L180.33679147970247,542.8482310740874L180.33679147970247,542.3533103317313L180.33679147970247,542.3533103317313L180.6908246410053,541.8583811509961L182.10695728621613,541.3634435314416L183.5230899314265,540.8684974726493L183.87712309272933,540.8684974726493L184.58518941533453,540.373542974161L186.70938838315055,538.3936405745444L186.35535522184796,537.4036387251872L185.64728889924254,535.4235337098362L185.64728889924254,534.4334305368211L185.64728889924254,533.9383662824403L185.64728889924254,533.4432935822406L186.35535522184796,532.4531228425694L186.70938838315055,530.472679993898L186.70938838315055,528.49210196274L186.70938838315055,527.9969363293858L186.35535522184796,527.9969363293858L186.35535522184796,527.5017622449413L186.35535522184796,524.035306986003L186.35535522184796,523.5400652768913L185.64728889924254,521.0637298968068L185.64728889924254,520.0731365470419L186.00132206054514,519.0825093647545L186.00132206054514,518.5871830853139L186.35535522184796,518.0918483464084L186.00132206054514,518.0918483464084L184.23115625403193,516.6057933685734L183.16905677012392,515.6150477446863L183.16905677012392,515.1196622398165L182.81502360882132,514.6242682724223L182.4609904475185,513.1380355906222L181.7529241249133,511.65172673016787L182.10695728621613,511.65172673016787L182.10695728621613,511.15627351271905L182.4609904475185,510.6608118291988L182.4609904475185,510.1653416791887L184.23115625403193,509.1743759779274L185.29325573793994,509.6698630622486L186.70938838315055,510.6608118291988L187.77148786705857,510.6608118291988L189.541653673572,510.6608118291988L189.89568683487437,510.1653416791887L190.2497199961772,510.1653416791887L190.2497199961772,509.6698630622486L190.60375315748,507.68786391631875L191.3118194800852,506.2012756324584L191.66585264138735,505.21017442498487L191.3118194800852,504.71461111447206L190.95778631878238,504.71461111447206L190.95778631878238,504.71461111447206L189.541653673572,503.22787035045985L188.479554189664,501.7410533285256L188.479554189664,501.7410533285256L187.77148786705857,500.74979960918427L187.06342154445315,500.2541600367658L184.58518941533453,498.767190463288L184.23115625403193,498.767190463288L182.81502360882132,498.27151698524904L182.81502360882132,498.27151698524904L181.39889096361048,497.7758350296899L181.04485780230812,496.7844456842831L182.4609904475185,494.3058239334496L183.16905677012392,493.31431586893814L183.5230899314265,492.8185491140066L183.87712309272933,492.32277387673093L183.87712309272933,491.82699015663457L183.87712309272933,490.8353972662808L183.5230899314265,490.8353972662808L182.4609904475185,488.35626656040404L182.10695728621613,486.868686304384L181.04485780230812,484.88512713372256L180.6908246410053,484.88512713372256L180.6908246410053,484.88512713372256L179.9827583184001,485.8769236961416L176.4424267053737,484.38921611858314L172.90209509234705,482.4054871549597L172.90209509234705,482.4054871549597L172.90209509234705,482.4054871549597L172.90209509234705,481.9095336860628L172.90209509234705,481.4135717250974L172.90209509234705,480.91760127159796L172.90209509234705,480.91760127159796L172.90209509234705,480.4216223251424L172.54806193104446,480.4216223251424L171.13192928583385,480.4216223251424L169.00773031801782,479.4296389515839L167.23756451150462,478.437621600875L166.88353135020202,477.9416001829777L166.5294981888992,477.4455702694795L166.5294981888992,477.4455702694795L166.5294981888992,476.9495318599111L166.5294981888992,476.9495318599111L165.4673987049914,473.97312296058954L164.05126605978057,472.48480377836313L163.3431997371756,471.9886803839072L163.3431997371756,471.49254848854616L162.63513341456996,470.004101792485L162.63513341456996,469.011761482383L162.63513341456996,469.011761482383L162.63513341456996,469.011761482383L162.63513341456996,469.011761482383L162.63513341456996,468.5155785722018L162.63513341456996,466.53076188682826L162.63513341456996,465.5383025111587L162.63513341456996,463.0570051974428L162.63513341456996,462.0644267128264L162.989166575873,460.07916762274544L162.989166575873,459.0864870101723L162.989166575873,457.10102363229817L162.63513341456996,455.1154240270989L161.927067091965,453.1296881661983L161.57303393066218,451.64029683566696L161.21900076935958,450.6473266872781L161.21900076935958,450.1508288333571L160.864967608057,450.1508288333571L160.864967608057,450.1508288333571L160.15690128545157,450.1508288333571L159.80286812414897,450.1508288333571L159.44883496284615,450.1508288333571L159.44883496284615,449.6543224590059L159.44883496284615,449.6543224590059L159.44883496284615,449.6543224590059L159.44883496284615,449.6543224590059L159.44883496284615,449.6543224590059L159.80286812414897,449.15780756379536L159.80286812414897,448.16475220903885L159.44883496284615,446.67510525934995L158.38673547893836,445.68196467601956L157.67866915633294,445.18538159797026L157.32463599503035,444.6887899950525L157.32463599503035,443.6955812128872L157.32463599503035,442.7023383259693L156.97060283372775,441.2124100414403L156.61656967242493,441.2124100414403L155.55447018851714,439.722405001241L155.55447018851714,439.2257195956154L155.55447018851714,438.7290256598171L154.49237070460913,435.7486828862493L153.43027122070112,432.76803291406395L153.43027122070112,432.76803291406395L153.43027122070112,432.27122804543615L153.43027122070112,431.77441464038566L153.7843043820037,431.77441464038566L153.7843043820037,431.27759269848684L153.7843043820037,431.27759269848684L153.7843043820037,430.78076221930314L153.43027122070112,430.78076221930314L153.43027122070112,430.2839232023798L153.07623805939852,429.2902195534989L152.3681717367931,427.79960003602173L152.0141385754905,426.3089036548481L151.6601054141879,425.3150633594196L151.3060722528851,424.3211888934529L150.5980059302799,423.8242388454091L149.88993960767448,422.83031311693776L149.18187328506906,421.83635320903704L148.11977380116105,421.3393604366938L145.64154167204288,421.3393604366938L143.16330954292425,422.83031311693776L142.10121005901624,423.3272802533829L140.68507741380563,422.83031311693776L140.33104425250303,422.333337435648L140.33104425250303,421.83635320903704L140.33104425250303,421.3393604366938L139.62297792989762,420.84235911813084L139.26894476859502,420.3453492529443L138.91491160729242,419.8483308406576L138.5608784459896,419.3513038808378L138.206845284687,418.85426837305204L137.8528121233844,417.36311055734404L137.8528121233844,416.8660408531796L138.206845284687,415.87187579379315L138.5608784459896,415.87187579379315L138.91491160729242,415.37478043768715L138.91491160729242,414.8776765300245L138.5608784459896,414.3805640703722L138.206845284687,414.3805640703722L136.7907126394764,412.88917537504676L135.72861315556838,412.88917537504676L134.66651367166037,412.3920287030014L134.31248051035777,412.3920287030014L133.95844734905495,411.8948734767255L133.60441418775235,409.90616702055195L133.95844734905495,408.91176245556926L134.31248051035777,407.9173236612223L134.66651367166037,406.92285063396776L135.02054683296296,404.9338018664166L135.02054683296296,404.43651827337453L135.02054683296296,404.43651827337453L134.66651367166037,403.4419254027853L134.66651367166037,402.9446161243395L134.31248051035777,402.44729828321215L133.95844734905495,401.9499718789302L132.54231470384434,401.9499718789302L131.83424838123938,401.9499718789302L131.48021521993678,401.9499718789302L130.06408257472617,401.4526369110681L129.71004941342335,399.463211394861L129.35601625212075,396.4788161370707L129.35601625212075,395.4839491745952L129.71004941342335,394.48904793455586L129.71004941342335,393.9915844593379L130.41811573602877,391.00662360698334L130.41811573602877,389.51402744576626L130.41811573602877,387.52377918216735L130.41811573602877,387.52377918216735L131.48021521993678,386.5286035928839L131.48021521993678,386.5286035928839L131.12618205863373,386.03100293232274L130.77214889733136,385.5333936938623L130.41811573602877,385.0357758770806L130.41811573602877,385.0357758770806L130.06408257472617,384.53814948151194L130.41811573602877,383.54287095225664L130.41811573602877,383.0452188176605L130.06408257472617,382.54755810250936L129.00198309081816,380.55682942722706L129.00198309081816,380.55682942722706L128.64794992951556,380.05912580251606L128.64794992951556,380.05912580251606L128.29391676821274,380.05912580251606L127.93988360691014,380.05912580251606L127.58585044560755,380.05912580251606L126.87778412300213,379.0636928028689L126.16971780039671,378.0682254666135L124.7535851551861,374.58381933729834L123.33745250997549,371.09899238713115L122.6293861873703,371.09899238713115L122.27535302606748,371.09899238713115L121.92131986476488,370.6011256039892L121.56728670346229,370.6011256039892L121.21325354215969,369.60536626197063L121.56728670346229,369.10747370218814L121.56728670346229,369.10747370218814L122.6293861873703,367.613744462411L124.04551883258068,365.12402383434164L125.46165147779152,363.1320925940381L125.81568463909412,363.1320925940381L126.16971780039671,363.1320925940381L126.52375096169953,362.6340882888617L126.52375096169953,362.136075384733L126.52375096169953,361.6380538812118L126.87778412300213,361.1400237778762L126.52375096169953,360.641985074235L126.52375096169953,360.14393776985526L126.52375096169953,360.14393776985526L126.52375096169953,359.64588186430774L126.16971780039671,359.64588186430774L125.81568463909412,359.64588186430774L125.81568463909412,359.64588186430774L124.7535851551861,360.14393776985526L124.3995519938835,360.14393776985526L123.69148567127809,360.641985074235L123.69148567127809,360.641985074235L122.9834193486729,360.641985074235L121.92131986476488,360.14393776985526L121.56728670346229,360.14393776985526L121.21325354215969,360.14393776985526L121.21325354215969,359.64588186430774L120.85922038085687,359.64588186430774L120.85922038085687,357.6535722212757L121.92131986476488,356.1592496545709L121.56728670346229,355.16299158697075L120.85922038085687,354.1666990966878L120.85922038085687,354.1666990966878L120.50518721955427,354.1666990966878L119.08905457434366,353.17037218012047L118.73502141304107,352.17401083367076L119.08905457434366,349.1847201791061L119.44308773564626,347.1916875274437L120.15115405825168,345.19851706997724L121.92131986476488,343.70354877453065L122.9834193486729,343.2052087779557L124.04551883258068,341.7101370876844L124.04551883258068,340.2149878371383L123.33745250997549,339.2181785750654L122.6293861873703,338.2213348327641L120.85922038085687,337.72290003040325L119.44308773564626,337.22445660662925L119.08905457434366,337.22445660662925L118.73502141304107,336.726004560991L119.08905457434366,336.726004560991L119.08905457434366,336.22754389305555L120.50518721955427,333.2365987917183L120.50518721955427,332.2395480923951L120.85922038085687,331.74100980341245L120.85922038085687,331.74100980341245L121.56728670346229,331.2424628876288L123.69148567127809,330.24534317380676L124.04551883258068,330.24534317380676L124.3995519938835,330.24534317380676L126.16971780039671,331.2424628876288L127.58585044560755,332.2395480923951L128.64794992951556,332.73807775500245L128.64794992951556,332.73807775500245L129.35601625212075,332.73807775500245L130.41811573602877,332.73807775500245L131.83424838123938,332.2395480923951L132.18828154254174,332.2395480923951L132.18828154254174,331.74100980341245L132.18828154254174,331.74100980341245L131.48021521993678,331.2424628876288L131.12618205863373,330.24534317380676L131.48021521993678,328.25100020462196L132.18828154254174,326.75515236467254L133.25038102644976,326.25651915599883L133.95844734905495,326.25651915599883L135.72861315556838,325.75787731554374L136.43667947817357,325.75787731554374L137.144745800779,326.25651915599883L137.144745800779,325.75787731554374L137.144745800779,325.2592268428707L138.206845284687,325.2592268428707L139.62297792989762,324.7605677375359L139.62297792989762,324.7605677375359L140.33104425250303,324.7605677375359L140.68507741380563,324.26189999907365L141.03911057510823,323.76322362704377L141.03911057510823,323.76322362704377L140.68507741380563,323.2645386209988L140.68507741380563,323.2645386209988L140.33104425250303,322.76584498048396L138.91491160729242,320.77098406463847L138.5608784459896,319.77350178815686L139.62297792989762,319.27474769369655L140.33104425250303,318.2772135900814L141.03911057510823,315.7832271409425L141.39314373641105,313.28902466081854L141.39314373641105,312.790158236101L142.10121005901624,312.2912831674512L142.80927638162166,311.79239945438894L145.64154167204288,310.2956964443001L145.99557483334547,307.30205696437406L147.0576743172535,305.3061243387747L147.0576743172535,304.80711955669904L147.0576743172535,304.80711955669904L147.0576743172535,304.308106123437L146.70364115595044,303.31005330159314L146.70364115595044,302.8110139120945L146.70364115595044,301.3138438239039L146.70364115595044,300.8147698197572L146.70364115595044,300.31568716081165L147.41170747855585,299.81659584663794L147.76574063985845,298.81838725071793L147.76574063985845,298.81838725071793L147.76574063985845,298.3192699680985L148.11977380116105,297.82014402840286L149.18187328506906,296.3227142625001L150.5980059302799,295.8235536900829L152.3681717367931,294.8252065668348L153.7843043820037,294.32602001509804L154.49237070460913,293.82682480268704L154.49237070460913,293.82682480268704L154.84640386591173,294.32602001509804L155.20043702721432,294.8252065668348L155.20043702721432,295.8235536900829L155.20043702721432,296.3227142625001L155.20043702721432,296.82186617606567L155.55447018851714,297.82014402840286L155.55447018851714,298.3192699680985L155.90850334981974,298.3192699680985L156.97060283372775,299.81659584663794L158.38673547893836,300.8147698197572L160.15690128545157,301.8129091737028L160.864967608057,302.8110139120945L161.21900076935958,303.31005330159314L161.57303393066218,302.8110139120945L162.63513341456996,302.8110139120945L163.3431997371756,303.31005330159314L163.3431997371756,303.31005330159314L163.69723289847798,302.8110139120945L163.69723289847798,301.8129091737028L162.989166575873,300.31568716081165L161.927067091965,298.3192699680985L160.864967608057,296.3227142625001L160.51093444675416,296.3227142625001L160.51093444675416,295.8235536900829L160.51093444675416,295.32438445833395L160.51093444675416,293.82682480268704L160.51093444675416,293.32762092916164L160.51093444675416,293.32762092916164L161.21900076935958,292.82840839404525L163.3431997371756,292.3291871969159L164.759332382386,292.82840839404525L165.4673987049914,294.8252065668348L165.821431866294,297.32100943120895L166.88353135020202,297.82014402840286L167.5915976728072,297.82014402840286L169.36176347932042,295.8235536900829L169.71579664062324,295.32438445833395L170.06982980192583,294.8252065668348L170.06982980192583,293.82682480268704L170.06982980192583,293.32762092916164L169.71579664062324,293.32762092916164L169.71579664062324,292.82840839404525L169.36176347932042,292.3291871969159L169.36176347932042,290.83147162876776L169.71579664062324,289.83295126488156L170.42386296322843,289.83295126488156L171.48596244713644,289.83295126488156L171.48596244713644,289.83295126488156L172.19402876974164,290.3322157789662L172.54806193104446,290.83147162876776L172.54806193104446,290.83147162876776L172.90209509234705,291.3307188147155L172.54806193104446,292.3291871969159L173.25612825364965,294.32602001509804L175.73436038276827,293.32762092916164L177.1504930279791,292.82840839404525L177.50452618928125,292.3291871969159L177.8585593505843,292.3291871969159L177.8585593505843,292.3291871969159L177.8585593505843,291.3307188147155L177.50452618928125,291.3307188147155L177.1504930279791,290.83147162876776L177.1504930279791,290.83147162876776L177.1504930279791,290.3322157789662L177.50452618928125,290.3322157789662L177.50452618928125,290.3322157789662L177.1504930279791,288.8343962419931L176.0883935440711,287.3364987141358L175.02629406016308,286.3378570279383L175.02629406016308,286.3378570279383L174.67226089886026,285.83852318317076L174.67226089886026,285.83852318317076L175.02629406016308,285.83852318317076L176.4424267053737,282.8423380629538L176.4424267053737,281.34412844924736L176.4424267053737,278.84693897132456L177.50452618928125,275.85002532716317L177.8585593505843,275.85002532716317L178.21259251188712,275.3505093514068L178.9206588344921,274.3514513657756L179.9827583184001,273.3523586649426L180.33679147970247,272.85279929518583L181.39889096361048,272.35323124526985L181.7529241249133,272.35323124526985L182.4609904475185,272.35323124526985L182.81502360882132,272.85279929518583L185.29325573793994,273.3523586649426L187.77148786705857,272.85279929518583L189.18762051226918,273.85190935497667L189.89568683487437,274.3514513657756L192.0198858026904,275.3505093514068L192.0198858026904,275.3505093514068L192.72795212529536,275.3505093514068L192.72795212529536,275.3505093514068L193.0819852865984,275.3505093514068L193.43601844790123,274.8509846977722L193.43601844790123,274.3514513657756L193.79005160920337,273.85190935497667L194.8521510931114,273.85190935497667L194.8521510931114,273.85190935497667L195.2061842544142,273.85190935497667L195.2061842544142,274.3514513657756L195.5602174157168,274.3514513657756L195.9142505770194,274.8509846977722L196.97635006092742,274.3514513657756L197.68441638353283,273.85190935497667L198.74651586744085,273.85190935497667L198.74651586744085,273.85190935497667L199.10054902874344,273.3523586649426L201.9328143191649,272.85279929518583L204.4110464482833,270.8544750100373L205.4731459321913,269.8552607774145L207.2433117387045,269.3556406369971L208.6594443839149,269.3556406369971L209.01347754521794,269.3556406369971L209.36751070652053,269.8552607774145L210.42961019042832,270.3548722349333L211.4917096743361,270.8544750100373L211.4917096743361,270.8544750100373L212.55380915824412,270.8544750100373L214.32397496475733,271.35406910314487L216.09414077127076,271.8536545147472L219.6344723842974,271.8536545147472L221.4046381908106,272.35323124526985L222.11270451341602,272.35323124526985L223.17480399732403,272.35323124526985L223.882870319929,271.35406910314487L224.23690348123205,271.35406910314487L224.944969803837,269.8552607774145L224.944969803837,269.3556406369971L227.06916877165304,267.3570732374101L229.90143406207426,265.8580564951844L230.25546722337685,265.8580564951844L230.60950038467945,265.8580564951844L230.60950038467945,265.8580564951844L231.31756670728487,262.85978846250873L231.67159986858746,260.36099281856514L232.37966619119288,256.8623138606563L233.4417656751009,254.36299663028694L234.8578983203115,251.86346197560488L234.8578983203115,251.86346197560488L234.8578983203115,251.86346197560488L237.33613044943013,248.86373330981223L238.04419677203532,248.36374807792163L239.46032941724616,246.36372012142965L240.16839573985112,245.3636539194813L240.8764620624563,244.36355289687708L242.29259470766715,243.36341704996812L244.06276051418035,242.36324637509097Z" style="fill: none; stroke: rgb(8, 48, 107);"><title>ARDECHE</title></path><g stroke="#000" stroke-opacity="0.2"><path d="M0,-13.34775705149959L2.9967581703553763,-4.1246837657014135L12.69447132175327,-4.124683765701414L4.848856575698947,1.5754890056530315L7.845614746054325,10.798562291451207L8.881784197001252e-16,5.098389520096762L-7.845614746054323,10.798562291451208L-4.848856575698946,1.5754890056530328L-12.694471321753271,-4.124683765701411L-2.9967581703553776,-4.124683765701413Z" transform="translate(274.155579224906,441.7090613307628)rotate(1.1990152213966243)" fill="white" class="commune"><title>07132 Population : 1660</title></path><path d="M0,-13.34775705149959L2.9967581703553763,-4.1246837657014135L12.69447132175327,-4.124683765701414L4.848856575698947,1.5754890056530315L7.845614746054325,10.798562291451207L8.881784197001252e-16,5.098389520096762L-7.845614746054323,10.798562291451208L-4.848856575698946,1.5754890056530328L-12.694471321753271,-4.124683765701411L-2.9967581703553776,-4.124683765701413Z" transform="translate(377.88729548658375,347.1916875274437)rotate(25.735152999362374)" fill="white" class="commune"><title>07186 Population : 8305</title></path><path d="M0,-15.873247654971056L3.5637661381291506,-4.905103281308338L15.096355617026989,-4.905103281308339L5.766294739448918,1.873582735131148L9.330060877578072,12.841727108793865L8.881784197001252e-16,6.063041092354379L-9.330060877578068,12.841727108793867L-5.766294739448918,1.8735827351311491L-15.09635561702699,-4.905103281308335L-3.563766138129152,-4.905103281308337Z" transform="translate(456.48265729577247,181.78798597944115)rotate(25.032700117377992)" fill="white" class="commune"><title>07324 Population : 10234</title></path></g><text class="text" y="25" x="326" text-anchor="middle" font-size="24" font-family="Helvetica" fill="#6baed6">07 - ARDECHE</text><line x1="281.0710269756845" y1="435.4079030772082" x2="370.9718477358052" y2="353.4928457809983" stroke="yellow" opacity="0.35" stroke-width="2"/><line x1="383.126986273863" y1="336.1647740909102" x2="451.2429665084932" y2="192.81489941597465" stroke="yellow" opacity="0.35" stroke-width="2"/><line x1="444.3275187577147" y1="199.11605766952925" x2="286.31071776296375" y2="424.38098964067467" stroke="yellow" opacity="0.35" stroke-width="2"/></svg>