<svg viewBox="0,0,954,1144.8" width="954" height="1144.8" style="width: 100%; height: auto;" xmlns="http://www.w3.org/2000/svg" xmlns:xlink="http://www.w3.org/1999/xlink"><rect width="954" height="1144.8" fill="black"/><g stroke="#000" stroke-opacity="0.2"><path d="M0,-22.448162112566994L5.039926405668234,-6.936863585267022L21.349470856006818,-6.936863585267023L8.154772225169292,2.649646114250548L13.19469863083753,18.16094464155052L8.881784197001252e-16,8.574434942032948L-13.194698630837525,18.160944641550522L-8.154772225169292,2.649646114250549L-21.34947085600682,-6.936863585267019L-5.0399264056682345,-6.936863585267021Z" transform="translate(201.27240569784408,98.76864038839426)rotate(20.164164466342907)" fill="white" class="commune"><title>insee_com : 97311 
Population : 42612
 Nom : SAINT LAURENT DU MARONI</title></path><path d="M0,-22.448162112566994L5.039926405668234,-6.936863585267022L21.349470856006818,-6.936863585267023L8.154772225169292,2.649646114250548L13.19469863083753,18.16094464155052L8.881784197001252e-16,8.574434942032948L-13.194698630837525,18.160944641550522L-8.154772225169292,2.649646114250549L-21.34947085600682,-6.936863585267019L-5.0399264056682345,-6.936863585267021Z" transform="translate(709.9106990092314,269.24287947868606)rotate(4.726876118052505)" fill="white" class="commune"><title>insee_com : 97302 
Population : 61268
 Nom : CAYENNE</title></path></g><text class="text" y="40" x="427" text-anchor="middle" font-size="36" font-family="Helvetica" fill="#6baed6">973  - GUYANE</text><line x1="676.0014794551389" y1="257.8779302059999" x2="235.18162525193657" y2="110.13358966108038" stroke="yellow" opacity="0.35" stroke-width="2"/><line x1="235.18162525193657" y1="110.13358966108038" x2="676.0014794551389" y2="257.8779302059999" stroke="yellow" opacity="0.35" stroke-width="2"/></svg>