<svg viewBox="0,0,954,1144.8" width="954" height="1144.8" style="width: 100%; height: auto;" xmlns="http://www.w3.org/2000/svg" xmlns:xlink="http://www.w3.org/1999/xlink"><rect width="954" height="1144.8" fill="black"/><g stroke="#000" stroke-opacity="0.2"><path d="M0,-18.876579049491834L4.238056047668955,-5.833183721955068L17.952693510379785,-5.833183721955069L6.857318731355415,2.2280779191642193L11.095374779024372,15.271473246700983L8.881784197001252e-16,7.210211605581696L-11.095374779024368,15.271473246700985L-6.857318731355414,2.2280779191642206L-17.952693510379788,-5.833183721955065L-4.238056047668956,-5.833183721955068Z" transform="translate(357.40047675804544,768.1671316144057)rotate(10.4823531755919)" fill="white" class="commune"><title>insee_com : 91223 
Population : 25092
 Nom : ETAMPES</title></path><path d="M0,-18.876579049491834L4.238056047668955,-5.833183721955068L17.952693510379785,-5.833183721955069L6.857318731355415,2.2280779191642193L11.095374779024372,15.271473246700983L8.881784197001252e-16,7.210211605581696L-11.095374779024368,15.271473246700985L-6.857318731355414,2.2280779191642206L-17.952693510379788,-5.833183721955065L-4.238056047668956,-5.833183721955068Z" transform="translate(471.2085816448148,197.9937139324029)rotate(29.753564819754335)" fill="white" class="commune"><title>insee_com : 91477 
Population : 35514
 Nom : PALAISEAU</title></path><path d="M0,-22.448162112566994L5.039926405668234,-6.936863585267022L21.349470856006818,-6.936863585267023L8.154772225169292,2.649646114250548L13.19469863083753,18.16094464155052L8.881784197001252e-16,8.574434942032948L-13.194698630837525,18.160944641550522L-8.154772225169292,2.649646114250549L-21.34947085600682,-6.936863585267019L-5.0399264056682345,-6.936863585267021Z" transform="translate(718.4886769964237,383.5806524731597)rotate(8.582975200293776)" fill="white" class="commune"><title>insee_com : 91228 
Population : 67967
 Nom : EVRY COURCOURONNES</title></path><path d="M0,-22.448162112566994L5.039926405668234,-6.936863585267022L21.349470856006818,-6.936863585267023L8.154772225169292,2.649646114250548L13.19469863083753,18.16094464155052L8.881784197001252e-16,8.574434942032948L-13.194698630837525,18.160944641550522L-8.154772225169292,2.649646114250549L-21.34947085600682,-6.936863585267019L-5.0399264056682345,-6.936863585267021Z" transform="translate(718.4886769964237,383.5806524731597)rotate(29.923299400980095)" fill="white" class="commune"><title>insee_com : 91228 
Population : 67967
 Nom : EVRY COURCOURONNES</title></path></g><text class="text" y="40" x="427" text-anchor="middle" font-size="36" font-family="Helvetica" fill="#6baed6">91  - ESSONNE</text><line x1="381.473023440604" y1="742.5280330049893" x2="694.4161303138651" y2="409.2197510825761" stroke="yellow" opacity="0.35" stroke-width="2"/><line x1="702.0033373063164" y1="371.2081899037759" x2="487.69392133492204" y2="210.3661765017867" stroke="yellow" opacity="0.35" stroke-width="2"/><line x1="463.6213746523635" y1="236.00527511120308" x2="364.9876837504967" y2="730.1555704356055" stroke="yellow" opacity="0.35" stroke-width="2"/></svg>