<svg viewBox="0,0,954,1144.8" width="954" height="1144.8" style="width: 100%; height: auto;" xmlns="http://www.w3.org/2000/svg" xmlns:xlink="http://www.w3.org/1999/xlink"><rect width="954" height="1144.8" fill="black"/><g stroke="#000" stroke-opacity="0.2"><path d="M0,-13.34775705149959L2.9967581703553763,-4.1246837657014135L12.69447132175327,-4.124683765701414L4.848856575698947,1.5754890056530315L7.845614746054325,10.798562291451207L8.881784197001252e-16,5.098389520096762L-7.845614746054323,10.798562291451208L-4.848856575698946,1.5754890056530328L-12.694471321753271,-4.124683765701411L-2.9967581703553776,-4.124683765701413Z" transform="translate(650.362782049524,236.18652068317897)rotate(1.4105378208271013)" fill="white" class="commune"><title>insee_com : 02789 
Population : 2552
 Nom : VERVINS</title></path><path d="M0,-15.873247654971056L3.5637661381291506,-4.905103281308338L15.096355617026989,-4.905103281308339L5.766294739448918,1.873582735131148L9.330060877578072,12.841727108793865L8.881784197001252e-16,6.063041092354379L-9.330060877578068,12.841727108793867L-5.766294739448918,1.8735827351311491L-15.09635561702699,-4.905103281308335L-3.563766138129152,-4.905103281308337Z" transform="translate(358.9608505965266,936.132079320294)rotate(20.869154142516084)" fill="white" class="commune"><title>insee_com : 02168 
Population : 15107
 Nom : CHATEAU THIERRY</title></path><path d="M0,-18.876579049491834L4.238056047668955,-5.833183721955068L17.952693510379785,-5.833183721955069L6.857318731355415,2.2280779191642193L11.095374779024372,15.271473246700983L8.881784197001252e-16,7.210211605581696L-11.095374779024368,15.271473246700985L-6.857318731355414,2.2280779191642206L-17.952693510379788,-5.833183721955065L-4.238056047668956,-5.833183721955068Z" transform="translate(484.91162596295317,476.5425505883395)rotate(17.043845621147085)" fill="white" class="commune"><title>insee_com : 02408 
Population : 24876
 Nom : LAON</title></path><path d="M0,-18.876579049491834L4.238056047668955,-5.833183721955068L17.952693510379785,-5.833183721955069L6.857318731355415,2.2280779191642193L11.095374779024372,15.271473246700983L8.881784197001252e-16,7.210211605581696L-11.095374779024368,15.271473246700985L-6.857318731355414,2.2280779191642206L-17.952693510379788,-5.833183721955065L-4.238056047668956,-5.833183721955068Z" transform="translate(316.28426967227665,637.4933872827314)rotate(9.470303705111586)" fill="white" class="commune"><title>insee_com : 02722 
Population : 28530
 Nom : SOISSONS</title></path><path d="M0,-22.448162112566994L5.039926405668234,-6.936863585267022L21.349470856006818,-6.936863585267023L8.154772225169292,2.649646114250548L13.19469863083753,18.16094464155052L8.881784197001252e-16,8.574434942032948L-13.194698630837525,18.160944641550522L-8.154772225169292,2.649646114250549L-21.34947085600682,-6.936863585267019L-5.0399264056682345,-6.936863585267021Z" transform="translate(292.37614449955777,224.72474773099384)rotate(29.192926419682706)" fill="white" class="commune"><title>insee_com : 02691 
Population : 53816
 Nom : SAINT QUENTIN</title></path></g><text class="text" y="40" x="427" text-anchor="middle" font-size="36" font-family="Helvetica" fill="#6baed6">02  - AISNE</text><line x1="316.24192033622217" y1="225.4888659278062" x2="626.4970062128596" y2="235.42240248636662" stroke="yellow" opacity="0.35" stroke-width="2"/><line x1="639.3327049770859" y1="252.21025601018968" x2="495.94170303539124" y2="460.5188152613288" stroke="yellow" opacity="0.35" stroke-width="2"/><line x1="476.5149076051914" y1="507.18185250380316" x2="367.35756895428835" y2="905.4927774048303" stroke="yellow" opacity="0.35" stroke-width="2"/><line x1="356.1157452015766" y1="916.2228331844565" x2="319.12937506722665" y2="657.4026334185689" stroke="yellow" opacity="0.35" stroke-width="2"/><line x1="314.6903946607621" y1="609.9754779792822" x2="293.97001951107234" y2="252.24265703444303" stroke="yellow" opacity="0.35" stroke-width="2"/></svg>