<svg viewBox="0,0,600,600" width="600" height="600" style="width: 100%; height: auto;" xmlns="http://www.w3.org/2000/svg" xmlns:xlink="http://www.w3.org/1999/xlink"><rect width="752" height="902.4" fill="black"/><g stroke="#000" stroke-opacity="0.2"><path d="M0,-13.34775705149959L2.9967581703553763,-4.1246837657014135L12.69447132175327,-4.124683765701414L4.848856575698947,1.5754890056530315L7.845614746054325,10.798562291451207L8.881784197001252e-16,5.098389520096762L-7.845614746054323,10.798562291451208L-4.848856575698946,1.5754890056530328L-12.694471321753271,-4.124683765701411L-2.9967581703553776,-4.124683765701413Z" transform="translate(519.6283783783786,349.1617200084802)rotate(9.653346589445473)" fill="white" class="commune"><title>10033 Population : 4950</title></path><path d="M0,-13.34775705149959L2.9967581703553763,-4.1246837657014135L12.69447132175327,-4.124683765701414L4.848856575698947,1.5754890056530315L7.845614746054325,10.798562291451207L8.881784197001252e-16,5.098389520096762L-7.845614746054323,10.798562291451208L-4.848856575698946,1.5754890056530328L-12.694471321753271,-4.124683765701411L-2.9967581703553776,-4.124683765701413Z" transform="translate(68.10810810810835,202.61194354227337)rotate(20.66858313784359)" fill="white" class="commune"><title>10268 Population : 5973</title></path><path d="M0,-22.448162112566994L5.039926405668234,-6.936863585267022L21.349470856006818,-6.936863585267023L8.154772225169292,2.649646114250548L13.19469863083753,18.16094464155052L8.881784197001252e-16,8.574434942032948L-13.194698630837525,18.160944641550522L-8.154772225169292,2.649646114250549L-21.34947085600682,-6.936863585267019L-5.0399264056682345,-6.936863585267021Z" transform="translate(282.90540540540565,313.99140866025846)rotate(4.526939364975583)" fill="white" class="commune"><title>10387 Population : 60640</title></path></g><text class="text" y="25" x="326" text-anchor="middle" font-size="24" font-family="Helvetica" fill="#6baed6">10 - AUBE</text><line x1="489.5270270270272" y1="339.3917349107331" x2="98.20945945945971" y2="212.38192864002048" stroke="yellow" opacity="0.35" stroke-width="2"/><line x1="82.42792792792818" y1="210.0372412168057" x2="268.5855855855858" y2="306.56611098572614" stroke="yellow" opacity="0.35" stroke-width="2"/><line x1="298.6869369369372" y1="316.33609608347325" x2="503.84684684684703" y2="346.8170325852654" stroke="yellow" opacity="0.35" stroke-width="2"/></svg>