<svg viewBox="0,0,955,1146" width="955" height="1146" style="width: 100%; height: auto;" xmlns="http://www.w3.org/2000/svg" xmlns:xlink="http://www.w3.org/1999/xlink"><rect width="955" height="1146" fill="black"/><g stroke="#000" stroke-opacity="0.2"><path d="M0,-13.34775705149959L2.9967581703553763,-4.1246837657014135L12.69447132175327,-4.124683765701414L4.848856575698947,1.5754890056530315L7.845614746054325,10.798562291451207L8.881784197001252e-16,5.098389520096762L-7.845614746054323,10.798562291451208L-4.848856575698946,1.5754890056530328L-12.694471321753271,-4.124683765701411L-2.9967581703553776,-4.124683765701413Z" transform="translate(267.3591730383514,461.2275105815934)rotate(9.907954478912911)" fill="white" class="commune"><title>2B050 Population : 5442</title></path><path d="M0,-13.34775705149959L2.9967581703553763,-4.1246837657014135L12.69447132175327,-4.124683765701414L4.848856575698947,1.5754890056530315L7.845614746054325,10.798562291451207L8.881784197001252e-16,5.098389520096762L-7.845614746054323,10.798562291451208L-4.848856575698946,1.5754890056530328L-12.694471321753271,-4.124683765701411L-2.9967581703553776,-4.124683765701413Z" transform="translate(488.81263831930573,716.5807935349112)rotate(22.969861527298335)" fill="white" class="commune"><title>2B096 Population : 7389</title></path><path d="M0,-22.448162112566994L5.039926405668234,-6.936863585267022L21.349470856006818,-6.936863585267023L8.154772225169292,2.649646114250548L13.19469863083753,18.16094464155052L8.881784197001252e-16,8.574434942032948L-13.194698630837525,18.160944641550522L-8.154772225169292,2.649646114250549L-21.34947085600682,-6.936863585267019L-5.0399264056682345,-6.936863585267021Z" transform="translate(723.2927780285518,329.86473025626765)rotate(17.259800397281953)" fill="white" class="commune"><title>2B033 Population : 44829</title></path></g><text class="text" y="40" x="427.5" text-anchor="middle" font-size="36" font-family="Helvetica" fill="#6baed6">2B - HAUTE CORSE</text><line x1="692.8972043625384" y1="338.6222489446227" x2="297.7547467043648" y2="452.46999189323833" stroke="yellow" opacity="0.35" stroke-width="2"/><line x1="282.122737390415" y1="478.25106277848124" x2="474.0490739672421" y2="699.5572413380233" stroke="yellow" opacity="0.35" stroke-width="2"/><line x1="504.44464763325544" y1="690.7997226496683" x2="707.660768714602" y2="355.64580114151056" stroke="yellow" opacity="0.35" stroke-width="2"/></svg>