<svg viewBox="0,0,954,1144.8" width="954" height="1144.8" style="width: 100%; height: auto;" xmlns="http://www.w3.org/2000/svg" xmlns:xlink="http://www.w3.org/1999/xlink"><rect width="954" height="1144.8" fill="black"/><g stroke="#000" stroke-opacity="0.2"><path d="M0,-22.448162112566994L5.039926405668234,-6.936863585267022L21.349470856006818,-6.936863585267023L8.154772225169292,2.649646114250548L13.19469863083753,18.16094464155052L8.881784197001252e-16,8.574434942032948L-13.194698630837525,18.160944641550522L-8.154772225169292,2.649646114250549L-21.34947085600682,-6.936863585267019L-5.0399264056682345,-6.936863585267021Z" transform="translate(653.7241906878126,999.9835465791693)rotate(27.036639817981055)" fill="white" class="commune"><title>insee_com : 92002 
Population : 62570
 Nom : ANTONY</title></path><path d="M0,-26.69551410299918L5.993516340710753,-8.249367531402827L25.38894264350654,-8.249367531402829L9.697713151397894,3.150978011306063L15.69122949210865,21.597124582902413L1.7763568394002505e-15,10.196779040193524L-15.691229492108645,21.597124582902417L-9.697713151397892,3.1509780113060657L-25.388942643506542,-8.249367531402822L-5.993516340710755,-8.249367531402825Z" transform="translate(365.95802921823724,316.95913732846384)rotate(26.90965413006352)" fill="white" class="commune"><title>insee_com : 92050 
Population : 95105
 Nom : NANTERRE</title></path><path d="M0,-26.69551410299918L5.993516340710753,-8.249367531402827L25.38894264350654,-8.249367531402829L9.697713151397894,3.150978011306063L15.69122949210865,21.597124582902413L1.7763568394002505e-15,10.196779040193524L-15.691229492108645,21.597124582902417L-9.697713151397892,3.1509780113060657L-25.388942643506542,-8.249367531402822L-5.993516340710755,-8.249367531402825Z" transform="translate(474.56130371636027,593.7543611272995)rotate(9.055689992231885)" fill="white" class="commune"><title>insee_com : 92012 
Population : 120071
 Nom : BOULOGNE BILLANCOURT</title></path></g><text class="text" y="40" x="427" text-anchor="middle" font-size="36" font-family="Helvetica" fill="#6baed6">92  - HAUTS DE SEINE</text><line x1="641.7799982230491" y1="972.901600882378" x2="486.50549618112376" y2="620.8363068240908" stroke="yellow" opacity="0.35" stroke-width="2"/><line x1="467.3210854164854" y1="575.3013462073772" x2="373.1982475181121" y2="335.41215224838623" stroke="yellow" opacity="0.35" stroke-width="2"/><line x1="385.1424399828756" y1="362.49409794517754" x2="634.5397799231743" y2="954.4485859624557" stroke="yellow" opacity="0.35" stroke-width="2"/></svg>