<svg viewBox="0,0,954,1144.8" width="954" height="1144.8" style="width: 100%; height: auto;" xmlns="http://www.w3.org/2000/svg" xmlns:xlink="http://www.w3.org/1999/xlink"><rect width="954" height="1144.8" fill="black"/><g stroke="#000" stroke-opacity="0.2"><path d="M0,-13.34775705149959L2.9967581703553763,-4.1246837657014135L12.69447132175327,-4.124683765701414L4.848856575698947,1.5754890056530315L7.845614746054325,10.798562291451207L8.881784197001252e-16,5.098389520096762L-7.845614746054323,10.798562291451208L-4.848856575698946,1.5754890056530328L-12.694471321753271,-4.124683765701411L-2.9967581703553776,-4.124683765701413Z" transform="translate(346.0384761491291,731.3679376752698)rotate(21.745007815052322)" fill="white" class="commune"><title>insee_com : 71106 
Population : 2785
 Nom : CHAROLLES</title></path><path d="M0,-13.34775705149959L2.9967581703553763,-4.1246837657014135L12.69447132175327,-4.124683765701414L4.848856575698947,1.5754890056530315L7.845614746054325,10.798562291451207L8.881784197001252e-16,5.098389520096762L-7.845614746054323,10.798562291451208L-4.848856575698946,1.5754890056530328L-12.694471321753271,-4.124683765701411L-2.9967581703553776,-4.124683765701413Z" transform="translate(810.327617083627,593.8089331437513)rotate(0.08715827084872396)" fill="white" class="commune"><title>insee_com : 71263 
Population : 6365
 Nom : LOUHANS</title></path><path d="M0,-15.873247654971056L3.5637661381291506,-4.905103281308338L15.096355617026989,-4.905103281308339L5.766294739448918,1.873582735131148L9.330060877578072,12.841727108793865L8.881784197001252e-16,6.063041092354379L-9.330060877578068,12.841727108793867L-5.766294739448918,1.8735827351311491L-15.09635561702699,-4.905103281308335L-3.563766138129152,-4.905103281308337Z" transform="translate(356.78227600803166,362.58767026604255)rotate(11.61870131604866)" fill="white" class="commune"><title>insee_com : 71014 
Population : 13290
 Nom : AUTUN</title></path><path d="M0,-18.876579049491834L4.238056047668955,-5.833183721955068L17.952693510379785,-5.833183721955069L6.857318731355415,2.2280779191642193L11.095374779024372,15.271473246700983L8.881784197001252e-16,7.210211605581696L-11.095374779024368,15.271473246700985L-6.857318731355414,2.2280779191642206L-17.952693510379788,-5.833183721955065L-4.238056047668956,-5.833183721955068Z" transform="translate(618.6072068160852,825.2891147436785)rotate(5.1525285099898905)" fill="white" class="commune"><title>insee_com : 71270 
Population : 33638
 Nom : MACON</title></path><path d="M0,-22.448162112566994L5.039926405668234,-6.936863585267022L21.349470856006818,-6.936863585267023L8.154772225169292,2.649646114250548L13.19469863083753,18.16094464155052L8.881784197001252e-16,8.574434942032948L-13.194698630837525,18.160944641550522L-8.154772225169292,2.649646114250549L-21.34947085600682,-6.936863585267019L-5.0399264056682345,-6.936863585267021Z" transform="translate(629.0075975470772,484.85552807762724)rotate(4.388674166814244)" fill="white" class="commune"><title>insee_com : 71076 
Population : 45096
 Nom : CHALON SUR SAONE</title></path></g><text class="text" y="40" x="427" text-anchor="middle" font-size="36" font-family="Helvetica" fill="#6baed6">71  - SAONE ET LOIRE</text><line x1="610.8592427778075" y1="476.7043375568549" x2="374.93063077730136" y2="370.7388607868149" stroke="yellow" opacity="0.35" stroke-width="2"/><line x1="356.06602268410484" y1="387.1730214266577" x2="346.75472947305593" y2="706.7825865146547" stroke="yellow" opacity="0.35" stroke-width="2"/><line x1="364.20972486025954" y1="737.6293494798304" x2="600.4359581049548" y2="819.027702939118" stroke="yellow" opacity="0.35" stroke-width="2"/><line x1="631.388567500588" y1="809.8571026370167" x2="797.5462563991242" y2="609.2409452504131" stroke="yellow" opacity="0.35" stroke-width="2"/><line x1="798.2396157811904" y1="586.5453728060097" x2="641.0955988495139" y2="492.1190884153688" stroke="yellow" opacity="0.35" stroke-width="2"/></svg>