<svg viewBox="0,0,955,1146" width="955" height="1146" style="width: 100%; height: auto;" xmlns="http://www.w3.org/2000/svg" xmlns:xlink="http://www.w3.org/1999/xlink"><rect width="955" height="1146" fill="black"/><g stroke="#000" stroke-opacity="0.2"><path d="M0,-13.34775705149959L2.9967581703553763,-4.1246837657014135L12.69447132175327,-4.124683765701414L4.848856575698947,1.5754890056530315L7.845614746054325,10.798562291451207L8.881784197001252e-16,5.098389520096762L-7.845614746054323,10.798562291451208L-4.848856575698946,1.5754890056530328L-12.694471321753271,-4.124683765701411L-2.9967581703553776,-4.124683765701413Z" transform="translate(604.697092084006,688.6822101688813)rotate(24.667631804149448)" fill="white" class="commune"><title>23008 Population : 3400</title></path><path d="M0,-15.873247654971056L3.5637661381291506,-4.905103281308338L15.096355617026989,-4.905103281308339L5.766294739448918,1.873582735131148L9.330060877578072,12.841727108793865L8.881784197001252e-16,6.063041092354379L-9.330060877578068,12.841727108793867L-5.766294739448918,1.8735827351311491L-15.09635561702699,-4.905103281308335L-3.563766138129152,-4.905103281308337Z" transform="translate(389.0468497576733,465.3552510174195)rotate(4.640114446846852)" fill="white" class="commune"><title>23096 Population : 13275</title></path></g><text class="text" y="40" x="427.5" text-anchor="middle" font-size="36" font-family="Helvetica" fill="#6baed6">23 - CREUSE</text><line x1="590.3204092622506" y1="673.7937462254505" x2="403.4235325794288" y2="480.2437149608503" stroke="yellow" opacity="0.35" stroke-width="2"/><line x1="403.4235325794288" y1="480.2437149608503" x2="590.3204092622506" y2="673.7937462254505" stroke="yellow" opacity="0.35" stroke-width="2"/></svg>