<svg viewBox="0,0,955,1146" width="955" height="1146" style="width: 100%; height: auto;" xmlns="http://www.w3.org/2000/svg" xmlns:xlink="http://www.w3.org/1999/xlink"><rect width="955" height="1146" fill="black"/><g stroke="#000" stroke-opacity="0.2"><path d="M0,-15.873247654971056L3.5637661381291506,-4.905103281308338L15.096355617026989,-4.905103281308339L5.766294739448918,1.873582735131148L9.330060877578072,12.841727108793865L8.881784197001252e-16,6.063041092354379L-9.330060877578068,12.841727108793867L-5.766294739448918,1.8735827351311491L-15.09635561702699,-4.905103281308335L-3.563766138129152,-4.905103281308337Z" transform="translate(574.1835552982047,426.35139351018006)rotate(26.025066340093815)" fill="white" class="commune"><title>03190 Population : 19613</title></path><path d="M0,-18.876579049491834L4.238056047668955,-5.833183721955068L17.952693510379785,-5.833183721955069L6.857318731355415,2.2280779191642193L11.095374779024372,15.271473246700983L8.881784197001252e-16,7.210211605581696L-11.095374779024368,15.271473246700985L-6.857318731355414,2.2280779191642206L-17.952693510379788,-5.833183721955065L-4.238056047668956,-5.833183721955068Z" transform="translate(625.0144759698896,754.2988757237217)rotate(20.07180369723068)" fill="white" class="commune"><title>03310 Population : 24383</title></path><path d="M0,-18.876579049491834L4.238056047668955,-5.833183721955068L17.952693510379785,-5.833183721955069L6.857318731355415,2.2280779191642193L11.095374779024372,15.271473246700983L8.881784197001252e-16,7.210211605581696L-11.095374779024368,15.271473246700985L-6.857318731355414,2.2280779191642206L-17.952693510379788,-5.833183721955065L-4.238056047668956,-5.833183721955068Z" transform="translate(195.30978575564563,595.9626774427452)rotate(22.867982417307992)" fill="white" class="commune"><title>03185 Population : 36147</title></path></g><text class="text" y="40" x="427.5" text-anchor="middle" font-size="36" font-family="Helvetica" fill="#6baed6">03 - ALLIER</text><line x1="220.5680370584829" y1="584.6552585139075" x2="548.9253039953675" y2="437.6588124390177" stroke="yellow" opacity="0.35" stroke-width="2"/><line x1="577.5722833429837" y1="448.2145589910828" x2="621.6257479251107" y2="732.4357102428189" stroke="yellow" opacity="0.35" stroke-width="2"/><line x1="596.3674966222734" y1="743.7431291716566" x2="223.9567651032619" y2="606.5184239948103" stroke="yellow" opacity="0.35" stroke-width="2"/></svg>