<svg viewBox="0,0,954,1144.8" width="954" height="1144.8" style="width: 100%; height: auto;" xmlns="http://www.w3.org/2000/svg" xmlns:xlink="http://www.w3.org/1999/xlink"><rect width="954" height="1144.8" fill="black"/><g stroke="#000" stroke-opacity="0.2"><path d="M0,-15.873247654971056L3.5637661381291506,-4.905103281308338L15.096355617026989,-4.905103281308339L5.766294739448918,1.873582735131148L9.330060877578072,12.841727108793865L8.881784197001252e-16,6.063041092354379L-9.330060877578068,12.841727108793867L-5.766294739448918,1.8735827351311491L-15.09635561702699,-4.905103281308335L-3.563766138129152,-4.905103281308337Z" transform="translate(632.9689586717195,765.4638457118708)rotate(7.021028158926876)" fill="white" class="commune"><title>insee_com : 84003 
Population : 11425
 Nom : APT</title></path><path d="M0,-18.876579049491834L4.238056047668955,-5.833183721955068L17.952693510379785,-5.833183721955069L6.857318731355415,2.2280779191642193L11.095374779024372,15.271473246700983L8.881784197001252e-16,7.210211605581696L-11.095374779024368,15.271473246700985L-6.857318731355414,2.2280779191642206L-17.952693510379788,-5.833183721955065L-4.238056047668956,-5.833183721955068Z" transform="translate(351.05017144919657,561.9130295452633)rotate(8.123009545698253)" fill="white" class="commune"><title>insee_com : 84031 
Population : 28309
 Nom : CARPENTRAS</title></path><path d="M0,-26.69551410299918L5.993516340710753,-8.249367531402827L25.38894264350654,-8.249367531402829L9.697713151397894,3.150978011306063L15.69122949210865,21.597124582902413L1.7763568394002505e-15,10.196779040193524L-15.691229492108645,21.597124582902417L-9.697713151397892,3.1509780113060657L-25.388942643506542,-8.249367531402822L-5.993516340710755,-8.249367531402825Z" transform="translate(152.41815556758638,682.4631286859512)rotate(20.786921177741526)" fill="white" class="commune"><title>insee_com : 84007 
Population : 91921
 Nom : AVIGNON</title></path></g><text class="text" y="40" x="427" text-anchor="middle" font-size="36" font-family="Helvetica" fill="#6baed6">84  - VAUCLUSE</text><line x1="600.9322384647774" y1="759.9304645768095" x2="184.4548757745286" y2="687.9965098210125" stroke="yellow" opacity="0.35" stroke-width="2"/><line x1="165.66028995969373" y1="674.4264554099053" x2="337.8080370570892" y2="569.9497028213092" stroke="yellow" opacity="0.35" stroke-width="2"/><line x1="369.84475726403144" y1="575.4830839563705" x2="614.1743728568847" y2="751.8937913007636" stroke="yellow" opacity="0.35" stroke-width="2"/></svg>