<svg viewBox="0,0,955,1146" width="955" height="1146" style="width: 100%; height: auto;" xmlns="http://www.w3.org/2000/svg" xmlns:xlink="http://www.w3.org/1999/xlink"><rect width="955" height="1146" fill="black"/><g stroke="#000" stroke-opacity="0.2"><path d="M0,-13.34775705149959L2.9967581703553763,-4.1246837657014135L12.69447132175327,-4.124683765701414L4.848856575698947,1.5754890056530315L7.845614746054325,10.798562291451207L8.881784197001252e-16,5.098389520096762L-7.845614746054323,10.798562291451208L-4.848856575698946,1.5754890056530328L-12.694471321753271,-4.124683765701411L-2.9967581703553776,-4.124683765701413Z" transform="translate(580.2802359882003,859.116260941053)rotate(28.294047401635815)" fill="white" class="commune"><title>48061 Population : 2069</title></path><path d="M0,-15.873247654971056L3.5637661381291506,-4.905103281308338L15.096355617026989,-4.905103281308339L5.766294739448918,1.873582735131148L9.330060877578072,12.841727108793865L8.881784197001252e-16,6.063041092354379L-9.330060877578068,12.841727108793867L-5.766294739448918,1.8735827351311491L-15.09635561702699,-4.905103281308335L-3.563766138129152,-4.905103281308337Z" transform="translate(469.9360865290064,594.9670144565753)rotate(9.540262391823704)" fill="white" class="commune"><title>48095 Population : 11860</title></path></g><text class="text" y="40" x="427.5" text-anchor="middle" font-size="36" font-family="Helvetica" fill="#6baed6">48 - LOZERE</text><line x1="572.9239593575874" y1="841.5063111754212" x2="477.2923631596193" y2="612.5769642222072" stroke="yellow" opacity="0.35" stroke-width="2"/><line x1="477.2923631596193" y1="612.5769642222072" x2="572.9239593575874" y2="841.5063111754212" stroke="yellow" opacity="0.35" stroke-width="2"/></svg>