<svg viewBox="0,0,954,1144.8" width="954" height="1144.8" style="width: 100%; height: auto;" xmlns="http://www.w3.org/2000/svg" xmlns:xlink="http://www.w3.org/1999/xlink"><rect width="954" height="1144.8" fill="black"/><g stroke="#000" stroke-opacity="0.2"><path d="M0,-13.34775705149959L2.9967581703553763,-4.1246837657014135L12.69447132175327,-4.124683765701414L4.848856575698947,1.5754890056530315L7.845614746054325,10.798562291451207L8.881784197001252e-16,5.098389520096762L-7.845614746054323,10.798562291451208L-4.848856575698946,1.5754890056530328L-12.694471321753271,-4.124683765701411L-2.9967581703553776,-4.124683765701413Z" transform="translate(188.262491249993,1100.8178691519279)rotate(6.150523037022072)" fill="white" class="commune"><title>insee_com : 35236 
Population : 9014
 Nom : REDON</title></path><path d="M0,-18.876579049491834L4.238056047668955,-5.833183721955068L17.952693510379785,-5.833183721955069L6.857318731355415,2.2280779191642193L11.095374779024372,15.271473246700983L8.881784197001252e-16,7.210211605581696L-11.095374779024368,15.271473246700985L-6.857318731355414,2.2280779191642206L-17.952693510379788,-5.833183721955065L-4.238056047668956,-5.833183721955068Z" transform="translate(777.0539834667861,399.48160201237624)rotate(8.803844862584668)" fill="white" class="commune"><title>insee_com : 35115 
Population : 20418
 Nom : FOUGERES</title></path><path d="M0,-22.448162112566994L5.039926405668234,-6.936863585267022L21.349470856006818,-6.936863585267023L8.154772225169292,2.649646114250548L13.19469863083753,18.16094464155052L8.881784197001252e-16,8.574434942032948L-13.194698630837525,18.160944641550522L-8.154772225169292,2.649646114250549L-21.34947085600682,-6.936863585267019L-5.0399264056682345,-6.936863585267021Z" transform="translate(229.175899841425,96.30495104058355)rotate(20.02898506915236)" fill="white" class="commune"><title>insee_com : 35288 
Population : 46097
 Nom : SAINT MALO</title></path><path d="M0,-31.746495309942112L7.127532276258301,-9.810206562616676L30.192711234053977,-9.810206562616678L11.532589478897837,3.747165470262296L18.660121755156144,25.68345421758773L1.7763568394002505e-15,12.126082184708759L-18.660121755156137,25.683454217587734L-11.532589478897837,3.7471654702622983L-30.19271123405398,-9.81020656261667L-7.127532276258304,-9.810206562616674Z" transform="translate(458.585618064413,640.6398498171257)rotate(23.039248905161923)" fill="white" class="commune"><title>insee_com : 35238 
Population : 216815
 Nom : RENNES</title></path></g><text class="text" y="40" x="427" text-anchor="middle" font-size="36" font-family="Helvetica" fill="#6baed6">35  - ILLE ET VILAINE</text><line x1="737.8012173189999" y1="446.237353155013" x2="227.5152573977792" y2="1054.062118009291" stroke="yellow" opacity="0.35" stroke-width="2"/><line x1="206.284033037621" y1="1070.1393345296078" x2="440.564076276785" y2="671.3183844394458" stroke="yellow" opacity="0.35" stroke-width="2"/><line x1="443.2916368495471" y1="604.3508565653561" x2="244.46988105629086" y2="132.59394429235303" stroke="yellow" opacity="0.35" stroke-width="2"/><line x1="265.7011054164491" y1="116.51672777203639" x2="740.528777891762" y2="379.2698252809234" stroke="yellow" opacity="0.35" stroke-width="2"/></svg>