<svg viewBox="0,0,955,1146" width="955" height="1146" style="width: 100%; height: auto;" xmlns="http://www.w3.org/2000/svg" xmlns:xlink="http://www.w3.org/1999/xlink"><rect width="955" height="1146" fill="black"/><g stroke="#000" stroke-opacity="0.2"><path d="M0,-13.34775705149959L2.9967581703553763,-4.1246837657014135L12.69447132175327,-4.124683765701414L4.848856575698947,1.5754890056530315L7.845614746054325,10.798562291451207L8.881784197001252e-16,5.098389520096762L-7.845614746054323,10.798562291451208L-4.848856575698946,1.5754890056530328L-12.694471321753271,-4.124683765701411L-2.9967581703553776,-4.124683765701413Z" transform="translate(725.4384531590415,615.4843741256227)rotate(4.499533913689085)" fill="white" class="commune"><title>61293 Population : 3873</title></path><path d="M0,-15.873247654971056L3.5637661381291506,-4.905103281308338L15.096355617026989,-4.905103281308339L5.766294739448918,1.873582735131148L9.330060877578072,12.841727108793865L8.881784197001252e-16,6.063041092354379L-9.330060877578068,12.841727108793867L-5.766294739448918,1.8735827351311491L-15.09635561702699,-4.905103281308335L-3.563766138129152,-4.905103281308337Z" transform="translate(442.50272331154684,458.12925887842357)rotate(19.830159792409475)" fill="white" class="commune"><title>61006 Population : 13866</title></path><path d="M0,-18.876579049491834L4.238056047668955,-5.833183721955068L17.952693510379785,-5.833183721955069L6.857318731355415,2.2280779191642193L11.095374779024372,15.271473246700983L8.881784197001252e-16,7.210211605581696L-11.095374779024368,15.271473246700985L-6.857318731355414,2.2280779191642206L-17.952693510379788,-5.833183721955065L-4.238056047668956,-5.833183721955068Z" transform="translate(494.25925925925924,681.6603325056603)rotate(26.25670313017926)" fill="white" class="commune"><title>61001 Population : 26129</title></path></g><text class="text" y="40" x="427.5" text-anchor="middle" font-size="36" font-family="Helvetica" fill="#6baed6">61 - ORNE</text><line x1="490.80882352941177" y1="666.7582609305113" x2="445.9531590413943" y2="473.0313304535727" stroke="yellow" opacity="0.35" stroke-width="2"/><line x1="461.3651053013798" y1="468.6195998949035" x2="706.5760711692085" y2="604.9940331091427" stroke="yellow" opacity="0.35" stroke-width="2"/><line x1="710.026506899056" y1="619.8961046842919" x2="509.6712055192447" y2="677.2486019469911" stroke="yellow" opacity="0.35" stroke-width="2"/></svg>