<svg viewBox="0,0,600,600" width="600" height="600" style="width: 100%; height: auto;" xmlns="http://www.w3.org/2000/svg" xmlns:xlink="http://www.w3.org/1999/xlink"><rect width="752" height="902.4" fill="black"/><path d="M184.02470992371605,295.41525231855485L183.71461556522343,294.96023943919863L183.4045212067307,294.0501880963202L181.8540494142669,293.59514963189577L179.68338890481778,293.14010263819364L178.132917112354,293.14010263819364L177.82282275386137,293.14010263819364L177.20263403687602,293.59514963189577L177.20263403687602,293.14010263819364L177.20263403687602,291.77491047688454L177.51272839536864,290.4096415356107L178.132917112354,289.4994195797808L179.37329454632504,287.223715347729L179.37329454632504,286.76854889606693L179.68338890481778,286.313373908255L179.68338890481778,286.313373908255L180.30357762180324,283.12690994284276L180.9237663387887,282.2164148154916L181.8540494142669,281.30588552517656L181.8540494142669,281.30588552517656L182.4742381312525,281.30588552517656L183.09442684823784,281.30588552517656L183.4045212067307,281.30588552517656L183.71461556522343,281.30588552517656L184.64489864070163,279.9400275261105L184.64489864070163,279.9400275261105L184.64489864070163,279.9400275261105L184.95499299919436,276.75272650056286L184.64489864070163,276.29736360128663L184.64489864070163,274.93122362136273L184.3348042822089,273.56500670861715L184.02470992371605,272.65415268686775L183.09442684823784,271.28780752517923L183.71461556522343,268.0993694811914L184.02470992371605,267.64384411578067L184.02470992371605,266.7327677181311L184.02470992371605,266.2772166849936L184.02470992371605,265.8216570950135L184.02470992371605,265.3660889477469L182.7843324897451,263.9993331576261L182.4742381312525,263.9993331576261L182.16414377275976,263.9993331576261L181.8540494142669,263.9993331576261L181.8540494142669,263.9993331576261L180.9237663387887,264.4549269795134L180.30357762180324,264.91051224273906L179.9934832633105,264.91051224273906L179.68338890481778,264.91051224273906L178.75310582933957,264.91051224273906L177.82282275386137,264.91051224273906L177.51272839536864,264.91051224273906L175.96225660290497,264.91051224273906L175.65216224441212,265.8216570950135L175.96225660290497,266.7327677181311L176.2723509613977,268.0993694811914L175.3420678859195,269.46589424935155L173.4815017349631,269.46589424935155L172.24112430099217,269.46589424935155L170.38055815003565,269.9213853975634L169.14018071606472,269.9213853975634L168.51999199907925,269.9213853975634L168.51999199907925,269.0103945475166L168.51999199907925,268.0993694811914L168.51999199907925,268.0993694811914L168.830086357572,266.2772166849936L169.45027507455745,264.4549269795134L169.7603694330502,263.5437307765933L170.38055815003565,262.6325003353086L170.38055815003565,261.7212356519776L168.20989764058652,260.8099367229006L167.58970892360105,260.8099367229006L167.58970892360105,260.8099367229006L167.27961456510832,260.3542744150691L167.27961456510832,259.8986035444141L167.27961456510832,258.53153955097514L167.27961456510832,256.2529282625801L167.27961456510832,255.7971803058681L166.65942584812285,254.8856586896909L166.34933148963012,254.8856586896909L165.10895405565918,255.7971803058681L162.93829354621005,256.2529282625801L160.45753867826807,257.62012073281585L159.8373499612826,258.0758344244532L159.21716124429713,258.0758344244532L158.28687816881882,257.62012073281585L157.9767838103262,257.62012073281585L157.9767838103262,256.70866765234314L157.9767838103262,256.2529282625801L157.9767838103262,255.7971803058681L157.66668945183335,255.7971803058681L157.04650073484788,255.7971803058681L156.42631201786241,255.7971803058681L155.80612330087695,256.2529282625801L155.18593458389148,256.70866765234314L153.32536843293508,258.53153955097514L151.46480228197868,259.442924110499L151.15470792348594,259.442924110499L151.15470792348594,259.8986035444141L149.60423613102228,260.8099367229006L148.36385869705123,262.17687227412534L148.0537643385585,262.17687227412534L146.81338690458767,263.0881198359748L145.2629151121239,263.9993331576261L144.64272639513842,263.9993331576261L144.64272639513842,264.4549269795134L144.3326320366457,265.3660889477469L143.71244331966022,266.2772166849936L143.09225460267476,265.3660889477469L142.16197152719644,264.91051224273906L141.23168845171836,263.9993331576261L141.23168845171836,263.9993331576261L138.75093358377637,263.5437307765933L137.2004617913127,263.9993331576261L136.2701787158345,264.4549269795134L135.3398956403563,264.91051224273906L134.09951820638537,265.3660889477469L132.85914077241432,264.91051224273906L132.85914077241432,264.91051224273906L131.92885769693612,265.8216570950135L131.92885769693612,265.8216570950135L131.30866897995065,266.2772166849936L131.30866897995065,266.7327677181311L129.75819718748699,265.8216570950135L125.72697052708145,264.4549269795134L124.48659309311051,263.5437307765933L120.7654607911976,263.0881198359748L120.14527207421213,262.17687227412534L118.9048946402412,261.2655904683852L117.66451720627015,259.442924110499L116.42413977229921,258.9872361128291L114.87366797983566,257.62012073281585L113.63329054586461,257.16439847560105L112.39291311189368,257.16439847560105L110.22225260244454,257.16439847560105L109.60206388545907,257.62012073281585L108.67178080998076,257.16439847560105L108.36168645148814,257.16439847560105L108.36168645148814,257.16439847560105L108.05159209299529,257.62012073281585L105.57083722505354,258.0758344244532L103.71027107409702,257.62012073281585L103.09008235711156,256.70866765234314L100.9194218476623,254.8856586896909L99.67904441369137,253.97410280015902L99.67904441369137,253.97410280015902L98.43866697972044,253.51831200171L97.81847826273497,253.06251263353624L97.50838390424235,253.06251263353624L97.81847826273497,252.606704695183L99.67904441369137,250.78338723061825L100.9194218476623,248.95993260614705L102.46989364012609,247.59225160882852L104.3304597910826,246.22449342998152L106.81121465902436,244.4006957765123L108.05159209299529,243.03275745898281L108.67178080998076,241.66474191837187L108.67178080998076,239.3845443766695L108.98187516847361,238.0163228468955L108.98187516847361,238.47240527496615L108.98187516847361,238.47240527496615L108.98187516847361,238.0163228468955L109.60206388545907,237.10413223403884L109.91215824395181,237.10413223403884L109.91215824395181,236.6480240483179L110.22225260244454,236.19190727579553L110.84244131943001,235.73578191600245L111.15253567792274,235.2796479684439L112.70300747038641,233.4550262917146L115.18376233832828,232.54266391492274L116.1140454138066,232.54266391492274L118.59480028174846,231.6302671742451L118.59480028174846,231.17405591628267L118.28470592325561,230.26160762283325L118.28470592325561,230.26160762283325L117.974611564763,227.98033649863646L117.66451720627015,225.69885048448123L117.04432848928468,222.96078353126723L117.04432848928468,222.0480257462732L117.04432848928468,221.59163395157157L117.66451720627015,219.30954593763454L117.974611564763,217.9401898801916L117.974611564763,217.48372065008152L118.28470592325561,216.57075637065282L118.28470592325561,216.1142613203956L117.974611564763,215.6577576625059L117.66451720627015,214.74472452193368L117.66451720627015,214.28819503832347L117.35442284777753,213.83165694521085L117.66451720627015,213.37511024215564L117.66451720627015,212.4619910042711L121.07555514969044,213.37511024215564L121.07555514969044,212.9185549286558L121.38564950818306,212.0054184685432L121.38564950818306,212.0054184685432L121.69574386667591,211.54883732098824L122.93612130064673,212.4619910042711L123.5563100176322,212.9185549286558L124.17649873461767,213.37511024215564L126.34715924406692,215.6577576625059L126.65725360255965,216.1142613203956L127.27744231954512,217.02724281371775L127.58753667803785,217.48372065008152L127.58753667803785,217.9401898801916L127.58753667803785,218.39665050450276L127.89763103653058,218.85310252349882L127.89763103653058,219.30954593763454L130.99857462145792,217.48372065008152L134.71970692337084,215.6577576625059L136.2701787158345,215.20124539649987L137.51055614980544,214.74472452193368L138.44083922528353,212.9185549286558L139.0610279422691,212.0054184685432L139.68121665925457,209.72242660332995L140.9215940932255,207.43921938468702L140.9215940932255,206.98255209343552L141.23168845171836,206.52587618527104L141.54178281021098,205.1557967545814L139.37112230076184,201.50187234569603L137.2004617913127,201.04509299823985L135.64998999884904,200.5883050278062L134.09951820638537,199.21788937410747L134.71970692337084,197.3905477528715L135.02980128186357,196.47682518402507L135.02980128186357,196.47682518402507L135.64998999884904,196.47682518402507L138.44083922528353,195.5630681047478L138.44083922528353,195.5630681047478L140.30140537624004,194.19236777061815L142.7821602441819,192.82158976707797L143.40234896116738,191.9076946088353L143.71244331966022,190.53678712834517L143.09225460267476,189.16580194493872L144.02253767815296,187.79473904603947L144.64272639513842,186.88065393196666L146.1931981876022,185.05238005150022L147.43357562157303,183.68108393070725L148.0537643385585,182.30971004414823L149.9143304895149,180.48109053796725L150.22442484800774,180.48109053796725L150.53451920650048,180.93825837920667L151.46480228197868,182.30971004414823L152.39508535745688,182.76684331442812L153.94555714992055,182.76684331442812L155.80612330087695,184.13819127766328L156.1162176593698,184.59528998444512L156.73640637635526,185.05238005150022L157.66668945183335,185.50946147932336L159.8373499612826,186.88065393196666L160.14744431977533,186.88065393196666L162.00801047073173,187.79473904603947L162.6281991877172,188.25176864815876L163.24838790470267,189.16580194493872L164.4887653386736,190.07980070148187L165.10895405565918,190.53678712834517L165.72914277264465,190.99376492153897L166.96952020661558,191.9076946088353L166.96952020661558,192.36464650384733L168.20989764058652,191.9076946088353L169.7603694330502,190.99376492153897L170.07046379154292,190.07980070148187L172.24112430099217,190.07980070148187L174.4117848104412,190.99376492153897L175.3420678859195,191.9076946088353L175.65216224441212,190.99376492153897L175.65216224441212,190.53678712834517L176.58244531989044,190.07980070148187L176.89253967838306,189.62280564049797L177.82282275386137,189.62280564049797L178.75310582933957,188.70878961430935L179.9934832633105,188.25176864815876L182.7843324897451,186.42359841908547L184.02470992371605,185.9665342683693L184.3348042822089,185.50946147932336L187.43574786713634,184.13819127766328L189.29631401809263,183.22396794312226L190.53669145206356,183.22396794312226L192.08716324452735,182.76684331442812L194.87801247096195,182.76684331442812L196.73857862191835,182.76684331442812L197.35876733890393,182.76684331442812L198.28905041438213,182.76684331442812L199.21933348986022,182.30971004414823L199.52942784835307,182.30971004414823L200.14961656533842,182.30971004414823L201.7000883578022,183.22396794312226L202.01018271629493,185.50946147932336L202.94046579177302,185.50946147932336L203.56065450875872,185.50946147932336L206.04140937670047,185.05238005150022L206.97169245217867,184.59528998444512L208.8322586031352,184.59528998444512L208.8322586031352,184.59528998444512L209.1423529616278,184.59528998444512L209.7625416786134,184.13819127766328L210.38273039559886,183.22396794312226L210.6928247540916,182.76684331442812L210.38273039559886,181.39541757700863L210.07263603710612,180.02391405283197L210.38273039559886,179.566728923317L211.9332021880624,177.737901952245L212.24329654655526,177.737901952245L213.4836739805263,177.28067359388297L215.03414577298986,176.8234365883618L216.2745232069608,175.9089366339249L216.2745232069608,175.9089366339249L215.65433448997533,174.53712183687458L215.3442401314826,173.16522919010458L214.4139570560044,170.4212102970596L214.10386269751166,168.5916912912362L213.4836739805263,168.13428990086686L212.24329654655526,167.6768798539997L211.00291911258432,167.6768798539997L208.8322586031352,166.30459776968928L208.52216424464245,165.3896997557349L208.52216424464245,163.55979981245764L207.28178681067152,161.27223000345475L206.04140937670047,160.81469005299004L204.49093758423692,160.81469005299004L204.49093758423692,160.35714143855512L205.421220659715,159.89958415966612L206.66159809368594,157.15405850682873L206.97169245217867,155.7811786725215L206.66159809368594,155.32353472345858L205.73131501820785,153.03518492496733L205.421220659715,151.6620709864619L205.11112630122227,150.28887898793982L204.80103194272954,149.37337428269893L204.49093758423692,148.45783487473454L203.56065450875872,146.62665193574867L203.56065450875872,146.16883450594833L202.94046579177302,145.25317360903864L202.94046579177302,143.87961716331483L201.07989964081673,144.33747799256525L199.52942784835307,144.79533014097615L198.28905041438213,145.25317360903864L197.66886169739655,145.25317360903864L197.66886169739655,145.25317360903864L197.66886169739655,144.79533014097615L197.97895605588928,142.50598258591708L198.90923913136749,137.46865380440795L199.52942784835307,133.34642110375717L200.769805282324,131.97218709623849L200.769805282324,131.51409170738407L201.7000883578022,130.13975337512966L203.87074886725134,125.55806033058252L203.25056015026598,120.05888022656654L203.87074886725134,120.97549727906517L205.421220659715,122.35035757321748L206.66159809368594,123.72513953713496L208.2120698861496,125.55806033058252L209.7625416786134,127.39084192291557L210.07263603710612,127.39084192291557L210.07263603710612,127.39084192291557L210.38273039559886,127.39084192291557L211.6231078295698,126.47446852501162L212.24329654655526,125.55806033058252L213.79376833901892,124.18338278724332L214.72405141449724,123.26688758507225L215.96442884846817,122.35035757321748L217.2048062824391,120.97549727906517L218.75527807490278,119.60055864197784L220.9259385843519,117.7671852371277L223.4066934522939,115.0168638785326L226.1975426787285,112.72468986795866L226.1975426787285,112.72468986795866L226.81773139571396,114.55844650008294L227.74801447119216,117.7671852371277L228.36820318817774,118.68388935379699L228.67829754667036,120.05888022656654L229.29848626365572,122.35035757321748L229.9186749806413,123.72513953713496L231.15905241461223,127.39084192291557L231.15905241461223,127.8490155743566L233.01961856556863,127.8490155743566L235.19027907501788,126.93265957330368L236.4306565089887,126.47446852501162L238.29122265994522,126.47446852501162L238.9114113769307,126.47446852501162L239.22150573542342,126.47446852501162L240.46188316939435,125.55806033058252L241.39216624487256,124.64161733588116L242.01235496185814,124.18338278724332L242.94263803733634,123.72513953713496L243.25273239582907,123.26688758507225L243.56282675432192,120.51719310544286L243.87292111281454,117.30882011692665L243.87292111281454,115.93367250326628L243.87292111281454,113.64158560861324L244.49310982980012,111.34928090649191L243.56282675432192,109.05675833803616L243.25273239582907,108.13968829489386L242.6325436788436,106.76401784436166L242.01235496185814,106.76401784436166L242.01235496185814,106.76401784436166L241.39216624487256,106.3054435894228L241.7022606033654,104.92966850369339L243.56282675432192,103.09517962300743L243.87292111281454,102.63653559618615L243.87292111281454,101.71922137122601L242.94263803733634,100.34318459849601L242.6325436788436,99.88448822294595L242.32244932035087,99.42578312096884L241.39216624487256,98.9670692920663L241.08207188637994,98.5083467357872L241.08207188637994,97.59087543922215L242.32244932035087,95.7558280967205L242.6325436788436,95.29704443555966L242.6325436788436,94.37945091931397L242.6325436788436,93.9206410632687L242.6325436788436,92.0853143086606L242.6325436788436,91.16759852647738L242.94263803733634,90.7087275325066L243.87292111281454,88.87315619313085L244.49310982980012,87.95531809872045L244.18301547130716,87.95531809872045L243.87292111281454,87.95531809872045L242.01235496185814,86.57849541556061L240.7719775278872,86.11953704153711L240.46188316939435,85.66056992692029L240.15178881090162,85.66056992692029L239.53160009391627,85.66056992692029L238.29122265994522,85.66056992692029L237.9811283014525,85.66056992692029L235.50037343351062,86.11953704153711L235.19027907501788,86.57849541556061L234.88018471652515,86.57849541556061L233.01961856556863,87.95531809872045L231.15905241461223,88.87315619313085L230.8489580561196,89.33206213344238L230.53886369762677,89.33206213344238L229.60858062214868,89.79095933646386L228.9883919051631,90.24984780266823L228.36820318817774,89.79095933646386L229.9186749806413,87.49638594367207L230.22876933913403,85.20159407121537L230.22876933913403,84.74260947396033L230.8489580561196,83.82461405291906L232.70952420707602,81.07041794342513L233.32971292406148,79.69320182666706L233.63980728255422,78.31590698487707L233.94990164104695,75.56108107509499L234.25999599953957,74.18354998154973L233.01961856556863,71.88748976118222L231.7792411315977,70.50974856944958L231.46914677310508,70.05048399277803L230.8489580561196,67.75402974240933L230.22876933913403,66.37605208150853L229.60858062214868,64.53862587796903L228.67829754667036,62.24164595566981L228.36820318817774,61.78222367741546L222.16631601832285,61.78222367741546L219.37546679188813,61.78222367741546L216.89471192394626,60.8633528233222L216.2745232069608,60.8633528233222L215.3442401314826,60.8633528233222L213.4836739805263,60.40390424652651L212.553390905048,60.40390424652651L211.31301347107717,60.8633528233222L208.8322586031352,60.8633528233222L207.28178681067152,59.94444690262026L206.04140937670047,57.6470286595104L206.04140937670047,57.6470286595104L205.73131501820785,57.187518702852685L205.73131501820785,56.727999975755665L206.04140937670047,56.26847247772821L206.35150373519332,55.808936208293744L206.35150373519332,55.34939116700116L206.97169245217867,54.43027476687712L206.97169245217867,53.97070340709615L207.28178681067152,53.511123273550766L207.28178681067152,53.05153436574983L207.28178681067152,53.05153436574983L207.28178681067152,52.13233022550048L206.97169245217867,50.75345819637732L206.35150373519332,49.834166292243026L205.421220659715,47.99547714358414L204.80103194272954,47.07607989144162L204.80103194272954,46.15664751568693L204.80103194272954,46.15664751568693L206.97169245217867,45.23718001250381L207.59188116916425,44.77743308695426L208.52216424464245,44.31767737811242L209.45244732012065,43.85791288552355L209.45244732012065,43.39813960869287L209.7625416786134,43.39813960869287L210.07263603710612,43.39813960869287L210.38273039559886,43.39813960869287L210.38273039559886,43.39813960869287L211.31301347107717,42.93835754716201L211.6231078295698,42.93835754716201L211.9332021880624,41.09914144441427L212.24329654655526,40.63931545220839L212.553390905048,40.63931545220839L214.10386269751166,38.79992360295728L215.3442401314826,37.88017494343512L216.2745232069608,37.88017494343512L217.51490064093184,37.88017494343512L218.44518371641016,37.88017494343512L219.0653724333954,37.88017494343512L219.6855611503811,37.42028742827824L219.9956555088737,37.42028742827824L220.30574986736633,37.42028742827824L223.4066934522939,36.50048602481547L224.64707088626483,36.04057213555643L226.81773139571396,35.58064945395745L229.29848626365572,34.66077771190248L230.53886369762677,34.66077771190248L233.01961856556863,33.28090414446706L233.94990164104695,32.820928698922216L233.94990164104695,32.820928698922216L235.19027907501788,31.90095142039354L236.12056215049608,30.52091952682167L236.12056215049608,30.52091952682167L236.4306565089887,30.52091952682167L237.9811283014525,29.600854275009624L239.53160009391627,29.140808450862096L240.15178881090162,29.140808450862096L241.08207188637994,29.140808450862096L241.08207188637994,29.140808450862096L241.39216624487256,29.140808450862096L241.7022606033654,28.680753827226L242.01235496185814,28.680753827226L242.32244932035087,28.680753827226L242.94263803733634,28.680753827226L245.73348726377094,28.220690403646586L245.73348726377094,28.220690403646586L247.59405341472745,27.300537154744234L247.90414777322007,27.300537154744234L251.31518571664026,26.380348700327886L252.24546879211846,25.92024126985052L254.41612930156748,25.460125036574027L254.72622366006044,25.460125036574027L255.65650673553853,25L256.58678981101684,25L257.2069785280023,25L257.2069785280023,25L257.2069785280023,25.460125036574027L257.51707288649493,25.92024126985052L257.8271672449878,27.300537154744234L259.0675446789587,28.220690403646586L259.6877333959443,28.680753827226L260.30792211292953,28.680753827226L260.9281108299151,29.140808450862096L261.54829954690047,29.140808450862096L262.7886769808715,30.060891300174262L263.408865697857,30.52091952682167L265.5795262073061,32.36094445773051L265.88962056579896,32.820928698922216L266.1997149242917,32.820928698922216L267.44009235826263,34.20082865047516L268.37037543374083,34.66077771190248L268.37037543374083,34.66077771190248L268.9905641507263,35.12071797957469L268.9905641507263,35.12071797957469L271.7814133771609,35.58064945395745L273.6419795281174,36.04057213555643L274.26216824510277,36.50048602481547L274.88235696208835,36.96039112224025L275.5025456790737,37.42028742827824L276.1227343960593,38.34005366817655L276.4328287545519,39.25978474828298L277.0530174715375,40.179480672428326L277.67320618852295,41.09914144441427L279.2236779809866,42.47856670043984L279.53377233947936,42.47856670043984L281.08424413194314,42.93835754716201L283.2549046413923,44.77743308695426L285.735659509334,42.01876706805342L285.735659509334,42.01876706805342L286.0457538678269,42.01876706805342L287.2861313017978,42.47856670043984L287.9063200187833,42.47856670043984L290.38707488672515,42.01876706805342L290.38707488672515,41.558958649544365L290.6971692452179,40.179480672428326L291.31735796220346,39.71963710460841L292.5577353961743,38.34005366817655L295.03849026411626,37.42028742827824L296.2788676980872,36.96039112224025L298.7596225660292,36.04057213555643L300.0000000000001,35.58064945395745L300.62018871698547,35.12071797957469L301.24037743397105,34.66077771190248L302.480754867942,34.20082865047516L302.7908492264346,33.7408707948307L303.10094358492745,33.7408707948307L303.4110379434202,33.7408707948307L303.7211323019129,34.20082865047516L304.96150973588396,34.66077771190248L307.1321702453331,35.58064945395745L307.44226460382583,37.42028742827824L308.0624533208113,39.71963710460841L308.9927363962895,41.09914144441427L309.9230194717677,42.01876706805342L311.783585622724,44.31767737811242L313.3340574151879,46.15664751568693L314.88452920765155,47.535782907736575L317.0551897171008,48.91483927592708L318.9157558680571,50.29381663309687L319.8460389435354,51.21309098254278L319.8460389435354,52.59193668322041L319.8460389435354,52.59193668322041L319.8460389435354,53.05153436574983L321.7066050944917,53.05153436574983L322.3267938114773,53.05153436574983L325.1176430379119,53.05153436574983L325.73783175489723,53.05153436574983L326.3580204718828,52.59193668322041L326.66811483037543,52.13233022550048L328.52868098133195,51.21309098254278L329.1488696983174,50.75345819637732L329.45896405681015,50.75345819637732L329.7690584153029,51.67271499209528L337.2113230191287,49.834166292243026L337.52141737762133,49.834166292243026L338.76179481159227,50.29381663309687L342.17283275501245,51.21309098254278L342.7930214719978,51.67271499209528L343.4132101889834,52.59193668322041L343.4132101889834,52.59193668322041L343.7233045474761,52.59193668322041L344.03339890596885,53.05153436574983L344.03339890596885,53.511123273550766L344.3434932644616,54.43027476687712L344.6535876229543,55.34939116700116L344.6535876229543,55.808936208293744L344.96368198144705,56.26847247772821L344.96368198144705,56.727999975755665L345.2737763399398,56.727999975755665L345.5838706984325,57.187518702852685L345.89396505692525,57.187518702852685L346.5141537739107,57.187518702852685L347.75453120788166,57.6470286595104L348.68481428335997,57.6470286595104L349.9251917173308,57.6470286595104L351.16556915130184,57.6470286595104L351.4756635097946,57.6470286595104L352.09585222678015,57.6470286595104L352.4059465852728,58.106529846187186L352.7160409437655,58.56602226335235L353.3362296607511,59.48498079109777L354.576607094722,60.8633528233222L355.5068901702001,61.78222367741546L355.81698452869296,61.78222367741546L356.1270788871857,62.24164595566981L356.74726760417104,63.619860200949915L357.987645038142,64.53862587796903L358.60783375512756,64.99799557195001L358.60783375512756,65.45735650356073L358.9179281136202,65.45735650356073L358.9179281136202,66.37605208150853L358.9179281136202,66.37605208150853L358.60783375512756,67.29471261562503L358.60783375512756,68.2133381096719L357.987645038142,69.59121065894578L357.67755067964924,70.96900438941884L357.3674563211566,71.88748976118222L357.3674563211566,71.88748976118222L358.2977393966348,73.26515215542531L360.46839990608396,73.7243554451743L362.9491547740258,74.18354998154973L363.87943784950403,75.56108107509499L365.4299096419677,76.93853340528221L366.67028707593863,76.93853340528221L367.91066450990957,77.3976666812523L369.46113630237335,78.31590698487707L370.39141937785155,79.23411229392514L371.011608094837,79.69320182666706L371.011608094837,80.15228261217271L371.011608094837,81.5294724900923L371.011608094837,83.36560322817968L371.011608094837,84.74260947396033L371.32170245332986,86.11953704153711L371.32170245332986,86.57849541556061L371.32170245332986,86.57849541556061L371.011608094837,87.49638594367207L371.32170245332986,88.41424151503816L371.9418911703152,89.33206213344238L372.8721742457934,90.7087275325066L374.11255167976435,91.16759852647738L375.04283475524255,91.16759852647738L375.97311783072087,91.16759852647738L376.59330654770633,91.16759852647738L377.52358962318453,91.62646078504622L377.83368398167727,91.62646078504622L378.76396705715547,92.0853143086606L380.0043444911264,92.0853143086606L380.62453320811187,92.0853143086606L382.17500500057577,91.62646078504622L382.4850993590684,91.16759852647738L383.7254767930393,90.24984780266823L384.03557115153194,89.79095933646386L384.96585422701025,89.79095933646386L385.5860429439957,89.33206213344238L386.2062316609813,89.33206213344238L386.5163260194739,89.33206213344238L387.75670345344486,89.33206213344238L388.68698652892317,88.87315619313085L389.6172696044014,88.41424151503816L390.8576470383723,87.0374450494528L393.0283075478213,84.74260947396033L393.0283075478213,84.74260947396033L393.0283075478213,84.74260947396033L392.09802447234324,83.82461405291906L391.4778357553578,82.90658366000571L391.1677413968649,81.98851829143678L392.408118830836,79.69320182666706L392.09802447234324,77.3976666812523L391.4778357553578,74.64273576499909L391.4778357553578,73.7243554451743L392.09802447234324,72.3467193139004L392.7182131893287,71.42825145316965L393.6484962648069,70.50974856944958L393.6484962648069,69.13192856745809L393.0283075478213,67.75402974240933L393.0283075478213,67.75402974240933L393.95859062329964,66.83538672880968L394.5787793402852,66.83538672880968L394.5787793402852,66.83538672880968L395.5090624157633,68.67263771786747L396.1292511327488,70.05048399277803L396.4393454912416,70.96900438941884L398.9201003591834,72.80594011183348L400.1604777931543,73.26515215542531L401.7109495856181,73.26515215542531L402.3311383026037,72.80594011183348L402.6412326610963,72.80594011183348L403.26142137808165,72.80594011183348L404.5017988120527,72.80594011183348L405.432081887531,72.80594011183348L405.74217624602363,73.26515215542531L405.74217624602363,73.7243554451743L406.05227060451637,74.18354998154973L406.3623649630092,74.64273576499909L407.60274239698015,75.56108107509499L409.46330854793655,76.02024060268377L411.0137803404002,76.93853340528221L411.32387469889295,77.85679120761779L411.0137803404002,79.23411229392514L411.0137803404002,80.15228261217271L412.25415777437115,80.61135465094048L412.8743464913566,81.07041794342513L413.80462956683493,81.98851829143678L414.11472392532755,83.36560322817968L413.80462956683493,84.74260947396033L413.4945352083422,85.20159407121537L414.11472392532755,85.66056992692029L414.73491264231313,85.66056992692029L416.90557315176216,86.57849541556061L417.52576186874774,87.0374450494528L417.83585622724047,87.0374450494528L421.5569885291534,86.11953704153711L423.4175546801098,85.66056992692029L423.4175546801098,85.66056992692029L424.03774339709514,84.74260947396033L424.96802647257346,82.90658366000571L425.89830954805166,81.07041794342513L426.5184982650371,80.15228261217271L427.1386869820226,79.69320182666706L428.6891587744864,78.7750140134849L429.9295362084573,77.85679120761779L430.8598192839355,77.85679120761779L431.7901023594136,77.3976666812523L433.03047979338453,77.3976666812523L434.27085722735546,76.93853340528221L435.5112346613265,76.47939137925641L437.68189517077576,76.02024060268377L437.9919895292684,75.56108107509499L438.61217824625396,75.10191279603532L440.1626500387175,76.02024060268377L442.0232161896739,78.31590698487707L442.95349926515223,79.69320182666706L442.95349926515223,80.15228261217271L443.5736879821378,80.61135465094048L443.5736879821378,81.07041794342513L443.88378234063043,81.98851829143678L443.88378234063043,82.44755534792057L444.19387669912317,83.82461405291906L444.19387669912317,84.74260947396033L444.5039710576158,85.66056992692029L444.81406541610875,86.11953704153711L445.12415977460137,87.0374450494528L445.74434849158683,88.41424151503816L445.74434849158683,88.87315619313085L445.74434849158683,89.79095933646386L445.74434849158683,90.7087275325066L445.74434849158683,91.16759852647738L445.74434849158683,91.16759852647738L446.0544428500797,92.54415909783347L446.3645372085723,93.0029951530014L446.67463156706503,93.46182247466277L447.2948202840505,93.9206410632687L448.53519771802155,94.83825204325694L449.1553864350069,95.29704443555966L449.7755751519925,96.21460302719788L450.7058582274707,97.13212669796849L451.0159525859634,97.59087543922215L451.9462356614416,99.88448822294595L452.5664243784272,102.17788284575727L452.8765187369198,103.09517962300743L452.8765187369198,104.01244150774437L452.8765187369198,104.47105936657317L453.18661309541255,104.92966850369339L453.80680181239813,105.84686061464163L454.73708488787634,107.68114019663699L455.6673679633544,109.97379351315612L456.2875566803399,110.89079382400087L456.2875566803399,111.34928090649191L456.59765103883274,111.80775927434661L456.59765103883274,112.72468986795866L456.59765103883274,114.55844650008294L456.2875566803399,115.0168638785326L456.2875566803399,115.47527254610759L456.2875566803399,115.93367250326628L455.97746232184727,115.93367250326628L455.6673679633544,116.85044628819378L454.4269905293834,117.30882011692665L454.4269905293834,117.7671852371277L453.4967074539053,118.68388935379699L453.4967074539053,119.14222835121836L452.8765187369198,119.60055864197784L452.8765187369198,120.51719310544286L452.8765187369198,123.72513953713496L452.8765187369198,124.18338278724332L452.8765187369198,125.55806033058252L452.8765187369198,126.01626877760282L452.5664243784272,126.93265957330368L452.5664243784272,127.39084192291557L452.25633001993435,127.39084192291557L451.6361413029489,128.7653367845378L451.0159525859634,129.68162320759438L450.0856695104852,131.51409170738407L449.7755751519925,131.97218709623849L448.2251033595287,134.2625336475685L447.2948202840505,136.55266292021406L446.98472592555777,137.0106627064779L446.67463156706503,137.92663621446263L446.3645372085723,139.30053132218018L446.0544428500797,140.21641796328186L445.4342541330941,142.0480870286774L445.12415977460137,142.9638694604655L444.5039710576158,143.87961716331483L443.88378234063043,145.25317360903864L443.5736879821378,145.7110083972002L442.95349926515223,147.08446068704507L441.40302747268845,149.37337428269893L440.782838755703,149.83113097292517L440.47274439721025,150.28887898793982L440.47274439721025,150.7466183282304L440.47274439721025,151.20434899425163L440.1626500387175,151.6620709864619L439.54246132173193,152.57748895135956L438.9222726047466,153.03518492496733L438.3020838877612,153.95055085688728L437.9919895292684,154.86588210481932L437.3718008122829,156.23881395244825L437.3718008122829,157.15405850682873L437.3718008122829,157.61166778220286L437.3718008122829,158.06926839032894L437.3718008122829,158.5268603316763L438.3020838877612,160.35714143855512L438.3020838877612,161.72976129041126L438.61217824625396,162.64479787565142L439.54246132173193,165.8471530921306L442.0232161896739,168.5916912912362L442.0232161896739,168.5916912912362L442.33331054816676,168.5916912912362L446.3645372085723,169.9638435280176L449.1553864350069,170.87856841193206L449.46548079349964,170.87856841193206L450.0856695104852,171.33591787309706L450.39576386897784,171.79325868103479L450.7058582274707,172.25059083620363L451.32604694445615,172.70791433906925L451.9462356614416,173.62253538976438L453.80680181239813,175.4516736841033L454.73708488787634,176.36619093519403L456.2875566803399,178.65233272932164L458.1481228312963,180.93825837920667L460.31878334074554,182.76684331442812L462.4894438501947,184.59528998444512L463.7298212841657,185.50946147932336L464.6601043596439,186.42359841908547L465.590387435122,186.88065393196666L466.5206705106002,187.79473904603947L469.6216140955278,189.62280564049797L469.6216140955278,189.62280564049797L469.9317084540205,190.07980070148187L470.55189717100575,190.53678712834517L470.55189717100575,190.99376492153897L471.48218024648406,191.9076946088353L472.10236896346964,192.82158976707797L472.41246332196226,193.7354503999959L472.41246332196226,194.19236777061815L472.41246332196226,194.64927651131075L472.41246332196226,195.5630681047478L472.10236896346964,196.47682518402507L472.10236896346964,196.93369078201795L472.10236896346964,197.8473960970332L471.7922746049768,198.76106690718734L471.48218024648406,199.21788937410747L471.48218024648406,199.67470321621659L471.48218024648406,200.5883050278062L471.7922746049768,201.50187234569603L470.8619915294987,204.2423673743324L470.8619915294987,205.1557967545814L471.17208588799133,207.43921938468702L471.17208588799133,207.8958780594803L471.7922746049768,211.09224756115873L472.10236896346964,211.54883732098824L472.7225576804551,212.9185549286558L473.6528407559333,215.20124539649987L473.6528407559333,215.6577576625059L474.89321818990425,217.02724281371775L475.82350126538256,218.39665050450276L475.82350126538256,218.39665050450276L475.82350126538256,218.39665050450276L476.1335956238752,219.30954593763454L477.0638786993535,221.1352335548072L477.0638786993535,221.59163395157157L477.68406741633896,222.96078353126723L478.61435049181705,226.15516488128924L479.54463356729514,227.98033649863646L480.7850110012662,231.17405591628267L480.7850110012662,231.17405591628267L481.7152940767444,234.36735430833505L482.0253884352371,235.2796479684439L482.33548279372997,237.10413223403884L482.33548279372997,238.92847911807257L482.33548279372997,239.3845443766695L482.6455771522226,239.8406010512408L482.6455771522226,240.29664914222667L482.95567151071543,240.75268865011094L483.5758602277009,241.66474191837187L483.88595458619363,242.12075567969077L483.88595458619363,242.5767608597307L484.19604894468637,243.03275745898281L484.19604894468637,243.03275745898281L483.88595458619363,243.48874547788728L483.88595458619363,243.94472491690613L483.5758602277009,244.4006957765123L483.26576586920805,245.31261175931286L482.95567151071543,246.22449342998152L482.95567151071543,247.1363407922181L482.95567151071543,248.04815384971516L482.95567151071543,248.5040475153255L482.95567151071543,249.41580912261634L483.26576586920805,249.41580912261634L483.5758602277009,249.87167706522087L484.19604894468637,250.78338723061825L484.81623766167195,251.23922945435334L484.81623766167195,251.69506310603902L485.12633202016457,252.1508881861664L485.4364263786573,253.06251263353624L485.7465207371499,253.06251263353624L486.0566150956429,253.51831200171L486.3667094541355,253.97410280015902L486.3667094541355,254.42988502933076L486.6768038126281,256.70866765234314L486.6768038126281,260.8099367229006L486.98689817112097,262.17687227412534L486.98689817112097,263.5437307765933L486.98689817112097,263.9993331576261L486.98689817112097,265.3660889477469L486.98689817112097,266.7327677181311L487.2969925296137,268.0993694811914L487.2969925296137,269.0103945475166L487.2969925296137,269.9213853975634L487.2969925296137,270.8323420350316L487.2969925296137,270.8323420350316L487.2969925296137,271.7432644635701L486.98689817112097,271.7432644635701L485.7465207371499,273.56500670861715L484.81623766167195,275.8419921552995L484.81623766167195,276.29736360128663L484.19604894468637,277.208080853572L484.19604894468637,277.208080853572L483.88595458619363,278.1187639226846L483.5758602277009,279.0294128123023L483.5758602277009,279.48472444095387L483.5758602277009,280.39532206821605L483.5758602277009,280.85060806775437L483.5758602277009,281.7611544409265L483.88595458619363,282.2164148154916L484.19604894468637,283.12690994284276L484.506143303179,283.5821446965456L485.12633202016457,284.4925885863486L485.4364263786573,284.94779772334005L485.7465207371499,285.40299832235905L486.98689817112097,286.313373908255L488.53736996358464,287.223715347729L489.46765303906284,287.6788732636851L491.0181248315266,288.13402264440083L491.638313548512,288.5891634903601L492.878690982483,289.4994195797808L493.4988796994685,289.4994195797808L493.80897405796134,289.9545348241627L494.4291627749466,290.4096415356107L494.4291627749466,290.8647397145651L494.4291627749466,290.8647397145651L494.4291627749466,290.8647397145651L494.73925713343954,290.8647397145651L495.04935149193227,291.3198293615096L496.2897289259031,291.77491047688454L496.90991764288856,292.2299830611446L497.2200120013814,292.2299830611446L497.530106359874,291.77491047688454L497.530106359874,291.77491047688454L499.0805781523378,294.50521803193624L499.3906725108304,295.41525231855485L500.63104994480136,298.6001037314418L500.9411443032943,299.0550484041232L500.9411443032943,299.0550484041232L500.9411443032943,299.5099845530276L501.25123866178694,302.2394224728232L501.25123866178694,304.0588773352101L500.63104994480136,307.2425953905695L500.32095558630874,307.6973781898123L500.32095558630874,307.6973781898123L498.77048379384496,309.97116446905056L498.1502950768595,311.7900402594387L498.1502950768595,312.6994270870273L498.1502950768595,314.06344350419386L497.8402007183669,314.06344350419386L497.8402007183669,314.518098625289L497.8402007183669,314.518098625289L497.530106359874,315.4273833432635L497.2200120013814,318.60961189999944L497.2200120013814,320.8823771652533L497.2200120013814,321.3369047109918L497.2200120013814,322.2459342988368L497.2200120013814,322.2459342988368L497.2200120013814,322.7004363418382L498.46038943535234,324.51835951842077L498.77048379384496,326.33614672418844L499.3906725108304,327.69939791523575L499.7007668693233,328.60818956692674L500.010861227816,329.0625726514445L500.63104994480136,329.5169472423404L501.5613330202797,330.4256709451147L501.8714273787724,330.4256709451147L502.18152173726526,330.88002005790986L502.18152173726526,331.33436067892035L502.4916160957579,332.24301644736624L502.4916160957579,332.24301644736624L502.4916160957579,332.697331595733L502.18152173726526,333.60593642300955L500.9411443032943,335.8772999406938L499.7007668693233,338.148451288911L498.77048379384496,339.5110402801729L498.1502950768595,340.87355292322536L497.8402007183669,341.78185227566064L497.8402007183669,342.2359892303466L497.530106359874,343.5983492138257L497.530106359874,344.05245224963437L497.2200120013814,344.9606328859445L496.90991764288856,345.4147104873555L496.2897289259031,346.3228402589921L495.97963456741047,347.2309361253756L495.04935149193227,348.5930163605881L494.4291627749466,349.95502032946024L494.4291627749466,350.4090047064674L493.4988796994685,353.1327330678323L493.18878534097576,353.5866581488626L493.18878534097576,354.0405747608347L493.18878534097576,354.4944829042288L493.18878534097576,354.9483825794996L493.18878534097576,355.4022737871019L493.4988796994685,355.85615652746856L493.80897405796134,356.31003080107985L494.73925713343954,356.7638966083832L495.6695402089175,358.12544323692055L496.5998232843958,358.5792751835106L496.5998232843958,359.4869136850066L496.5998232843958,359.4869136850066L497.2200120013814,361.75586184183703L497.2200120013814,362.66338187533256L497.2200120013814,363.11712920192076L497.2200120013814,363.11712920192076L497.530106359874,364.0245984770336L498.1502950768595,366.2931236473014L498.77048379384496,368.1077915668575L498.77048379384496,368.1077915668575L498.77048379384496,368.5614374093275L498.77048379384496,369.922324214167L498.46038943535234,370.3759362431083L498.1502950768595,371.2831349446824L497.8402007183669,371.73672161823197L497.8402007183669,374.4580642066576L497.8402007183669,374.4580642066576L498.1502950768595,375.8186214444322L498.77048379384496,377.1791026608771L498.77048379384496,377.63257950817206L499.3906725108304,379.4464024518784L499.0805781523378,379.8998370786794L499.0805781523378,380.35326326275754L498.77048379384496,380.8066810045457L498.46038943535234,381.7134911630601L498.1502950768595,382.16688358068495L497.8402007183669,382.62026755784973L497.530106359874,382.62026755784973L495.6695402089175,383.98036885098554L495.3594458504249,384.43371907074834L494.73925713343954,385.3403941960896L494.73925713343954,385.79371910257396L494.73925713343954,386.2470355721962L495.04935149193227,387.1536432026587L495.6695402089175,388.5134913832153L495.6695402089175,388.5134913832153L495.6695402089175,388.96675724115994L495.97963456741047,389.4200146654257L495.97963456741047,390.32650421465587L495.97963456741047,391.23296003452924L495.97963456741047,391.23296003452924L495.6695402089175,392.1393821286583L494.73925713343954,393.04577050066655L493.4988796994685,394.40528983757395L492.5685966239903,395.311593920047L490.7080304730338,397.1241009601472L490.39793611454104,397.5772066551326L490.39793611454104,398.0303039249957L490.0878417560484,398.4833927702057L489.7777473975557,398.9364731912028L489.7777473975557,399.3895451884273L488.53736996358464,402.10780029811576L487.60708688810644,405.27871479548776L487.60708688810644,405.27871479548776L487.60708688810644,405.7316689074287L486.98689817112097,406.1846146023854L485.4364263786573,405.7316689074287L485.4364263786573,405.7316689074287L484.506143303179,404.37278131880885L484.19604894468637,403.919801953165L483.26576586920805,403.4668141687325L482.95567151071543,403.4668141687325L482.6455771522226,403.4668141687325L480.47491664277345,403.919801953165L478.61435049181705,404.37278131880885L477.68406741633896,404.8257522661006L476.4436899823679,404.8257522661006L475.203312548397,404.8257522661006L474.5831238314115,403.919801953165L474.27302947291867,403.4668141687325L473.96293511442605,403.0138179650421L473.3427463974406,402.5608133416499L472.41246332196226,402.10780029811576L471.17208588799133,401.6547788339667L470.8619915294987,401.6547788339667L469.9317084540205,401.6547788339667L467.76104794457126,401.6547788339667L466.2105761521076,401.6547788339667L465.590387435122,401.6547788339667L465.590387435122,401.6547788339667L465.2802930766293,401.6547788339667L465.2802930766293,402.10780029811576L464.97019871813666,403.4668141687325L464.03991564265834,404.8257522661006L463.4197269256729,405.7316689074287L463.10963256718014,407.0904807431034L463.10963256718014,407.5434011897778L461.24906641622374,407.5434011897778L460.0086889822528,406.1846146023854L459.3885002652672,405.7316689074287L459.3885002652672,405.7316689074287L459.0784059067746,406.6375518807945L458.45821718978914,405.27871479548776L458.45821718978914,405.27871479548776L456.59765103883274,405.27871479548776L455.97746232184727,405.7316689074287L455.3572736048617,405.7316689074287L454.4269905293834,406.1846146023854L453.4967074539053,406.1846146023854L451.32604694445615,407.5434011897778L450.7058582274707,407.9963132212615L449.1553864350069,408.90211204043953L449.1553864350069,408.90211204043953L449.1553864350069,409.35499882904696L449.1553864350069,409.8078772042536L449.46548079349964,410.2607471665324L450.0856695104852,411.16646185406717L450.39576386897784,412.072142895242L450.39576386897784,412.072142895242L450.39576386897784,412.52497079958266L450.39576386897784,412.52497079958266L450.0856695104852,412.977790293673L448.2251033595287,413.8834040529691L446.98472592555777,414.3361983190516L446.3645372085723,414.3361983190516L445.4342541330941,414.7889841767101L445.12415977460137,414.7889841767101L443.26359362364485,416.14729130354317L441.09293311419583,417.05278735419415L440.47274439721025,417.05278735419415L439.8525556802249,417.05278735419415L439.54246132173193,417.5055227706798L439.2323669632393,417.9582497818883L439.54246132173193,419.7690737828634L439.54246132173193,421.12710355015224L439.54246132173193,421.12710355015224L438.61217824625396,422.0324147191641L437.0617064537903,422.93769228504243L436.131423378312,423.39031846791477L435.2011403028338,423.8429362513489L434.5809515858484,424.2955456358068L432.10019671790644,426.55846658899463L429.6194418499646,429.7262032918188L429.3093474914716,430.1787035303387L429.3093474914716,430.63119537615785L429.3093474914716,431.08367882972016L429.6194418499646,432.89352873051394L429.6194418499646,434.25082805950296L429.9295362084573,435.155652334819L429.9295362084573,436.06044305909745L429.9295362084573,436.51282584072396L429.6194418499646,436.51282584072396L429.3093474914716,436.51282584072396L427.1386869820226,436.06044305909745L425.89830954805166,435.155652334819L424.6579321140807,433.3459702295804L424.3478377555879,433.3459702295804L424.3478377555879,432.89352873051394L422.4872716046316,432.89352873051394L420.9367998121679,432.89352873051394L419.386328019704,433.3459702295804L418.76613930271867,433.79840333910033L417.83585622724047,433.79840333910033L417.52576186874774,433.79840333910033L415.6651957177912,433.3459702295804L414.73491264231313,433.3459702295804L414.11472392532755,433.3459702295804L413.4945352083422,433.3459702295804L413.18444084984924,433.3459702295804L412.8743464913566,433.79840333910033L411.6339690573857,435.60805189060557L411.0137803404002,436.96520023593257L409.7734029064293,438.7746139616429L409.1532141894437,438.7746139616429L408.8431198309511,438.7746139616429L408.53302547245835,439.22694643153955L408.2229311139655,439.22694643153955L407.91283675547277,440.1315862206029L407.91283675547277,440.1315862206029L407.60274239698015,440.1315862206029L407.2926480384874,439.22694643153955L406.67245932150183,438.7746139616429L405.74217624602363,439.22694643153955L405.12198752903817,439.22694643153955L404.19170445355996,439.6792705177104L402.95132701958903,440.58389354068277L402.95132701958903,440.58389354068277L402.95132701958903,440.58389354068277L402.95132701958903,440.58389354068277L402.0210439441107,438.7746139616429L401.40085522712536,437.8699238689296L400.1604777931543,436.96520023593257L399.54028907616896,436.51282584072396L398.61000600069076,435.60805189060557L398.29991164219814,435.60805189060557L398.29991164219814,435.155652334819L397.67972292521256,433.3459702295804L396.4393454912416,431.9886205619259L397.0595342082271,430.1787035303387L395.5090624157633,427.91611840182304L395.5090624157633,427.91611840182304L394.5787793402852,427.01102558896673L393.95859062329964,427.01102558896673L393.6484962648069,427.01102558896673L393.3384019063143,427.4635761930949L392.408118830836,428.36865221561675L392.09802447234324,428.8211776349126L391.1677413968649,429.273694660169L390.2374583213867,429.273694660169L389.927363962894,428.8211776349126L389.927363962894,428.36865221561675L389.6172696044014,428.36865221561675L388.9970808874158,428.8211776349126L387.44660909495224,430.1787035303387L386.2062316609813,431.08367882972016L386.2062316609813,431.08367882972016L386.2062316609813,431.53615389149854L386.2062316609813,432.4410788414425L386.2062316609813,432.89352873051394L385.5860429439957,434.25082805950296L385.275948585503,435.60805189060557L385.89613730248846,436.51282584072396L386.82642037796666,437.41756624518894L386.5163260194739,437.41756624518894L385.275948585503,438.7746139616429L384.3456655100248,438.7746139616429L383.4153824345466,438.3222731075948L383.10528807605374,438.3222731075948L380.9346275666047,438.7746139616429L380.0043444911264,439.6792705177104L380.31443884961925,441.03619247839015L380.31443884961925,442.3930390017449L380.0043444911264,442.3930390017449L379.6942501326338,442.84530441442985L379.0740614156482,442.84530441442985L378.1437783401699,442.84530441442985L377.2134952646919,443.7498100998673L376.90340090619895,444.2020503735148L376.2832121892136,445.1065057848864L377.2134952646919,445.55872092352L377.52358962318453,446.01092768469607L377.83368398167727,446.4631260688948L377.83368398167727,446.4631260688948L377.52358962318453,446.4631260688948L377.2134952646919,446.91531607653087L376.90340090619895,447.36749770808456L375.04283475524255,447.8196709639851L373.8024573212716,448.27183584467275L371.6317968118225,449.628280240031L370.7015137363443,450.0804116244035L370.39141937785155,450.5325346358004L370.39141937785155,450.5325346358004L370.39141937785155,451.43675554151196L370.39141937785155,451.8888534367252L370.0813250193588,451.8888534367252L369.1510419438806,453.2450968971061L368.53085322689515,453.69716131030873L367.91066450990957,454.14921735413736L367.60057015141695,454.14921735413736L366.67028707593863,453.2450968971061L365.74000400046043,452.7930241140675L365.1198152834751,452.3409429607527L364.80972092498234,452.3409429607527L364.4996265664895,452.3409429607527L363.25924913251856,452.7930241140675L362.3289660570405,453.2450968971061L362.0188716985475,453.2450968971061L361.39868298156216,453.2450968971061L360.7784942645767,453.69716131030873L360.1583055475912,455.95735784459976L359.8482111890985,455.95735784459976L360.1583055475912,457.313375355865L360.46839990608396,458.6693175749351L361.08858862306954,459.5732372312741L362.3289660570405,460.4771234333675L363.5693434910114,460.4771234333675L363.87943784950403,460.929053990174L363.25924913251856,462.73669259966846L362.6390604155331,465.4478997098304L361.08858862306954,468.1588059408823L361.08858862306954,468.1588059408823L360.7784942645767,468.1588059408823L359.8482111890985,467.70700912599204L359.53811683060576,467.2552039555776L358.60783375512756,466.3515685464263L357.3674563211566,466.3515685464263L356.4371732456784,466.3515685464263L355.81698452869296,466.3515685464263L355.81698452869296,465.8997383067872L355.81698452869296,464.99605275513386L355.81698452869296,464.09233377066994L355.1967958117075,463.64046174003306L353.95641837773644,463.64046174003306L351.4756635097946,464.09233377066994L348.9949086418526,464.99605275513386L346.82424813240345,465.8997383067872L344.6535876229543,467.2552039555776L344.6535876229543,467.2552039555776L344.6535876229543,467.2552039555776L344.6535876229543,467.70700912599204L344.3434932644616,469.06237450589106L344.3434932644616,469.06237450589106L343.7233045474761,469.5141462569045L343.4132101889834,469.5141462569045L343.4132101889834,469.96590965417636L343.4132101889834,469.96590965417636L343.4132101889834,470.4176646981723L344.03339890596885,470.869411389318L344.03339890596885,470.869411389318L345.5838706984325,471.3211497280827L345.89396505692525,471.3211497280827L348.37471992486724,471.7728797148884L350.54538043431626,472.2246013502081L351.16556915130184,472.67631463447105L351.4756635097946,472.67631463447105L351.4756635097946,472.67631463447105L351.4756635097946,473.1280195681138L351.7857578682872,474.48308426989024L352.09585222678015,475.38641899288996L352.7160409437655,476.2897203241555L352.7160409437655,476.7413584690148L352.7160409437655,476.7413584690148L351.7857578682872,478.9994240033484L351.4756635097946,479.90259180342764L351.16556915130184,480.35416318804346L350.54538043431626,480.8057262296388L348.9949086418526,482.6118949746724L349.3050030003453,484.86941824142014L349.3050030003453,485.3208978772782L349.61509735883817,485.77236917502887L350.23528607582364,486.2238321351015L349.9251917173308,486.6752867579362L349.9251917173308,487.1267330439932L349.61509735883817,487.1267330439932L349.3050030003453,487.57817099371096L348.9949086418526,487.57817099371096L346.2040594154181,488.9324348292739L344.03339890596885,489.8352357127642L344.6535876229543,490.2866236537975L345.2737763399398,490.73800326160926L345.5838706984325,490.73800326160926L346.82424813240345,492.0920920901499L346.82424813240345,493.44610593570724L347.1343424908963,493.8974272234136L347.44443684938904,495.2513411103573L348.0646255663745,497.0564430317754L350.8554747928091,496.60518004235746L353.3362296607511,496.1539087259407L353.95641837773644,498.4101820425276L354.576607094722,500.6662472287626L354.2665127362292,502.47094956123874L355.81698452869296,504.72664025287304L356.1270788871857,506.07995483640116L356.1270788871857,506.07995483640116L356.4371732456784,506.5310430616719L356.4371732456784,507.4331945609938L356.4371732456784,507.4331945609938L356.4371732456784,508.33531279502495L356.4371732456784,508.7863594386472L356.1270788871857,508.7863594386472L355.81698452869296,509.2373977672778L356.4371732456784,511.49246470107937L357.987645038142,513.7473238265793L357.987645038142,513.7473238265793L358.2977393966348,513.7473238265793L358.2977393966348,514.1982707195602L358.2977393966348,514.1982707195602L358.2977393966348,515.1001395769654L356.74726760417104,516.4528805483242L356.1270788871857,516.4528805483242L356.1270788871857,516.4528805483242L354.88670145321464,516.903777589956L353.3362296607511,517.3546663245615L351.4756635097946,518.2564188745419L349.3050030003453,519.1581382018194L346.82424813240345,520.9614772024051L345.89396505692525,521.8630968828238L345.89396505692525,521.8630968828238L345.5838706984325,522.7646833546951L345.2737763399398,523.6662366216005L344.3434932644616,523.6662366216005L343.7233045474761,524.1170008042827L342.7930214719978,524.5677566870581L340.62236096254867,525.4692435546203L339.6920778870706,525.4692435546203L337.52141737762133,526.8214116176641L336.2810399436504,527.7228155059838L336.2810399436504,528.1735050053667L335.3507568681722,529.0748591167721L334.4204737926939,529.5255237296897L334.11037943420126,529.9761800479955L334.11037943420126,529.9761800479955L332.8700020002302,529.0748591167721L331.9397189247519,529.0748591167721L331.6296245662593,528.6241862088063L331.6296245662593,525.4692435546203L328.8387753398247,525.0185042703597L328.2185866228392,525.4692435546203L326.9782091888683,525.9199745403021L326.66811483037543,525.9199745403021L326.3580204718828,526.3706972278396L326.66811483037543,527.2721177102248L326.9782091888683,527.2721177102248L326.3580204718828,528.1735050053667L325.1176430379119,528.6241862088063L323.5671712454482,529.5255237296897L322.01669945298454,529.5255237296897L321.7066050944917,529.5255237296897L321.39651073599896,529.0748591167721L321.39651073599896,528.6241862088063L321.39651073599896,528.6241862088063L321.39651073599896,526.3706972278396L321.7066050944917,523.6662366216005L321.08641637750634,523.6662366216005L317.3652840755934,524.1170008042827L317.0551897171008,524.1170008042827L314.264340490666,526.3706972278396L313.6441517736805,526.8214116176641L313.02396305669504,527.2721177102248L311.47349126423137,527.7228155059838L310.853302547246,527.7228155059838L309.61292511327497,527.7228155059838L308.37254767930403,528.1735050053667L307.44226460382583,529.0748591167721L307.1321702453331,529.5255237296897L306.82207588684025,529.5255237296897L305.89179281136217,529.9761800479955L305.2716040943766,529.9761800479955L305.2716040943766,529.9761800479955L304.96150973588396,529.5255237296897L304.96150973588396,529.5255237296897L304.6514153773911,528.6241862088063L304.6514153773911,528.1735050053667L304.03122666040565,527.2721177102248L302.17066050944925,527.2721177102248L300.62018871698547,527.2721177102248L298.7596225660292,527.2721177102248L298.44952820753645,527.2721177102248L298.1394338490436,527.7228155059838L297.829339490551,527.7228155059838L297.2091507735655,529.0748591167721L296.89905641507266,529.5255237296897L295.348584622609,529.9761800479955L287.9063200187833,530.8774678025784L286.6659425848122,530.8774678025784L281.7044328489285,530.8774678025784L281.7044328489285,530.8774678025784L280.7741497734504,530.8774678025784L279.53377233947936,531.7787223840551L278.9135836224939,531.7787223840551L276.74292311304475,533.5811320418507L275.81264003756667,534.4822871252545L275.1924513205811,535.3834090497057L273.6419795281174,537.1855534359456L272.09150773565375,538.0865759047865L270.8511303016828,539.4380474626687L269.9208472262045,540.7894444566791L268.9905641507263,543.0416071150048L268.6804697922337,544.8431881749038L268.9905641507263,545.2935627398529L268.9905641507263,545.2935627398529L269.3006585092189,545.743929025657L269.9208472262045,546.6446367616682L269.9208472262045,547.0949782127336L269.9208472262045,547.9956362832218L269.3006585092189,550.2471366287573L267.75018671675537,552.0481879655999L266.5098092827843,552.9486639971929L265.88962056579896,552.9486639971929L264.3391487733352,552.0481879655999L262.16848826388605,550.2471366287573L261.8583939053933,550.2471366287573L261.54829954690047,551.1476788439577L260.6180164714224,552.0481879655999L259.9978277544369,552.9486639971929L259.9978277544369,553.3988896053343L259.6877333959443,554.2993160084843L258.44735596197324,556.550237293759L257.2069785280023,558.3508254935277L256.58678981101684,559.2510699936392L256.276695452524,559.7011798452822L255.96660109403138,560.1512814319103L255.65650673553853,561.5015366061325L255.65650673553853,561.9516051371193L255.65650673553853,562.4016654052921L255.65650673553853,563.751796637338L255.65650673553853,564.6518428193813L255.96660109403138,565.1018535199219L255.96660109403138,565.5518559607481L255.65650673553853,566.9018137292369L255.3464123770458,567.8017442843138L254.72622366006044,569.6015063129453L254.10603494307486,571.4011362563415L254.10603494307486,572.7507720498852L254.10603494307486,573.6504879835884L255.03631801855306,574.1003335731875L255.03631801855306,574.5501709118398L255.03631801855306,574.5501709118398L254.72622366006044,575L254.41612930156748,575L253.79594058458213,574.5501709118398L252.5555631506113,574.1003335731875L251.31518571664026,573.6504879835884L250.6949969996548,573.6504879835884L249.7647139241766,573.6504879835884L248.52433649020566,573.6504879835884L247.2839590562346,573.2006341426404L246.66377033924914,572.3009017048644L246.66377033924914,572.3009017048644L246.3536759807564,572.3009017048644L245.4233929052781,572.3009017048644L245.11329854678547,572.3009017048644L244.18301547130716,572.3009017048644L243.25273239582907,572.3009017048644L242.94263803733634,572.7507720498852L241.39216624487256,573.2006341426404L239.53160009391627,573.6504879835884L238.60131701843807,573.2006341426404L236.12056215049608,573.2006341426404L233.94990164104695,573.6504879835884L233.01961856556863,573.2006341426404L232.70952420707602,573.2006341426404L230.8489580561196,572.3009017048644L229.60858062214868,571.4011362563415L229.29848626365572,571.4011362563415L228.9883919051631,571.4011362563415L228.67829754667036,571.4011362563415L228.05810882968478,571.8510231071614L228.05810882968478,571.8510231071614L228.05810882968478,572.3009017048644L227.74801447119216,572.3009017048644L227.1278257542067,572.7507720498852L224.95716524475756,573.6504879835884L224.02688216927925,573.6504879835884L222.16631601832285,573.6504879835884L220.61584422585918,573.6504879835884L219.6855611503811,573.2006341426404L219.6855611503811,572.7507720498852L218.75527807490278,571.8510231071614L217.82499499942458,571.4011362563415L217.51490064093184,571.4011362563415L216.89471192394626,570.501337793532L216.2745232069608,569.6015063129453L215.65433448997533,569.1515781898834L215.65433448997533,568.2516971759997L215.96442884846817,567.8017442843138L216.58461756545364,566.9018137292369L216.89471192394626,566.4518360649563L216.58461756545364,565.5518559607481L215.96442884846817,564.6518428193813L215.3442401314826,563.751796637338L214.72405141449724,562.4016654052921L214.72405141449724,561.9516051371193L214.72405141449724,561.5015366061325L214.72405141449724,560.1512814319103L214.72405141449724,558.3508254935277L214.72405141449724,557.9006908441988L214.72405141449724,557.9006908441988L215.3442401314826,557.4505479280797L215.3442401314826,557.000396744741L216.2745232069608,556.550237293759L218.44518371641016,555.649893587024L220.61584422585918,555.199709330418L223.4066934522939,553.8491069422762L225.26725960325018,552.9486639971929L225.88744832023576,552.9486639971929L226.50763703722123,552.9486639971929L226.81773139571396,552.9486639971929L227.43792011269954,552.4984301174245L227.74801447119216,552.0481879655999L228.36820318817774,551.1476788439577L229.60858062214868,548.4459529035321L229.60858062214868,548.4459529035321L229.60858062214868,547.545311386446L230.22876933913403,547.0949782127336L230.8489580561196,546.1942870327875L230.8489580561196,546.1942870327875L231.15905241461223,543.4920148008769L230.8489580561196,543.0416071150048L230.8489580561196,543.0416071150048L230.53886369762677,542.5911911477815L230.22876933913403,542.5911911477815L229.60858062214868,542.1407668987777L228.67829754667036,540.7894444566791L228.9883919051631,539.8885214116344L229.29848626365572,539.8885214116344L229.29848626365572,538.9875652288338L228.9883919051631,538.0865759047865L228.9883919051631,537.636068813681L228.67829754667036,537.636068813681L228.36820318817774,536.7350297711127L228.05810882968478,536.2844978187695L228.05810882968478,536.2844978187695L227.1278257542067,536.7350297711127L226.81773139571396,536.7350297711127L225.57735396174303,536.2844978187695L224.95716524475756,535.8339575784448L224.33697652777198,534.9328522321321L224.33697652777198,534.4822871252545L224.33697652777198,534.0317137286456L224.33697652777198,533.5811320418507L224.33697652777198,533.5811320418507L224.33697652777198,533.130542064433L224.33697652777198,533.130542064433L224.33697652777198,532.6799437959635L223.71678781078663,529.9761800479955L223.71678781078663,529.9761800479955L223.71678781078663,529.5255237296897L223.71678781078663,529.0748591167721L224.02688216927925,528.1735050053667L224.02688216927925,526.8214116176641L224.02688216927925,526.3706972278396L223.71678781078663,525.9199745403021L223.71678781078663,525.9199745403021L222.16631601832285,525.0185042703597L222.16631601832285,524.5677566870581L221.54612730133738,523.6662366216005L220.30574986736633,521.412291193903L219.6855611503811,520.0598243099212L219.0653724333954,518.2564188745419L218.1350893579172,516.4528805483242L217.2048062824391,514.1982707195602L216.89471192394626,513.7473238265793L216.89471192394626,513.2963686234762L216.89471192394626,513.2963686234762L219.0653724333954,511.04146794075314L219.6855611503811,510.5904628676544L220.30574986736633,509.6884277813624L220.9259385843519,508.7863594386472L220.61584422585918,506.5310430616719L219.9956555088737,502.92210434022127L219.37546679188813,498.8614117284287L219.6855611503811,496.60518004235746L219.9956555088737,496.1539087259407L220.30574986736633,495.70262908208497L222.4764103768157,493.8974272234136L222.4764103768157,493.44610593570724L222.4764103768157,492.99477631788614L222.4764103768157,492.99477631788614L223.09659909380105,492.99477631788614L223.4066934522939,493.44610593570724L223.71678781078663,493.8974272234136L224.95716524475756,492.5434383695101L225.26725960325018,492.0920920901499L225.26725960325018,491.1893745366342L225.26725960325018,491.1893745366342L225.26725960325018,490.73800326160926L224.64707088626483,489.8352357127642L224.64707088626483,489.8352357127642L224.64707088626483,488.9324348292739L225.26725960325018,487.1267330439932L225.26725960325018,486.6752867579362L225.57735396174303,486.6752867579362L225.57735396174303,486.6752867579362L224.95716524475756,484.4179302669818L224.33697652777198,483.5149293006307L223.71678781078663,482.16036530071506L224.64707088626483,479.4510120753512L225.26725960325018,478.9994240033484L225.57735396174303,478.54782758699366L225.88744832023576,477.6446097193948L226.1975426787285,475.38641899288996L226.1975426787285,474.9347558055779L225.88744832023576,474.9347558055779L223.4066934522939,474.48308426989024L222.4764103768157,472.2246013502081L222.4764103768157,471.3211497280827L222.16631601832285,470.869411389318L221.8562216598301,470.869411389318L221.54612730133738,471.3211497280827L219.9956555088737,472.2246013502081L219.37546679188813,472.67631463447105L218.1350893579172,472.67631463447105L218.1350893579172,472.2246013502081L218.44518371641016,471.3211497280827L218.44518371641016,470.869411389318L218.1350893579172,469.5141462569045L217.82499499942458,469.06237450589106L217.51490064093184,469.06237450589106L216.89471192394626,469.06237450589106L215.96442884846817,468.6105944006922L215.3442401314826,468.1588059408823L214.72405141449724,467.2552039555776L214.72405141449724,467.2552039555776L214.72405141449724,467.2552039555776L214.4139570560044,466.8033904292133L214.10386269751166,466.8033904292133L213.79376833901892,466.3515685464263L213.4836739805263,465.8997383067872L212.553390905048,465.4478997098304L211.6231078295698,464.99605275513386L211.00291911258432,464.09233377066994L210.6928247540916,463.18858134984475L209.7625416786134,461.8328900175766L209.7625416786134,461.3809761847697L209.7625416786134,460.4771234333675L209.7625416786134,460.0251845138773L209.7625416786134,459.1212815851177L210.07263603710612,458.6693175749351L210.38273039559886,458.2173452002935L211.6231078295698,458.6693175749351L212.553390905048,457.7653644607635L213.17357962203334,456.861377885165L214.10386269751166,455.5053352738105L215.65433448997533,453.69716131030873L215.65433448997533,453.69716131030873L215.65433448997533,452.7930241140675L215.65433448997533,452.3409429607527L215.03414577298986,451.8888534367252L211.31301347107717,450.5325346358004L211.00291911258432,450.5325346358004L209.1423529616278,448.27183584467275L208.8322586031352,447.36749770808456L208.2120698861496,446.01092768469607L208.2120698861496,446.01092768469607L207.28178681067152,445.55872092352L206.66159809368594,445.55872092352L204.49093758423692,444.2020503735148L202.94046579177302,443.7498100998673L202.32027707478778,443.29756144698695L202.01018271629493,443.7498100998673L201.07989964081673,443.7498100998673L200.769805282324,444.2020503735148L200.769805282324,444.65428226836593L200.45971092383127,444.65428226836593L199.8395222068458,445.1065057848864L199.21933348986022,445.1065057848864L198.90923913136749,445.1065057848864L198.90923913136749,445.1065057848864L197.66886169739655,444.2020503735148L196.73857862191835,443.7498100998673L194.87801247096195,442.84530441442985L194.56791811246933,443.29756144698695L194.56791811246933,442.84530441442985L194.56791811246933,441.9407652084665L194.56791811246933,441.9407652084665L194.87801247096195,440.58389354068277L195.18810682945457,439.6792705177104L195.18810682945457,439.6792705177104L195.49820118794742,439.22694643153955L195.80829554644015,439.22694643153955L195.80829554644015,438.7746139616429L196.11838990493288,437.8699238689296L196.11838990493288,437.41756624518894L195.80829554644015,436.51282584072396L195.80829554644015,436.06044305909745L194.25782375397637,434.25082805950296L192.39725760302008,433.79840333910033L190.22659709357094,432.89352873051394L189.9165027350781,432.89352873051394L189.9165027350781,432.89352873051394L189.29631401809263,431.08367882972016L188.67612530110716,430.1787035303387L188.05593658412158,429.7262032918188L188.05593658412158,429.7262032918188L188.05593658412158,429.273694660169L188.05593658412158,429.273694660169L188.05593658412158,429.273694660169L188.05593658412158,429.273694660169L188.36603094261454,428.36865221561675L188.36603094261454,427.4635761930949L188.36603094261454,426.1058991927421L188.36603094261454,425.6533233997434L188.36603094261454,425.20073920954746L188.9862196595999,424.74814662172867L189.9165027350781,424.74814662172867L190.53669145206356,424.74814662172867L191.15688016904903,425.20073920954746L191.7770688860345,425.20073920954746L192.08716324452735,425.20073920954746L193.637635036991,424.74814662172867L194.25782375397637,424.74814662172867L196.11838990493288,423.8429362513489L197.66886169739655,422.4850577022735L199.21933348986022,420.2217587744017L200.45971092383127,419.3163803882926L200.769805282324,419.3163803882926L201.07989964081673,418.8636785902454L201.07989964081673,418.41096838825615L201.7000883578022,417.05278735419415L202.6303714332804,415.69453066850474L203.25056015026598,415.24176162637013L203.87074886725134,414.3361983190516L203.87074886725134,413.8834040529691L203.87074886725134,412.977790293673L203.56065450875872,412.52497079958266L203.25056015026598,411.6193065802181L201.7000883578022,409.8078772042536L200.45971092383127,407.9963132212615L199.8395222068458,407.5434011897778L199.8395222068458,406.6375518807945L199.8395222068458,406.1846146023854L199.8395222068458,406.1846146023854L199.8395222068458,405.7316689074287L199.52942784835307,405.7316689074287L199.21933348986022,405.27871479548776L197.66886169739655,404.37278131880885L196.42848426342562,403.4668141687325L195.80829554644015,403.0138179650421L193.94772939548375,401.6547788339667L191.46697452754188,400.2956639134136L190.53669145206356,399.84260876235567L190.22659709357094,399.3895451884273L187.1256535086435,395.7647333199966L187.1256535086435,395.311593920047L186.1953704331654,394.40528983757395L183.71461556522343,391.68617529709445L183.4045212067307,391.23296003452924L182.7843324897451,390.32650421465587L182.4742381312525,389.8732636564382L182.4742381312525,388.5134913832153L182.4742381312525,388.5134913832153L182.4742381312525,387.1536432026587L183.4045212067307,387.1536432026587L183.4045212067307,387.60693436440124L185.88527607467256,388.0602170911079L186.81555915015065,388.0602170911079L188.67612530110716,388.0602170911079L189.9165027350781,387.1536432026587L189.9165027350781,386.7003436054001L190.22659709357094,386.7003436054001L190.22659709357094,386.2470355721962L190.22659709357094,386.2470355721962L191.46697452754188,385.79371910257396L192.39725760302008,384.88706085231024L194.25782375397637,383.07364309497643L194.56791811246933,382.62026755784973L194.87801247096195,382.16688358068495L195.18810682945457,381.7134911630601L196.42848426342562,378.99295938186697L196.73857862191835,377.63257950817206L196.42848426342562,376.27212362946375L195.80829554644015,375.8186214444322L195.49820118794742,375.36511081258504L194.87801247096195,374.4580642066576L194.25782375397637,374.00452823165324L193.94772939548375,373.5509838080361L193.3275406784984,372.6438696130899L193.3275406784984,372.19029984088047L196.11838990493288,372.19029984088047L198.90923913136749,371.73672161823197L200.14961656533842,370.8295398197879L200.769805282324,370.8295398197879L201.07989964081673,370.3759362431083L201.7000883578022,369.46870373252386L202.6303714332804,367.200474517922L202.94046579177302,367.200474517922L202.94046579177302,367.200474517922L206.04140937670047,367.200474517922L206.66159809368594,367.200474517922L210.6928247540916,363.11712920192076L214.10386269751166,357.2177539498116L214.10386269751166,356.7638966083832L215.65433448997533,352.6787995173181L215.65433448997533,352.6787995173181L215.65433448997533,352.6787995173181L215.03414577298986,351.7709070060009L214.4139570560044,351.31694804428116L213.79376833901892,350.8629806112622L213.17357962203334,349.95502032946024L212.86348526354072,349.95502032946024L212.86348526354072,349.95502032946024L211.9332021880624,350.4090047064674L209.1423529616278,350.4090047064674L205.73131501820785,350.4090047064674L205.11112630122227,350.8629806112622L202.01018271629493,352.2248574968653L201.7000883578022,352.2248574968653L201.7000883578022,352.2248574968653L197.66886169739655,349.5010274797896L197.35876733890393,349.5010274797896L196.73857862191835,348.5930163605881L196.42848426342562,348.5930163605881L194.56791811246933,346.3228402589921L194.25782375397637,346.3228402589921L192.7073519615128,345.4147104873555L189.60640837658548,342.69011770464203L189.29631401809263,342.69011770464203L189.29631401809263,339.5110402801729L189.9165027350781,336.7857859371252L189.9165027350781,336.3315471820679L189.29631401809263,333.60593642300955L190.53669145206356,333.1516382541231L192.08716324452735,332.697331595733L192.7073519615128,332.697331595733L192.7073519615128,332.24301644736624L192.7073519615128,332.24301644736624L193.637635036991,331.78869280857543L193.637635036991,331.33436067892035L194.56791811246933,330.88002005790986L194.87801247096195,330.88002005790986L195.18810682945457,329.9713133400837L195.49820118794742,329.0625726514445L195.80829554644015,328.15379798835056L195.80829554644015,327.69939791523575L195.80829554644015,327.24498934713847L195.49820118794742,326.7905722836149L194.87801247096195,325.8817126684153L194.56791811246933,324.97281906599164L194.56791811246933,324.51835951842077L194.56791811246933,324.51835951842077L195.49820118794742,323.609414928309L196.42848426342562,322.2459342988368L196.73857862191835,321.7914237553741L197.04867298041108,321.3369047109918L197.35876733890393,319.5187435152293L197.35876733890393,319.06418195944934L197.35876733890393,318.1550333364394L197.66886169739655,317.245850695188L198.59914477287487,315.882012941056L200.14961656533842,314.518098625289L201.07989964081673,314.06344350419386L201.38999399930947,314.06344350419386L201.38999399930947,314.06344350419386L200.769805282324,313.15410773552503L200.45971092383127,312.6994270870273L200.14961656533842,311.33533407942014L200.14961656533842,310.8806193879973L199.8395222068458,309.97116446905056L199.52942784835307,309.51642424061356L198.90923913136749,308.6069182435458L198.28905041438213,307.6973781898123L197.66886169739655,307.2425953905695L196.42848426342562,305.42337903364387L195.80829554644015,304.96855365213924L193.3275406784984,304.0588773352101L193.3275406784984,304.0588773352101L193.3275406784984,304.0588773352101L193.01744632000543,303.14916694331987L193.01744632000543,302.6942989681338L192.7073519615128,302.6942989681338L191.15688016904903,301.78453745694424L188.9862196595999,300.87474186165855L188.9862196595999,300.87474186165855L188.67612530110716,300.87474186165855L188.36603094261454,300.87474186165855L188.05593658412158,300.4198312813387L187.43574786713634,299.964912178606L187.1256535086435,299.5099845530276L186.50546479165803,298.1451505345358L186.1953704331654,297.2352185661912L185.88527607467256,296.3252524954114L185.2650873576871,295.87025667048147L184.3348042822089,295.41525231855485Z" style="fill: none; stroke: rgb(8, 48, 107);"><title>CHER</title></path><g stroke="#000" stroke-opacity="0.2"><path d="M0,-13.34775705149959L2.9967581703553763,-4.1246837657014135L12.69447132175327,-4.124683765701414L4.848856575698947,1.5754890056530315L7.845614746054325,10.798562291451207L8.881784197001252e-16,5.098389520096762L-7.845614746054323,10.798562291451208L-4.848856575698946,1.5754890056530328L-12.694471321753271,-4.124683765701411L-2.9967581703553776,-4.124683765701413Z" transform="translate(328.8387753398247,436.96520023593257)rotate(7.207580621541742)" fill="white" class="commune"><title>18197 Population : 9830</title></path><path d="M0,-18.876579049491834L4.238056047668955,-5.833183721955068L17.952693510379785,-5.833183721955069L6.857318731355415,2.2280779191642193L11.095374779024372,15.271473246700983L8.881784197001252e-16,7.210211605581696L-11.095374779024368,15.271473246700985L-6.857318731355414,2.2280779191642206L-17.952693510379788,-5.833183721955065L-4.238056047668956,-5.833183721955068Z" transform="translate(192.08716324452735,204.6990863740757)rotate(7.563102576807038)" fill="white" class="commune"><title>18279 Population : 26365</title></path><path d="M0,-22.448162112566994L5.039926405668234,-6.936863585267022L21.349470856006818,-6.936863585267023L8.154772225169292,2.649646114250548L13.19469863083753,18.16094464155052L8.881784197001252e-16,8.574434942032948L-13.194698630837525,18.160944641550522L-8.154772225169292,2.649646114250549L-21.34947085600682,-6.936863585267019L-5.0399264056682345,-6.936863585267021Z" transform="translate(293.17792411315975,278.5740926397084)rotate(12.19110472777809)" fill="white" class="commune"><title>18033 Population : 65555</title></path></g><text class="text" y="25" x="326" text-anchor="middle" font-size="24" font-family="Helvetica" fill="#6baed6">18 - CHER</text><line x1="295.5553141949374" y1="289.13349981279003" x2="326.461385258047" y2="426.40579306285093" stroke="yellow" opacity="0.35" stroke-width="2"/><line x1="319.7220012001382" y1="421.4807926451421" x2="201.20393738421384" y2="220.18349396486616" stroke="yellow" opacity="0.35" stroke-width="2"/><line x1="198.82654730243618" y1="209.62408679178455" x2="286.43854005525094" y2="273.6490922219995" stroke="yellow" opacity="0.35" stroke-width="2"/></svg>