<svg viewBox="0,0,955,1146" width="955" height="1146" style="width: 100%; height: auto;" xmlns="http://www.w3.org/2000/svg" xmlns:xlink="http://www.w3.org/1999/xlink"><rect width="955" height="1146" fill="black"/><g stroke="#000" stroke-opacity="0.2"><path d="M0,-18.876579049491834L4.238056047668955,-5.833183721955068L17.952693510379785,-5.833183721955069L6.857318731355415,2.2280779191642193L11.095374779024372,15.271473246700983L8.881784197001252e-16,7.210211605581696L-11.095374779024368,15.271473246700985L-6.857318731355414,2.2280779191642206L-17.952693510379788,-5.833183721955065L-4.238056047668956,-5.833183721955068Z" transform="translate(110.7679738562083,566.6027401562023)rotate(21.14565090105813)" fill="white" class="commune"><title>94038 Population : 31189</title></path><path d="M0,-18.876579049491834L4.238056047668955,-5.833183721955068L17.952693510379785,-5.833183721955069L6.857318731355415,2.2280779191642193L11.095374779024372,15.271473246700983L8.881784197001252e-16,7.210211605581696L-11.095374779024368,15.271473246700985L-6.857318731355414,2.2280779191642206L-17.952693510379788,-5.833183721955065L-4.238056047668956,-5.833183721955068Z" transform="translate(536.6503267973858,292.6771325144218)rotate(10.537787483321173)" fill="white" class="commune"><title>94052 Population : 31947</title></path><path d="M0,-26.69551410299918L5.993516340710753,-8.249367531402827L25.38894264350654,-8.249367531402829L9.697713151397894,3.150978011306063L15.69122949210865,21.597124582902413L1.7763568394002505e-15,10.196779040193524L-15.691229492108645,21.597124582902417L-9.697713151397892,3.1509780113060657L-25.388942643506542,-8.249367531402822L-5.993516340710755,-8.249367531402825Z" transform="translate(456.7973856209146,530.6970466457133)rotate(6.542824569136046)" fill="white" class="commune"><title>94028 Population : 89392</title></path></g><text class="text" y="40" x="427.5" text-anchor="middle" font-size="36" font-family="Helvetica" fill="#6baed6">94 - VAL DE MARNE</text><line x1="433.72875816993417" y1="533.0907595464125" x2="133.83660130718872" y2="564.2090272555031" stroke="yellow" opacity="0.35" stroke-width="2"/><line x1="139.16013071895347" y1="548.3410329800837" x2="508.25816993464065" y2="310.93883969054053" stroke="yellow" opacity="0.35" stroke-width="2"/><line x1="531.326797385621" y1="308.5451267898413" x2="462.12091503267936" y2="514.8290523702939" stroke="yellow" opacity="0.35" stroke-width="2"/></svg>