<svg viewBox="0,0,954,1144.8" width="954" height="1144.8" style="width: 100%; height: auto;" xmlns="http://www.w3.org/2000/svg" xmlns:xlink="http://www.w3.org/1999/xlink"><rect width="954" height="1144.8" fill="black"/><g stroke="#000" stroke-opacity="0.2"><path d="M0,-13.34775705149959L2.9967581703553763,-4.1246837657014135L12.69447132175327,-4.124683765701414L4.848856575698947,1.5754890056530315L7.845614746054325,10.798562291451207L8.881784197001252e-16,5.098389520096762L-7.845614746054323,10.798562291451208L-4.848856575698946,1.5754890056530328L-12.694471321753271,-4.124683765701411L-2.9967581703553776,-4.124683765701413Z" transform="translate(419.41947359340156,846.0495671397657)rotate(3.0355645753646243)" fill="white" class="commune"><title>insee_com : 07132 
Population : 1629
 Nom : LARGENTIERE</title></path><path d="M0,-13.34775705149959L2.9967581703553763,-4.1246837657014135L12.69447132175327,-4.124683765701414L4.848856575698947,1.5754890056530315L7.845614746054325,10.798562291451207L8.881784197001252e-16,5.098389520096762L-7.845614746054323,10.798562291451208L-4.848856575698946,1.5754890056530328L-12.694471321753271,-4.124683765701411L-2.9967581703553776,-4.124683765701413Z" transform="translate(635.7869351212539,654.4904865697245)rotate(15.946875184550326)" fill="white" class="commune"><title>insee_com : 07186 
Population : 8266
 Nom : PRIVAS</title></path><path d="M0,-15.873247654971056L3.5637661381291506,-4.905103281308338L15.096355617026989,-4.905103281308339L5.766294739448918,1.873582735131148L9.330060877578072,12.841727108793865L8.881784197001252e-16,6.063041092354379L-9.330060877578068,12.841727108793867L-5.766294739448918,1.8735827351311491L-15.09635561702699,-4.905103281308335L-3.563766138129152,-4.905103281308337Z" transform="translate(800.0711542813274,323.35240115952183)rotate(2.9330499780473307)" fill="white" class="commune"><title>insee_com : 07324 
Population : 10307
 Nom : TOURNON SUR RHONE</title></path></g><text class="text" y="40" x="427" text-anchor="middle" font-size="36" font-family="Helvetica" fill="#6baed6">07  - ARDECHE</text><line x1="433.84397102859174" y1="833.2789617684297" x2="621.3624376860638" y2="667.2610919410605" stroke="yellow" opacity="0.35" stroke-width="2"/><line x1="646.7392163985921" y1="632.4146142090443" x2="789.1188730039892" y2="345.428273520202" stroke="yellow" opacity="0.35" stroke-width="2"/><line x1="774.694375568799" y1="358.1988788915381" x2="444.79625230592995" y2="811.2030894077494" stroke="yellow" opacity="0.35" stroke-width="2"/></svg>