<svg viewBox="0,0,955,1146" width="955" height="1146" style="width: 100%; height: auto;" xmlns="http://www.w3.org/2000/svg" xmlns:xlink="http://www.w3.org/1999/xlink"><rect width="955" height="1146" fill="black"/><g stroke="#000" stroke-opacity="0.2"><path d="M0,-13.34775705149959L2.9967581703553763,-4.1246837657014135L12.69447132175327,-4.124683765701414L4.848856575698947,1.5754890056530315L7.845614746054325,10.798562291451207L8.881784197001252e-16,5.098389520096762L-7.845614746054323,10.798562291451208L-4.848856575698946,1.5754890056530328L-12.694471321753271,-4.124683765701411L-2.9967581703553776,-4.124683765701413Z" transform="translate(418.4539270253558,349.3699716880692)rotate(9.268557312507381)" fill="white" class="commune"><title>38509 Population : 8023</title></path><path d="M0,-18.876579049491834L4.238056047668955,-5.833183721955068L17.952693510379785,-5.833183721955069L6.857318731355415,2.2280779191642193L11.095374779024372,15.271473246700983L8.881784197001252e-16,7.210211605581696L-11.095374779024368,15.271473246700985L-6.857318731355414,2.2280779191642206L-17.952693510379788,-5.833183721955065L-4.238056047668956,-5.833183721955068Z" transform="translate(102.79529993815731,390.9268553601287)rotate(9.5755094610163)" fill="white" class="commune"><title>38544 Population : 29454</title></path><path d="M0,-26.69551410299918L5.993516340710753,-8.249367531402827L25.38894264350654,-8.249367531402829L9.697713151397894,3.150978011306063L15.69122949210865,21.597124582902413L1.7763568394002505e-15,10.196779040193524L-15.691229492108645,21.597124582902417L-9.697713151397892,3.1509780113060657L-25.388942643506542,-8.249367531402822L-5.993516340710755,-8.249367531402825Z" transform="translate(572.9251700680275,660.9095474355017)rotate(16.557118497085373)" fill="white" class="commune"><title>38185 Population : 158180</title></path></g><text class="text" y="40" x="427.5" text-anchor="middle" font-size="36" font-family="Helvetica" fill="#6baed6">38 - ISERE</text><line x1="562.627087198516" y1="640.1402423856729" x2="428.7520098948673" y2="370.13927673789806" stroke="yellow" opacity="0.35" stroke-width="2"/><line x1="397.4100185528759" y1="352.14043059953985" x2="123.83920841063721" y2="388.15639644865803" stroke="yellow" opacity="0.35" stroke-width="2"/><line x1="134.13729128014865" y1="408.9257014984869" x2="541.5831787260361" y2="642.9107012971435" stroke="yellow" opacity="0.35" stroke-width="2"/></svg>