<svg viewBox="0,0,955,1146" width="955" height="1146" style="width: 100%; height: auto;" xmlns="http://www.w3.org/2000/svg" xmlns:xlink="http://www.w3.org/1999/xlink"><rect width="955" height="1146" fill="black"/><g stroke="#000" stroke-opacity="0.2"><path d="M0,-18.876579049491834L4.238056047668955,-5.833183721955068L17.952693510379785,-5.833183721955069L6.857318731355415,2.2280779191642193L11.095374779024372,15.271473246700983L8.881784197001252e-16,7.210211605581696L-11.095374779024368,15.271473246700985L-6.857318731355414,2.2280779191642206L-17.952693510379788,-5.833183721955065L-4.238056047668956,-5.833183721955068Z" transform="translate(470.15720081135873,604.1964421913362)rotate(24.052605035823913)" fill="white" class="commune"><title>95500 Population : 30690</title></path><path d="M0,-22.448162112566994L5.039926405668234,-6.936863585267022L21.349470856006818,-6.936863585267023L8.154772225169292,2.649646114250548L13.19469863083753,18.16094464155052L8.881784197001252e-16,8.574434942032948L-13.194698630837525,18.160944641550522L-8.154772225169292,2.649646114250549L-21.34947085600682,-6.936863585267019L-5.0399264056682345,-6.936863585267021Z" transform="translate(733.5801217038531,689.5727706874022)rotate(14.895890753716412)" fill="white" class="commune"><title>95585 Population : 57781</title></path><path d="M0,-26.69551410299918L5.993516340710753,-8.249367531402827L25.38894264350654,-8.249367531402829L9.697713151397894,3.150978011306063L15.69122949210865,21.597124582902413L1.7763568394002505e-15,10.196779040193524L-15.691229492108645,21.597124582902417L-9.697713151397892,3.1509780113060657L-25.388942643506542,-8.249367531402822L-5.993516340710755,-8.249367531402825Z" transform="translate(604.163286004057,742.7051950475943)rotate(25.726800037706354)" fill="white" class="commune"><title>95018 Population : 110468</title></path></g><text class="text" y="40" x="427.5" text-anchor="middle" font-size="36" font-family="Helvetica" fill="#6baed6">95 - VAL D OISE</text><line x1="595.2295469912104" y1="733.4712781905105" x2="479.0909398242053" y2="613.4303590484201" stroke="yellow" opacity="0.35" stroke-width="2"/><line x1="487.71872887085834" y1="609.8881974244073" x2="716.0185936443535" y2="683.8810154543312" stroke="yellow" opacity="0.35" stroke-width="2"/><line x1="724.9523326572" y1="693.114932311415" x2="612.7910750507101" y2="739.1630334235815" stroke="yellow" opacity="0.35" stroke-width="2"/></svg>