<svg viewBox="0,0,955,1146" width="955" height="1146" style="width: 100%; height: auto;" xmlns="http://www.w3.org/2000/svg" xmlns:xlink="http://www.w3.org/1999/xlink"><rect width="955" height="1146" fill="black"/><g stroke="#000" stroke-opacity="0.2"><path d="M0,-13.34775705149959L2.9967581703553763,-4.1246837657014135L12.69447132175327,-4.124683765701414L4.848856575698947,1.5754890056530315L7.845614746054325,10.798562291451207L8.881784197001252e-16,5.098389520096762L-7.845614746054323,10.798562291451208L-4.848856575698946,1.5754890056530328L-12.694471321753271,-4.124683765701411L-2.9967581703553776,-4.124683765701413Z" transform="translate(288.87243735763104,494.6475797047933)rotate(22.399044820434476)" fill="white" class="commune"><title>22070 Population : 6899</title></path><path d="M0,-15.873247654971056L3.5637661381291506,-4.905103281308338L15.096355617026989,-4.905103281308339L5.766294739448918,1.873582735131148L9.330060877578072,12.841727108793865L8.881784197001252e-16,6.063041092354379L-9.330060877578068,12.841727108793867L-5.766294739448918,1.8735827351311491L-15.09635561702699,-4.905103281308335L-3.563766138129152,-4.905103281308337Z" transform="translate(856.8166287015945,584.099070621578)rotate(5.994041014805571)" fill="white" class="commune"><title>22050 Population : 14222</title></path><path d="M0,-15.873247654971056L3.5637661381291506,-4.905103281308338L15.096355617026989,-4.905103281308339L5.766294739448918,1.873582735131148L9.330060877578072,12.841727108793865L8.881784197001252e-16,6.063041092354379L-9.330060877578068,12.841727108793867L-5.766294739448918,1.8735827351311491L-15.09635561702699,-4.905103281308335L-3.563766138129152,-4.905103281308337Z" transform="translate(130.13667425968129,351.88272791041163)rotate(0.568645284060586)" fill="white" class="commune"><title>22113 Population : 19831</title></path><path d="M0,-22.448162112566994L5.039926405668234,-6.936863585267022L21.349470856006818,-6.936863585267023L8.154772225169292,2.649646114250548L13.19469863083753,18.16094464155052L8.881784197001252e-16,8.574434942032948L-13.194698630837525,18.160944641550522L-8.154772225169292,2.649646114250549L-21.34947085600682,-6.936863585267019L-5.0399264056682345,-6.936863585267021Z" transform="translate(489.8690205011392,530.4525362615968)rotate(5.0807998845273)" fill="white" class="commune"><title>22278 Population : 44999</title></path></g><text class="text" y="40" x="427.5" text-anchor="middle" font-size="36" font-family="Helvetica" fill="#6baed6">22 - COTES D ARMOR</text><line x1="476.46924829157194" y1="528.0655391578099" x2="302.2722095671983" y2="497.0345768085802" stroke="yellow" opacity="0.35" stroke-width="2"/><line x1="278.29005315110106" y1="485.1299229185012" x2="140.71905846621127" y2="361.4003846967037" stroke="yellow" opacity="0.35" stroke-width="2"/><line x1="178.58200455580882" y1="367.3638174244894" x2="808.371298405467" y2="568.6179811075002" stroke="yellow" opacity="0.35" stroke-width="2"/><line x1="832.3534548215641" y1="580.5226349975793" x2="514.3321943811695" y2="534.0289718855955" stroke="yellow" opacity="0.35" stroke-width="2"/></svg>