<svg viewBox="0,0,954,1144.8" width="954" height="1144.8" style="width: 100%; height: auto;" xmlns="http://www.w3.org/2000/svg" xmlns:xlink="http://www.w3.org/1999/xlink"><rect width="954" height="1144.8" fill="black"/><g stroke="#000" stroke-opacity="0.2"><path d="M0,-15.873247654971056L3.5637661381291506,-4.905103281308338L15.096355617026989,-4.905103281308339L5.766294739448918,1.873582735131148L9.330060877578072,12.841727108793865L8.881784197001252e-16,6.063041092354379L-9.330060877578068,12.841727108793867L-5.766294739448918,1.8735827351311491L-15.09635561702699,-4.905103281308335L-3.563766138129152,-4.905103281308337Z" transform="translate(333.65450795901256,574.4262044029019)rotate(19.86243470674476)" fill="white" class="commune"><title>insee_com : 11206 
Population : 10066
 Nom : LIMOUX</title></path><path d="M0,-22.448162112566994L5.039926405668234,-6.936863585267022L21.349470856006818,-6.936863585267023L8.154772225169292,2.649646114250548L13.19469863083753,18.16094464155052L8.881784197001252e-16,8.574434942032948L-13.194698630837525,18.160944641550522L-8.154772225169292,2.649646114250549L-21.34947085600682,-6.936863585267019L-5.0399264056682345,-6.936863585267021Z" transform="translate(412.1289553393053,447.6539430215307)rotate(1.2550183047758767)" fill="white" class="commune"><title>insee_com : 11069 
Population : 46031
 Nom : CARCASSONNE</title></path><path d="M0,-22.448162112566994L5.039926405668234,-6.936863585267022L21.349470856006818,-6.936863585267023L8.154772225169292,2.649646114250548L13.19469863083753,18.16094464155052L8.881784197001252e-16,8.574434942032948L-13.194698630837525,18.160944641550522L-8.154772225169292,2.649646114250549L-21.34947085600682,-6.936863585267019L-5.0399264056682345,-6.936863585267021Z" transform="translate(791.3347296513502,470.19045588437075)rotate(4.941358007440981)" fill="white" class="commune"><title>insee_com : 11262 
Population : 54700
 Nom : NARBONNE</title></path></g><text class="text" y="40" x="427" text-anchor="middle" font-size="36" font-family="Helvetica" fill="#6baed6">11  - AUDE</text><line x1="406.89732551395247" y1="456.1054271136221" x2="338.8861377843654" y2="565.9747203108105" stroke="yellow" opacity="0.35" stroke-width="2"/><line x1="364.1665227385017" y1="567.4771545016665" x2="760.8227148718611" y2="477.13950578560616" stroke="yellow" opacity="0.35" stroke-width="2"/><line x1="766.0543446972139" y1="468.68802169351477" x2="437.40934029344163" y2="449.1563772123867" stroke="yellow" opacity="0.35" stroke-width="2"/></svg>