<svg viewBox="0,0,955,1146" width="955" height="1146" style="width: 100%; height: auto;" xmlns="http://www.w3.org/2000/svg" xmlns:xlink="http://www.w3.org/1999/xlink"><rect width="955" height="1146" fill="black"/><g stroke="#000" stroke-opacity="0.2"><path d="M0,-15.873247654971056L3.5637661381291506,-4.905103281308338L15.096355617026989,-4.905103281308339L5.766294739448918,1.873582735131148L9.330060877578072,12.841727108793865L8.881784197001252e-16,6.063041092354379L-9.330060877578068,12.841727108793867L-5.766294739448918,1.8735827351311491L-15.09635561702699,-4.905103281308335L-3.563766138129152,-4.905103281308337Z" transform="translate(483.14380044020527,726.281165837303)rotate(9.775052180757754)" fill="white" class="commune"><title>25462 Population : 17284</title></path><path d="M0,-18.876579049491834L4.238056047668955,-5.833183721955068L17.952693510379785,-5.833183721955069L6.857318731355415,2.2280779191642193L11.095374779024372,15.271473246700983L8.881784197001252e-16,7.210211605581696L-11.095374779024368,15.271473246700985L-6.857318731355414,2.2280779191642206L-17.952693510379788,-5.833183721955065L-4.238056047668956,-5.833183721955068Z" transform="translate(750.7263389581803,135.86390103338636)rotate(27.50380476509486)" fill="white" class="commune"><title>25388 Population : 25304</title></path><path d="M0,-26.69551410299918L5.993516340710753,-8.249367531402827L25.38894264350654,-8.249367531402829L9.697713151397894,3.150978011306063L15.69122949210865,21.597124582902413L1.7763568394002505e-15,10.196779040193524L-15.691229492108645,21.597124582902417L-9.697713151397892,3.1509780113060657L-25.388942643506542,-8.249367531402822L-5.993516340710755,-8.249367531402825Z" transform="translate(237.47248716067497,391.8202481657281)rotate(19.52066780541367)" fill="white" class="commune"><title>25056 Population : 116466</title></path></g><text class="text" y="40" x="427.5" text-anchor="middle" font-size="36" font-family="Helvetica" fill="#6baed6">25 - DOUBS</text><line x1="271.689410613842" y1="374.75649169023865" x2="716.5094155050133" y2="152.9276575088758" stroke="yellow" opacity="0.35" stroke-width="2"/><line x1="732.887503056982" y1="175.22505202031414" x2="500.98263634140363" y2="686.9200148503752" stroke="yellow" opacity="0.35" stroke-width="2"/><line x1="466.7657128882366" y1="703.9837713258646" x2="253.85057471264366" y2="414.11764267716643" stroke="yellow" opacity="0.35" stroke-width="2"/></svg>