<svg viewBox="0,0,955,1146" width="955" height="1146" style="width: 100%; height: auto;" xmlns="http://www.w3.org/2000/svg" xmlns:xlink="http://www.w3.org/1999/xlink"><rect width="955" height="1146" fill="black"/><g stroke="#000" stroke-opacity="0.2"><path d="M0,-13.34775705149959L2.9967581703553763,-4.1246837657014135L12.69447132175327,-4.124683765701414L4.848856575698947,1.5754890056530315L7.845614746054325,10.798562291451207L8.881784197001252e-16,5.098389520096762L-7.845614746054323,10.798562291451208L-4.848856575698946,1.5754890056530328L-12.694471321753271,-4.124683765701411L-2.9967581703553776,-4.124683765701413Z" transform="translate(661.3894960978632,235.3033003168457)rotate(29.06182659678308)" fill="white" class="commune"><title>02789 Population : 2526</title></path><path d="M0,-15.873247654971056L3.5637661381291506,-4.905103281308338L15.096355617026989,-4.905103281308339L5.766294739448918,1.873582735131148L9.330060877578072,12.841727108793865L8.881784197001252e-16,6.063041092354379L-9.330060877578068,12.841727108793867L-5.766294739448918,1.8735827351311491L-15.09635561702699,-4.905103281308335L-3.563766138129152,-4.905103281308337Z" transform="translate(346.81123862227287,928.1738629589236)rotate(28.30789001782511)" fill="white" class="commune"><title>02168 Population : 14847</title></path><path d="M0,-18.876579049491834L4.238056047668955,-5.833183721955068L17.952693510379785,-5.833183721955069L6.857318731355415,2.2280779191642193L11.095374779024372,15.271473246700983L8.881784197001252e-16,7.210211605581696L-11.095374779024368,15.271473246700985L-6.857318731355414,2.2280779191642206L-17.952693510379788,-5.833183721955065L-4.238056047668956,-5.833183721955068Z" transform="translate(485.59576397915134,474.025500507807)rotate(22.98475024745164)" fill="white" class="commune"><title>02408 Population : 25193</title></path><path d="M0,-18.876579049491834L4.238056047668955,-5.833183721955068L17.952693510379785,-5.833183721955069L6.857318731355415,2.2280779191642193L11.095374779024372,15.271473246700983L8.881784197001252e-16,7.210211605581696L-11.095374779024368,15.271473246700985L-6.857318731355414,2.2280779191642206L-17.952693510379788,-5.833183721955065L-4.238056047668956,-5.833183721955068Z" transform="translate(313.84991385001445,642.2204118397858)rotate(17.392505816461828)" fill="white" class="commune"><title>02722 Population : 28466</title></path><path d="M0,-22.448162112566994L5.039926405668234,-6.936863585267022L21.349470856006818,-6.936863585267023L8.154772225169292,2.649646114250548L13.19469863083753,18.16094464155052L8.881784197001252e-16,8.574434942032948L-13.194698630837525,18.160944641550522L-8.154772225169292,2.649646114250549L-21.34947085600682,-6.936863585267019L-5.0399264056682345,-6.936863585267021Z" transform="translate(287.24954648994617,224.54332455273834)rotate(24.67189252622935)" fill="white" class="commune"><title>02691 Population : 54443</title></path></g><text class="text" y="40" x="427.5" text-anchor="middle" font-size="36" font-family="Helvetica" fill="#6baed6">02 - AISNE</text><line x1="312.19220979714066" y1="225.2606562703455" x2="636.4468327906687" y2="234.58596859923856" stroke="yellow" opacity="0.35" stroke-width="2"/><line x1="649.6699139566158" y1="251.2181136629098" x2="497.31534612039883" y2="458.11068716174293" stroke="yellow" opacity="0.35" stroke-width="2"/><line x1="476.34346228869276" y1="504.3020580045481" x2="356.06354031273145" y2="897.8973054621824" stroke="yellow" opacity="0.35" stroke-width="2"/><line x1="344.61381697078895" y1="909.110299550981" x2="316.04733550149837" y2="661.2839752477283" stroke="yellow" opacity="0.35" stroke-width="2"/><line x1="312.0765560260099" y1="614.3752726873159" x2="289.02290431395073" y2="252.38846370520818" stroke="yellow" opacity="0.35" stroke-width="2"/></svg>