<svg viewBox="0,0,955,1146" width="955" height="1146" style="width: 100%; height: auto;" xmlns="http://www.w3.org/2000/svg" xmlns:xlink="http://www.w3.org/1999/xlink"><rect width="955" height="1146" fill="black"/><g stroke="#000" stroke-opacity="0.2"><path d="M0,-13.34775705149959L2.9967581703553763,-4.1246837657014135L12.69447132175327,-4.124683765701414L4.848856575698947,1.5754890056530315L7.845614746054325,10.798562291451207L8.881784197001252e-16,5.098389520096762L-7.845614746054323,10.798562291451208L-4.848856575698946,1.5754890056530328L-12.694471321753271,-4.124683765701411L-2.9967581703553776,-4.124683765701413Z" transform="translate(660.0877192982457,679.3548728192836)rotate(11.3619517550951)" fill="white" class="commune"><title>37132 Population : 6283</title></path><path d="M0,-13.34775705149959L2.9967581703553763,-4.1246837657014135L12.69447132175327,-4.124683765701414L4.848856575698947,1.5754890056530315L7.845614746054325,10.798562291451207L8.881784197001252e-16,5.098389520096762L-7.845614746054323,10.798562291451208L-4.848856575698946,1.5754890056530328L-12.694471321753271,-4.124683765701411L-2.9967581703553776,-4.124683765701413Z" transform="translate(156.84973302822272,627.5910131246783)rotate(20.569035489098574)" fill="white" class="commune"><title>37072 Population : 8214</title></path><path d="M0,-26.69551410299918L5.993516340710753,-8.249367531402827L25.38894264350654,-8.249367531402829L9.697713151397894,3.150978011306063L15.69122949210865,21.597124582902413L1.7763568394002505e-15,10.196779040193524L-15.691229492108645,21.597124582902417L-9.697713151397892,3.1509780113060657L-25.388942643506542,-8.249367531402822L-5.993516340710755,-8.249367531402825Z" transform="translate(468.18077803203664,397.6056861208708)rotate(9.771224219565308)" fill="white" class="commune"><title>37261 Population : 136565</title></path></g><text class="text" y="40" x="427.5" text-anchor="middle" font-size="36" font-family="Helvetica" fill="#6baed6">37 - INDRE ET LOIRE</text><line x1="190.39893211289092" y1="631.0419371043187" x2="626.5385202135775" y2="675.9039488396432" stroke="yellow" opacity="0.35" stroke-width="2"/><line x1="647.2939232138318" y1="660.5715937060561" x2="480.9745741164506" y2="416.38896523409835" stroke="yellow" opacity="0.35" stroke-width="2"/><line x1="447.4253750317824" y1="412.93804125445797" x2="177.60513602847698" y2="612.2586579910911" stroke="yellow" opacity="0.35" stroke-width="2"/></svg>