<svg viewBox="0,0,600,600" width="600" height="600" style="width: 100%; height: auto;" xmlns="http://www.w3.org/2000/svg" xmlns:xlink="http://www.w3.org/1999/xlink"><rect width="752" height="902.4" fill="black"/><g stroke="#000" stroke-opacity="0.2"><path d="M0,-15.873247654971056L3.5637661381291506,-4.905103281308338L15.096355617026989,-4.905103281308339L5.766294739448918,1.873582735131148L9.330060877578072,12.841727108793865L8.881784197001252e-16,6.063041092354379L-9.330060877578068,12.841727108793867L-5.766294739448918,1.8735827351311491L-15.09635561702699,-4.905103281308335L-3.563766138129152,-4.905103281308337Z" transform="translate(433.1072935503312,187.16442236322473)rotate(6.401314114675315)" fill="white" class="commune"><title>05023 Population : 11950</title></path><path d="M0,-22.448162112566994L5.039926405668234,-6.936863585267022L21.349470856006818,-6.936863585267023L8.154772225169292,2.649646114250548L13.19469863083753,18.16094464155052L8.881784197001252e-16,8.574434942032948L-13.194698630837525,18.160944641550522L-8.154772225169292,2.649646114250549L-21.34947085600682,-6.936863585267019L-5.0399264056682345,-6.936863585267021Z" transform="translate(239.49668474984924,336.5198820838923)rotate(14.468259644731301)" fill="white" class="commune"><title>05061 Population : 40805</title></path></g><text class="text" y="25" x="326" text-anchor="middle" font-size="24" font-family="Helvetica" fill="#6baed6">05 - HAUTES ALPES</text><line x1="420.19991963029906" y1="197.12145301126924" x2="252.40405866988138" y2="326.5628514358478" stroke="yellow" opacity="0.35" stroke-width="2"/><line x1="252.40405866988138" y1="326.5628514358478" x2="420.19991963029906" y2="197.12145301126924" stroke="yellow" opacity="0.35" stroke-width="2"/></svg>