<svg viewBox="0,0,600,600" width="600" height="600" style="width: 100%; height: auto;" xmlns="http://www.w3.org/2000/svg" xmlns:xlink="http://www.w3.org/1999/xlink"><rect width="752" height="902.4" fill="black"/><path d="M158.9678237990663,188.49693378741722L158.9678237990663,188.0482122733847L158.67763413610146,185.80446613538152L157.8070651472068,183.56048900353926L156.93649615831214,181.76514093904552L156.93649615831214,180.4185328261774L156.0659271694176,178.6229258964704L155.19535818052282,178.17400104525223L154.32478919162816,177.725066945477L153.4542202027335,177.27612359664636L152.87384087680368,176.37820914969416L153.16403053976865,175.48025770025197L153.16403053976865,175.48025770025197L153.16403053976865,175.031268098297L152.58365121383895,174.13326113734365L152.29346155087399,172.78618129551978L152.00327188790902,170.54086312355503L151.71308222494417,170.54086312355503L151.71308222494417,170.0917717191478L152.00327188790902,169.6426710568776L152.00327188790902,169.6426710568776L151.71308222494417,169.19356113620233L151.13270289901436,167.39702885916267L151.13270289901436,165.60034840630397L151.71308222494417,162.9050498246761L152.29346155087399,162.0065428402413L152.87384087680368,161.55727544746696L152.87384087680368,161.55727544746696L152.29346155087399,161.1079987869416L151.71308222494417,161.1079987869416L149.68175458419,162.0065428402413L146.48966829157632,161.55727544746696L145.3289096397167,161.1079987869416L144.45834065082215,160.65871285817047L143.87796132489234,159.76011319376994L143.29758199896264,159.76011319376994L142.71720267303283,159.76011319376994L143.00739233599768,159.31079945711463L143.5877716619275,157.51345180196222L143.5877716619275,157.06409170843835L143.29758199896264,157.06409170843835L142.71720267303283,155.71595578824054L141.5564440211732,154.8171521365257L141.5564440211732,154.8171521365257L141.84663368413817,154.3677363976276L142.13682334710313,153.9183113826839L143.00739233599768,153.46887709118164L144.1681509878572,153.01943352258968L145.3289096397167,152.5699806763696L146.77985795454128,151.22156646691656L147.36023728047087,150.77207650507262L148.23080626936564,149.87306874025307L148.81118559529534,149.87306874025307L148.81118559529534,149.87306874025307L148.23080626936564,148.97402385044188L148.23080626936564,147.6253868972526L148.5209959323305,145.37747295799272L149.1013752582603,144.47824238077374L148.5209959323305,144.0286131611756L147.36023728047087,142.67966977224205L147.07004761750613,142.23000339746068L147.07004761750613,141.78032773258747L147.07004761750613,141.78032773258747L147.36023728047087,141.78032773258747L148.23080626936564,139.53181003853751L148.5209959323305,138.18258790760592L147.65042694343583,137.28306001390956L147.65042694343583,137.7328286084121L147.07004761750613,136.83328212358902L146.77985795454128,136.3834949369084L146.77985795454128,136.3834949369084L143.00739233599768,136.83328212358902L141.5564440211732,137.28306001390956L141.26625435820847,136.83328212358902L140.97606469524362,134.13441954002337L140.97606469524362,133.68457656429018L140.68587503227855,133.23472428856985L140.10549570634896,132.33499183503227L142.42701301006798,130.9853233916765L143.87796132489234,129.63557122014754L145.03871997675185,128.73568991652428L145.3289096397167,128.73568991652428L146.48966829157632,128.28573530635913L146.19947862861136,128.28573530635913L147.36023728047087,127.83577138994224L148.5209959323305,127.38579816672791L148.81118559529534,127.38579816672791L148.81118559529534,126.48582379787695L148.5209959323305,126.0358226511853L148.23080626936564,125.58581219562984L148.23080626936564,124.68576335578837L147.65042694343583,122.43547831438991L147.36023728047087,119.28468809364495L147.07004761750613,119.28468809364495L147.36023728047087,117.9342096874243L147.36023728047087,117.48403158283327L147.07004761750613,116.5836474166972L146.77985795454128,116.1334413541299L145.61909930268178,115.23300126735921L144.7485303137871,114.33252389490735L144.45834065082215,113.88227122526223L144.1681509878572,113.43200923261611L144.7485303137871,112.53145727629453L145.03871997675185,112.53145727629453L145.3289096397167,112.08116731155314L145.3289096397167,111.63086802174439L146.77985795454128,110.73024146478565L147.9406166064008,110.73024146478565L148.5209959323305,110.73024146478565L148.81118559529534,111.63086802174439L148.81118559529534,112.08116731155314L148.5209959323305,113.43200923261611L148.23080626936564,114.78276724210082L148.23080626936564,115.68322597118458L148.5209959323305,116.1334413541299L149.1013752582603,116.5836474166972L149.39156492122527,116.5836474166972L149.39156492122527,116.5836474166972L149.68175458419,116.1334413541299L149.39156492122527,115.68322597118458L150.55232357308478,114.33252389490735L152.00327188790902,113.88227122526223L154.0345995286633,112.98173791647423L154.614978854593,112.53145727629453L155.19535818052282,112.08116731155314L156.35611683238233,110.73024146478565L157.8070651472068,109.37923167816916L158.09725481017165,108.9288764268822L158.3874444731366,108.9288764268822L158.67763413610146,108.47851184686442L158.3874444731366,106.67696022884775L158.09725481017165,105.77612843376846L157.8070651472068,105.32569853787936L157.8070651472068,103.07340905390083L158.09725481017165,102.62292315254308L158.3874444731366,102.17242791510216L158.9678237990663,102.17242791510216L159.25801346203116,101.72192334105421L159.54820312499623,101.27140942989354L158.9678237990663,99.01869979878757L158.67763413610146,98.11755056810944L158.9678237990663,97.21636397212569L158.67763413610146,96.31514000667084L158.09725481017165,95.41387866752484L157.8070651472068,94.96323398151435L158.09725481017165,94.512579950504L159.83839278796097,93.16056178224244L159.54820312499623,93.16056178224244L160.12858245092582,91.35774002945982L160.99915143982048,90.0055255501502L161.5795307657503,89.10400247763391L161.86972042871514,88.20244199782246L161.86972042871514,88.20244199782246L162.45009975464495,87.30084410654308L163.03047908057465,86.39920879954661L163.3206687435395,85.04668567544286L163.9010480694693,85.04668567544286L163.9010480694693,85.04668567544286L164.19123773243416,85.04668567544286L164.77161705836397,85.04668567544286L165.35199638429378,85.04668567544286L165.93237571022348,84.59582592168226L166.80294469911814,83.2431905158046L167.093134362083,82.34138678616728L169.12446200283728,80.98861099258284L169.70484132876697,80.53766700618871L170.57541031766164,80.53766700618871L171.73616896952115,80.08671365799091L172.0263586324861,78.73379743726036L171.73616896952115,78.73379743726036L171.4459793065563,78.73379743726036L171.15578964359133,78.73379743726036L170.57541031766164,78.2828066365546L170.57541031766164,78.2828066365546L169.99503099173182,77.83180647141126L171.15578964359133,76.02771215588655L172.0263586324861,74.67454306682339L172.31654829545084,74.2234679672074L172.6067379584158,73.77238349840263L171.4459793065563,73.32128965988886L171.15578964359133,73.32128965988886L171.15578964359133,72.4190738716643L171.73616896952115,71.9679519208803L172.89692762138077,70.61452983554409L173.47730694731035,70.61452983554409L173.76749661027543,70.61452983554409L174.05768627324028,70.16337039434438L174.05768627324028,70.16337039434438L176.08901391399445,68.3586388850963L178.70072088067843,66.55375735940106L180.44185885846764,65.6512603298288L181.8928071732921,64.29744444022799L182.47318649922192,63.84615371618929L182.76337616218666,63.39485361084007L182.47318649922192,62.94354412367102L182.76337616218666,62.94354412367102L182.47318649922192,62.49222525413643L181.31242784736241,62.49222525413643L180.44185885846764,61.589559365897L179.86147953253794,61.138212346129876L178.99091054364328,62.04089700173063L176.66939323992426,62.04089700173063L174.34787593620513,61.138212346129876L173.47730694731035,61.138212346129876L173.18711728434562,60.235490152670536L173.18711728434562,59.784114977930585L173.18711728434562,59.332730417125276L172.6067379584158,58.429933135266765L171.73616896952115,60.68685594190538L170.2852206546968,60.68685594190538L169.12446200283728,59.784114977930585L170.2852206546968,58.881336469741655L170.86559998062648,57.52709830287131L172.0263586324861,55.72131596956751L173.18711728434562,53.012360734981485L173.47730694731035,52.560835320058686L173.76749661027543,51.657756306191004L172.89692762138077,51.657756306191004L173.47730694731035,50.75463971008139L174.05768627324028,50.75463971008139L174.05768627324028,51.20620270618019L174.34787593620513,50.75463971008139L175.7988242510295,50.30306731737801L178.1203415547485,49.85148552752071L180.7320485214326,48.948293754274346L181.31242784736241,48.948293754274346L183.05356582515162,48.0450643861077L185.37508312887076,46.690149834124895L185.95546245480057,46.23849284807875L186.53584178073027,45.786826460145676L187.11622110666008,45.3351506697727L188.56716942148432,43.980066878779326L189.14754874741425,43.528353473382595L190.0181177363089,42.624898446836596L190.88868672520346,42.1731568246214L192.04944537706297,42.624898446836596L193.50039369188755,42.624898446836596L194.66115234374706,42.1731568246214L194.66115234374706,42.1731568246214L194.9513420067119,42.624898446836596L194.9513420067119,42.624898446836596L194.9513420067119,43.528353473382595L198.7238076252553,45.3351506697727L198.7238076252553,43.528353473382595L198.7238076252553,43.076630662912066L198.7238076252553,42.624898446836596L198.7238076252553,42.1731568246214L199.01399728822014,41.721405795738974L200.4649456030446,42.1731568246214L202.49627324379878,43.076630662912066L202.49627324379878,43.076630662912066L202.49627324379878,43.076630662912066L204.23741122158822,45.786826460145676L204.52760088455295,46.23849284807875L203.94722155862326,46.690149834124895L203.0766525697287,47.14179741879343L204.23741122158822,48.0450643861077L204.81779054751792,49.39989434000017L207.13930785123694,49.39989434000017L208.30006650309645,48.948293754274346L210.04120448088577,48.49668376981572L210.91177346978043,48.0450643861077L210.91177346978043,48.49668376981572L213.5234804364644,47.59343560260095L214.68423908832392,47.14179741879343L215.55480807721858,47.59343560260095L216.42537706611324,48.0450643861077L217.00575639204305,48.49668376981572L218.4567047068674,48.948293754274346L219.03708403279722,48.948293754274346L219.32727369576207,48.948293754274346L219.61746335872692,48.49668376981572L220.77822201058655,48.49668376981572L221.6487909994812,48.49668376981572L221.93898066244606,48.0450643861077L222.51935998837564,46.690149834124895L223.09973931430557,44.431770879615215L224.55068762913004,43.980066878779326L225.13106695505974,43.076630662912066L225.4212566180246,41.721405795738974L225.4212566180246,41.721405795738974L225.4212566180246,41.269645359669084L225.4212566180246,41.269645359669084L225.4212566180246,40.36609626382051L226.00163594395428,40.36609626382051L226.5820152698842,39.914307602979534L228.90353257360323,39.914307602979534L230.64467055139244,39.914307602979534L232.96618785511146,39.46250953283743L234.41713616993593,41.269645359669084L235.86808448476052,42.1731568246214L237.31903279958487,41.721405795738974L237.89941212551457,42.1731568246214L239.35036044033905,40.817875515866035L239.640550103304,40.36609626382051L240.51111909219867,41.269645359669084L242.25225706998776,42.624898446836596L243.12282605888242,43.980066878779326L243.70320538481224,44.431770879615215L243.9933950477772,44.431770879615215L244.5737743737069,44.431770879615215L245.1541536996367,43.980066878779326L246.02472268853126,43.076630662912066L247.18548134039088,43.980066878779326L247.76586066632058,44.88346547644687L248.05605032928554,44.88346547644687L248.63642965521535,44.88346547644687L248.05605032928554,46.23849284807875L249.21680898114505,46.23849284807875L250.37756763300456,46.23849284807875L251.24813662189922,46.23849284807875L253.56965392561824,46.23849284807875L255.0206022404427,46.23849284807875L256.76174021823215,46.690149834124895L259.66363684788087,47.14179741879343L259.9538265108457,46.690149834124895L260.2440161738107,46.23849284807875L260.8243954997404,46.690149834124895L261.69496448863504,46.690149834124895L266.04780943310834,47.59343560260095L266.3379990960732,47.59343560260095L266.3379990960732,47.59343560260095L267.4987577479327,46.23849284807875L268.6595163997922,44.431770879615215L270.1104647146167,43.076630662912066L270.40065437758153,42.624898446836596L270.6908440405464,41.721405795738974L270.6908440405464,41.269645359669084L270.6908440405464,40.817875515866035L270.6908440405464,40.817875515866035L270.98103370351134,39.914307602979534L271.8516026924059,40.36609626382051L272.14179235537085,40.36609626382051L272.4319820183357,40.36609626382051L274.1731199961249,39.914307602979534L276.2044476368791,39.914307602979534L277.3652062887388,39.46250953283743L277.07501662577386,39.010702052841225L277.65539595170367,38.55888516247069L277.07501662577386,38.10705886121286L277.65539595170367,36.29965953652572L278.23577527763337,35.395903395008645L279.9769132554227,35.395903395008645L281.1376719072823,34.94401120260227L281.1376719072823,34.492109595044894L281.1376719072823,33.136348276239005L281.1376719072823,32.68440900282076L281.1376719072823,31.780502202091157L281.718051233212,31.780502202091157L284.3297581998959,31.780502202091157L284.9101375258258,31.780502202091157L285.20032718879065,31.780502202091157L285.4905168517555,31.780502202091157L286.94146516658,31.780502202091157L288.10222381843937,31.780502202091157L288.3924134814042,32.232460311617615L288.6826031443693,32.232460311617615L288.97279280733414,32.232460311617615L290.71393078512347,33.588278132399864L291.584499774018,34.492109595044894L291.87468943698286,34.94401120260227L292.1648790999477,34.94401120260227L292.45506876291256,34.94401120260227L294.7765860666318,35.395903395008645L295.6471550555266,36.29965953652572L296.807913707386,37.20337802384529L297.9686723592456,38.10705886121286L298.5490516851751,38.55888516247069L299.41962067406985,39.46250953283743L299.7098103370347,40.36609626382051L300.2901896629646,41.269645359669084L300.2901896629646,41.269645359669084L300.58037932592947,41.721405795738974L300.58037932592947,42.1731568246214L300.58037932592947,42.624898446836596L300.58037932592947,42.624898446836596L300.8705689888941,43.528353473382595L301.450948314824,43.980066878779326L302.0313276407537,44.88346547644687L302.61170696668364,43.980066878779326L302.61170696668364,43.980066878779326L302.9018966296485,43.980066878779326L303.77246561854304,43.528353473382595L304.6430346074378,43.076630662912066L304.9332242704029,42.624898446836596L305.22341393336774,42.1731568246214L305.22341393336774,42.1731568246214L306.38417258522713,42.1731568246214L306.674362248192,42.1731568246214L306.674362248192,42.1731568246214L306.96455191115683,41.721405795738974L307.8351209000514,39.914307602979534L308.995879551911,39.46250953283743L310.7370175297003,39.010702052841225L312.18796584452457,39.914307602979534L314.5094831482438,41.721405795738974L315.0898624741735,41.721405795738974L315.3800521371386,40.36609626382051L315.9604314630683,38.55888516247069L315.9604314630683,38.55888516247069L313.63891415934927,38.10705886121286L313.05853483341934,37.20337802384529L313.9291038223141,36.75152348670599L314.21929348527897,36.29965953652572L314.5094831482438,36.29965953652572L314.79967281120867,35.847786172802444L314.79967281120867,35.395903395008645L314.79967281120867,35.395903395008645L315.0898624741735,34.492109595044894L314.79967281120867,34.492109595044894L314.79967281120867,34.04019857181629L314.79967281120867,34.04019857181629L314.79967281120867,34.04019857181629L315.3800521371386,33.136348276239005L316.5408107889982,31.780502202091157L316.83100045196284,31.32853467370296L316.83100045196284,31.32853467370296L317.7015694408576,31.32853467370296L319.15251775568186,30.87655772595099L319.15251775568186,30.87655772595099L319.4427074186467,30.87655772595099L319.73289708161155,30.87655772595099L320.3132764075415,30.42457135827499L322.0544143853308,29.52057036107726L323.5053627001553,28.616531677867897L324.3759316890498,28.616531677867897L325.53669034090944,28.164498202673713L328.14839730759354,26.80834123643217L329.88953528538264,26.35627006568029L329.88953528538264,25.90418946970749L330.1797249483475,25.90418946970749L330.7601042742772,25.45209944799717L330.7601042742772,25.45209944799717L331.3404836002071,25.000000000003638L333.3718112409613,27.260402982490632L333.6620009039261,27.260402982490632L333.952190566891,27.260402982490632L335.40313888171545,28.164498202673713L336.2737078706102,28.616531677867897L337.4344665224696,29.068555730493244L339.75598382618864,31.32853467370296L340.0461734891535,31.32853467370296L340.33636315211834,32.232460311617615L340.6265528150832,32.232460311617615L341.49712180397796,32.232460311617615L343.52844944473236,32.68440900282076L345.8499667484514,33.136348276239005L347.5911047262405,33.136348276239005L348.46167371513525,33.136348276239005L348.75186337809987,34.04019857181629L349.62243236699464,35.395903395008645L349.3322427040298,35.395903395008645L349.3322427040298,35.395903395008645L349.9126220299595,35.395903395008645L350.78319101885427,34.94401120260227L352.5243289966436,34.492109595044894L353.97527731146806,34.04019857181629L354.2654669744329,34.04019857181629L354.2654669744329,34.04019857181629L354.8458463003626,34.04019857181629L355.71641528925716,34.492109595044894L356.006604952222,34.492109595044894L356.006604952222,34.492109595044894L356.58698427815193,35.395903395008645L357.16736360408163,36.29965953652572L358.0379325929762,37.20337802384529L358.90850158187095,37.6552231485075L359.48888090780065,37.6552231485075L359.48888090780065,38.10705886121286L360.3594498966952,38.55888516247069L360.6496395596603,38.55888516247069L360.6496395596603,38.55888516247069L360.9398292226251,38.55888516247069L361.23001888558997,38.10705886121286L361.23001888558997,38.10705886121286L361.23001888558997,38.10705886121286L364.71229484116884,35.395903395008645L365.00248450413346,35.395903395008645L366.743622481923,34.492109595044894L367.03381214488763,34.492109595044894L367.03381214488763,34.94401120260227L367.03381214488763,34.94401120260227L368.4847604597121,36.75152348670599L369.9357087745366,38.10705886121286L370.5160881004663,38.55888516247069L372.54741574122045,38.55888516247069L375.15912270790454,39.010702052841225L375.73950203383424,39.010702052841225L376.6100710227288,39.46250953283743L377.7708296745884,39.46250953283743L378.06101933755326,39.914307602979534L378.9315883264478,41.269645359669084L380.67272630423736,41.721405795738974L380.3825366412725,42.624898446836596L379.51196765237773,43.076630662912066L378.9315883264478,43.076630662912066L378.64139866348296,43.528353473382595L379.8021573153426,44.431770879615215L381.25310563016706,45.786826460145676L381.5432952931319,46.690149834124895L381.25310563016706,48.0450643861077L381.25310563016706,50.75463971008139L381.25310563016706,51.657756306191004L381.25310563016706,51.657756306191004L382.4138642820267,51.657756306191004L382.9942436079564,50.75463971008139L383.8648125968509,49.85148552752071L384.7353815857457,48.948293754274346L386.76670922649987,47.59343560260095L389.0882265302189,46.690149834124895L390.2489851820783,46.23849284807875L391.699933496903,44.431770879615215L391.699933496903,43.980066878779326L391.699933496903,43.980066878779326L393.4410714746921,44.431770879615215L395.1822094524814,43.980066878779326L396.9233474302705,43.076630662912066L398.66448540806005,43.076630662912066L398.9546750710249,42.624898446836596L399.24486473398974,43.980066878779326L399.5350543969546,43.980066878779326L400.40562338584937,43.076630662912066L401.56638203770876,41.721405795738974L404.17808900439286,40.36609626382051L405.91922698218195,39.46250953283743L407.3701752970064,38.10705886121286L408.53093394886605,36.75152348670599L408.8211236118309,36.29965953652572L410.85245125258507,37.20337802384529L411.1426409155499,37.6552231485075L411.432830578515,38.55888516247069L412.0132099044447,39.914307602979534L412.5935892303746,42.624898446836596L412.5935892303746,43.076630662912066L412.88377889333924,43.528353473382595L412.5935892303746,43.980066878779326L412.5935892303746,44.431770879615215L411.432830578515,46.690149834124895L411.1426409155499,47.59343560260095L410.85245125258507,48.49668376981572L410.2720719266556,49.85148552752071L409.9818822636905,50.75463971008139L409.6916926007257,51.20620270618019L409.11131327479575,52.560835320058686L408.240744285901,54.36688061802488L408.240744285901,54.81836846021906L408.240744285901,55.26984691054895L408.240744285901,55.72131596956751L408.53093394886605,58.881336469741655L409.4015029377608,58.429933135266765L410.85245125258507,58.429933135266765L412.30339956740977,57.978520413147635L415.4954858600231,57.978520413147635L416.3660548489179,59.784114977930585L416.9464341748478,61.138212346129876L417.23662383781266,62.04089700173063L417.5268135007773,62.49222525413643L417.5268135007773,62.49222525413643L419.26795147856683,62.49222525413643L420.4287101304262,62.49222525413643L420.1385204674614,62.94354412367102L421.8796584452507,63.84615371618929L422.1698481082153,63.84615371618929L423.33060676007517,64.29744444022799L423.91098608600487,63.84615371618929L423.91098608600487,63.39485361084007L423.91098608600487,63.39485361084007L423.91098608600487,62.49222525413643L427.9736413675132,62.49222525413643L430.5853483341973,62.94354412367102L431.4559173230916,62.94354412367102L432.90686563791655,63.39485361084007L433.487244963846,63.84615371618929L436.0989519305299,64.74872578350187L436.6793312564598,65.19999774653115L437.2597105823895,65.19999774653115L437.84008990831944,65.6512603298288L438.13027957128406,66.10251353394779L438.13027957128406,67.9074325690417L438.13027957128406,67.9074325690417L438.13027957128406,68.80983582513L437.84008990831944,68.80983582513L438.13027957128406,69.7122015792338L438.4204692342489,70.16337039434438L438.710658897214,70.16337039434438L439.2910382231437,70.16337039434438L439.2910382231437,70.16337039434438L441.032176200933,69.2610233896703L442.48312451575725,68.80983582513L443.9340728305817,68.3586388850963L443.9340728305817,68.3586388850963L444.2242624935468,68.3586388850963L444.5144521565119,69.2610233896703L444.8046418194763,69.2610233896703L445.67521080837105,68.3586388850963L447.1261591231955,67.45621687641324L447.9967281120903,67.45621687641324L448.86729710098507,67.9074325690417L451.4790040676687,67.00499180670886L454.38090069731766,65.6512603298288L454.96128002324735,65.6512603298288L454.96128002324735,65.6512603298288L455.25146968621243,65.6512603298288L455.25146968621243,65.6512603298288L455.25146968621243,66.10251353394779L455.5416593491773,66.10251353394779L456.12203867510675,67.00499180670886L456.4122283380718,67.00499180670886L458.73374564179085,67.45621687641324L460.4748836195804,67.00499180670886L462.2160215973697,66.55375735940106L462.50621126033434,66.55375735940106L462.7964009232994,66.55375735940106L463.3767802492289,66.55375735940106L464.24734923812366,66.55375735940106L464.24734923812366,66.55375735940106L464.53753890108874,67.00499180670886L464.53753890108874,67.00499180670886L464.82772856405336,67.00499180670886L465.11791822701844,67.00499180670886L465.11791822701844,67.45621687641324L465.6982975529479,68.3586388850963L466.5688665418427,68.80983582513L468.01981485666715,69.2610233896703L469.4707631714916,69.7122015792338L471.21190114928095,70.61452983554409L471.502090812246,71.06567990334952L471.502090812246,71.5168205982809L471.502090812246,71.9679519208803L471.21190114928095,72.4190738716643L470.92171148631587,74.2234679672074L470.63152182335125,75.12560879779994L471.21190114928095,76.4787497840698L471.21190114928095,76.4787497840698L471.502090812246,76.4787497840698L472.3726598011401,75.57666516065001L472.95303912707027,75.57666516065001L474.11379777892967,75.57666516065001L475.2745564307893,75.12560879779994L476.14512541968406,75.12560879779994L479.0470220493328,75.12560879779994L481.3685393530518,75.12560879779994L481.6587290160164,75.12560879779994L481.3685393530518,76.02771215588655L481.3685393530518,76.92977804569819L481.07834969008695,79.18477887404151L479.91759103822756,81.43954561768624L479.0470220493328,82.34138678616728L478.17645306043823,84.14495681082917L478.17645306043823,85.04668567544286L477.88626339747316,87.75164772888093L477.88626339747316,89.10400247763391L477.88626339747316,90.45627305999369L477.30588407154346,91.80845949013019L477.0156944085784,94.06191657396266L477.30588407154346,95.41387866752484L478.4666427234031,96.76575666085046L478.4666427234031,96.76575666085046L478.75683238636793,96.76575666085046L480.49797036415725,96.76575666085046L481.6587290160164,96.76575666085046L481.6587290160164,97.21636397212569L481.6587290160164,97.21636397212569L481.6587290160164,97.21636397212569L481.6587290160164,99.01869979878757L482.2391083419466,99.46926040346443L484.85081530863044,99.91981166838013L487.17233261234946,99.46926040346443L487.75271193827916,99.46926040346443L487.75271193827916,99.46926040346443L488.3330912642091,99.46926040346443L488.3330912642091,99.91981166838013L487.17233261234946,104.87525930904667L487.46252227531454,106.22654899724512L487.75271193827916,107.1273621290893L487.75271193827916,109.82957760123463L487.46252227531454,111.63086802174439L487.46252227531454,114.78276724210082L486.59195328641977,117.9342096874243L486.59195328641977,118.38437847375098L486.3017636234547,119.28468809364495L486.3017636234547,120.63508264948905L484.85081530863044,122.43547831438991L483.6900566567708,123.3356202664545L481.6587290160164,124.68576335578837L481.6587290160164,124.68576335578837L481.3685393530518,125.58581219562984L480.78816002712233,128.28573530635913L480.78816002712233,129.63557122014754L480.78816002712233,130.08549791464975L479.91759103822756,130.08549791464975L479.0470220493328,130.9853233916765L478.75683238636793,132.78486271231668L478.17645306043823,135.03407759355832L478.17645306043823,136.83328212358902L477.88626339747316,139.9815321617134L476.14512541968406,143.57897465357746L478.4666427234031,144.0286131611756L478.17645306043823,144.92786231287027L477.88626339747316,146.27666638941082L478.4666427234031,147.17582267917896L479.6274013752625,148.97402385044188L479.91759103822756,148.97402385044188L479.91759103822756,149.42355093622973L479.0470220493328,151.22156646691656L478.75683238636793,151.671047149066L478.4666427234031,152.12051855204118L477.30588407154346,153.01943352258968L475.56474609375414,153.9183113826839L474.9843667678242,154.3677363976276L474.69417710485936,154.8171521365257L474.69417710485936,156.1653437021123L474.9843667678242,157.06409170843835L475.56474609375414,157.96280262306755L476.14512541968406,159.31079945711463L476.72550474561353,158.8614764501217L477.0156944085784,158.8614764501217L477.30588407154346,158.8614764501217L477.88626339747316,158.4121441722782L478.17645306043823,158.4121441722782L478.4666427234031,158.4121441722782L479.91759103822756,158.4121441722782L481.07834969008695,159.31079945711463L483.10967733084135,161.1079987869416L484.2704359827005,163.35428941736973L484.85081530863044,164.25274080628515L485.1410049715953,164.7019526035583L486.01157396048984,165.60034840630397L486.3017636234547,166.0495324128242L486.01157396048984,166.0495324128242L486.01157396048984,166.49870715678844L485.7213842975252,166.49870715678844L484.5606256456656,167.39702885916267L483.10967733084135,167.84617581861676L482.5292980049112,168.29531351759215L481.9489186789815,168.74444195660908L481.3685393530518,169.19356113620233L481.07834969008695,170.0917717191478L480.78816002712233,170.0917717191478L480.49797036415725,170.54086312355503L479.91759103822756,172.3371361727368L479.6274013752625,173.6842437773048L479.6274013752625,176.82717099821457L479.6274013752625,176.82717099821457L479.6274013752625,177.27612359664636L479.91759103822756,177.27612359664636L480.49797036415725,177.27612359664636L480.49797036415725,177.725066945477L479.3372117122974,178.6229258964704L479.3372117122974,178.6229258964704L479.3372117122974,178.6229258964704L478.75683238636793,179.07184149964814L478.17645306043823,179.52074785532022L477.88626339747316,179.52074785532022L476.4353150826489,180.4185328261774L475.56474609375414,180.4185328261774L475.2745564307893,180.4185328261774L475.2745564307893,180.4185328261774L474.9843667678242,180.4185328261774L474.40398744189474,180.4185328261774L474.11379777892967,180.4185328261774L473.53341845299997,180.86741144241387L473.53341845299997,181.31628081318922L473.2432287900349,181.31628081318922L472.6628494641052,181.76514093904552L472.0824701381757,183.11166585222236L471.79228047521065,183.11166585222236L471.502090812246,183.11166585222236L470.3413321603862,184.00930291252007L469.4707631714916,184.00930291252007L469.4707631714916,184.00930291252007L469.7609528344567,184.9069030055325L469.7609528344567,184.9069030055325L469.1805735085268,186.70199230622165L468.60019418259685,188.0482122733847L468.310004519632,188.49693378741722L467.43943553073746,189.39434910603086L467.43943553073746,189.84304291164517L467.43943553073746,190.74040281811904L467.7296251937021,191.6377257883105L467.7296251937021,191.6377257883105L466.85905620480776,191.6377257883105L466.27867687887783,192.08637342360453L465.988487215913,192.08637342360453L464.82772856405336,192.53501182636683L463.9571595751586,192.98364099713945L462.50621126033434,193.4322609364317L461.92583193440464,193.4322609364317L461.92583193440464,193.88087164474564L461.92583193440464,193.88087164474564L459.6043146306856,194.77806537054857L457.8631766528963,195.22664838907076L457.8631766528963,195.22664838907076L457.8631766528963,195.22664838907076L456.9926076640015,195.67522217867372L456.4122283380718,197.02088817928598L456.12203867510675,198.36647113836807L456.7024180010367,199.71197106986074L455.83184901214213,201.5058418485678L455.5416593491773,201.5058418485678L455.5416593491773,201.5058418485678L454.6710903602825,201.05738798769744L451.76919373063356,201.05738798769744L450.898624741739,201.05738798769744L450.898624741739,201.95428648777306L450.60843507877416,203.74797283813677L450.02805575284424,205.98987335026322L449.7378660898796,208.23154344944487L449.44767642691454,209.5764349375131L449.44767642691454,210.02471367473117L449.44767642691454,210.47298320005575L449.7378660898796,211.81773650992182L450.02805575284424,212.71419266653174L450.3182454158093,213.61061198799507L448.86729710098507,216.74778959563628L448.86729710098507,216.74778959563628L448.28691777505514,217.1959210045461L448.28691777505514,217.6440432098243L447.9967281120903,217.6440432098243L447.9967281120903,217.6440432098243L447.41634878616037,220.33258319375818L447.7065384491252,221.22868958258186L446.5457797972658,220.78064098793038L445.3850211454062,220.78064098793038L443.6438831676171,221.22868958258186L443.06350384168695,222.57278017448698L442.19293485279286,222.57278017448698L441.032176200933,222.57278017448698L438.710658897214,222.12475917534903L436.0989519305299,220.33258319375818L434.0676242897757,218.98835460892224L433.487244963846,218.98835460892224L432.90686563791655,219.43644000476343L431.4559173230916,219.88451619953776L430.0049690082674,220.33258319375818L429.1344000193726,220.33258319375818L429.1344000193726,220.33258319375818L428.2638310304783,219.88451619953776L427.9736413675132,219.43644000476343L427.9736413675132,219.43644000476343L427.9736413675132,218.98835460892224L427.9736413675132,218.98835460892224L427.3932620415835,218.98835460892224L426.8128827156536,218.98835460892224L425.94231372675927,218.98835460892224L425.6521240637942,220.33258319375818L425.6521240637942,220.78064098793038L425.94231372675927,221.22868958258186L426.2325033897239,221.22868958258186L426.2325033897239,222.57278017448698L425.6521240637942,224.36477220151573L425.0717447378645,225.70866966812537L423.33060676007517,225.70866966812537L422.1698481082153,225.70866966812537L421.299279119321,225.70866966812537L421.299279119321,226.15661710190398L421.299279119321,227.05248438987837L421.8796584452507,227.94831490852812L423.33060676007517,229.7398656542755L424.49136541193434,231.0834322246701L425.0717447378645,231.97909733219421L427.68345170454836,236.00913563451832L429.1344000193726,236.00913563451832L429.71477934530253,238.24772440626475L431.165727660127,238.24772440626475L431.4559173230916,237.80002501296258L432.90686563791655,238.24772440626475L433.1970553008812,238.6954146200551L433.1970553008812,238.6954146200551L432.90686563791655,239.5907675112103L431.165727660127,239.14309565486838L430.87553799716216,240.0384301895756L430.87553799716216,241.38136316205055L431.165727660127,240.93372801449368L432.0362966490218,240.93372801449368L432.0362966490218,242.2766059299538L432.0362966490218,242.72421355132974L432.0362966490218,244.0669813712375L431.7461069860567,244.96211405279973L431.4559173230916,245.8572100471174L431.4559173230916,246.75226935828323L432.0362966490218,247.64729199039357L432.90686563791655,248.54227794755207L434.6480036157054,248.54227794755207L436.38914159349474,248.98975717429857L436.38914159349474,248.98975717429857L435.80876226756504,249.43722723384417L436.0989519305299,249.43722723384417L435.80876226756504,251.22701581022193L434.3578139527408,251.67444004143545L432.90686563791655,253.01665775230504L432.0362966490218,254.80615309280984L432.3264863119864,254.80615309280984L432.0362966490218,255.70084579770264L431.165727660127,257.04281615986474L430.5853483341973,257.4901212972545L429.4245896823377,257.93741727714223L428.84421035640776,257.93741727714223L428.55402069344314,257.93741727714223L428.2638310304783,260.6210008779999L429.1344000193726,260.6210008779999L429.71477934530253,260.6210008779999L431.4559173230916,261.06823276981595L433.77743462681065,261.5154555082481L434.9381932786705,261.96266909379483L435.80876226756504,261.96266909379483L436.0989519305299,264.19859974612336L436.0989519305299,265.0929079547459L436.38914159349474,266.8814145904835L436.38914159349474,267.3285183812586L436.6793312564598,268.2226985245652L436.38914159349474,269.5639001516174L435.80876226756504,270.9050194854244L435.80876226756504,270.9050194854244L436.0989519305299,271.3520409783414L436.0989519305299,272.6930506092358L434.9381932786705,273.5870113283745L433.77743462681065,271.3520409783414L432.90686563791655,270.010949072559L432.3264863119864,270.45798885032855L431.4559173230916,270.9050194854244L430.5853483341973,271.79905332961425L430.5853483341973,272.2460565397523L431.4559173230916,274.03397797901926L431.7461069860567,274.4809354910685L432.0362966490218,274.9278838650498L430.5853483341973,276.2686741635662L428.2638310304783,276.71558599030686L426.52269305268874,277.16248868149705L425.94231372675927,276.71558599030686L425.6521240637942,278.05626665932505L425.6521240637942,278.05626665932505L425.94231372675927,282.5246085895633L426.2325033897239,286.9920376284208L426.2325033897239,287.88541393400374L426.2325033897239,289.22540997262695L426.2325033897239,293.6914706285752L426.2325033897239,294.1380265467087L426.52269305268874,295.0311110364055L426.8128827156536,295.9241590674246L427.9736413675132,296.37066941218654L428.55402069344314,297.26366276278713L429.71477934530253,299.49598668586987L430.29515867123246,300.38885248440056L430.87553799716216,302.620857589518L432.0362966490218,303.0672312903953L432.6166759749515,304.4062977618669L432.3264863119864,304.4062977618669L431.7461069860567,304.4062977618669L431.7461069860567,304.4062977618669L431.4559173230916,304.4062977618669L431.4559173230916,304.4062977618669L431.165727660127,304.4062977618669L430.5853483341973,304.85263504366594L427.68345170454836,305.7452822972409L425.6521240637942,307.53046757863194L425.3619344008291,307.53046757863194L425.0717447378645,307.9767411465691L424.7815550748994,308.4230056145425L425.0717447378645,308.8692609830796L425.3619344008291,309.76174442383854L426.8128827156536,312.4389764121843L426.52269305268874,314.22361583331804L426.2325033897239,317.792458250904L427.68345170454836,317.3463847648309L428.2638310304783,317.792458250904L428.55402069344314,320.0226893592553L427.9736413675132,322.6986668477948L427.9736413675132,323.590586672668L426.52269305268874,325.8202273047209L425.6521240637942,326.71201999611003L425.3619344008291,330.7246377707197L424.7815550748994,330.7246377707197L424.7815550748994,332.50778749881647L424.7815550748994,332.50778749881647L425.0717447378645,334.29079207299947L424.7815550748994,336.9650268414225L424.49136541193434,343.2036387662665L423.33060676007517,343.2036387662665L420.7188997933911,343.2036387662665L419.26795147856683,343.2036387662665L419.26795147856683,344.0947240488422L417.81700316374213,344.0947240488422L417.5268135007773,342.312517243663L417.23662383781266,341.86694289109073L416.9464341748478,340.5301654622199L415.4954858600231,339.1933064660443L414.91510653409364,339.1933064660443L414.33472720816394,339.1933064660443L413.1739685563041,337.8563658889434L412.5935892303746,335.1822399374796L411.72302024147984,335.1822399374796L410.2720719266556,334.73652054004197L409.11131327479575,334.73652054004197L407.6603649599715,334.29079207299947L406.2094166451468,334.73652054004197L403.01733035253346,335.1822399374796L402.7271406895684,335.6279502658399L401.27619237474414,333.3993079281245L400.40562338584937,332.50778749881647L398.9546750710249,331.61623078103L397.2135370932356,329.3871801979694L395.7625887784111,326.71201999611003L395.1822094524814,326.2661281900073L394.6018301265515,325.37431733972335L394.6018301265515,324.92839829452714L394.31164046358685,324.03653296151606L392.8606921487624,322.25269331075106L392.28031282283246,321.8067106899616L392.28031282283246,321.8067106899616L392.28031282283246,322.25269331075106L392.28031282283246,322.25269331075106L392.28031282283246,322.6986668477948L391.99012315986784,322.6986668477948L391.11955417097306,323.1446313015949L391.11955417097306,323.590586672668L390.53917484504336,323.590586672668L389.37841619318374,324.92839829452714L389.0882265302189,326.2661281900073L388.2176575413241,327.1579027235275L386.18632990056994,328.04964094431125L383.8648125968509,328.49549643869614L383.2844332709212,327.1579027235275L382.9942436079564,325.8202273047209L382.12367461906183,325.37431733972335L378.9315883264478,323.1446313015949L376.31988135976394,322.25269331075106L376.31988135976394,322.25269331075106L375.73950203383424,322.25269331075106L374.8689330449397,323.1446313015949L374.5787433819746,323.1446313015949L373.9983640560449,323.1446313015949L373.9983640560449,323.590586672668L372.2572260782556,324.92839829452714L369.6455191115715,324.92839829452714L367.9043811337824,324.92839829452714L365.87305349302824,324.4824701686266L362.9711568633793,324.4824701686266L362.68096720041444,324.4824701686266L362.68096720041444,324.03653296151606L362.68096720041444,324.4824701686266L362.9711568633793,324.92839829452714L362.68096720041444,325.37431733972335L362.9711568633793,325.37431733972335L363.84172585227407,324.92839829452714L364.1319155152389,324.92839829452714L364.422105178204,325.37431733972335L366.1632431559931,326.2661281900073L366.743622481923,326.71201999611003L367.61419147081733,329.3871801979694L367.61419147081733,329.3871801979694L369.06513978564203,328.9413428564076L369.06513978564203,329.3871801979694L369.6455191115715,330.2788276546198L369.9357087745366,330.7246377707197L370.5160881004663,330.7246377707197L370.80627776343135,330.7246377707197L371.0964674263962,330.7246377707197L371.6768467523257,330.7246377707197L371.96703641529075,330.7246377707197L372.8376054041855,330.7246377707197L372.8376054041855,331.17043881269274L373.4179847301152,331.61623078103L372.8376054041855,332.06201367623L372.2572260782556,333.8450545358719L372.54741574122045,334.73652054004197L373.1277950671504,336.07365152561397L373.1277950671504,336.5193437172966L373.4179847301152,337.410700898472L373.1277950671504,338.302021813357L372.8376054041855,338.7476686722366L372.54741574122045,338.7476686722366L372.2572260782556,339.63893519530393L372.2572260782556,339.63893519530393L371.6768467523257,340.5301654622199L370.5160881004663,340.97576700086574L369.9357087745366,340.97576700086574L369.9357087745366,341.42135947699353L369.9357087745366,341.86694289109073L371.38665708936105,343.6491859373127L372.54741574122045,345.4312840314742L372.54741574122045,346.7677624967182L372.2572260782556,348.1041594581802L372.2572260782556,348.9950454926584L371.38665708936105,349.88589531330945L370.5160881004663,349.4404749294663L369.06513978564203,348.9950454926584L366.45343281895794,348.1041594581802L365.5828638300634,347.6587028594913L365.5828638300634,347.6587028594913L364.1319155152389,346.32227873162265L363.5515361893092,345.4312840314742L362.9711568633793,344.54025310138604L362.9711568633793,344.54025310138604L362.68096720041444,344.54025310138604L362.3907775374498,344.54025310138604L360.6496395596603,344.54025310138604L358.328122255941,344.0947240488422L356.8771739411168,343.6491859373127L356.58698427815193,343.6491859373127L355.1360359633277,344.0947240488422L353.97527731146806,344.54025310138604L352.81451865960844,345.4312840314742L350.20281169292457,346.7677624967182L349.62243236699464,344.9857730954318L348.75186337809987,345.4312840314742L347.3009150632756,346.32227873162265L346.7205357373457,346.7677624967182L345.5597770854863,346.7677624967182L344.9793977595566,347.21323720584405L343.8186391076972,348.549607002391L343.52844944473236,348.549607002391L343.2382597817673,348.549607002391L342.07750112990766,348.1041594581802L340.33636315211834,348.549607002391L338.8854148372941,348.549607002391L338.8854148372941,350.77670892417154L339.17560450025894,352.1128614558911L339.17560450025894,353.4489325382383L337.4344665224696,353.89427146817616L336.2737078706102,354.33960135018424L334.82275955578575,353.89427146817616L333.952190566891,353.89427146817616L333.0816215779962,353.89427146817616L332.79143191503135,353.89427146817616L331.3404836002071,354.33960135018424L330.7601042742772,354.78492218479005L330.1797249483475,354.78492218479005L327.85820764462846,355.2302339724847L326.69744899276884,355.67553671375936L325.8268800038745,356.1208304091415L325.53669034090944,356.5661150591186L324.95631101497975,357.0113906641891L324.6661213520149,356.5661150591186L323.7955523631201,357.9019147416584L323.2151730371904,357.9019147416584L322.34460404829565,357.9019147416584L322.34460404829565,357.9019147416584L322.34460404829565,358.34716321505766L322.0544143853308,358.34716321505766L321.18384539643625,358.7924026455621L320.3132764075415,358.7924026455621L319.4427074186467,359.2376330336956L318.86232809271723,359.2376330336956L318.86232809271723,358.7924026455621L317.99175910382246,358.7924026455621L316.83100045196284,360.57326994880714L315.9604314630683,361.4636493561775L313.63891415934927,362.79915067323964L311.89777618155995,362.79915067323964L311.31739685563,363.68943969448446L310.7370175297003,366.36008988980393L310.7370175297003,367.25023434550167L310.7370175297003,368.5853832840403L309.28606921487585,369.4754374189215L309.28606921487585,369.4754374189215L308.995879551911,369.4754374189215L308.995879551911,369.4754374189215L309.8664485408058,370.8104508950564L309.8664485408058,371.25543732880396L310.1566382037704,371.25543732880396L310.44682786673525,371.7004147342377L312.18796584452457,372.59034246214287L313.3487244963842,373.03529278563656L313.63891415934927,373.4802340828137L314.21929348527897,373.92516635418724L314.5094831482438,373.92516635418724L314.79967281120867,375.70480519163175L315.0898624741735,375.70480519163175L315.0898624741735,375.70480519163175L313.3487244963842,377.4842996563093L313.05853483341934,379.70846476180304L313.05853483341934,379.70846476180304L314.21929348527897,381.0428555956423L315.3800521371386,382.3771652739415L316.83100045196284,383.2666599797449L316.83100045196284,383.7113938102193L316.5408107889982,383.7113938102193L315.9604314630683,384.1561186264262L314.79967281120867,385.0455412180054L313.9291038223141,386.3796075108221L313.9291038223141,386.3796075108221L313.9291038223141,386.3796075108221L313.9291038223141,387.71359270218454L313.9291038223141,388.1582364124188L314.5094831482438,388.6028711133986L314.79967281120867,388.1582364124188L315.67024180010344,388.6028711133986L316.5408107889982,390.381319834607L316.83100045196284,391.7150618027008L317.1211901149277,393.04872272339344L317.41137977789253,393.4932583554328L317.41137977789253,394.3823026101927L317.7015694408576,395.71580147658824L317.7015694408576,396.16028309652756L318.57213842975216,396.6047557162019L318.86232809271723,396.6047557162019L319.15251775568186,396.6047557162019L319.73289708161155,396.6047557162019L320.02308674457663,397.04921933609876L320.60346607050633,397.9381195786009L320.60346607050633,398.8269838280503L319.73289708161155,399.2714024566121L319.15251775568186,399.715812088416L318.57213842975216,400.6046043637143L318.2819487667873,401.49336065792886L318.2819487667873,401.9377253133898L317.99175910382246,402.3820809750796L317.41137977789253,403.270765319121L316.83100045196284,404.15941369409484L315.0898624741735,404.603724394412L313.63891415934927,404.603724394412L313.05853483341934,404.603724394412L313.05853483341934,404.603724394412L312.7683451704545,405.0480261039629L313.05853483341934,405.0480261039629L313.9291038223141,405.936602552727L314.21929348527897,406.3808772929515L313.63891415934927,407.26939980755196L313.63891415934927,408.15788637103105L313.9291038223141,408.6021161723511L314.21929348527897,409.0463369873796L314.5094831482438,409.49054881663324L314.79967281120867,409.49054881663324L315.3800521371386,409.49054881663324L316.25062112603314,410.3789455197766L316.83100045196284,409.49054881663324L316.83100045196284,409.49054881663324L318.57213842975216,410.3789455197766L319.15251775568186,410.3789455197766L319.73289708161155,410.82313039467044L320.8936557334712,411.2673062857757L321.18384539643625,411.7114731935799L321.4740350594009,412.1556311186032L321.4740350594009,412.1556311186032L321.4740350594009,412.1556311186032L320.8936557334712,412.1556311186032L320.60346607050633,412.5997800613186L320.60346607050633,413.0439200222572L320.02308674457663,413.48805100188474L320.3132764075415,413.9321730007214L320.3132764075415,414.37628601926554L320.8936557334712,414.82039005799743L321.4740350594009,415.26448511743365L321.7642247223657,415.70857119806897L322.34460404829565,415.70857119806897L322.34460404829565,415.70857119806897L324.085742026085,413.9321730007214L324.085742026085,413.9321730007214L324.6661213520149,413.48805100188474L324.6661213520149,413.48805100188474L325.2465006779446,412.1556311186032L325.8268800038745,411.7114731935799L326.11706966683914,411.2673062857757L326.11706966683914,412.1556311186032L326.9876386557339,413.48805100188474L326.9876386557339,413.9321730007214L328.43858697055816,413.9321730007214L328.43858697055816,414.82039005799743L328.43858697055816,414.82039005799743L328.14839730759354,416.59671642490866L327.5680179816636,417.04077557210985L326.9876386557339,416.1526483003872L326.9876386557339,416.1526483003872L326.407259329804,416.59671642490866L326.11706966683914,417.04077557210985L326.407259329804,419.2609366659526L326.69744899276884,419.70494195977517L327.85820764462846,420.5929256264317L328.43858697055816,421.48087340180064L328.14839730759354,422.368785289822L328.728776633523,422.81272777734193L328.728776633523,423.25666129452657L329.88953528538264,423.25666129452657L331.05029393724203,423.7005858418597L331.9208629261368,424.5884080290198L332.79143191503135,425.03230566982165L334.24238022985605,426.3639447871428L334.24238022985605,425.92007404838296L335.40313888171545,424.5884080290198L336.5638975335751,424.1445014198616L338.59522517432924,424.1445014198616L340.0461734891535,424.1445014198616L341.78731146694304,424.1445014198616L342.07750112990766,425.92007404838296L342.07750112990766,426.3639447871428L342.3676907928725,426.8078065595437L340.91674247804826,426.8078065595437L340.91674247804826,428.13933808356524L341.2069321410131,431.6896944186374L341.2069321410131,431.6896944186374L340.91674247804826,432.1334486335545L341.2069321410131,432.5771938885664L341.2069321410131,433.46465752092627L340.33636315211834,433.46465752092627L338.59522517432924,433.46465752092627L337.72465618543447,433.9083758992456L336.8540871965399,434.3520853196678L335.98351820764515,434.7957857826732L334.82275955578575,435.6831598384633L333.0816215779962,436.570498070585L332.79143191503135,437.01415375400757L332.21105258910166,437.4578004830073L331.9208629261368,437.901438258079L331.9208629261368,437.901438258079L331.05029393724203,438.34506707970286L329.88953528538264,438.78868694840276L329.30915595945294,439.67589982896243L328.14839730759354,440.11949284181173L327.85820764462846,440.56307690372705L327.27782831869877,439.23229786466254L326.9876386557339,438.34506707970286L326.9876386557339,437.4578004830073L326.407259329804,437.01415375400757L326.407259329804,437.01415375400757L326.407259329804,436.570498070585L325.53669034090944,436.1268334322376L324.6661213520149,435.2394772887819L323.2151730371904,434.7957857826732L322.9249833742256,434.7957857826732L322.34460404829565,434.7957857826732L321.7642247223657,434.7957857826732L321.4740350594009,434.7957857826732L321.18384539643625,435.2394772887819L320.3132764075415,435.6831598384633L319.15251775568186,436.1268334322376L317.99175910382246,436.570498070585L315.0898624741735,437.01415375400757L313.05853483341934,437.01415375400757L312.7683451704545,437.01415375400757L309.28606921487585,437.01415375400757L307.2547415741219,436.570498070585L305.8037932592972,436.1268334322376L304.9332242704029,436.1268334322376L304.6430346074378,436.1268334322376L304.35284494447296,436.1268334322376L304.0626552815081,436.570498070585L304.0626552815081,436.570498070585L304.0626552815081,436.570498070585L304.0626552815081,437.01415375400757L303.77246561854304,437.4578004830073L303.77246561854304,437.4578004830073L303.77246561854304,437.4578004830073L303.4822759555782,438.34506707970286L303.4822759555782,439.23229786466254L302.3215173037188,441.45021817666566L301.16075865185917,444.11142722426666L301.16075865185917,444.554930749935L301.450948314824,445.88538765297926L300.2901896629646,448.1026369413048L298.83924134814015,448.9894740589916L297.9686723592456,449.43287920603325L298.83924134814015,452.09312235441394L299.41962067406985,452.09312235441394L301.450948314824,450.7630410059501L302.0313276407537,452.53646492812186L303.4822759555782,455.1963327092235L303.77246561854304,455.63961273385576L304.0626552815081,455.63961273385576L304.9332242704029,458.29910529330664L305.22341393336774,459.1855313628039L306.0939829222623,462.287741348282L306.674362248192,463.61712601090767L306.96455191115683,464.06023638174156L307.2547415741219,464.50333782837333L308.70568988894615,466.2756543827709L309.28606921487585,467.161759127619L309.28606921487585,468.4908493405819L309.28606921487585,468.93386157240093L308.4155002259813,469.8198592802255L307.54493123708676,470.70582131694755L307.2547415741219,471.1487889598866L306.674362248192,471.1487889598866L305.22341393336774,471.59174768653247L304.9332242704029,471.59174768653247L303.77246561854304,471.59174768653247L303.4822759555782,471.59174768653247L302.9018966296485,471.1487889598866L302.3215173037188,470.70582131694755L301.74113797778887,470.70582131694755L301.450948314824,470.26284475723514L301.16075865185917,470.26284475723514L300.8705689888941,470.26284475723514L300.8705689888941,470.70582131694755L299.9999999999998,471.1487889598866L299.7098103370347,471.59174768653247L299.41962067406985,472.03469749736905L299.129431011105,472.03469749736905L299.129431011105,472.47763839289473L298.83924134814015,473.36349344002883L298.83924134814015,474.2493128318565L298.83924134814015,474.69220915826736L298.83924134814015,474.69220915826736L298.5490516851751,475.135096572325L297.9686723592456,475.577975074546L297.67848269628075,475.577975074546L297.0981033703508,476.02084466541055L295.6471550555266,476.46370534540074L295.06677572959666,476.46370534540074L294.48639640366673,476.9065571150313L294.1962067407019,481.7773386376102L294.1962067407019,484.43367439011126L293.6158274147722,485.76172208954813L294.48639640366673,487.97495692821394L296.807913707386,487.97495692821394L297.0981033703508,487.53232775754987L298.25886202221045,487.53232775754987L300.2901896629646,487.97495692821394L300.58037932592947,487.97495692821394L302.3215173037188,487.97495692821394L302.61170696668364,487.97495692821394L302.9018966296485,487.08968968884074L303.77246561854304,486.64704272160816L306.674362248192,485.3190484237366L307.8351209000514,485.3190484237366L308.995879551911,485.76172208954813L310.1566382037704,486.2043868553483L311.0272071926652,485.3190484237366L311.89777618155995,484.43367439011126L312.7683451704545,484.876365857428L313.9291038223141,485.3190484237366L314.5094831482438,485.76172208954813L315.0898624741735,486.2043868553483L315.3800521371386,486.64704272160816L316.5408107889982,486.2043868553483L316.5408107889982,486.64704272160816L316.5408107889982,486.64704272160816L317.1211901149277,487.97495692821394L317.41137977789253,488.8601885773696L317.7015694408576,489.3027910568562L318.2819487667873,490.63054512081544L318.57213842975216,491.07311201895936L319.15251775568186,492.4007593507213L320.02308674457663,493.7283266488266L320.60346607050633,494.61332705765017L320.60346607050633,495.49829190580385L320.60346607050633,496.38322119722216L320.3132764075415,496.8256725103929L319.73289708161155,497.7105484740914L318.2819487667873,499.0377957704386L317.41137977789253,499.9225828742692L316.83100045196284,500.36496309953327L315.67024180010344,501.2496968992564L313.9291038223141,501.2496968992564L311.31739685563,501.2496968992564L311.0272071926652,501.2496968992564L309.5762588778409,501.2496968992564L309.5762588778409,501.2496968992564L309.5762588778409,501.2496968992564L308.70568988894615,503.01905790911223L308.1253105630162,503.9036851271321L307.8351209000514,504.7882768257623L304.9332242704029,510.5372573536206L304.9332242704029,510.5372573536206L305.22341393336774,511.4215827822136L305.22341393336774,511.4215827822136L305.51360359633236,511.4215827822136L304.9332242704029,514.0743461677575L304.35284494447296,515.4006081284515L304.0626552815081,517.6108673945218L304.0626552815081,518.0528926518764L303.4822759555782,518.0528926518764L302.9018966296485,518.4949090451028L300.58037932592947,518.4949090451028L299.129431011105,518.4949090451028L297.67848269628075,518.9369165746793L295.3569653925615,520.7048580662758L295.6471550555266,520.7048580662758L295.6471550555266,521.1468212849577L295.93734471849143,521.5887756429292L296.22753438145605,521.5887756429292L296.807913707386,522.4726577786823L297.0981033703508,522.4726577786823L297.67848269628075,523.3565044774969L297.9686723592456,524.24031574326L297.9686723592456,525.5659662135313L298.83924134814015,527.7752065542609L298.5490516851751,527.7752065542609L297.67848269628075,527.7752065542609L296.807913707386,527.3333761947979L295.93734471849143,527.3333761947979L295.3569653925615,527.7752065542609L295.06677572959666,527.7752065542609L294.1962067407019,528.2170280603495L293.32563775180734,528.658840713575L292.1648790999477,529.100644514414L290.71393078512347,529.5424394633446L290.71393078512347,529.5424394633446L290.71393078512347,529.9842255608783L290.71393078512347,531.7512814467118L290.4237411221586,533.076480445281L290.13355145919354,534.401599816405L290.13355145919354,535.7266395732822L290.13355145919354,538.8180894691541L289.8433617962287,538.8180894691541L289.8433617962287,538.8180894691541L289.55317213326384,539.2596898000993L288.6826031443693,541.026002722223L286.36108584065005,539.7012812903813L284.03956853693103,541.026002722223L283.45918921100133,541.4675588547925L282.87880988507163,540.5844377509638L282.58862022210656,540.142863940513L282.2984305591417,540.142863940513L281.42786157024716,540.5844377509638L278.5259649405982,542.792174225171L278.23577527763337,542.3506446057763L277.9455856146685,541.4675588547925L277.65539595170367,541.4675588547925L277.3652062887388,541.9091061491399L275.3338786479844,544.5582043402082L275.0436889850197,545.8826341594558L274.75349932205484,546.7655432048268L274.1731199961249,547.6484169207888L274.1731199961249,547.6484169207888L273.5927406701953,548.5312553112417L273.0123613442654,549.4140583800927L272.14179235537085,549.8554466701407L271.8516026924059,550.7381967638976L271.56141302944104,550.7381967638976L271.2712233664762,551.6209115458041L271.56141302944104,552.5035910197694L271.56141302944104,553.8275440368307L270.6908440405464,556.4752118212327L269.82027505165183,558.6813590423644L269.82027505165183,559.5637561930635L269.82027505165183,560.0049415408466L269.82027505165183,560.0049415408466L268.36932673682736,560.4461180708913L268.36932673682736,560.4461180708913L266.3379990960732,561.3284446797497L264.59686111828387,561.7695947595184L264.01648179235417,563.0929921060942L264.306671455319,564.4163101237573L264.306671455319,564.4163101237573L264.306671455319,564.4163101237573L265.1772404442137,566.1806107694701L265.1772404442137,566.1806107694701L264.8870507812487,566.1806107694701L264.59686111828387,568.3857883346136L264.59686111828387,568.3857883346136L260.2440161738107,568.8267974202263L259.66363684788087,570.1497718310329L259.66363684788087,570.5907456875611L259.08325752195117,572.3545530580068L258.2126885330564,573.6773161409474L258.2126885330564,573.6773161409474L257.92249887009166,574.5591141821697L258.2126885330564,575.0000000000018L258.2126885330564,575.0000000000018L258.2126885330564,575.0000000000018L257.92249887009166,574.5591141821697L257.6323092071267,574.1182195626425L257.6323092071267,573.2364039166041L257.0519298811969,573.2364039166041L256.1813608923022,572.7954828891252L255.0206022404427,572.7954828891252L253.8598435885832,572.3545530580068L253.2794642626535,572.3545530580068L253.2794642626535,571.4726669829579L254.15003325154805,568.8267974202263L254.73041257747786,567.0627082248811L255.0206022404427,566.6216639023914L255.0206022404427,566.6216639023914L254.15003325154805,565.2984780703973L253.56965392561824,564.8573985032581L253.2794642626535,564.4163101237573L251.24813662189922,564.4163101237573L250.95794695893449,564.8573985032581L250.0873779700397,564.8573985032581L249.79718830707486,564.8573985032581L249.5069986441099,564.8573985032581L249.21680898114505,564.8573985032581L248.63642965521535,564.4163101237573L248.05605032928554,563.9752129313783L247.76586066632058,563.534106925661L247.47567100335584,563.0929921060942L247.18548134039088,562.6518684722178L247.18548134039088,562.2107360235168L245.7345330255664,561.7695947595184L243.70320538481224,563.0929921060942L242.54244673295273,563.0929921060942L241.96206740702291,563.534106925661L241.3816880810931,563.0929921060942L241.09149841812825,563.0929921060942L240.51111909219867,562.6518684722178L240.2209294292336,562.2107360235168L240.2209294292336,562.2107360235168L239.93073976626874,562.2107360235168L239.93073976626874,562.2107360235168L239.93073976626874,561.7695947595184L240.80130875516352,560.4461180708913L241.67187774405818,558.2401472384772L241.67187774405818,557.7989266148998L241.09149841812825,557.7989266148998L240.80130875516352,557.7989266148998L239.93073976626874,557.7989266148998L239.06017077737408,557.7989266148998L237.89941212551457,557.7989266148998L237.89941212551457,558.6813590423644L237.6092224625496,559.1225620270707L237.02884313662003,560.0049415408466L235.2877051588306,559.5637561930635L234.41713616993593,558.2401472384772L234.41713616993593,556.9164589067695L234.41713616993593,555.5926911848037L234.7073258329009,553.3862351896751L233.83675684400623,552.0622556960352L233.54656718104138,551.6209115458041L231.5152395402872,550.7381967638976L231.22504987732236,550.296826131238L230.9348602143574,549.8554466701407L231.22504987732236,546.7655432048268L231.5152395402872,544.9996897807614L232.09561886621702,544.5582043402082L232.96618785511146,544.1167100648581L232.96618785511146,543.2336950078316L232.96618785511146,542.3506446057763L232.67599819214672,541.9091061491399L232.38580852918187,540.5844377509638L231.80542920325195,538.3764802970709L231.80542920325195,537.0515997290986L231.80542920325195,536.6099551875759L231.5152395402872,535.7266395732822L231.5152395402872,535.7266395732822L230.9348602143574,535.2849684995326L230.3544808884277,534.8432885807433L230.3544808884277,534.8432885807433L230.3544808884277,534.8432885807433L230.3544808884277,534.8432885807433L230.3544808884277,535.2849684995326L230.3544808884277,537.0515997290986L229.19372223656808,538.3764802970709L227.74277392174372,539.2596898000993L226.87220493284906,540.142863940513L225.4212566180246,539.2596898000993L224.26049796616508,540.142863940513L223.68011864023526,540.5844377509638L223.09973931430557,541.026002722223L220.77822201058655,542.3506446057763L219.61746335872692,543.2336950078316L219.32727369576207,542.3506446057763L218.74689436983226,541.4675588547925L217.58613571797275,540.5844377509638L216.7155667290781,539.7012812903813L215.84499774018343,539.2596898000993L215.55480807721858,538.3764802970709L214.68423908832392,537.9348622833659L214.68423908832392,536.6099551875759L214.68423908832392,535.2849684995326L214.68423908832392,534.401599816405L214.68423908832392,532.1930232945488L214.1038597623941,530.8677712036751L213.81367009942926,529.5424394633446L212.9431011105346,527.3333761947979L212.65291144756975,526.44968891383L212.07253212163994,525.5659662135313L210.91177346978043,526.44968891383L210.62158380681558,526.8915369814913L208.30006650309645,528.2170280603495L206.55892852530712,529.100644514414L204.52760088455295,529.5424394633446L203.36684223269344,529.9842255608783L202.20608358083393,529.9842255608783L201.33551459193927,530.4260028074968L200.75513526600957,529.9842255608783L200.4649456030446,529.5424394633446L199.59437661415006,527.7752065542609L199.3041869511851,527.7752065542609L199.3041869511851,527.3333761947979L199.59437661415006,527.3333761947979L199.59437661415006,526.8915369814913L199.59437661415006,526.44968891383L199.8845662771148,526.0078319913482L199.8845662771148,526.0078319913482L200.17475594007976,525.5659662135313L200.17475594007976,525.5659662135313L199.8845662771148,525.5659662135313L199.8845662771148,525.1240915799026L199.01399728822014,524.6822080899819L198.43361796229055,523.7984145392584L198.43361796229055,521.5887756429292L197.85323863636063,519.8209050448386L197.85323863636063,518.9369165746793L197.85323863636063,518.0528926518764L197.56304897339578,517.6108673945218L197.56304897339578,517.1688332725225L196.98266964746597,515.4006081284515L196.69247998450112,514.9585296759524L196.40229032153627,514.5164423558927L195.5317213326416,514.0743461677575L194.9513420067119,513.6322411110832L194.66115234374706,513.1901271853494L194.370962680782,513.1901271853494L193.21020402892248,512.7480043900887L192.92001436595763,512.7480043900887L192.6298247029929,512.7480043900887L191.75925571409812,513.1901271853494L191.46906605113327,513.1901271853494L190.88868672520346,513.1901271853494L190.88868672520346,512.7480043900887L190.30830739927376,511.86373218900735L190.30830739927376,509.6528964351255L190.30830739927376,508.7685000227939L190.30830739927376,507.88406811270215L189.14754874741425,508.32628850521905L188.8573590844494,508.32628850521905L189.14754874741425,506.99960070091765L189.14754874741425,506.99960070091765L185.37508312887076,506.1150977835023L184.5045141399761,505.6728330089718L184.5045141399761,505.23055935655066L184.5045141399761,503.9036851271321L184.21432447701125,503.01905790911223L183.92413481404617,502.57673097912266L183.92413481404617,502.57673097912266L183.63394515108143,502.57673097912266L182.76337616218666,502.57673097912266L182.18299683625708,501.2496968992564L181.60261751032715,500.36496309953327L181.60261751032715,500.36496309953327L181.60261751032715,500.36496309953327L181.60261751032715,500.36496309953327L181.02223818439745,500.8073344410368L181.02223818439745,500.8073344410368L180.7320485214326,500.8073344410368L180.7320485214326,500.36496309953327L180.7320485214326,499.9225828742692L179.28110020660802,499.0377957704386L176.959582902889,498.15297312561233L175.2184449250998,497.2681149358468L174.05768627324028,497.7105484740914L172.31654829545084,497.7105484740914L172.89692762138077,495.49829190580385L172.0263586324861,493.7283266488266L171.15578964359133,494.1708312985629L171.15578964359133,494.1708312985629L170.86559998062648,493.7283266488266L170.86559998062648,493.28581310793015L170.57541031766164,492.4007593507213L171.15578964359133,491.51567002298543L171.4459793065563,491.07311201895936L172.6067379584158,490.63054512081544L173.76749661027543,490.18796932807527L175.2184449250998,489.3027910568562L175.7988242510295,487.97495692821394L176.08901391399445,485.76172208954813L176.08901391399445,483.9909740212988L176.3792035769593,483.1055465772315L178.99091054364328,482.66281950098346L178.99091054364328,482.2200835212807L179.28110020660802,481.3345848494955L179.28110020660802,480.4490505579379L178.99091054364328,479.56348064264785L176.66939323992426,480.00627005350725L176.3792035769593,478.67787509970367L176.3792035769593,478.23505896661663L176.3792035769593,478.23505896661663L176.3792035769593,477.7922339251454L176.3792035769593,477.3493999747734L176.66939323992426,476.46370534540074L176.66939323992426,475.577975074546L176.66939323992426,475.135096572325L176.08901391399445,473.8064075926013L174.92825526213494,472.03469749736905L172.0263586324861,468.4908493405819L169.99503099173182,467.604798118693L169.99503099173182,467.604798118693L169.70484132876697,467.161759127619L168.25389301394262,466.2756543827709L169.12446200283728,464.9464303512941L170.2852206546968,463.61712601090767L170.57541031766164,462.7308784946763L171.15578964359133,460.51510349595264L171.73616896952115,458.7423227931213L171.4459793065563,458.7423227931213L171.15578964359133,458.7423227931213L169.99503099173182,458.7423227931213L169.12446200283728,458.7423227931213L167.96370335097765,458.7423227931213L167.96370335097765,458.7423227931213L167.38332402504795,458.29910529330664L167.093134362083,458.29910529330664L166.22256537318844,457.85587886286885L165.93237571022348,457.85587886286885L164.77161705836397,456.96939920810837L164.48142739539912,456.52614598279615L164.48142739539912,456.0828838248708L164.48142739539912,456.0828838248708L164.48142739539912,455.63961273385576L164.19123773243416,455.63961273385576L163.9010480694693,455.63961273385576L163.61085840650446,455.1963327092235L162.15991009168,455.63961273385576L160.99915143982048,455.63961273385576L160.12858245092582,455.63961273385576L159.83839278796097,455.63961273385576L159.54820312499623,455.63961273385576L157.2266858212771,455.63961273385576L156.93649615831214,455.63961273385576L156.64630649534718,455.1963327092235L156.64630649534718,455.1963327092235L156.35611683238233,455.1963327092235L155.77573750645251,455.1963327092235L155.48554784348767,455.1963327092235L155.19535818052282,455.1963327092235L152.87384087680368,454.75304375049745L150.8425132360495,453.86643902879587L149.1013752582603,453.42312326480896L147.65042694343583,453.42312326480896L146.19947862861136,452.09312235441394L145.03871997675185,451.20641039382826L144.7485303137871,450.7630410059501L144.7485303137871,450.7630410059501L144.7485303137871,450.7630410059501L145.90928896564662,448.9894740589916L146.19947862861136,448.9894740589916L146.19947862861136,448.9894740589916L146.48966829157632,448.9894740589916L147.07004761750613,448.9894740589916L148.5209959323305,448.546059970904L149.68175458419,447.65920496966646L150.8425132360495,445.4419109638002L151.13270289901436,444.11142722426666L150.8425132360495,443.6679147521136L150.55232357308478,443.2243933329737L150.55232357308478,442.3373236517655L150.8425132360495,441.0066520151813L151.13270289901436,440.11949284181173L151.13270289901436,440.11949284181173L151.42289256197944,440.11949284181173L152.29346155087399,441.0066520151813L152.87384087680368,441.45021817666566L153.4542202027335,442.3373236517655L154.0345995286633,442.7808629663523L156.0659271694176,444.554930749935L156.93649615831214,441.8937753887003L157.51687548424184,441.8937753887003L157.8070651472068,441.45021817666566L157.2266858212771,441.45021817666566L156.93649615831214,440.56307690372705L156.93649615831214,440.56307690372705L156.64630649534718,440.11949284181173L155.19535818052282,439.23229786466254L154.90516851755808,438.34506707970286L154.32478919162816,437.4578004830073L154.32478919162816,437.4578004830073L154.32478919162816,437.4578004830073L154.32478919162816,437.4578004830073L154.614978854593,437.4578004830073L154.614978854593,437.901438258079L154.90516851755808,437.901438258079L155.48554784348767,438.34506707970286L155.77573750645251,438.34506707970286L156.35611683238233,438.34506707970286L156.93649615831214,438.34506707970286L157.8070651472068,438.34506707970286L158.3874444731366,438.34506707970286L160.70896177685563,438.78868694840276L160.99915143982048,438.34506707970286L160.70896177685563,438.34506707970286L160.12858245092582,437.901438258079L160.12858245092582,437.4578004830073L160.12858245092582,437.01415375400757L160.70896177685563,437.01415375400757L160.70896177685563,437.01415375400757L161.86972042871514,436.1268334322376L163.61085840650446,436.1268334322376L163.9010480694693,435.6831598384633L164.77161705836397,435.2394772887819L165.93237571022348,432.5771938885664L165.93237571022348,431.6896944186374L165.35199638429378,431.24593124333114L158.9678237990663,431.24593124333114L158.9678237990663,431.24593124333114L157.8070651472068,428.5831639955177L156.64630649534718,428.5831639955177L155.48554784348767,428.5831639955177L155.48554784348767,427.25165936607664L156.35611683238233,426.3639447871428L157.51687548424184,425.03230566982165L156.64630649534718,423.7005858418597L156.64630649534718,422.81272777734193L157.51687548424184,421.9248338314792L157.51687548424184,419.70494195977517L157.51687548424184,418.81692239782205L157.51687548424184,418.81692239782205L156.64630649534718,417.48482574251466L154.90516851755808,416.59671642490866L153.74440986569846,415.70857119806897L153.74440986569846,415.70857119806897L153.16403053976865,415.26448511743365L152.29346155087399,416.1526483003872L151.42289256197944,418.3728991548669L150.8425132360495,420.5929256264317L149.97194424715485,422.368785289822L148.81118559529534,425.03230566982165L148.23080626936564,426.3639447871428L149.39156492122527,428.5831639955177L150.26213391011993,431.6896944186374L151.71308222494417,433.0209301841969L152.58365121383895,434.3520853196678L152.87384087680368,434.7957857826732L152.29346155087399,434.7957857826732L152.00327188790902,434.7957857826732L151.13270289901436,434.3520853196678L150.8425132360495,434.3520853196678L150.8425132360495,434.3520853196678L150.8425132360495,434.3520853196678L150.26213391011993,433.46465752092627L149.39156492122527,432.1334486335545L148.5209959323305,431.24593124333114L148.23080626936564,430.8021591071483L147.65042694343583,430.358378009576L147.65042694343583,429.9145879501302L147.36023728047087,429.4707889282945L147.36023728047087,427.25165936607664L147.36023728047087,425.47619434278386L147.65042694343583,424.1445014198616L148.23080626936564,422.81272777734193L149.39156492122527,421.03690400028063L149.39156492122527,420.14893827976994L149.39156492122527,420.14893827976994L147.9406166064008,417.9288669365924L146.48966829157632,417.04077557210985L145.3289096397167,416.59671642490866L144.45834065082215,416.59671642490866L143.87796132489234,416.59671642490866L143.87796132489234,417.04077557210985L142.71720267303283,417.48482574251466L141.84663368413817,417.04077557210985L140.97606469524362,416.1526483003872L140.97606469524362,416.1526483003872L140.3956853693137,416.1526483003872L140.3956853693137,415.70857119806897L140.10549570634896,414.37628601926554L139.2349267174542,411.7114731935799L138.94473705448945,411.2673062857757L138.6545473915245,410.82313039467044L138.36435772855953,410.3789455197766L137.49378873966498,409.93475166060307L137.20359907670002,409.93475166060307L136.33303008780547,409.93475166060307L136.0428404248404,410.3789455197766L136.0428404248404,410.3789455197766L136.0428404248404,410.82313039467044L135.75265076187554,411.7114731935799L135.75265076187554,411.7114731935799L135.4624610989108,412.1556311186032L134.3017024470513,412.1556311186032L134.3017024470513,412.1556311186032L134.01151278408634,412.1556311186032L134.01151278408634,411.7114731935799L134.01151278408634,411.2673062857757L134.01151278408634,411.2673062857757L133.14094379519167,409.49054881663324L132.85075413222683,409.0463369873796L132.56056446926186,408.6021161723511L131.98018514333216,408.15788637103105L130.81942649147265,407.26939980755196L130.5292368285078,407.26939980755196L129.948857502578,407.26939980755196L129.36847817664818,406.8251430443961L129.36847817664818,406.8251430443961L129.07828851368322,406.8251430443961L128.49790918775352,406.8251430443961L127.33715053589401,407.26939980755196L125.88620222106965,407.71364758292475L125.59601255810458,407.71364758292475L124.43525390624507,408.15788637103105L124.14506424328033,408.15788637103105L123.85487458031548,408.6021161723511L122.40392626549101,409.93475166060307L122.40392626549101,410.3789455197766L122.69411592845586,410.3789455197766L124.43525390624507,411.7114731935799L124.72544356921003,413.48805100188474L124.14506424328033,413.9321730007214L123.56468491735052,413.9321730007214L123.27449525438567,414.82039005799743L123.85487458031548,415.70857119806897L124.72544356921003,417.04077557210985L124.72544356921003,419.2609366659526L124.72544356921003,419.70494195977517L125.59601255810458,420.5929256264317L126.7567712099642,421.48087340180064L127.33715053589401,421.03690400028063L127.62734019885886,421.03690400028063L127.62734019885886,421.03690400028063L127.62734019885886,421.03690400028063L127.91752986182371,420.14893827976994L128.49790918775352,419.2609366659526L129.07828851368322,418.81692239782205L131.1096161544375,417.48482574251466L131.39980581740224,417.48482574251466L131.98018514333216,417.9288669365924L132.270374806297,418.3728991548669L131.98018514333216,419.70494195977517L131.98018514333216,420.5929256264317L132.56056446926186,421.9248338314792L132.56056446926186,421.9248338314792L134.01151278408634,421.48087340180064L134.01151278408634,421.9248338314792L134.3017024470513,422.81272777734193L134.3017024470513,423.25666129452657L134.59189211001603,425.47619434278386L134.88208177298088,427.25165936607664L134.88208177298088,428.13933808356524L134.88208177298088,428.13933808356524L134.88208177298088,428.13933808356524L134.3017024470513,428.13933808356524L131.39980581740224,427.69550320725466L130.81942649147265,427.69550320725466L130.5292368285078,427.69550320725466L130.5292368285078,427.25165936607664L130.5292368285078,427.25165936607664L130.23904716554273,426.8078065595437L129.65866783961314,425.92007404838296L129.36847817664818,425.03230566982165L128.78809885071848,424.1445014198616L128.78809885071848,423.25666129452657L128.20771952478867,422.368785289822L127.33715053589401,422.368785289822L125.30582289513984,421.48087340180064L123.27449525438567,420.5929256264317L122.98430559142082,420.14893827976994L122.98430559142082,420.14893827976994L122.98430559142082,419.70494195977517L122.98430559142082,419.2609366659526L121.8235469395612,416.59671642490866L121.53335727659635,417.04077557210985L121.2431676136315,417.04077557210985L120.95297795066654,417.48482574251466L120.95297795066654,418.3728991548669L120.95297795066654,418.81692239782205L120.95297795066654,419.2609366659526L120.95297795066654,419.2609366659526L120.95297795066654,419.2609366659526L120.66278828770169,419.2609366659526L120.66278828770169,419.70494195977517L118.92165030991237,421.03690400028063L118.63146064694752,421.03690400028063L118.34127098398267,421.03690400028063L116.01975368026353,419.70494195977517L115.72956401729869,419.70494195977517L115.43937435433384,418.81692239782205L114.85899502840402,416.59671642490866L115.14918469136899,414.37628601926554L114.56880536543918,412.1556311186032L114.27861570247421,411.7114731935799L114.85899502840402,410.82313039467044L115.14918469136899,409.93475166060307L115.14918469136899,409.93475166060307L115.14918469136899,409.93475166060307L115.43937435433384,409.0463369873796L115.43937435433384,408.15788637103105L114.27861570247421,407.26939980755196L113.1178570506147,405.936602552727L112.82766738764997,405.49231882323875L112.24728806172004,404.15941369409484L112.24728806172004,403.7150940024949L111.66690873579046,402.82642764348566L111.95709839875519,401.49336065792886L112.53747772468489,401.49336065792886L112.82766738764997,401.04898700821286L113.40804671357955,400.6046043637143L113.40804671357955,400.6046043637143L113.69823637654451,400.1602127239421L113.69823637654451,399.715812088416L113.69823637654451,399.715812088416L114.27861570247421,399.715812088416L114.27861570247421,400.1602127239421L114.85899502840402,400.1602127239421L115.43937435433384,400.1602127239421L115.72956401729869,400.1602127239421L116.60013300619335,400.1602127239421L116.8903226691582,400.1602127239421L118.0510813210177,399.715812088416L118.34127098398267,399.2714024566121L118.92165030991237,399.2714024566121L119.21183997287733,398.8269838280503L120.95297795066654,398.8269838280503L122.69411592845586,398.8269838280503L124.14506424328033,398.3825562022066L124.43525390624507,398.3825562022066L124.72544356921003,398.3825562022066L125.88620222106965,399.2714024566121L127.62734019885886,400.1602127239421L127.91752986182371,400.6046043637143L128.20771952478867,401.04898700821286L127.33715053589401,401.9377253133898L126.1763918840345,402.82642764348566L126.1763918840345,403.7150940024949L126.46658154699935,404.603724394412L128.49790918775352,405.936602552727L129.948857502578,407.26939980755196L130.23904716554273,407.26939980755196L130.5292368285078,407.26939980755196L130.81942649147265,406.8251430443961L131.1096161544375,405.936602552727L132.270374806297,405.0480261039629L133.14094379519167,404.15941369409484L133.72132312112137,404.15941369409484L134.3017024470513,404.603724394412L134.59189211001603,404.603724394412L135.17227143594596,403.270765319121L135.17227143594596,401.9377253133898L135.4624610989108,399.715812088416L134.3017024470513,398.8269838280503L133.72132312112137,397.04921933609876L133.43113345815652,396.16028309652756L133.72132312112137,395.71580147658824L133.72132312112137,395.2713108558928L133.72132312112137,394.82681123392103L133.72132312112137,394.82681123392103L133.43113345815652,391.7150618027008L133.14094379519167,390.381319834607L133.14094379519167,389.9367211657009L132.56056446926186,389.0474968056078L132.270374806297,388.6028711133986L131.98018514333216,388.6028711133986L131.68999548036732,388.1582364124188L131.68999548036732,388.1582364124188L131.39980581740224,387.71359270218454L131.39980581740224,386.8242782518719L131.98018514333216,385.49023899437816L132.270374806297,385.49023899437816L132.56056446926186,385.0455412180054L132.85075413222683,384.60083442884934L132.56056446926186,384.60083442884934L131.98018514333216,384.60083442884934L131.68999548036732,384.1561186264262L131.98018514333216,382.3771652739415L131.68999548036732,380.5980676689833L133.43113345815652,379.70846476180304L134.3017024470513,379.2636497802778L134.59189211001603,378.3739927588722L134.59189211001603,376.59457046855823L133.72132312112137,375.70480519163175L132.270374806297,374.81500382151717L131.1096161544375,375.70480519163175L130.5292368285078,376.59457046855823L129.65866783961314,377.9291507179805L129.07828851368322,378.3739927588722L128.20771952478867,378.3739927588722L127.91752986182371,377.9291507179805L127.91752986182371,377.9291507179805L127.91752986182371,377.9291507179805L127.91752986182371,377.4842996563093L127.91752986182371,377.4842996563093L128.20771952478867,377.03943957333104L128.49790918775352,376.59457046855823L129.07828851368322,376.14969234149976L129.36847817664818,375.70480519163175L129.65866783961314,374.81500382151717L129.948857502578,374.81500382151717L129.65866783961314,374.37008960025923L126.7567712099642,373.4802340828137L126.46658154699935,373.03529278563656L125.59601255810458,373.4802340828137L124.14506424328033,374.37008960025923L122.69411592845586,375.70480519163175L122.40392626549101,375.70480519163175L120.37259862473684,375.70480519163175L120.08240896177199,375.25990901848127L119.79221929880703,374.81500382151717L120.08240896177199,374.37008960025923L121.2431676136315,373.03529278563656L122.11373660252616,372.1453831118415L122.69411592845586,371.7004147342377L122.40392626549101,371.25543732880396L119.79221929880703,370.36545543250395L118.63146064694752,370.8104508950564L118.0510813210177,370.36545543250395L117.18051233212304,369.92045094062996L116.60013300619335,369.0304148668911L115.72956401729869,368.5853832840403L115.14918469136899,368.5853832840403L114.85899502840402,368.5853832840403L114.85899502840402,368.1403426698562L114.85899502840402,367.6952930238367L114.85899502840402,367.6952930238367L116.3099433432285,368.1403426698562L116.3099433432285,367.6952930238367L117.470701995088,366.36008988980393L117.76089165805286,365.46990929873937L117.18051233212304,365.0248054512049L115.72956401729869,363.68943969448446L114.56880536543918,361.4636493561775L113.98842603950948,360.57326994880714L113.40804671357955,360.57326994880714L114.27861570247421,358.7924026455621L114.85899502840402,358.34716321505766L115.43937435433384,358.34716321505766L116.3099433432285,358.34716321505766L118.0510813210177,357.4566572248659L119.79221929880703,356.5661150591186L121.8235469395612,355.2302339724847L123.56468491735052,353.0035845598759L124.43525390624507,352.1128614558911L124.72544356921003,352.1128614558911L125.59601255810458,352.5582275326051L126.46658154699935,353.0035845598759L127.62734019885886,353.4489325382383L128.20771952478867,353.4489325382383L130.5292368285078,354.78492218479005L131.98018514333216,355.2302339724847L133.43113345815652,356.1208304091415L133.72132312112137,356.5661150591186L134.01151278408634,356.5661150591186L134.01151278408634,357.4566572248659L134.3017024470513,357.4566572248659L134.3017024470513,358.34716321505766L134.59189211001603,358.34716321505766L135.75265076187554,357.4566572248659L136.33303008780547,356.1208304091415L136.0428404248404,355.2302339724847L138.07416806559468,353.4489325382383L139.52511638041904,352.1128614558911L140.97606469524362,352.1128614558911L141.84663368413817,352.1128614558911L141.84663368413817,351.22210215218L141.5564440211732,349.88589531330945L143.00739233599768,348.9950454926584L143.87796132489234,348.9950454926584L145.3289096397167,348.549607002391L145.61909930268178,348.1041594581802L145.90928896564662,344.9857730954318L146.19947862861136,344.9857730954318L146.19947862861136,344.9857730954318L146.19947862861136,344.9857730954318L146.19947862861136,343.6491859373127L146.19947862861136,342.312517243663L146.19947862861136,338.302021813357L146.77985795454128,336.9650268414225L147.36023728047087,336.9650268414225L147.65042694343583,336.9650268414225L147.65042694343583,336.5193437172966L147.9406166064008,336.07365152561397L148.5209959323305,335.6279502658399L149.97194424715485,335.1822399374796L150.26213391011993,336.5193437172966L150.55232357308478,336.5193437172966L150.8425132360495,336.5193437172966L151.42289256197944,336.07365152561397L151.42289256197944,335.6279502658399L151.42289256197944,335.1822399374796L151.42289256197944,334.73652054004197L151.13270289901436,332.50778749881647L151.13270289901436,331.61623078103L150.8425132360495,331.17043881269274L150.55232357308478,331.17043881269274L149.97194424715485,328.49549643869614L149.97194424715485,326.2661281900073L149.97194424715485,326.2661281900073L150.8425132360495,325.8202273047209L151.42289256197944,326.2661281900073L151.71308222494417,323.590586672668L152.29346155087399,320.9147181951339L152.00327188790902,319.13062417828405L151.13270289901436,316.0081097687507L150.8425132360495,314.22361583331804L150.8425132360495,310.65419147290595L151.13270289901436,310.2079724970863L152.29346155087399,308.8692609830796L153.16403053976865,307.9767411465691L153.16403053976865,307.9767411465691L155.48554784348767,307.9767411465691L156.0659271694176,307.9767411465691L157.51687548424184,310.2079724970863L159.83839278796097,311.5466021343418L161.86972042871514,311.100401351825L162.7402894176098,311.100401351825L165.06180672132882,310.2079724970863L165.93237571022348,309.76174442383854L166.80294469911814,309.31550725268244L169.12446200283728,308.4230056145425L171.4459793065563,307.53046757863194L171.73616896952115,307.08418491023986L171.73616896952115,306.6378931408872L171.15578964359133,307.08418491023986L170.57541031766164,306.6378931408872L170.57541031766164,306.1915922700646L170.57541031766164,306.1915922700646L170.57541031766164,305.7452822972409L170.86559998062648,304.85263504366594L171.4459793065563,304.4062977618669L171.73616896952115,304.4062977618669L172.0263586324861,304.4062977618669L172.0263586324861,304.4062977618669L171.4459793065563,303.5135958857463L170.86559998062648,303.0672312903953L169.70484132876697,301.7280828691437L168.8342723398722,301.28168184863534L168.25389301394262,300.83527172055256L167.6735136880128,300.83527172055256L165.64218604725863,299.9424241396846L164.19123773243416,299.0495401224762L162.7402894176098,298.1566196648564L161.5795307657503,297.7101457696408L160.70896177685563,297.26366276278713L158.67763413610146,296.37066941218654L158.09725481017165,296.37066941218654L156.93649615831214,295.47763960899465L155.19535818052282,295.0311110364055L154.90516851755808,295.0311110364055L154.0345995286633,292.79833144322765L154.614978854593,292.35174817499137L155.19535818052282,291.4585542848363L156.35611683238233,290.56532391971996L156.35611683238233,290.56532391971996L157.2266858212771,290.56532391971996L157.8070651472068,290.56532391971996L158.3874444731366,290.56532391971996L158.67763413610146,290.56532391971996L158.67763413610146,290.1186950577976L159.25801346203116,289.6720570756006L159.54820312499623,289.22540997262695L159.54820312499623,288.33208840234147L159.25801346203116,286.9920376284208L158.9678237990663,284.7584371885896L158.9678237990663,283.41816741235016L157.51687548424184,282.9713925651631L157.51687548424184,282.9713925651631L157.51687548424184,282.5246085895633L156.64630649534718,281.1842018872667L156.35611683238233,280.73738139295165L155.77573750645251,279.84371301098145L155.19535818052282,279.3968651222931L154.90516851755808,278.95000810113925L154.614978854593,278.95000810113925L154.32478919162816,278.95000810113925L153.74440986569846,278.5031419469815L152.87384087680368,277.60938223767516L152.00327188790902,275.37482310145424L151.42289256197944,274.4809354910685L151.71308222494417,272.6930506092358L151.71308222494417,272.6930506092358L153.16403053976865,272.6930506092358L154.614978854593,272.2460565397523L154.90516851755808,272.2460565397523L156.64630649534718,271.3520409783414L158.3874444731366,270.9050194854244L159.25801346203116,270.9050194854244L160.41877211389067,270.010949072559L160.70896177685563,268.66977487812983L161.28934110278533,265.98717956816836L161.28934110278533,265.5400483355952L160.99915143982048,264.64575842508566L160.70896177685563,263.7514319173388L160.41877211389067,262.85706880827274L160.41877211389067,261.96266909379483L160.41877211389067,261.96266909379483L160.70896177685563,261.96266909379483L161.5795307657503,261.5154555082481L162.15991009168,261.06823276981595L162.15991009168,260.1737598322652L161.5795307657503,258.8319817665397L160.99915143982048,257.4901212972545L160.99915143982048,257.4901212972545L160.99915143982048,257.04281615986474L160.99915143982048,256.5955018644854L161.28934110278533,256.1481784106072L161.86972042871514,255.25350402526965L162.15991009168,254.35879299979206L161.86972042871514,253.4640453300417L161.28934110278533,252.5692610119586L160.70896177685563,252.1218551085003L160.41877211389067,251.67444004143545L160.41877211389067,250.77958241437227L160.41877211389067,249.43722723384417L160.70896177685563,248.98975717429857L160.70896177685563,248.09478955308805L160.70896177685563,248.09478955308805L160.99915143982048,248.09478955308805L161.5795307657503,248.09478955308805L161.86972042871514,248.09478955308805L162.15991009168,248.09478955308805L163.3206687435395,247.19978525897022L163.9010480694693,246.75226935828323L163.9010480694693,245.8572100471174L163.9010480694693,245.40966663560175L163.9010480694693,245.40966663560175L163.61085840650446,244.96211405279973L163.3206687435395,244.51455229817657L162.15991009168,241.38136316205055L162.7402894176098,240.4860836904918L161.86972042871514,239.5907675112103L161.28934110278533,238.6954146200551L160.41877211389067,238.24772440626475L159.83839278796097,237.80002501296258L160.12858245092582,237.35231643964653L160.12858245092582,236.9045986858182L159.54820312499623,235.11363585495928L159.25801346203116,235.11363585495928L159.25801346203116,234.21809934302655L158.09725481017165,233.77031731115494L157.2266858212771,232.87472569298188L156.35611683238233,231.97909733219421L155.77573750645251,231.53126937203342L155.48554784348767,231.0834322246701L155.77573750645251,230.18773036630955L155.48554784348767,229.29199175300528L155.48554784348767,228.8441086619605L153.74440986569846,228.8441086619605L153.4542202027335,228.8441086619605L153.16403053976865,228.3962163806318L150.8425132360495,225.70866966812537L152.00327188790902,225.70866966812537L154.0345995286633,224.36477220151573L154.614978854593,224.36477220151573L155.48554784348767,223.02079197617059L156.0659271694176,222.57278017448698L156.64630649534718,222.12475917534903L155.77573750645251,220.33258319375818L156.0659271694176,218.54026001149032L156.0659271694176,217.6440432098243L155.77573750645251,216.74778959563628L155.48554784348767,216.29964898256003L154.90516851755808,214.9551719132469L154.32478919162816,213.61061198799507L153.16403053976865,213.61061198799507L151.71308222494417,213.16240693140207L152.29346155087399,210.47298320005575L153.4542202027335,210.47298320005575L153.74440986569846,210.47298320005575L154.614978854593,210.02471367473117L155.19535818052282,209.12814698791044L155.19535818052282,207.33490305520172L155.48554784348767,207.33490305520172L157.8070651472068,205.98987335026322L158.67763413610146,207.7832278595488L158.9678237990663,209.12814698791044L159.83839278796097,208.67984982538837L160.99915143982048,208.23154344944487L160.99915143982048,207.7832278595488L160.99915143982048,207.33490305520172L160.70896177685563,206.88656903588708L160.70896177685563,206.88656903588708L160.70896177685563,205.98987335026322L160.70896177685563,205.98987335026322L160.70896177685563,205.5415116829463L160.70896177685563,204.6447606966576L160.12858245092582,203.2995650804769L159.83839278796097,201.5058418485678L158.67763413610146,200.60892490463084L158.3874444731366,200.60892490463084L157.2266858212771,199.71197106986074L157.2266858212771,199.2634803171204L157.2266858212771,198.81498034013566L157.51687548424184,197.91795271132287L158.67763413610146,197.02088817928598L159.54820312499623,195.67522217867372L159.83839278796097,194.32947312261967L160.12858245092582,193.88087164474564L160.41877211389067,192.98364099713945L159.25801346203116,190.29172748217752L158.09725481017165,188.49693378741722ZM123.56468491735052,417.48482574251466L123.56468491735052,417.48482574251466L123.27449525438567,417.48482574251466L122.98430559142082,417.9288669365924L122.69411592845586,417.9288669365924L122.98430559142082,418.3728991548669L123.56468491735052,418.81692239782205L123.56468491735052,418.3728991548669ZM137.49378873966498,401.49336065792886L137.49378873966498,401.49336065792886L136.91340941373505,401.49336065792886L136.62321975077032,401.49336065792886L136.33303008780547,401.9377253133898L136.33303008780547,402.3820809750796L136.62321975077032,402.3820809750796L136.91340941373505,402.3820809750796L137.78397840262983,402.3820809750796ZM123.27449525438567,406.8251430443961L123.27449525438567,406.8251430443961L124.14506424328033,405.936602552727L124.72544356921003,405.936602552727L124.72544356921003,405.49231882323875L124.14506424328033,404.603724394412L123.85487458031548,404.15941369409484L123.27449525438567,403.7150940024949L121.2431676136315,404.15941369409484L120.95297795066654,404.603724394412L119.21183997287733,406.8251430443961L119.21183997287733,407.26939980755196L119.21183997287733,407.71364758292475L119.79221929880703,408.6021161723511L120.66278828770169,409.0463369873796L121.53335727659635,409.49054881663324L122.98430559142082,408.6021161723511L123.27449525438567,408.15788637103105L123.85487458031548,407.71364758292475L123.27449525438567,407.26939980755196Z" style="fill: none; stroke: rgb(8, 48, 107);"><title>AISNE</title></path><g stroke="#000" stroke-opacity="0.2"><path d="M0,-13.34775705149959L2.9967581703553763,-4.1246837657014135L12.69447132175327,-4.124683765701414L4.848856575698947,1.5754890056530315L7.845614746054325,10.798562291451207L8.881784197001252e-16,5.098389520096762L-7.845614746054323,10.798562291451208L-4.848856575698946,1.5754890056530328L-12.694471321753271,-4.124683765701411L-2.9967581703553776,-4.124683765701413Z" transform="translate(392.28031282283246,130.53541530498842)rotate(8.32751363826336)" fill="white" class="commune"><title>02789 Population : 2526</title></path><path d="M0,-15.873247654971056L3.5637661381291506,-4.905103281308338L15.096355617026989,-4.905103281308339L5.766294739448918,1.873582735131148L9.330060877578072,12.841727108793865L8.881784197001252e-16,6.063041092354379L-9.330060877578068,12.841727108793867L-5.766294739448918,1.8735827351311491L-15.09635561702699,-4.905103281308335L-3.563766138129152,-4.905103281308337Z" transform="translate(234.41713616993593,478.23505896661663)rotate(23.692207159849023)" fill="white" class="commune"><title>02168 Population : 14847</title></path><path d="M0,-18.876579049491834L4.238056047668955,-5.833183721955068L17.952693510379785,-5.833183721955069L6.857318731355415,2.2280779191642193L11.095374779024372,15.271473246700983L8.881784197001252e-16,7.210211605581696L-11.095374779024368,15.271473246700985L-6.857318731355414,2.2280779191642206L-17.952693510379788,-5.833183721955065L-4.238056047668956,-5.833183721955068Z" transform="translate(304.0626552815081,250.33213985337352)rotate(26.28187162379937)" fill="white" class="commune"><title>02408 Population : 25193</title></path><path d="M0,-18.876579049491834L4.238056047668955,-5.833183721955068L17.952693510379785,-5.833183721955069L6.857318731355415,2.2280779191642193L11.095374779024372,15.271473246700983L8.881784197001252e-16,7.210211605581696L-11.095374779024368,15.271473246700985L-6.857318731355414,2.2280779191642206L-17.952693510379788,-5.833183721955065L-4.238056047668956,-5.833183721955068Z" transform="translate(217.8763253809376,334.73652054004197)rotate(2.074258663073235)" fill="white" class="commune"><title>02722 Population : 28466</title></path><path d="M0,-22.448162112566994L5.039926405668234,-6.936863585267022L21.349470856006818,-6.936863585267023L8.154772225169292,2.649646114250548L13.19469863083753,18.16094464155052L8.881784197001252e-16,8.574434942032948L-13.194698630837525,18.160944641550522L-8.154772225169292,2.649646114250549L-21.34947085600682,-6.936863585267019L-5.0399264056682345,-6.936863585267021Z" transform="translate(204.52760088455295,125.13579243066852)rotate(3.494879662916933)" fill="white" class="commune"><title>02691 Population : 54443</title></path></g><text class="text" y="25" x="326" text-anchor="middle" font-size="24" font-family="Helvetica" fill="#6baed6">02 - AISNE</text><line x1="217.04444834710492" y1="125.49576728895651" x2="379.76346536028046" y2="130.17544044670043" stroke="yellow" opacity="0.35" stroke-width="2"/><line x1="386.39913565341084" y1="138.5218636082141" x2="309.94383245092973" y2="242.34569155014785" stroke="yellow" opacity="0.35" stroke-width="2"/><line x1="299.41962067406996" y1="265.5256677942564" x2="239.06017077737408" y2="463.0415310257338" stroke="yellow" opacity="0.35" stroke-width="2"/><line x1="233.31441545066937" y1="468.6684897381783" x2="218.97904610020416" y2="344.3030897684803" stroke="yellow" opacity="0.35" stroke-width="2"/><line x1="216.98641041451197" y1="320.76313866608376" x2="205.4175158509786" y2="139.10917430462675" stroke="yellow" opacity="0.35" stroke-width="2"/></svg>