<svg viewBox="0,0,954,1144.8" width="954" height="1144.8" style="width: 100%; height: auto;" xmlns="http://www.w3.org/2000/svg" xmlns:xlink="http://www.w3.org/1999/xlink"><rect width="954" height="1144.8" fill="black"/><g stroke="#000" stroke-opacity="0.2"><path d="M0,-13.34775705149959L2.9967581703553763,-4.1246837657014135L12.69447132175327,-4.124683765701414L4.848856575698947,1.5754890056530315L7.845614746054325,10.798562291451207L8.881784197001252e-16,5.098389520096762L-7.845614746054323,10.798562291451208L-4.848856575698946,1.5754890056530328L-12.694471321753271,-4.124683765701411L-2.9967581703553776,-4.124683765701413Z" transform="translate(440.70003365870076,726.055381891103)rotate(12.672805329932796)" fill="white" class="commune"><title>insee_com : 32256 
Population : 3468
 Nom : MIRANDE</title></path><path d="M0,-13.34775705149959L2.9967581703553763,-4.1246837657014135L12.69447132175327,-4.124683765701414L4.848856575698947,1.5754890056530315L7.845614746054325,10.798562291451207L8.881784197001252e-16,5.098389520096762L-7.845614746054323,10.798562291451208L-4.848856575698946,1.5754890056530328L-12.694471321753271,-4.124683765701411L-2.9967581703553776,-4.124683765701413Z" transform="translate(424.57347694378996,353.36551704003796)rotate(8.161924859826048)" fill="white" class="commune"><title>insee_com : 32107 
Population : 6530
 Nom : CONDOM</title></path><path d="M0,-18.876579049491834L4.238056047668955,-5.833183721955068L17.952693510379785,-5.833183721955069L6.857318731355415,2.2280779191642193L11.095374779024372,15.271473246700983L8.881784197001252e-16,7.210211605581696L-11.095374779024368,15.271473246700985L-6.857318731355414,2.2280779191642206L-17.952693510379788,-5.833183721955065L-4.238056047668956,-5.833183721955068Z" transform="translate(551.6385728710871,614.2428016975718)rotate(19.762825211969123)" fill="white" class="commune"><title>insee_com : 32013 
Population : 21935
 Nom : AUCH</title></path></g><text class="text" y="40" x="427" text-anchor="middle" font-size="36" font-family="Helvetica" fill="#6baed6">32  - GERS</text><line x1="543.167566475934" y1="596.850982720403" x2="433.0444833389431" y2="370.7573360172069" stroke="yellow" opacity="0.35" stroke-width="2"/><line x1="425.648580724784" y1="378.211508030109" x2="439.62492987770673" y2="701.2093909010321" stroke="yellow" opacity="0.35" stroke-width="2"/><line x1="448.09593627285983" y1="718.601209878201" x2="544.242670256928" y2="621.6969737104739" stroke="yellow" opacity="0.35" stroke-width="2"/></svg>