<svg viewBox="0,0,954,1144.8" width="954" height="1144.8" style="width: 100%; height: auto;" xmlns="http://www.w3.org/2000/svg" xmlns:xlink="http://www.w3.org/1999/xlink"><rect width="954" height="1144.8" fill="black"/><g stroke="#000" stroke-opacity="0.2"><path d="M0,-13.34775705149959L2.9967581703553763,-4.1246837657014135L12.69447132175327,-4.124683765701414L4.848856575698947,1.5754890056530315L7.845614746054325,10.798562291451207L8.881784197001252e-16,5.098389520096762L-7.845614746054323,10.798562291451208L-4.848856575698946,1.5754890056530328L-12.694471321753271,-4.124683765701411L-2.9967581703553776,-4.124683765701413Z" transform="translate(791.9737039819686,754.497298094946)rotate(20.930170598979494)" fill="white" class="commune"><title>insee_com : 63003 
Population : 6671
 Nom : AMBERT</title></path><path d="M0,-15.873247654971056L3.5637661381291506,-4.905103281308338L15.096355617026989,-4.905103281308339L5.766294739448918,1.873582735131148L9.330060877578072,12.841727108793865L8.881784197001252e-16,6.063041092354379L-9.330060877578068,12.841727108793867L-5.766294739448918,1.8735827351311491L-15.09635561702699,-4.905103281308335L-3.563766138129152,-4.905103281308337Z" transform="translate(682.0017530678688,506.01938386209076)rotate(16.563978615006558)" fill="white" class="commune"><title>insee_com : 63430 
Population : 11847
 Nom : THIERS</title></path><path d="M0,-15.873247654971056L3.5637661381291506,-4.905103281308338L15.096355617026989,-4.905103281308339L5.766294739448918,1.873582735131148L9.330060877578072,12.841727108793865L8.881784197001252e-16,6.063041092354379L-9.330060877578068,12.841727108793867L-5.766294739448918,1.8735827351311491L-15.09635561702699,-4.905103281308335L-3.563766138129152,-4.905103281308337Z" transform="translate(513.6195842724767,757.7300391369536)rotate(29.499285313527363)" fill="white" class="commune"><title>insee_com : 63178 
Population : 14822
 Nom : ISSOIRE</title></path><path d="M0,-15.873247654971056L3.5637661381291506,-4.905103281308338L15.096355617026989,-4.905103281308339L5.766294739448918,1.873582735131148L9.330060877578072,12.841727108793865L8.881784197001252e-16,6.063041092354379L-9.330060877578068,12.841727108793867L-5.766294739448918,1.8735827351311491L-15.09635561702699,-4.905103281308335L-3.563766138129152,-4.905103281308337Z" transform="translate(436.4750813924368,474.8838387674441)rotate(8.941447134555956)" fill="white" class="commune"><title>insee_com : 63300 
Population : 19180
 Nom : RIOM</title></path><path d="M0,-26.69551410299918L5.993516340710753,-8.249367531402827L25.38894264350654,-8.249367531402829L9.697713151397894,3.150978011306063L15.69122949210865,21.597124582902413L1.7763568394002505e-15,10.196779040193524L-15.691229492108645,21.597124582902417L-9.697713151397892,3.1509780113060657L-25.388942643506542,-8.249367531402822L-5.993516340710755,-8.249367531402825Z" transform="translate(420.2877535687453,567.7392800110829)rotate(7.989774910899437)" fill="white" class="commune"><title>insee_com : 63113 
Population : 143886
 Nom : CLERMONT FERRAND</title></path></g><text class="text" y="40" x="427" text-anchor="middle" font-size="36" font-family="Helvetica" fill="#6baed6">63  - PUY DE DOME</text><line x1="426.50987561566075" y1="580.4053306194743" x2="507.39746222556124" y2="745.0639885285622" stroke="yellow" opacity="0.35" stroke-width="2"/><line x1="532.1765255864428" y1="757.5145230674864" x2="773.4167626680024" y2="754.7128141644132" stroke="yellow" opacity="0.35" stroke-width="2"/><line x1="784.6422405876953" y1="737.9321038127557" x2="689.3332164621421" y2="522.5845781442811" stroke="yellow" opacity="0.35" stroke-width="2"/><line x1="665.6333082895067" y1="503.943680855781" x2="452.8435261707989" y2="476.95954177375387" stroke="yellow" opacity="0.35" stroke-width="2"/><line x1="435.3959262041907" y1="481.07420151702" x2="421.3669087569914" y2="561.548917261507" stroke="yellow" opacity="0.35" stroke-width="2"/></svg>