<svg viewBox="0,0,954,1144.8" width="954" height="1144.8" style="width: 100%; height: auto;" xmlns="http://www.w3.org/2000/svg" xmlns:xlink="http://www.w3.org/1999/xlink"><rect width="954" height="1144.8" fill="black"/><g stroke="#000" stroke-opacity="0.2"><path d="M0,-13.34775705149959L2.9967581703553763,-4.1246837657014135L12.69447132175327,-4.124683765701414L4.848856575698947,1.5754890056530315L7.845614746054325,10.798562291451207L8.881784197001252e-16,5.098389520096762L-7.845614746054323,10.798562291451208L-4.848856575698946,1.5754890056530328L-12.694471321753271,-4.124683765701411L-2.9967581703553776,-4.124683765701413Z" transform="translate(666.8103090019436,905.1874660235335)rotate(4.982025744171006)" fill="white" class="commune"><title>insee_com : 89025 
Population : 6572
 Nom : AVALLON</title></path><path d="M0,-18.876579049491834L4.238056047668955,-5.833183721955068L17.952693510379785,-5.833183721955069L6.857318731355415,2.2280779191642193L11.095374779024372,15.271473246700983L8.881784197001252e-16,7.210211605581696L-11.095374779024368,15.271473246700985L-6.857318731355414,2.2280779191642206L-17.952693510379788,-5.833183721955065L-4.238056047668956,-5.833183721955068Z" transform="translate(288.2803807225687,263.7149667657941)rotate(11.24494348516028)" fill="white" class="commune"><title>insee_com : 89387 
Population : 25935
 Nom : SENS</title></path><path d="M0,-18.876579049491834L4.238056047668955,-5.833183721955068L17.952693510379785,-5.833183721955069L6.857318731355415,2.2280779191642193L11.095374779024372,15.271473246700983L8.881784197001252e-16,7.210211605581696L-11.095374779024368,15.271473246700985L-6.857318731355414,2.2280779191642206L-17.952693510379788,-5.833183721955065L-4.238056047668956,-5.833183721955068Z" transform="translate(462.5483611502109,628.4592526472406)rotate(17.47801088449366)" fill="white" class="commune"><title>insee_com : 89024 
Population : 34634
 Nom : AUXERRE</title></path></g><text class="text" y="40" x="427" text-anchor="middle" font-size="36" font-family="Helvetica" fill="#6baed6">89  - YONNE</text><line x1="476.1658243403264" y1="646.9078002056601" x2="653.1928458118281" y2="886.738918465114" stroke="yellow" opacity="0.35" stroke-width="2"/><line x1="641.5749804499852" y1="862.4226327396842" x2="313.515709274527" y2="306.47980004964336" stroke="yellow" opacity="0.35" stroke-width="2"/><line x1="299.8982460844115" y1="288.0312524912239" x2="450.9304957883681" y2="604.1429669218109" stroke="yellow" opacity="0.35" stroke-width="2"/></svg>