<svg viewBox="0,0,955,1146" width="955" height="1146" style="width: 100%; height: auto;" xmlns="http://www.w3.org/2000/svg" xmlns:xlink="http://www.w3.org/1999/xlink"><rect width="955" height="1146" fill="black"/><g stroke="#000" stroke-opacity="0.2"><path d="M0,-13.34775705149959L2.9967581703553763,-4.1246837657014135L12.69447132175327,-4.124683765701414L4.848856575698947,1.5754890056530315L7.845614746054325,10.798562291451207L8.881784197001252e-16,5.098389520096762L-7.845614746054323,10.798562291451208L-4.848856575698946,1.5754890056530328L-12.694471321753271,-4.124683765701411L-2.9967581703553776,-4.124683765701413Z" transform="translate(443.93861892583163,758.1595149103341)rotate(29.356277607963893)" fill="white" class="commune"><title>73248 Population : 7794</title></path><path d="M0,-15.873247654971056L3.5637661381291506,-4.905103281308338L15.096355617026989,-4.905103281308339L5.766294739448918,1.873582735131148L9.330060877578072,12.841727108793865L8.881784197001252e-16,6.063041092354379L-9.330060877578068,12.841727108793867L-5.766294739448918,1.8735827351311491L-15.09635561702699,-4.905103281308335L-3.563766138129152,-4.905103281308337Z" transform="translate(477.50000000000045,431.40876858580305)rotate(7.1391650720068)" fill="white" class="commune"><title>73011 Population : 19055</title></path><path d="M0,-22.448162112566994L5.039926405668234,-6.936863585267022L21.349470856006818,-6.936863585267023L8.154772225169292,2.649646114250548L13.19469863083753,18.16094464155052L8.881784197001252e-16,8.574434942032948L-13.194698630837525,18.160944641550522L-8.154772225169292,2.649646114250549L-21.34947085600682,-6.936863585267019L-5.0399264056682345,-6.936863585267021Z" transform="translate(191.07097186700776,500.9117535559635)rotate(17.665693477481387)" fill="white" class="commune"><title>73065 Population : 59183</title></path></g><text class="text" y="40" x="427.5" text-anchor="middle" font-size="36" font-family="Helvetica" fill="#6baed6">73 - SAVOIE</text><line x1="458.40473145780095" y1="436.0423009171471" x2="210.16624040920726" y2="496.2782212246195" stroke="yellow" opacity="0.35" stroke-width="2"/><line x1="207.92881500426267" y1="518.0616043129215" x2="427.0807757885767" y2="741.0096641533761" stroke="yellow" opacity="0.35" stroke-width="2"/><line x1="446.1760443307762" y1="736.376131822032" x2="475.26257459505587" y2="453.1921516741051" stroke="yellow" opacity="0.35" stroke-width="2"/></svg>