<svg viewBox="0,0,954,1144.8" width="954" height="1144.8" style="width: 100%; height: auto;" xmlns="http://www.w3.org/2000/svg" xmlns:xlink="http://www.w3.org/1999/xlink"><rect width="954" height="1144.8" fill="black"/><g stroke="#000" stroke-opacity="0.2"><path d="M0,-13.34775705149959L2.9967581703553763,-4.1246837657014135L12.69447132175327,-4.124683765701414L4.848856575698947,1.5754890056530315L7.845614746054325,10.798562291451207L8.881784197001252e-16,5.098389520096762L-7.845614746054323,10.798562291451208L-4.848856575698946,1.5754890056530328L-12.694471321753271,-4.124683765701411L-2.9967581703553776,-4.124683765701413Z" transform="translate(526.4583664587601,849.7173388252377)rotate(29.232785584780547)" fill="white" class="commune"><title>insee_com : 18197 
Population : 9437
 Nom : SAINT AMAND MONTROND</title></path><path d="M0,-18.876579049491834L4.238056047668955,-5.833183721955068L17.952693510379785,-5.833183721955069L6.857318731355415,2.2280779191642193L11.095374779024372,15.271473246700983L8.881784197001252e-16,7.210211605581696L-11.095374779024368,15.271473246700985L-6.857318731355414,2.2280779191642206L-17.952693510379788,-5.833183721955065L-4.238056047668956,-5.833183721955068Z" transform="translate(256.5675802025303,397.1827860584308)rotate(12.775135441807977)" fill="white" class="commune"><title>insee_com : 18279 
Population : 25903
 Nom : VIERZON</title></path><path d="M0,-22.448162112566994L5.039926405668234,-6.936863585267022L21.349470856006818,-6.936863585267023L8.154772225169292,2.649646114250548L13.19469863083753,18.16094464155052L8.881784197001252e-16,8.574434942032948L-13.194698630837525,18.160944641550522L-8.154772225169292,2.649646114250549L-21.34947085600682,-6.936863585267019L-5.0399264056682345,-6.936863585267021Z" transform="translate(459.8346743126899,524.9291691054532)rotate(9.441591906824117)" fill="white" class="commune"><title>insee_com : 18033 
Population : 64551
 Nom : BOURGES</title></path></g><text class="text" y="40" x="427" text-anchor="middle" font-size="36" font-family="Helvetica" fill="#6baed6">18  - CHER</text><line x1="464.2762537890946" y1="546.5817137534389" x2="522.0167869823555" y2="828.064794177252" stroke="yellow" opacity="0.35" stroke-width="2"/><line x1="508.46564737501143" y1="819.5483686407839" x2="274.56029928627896" y2="427.35175624288456" stroke="yellow" opacity="0.35" stroke-width="2"/><line x1="270.1187198098743" y1="405.69921159489894" x2="446.2835347053459" y2="516.412743568985" stroke="yellow" opacity="0.35" stroke-width="2"/></svg>