<svg viewBox="0,0,955,1146" width="955" height="1146" style="width: 100%; height: auto;" xmlns="http://www.w3.org/2000/svg" xmlns:xlink="http://www.w3.org/1999/xlink"><rect width="955" height="1146" fill="black"/><g stroke="#000" stroke-opacity="0.2"><path d="M0,-13.34775705149959L2.9967581703553763,-4.1246837657014135L12.69447132175327,-4.124683765701414L4.848856575698947,1.5754890056530315L7.845614746054325,10.798562291451207L8.881784197001252e-16,5.098389520096762L-7.845614746054323,10.798562291451208L-4.848856575698946,1.5754890056530328L-12.694471321753271,-4.124683765701411L-2.9967581703553776,-4.124683765701413Z" transform="translate(315.86655817738006,460.147911737753)rotate(24.201442463494452)" fill="white" class="commune"><title>46127 Population : 4202</title></path><path d="M0,-13.34775705149959L2.9967581703553763,-4.1246837657014135L12.69447132175327,-4.124683765701414L4.848856575698947,1.5754890056530315L7.845614746054325,10.798562291451207L8.881784197001252e-16,5.098389520096762L-7.845614746054323,10.798562291451208L-4.848856575698946,1.5754890056530328L-12.694471321753271,-4.124683765701411L-2.9967581703553776,-4.124683765701413Z" transform="translate(793.7713588283157,594.7551199025111)rotate(28.72592916224805)" fill="white" class="commune"><title>46102 Population : 9833</title></path><path d="M0,-15.873247654971056L3.5637661381291506,-4.905103281308338L15.096355617026989,-4.905103281308339L5.766294739448918,1.873582735131148L9.330060877578072,12.841727108793865L8.881784197001252e-16,6.063041092354379L-9.330060877578068,12.841727108793867L-5.766294739448918,1.8735827351311491L-15.09635561702699,-4.905103281308335L-3.563766138129152,-4.905103281308337Z" transform="translate(362.25793327908855,753.8237031674507)rotate(13.018028484161315)" fill="white" class="commune"><title>46042 Population : 19405</title></path></g><text class="text" y="40" x="427.5" text-anchor="middle" font-size="36" font-family="Helvetica" fill="#6baed6">46 - LOT</text><line x1="391.02549498237033" y1="743.2191309497881" x2="765.0037971250339" y2="605.3596921201737" stroke="yellow" opacity="0.35" stroke-width="2"/><line x1="761.9110387849199" y1="585.7813060248606" x2="347.72687822077575" y2="469.12172561540353" stroke="yellow" opacity="0.35" stroke-width="2"/><line x1="318.95931651749396" y1="479.7262978330662" x2="359.16517493897464" y2="734.2453170721376" stroke="yellow" opacity="0.35" stroke-width="2"/></svg>