<svg viewBox="0,0,955,1146" width="955" height="1146" style="width: 100%; height: auto;" xmlns="http://www.w3.org/2000/svg" xmlns:xlink="http://www.w3.org/1999/xlink"><rect width="955" height="1146" fill="black"/><g stroke="#000" stroke-opacity="0.2"><path d="M0,-13.34775705149959L2.9967581703553763,-4.1246837657014135L12.69447132175327,-4.124683765701414L4.848856575698947,1.5754890056530315L7.845614746054325,10.798562291451207L8.881784197001252e-16,5.098389520096762L-7.845614746054323,10.798562291451208L-4.848856575698946,1.5754890056530328L-12.694471321753271,-4.124683765701411L-2.9967581703553776,-4.124683765701413Z" transform="translate(348.1440217391305,724.1345789539882)rotate(21.65959775368164)" fill="white" class="commune"><title>71106 Population : 2759</title></path><path d="M0,-13.34775705149959L2.9967581703553763,-4.1246837657014135L12.69447132175327,-4.124683765701414L4.848856575698947,1.5754890056530315L7.845614746054325,10.798562291451207L8.881784197001252e-16,5.098389520096762L-7.845614746054323,10.798562291451208L-4.848856575698946,1.5754890056530328L-12.694471321753271,-4.124683765701411L-2.9967581703553776,-4.124683765701413Z" transform="translate(819.334239130435,589.7019308938543)rotate(13.451577967042413)" fill="white" class="commune"><title>71263 Population : 6349</title></path><path d="M0,-15.873247654971056L3.5637661381291506,-4.905103281308338L15.096355617026989,-4.905103281308339L5.766294739448918,1.873582735131148L9.330060877578072,12.841727108793865L8.881784197001252e-16,6.063041092354379L-9.330060877578068,12.841727108793867L-5.766294739448918,1.8735827351311491L-15.09635561702699,-4.905103281308335L-3.563766138129152,-4.905103281308337Z" transform="translate(363.391304347826,366.28664738659063)rotate(6.348260172580803)" fill="white" class="commune"><title>71014 Population : 13532</title></path><path d="M0,-18.876579049491834L4.238056047668955,-5.833183721955068L17.952693510379785,-5.833183721955069L6.857318731355415,2.2280779191642193L11.095374779024372,15.271473246700983L8.881784197001252e-16,7.210211605581696L-11.095374779024368,15.271473246700985L-6.857318731355414,2.2280779191642206L-17.952693510379788,-5.833183721955065L-4.238056047668956,-5.833183721955068Z" transform="translate(612.758152173913,813.9735361107814)rotate(24.666046720313467)" fill="white" class="commune"><title>71270 Population : 33427</title></path><path d="M0,-22.448162112566994L5.039926405668234,-6.936863585267022L21.349470856006818,-6.936863585267023L8.154772225169292,2.649646114250548L13.19469863083753,18.16094464155052L8.881784197001252e-16,8.574434942032948L-13.194698630837525,18.160944641550522L-8.154772225169292,2.649646114250549L-21.34947085600682,-6.936863585267019L-5.0399264056682345,-6.936863585267021Z" transform="translate(629.9728260869565,478.5148447582542)rotate(23.712522949973565)" fill="white" class="commune"><title>71076 Population : 45446</title></path></g><text class="text" y="40" x="427.5" text-anchor="middle" font-size="36" font-family="Helvetica" fill="#6baed6">71 - SAONE ET LOIRE</text><line x1="612.2007246376811" y1="471.0329649334766" x2="381.16340579710135" y2="373.7685272113682" stroke="yellow" opacity="0.35" stroke-width="2"/><line x1="362.3748188405796" y1="390.1431761577505" x2="349.1605072463769" y2="700.2780501828285" stroke="yellow" opacity="0.35" stroke-width="2"/><line x1="365.784963768116" y1="730.1238427644411" x2="595.1172101449275" y2="807.9842723003286" stroke="yellow" opacity="0.35" stroke-width="2"/><line x1="626.5298913043478" y1="799.0220957629863" x2="805.5625000000002" y2="604.6533712416494" stroke="yellow" opacity="0.35" stroke-width="2"/><line x1="806.7101449275364" y1="582.2894584848143" x2="642.5969202898551" y2="485.9273171672942" stroke="yellow" opacity="0.35" stroke-width="2"/></svg>