<svg viewBox="0,0,954,1144.8" width="954" height="1144.8" style="width: 100%; height: auto;" xmlns="http://www.w3.org/2000/svg" xmlns:xlink="http://www.w3.org/1999/xlink"><rect width="954" height="1144.8" fill="black"/><g stroke="#000" stroke-opacity="0.2"><path d="M0,-15.873247654971056L3.5637661381291506,-4.905103281308338L15.096355617026989,-4.905103281308339L5.766294739448918,1.873582735131148L9.330060877578072,12.841727108793865L8.881784197001252e-16,6.063041092354379L-9.330060877578068,12.841727108793867L-5.766294739448918,1.8735827351311491L-15.09635561702699,-4.905103281308335L-3.563766138129152,-4.905103281308337Z" transform="translate(692.6455268869067,388.41457257569346)rotate(22.7276068936674)" fill="white" class="commune"><title>insee_com : 05023 
Population : 11625
 Nom : BRIANCON</title></path><path d="M0,-22.448162112566994L5.039926405668234,-6.936863585267022L21.349470856006818,-6.936863585267023L8.154772225169292,2.649646114250548L13.19469863083753,18.16094464155052L8.881784197001252e-16,8.574434942032948L-13.194698630837525,18.160944641550522L-8.154772225169292,2.649646114250549L-21.34947085600682,-6.936863585267019L-5.0399264056682345,-6.936863585267021Z" transform="translate(385.4446587894863,648.8394531391968)rotate(29.957631376168575)" fill="white" class="commune"><title>insee_com : 05061 
Population : 40895
 Nom : GAP</title></path></g><text class="text" y="40" x="427" text-anchor="middle" font-size="36" font-family="Helvetica" fill="#6baed6">05  - HAUTES ALPES</text><line x1="672.1654690137453" y1="405.776231279927" x2="405.92471666264765" y2="631.4777944349632" stroke="yellow" opacity="0.35" stroke-width="2"/><line x1="405.92471666264765" y1="631.4777944349632" x2="672.1654690137453" y2="405.776231279927" stroke="yellow" opacity="0.35" stroke-width="2"/></svg>