<svg viewBox="0,0,955,1146" width="955" height="1146" style="width: 100%; height: auto;" xmlns="http://www.w3.org/2000/svg" xmlns:xlink="http://www.w3.org/1999/xlink"><rect width="955" height="1146" fill="black"/><g stroke="#000" stroke-opacity="0.2"><path d="M0,-13.34775705149959L2.9967581703553763,-4.1246837657014135L12.69447132175327,-4.124683765701414L4.848856575698947,1.5754890056530315L7.845614746054325,10.798562291451207L8.881784197001252e-16,5.098389520096762L-7.845614746054323,10.798562291451208L-4.848856575698946,1.5754890056530328L-12.694471321753271,-4.124683765701411L-2.9967581703553776,-4.124683765701413Z" transform="translate(244.2111111111111,544.261530658634)rotate(0.9976975708766922)" fill="white" class="commune"><title>09261 Population : 6353</title></path><path d="M0,-13.34775705149959L2.9967581703553763,-4.1246837657014135L12.69447132175327,-4.124683765701414L4.848856575698947,1.5754890056530315L7.845614746054325,10.798562291451207L8.881784197001252e-16,5.098389520096762L-7.845614746054323,10.798562291451208L-4.848856575698946,1.5754890056530328L-12.694471321753271,-4.124683765701411L-2.9967581703553776,-4.124683765701413Z" transform="translate(551.2407407407406,554.3394673389594)rotate(19.369870547453658)" fill="white" class="commune"><title>09122 Population : 9613</title></path><path d="M0,-15.873247654971056L3.5637661381291506,-4.905103281308338L15.096355617026989,-4.905103281308339L5.766294739448918,1.873582735131148L9.330060877578072,12.841727108793865L8.881784197001252e-16,6.063041092354379L-9.330060877578068,12.841727108793867L-5.766294739448918,1.8735827351311491L-15.09635561702699,-4.905103281308335L-3.563766138129152,-4.905103281308337Z" transform="translate(554.5925925925926,408.4917488199753)rotate(2.077920241138772)" fill="white" class="commune"><title>09225 Population : 15688</title></path></g><text class="text" y="40" x="427.5" text-anchor="middle" font-size="36" font-family="Helvetica" fill="#6baed6">09 - ARIEGE</text><line x1="551.4641975308641" y1="544.6162861043605" x2="554.3691358024691" y2="418.21493005457427" stroke="yellow" opacity="0.35" stroke-width="2"/><line x1="533.9004938271605" y1="417.54306760921924" x2="264.9032098765432" y2="535.21021186939" stroke="yellow" opacity="0.35" stroke-width="2"/><line x1="264.67975308641974" y1="544.933393103989" x2="530.772098765432" y2="553.6676048936043" stroke="yellow" opacity="0.35" stroke-width="2"/></svg>