<svg viewBox="0,0,955,1146" width="955" height="1146" style="width: 100%; height: auto;" xmlns="http://www.w3.org/2000/svg" xmlns:xlink="http://www.w3.org/1999/xlink"><rect width="955" height="1146" fill="black"/><g stroke="#000" stroke-opacity="0.2"><path d="M0,-13.34775705149959L2.9967581703553763,-4.1246837657014135L12.69447132175327,-4.124683765701414L4.848856575698947,1.5754890056530315L7.845614746054325,10.798562291451207L8.881784197001252e-16,5.098389520096762L-7.845614746054323,10.798562291451208L-4.848856575698946,1.5754890056530328L-12.694471321753271,-4.124683765701411L-2.9967581703553776,-4.124683765701413Z" transform="translate(534.9678141317233,845.9342899246913)rotate(16.70105238936466)" fill="white" class="commune"><title>18197 Population : 9830</title></path><path d="M0,-18.876579049491834L4.238056047668955,-5.833183721955068L17.952693510379785,-5.833183721955069L6.857318731355415,2.2280779191642193L11.095374779024372,15.271473246700983L8.881784197001252e-16,7.210211605581696L-11.095374779024368,15.271473246700985L-6.857318731355414,2.2280779191642206L-17.952693510379788,-5.833183721955065L-4.238056047668956,-5.833183721955068Z" transform="translate(262.45914712000354,383.09127030178934)rotate(27.407806612472044)" fill="white" class="commune"><title>18279 Population : 26365</title></path><path d="M0,-22.448162112566994L5.039926405668234,-6.936863585267022L21.349470856006818,-6.936863585267023L8.154772225169292,2.649646114250548L13.19469863083753,18.16094464155052L8.881784197001252e-16,8.574434942032948L-13.194698630837525,18.160944641550522L-8.154772225169292,2.649646114250549L-21.34947085600682,-6.936863585267019L-5.0399264056682345,-6.936863585267021Z" transform="translate(463.90546332367853,530.3040100602157)rotate(17.147882744122274)" fill="white" class="commune"><title>18033 Population : 65555</title></path></g><text class="text" y="40" x="427.5" text-anchor="middle" font-size="36" font-family="Helvetica" fill="#6baed6">18 - CHER</text><line x1="468.64295337754817" y1="551.3460287178474" x2="530.2303240778537" y2="824.8922712670595" stroke="yellow" opacity="0.35" stroke-width="2"/><line x1="516.8005696642754" y1="815.0780886164978" x2="280.6263915874515" y2="413.9474716099828" stroke="yellow" opacity="0.35" stroke-width="2"/><line x1="275.8889015335819" y1="392.9054529523511" x2="450.4757089101002" y2="520.4898274096539" stroke="yellow" opacity="0.35" stroke-width="2"/></svg>