<svg viewBox="0,0,954,1144.8" width="954" height="1144.8" style="width: 100%; height: auto;" xmlns="http://www.w3.org/2000/svg" xmlns:xlink="http://www.w3.org/1999/xlink"><rect width="954" height="1144.8" fill="black"/><g stroke="#000" stroke-opacity="0.2"><path d="M0,-13.34775705149959L2.9967581703553763,-4.1246837657014135L12.69447132175327,-4.124683765701414L4.848856575698947,1.5754890056530315L7.845614746054325,10.798562291451207L8.881784197001252e-16,5.098389520096762L-7.845614746054323,10.798562291451208L-4.848856575698946,1.5754890056530328L-12.694471321753271,-4.124683765701411L-2.9967581703553776,-4.124683765701413Z" transform="translate(675.3458463412776,671.0666896205657)rotate(14.798487266525072)" fill="white" class="commune"><title>insee_com : 37132 
Population : 6277
 Nom : LOCHES</title></path><path d="M0,-13.34775705149959L2.9967581703553763,-4.1246837657014135L12.69447132175327,-4.124683765701414L4.848856575698947,1.5754890056530315L7.845614746054325,10.798562291451207L8.881784197001252e-16,5.098389520096762L-7.845614746054323,10.798562291451208L-4.848856575698946,1.5754890056530328L-12.694471321753271,-4.124683765701411L-2.9967581703553776,-4.124683765701413Z" transform="translate(154.0641894464327,631.999721189015)rotate(22.406992856872954)" fill="white" class="commune"><title>insee_com : 37072 
Population : 8242
 Nom : CHINON</title></path><path d="M0,-26.69551410299918L5.993516340710753,-8.249367531402827L25.38894264350654,-8.249367531402829L9.697713151397894,3.150978011306063L15.69122949210865,21.597124582902413L1.7763568394002505e-15,10.196779040193524L-15.691229492108645,21.597124582902417L-9.697713151397892,3.1509780113060657L-25.388942643506542,-8.249367531402822L-5.993516340710755,-8.249367531402825Z" transform="translate(463.336404477271,404.62571034914436)rotate(8.98184470750986)" fill="white" class="commune"><title>insee_com : 37261 
Population : 135787
 Nom : TOURS</title></path></g><text class="text" y="40" x="427" text-anchor="middle" font-size="36" font-family="Helvetica" fill="#6baed6">37  - INDRE ET LOIRE</text><line x1="188.81629990608903" y1="634.6041857511184" x2="640.5937358816212" y2="668.4622250584623" stroke="yellow" opacity="0.35" stroke-width="2"/><line x1="661.2118835503438" y1="653.3039576691376" x2="477.47036726820477" y2="422.3884423005724" stroke="yellow" opacity="0.35" stroke-width="2"/><line x1="442.71825680854846" y1="419.78397773846905" x2="174.68233711515524" y2="616.8414537996903" stroke="yellow" opacity="0.35" stroke-width="2"/></svg>