<svg viewBox="0,0,955,1146" width="955" height="1146" style="width: 100%; height: auto;" xmlns="http://www.w3.org/2000/svg" xmlns:xlink="http://www.w3.org/1999/xlink"><rect width="955" height="1146" fill="black"/><g stroke="#000" stroke-opacity="0.2"><path d="M0,-15.873247654971056L3.5637661381291506,-4.905103281308338L15.096355617026989,-4.905103281308339L5.766294739448918,1.873582735131148L9.330060877578072,12.841727108793865L8.881784197001252e-16,6.063041092354379L-9.330060877578068,12.841727108793867L-5.766294739448918,1.8735827351311491L-15.09635561702699,-4.905103281308335L-3.563766138129152,-4.905103281308337Z" transform="translate(323.35943617854446,569.9869426138102)rotate(8.72357937554858)" fill="white" class="commune"><title>83023 Population : 17498</title></path><path d="M0,-22.448162112566994L5.039926405668234,-6.936863585267022L21.349470856006818,-6.936863585267023L8.154772225169292,2.649646114250548L13.19469863083753,18.16094464155052L8.881784197001252e-16,8.574434942032948L-13.194698630837525,18.160944641550522L-8.154772225169292,2.649646114250549L-21.34947085600682,-6.936863585267019L-5.0399264056682345,-6.936863585267021Z" transform="translate(591.2451057165235,437.184941157102)rotate(3.7136203858830132)" fill="white" class="commune"><title>83050 Population : 40053</title></path><path d="M0,-31.746495309942112L7.127532276258301,-9.810206562616676L30.192711234053977,-9.810206562616678L11.532589478897837,3.747165470262296L18.660121755156144,25.68345421758773L1.7763568394002505e-15,12.126082184708759L-18.660121755156137,25.683454217587734L-11.532589478897837,3.7471654702622983L-30.19271123405398,-9.81020656261667L-7.127532276258304,-9.810206562616674Z" transform="translate(221.30775254502805,825.9597401347928)rotate(7.241410145745055)" fill="white" class="commune"><title>83137 Population : 169634</title></path></g><text class="text" y="40" x="427.5" text-anchor="middle" font-size="36" font-family="Helvetica" fill="#6baed6">83 - VAR</text><line x1="341.2184808144097" y1="561.1334758500296" x2="573.3860610806582" y2="446.03840792088255" stroke="yellow" opacity="0.35" stroke-width="2"/><line x1="566.5826155050905" y1="463.10326108894805" x2="245.9702427564611" y2="800.0414202029467" stroke="yellow" opacity="0.35" stroke-width="2"/><line x1="228.11119812059582" y1="808.8948869667273" x2="316.5559906029767" y2="587.0517957818757" stroke="yellow" opacity="0.35" stroke-width="2"/></svg>