<svg viewBox="0,0,955,1146" width="955" height="1146" style="width: 100%; height: auto;" xmlns="http://www.w3.org/2000/svg" xmlns:xlink="http://www.w3.org/1999/xlink"><rect width="955" height="1146" fill="black"/><g stroke="#000" stroke-opacity="0.2"><path d="M0,-13.34775705149959L2.9967581703553763,-4.1246837657014135L12.69447132175327,-4.124683765701414L4.848856575698947,1.5754890056530315L7.845614746054325,10.798562291451207L8.881784197001252e-16,5.098389520096762L-7.845614746054323,10.798562291451208L-4.848856575698946,1.5754890056530328L-12.694471321753271,-4.124683765701411L-2.9967581703553776,-4.124683765701413Z" transform="translate(465.3544390915347,582.8944263450103)rotate(8.418947177674195)" fill="white" class="commune"><title>66149 Population : 6153</title></path><path d="M0,-13.34775705149959L2.9967581703553763,-4.1246837657014135L12.69447132175327,-4.124683765701414L4.848856575698947,1.5754890056530315L7.845614746054325,10.798562291451207L8.881784197001252e-16,5.098389520096762L-7.845614746054323,10.798562291451208L-4.848856575698946,1.5754890056530328L-12.694471321753271,-4.124683765701411L-2.9967581703553776,-4.124683765701413Z" transform="translate(665.9119064005506,702.0956766742929)rotate(4.588175650871902)" fill="white" class="commune"><title>66049 Population : 7747</title></path><path d="M0,-26.69551410299918L5.993516340710753,-8.249367531402827L25.38894264350654,-8.249367531402829L9.697713151397894,3.150978011306063L15.69122949210865,21.597124582902413L1.7763568394002505e-15,10.196779040193524L-15.691229492108645,21.597124582902417L-9.697713151397892,3.1509780113060657L-25.388942643506542,-8.249367531402822L-5.993516340710755,-8.249367531402825Z" transform="translate(756.8479008947004,513.4475807900562)rotate(18.545806054542307)" fill="white" class="commune"><title>66136 Population : 121875</title></path></g><text class="text" y="40" x="427.5" text-anchor="middle" font-size="36" font-family="Helvetica" fill="#6baed6">66 - PYRENEES ORIENTALES</text><line x1="671.9743060334939" y1="689.5191369486771" x2="750.7855012617571" y2="526.024120515672" stroke="yellow" opacity="0.35" stroke-width="2"/><line x1="737.415003441156" y1="518.0773704937199" x2="484.7873365450791" y2="578.2646366413467" stroke="yellow" opacity="0.35" stroke-width="2"/><line x1="478.7249369121358" y1="590.8411763669625" x2="652.5414085799496" y2="694.1489266523407" stroke="yellow" opacity="0.35" stroke-width="2"/></svg>