<svg viewBox="0,0,955,1146" width="955" height="1146" style="width: 100%; height: auto;" xmlns="http://www.w3.org/2000/svg" xmlns:xlink="http://www.w3.org/1999/xlink"><rect width="955" height="1146" fill="black"/><g stroke="#000" stroke-opacity="0.2"><path d="M0,-15.873247654971056L3.5637661381291506,-4.905103281308338L15.096355617026989,-4.905103281308339L5.766294739448918,1.873582735131148L9.330060877578072,12.841727108793865L8.881784197001252e-16,6.063041092354379L-9.330060877578068,12.841727108793867L-5.766294739448918,1.8735827351311491L-15.09635561702699,-4.905103281308335L-3.563766138129152,-4.905103281308337Z" transform="translate(682.8243327126008,262.8379702069142)rotate(7.966516774131389)" fill="white" class="commune"><title>44036 Population : 11854</title></path><path d="M0,-22.448162112566994L5.039926405668234,-6.936863585267022L21.349470856006818,-6.936863585267023L8.154772225169292,2.649646114250548L13.19469863083753,18.16094464155052L8.881784197001252e-16,8.574434942032948L-13.194698630837525,18.160944641550522L-8.154772225169292,2.649646114250549L-21.34947085600682,-6.936863585267019L-5.0399264056682345,-6.936863585267021Z" transform="translate(197.4612042209808,630.377348519236)rotate(15.730138932561085)" fill="white" class="commune"><title>44184 Population : 69719</title></path><path d="M0,-31.746495309942112L7.127532276258301,-9.810206562616676L30.192711234053977,-9.810206562616678L11.532589478897837,3.747165470262296L18.660121755156144,25.68345421758773L1.7763568394002505e-15,12.126082184708759L-18.660121755156137,25.683454217587734L-11.532589478897837,3.7471654702622983L-30.19271123405398,-9.81020656261667L-7.127532276258304,-9.810206562616674Z" transform="translate(592.3805090006208,670.1057610882708)rotate(24.19630350780087)" fill="white" class="commune"><title>44109 Population : 306694</title></path></g><text class="text" y="40" x="427.5" text-anchor="middle" font-size="36" font-family="Helvetica" fill="#6baed6">44 - LOIRE ATLANTIQUE</text><line x1="676.7947444651355" y1="289.9891562656713" x2="598.4100972480861" y2="642.9545750295136" stroke="yellow" opacity="0.35" stroke-width="2"/><line x1="566.0525553486448" y1="667.4572002503352" x2="223.7891578729568" y2="633.0259093571716" stroke="yellow" opacity="0.35" stroke-width="2"/><line x1="229.81874612042213" y1="605.8747232984146" x2="650.4667908131595" y2="287.34059542773565" stroke="yellow" opacity="0.35" stroke-width="2"/></svg>