<svg viewBox="0,0,954,1144.8" width="954" height="1144.8" style="width: 100%; height: auto;" xmlns="http://www.w3.org/2000/svg" xmlns:xlink="http://www.w3.org/1999/xlink"><rect width="954" height="1144.8" fill="black"/><g stroke="#000" stroke-opacity="0.2"><path d="M0,-18.876579049491834L4.238056047668955,-5.833183721955068L17.952693510379785,-5.833183721955069L6.857318731355415,2.2280779191642193L11.095374779024372,15.271473246700983L8.881784197001252e-16,7.210211605581696L-11.095374779024368,15.271473246700985L-6.857318731355414,2.2280779191642206L-17.952693510379788,-5.833183721955065L-4.238056047668956,-5.833183721955068Z" transform="translate(488.9809838208621,435.01270332810236)rotate(11.654938881313058)" fill="white" class="commune"><title>insee_com : 69264 
Population : 36857
 Nom : VILLEFRANCHE SUR SAONE</title></path><path d="M0,-37.75315809898367L8.47611209533791,-11.666367443910136L35.90538702075957,-11.666367443910138L13.71463746271083,4.4561558383284385L22.190749558048743,30.542946493401967L1.7763568394002505e-15,14.420423211163392L-22.190749558048736,30.54294649340197L-13.714637462710828,4.456155838328441L-35.905387020759576,-11.66636744391013L-8.476112095337912,-11.666367443910136Z" transform="translate(596.0051452654279,719.0977510189186)rotate(11.59595288345446)" fill="white" class="commune"><title>insee_com : 69123 
Population : 516092
 Nom : LYON</title></path></g><text class="text" y="40" x="427" text-anchor="middle" font-size="36" font-family="Helvetica" fill="#6baed6">69  - RHONE</text><line x1="588.8702011691236" y1="700.1587478395309" x2="496.11592791716646" y2="453.9517065074901" stroke="yellow" opacity="0.35" stroke-width="2"/><line x1="496.11592791716646" y1="453.9517065074901" x2="588.8702011691236" y2="700.1587478395309" stroke="yellow" opacity="0.35" stroke-width="2"/></svg>