<svg viewBox="0,0,954,1144.8" width="954" height="1144.8" style="width: 100%; height: auto;" xmlns="http://www.w3.org/2000/svg" xmlns:xlink="http://www.w3.org/1999/xlink"><rect width="954" height="1144.8" fill="black"/><g stroke="#000" stroke-opacity="0.2"><path d="M0,-13.34775705149959L2.9967581703553763,-4.1246837657014135L12.69447132175327,-4.124683765701414L4.848856575698947,1.5754890056530315L7.845614746054325,10.798562291451207L8.881784197001252e-16,5.098389520096762L-7.845614746054323,10.798562291451208L-4.848856575698946,1.5754890056530328L-12.694471321753271,-4.124683765701411L-2.9967581703553776,-4.124683765701413Z" transform="translate(73.15885059326831,713.1461107329378)rotate(16.17168051765766)" fill="white" class="commune"><title>insee_com : 28280 
Population : 9715
 Nom : NOGENT LE ROTROU</title></path><path d="M0,-15.873247654971056L3.5637661381291506,-4.905103281308338L15.096355617026989,-4.905103281308339L5.766294739448918,1.873582735131148L9.330060877578072,12.841727108793865L8.881784197001252e-16,6.063041092354379L-9.330060877578068,12.841727108793867L-5.766294739448918,1.8735827351311491L-15.09635561702699,-4.905103281308335L-3.563766138129152,-4.905103281308337Z" transform="translate(442.5226410525469,988.233758413342)rotate(18.229982056939214)" fill="white" class="commune"><title>insee_com : 28088 
Population : 13195
 Nom : CHATEAUDUN</title></path><path d="M0,-18.876579049491834L4.238056047668955,-5.833183721955068L17.952693510379785,-5.833183721955069L6.857318731355415,2.2280779191642193L11.095374779024372,15.271473246700983L8.881784197001252e-16,7.210211605581696L-11.095374779024368,15.271473246700985L-6.857318731355414,2.2280779191642206L-17.952693510379788,-5.833183721955065L-4.238056047668956,-5.833183721955068Z" transform="translate(473.8988618936155,256.6540749179403)rotate(11.749772074677546)" fill="white" class="commune"><title>insee_com : 28134 
Population : 31044
 Nom : DREUX</title></path><path d="M0,-18.876579049491834L4.238056047668955,-5.833183721955068L17.952693510379785,-5.833183721955069L6.857318731355415,2.2280779191642193L11.095374779024372,15.271473246700983L8.881784197001252e-16,7.210211605581696L-11.095374779024368,15.271473246700985L-6.857318731355414,2.2280779191642206L-17.952693510379788,-5.833183721955065L-4.238056047668956,-5.833183721955068Z" transform="translate(560.0010493179434,578.8890732627915)rotate(10.549371137634102)" fill="white" class="commune"><title>insee_com : 28085 
Population : 38578
 Nom : CHARTRES</title></path></g><text class="text" y="40" x="427" text-anchor="middle" font-size="36" font-family="Helvetica" fill="#6baed6">28  - EURE ET LOIR</text><line x1="447.18286114025904" y1="287.08687730560683" x2="99.8748513466248" y2="682.7133083452713" stroke="yellow" opacity="0.35" stroke-width="2"/><line x1="97.78310329055356" y1="731.4852872449648" x2="417.89838835526166" y2="969.8945819013151" stroke="yellow" opacity="0.35" stroke-width="2"/><line x1="450.35453493690665" y1="960.9441127366387" x2="552.1691554335837" y2="606.1787189394948" stroke="yellow" opacity="0.35" stroke-width="2"/><line x1="554.2609034896549" y1="557.4067400398014" x2="479.639007721904" y2="278.13640814093037" stroke="yellow" opacity="0.35" stroke-width="2"/></svg>