<svg viewBox="0,0,955,1146" width="955" height="1146" style="width: 100%; height: auto;" xmlns="http://www.w3.org/2000/svg" xmlns:xlink="http://www.w3.org/1999/xlink"><rect width="955" height="1146" fill="black"/><g stroke="#000" stroke-opacity="0.2"><path d="M0,-13.34775705149959L2.9967581703553763,-4.1246837657014135L12.69447132175327,-4.124683765701414L4.848856575698947,1.5754890056530315L7.845614746054325,10.798562291451207L8.881784197001252e-16,5.098389520096762L-7.845614746054323,10.798562291451208L-4.848856575698946,1.5754890056530328L-12.694471321753271,-4.124683765701411L-2.9967581703553776,-4.124683765701413Z" transform="translate(680.2453792224346,813.4076260501315)rotate(20.390330615694648)" fill="white" class="commune"><title>17197 Population : 3442</title></path><path d="M0,-13.34775705149959L2.9967581703553763,-4.1246837657014135L12.69447132175327,-4.124683765701414L4.848856575698947,1.5754890056530315L7.845614746054325,10.798562291451207L8.881784197001252e-16,5.098389520096762L-7.845614746054323,10.798562291451208L-4.848856575698946,1.5754890056530328L-12.694471321753271,-4.124683765701411L-2.9967581703553776,-4.124683765701413Z" transform="translate(626.6029318036966,399.6979619998456)rotate(5.612278433365878)" fill="white" class="commune"><title>17347 Population : 7066</title></path><path d="M0,-18.876579049491834L4.238056047668955,-5.833183721955068L17.952693510379785,-5.833183721955069L6.857318731355415,2.2280779191642193L11.095374779024372,15.271473246700983L8.881784197001252e-16,7.210211605581696L-11.095374779024368,15.271473246700985L-6.857318731355414,2.2280779191642206L-17.952693510379788,-5.833183721955065L-4.238056047668956,-5.833183721955068Z" transform="translate(365.88910133843206,399.6979619998456)rotate(6.000816536625257)" fill="white" class="commune"><title>17299 Population : 24047</title></path><path d="M0,-18.876579049491834L4.238056047668955,-5.833183721955068L17.952693510379785,-5.833183721955069L6.857318731355415,2.2280779191642193L11.095374779024372,15.271473246700983L8.881784197001252e-16,7.210211605581696L-11.095374779024368,15.271473246700985L-6.857318731355414,2.2280779191642206L-17.952693510379788,-5.833183721955065L-4.238056047668956,-5.833183721955068Z" transform="translate(551.6188655194392,566.1228458072583)rotate(22.0687487157552)" fill="white" class="commune"><title>17415 Population : 25355</title></path><path d="M0,-22.448162112566994L5.039926405668234,-6.936863585267022L21.349470856006818,-6.936863585267023L8.154772225169292,2.649646114250548L13.19469863083753,18.16094464155052L8.881784197001252e-16,8.574434942032948L-13.194698630837525,18.160944641550522L-8.154772225169292,2.649646114250549L-21.34947085600682,-6.936863585267019L-5.0399264056682345,-6.936863585267021Z" transform="translate(249.37539834289362,217.68103793078626)rotate(5.51403730307579)" fill="white" class="commune"><title>17300 Population : 75736</title></path></g><text class="text" y="40" x="427.5" text-anchor="middle" font-size="36" font-family="Helvetica" fill="#6baed6">17 - CHARENTE MARITIME</text><line x1="659.2882940301678" y1="785.8269817801124" x2="386.8461865306989" y2="427.2786062698646" stroke="yellow" opacity="0.35" stroke-width="2"/><line x1="358.1215211387295" y1="387.56350039524165" x2="257.14297854259615" y2="229.81549953539022" stroke="yellow" opacity="0.35" stroke-width="2"/><line x1="274.52390057361384" y1="229.81549953539022" x2="601.4544295729764" y2="387.56350039524165" stroke="yellow" opacity="0.35" stroke-width="2"/><line x1="621.6039940514128" y1="410.7929542536731" x2="556.617803271723" y2="555.0278535534308" stroke="yellow" opacity="0.35" stroke-width="2"/><line x1="560.1939664329722" y1="582.6084978234499" x2="671.6702783089016" y2="796.9219740339399" stroke="yellow" opacity="0.35" stroke-width="2"/></svg>