<svg viewBox="0,0,954,1144.8" width="954" height="1144.8" style="width: 100%; height: auto;" xmlns="http://www.w3.org/2000/svg" xmlns:xlink="http://www.w3.org/1999/xlink"><rect width="954" height="1144.8" fill="black"/><g stroke="#000" stroke-opacity="0.2"><path d="M0,-13.34775705149959L2.9967581703553763,-4.1246837657014135L12.69447132175327,-4.124683765701414L4.848856575698947,1.5754890056530315L7.845614746054325,10.798562291451207L8.881784197001252e-16,5.098389520096762L-7.845614746054323,10.798562291451208L-4.848856575698946,1.5754890056530328L-12.694471321753271,-4.124683765701411L-2.9967581703553776,-4.124683765701413Z" transform="translate(565.8898007033997,254.4056301705932)rotate(9.663205737431333)" fill="white" class="commune"><title>insee_com : 72180 
Population : 5299
 Nom : MAMERS</title></path><path d="M0,-15.873247654971056L3.5637661381291506,-4.905103281308338L15.096355617026989,-4.905103281308339L5.766294739448918,1.873582735131148L9.330060877578072,12.841727108793865L8.881784197001252e-16,6.063041092354379L-9.330060877578068,12.841727108793867L-5.766294739448918,1.8735827351311491L-15.09635561702699,-4.905103281308335L-3.563766138129152,-4.905103281308337Z" transform="translate(272.32825322391557,901.0978892215571)rotate(27.64242283736656)" fill="white" class="commune"><title>insee_com : 72154 
Population : 14956
 Nom : FLECHE</title></path><path d="M0,-26.69551410299918L5.993516340710753,-8.249367531402827L25.38894264350654,-8.249367531402829L9.697713151397894,3.150978011306063L15.69122949210865,21.597124582902413L1.7763568394002505e-15,10.196779040193524L-15.691229492108645,21.597124582902417L-9.697713151397892,3.1509780113060657L-25.388942643506542,-8.249367531402822L-5.993516340710755,-8.249367531402825Z" transform="translate(452.49237983587335,593.4304353053012)rotate(10.191279578689276)" fill="white" class="commune"><title>insee_com : 72181 
Population : 142946
 Nom : MANS</title></path></g><text class="text" y="40" x="427" text-anchor="middle" font-size="36" font-family="Helvetica" fill="#6baed6">72  - SARTHE</text><line x1="291.8990230558812" y1="857.9850719514928" x2="546.319030871434" y2="297.5184474406575" stroke="yellow" opacity="0.35" stroke-width="2"/><line x1="558.3299726455646" y1="277.0072838462404" x2="460.05220789370844" y2="570.828781629654" stroke="yellow" opacity="0.35" stroke-width="2"/><line x1="440.48143806174284" y1="613.9415988997183" x2="284.3391949980461" y2="880.58672562714" stroke="yellow" opacity="0.35" stroke-width="2"/></svg>