<svg viewBox="0,0,954,1144.8" width="954" height="1144.8" style="width: 100%; height: auto;" xmlns="http://www.w3.org/2000/svg" xmlns:xlink="http://www.w3.org/1999/xlink"><rect width="954" height="1144.8" fill="black"/><g stroke="#000" stroke-opacity="0.2"><path d="M0,-13.34775705149959L2.9967581703553763,-4.1246837657014135L12.69447132175327,-4.124683765701414L4.848856575698947,1.5754890056530315L7.845614746054325,10.798562291451207L8.881784197001252e-16,5.098389520096762L-7.845614746054323,10.798562291451208L-4.848856575698946,1.5754890056530328L-12.694471321753271,-4.124683765701411L-2.9967581703553776,-4.124683765701413Z" transform="translate(832.0011479505706,653.5209711655843)rotate(10.285224933208635)" fill="white" class="commune"><title>insee_com : 10033 
Population : 4902
 Nom : BAR SUR AUBE</title></path><path d="M0,-13.34775705149959L2.9967581703553763,-4.1246837657014135L12.69447132175327,-4.124683765701414L4.848856575698947,1.5754890056530315L7.845614746054325,10.798562291451207L8.881784197001252e-16,5.098389520096762L-7.845614746054323,10.798562291451208L-4.848856575698946,1.5754890056530328L-12.694471321753271,-4.124683765701411L-2.9967581703553776,-4.124683765701413Z" transform="translate(94.83428995880877,415.37532005185494)rotate(9.873266889763197)" fill="white" class="commune"><title>insee_com : 10268 
Population : 5980
 Nom : NOGENT SUR SEINE</title></path><path d="M0,-22.448162112566994L5.039926405668234,-6.936863585267022L21.349470856006818,-6.936863585267023L8.154772225169292,2.649646114250548L13.19469863083753,18.16094464155052L8.881784197001252e-16,8.574434942032948L-13.194698630837525,18.160944641550522L-8.154772225169292,2.649646114250549L-21.34947085600682,-6.936863585267019L-5.0399264056682345,-6.936863585267021Z" transform="translate(446.3864541832663,594.4650759085853)rotate(9.87486797921573)" fill="white" class="commune"><title>insee_com : 10387 
Population : 61652
 Nom : TROYES</title></path></g><text class="text" y="40" x="427" text-anchor="middle" font-size="36" font-family="Helvetica" fill="#6baed6">10  - AUBE</text><line x1="782.8566907511198" y1="637.6445944246691" x2="143.97874715825955" y2="431.25169679277025" stroke="yellow" opacity="0.35" stroke-width="2"/><line x1="118.27110090710593" y1="427.3146371089703" x2="422.94964323496913" y2="582.52575885147" stroke="yellow" opacity="0.35" stroke-width="2"/><line x1="472.09410043441994" y1="598.4021355923852" x2="806.293501699417" y2="649.5839114817844" stroke="yellow" opacity="0.35" stroke-width="2"/></svg>