<svg viewBox="0,0,954,1144.8" width="954" height="1144.8" style="width: 100%; height: auto;" xmlns="http://www.w3.org/2000/svg" xmlns:xlink="http://www.w3.org/1999/xlink"><rect width="954" height="1144.8" fill="black"/><g stroke="#000" stroke-opacity="0.2"><path d="M0,-13.34775705149959L2.9967581703553763,-4.1246837657014135L12.69447132175327,-4.124683765701414L4.848856575698947,1.5754890056530315L7.845614746054325,10.798562291451207L8.881784197001252e-16,5.098389520096762L-7.845614746054323,10.798562291451208L-4.848856575698946,1.5754890056530328L-12.694471321753271,-4.124683765701411L-2.9967581703553776,-4.124683765701413Z" transform="translate(564.4531258904658,599.1535742900305)rotate(16.21620412723174)" fill="white" class="commune"><title>insee_com : 29026 
Population : 5214
 Nom : CHATEAULIN</title></path><path d="M0,-15.873247654971056L3.5637661381291506,-4.905103281308338L15.096355617026989,-4.905103281308339L5.766294739448918,1.873582735131148L9.330060877578072,12.841727108793865L8.881784197001252e-16,6.063041092354379L-9.330060877578068,12.841727108793867L-5.766294739448918,1.8735827351311491L-15.09635561702699,-4.905103281308335L-3.563766138129152,-4.905103281308337Z" transform="translate(701.4930757394429,302.73131002910304)rotate(6.568891286368206)" fill="white" class="commune"><title>insee_com : 29151 
Population : 14559
 Nom : MORLAIX</title></path><path d="M0,-22.448162112566994L5.039926405668234,-6.936863585267022L21.349470856006818,-6.936863585267023L8.154772225169292,2.649646114250548L13.19469863083753,18.16094464155052L8.881784197001252e-16,8.574434942032948L-13.194698630837525,18.160944641550522L-8.154772225169292,2.649646114250549L-21.34947085600682,-6.936863585267019L-5.0399264056682345,-6.936863585267021Z" transform="translate(560.4346611956457,752.6569801381484)rotate(29.183165625812343)" fill="white" class="commune"><title>insee_com : 29232 
Population : 62985
 Nom : QUIMPER</title></path><path d="M0,-26.69551410299918L5.993516340710753,-8.249367531402827L25.38894264350654,-8.249367531402829L9.697713151397894,3.150978011306063L15.69122949210865,21.597124582902413L1.7763568394002505e-15,10.196779040193524L-15.691229492108645,21.597124582902417L-9.697713151397892,3.1509780113060657L-25.388942643506542,-8.249367531402822L-5.993516340710755,-8.249367531402825Z" transform="translate(363.06622214623576,447.53556691389895)rotate(10.608172654843086)" fill="white" class="commune"><title>insee_com : 29019 
Population : 140064
 Nom : BREST</title></path></g><text class="text" y="40" x="427" text-anchor="middle" font-size="36" font-family="Helvetica" fill="#6baed6">29  - FINISTERE</text><line x1="376.4920157291844" y1="457.64343407230774" x2="551.0273323075171" y2="589.0457071316217" stroke="yellow" opacity="0.35" stroke-width="2"/><line x1="573.5891225470642" y1="579.3920900059687" x2="692.3570790828445" y2="322.4927943131649" stroke="yellow" opacity="0.35" stroke-width="2"/><line x1="692.0891814365231" y1="332.7263547030394" x2="569.8385554985656" y2="722.661935464212" stroke="yellow" opacity="0.35" stroke-width="2"/><line x1="547.2767652590184" y1="732.3155525898651" x2="376.2241180828631" y2="467.87699446218227" stroke="yellow" opacity="0.35" stroke-width="2"/></svg>