<svg viewBox="0,0,955,1146" width="955" height="1146" style="width: 100%; height: auto;" xmlns="http://www.w3.org/2000/svg" xmlns:xlink="http://www.w3.org/1999/xlink"><rect width="955" height="1146" fill="black"/><g stroke="#000" stroke-opacity="0.2"><path d="M0,-13.34775705149959L2.9967581703553763,-4.1246837657014135L12.69447132175327,-4.124683765701414L4.848856575698947,1.5754890056530315L7.845614746054325,10.798562291451207L8.881784197001252e-16,5.098389520096762L-7.845614746054323,10.798562291451208L-4.848856575698946,1.5754890056530328L-12.694471321753271,-4.124683765701411L-2.9967581703553776,-4.124683765701413Z" transform="translate(774.4205679201846,369.13590604906494)rotate(10.363069076439679)" fill="white" class="commune"><title>19275 Population : 9782</title></path><path d="M0,-15.873247654971056L3.5637661381291506,-4.905103281308338L15.096355617026989,-4.905103281308339L5.766294739448918,1.873582735131148L9.330060877578072,12.841727108793865L8.881784197001252e-16,6.063041092354379L-9.330060877578068,12.841727108793867L-5.766294739448918,1.8735827351311491L-15.09635561702699,-4.905103281308335L-3.563766138129152,-4.905103281308337Z" transform="translate(397.97390636991577,643.1935055993454)rotate(10.423880158766584)" fill="white" class="commune"><title>19272 Population : 14453</title></path><path d="M0,-22.448162112566994L5.039926405668234,-6.936863585267022L21.349470856006818,-6.936863585267023L8.154772225169292,2.649646114250548L13.19469863083753,18.16094464155052L8.881784197001252e-16,8.574434942032948L-13.194698630837525,18.160944641550522L-8.154772225169292,2.649646114250549L-21.34947085600682,-6.936863585267019L-5.0399264056682345,-6.936863585267021Z" transform="translate(228.50345356868775,771.351335816973)rotate(4.961977239984038)" fill="white" class="commune"><title>19031 Population : 47004</title></path></g><text class="text" y="40" x="427.5" text-anchor="middle" font-size="36" font-family="Helvetica" fill="#6baed6">19 - CORREZE</text><line x1="239.8014837554363" y1="762.8074804691312" x2="386.67587618316725" y2="651.7373609471872" stroke="yellow" opacity="0.35" stroke-width="2"/><line x1="423.070350473267" y1="624.92299896266" x2="749.3241238168333" y2="387.4064126857503" stroke="yellow" opacity="0.35" stroke-width="2"/><line x1="738.0260936300848" y1="395.9502680335921" x2="264.8979278587875" y2="744.5369738324458" stroke="yellow" opacity="0.35" stroke-width="2"/></svg>