<svg viewBox="0,0,954,1144.8" width="954" height="1144.8" style="width: 100%; height: auto;" xmlns="http://www.w3.org/2000/svg" xmlns:xlink="http://www.w3.org/1999/xlink"><rect width="954" height="1144.8" fill="black"/><g stroke="#000" stroke-opacity="0.2"><path d="M0,-15.873247654971056L3.5637661381291506,-4.905103281308338L15.096355617026989,-4.905103281308339L5.766294739448918,1.873582735131148L9.330060877578072,12.841727108793865L8.881784197001252e-16,6.063041092354379L-9.330060877578068,12.841727108793867L-5.766294739448918,1.8735827351311491L-15.09635561702699,-4.905103281308335L-3.563766138129152,-4.905103281308337Z" transform="translate(577.3660130718954,422.9581920932542)rotate(22.341666857649233)" fill="white" class="commune"><title>insee_com : 03190 
Population : 19664
 Nom : MOULINS</title></path><path d="M0,-18.876579049491834L4.238056047668955,-5.833183721955068L17.952693510379785,-5.833183721955069L6.857318731355415,2.2280779191642193L11.095374779024372,15.271473246700983L8.881784197001252e-16,7.210211605581696L-11.095374779024368,15.271473246700985L-6.857318731355414,2.2280779191642206L-17.952693510379788,-5.833183721955065L-4.238056047668956,-5.833183721955068Z" transform="translate(627.143790849673,757.5262372431389)rotate(11.665603200892116)" fill="white" class="commune"><title>insee_com : 03310 
Population : 24166
 Nom : VICHY</title></path><path d="M0,-18.876579049491834L4.238056047668955,-5.833183721955068L17.952693510379785,-5.833183721955069L6.857318731355415,2.2280779191642193L11.095374779024372,15.271473246700983L8.881784197001252e-16,7.210211605581696L-11.095374779024368,15.271473246700985L-6.857318731355414,2.2280779191642206L-17.952693510379788,-5.833183721955065L-4.238056047668956,-5.833183721955068Z" transform="translate(197.44444444444412,594.6322822933616)rotate(29.565725050671702)" fill="white" class="commune"><title>insee_com : 03185 
Population : 35653
 Nom : MONTLUCON</title></path></g><text class="text" y="40" x="427" text-anchor="middle" font-size="36" font-family="Helvetica" fill="#6baed6">03  - ALLIER</text><line x1="222.77254901960754" y1="583.1873429466879" x2="552.037908496732" y2="434.403131439928" stroke="yellow" opacity="0.35" stroke-width="2"/><line x1="580.6845315904139" y1="445.26272843657983" x2="623.8252723311545" y2="735.2217008998133" stroke="yellow" opacity="0.35" stroke-width="2"/><line x1="598.4971677559911" y1="746.6666402464871" x2="226.09106753812603" y2="605.4918792900135" stroke="yellow" opacity="0.35" stroke-width="2"/></svg>