<svg viewBox="0,0,955,1146" width="955" height="1146" style="width: 100%; height: auto;" xmlns="http://www.w3.org/2000/svg" xmlns:xlink="http://www.w3.org/1999/xlink"><rect width="955" height="1146" fill="black"/><g stroke="#000" stroke-opacity="0.2"><path d="M0,-13.34775705149959L2.9967581703553763,-4.1246837657014135L12.69447132175327,-4.124683765701414L4.848856575698947,1.5754890056530315L7.845614746054325,10.798562291451207L8.881784197001252e-16,5.098389520096762L-7.845614746054323,10.798562291451208L-4.848856575698946,1.5754890056530328L-12.694471321753271,-4.124683765701411L-2.9967581703553776,-4.124683765701413Z" transform="translate(220.6756756756754,382.1323537370263)rotate(9.761502814777595)" fill="white" class="commune"><title>43040 Population : 6718</title></path><path d="M0,-13.34775705149959L2.9967581703553763,-4.1246837657014135L12.69447132175327,-4.124683765701414L4.848856575698947,1.5754890056530315L7.845614746054325,10.798562291451207L8.881784197001252e-16,5.098389520096762L-7.845614746054323,10.798562291451208L-4.848856575698946,1.5754890056530328L-12.694471321753271,-4.124683765701411L-2.9967581703553776,-4.124683765701413Z" transform="translate(700.2098150782363,525.5931431187855)rotate(13.409357559100663)" fill="white" class="commune"><title>43268 Population : 7162</title></path><path d="M0,-15.873247654971056L3.5637661381291506,-4.905103281308338L15.096355617026989,-4.905103281308339L5.766294739448918,1.873582735131148L9.330060877578072,12.841727108793865L8.881784197001252e-16,6.063041092354379L-9.330060877578068,12.841727108793867L-5.766294739448918,1.8735827351311491L-15.09635561702699,-4.905103281308335L-3.563766138129152,-4.905103281308337Z" transform="translate(548.9473684210525,626.7826039817701)rotate(2.7636698180973163)" fill="white" class="commune"><title>43157 Population : 19115</title></path></g><text class="text" y="40" x="427.5" text-anchor="middle" font-size="36" font-family="Helvetica" fill="#6baed6">43 - HAUTE LOIRE</text><line x1="242.56045519203386" y1="398.4423704200092" x2="527.062588904694" y2="610.4725872987872" stroke="yellow" opacity="0.35" stroke-width="2"/><line x1="559.0315315315314" y1="620.0366399242378" x2="690.1256519677573" y2="532.3391071763178" stroke="yellow" opacity="0.35" stroke-width="2"/><line x1="668.2408724513989" y1="516.0290904933349" x2="252.64461830251278" y2="391.6964063624769" stroke="yellow" opacity="0.35" stroke-width="2"/></svg>