<svg viewBox="0,0,954,1144.8" width="954" height="1144.8" style="width: 100%; height: auto;" xmlns="http://www.w3.org/2000/svg" xmlns:xlink="http://www.w3.org/1999/xlink"><rect width="954" height="1144.8" fill="black"/><g stroke="#000" stroke-opacity="0.2"><path d="M0,-13.34775705149959L2.9967581703553763,-4.1246837657014135L12.69447132175327,-4.124683765701414L4.848856575698947,1.5754890056530315L7.845614746054325,10.798562291451207L8.881784197001252e-16,5.098389520096762L-7.845614746054323,10.798562291451208L-4.848856575698946,1.5754890056530328L-12.694471321753271,-4.124683765701411L-2.9967581703553776,-4.124683765701413Z" transform="translate(267.60687970571234,448.9139784297222)rotate(1.9097935918644093)" fill="white" class="commune"><title>insee_com : 2B050 
Population : 5559
 Nom : CALVI</title></path><path d="M0,-13.34775705149959L2.9967581703553763,-4.1246837657014135L12.69447132175327,-4.124683765701414L4.848856575698947,1.5754890056530315L7.845614746054325,10.798562291451207L8.881784197001252e-16,5.098389520096762L-7.845614746054323,10.798562291451208L-4.848856575698946,1.5754890056530328L-12.694471321753271,-4.124683765701411L-2.9967581703553776,-4.124683765701413Z" transform="translate(532.8291534419241,685.2033017361136)rotate(17.89915388122645)" fill="white" class="commune"><title>insee_com : 2B096 
Population : 7446
 Nom : CORTE</title></path><path d="M0,-22.448162112566994L5.039926405668234,-6.936863585267022L21.349470856006818,-6.936863585267023L8.154772225169292,2.649646114250548L13.19469863083753,18.16094464155052L8.881784197001252e-16,8.574434942032948L-13.194698630837525,18.160944641550522L-8.154772225169292,2.649646114250549L-21.34947085600682,-6.936863585267019L-5.0399264056682345,-6.936863585267021Z" transform="translate(737.3558099979318,325.06869779442786)rotate(17.55866680068098)" fill="white" class="commune"><title>insee_com : 2B033 
Population : 45715
 Nom : BASTIA</title></path></g><text class="text" y="40" x="427" text-anchor="middle" font-size="36" font-family="Helvetica" fill="#6baed6">2B  - HAUTE CORSE</text><line x1="706.0392146451172" y1="333.3250498367808" x2="298.923475058527" y2="440.65762638736925" stroke="yellow" opacity="0.35" stroke-width="2"/><line x1="285.2883646214598" y1="464.6665999834816" x2="515.1476685261766" y2="669.4506801823542" stroke="yellow" opacity="0.35" stroke-width="2"/><line x1="546.4642638789912" y1="661.1943281400013" x2="723.7206995608647" y2="349.0776713905403" stroke="yellow" opacity="0.35" stroke-width="2"/></svg>