<svg viewBox="0,0,955,1146" width="955" height="1146" style="width: 100%; height: auto;" xmlns="http://www.w3.org/2000/svg" xmlns:xlink="http://www.w3.org/1999/xlink"><rect width="955" height="1146" fill="black"/><g stroke="#000" stroke-opacity="0.2"><path d="M0,-18.876579049491834L4.238056047668955,-5.833183721955068L17.952693510379785,-5.833183721955069L6.857318731355415,2.2280779191642193L11.095374779024372,15.271473246700983L8.881784197001252e-16,7.210211605581696L-11.095374779024368,15.271473246700985L-6.857318731355414,2.2280779191642206L-17.952693510379788,-5.833183721955065L-4.238056047668956,-5.833183721955068Z" transform="translate(326.2164179104484,795.2869497352367)rotate(5.164361098862022)" fill="white" class="commune"><title>91223 Population : 24422</title></path><path d="M0,-18.876579049491834L4.238056047668955,-5.833183721955068L17.952693510379785,-5.833183721955069L6.857318731355415,2.2280779191642193L11.095374779024372,15.271473246700983L8.881784197001252e-16,7.210211605581696L-11.095374779024368,15.271473246700985L-6.857318731355414,2.2280779191642206L-17.952693510379788,-5.833183721955065L-4.238056047668956,-5.833183721955068Z" transform="translate(449.13432835821004,197.19756624649744)rotate(29.5831031115045)" fill="white" class="commune"><title>91477 Population : 34120</title></path><path d="M0,-22.448162112566994L5.039926405668234,-6.936863585267022L21.349470856006818,-6.936863585267023L8.154772225169292,2.649646114250548L13.19469863083753,18.16094464155052L8.881784197001252e-16,8.574434942032948L-13.194698630837525,18.160944641550522L-8.154772225169292,2.649646114250549L-21.34947085600682,-6.936863585267019L-5.0399264056682345,-6.936863585267021Z" transform="translate(720.6343283582105,377.1929987609037)rotate(22.986071188959528)" fill="white" class="commune"><title>91228 Population : 68090</title></path></g><text class="text" y="40" x="427.5" text-anchor="middle" font-size="36" font-family="Helvetica" fill="#6baed6">91 - ESSONNE</text><line x1="352.51094527363256" y1="767.4140196702812" x2="694.3398009950264" y2="405.06592882585926" stroke="yellow" opacity="0.35" stroke-width="2"/><line x1="702.5343283582105" y1="365.1933032599433" x2="467.23432835821006" y2="209.19726174745787" stroke="yellow" opacity="0.35" stroke-width="2"/><line x1="440.9398009950259" y1="237.07019181241338" x2="334.41094527363254" y2="755.4143241693207" stroke="yellow" opacity="0.35" stroke-width="2"/></svg>