<svg viewBox="0,0,600,600" width="600" height="600" style="width: 100%; height: auto;" xmlns="http://www.w3.org/2000/svg" xmlns:xlink="http://www.w3.org/1999/xlink"><rect width="752" height="902.4" fill="black"/><g stroke="#000" stroke-opacity="0.2"><path d="M0,-22.448162112566994L5.039926405668234,-6.936863585267022L21.349470856006818,-6.936863585267023L8.154772225169292,2.649646114250548L13.19469863083753,18.16094464155052L8.881784197001252e-16,8.574434942032948L-13.194698630837525,18.160944641550522L-8.154772225169292,2.649646114250549L-21.34947085600682,-6.936863585267019L-5.0399264056682345,-6.936863585267021Z" transform="translate(275.50536955148414,296.74531440474675)rotate(4.899147052788533)" fill="white" class="commune"><title>13047 Population : 42925</title></path><path d="M0,-22.448162112566994L5.039926405668234,-6.936863585267022L21.349470856006818,-6.936863585267023L8.154772225169292,2.649646114250548L13.19469863083753,18.16094464155052L8.881784197001252e-16,8.574434942032948L-13.194698630837525,18.160944641550522L-8.154772225169292,2.649646114250549L-21.34947085600682,-6.936863585267019L-5.0399264056682345,-6.936863585267021Z" transform="translate(175.09475679090315,298.1834173647294)rotate(11.79298282032429)" fill="white" class="commune"><title>13004 Population : 52857</title></path><path d="M0,-26.69551410299918L5.993516340710753,-8.249367531402827L25.38894264350654,-8.249367531402829L9.697713151397894,3.150978011306063L15.69122949210865,21.597124582902413L1.7763568394002505e-15,10.196779040193524L-15.691229492108645,21.597124582902417L-9.697713151397892,3.1509780113060657L-25.388942643506542,-8.249367531402822L-5.993516340710755,-8.249367531402825Z" transform="translate(431.15919140871756,303.4558492999349)rotate(8.044469007825573)" fill="white" class="commune"><title>13001 Population : 143006</title></path><path d="M0,-44.54138473356747L10.000163930483316,-13.764044835665187L42.36137419566881,-13.764044835665189L16.180605132592746,5.257397304546639L26.18076906307607,36.034737202448916L1.7763568394002505e-15,17.01329506223709L-26.18076906307606,36.03473720244892L-16.180605132592746,5.257397304546643L-42.361374195668816,-13.764044835665178L-10.000163930483321,-13.764044835665185Z" transform="translate(438.8029058749212,420.1617025898595)rotate(25.983851050115344)" fill="white" class="commune"><title>13055 Population : 862211</title></path></g><text class="text" y="25" x="326" text-anchor="middle" font-size="24" font-family="Helvetica" fill="#6baed6">13 - BOUCHES DU RHONE</text><line x1="438.2933249105076" y1="412.3813123705312" x2="431.66877237313116" y2="311.2362395192632" stroke="yellow" opacity="0.35" stroke-width="2"/><line x1="420.78226995156865" y1="303.00848030692237" x2="285.88229100863305" y2="297.1926833977593" stroke="yellow" opacity="0.35" stroke-width="2"/><line x1="268.81132870077874" y1="296.8411879354123" x2="181.78879764160854" y2="298.08754383406387" stroke="yellow" opacity="0.35" stroke-width="2"/><line x1="192.67530006317102" y1="306.3153030464047" x2="421.22236260265333" y2="412.02981690818416" stroke="yellow" opacity="0.35" stroke-width="2"/></svg>