<svg viewBox="0,0,954,1144.8" width="954" height="1144.8" style="width: 100%; height: auto;" xmlns="http://www.w3.org/2000/svg" xmlns:xlink="http://www.w3.org/1999/xlink"><rect width="954" height="1144.8" fill="black"/><g stroke="#000" stroke-opacity="0.2"><path d="M0,-13.34775705149959L2.9967581703553763,-4.1246837657014135L12.69447132175327,-4.124683765701414L4.848856575698947,1.5754890056530315L7.845614746054325,10.798562291451207L8.881784197001252e-16,5.098389520096762L-7.845614746054323,10.798562291451208L-4.848856575698946,1.5754890056530328L-12.694471321753271,-4.124683765701411L-2.9967581703553776,-4.124683765701413Z" transform="translate(140.2287149332352,619.2215264823753)rotate(0.9191846966507389)" fill="white" class="commune"><title>insee_com : 62588 
Population : 2014
 Nom : MONTREUIL</title></path><path d="M0,-15.873247654971056L3.5637661381291506,-4.905103281308338L15.096355617026989,-4.905103281308339L5.766294739448918,1.873582735131148L9.330060877578072,12.841727108793865L8.881784197001252e-16,6.063041092354379L-9.330060877578068,12.841727108793867L-5.766294739448918,1.8735827351311491L-15.09635561702699,-4.905103281308335L-3.563766138129152,-4.905103281308337Z" transform="translate(410.7199558985667,369.2504133590264)rotate(28.534025421855958)" fill="white" class="commune"><title>insee_com : 62765 
Population : 14782
 Nom : SAINT OMER</title></path><path d="M0,-18.876579049491834L4.238056047668955,-5.833183721955068L17.952693510379785,-5.833183721955069L6.857318731355415,2.2280779191642193L11.095374779024372,15.271473246700983L8.881784197001252e-16,7.210211605581696L-11.095374779024368,15.271473246700985L-6.857318731355414,2.2280779191642206L-17.952693510379788,-5.833183721955065L-4.238056047668956,-5.833183721955068Z" transform="translate(624.676589489158,560.9002167815197)rotate(17.67603160110569)" fill="white" class="commune"><title>insee_com : 62119 
Population : 24895
 Nom : BETHUNE</title></path><path d="M0,-18.876579049491834L4.238056047668955,-5.833183721955068L17.952693510379785,-5.833183721955069L6.857318731355415,2.2280779191642193L11.095374779024372,15.271473246700983L8.881784197001252e-16,7.210211605581696L-11.095374779024368,15.271473246700985L-6.857318731355414,2.2280779191642206L-17.952693510379788,-5.833183721955065L-4.238056047668956,-5.833183721955068Z" transform="translate(731.5995344848707,649.568109753578)rotate(28.918463738939078)" fill="white" class="commune"><title>insee_com : 62498 
Population : 31415
 Nom : LENS</title></path><path d="M0,-22.448162112566994L5.039926405668234,-6.936863585267022L21.349470856006818,-6.936863585267023L8.154772225169292,2.649646114250548L13.19469863083753,18.16094464155052L8.881784197001252e-16,8.574434942032948L-13.194698630837525,18.160944641550522L-8.154772225169292,2.649646114250549L-21.34947085600682,-6.936863585267019L-5.0399264056682345,-6.936863585267021Z" transform="translate(57.004900159255044,391.211121096705)rotate(2.2908565722252505)" fill="white" class="commune"><title>insee_com : 62160 
Population : 40874
 Nom : BOULOGNE SUR MER</title></path><path d="M0,-22.448162112566994L5.039926405668234,-6.936863585267022L21.349470856006818,-6.936863585267023L8.154772225169292,2.649646114250548L13.19469863083753,18.16094464155052L8.881784197001252e-16,8.574434942032948L-13.194698630837525,18.160944641550522L-8.154772225169292,2.649646114250549L-21.34947085600682,-6.936863585267019L-5.0399264056682345,-6.936863585267021Z" transform="translate(702.3078525052063,767.0911774715896)rotate(19.962474033431416)" fill="white" class="commune"><title>insee_com : 62041 
Population : 41019
 Nom : ARRAS</title></path><path d="M0,-22.448162112566994L5.039926405668234,-6.936863585267022L21.349470856006818,-6.936863585267023L8.154772225169292,2.649646114250548L13.19469863083753,18.16094464155052L8.881784197001252e-16,8.574434942032948L-13.194698630837525,18.160944641550522L-8.154772225169292,2.649646114250549L-21.34947085600682,-6.936863585267019L-5.0399264056682345,-6.936863585267021Z" transform="translate(190.56168075462438,191.73299189259706)rotate(16.310818748623912)" fill="white" class="commune"><title>insee_com : 62193 
Population : 73911
 Nom : CALAIS</title></path></g><text class="text" y="40" x="427" text-anchor="middle" font-size="36" font-family="Helvetica" fill="#6baed6">62  - PAS DE CALAIS</text><line x1="181.65789538159976" y1="205.0315338395376" x2="65.90868553227966" y2="377.9125791497645" stroke="yellow" opacity="0.35" stroke-width="2"/><line x1="62.55315447752039" y1="406.41181478908305" x2="134.68046061496986" y2="604.0208327899974" stroke="yellow" opacity="0.35" stroke-width="2"/><line x1="177.7006574380333" y1="629.0795032149896" x2="664.8359100004081" y2="757.2332007389754" stroke="yellow" opacity="0.35" stroke-width="2"/><line x1="704.2606313038506" y1="759.2563062903888" x2="729.6467556862264" y2="657.4029809347788" stroke="yellow" opacity="0.35" stroke-width="2"/><line x1="724.4713381518231" y1="643.6569168887742" x2="631.8047858222055" y2="566.8114096463236" stroke="yellow" opacity="0.35" stroke-width="2"/><line x1="610.4128139164519" y1="548.1235632200202" x2="424.9837314712728" y2="382.02706692052595" stroke="yellow" opacity="0.35" stroke-width="2"/><line x1="396.0427375556372" y1="357.4159185945978" x2="205.23889909755385" y2="203.56748665702568" stroke="yellow" opacity="0.35" stroke-width="2"/></svg>