<svg viewBox="0,0,954,1144.8" width="954" height="1144.8" style="width: 100%; height: auto;" xmlns="http://www.w3.org/2000/svg" xmlns:xlink="http://www.w3.org/1999/xlink"><rect width="954" height="1144.8" fill="black"/><g stroke="#000" stroke-opacity="0.2"><path d="M0,-15.873247654971056L3.5637661381291506,-4.905103281308338L15.096355617026989,-4.905103281308339L5.766294739448918,1.873582735131148L9.330060877578072,12.841727108793865L8.881784197001252e-16,6.063041092354379L-9.330060877578068,12.841727108793867L-5.766294739448918,1.8735827351311491L-15.09635561702699,-4.905103281308335L-3.563766138129152,-4.905103281308337Z" transform="translate(288.81576106513126,466.36732950103396)rotate(19.595376113814982)" fill="white" class="commune"><title>insee_com : 41269 
Population : 16569
 Nom : VENDOME</title></path><path d="M0,-15.873247654971056L3.5637661381291506,-4.905103281308338L15.096355617026989,-4.905103281308339L5.766294739448918,1.873582735131148L9.330060877578072,12.841727108793865L8.881784197001252e-16,6.063041092354379L-9.330060877578068,12.841727108793867L-5.766294739448918,1.8735827351311491L-15.09635561702699,-4.905103281308335L-3.563766138129152,-4.905103281308337Z" transform="translate(657.7024109391867,815.8842110323567)rotate(15.21355905068216)" fill="white" class="commune"><title>insee_com : 41194 
Population : 17754
 Nom : ROMORANTIN LANTHENAY</title></path><path d="M0,-22.448162112566994L5.039926405668234,-6.936863585267022L21.349470856006818,-6.936863585267023L8.154772225169292,2.649646114250548L13.19469863083753,18.16094464155052L8.881784197001252e-16,8.574434942032948L-13.194698630837525,18.160944641550522L-8.154772225169292,2.649646114250549L-21.34947085600682,-6.936863585267019L-5.0399264056682345,-6.936863585267021Z" transform="translate(435.1993522849946,631.4014333476334)rotate(17.46963472061288)" fill="white" class="commune"><title>insee_com : 41018 
Population : 46086
 Nom : BLOIS</title></path></g><text class="text" y="40" x="427" text-anchor="middle" font-size="36" font-family="Helvetica" fill="#6baed6">41  - LOIR ET CHER</text><line x1="450.03288952860737" y1="643.7002851932816" x2="642.8688736955739" y2="803.5853591867085" stroke="yellow" opacity="0.35" stroke-width="2"/><line x1="633.1099676142497" y1="792.5830855969351" x2="313.4082043900683" y2="489.6684549364555" stroke="yellow" opacity="0.35" stroke-width="2"/><line x1="298.57466714645545" y1="477.3696030908073" x2="425.4404462036704" y2="620.3991597578602" stroke="yellow" opacity="0.35" stroke-width="2"/></svg>