<svg viewBox="0,0,954,1144.8" width="954" height="1144.8" style="width: 100%; height: auto;" xmlns="http://www.w3.org/2000/svg" xmlns:xlink="http://www.w3.org/1999/xlink"><rect width="954" height="1144.8" fill="black"/><g stroke="#000" stroke-opacity="0.2"><path d="M0,-15.873247654971056L3.5637661381291506,-4.905103281308338L15.096355617026989,-4.905103281308339L5.766294739448918,1.873582735131148L9.330060877578072,12.841727108793865L8.881784197001252e-16,6.063041092354379L-9.330060877578068,12.841727108793867L-5.766294739448918,1.8735827351311491L-15.09635561702699,-4.905103281308335L-3.563766138129152,-4.905103281308337Z" transform="translate(711.6691326120686,639.5808715171297)rotate(16.559191472934394)" fill="white" class="commune"><title>insee_com : 77379 
Population : 11844
 Nom : PROVINS</title></path><path d="M0,-15.873247654971056L3.5637661381291506,-4.905103281308338L15.096355617026989,-4.905103281308339L5.766294739448918,1.873582735131148L9.330060877578072,12.841727108793865L8.881784197001252e-16,6.063041092354379L-9.330060877578068,12.841727108793867L-5.766294739448918,1.8735827351311491L-15.09635561702699,-4.905103281308335L-3.563766138129152,-4.905103281308337Z" transform="translate(278.3054894789793,809.7303201259201)rotate(7.469290307567978)" fill="white" class="commune"><title>insee_com : 77186 
Population : 14886
 Nom : FONTAINEBLEAU</title></path><path d="M0,-18.876579049491834L4.238056047668955,-5.833183721955068L17.952693510379785,-5.833183721955069L6.857318731355415,2.2280779191642193L11.095374779024372,15.271473246700983L8.881784197001252e-16,7.210211605581696L-11.095374779024368,15.271473246700985L-6.857318731355414,2.2280779191642206L-17.952693510379788,-5.833183721955065L-4.238056047668956,-5.833183721955068Z" transform="translate(242.54845582799794,321.739157991542)rotate(4.583966589752117)" fill="white" class="commune"><title>insee_com : 77468 
Population : 22568
 Nom : TORCY</title></path><path d="M0,-22.448162112566994L5.039926405668234,-6.936863585267022L21.349470856006818,-6.936863585267023L8.154772225169292,2.649646114250548L13.19469863083753,18.16094464155052L8.881784197001252e-16,8.574434942032948L-13.194698630837525,18.160944641550522L-8.154772225169292,2.649646114250549L-21.34947085600682,-6.936863585267019L-5.0399264056682345,-6.936863585267021Z" transform="translate(248.93105006995802,661.9324870615164)rotate(25.04174144039262)" fill="white" class="commune"><title>insee_com : 77288 
Population : 40032
 Nom : MELUN</title></path><path d="M0,-22.448162112566994L5.039926405668234,-6.936863585267022L21.349470856006818,-6.936863585267023L8.154772225169292,2.649646114250548L13.19469863083753,18.16094464155052L8.881784197001252e-16,8.574434942032948L-13.194698630837525,18.160944641550522L-8.154772225169292,2.649646114250549L-21.34947085600682,-6.936863585267019L-5.0399264056682345,-6.936863585267021Z" transform="translate(406.17496275824897,201.46790302625595)rotate(19.34953896837475)" fill="white" class="commune"><title>insee_com : 77284 
Population : 54991
 Nom : MEAUX</title></path></g><text class="text" y="40" x="427" text-anchor="middle" font-size="36" font-family="Helvetica" fill="#6baed6">77  - SEINE ET MARNE</text><line x1="426.5412407485036" y1="230.67543425898089" x2="691.3028546218139" y2="610.3733402844048" stroke="yellow" opacity="0.35" stroke-width="2"/><line x1="682.7782230698626" y1="650.9241680910491" x2="307.1963990211853" y2="798.3870235520008" stroke="yellow" opacity="0.35" stroke-width="2"/><line x1="276.3471935183779" y1="799.8771312549599" x2="250.88934603055944" y2="671.7856759324767" stroke="yellow" opacity="0.35" stroke-width="2"/><line x1="248.5055437871607" y1="639.2529317901848" x2="242.97396211079527" y2="344.41871326287367" stroke="yellow" opacity="0.35" stroke-width="2"/><line x1="253.45688962334802" y1="313.7210743271896" x2="395.2665289628989" y2="209.48598669060837" stroke="yellow" opacity="0.35" stroke-width="2"/></svg>