<svg viewBox="0,0,955,1146" width="955" height="1146" style="width: 100%; height: auto;" xmlns="http://www.w3.org/2000/svg" xmlns:xlink="http://www.w3.org/1999/xlink"><rect width="955" height="1146" fill="black"/><g stroke="#000" stroke-opacity="0.2"><path d="M0,-15.873247654971056L3.5637661381291506,-4.905103281308338L15.096355617026989,-4.905103281308339L5.766294739448918,1.873582735131148L9.330060877578072,12.841727108793865L8.881784197001252e-16,6.063041092354379L-9.330060877578068,12.841727108793867L-5.766294739448918,1.8735827351311491L-15.09635561702699,-4.905103281308335L-3.563766138129152,-4.905103281308337Z" transform="translate(285.9742206235012,460.5896353586104)rotate(21.871636409008385)" fill="white" class="commune"><title>41269 Population : 16688</title></path><path d="M0,-15.873247654971056L3.5637661381291506,-4.905103281308338L15.096355617026989,-4.905103281308339L5.766294739448918,1.873582735131148L9.330060877578072,12.841727108793865L8.881784197001252e-16,6.063041092354379L-9.330060877578068,12.841727108793867L-5.766294739448918,1.8735827351311491L-15.09635561702699,-4.905103281308335L-3.563766138129152,-4.905103281308337Z" transform="translate(656.546762589928,803.2873759729373)rotate(26.58468876308403)" fill="white" class="commune"><title>41194 Population : 17946</title></path><path d="M0,-22.448162112566994L5.039926405668234,-6.936863585267022L21.349470856006818,-6.936863585267023L8.154772225169292,2.649646114250548L13.19469863083753,18.16094464155052L8.881784197001252e-16,8.574434942032948L-13.194698630837525,18.160944641550522L-8.154772225169292,2.649646114250549L-21.34947085600682,-6.936863585267019L-5.0399264056682345,-6.936863585267021Z" transform="translate(418.90287769784175,637.9179251541209)rotate(24.745779268338968)" fill="white" class="commune"><title>41018 Population : 45687</title></path></g><text class="text" y="40" x="427.5" text-anchor="middle" font-size="36" font-family="Helvetica" fill="#6baed6">41 - LOIR ET CHER</text><line x1="434.7458033573142" y1="648.9425552087087" x2="640.7038369304556" y2="792.2627459183495" stroke="yellow" opacity="0.35" stroke-width="2"/><line x1="631.8419264588329" y1="780.4408599319821" x2="310.67905675459633" y2="483.4361513995655" stroke="yellow" opacity="0.35" stroke-width="2"/><line x1="294.8361310951239" y1="472.41152134497776" x2="410.04096722621904" y2="626.0960391677535" stroke="yellow" opacity="0.35" stroke-width="2"/></svg>