<svg viewBox="0,0,955,1146" width="955" height="1146" style="width: 100%; height: auto;" xmlns="http://www.w3.org/2000/svg" xmlns:xlink="http://www.w3.org/1999/xlink"><rect width="955" height="1146" fill="black"/><g stroke="#000" stroke-opacity="0.2"><path d="M0,-13.34775705149959L2.9967581703553763,-4.1246837657014135L12.69447132175327,-4.124683765701414L4.848856575698947,1.5754890056530315L7.845614746054325,10.798562291451207L8.881784197001252e-16,5.098389520096762L-7.845614746054323,10.798562291451208L-4.848856575698946,1.5754890056530328L-12.694471321753271,-4.124683765701411L-2.9967581703553776,-4.124683765701413Z" transform="translate(800.7952410770195,749.8613208301722)rotate(2.866608007254964)" fill="white" class="commune"><title>63003 Population : 6707</title></path><path d="M0,-15.873247654971056L3.5637661381291506,-4.905103281308338L15.096355617026989,-4.905103281308339L5.766294739448918,1.873582735131148L9.330060877578072,12.841727108793865L8.881784197001252e-16,6.063041092354379L-9.330060877578068,12.841727108793867L-5.766294739448918,1.8735827351311491L-15.09635561702699,-4.905103281308335L-3.563766138129152,-4.905103281308337Z" transform="translate(677.8240450845333,501.53493256792353)rotate(1.2347667562914466)" fill="white" class="commune"><title>63430 Population : 11700</title></path><path d="M0,-15.873247654971056L3.5637661381291506,-4.905103281308338L15.096355617026989,-4.905103281308339L5.766294739448918,1.873582735131148L9.330060877578072,12.841727108793865L8.881784197001252e-16,6.063041092354379L-9.330060877578068,12.841727108793867L-5.766294739448918,1.8735827351311491L-15.09635561702699,-4.905103281308335L-3.563766138129152,-4.905103281308337Z" transform="translate(510.6512210394487,757.9536882830398)rotate(8.164474306445666)" fill="white" class="commune"><title>63178 Population : 14662</title></path><path d="M0,-15.873247654971056L3.5637661381291506,-4.905103281308338L15.096355617026989,-4.905103281308339L5.766294739448918,1.873582735131148L9.330060877578072,12.841727108793865L8.881784197001252e-16,6.063041092354379L-9.330060877578068,12.841727108793867L-5.766294739448918,1.8735827351311491L-15.09635561702699,-4.905103281308335L-3.563766138129152,-4.905103281308337Z" transform="translate(446.6155291170944,475.4873860282023)rotate(28.70470256329272)" fill="white" class="commune"><title>63300 Population : 19029</title></path><path d="M0,-26.69551410299918L5.993516340710753,-8.249367531402827L25.38894264350654,-8.249367531402829L9.697713151397894,3.150978011306063L15.69122949210865,21.597124582902413L1.7763568394002505e-15,10.196779040193524L-15.691229492108645,21.597124582902417L-9.697713151397892,3.1509780113060657L-25.388942643506542,-8.249367531402822L-5.993516340710755,-8.249367531402825Z" transform="translate(436.98184095178453,563.3378337191243)rotate(6.334907205207742)" fill="white" class="commune"><title>63113 Population : 142686</title></path></g><text class="text" y="40" x="427.5" text-anchor="middle" font-size="36" font-family="Helvetica" fill="#6baed6">63 - PUY DE DOME</text><line x1="441.89313295762884" y1="576.3122240233854" x2="505.7399290336044" y2="744.9792979787787" stroke="yellow" opacity="0.35" stroke-width="2"/><line x1="529.9941557086202" y1="757.4141971195153" x2="781.452306407848" y2="750.4008119936967" stroke="yellow" opacity="0.35" stroke-width="2"/><line x1="792.597161344187" y1="733.3062282793557" x2="686.0221248173657" y2="518.0900251187401" stroke="yellow" opacity="0.35" stroke-width="2"/><line x1="662.4101440200374" y1="499.79842946527543" x2="462.0294301815903" y2="477.2238891308504" stroke="yellow" opacity="0.35" stroke-width="2"/><line x1="445.97328323940707" y1="481.34408254093046" x2="437.6240868294719" y2="557.4811372063962" stroke="yellow" opacity="0.35" stroke-width="2"/></svg>