<svg viewBox="0,0,955,1146" width="955" height="1146" style="width: 100%; height: auto;" xmlns="http://www.w3.org/2000/svg" xmlns:xlink="http://www.w3.org/1999/xlink"><rect width="955" height="1146" fill="black"/><g stroke="#000" stroke-opacity="0.2"><path d="M0,-13.34775705149959L2.9967581703553763,-4.1246837657014135L12.69447132175327,-4.124683765701414L4.848856575698947,1.5754890056530315L7.845614746054325,10.798562291451207L8.881784197001252e-16,5.098389520096762L-7.845614746054323,10.798562291451208L-4.848856575698946,1.5754890056530328L-12.694471321753271,-4.124683765701411L-2.9967581703553776,-4.124683765701413Z" transform="translate(446.23555046770707,898.4746419474686)rotate(23.964629587940745)" fill="white" class="commune"><title>2A272 Population : 3252</title></path><path d="M0,-22.448162112566994L5.039926405668234,-6.936863585267022L21.349470856006818,-6.936863585267023L8.154772225169292,2.649646114250548L13.19469863083753,18.16094464155052L8.881784197001252e-16,8.574434942032948L-13.194698630837525,18.160944641550522L-8.154772225169292,2.649646114250549L-21.34947085600682,-6.936863585267019L-5.0399264056682345,-6.936863585267021Z" transform="translate(258.6488532739422,508.40141734878125)rotate(22.776143000439607)" fill="white" class="commune"><title>2A004 Population : 69075</title></path></g><text class="text" y="40" x="427.5" text-anchor="middle" font-size="36" font-family="Helvetica" fill="#6baed6">2A - CORSE DU SUD</text><line x1="271.15463308685986" y1="534.4062989886937" x2="433.72977065478943" y2="872.4697603075562" stroke="yellow" opacity="0.35" stroke-width="2"/><line x1="433.72977065478943" y1="872.4697603075562" x2="271.15463308685986" y2="534.4062989886937" stroke="yellow" opacity="0.35" stroke-width="2"/></svg>