<svg viewBox="0,0,955,1146" width="955" height="1146" style="width: 100%; height: auto;" xmlns="http://www.w3.org/2000/svg" xmlns:xlink="http://www.w3.org/1999/xlink"><rect width="955" height="1146" fill="black"/><g stroke="#000" stroke-opacity="0.2"><path d="M0,-15.873247654971056L3.5637661381291506,-4.905103281308338L15.096355617026989,-4.905103281308339L5.766294739448918,1.873582735131148L9.330060877578072,12.841727108793865L8.881784197001252e-16,6.063041092354379L-9.330060877578068,12.841727108793867L-5.766294739448918,1.8735827351311491L-15.09635561702699,-4.905103281308335L-3.563766138129152,-4.905103281308337Z" transform="translate(549.6417591331467,474.2634901433703)rotate(19.120912726562697)" fill="white" class="commune"><title>79202 Population : 10388</title></path><path d="M0,-15.873247654971056L3.5637661381291506,-4.905103281308338L15.096355617026989,-4.905103281308339L5.766294739448918,1.873582735131148L9.330060877578072,12.841727108793865L8.881784197001252e-16,6.063041092354379L-9.330060877578068,12.841727108793867L-5.766294739448918,1.8735827351311491L-15.09635561702699,-4.905103281308335L-3.563766138129152,-4.905103281308337Z" transform="translate(386.16456183142884,271.4140822585832)rotate(6.484323241573266)" fill="white" class="commune"><title>79049 Population : 19499</title></path><path d="M0,-22.448162112566994L5.039926405668234,-6.936863585267022L21.349470856006818,-6.936863585267023L8.154772225169292,2.649646114250548L13.19469863083753,18.16094464155052L8.881784197001252e-16,8.574434942032948L-13.194698630837525,18.160944641550522L-8.154772225169292,2.649646114250549L-21.34947085600682,-6.936863585267019L-5.0399264056682345,-6.936863585267021Z" transform="translate(396.0923268497517,778.0252266313837)rotate(23.927192001690774)" fill="white" class="commune"><title>79191 Population : 59005</title></path></g><text class="text" y="40" x="427.5" text-anchor="middle" font-size="36" font-family="Helvetica" fill="#6baed6">79 - DEUX SEVRES</text><line x1="386.82641283265036" y1="305.18815855010325" x2="395.4304758485302" y2="744.2511503398637" stroke="yellow" opacity="0.35" stroke-width="2"/><line x1="406.3289556686447" y1="757.7744441988494" x2="539.4051303142537" y2="494.5142725759045" stroke="yellow" opacity="0.35" stroke-width="2"/><line x1="538.7432793130322" y1="460.74019628438447" x2="397.06304165154336" y2="284.93737611756904" stroke="yellow" opacity="0.35" stroke-width="2"/></svg>