<svg viewBox="0,0,954,1144.8" width="954" height="1144.8" style="width: 100%; height: auto;" xmlns="http://www.w3.org/2000/svg" xmlns:xlink="http://www.w3.org/1999/xlink"><rect width="954" height="1144.8" fill="black"/><g stroke="#000" stroke-opacity="0.2"><path d="M0,-13.34775705149959L2.9967581703553763,-4.1246837657014135L12.69447132175327,-4.124683765701414L4.848856575698947,1.5754890056530315L7.845614746054325,10.798562291451207L8.881784197001252e-16,5.098389520096762L-7.845614746054323,10.798562291451208L-4.848856575698946,1.5754890056530328L-12.694471321753271,-4.124683765701411L-2.9967581703553776,-4.124683765701413Z" transform="translate(175.6750152379891,429.2518297676943)rotate(12.158529969606796)" fill="white" class="commune"><title>insee_com : 88321 
Population : 6664
 Nom : NEUFCHATEAU</title></path><path d="M0,-15.873247654971056L3.5637661381291506,-4.905103281308338L15.096355617026989,-4.905103281308339L5.766294739448918,1.873582735131148L9.330060877578072,12.841727108793865L8.881784197001252e-16,6.063041092354379L-9.330060877578068,12.841727108793867L-5.766294739448918,1.8735827351311491L-15.09635561702699,-4.905103281308335L-3.563766138129152,-4.905103281308337Z" transform="translate(803.5209730149054,480.0999866069069)rotate(27.020156113029763)" fill="white" class="commune"><title>insee_com : 88413 
Population : 19607
 Nom : SAINT DIE DES VOSGES</title></path><path d="M0,-18.876579049491834L4.238056047668955,-5.833183721955068L17.952693510379785,-5.833183721955069L6.857318731355415,2.2280779191642193L11.095374779024372,15.271473246700983L8.881784197001252e-16,7.210211605581696L-11.095374779024368,15.271473246700985L-6.857318731355414,2.2280779191642206L-17.952693510379788,-5.833183721955065L-4.238056047668956,-5.833183721955068Z" transform="translate(554.2660275946137,564.3222116058059)rotate(24.558899454517835)" fill="white" class="commune"><title>insee_com : 88160 
Population : 31740
 Nom : EPINAL</title></path></g><text class="text" y="40" x="427" text-anchor="middle" font-size="36" font-family="Helvetica" fill="#6baed6">88  - VOSGES</text><line x1="529.0266267708387" y1="555.3175194832652" x2="200.9144160617641" y2="438.2565218902351" stroke="yellow" opacity="0.35" stroke-width="2"/><line x1="217.53141242311685" y1="432.64170689030846" x2="761.6645758297776" y2="476.71010948429273" stroke="yellow" opacity="0.35" stroke-width="2"/><line x1="786.9039766535526" y1="485.7148016068335" x2="570.8830239559665" y2="558.7073966058794" stroke="yellow" opacity="0.35" stroke-width="2"/></svg>