<svg viewBox="0,0,955,1146" width="955" height="1146" style="width: 100%; height: auto;" xmlns="http://www.w3.org/2000/svg" xmlns:xlink="http://www.w3.org/1999/xlink"><rect width="955" height="1146" fill="black"/><g stroke="#000" stroke-opacity="0.2"><path d="M0,-13.34775705149959L2.9967581703553763,-4.1246837657014135L12.69447132175327,-4.124683765701414L4.848856575698947,1.5754890056530315L7.845614746054325,10.798562291451207L8.881784197001252e-16,5.098389520096762L-7.845614746054323,10.798562291451208L-4.848856575698946,1.5754890056530328L-12.694471321753271,-4.124683765701411L-2.9967581703553776,-4.124683765701413Z" transform="translate(384.32731747333884,820.0317989203904)rotate(11.05476059072257)" fill="white" class="commune"><title>47195 Population : 6898</title></path><path d="M0,-15.873247654971056L3.5637661381291506,-4.905103281308338L15.096355617026989,-4.905103281308339L5.766294739448918,1.873582735131148L9.330060877578072,12.841727108793865L8.881784197001252e-16,6.063041092354379L-9.330060877578068,12.841727108793867L-5.766294739448918,1.8735827351311491L-15.09635561702699,-4.905103281308335L-3.563766138129152,-4.905103281308337Z" transform="translate(257.3748974569319,432.9825638348775)rotate(2.6862129792548197)" fill="white" class="commune"><title>47157 Population : 17645</title></path><path d="M0,-18.876579049491834L4.238056047668955,-5.833183721955068L17.952693510379785,-5.833183721955069L6.857318731355415,2.2280779191642193L11.095374779024372,15.271473246700983L8.881784197001252e-16,7.210211605581696L-11.095374779024368,15.271473246700985L-6.857318731355414,2.2280779191642206L-17.952693510379788,-5.833183721955065L-4.238056047668956,-5.833183721955068Z" transform="translate(680.5496308449549,516.2034553960111)rotate(28.08511015935818)" fill="white" class="commune"><title>47323 Population : 22422</title></path><path d="M0,-18.876579049491834L4.238056047668955,-5.833183721955068L17.952693510379785,-5.833183721955069L6.857318731355415,2.2280779191642193L11.095374779024372,15.271473246700983L8.881784197001252e-16,7.210211605581696L-11.095374779024368,15.271473246700985L-6.857318731355414,2.2280779191642206L-17.952693510379788,-5.833183721955065L-4.238056047668956,-5.833183721955068Z" transform="translate(594.4298605414274,747.5823846031417)rotate(26.53491400304636)" fill="white" class="commune"><title>47001 Population : 33569</title></path></g><text class="text" y="40" x="427.5" text-anchor="middle" font-size="36" font-family="Helvetica" fill="#6baed6">47 - LOT ET GARONNE</text><line x1="674.8083128247197" y1="531.6287173431532" x2="600.1711785616626" y2="732.1571226559996" stroke="yellow" opacity="0.35" stroke-width="2"/><line x1="580.4230243368881" y1="752.4123455576249" x2="398.3341536778781" y2="815.2018379659072" stroke="yellow" opacity="0.35" stroke-width="2"/><line x1="375.86382280557837" y1="794.2285165813562" x2="265.83839212469235" y2="458.7858461739117" stroke="yellow" opacity="0.35" stroke-width="2"/><line x1="285.58654634946674" y1="438.5306232722864" x2="652.33798195242" y2="510.65539595860224" stroke="yellow" opacity="0.35" stroke-width="2"/></svg>