<svg viewBox="0,0,955,1146" width="955" height="1146" style="width: 100%; height: auto;" xmlns="http://www.w3.org/2000/svg" xmlns:xlink="http://www.w3.org/1999/xlink"><rect width="955" height="1146" fill="black"/><g stroke="#000" stroke-opacity="0.2"><path d="M0,-13.34775705149959L2.9967581703553763,-4.1246837657014135L12.69447132175327,-4.124683765701414L4.848856575698947,1.5754890056530315L7.845614746054325,10.798562291451207L8.881784197001252e-16,5.098389520096762L-7.845614746054323,10.798562291451208L-4.848856575698946,1.5754890056530328L-12.694471321753271,-4.124683765701411L-2.9967581703553776,-4.124683765701413Z" transform="translate(259.21014160419827,735.3320597192505)rotate(14.151907038383895)" fill="white" class="commune"><title>65025 Population : 2940</title></path><path d="M0,-13.34775705149959L2.9967581703553763,-4.1246837657014135L12.69447132175327,-4.124683765701414L4.848856575698947,1.5754890056530315L7.845614746054325,10.798562291451207L8.881784197001252e-16,5.098389520096762L-7.845614746054323,10.798562291451208L-4.848856575698946,1.5754890056530328L-12.694471321753271,-4.124683765701411L-2.9967581703553776,-4.124683765701413Z" transform="translate(454.8593688943689,770.37219612013)rotate(14.135685930870611)" fill="white" class="commune"><title>65059 Population : 7404</title></path><path d="M0,-22.448162112566994L5.039926405668234,-6.936863585267022L21.349470856006818,-6.936863585267023L8.154772225169292,2.649646114250548L13.19469863083753,18.16094464155052L8.881784197001252e-16,8.574434942032948L-13.194698630837525,18.160944641550522L-8.154772225169292,2.649646114250549L-21.34947085600682,-6.936863585267019L-5.0399264056682345,-6.936863585267021Z" transform="translate(397.6170185518299,466.12043192618876)rotate(29.85164391789013)" fill="white" class="commune"><title>65440 Population : 40318</title></path></g><text class="text" y="40" x="427.5" text-anchor="middle" font-size="36" font-family="Helvetica" fill="#6baed6">65 - HAUTES PYRENEES</text><line x1="272.253423423543" y1="737.6680688126424" x2="441.8160870750242" y2="768.036187026738" stroke="yellow" opacity="0.35" stroke-width="2"/><line x1="451.04321220486634" y1="750.0887451738672" x2="401.4331752413325" y2="486.4038828724515" stroke="yellow" opacity="0.35" stroke-width="2"/><line x1="388.3898934219878" y1="484.06787377905954" x2="268.4372667340404" y2="717.3846178663797" stroke="yellow" opacity="0.35" stroke-width="2"/></svg>