<svg viewBox="0,0,954,1144.8" width="954" height="1144.8" style="width: 100%; height: auto;" xmlns="http://www.w3.org/2000/svg" xmlns:xlink="http://www.w3.org/1999/xlink"><rect width="954" height="1144.8" fill="black"/><g stroke="#000" stroke-opacity="0.2"><path d="M0,-13.34775705149959L2.9967581703553763,-4.1246837657014135L12.69447132175327,-4.124683765701414L4.848856575698947,1.5754890056530315L7.845614746054325,10.798562291451207L8.881784197001252e-16,5.098389520096762L-7.845614746054323,10.798562291451208L-4.848856575698946,1.5754890056530328L-12.694471321753271,-4.124683765701411L-2.9967581703553776,-4.124683765701413Z" transform="translate(575.2744989250295,493.24253772726297)rotate(27.219447441856378)" fill="white" class="commune"><title>insee_com : 01269 
Population : 3446
 Nom : NANTUA</title></path><path d="M0,-13.34775705149959L2.9967581703553763,-4.1246837657014135L12.69447132175327,-4.124683765701414L4.848856575698947,1.5754890056530315L7.845614746054325,10.798562291451207L8.881784197001252e-16,5.098389520096762L-7.845614746054323,10.798562291451208L-4.848856575698946,1.5754890056530328L-12.694471321753271,-4.124683765701411L-2.9967581703553776,-4.124683765701413Z" transform="translate(625.7440183091749,848.5715878690207)rotate(23.069383601300924)" fill="white" class="commune"><title>insee_com : 01034 
Population : 9103
 Nom : BELLEY</title></path><path d="M0,-15.873247654971056L3.5637661381291506,-4.905103281308338L15.096355617026989,-4.905103281308339L5.766294739448918,1.873582735131148L9.330060877578072,12.841727108793865L8.881784197001252e-16,6.063041092354379L-9.330060877578068,12.841727108793867L-5.766294739448918,1.8735827351311491L-15.09635561702699,-4.905103281308335L-3.563766138129152,-4.905103281308337Z" transform="translate(858.9069283584158,330.88026861961407)rotate(6.325848842444034)" fill="white" class="commune"><title>insee_com : 01173 
Population : 13118
 Nom : GEX</title></path><path d="M0,-22.448162112566994L5.039926405668234,-6.936863585267022L21.349470856006818,-6.936863585267023L8.154772225169292,2.649646114250548L13.19469863083753,18.16094464155052L8.881784197001252e-16,8.574434942032948L-13.194698630837525,18.160944641550522L-8.154772225169292,2.649646114250549L-21.34947085600682,-6.936863585267019L-5.0399264056682345,-6.936863585267021Z" transform="translate(336.343643803315,447.60621000595347)rotate(3.709784052074203)" fill="white" class="commune"><title>insee_com : 01053 
Population : 41527
 Nom : BOURG EN BRESSE</title></path></g><text class="text" y="40" x="427" text-anchor="middle" font-size="36" font-family="Helvetica" fill="#6baed6">01  - AIN</text><line x1="606.4506600087842" y1="821.8405626781496" x2="355.63700210370564" y2="474.3372351968246" stroke="yellow" opacity="0.35" stroke-width="2"/><line x1="371.1811961069884" y1="439.82448058019753" x2="824.0693760547424" y2="338.66199804537" stroke="yellow" opacity="0.35" stroke-width="2"/><line x1="839.9980997295235" y1="341.7044198934573" x2="594.1833275539219" y2="482.4183864534197" stroke="yellow" opacity="0.35" stroke-width="2"/><line x1="578.6391335506393" y1="516.9311410700468" x2="622.3793836835652" y2="824.8829845262369" stroke="yellow" opacity="0.35" stroke-width="2"/></svg>