<svg viewBox="0,0,955,1146" width="955" height="1146" style="width: 100%; height: auto;" xmlns="http://www.w3.org/2000/svg" xmlns:xlink="http://www.w3.org/1999/xlink"><rect width="955" height="1146" fill="black"/><g stroke="#000" stroke-opacity="0.2"><path d="M0,-15.873247654971056L3.5637661381291506,-4.905103281308338L15.096355617026989,-4.905103281308339L5.766294739448918,1.873582735131148L9.330060877578072,12.841727108793865L8.881784197001252e-16,6.063041092354379L-9.330060877578068,12.841727108793867L-5.766294739448918,1.8735827351311491L-15.09635561702699,-4.905103281308335L-3.563766138129152,-4.905103281308337Z" transform="translate(305.2139710509755,307.3491438554156)rotate(12.706722468405193)" fill="white" class="commune"><title>49331 Population : 17577</title></path><path d="M0,-18.876579049491834L4.238056047668955,-5.833183721955068L17.952693510379785,-5.833183721955069L6.857318731355415,2.2280779191642193L11.095374779024372,15.271473246700983L8.881784197001252e-16,7.210211605581696L-11.095374779024368,15.271473246700985L-6.857318731355414,2.2280779191642206L-17.952693510379788,-5.833183721955065L-4.238056047668956,-5.833183721955068Z" transform="translate(748.8860918816866,677.3458018252823)rotate(9.640261820666645)" fill="white" class="commune"><title>49328 Population : 27125</title></path><path d="M0,-22.448162112566994L5.039926405668234,-6.936863585267022L21.349470856006818,-6.936863585267023L8.154772225169292,2.649646114250548L13.19469863083753,18.16094464155052L8.881784197001252e-16,8.574434942032948L-13.194698630837525,18.160944641550522L-8.154772225169292,2.649646114250549L-21.34947085600682,-6.936863585267019L-5.0399264056682345,-6.936863585267021Z" transform="translate(296.67086217747016,862.4473739318855)rotate(0.6585048304241381)" fill="white" class="commune"><title>49099 Population : 53718</title></path><path d="M0,-26.69551410299918L5.993516340710753,-8.249367531402827L25.38894264350654,-8.249367531402829L9.697713151397894,3.150978011306063L15.69122949210865,21.597124582902413L1.7763568394002505e-15,10.196779040193524L-15.691229492108645,21.597124582902417L-9.697713151397892,3.1509780113060657L-25.388942643506542,-8.249367531402822L-5.993516340710755,-8.249367531402825Z" transform="translate(479.4933920704846,500.7399843143867)rotate(4.551142790443727)" fill="white" class="commune"><title>49007 Population : 151229</title></path></g><text class="text" y="40" x="427.5" text-anchor="middle" font-size="36" font-family="Helvetica" fill="#6baed6">49 - MAINE ET LOIRE</text><line x1="467.3052234109503" y1="524.8538102888866" x2="308.85903083700447" y2="838.3335479573856" stroke="yellow" opacity="0.35" stroke-width="2"/><line x1="326.81854415775126" y1="850.1072691247787" x2="718.7384099014056" y2="689.6859066323891" stroke="yellow" opacity="0.35" stroke-width="2"/><line x1="719.3079504929725" y1="652.6793579606244" x2="334.79211243968956" y2="332.01558772007337" stroke="yellow" opacity="0.35" stroke-width="2"/><line x1="316.83259911894277" y1="320.24186655268034" x2="467.87476400251734" y2="487.84726161712194" stroke="yellow" opacity="0.35" stroke-width="2"/></svg>