<svg viewBox="0,0,954,1144.8" width="954" height="1144.8" style="width: 100%; height: auto;" xmlns="http://www.w3.org/2000/svg" xmlns:xlink="http://www.w3.org/1999/xlink"><rect width="954" height="1144.8" fill="black"/><g stroke="#000" stroke-opacity="0.2"><path d="M0,-15.873247654971056L3.5637661381291506,-4.905103281308338L15.096355617026989,-4.905103281308339L5.766294739448918,1.873582735131148L9.330060877578072,12.841727108793865L8.881784197001252e-16,6.063041092354379L-9.330060877578068,12.841727108793867L-5.766294739448918,1.8735827351311491L-15.09635561702699,-4.905103281308335L-3.563766138129152,-4.905103281308337Z" transform="translate(459.53252181564767,732.8550128208008)rotate(5.519420517882544)" fill="white" class="commune"><title>insee_com : 25462 
Population : 17197
 Nom : PONTARLIER</title></path><path d="M0,-18.876579049491834L4.238056047668955,-5.833183721955068L17.952693510379785,-5.833183721955069L6.857318731355415,2.2280779191642193L11.095374779024372,15.271473246700983L8.881784197001252e-16,7.210211605581696L-11.095374779024368,15.271473246700985L-6.857318731355414,2.2280779191642206L-17.952693510379788,-5.833183721955065L-4.238056047668956,-5.833183721955068Z" transform="translate(753.9274767177521,141.41975169757643)rotate(8.814686486981019)" fill="white" class="commune"><title>insee_com : 25388 
Population : 25395
 Nom : MONTBELIARD</title></path><path d="M0,-26.69551410299918L5.993516340710753,-8.249367531402827L25.38894264350654,-8.249367531402829L9.697713151397894,3.150978011306063L15.69122949210865,21.597124582902413L1.7763568394002505e-15,10.196779040193524L-15.691229492108645,21.597124582902417L-9.697713151397892,3.1509780113060657L-25.388942643506542,-8.249367531402822L-5.993516340710755,-8.249367531402825Z" transform="translate(240.70844027278645,408.1631886987234)rotate(6.033124869770302)" fill="white" class="commune"><title>insee_com : 25056 
Population : 115934
 Nom : BESANCON</title></path></g><text class="text" y="40" x="427" text-anchor="middle" font-size="36" font-family="Helvetica" fill="#6baed6">25  - DOUBS</text><line x1="274.92304270245086" y1="390.3802928986469" x2="719.7128742880877" y2="159.2026474976529" stroke="yellow" opacity="0.35" stroke-width="2"/><line x1="734.3011463909452" y1="180.84876910579138" x2="479.15885214245463" y2="693.4259954125858" stroke="yellow" opacity="0.35" stroke-width="2"/><line x1="444.9442497127903" y1="711.2088912126623" x2="255.29671237564386" y2="429.8093103068619" stroke="yellow" opacity="0.35" stroke-width="2"/></svg>