<svg viewBox="0,0,955,1146" width="955" height="1146" style="width: 100%; height: auto;" xmlns="http://www.w3.org/2000/svg" xmlns:xlink="http://www.w3.org/1999/xlink"><rect width="955" height="1146" fill="black"/><g stroke="#000" stroke-opacity="0.2"><path d="M0,-15.873247654971056L3.5637661381291506,-4.905103281308338L15.096355617026989,-4.905103281308339L5.766294739448918,1.873582735131148L9.330060877578072,12.841727108793865L8.881784197001252e-16,6.063041092354379L-9.330060877578068,12.841727108793867L-5.766294739448918,1.8735827351311491L-15.09635561702699,-4.905103281308335L-3.563766138129152,-4.905103281308337Z" transform="translate(705.0835276766611,637.1707943691508)rotate(17.662639810286674)" fill="white" class="commune"><title>77379 Population : 11859</title></path><path d="M0,-15.873247654971056L3.5637661381291506,-4.905103281308338L15.096355617026989,-4.905103281308339L5.766294739448918,1.873582735131148L9.330060877578072,12.841727108793865L8.881784197001252e-16,6.063041092354379L-9.330060877578068,12.841727108793867L-5.766294739448918,1.8735827351311491L-15.09635561702699,-4.905103281308335L-3.563766138129152,-4.905103281308337Z" transform="translate(264.4353576615631,809.1223397502908)rotate(1.6527954034988601)" fill="white" class="commune"><title>77186 Population : 14907</title></path><path d="M0,-18.876579049491834L4.238056047668955,-5.833183721955068L17.952693510379785,-5.833183721955069L6.857318731355415,2.2280779191642193L11.095374779024372,15.271473246700983L8.881784197001252e-16,7.210211605581696L-11.095374779024368,15.271473246700985L-6.857318731355414,2.2280779191642206L-17.952693510379788,-5.833183721955065L-4.238056047668956,-5.833183721955068Z" transform="translate(242.65702965422702,317.0408776702243)rotate(16.205408282041212)" fill="white" class="commune"><title>77468 Population : 23215</title></path><path d="M0,-22.448162112566994L5.039926405668234,-6.936863585267022L21.349470856006818,-6.936863585267023L8.154772225169292,2.649646114250548L13.19469863083753,18.16094464155052L8.881784197001252e-16,8.574434942032948L-13.194698630837525,18.160944641550522L-8.154772225169292,2.649646114250549L-21.34947085600682,-6.936863585267019L-5.0399264056682345,-6.936863585267021Z" transform="translate(247.73863952260535,658.008558026464)rotate(9.835059744332984)" fill="white" class="commune"><title>77288 Population : 40228</title></path><path d="M0,-22.448162112566994L5.039926405668234,-6.936863585267022L21.349470856006818,-6.936863585267023L8.154772225169292,2.649646114250548L13.19469863083753,18.16094464155052L8.881784197001252e-16,8.574434942032948L-13.194698630837525,18.160944641550522L-8.154772225169292,2.649646114250549L-21.34947085600682,-6.936863585267019L-5.0399264056682345,-6.936863585267021Z" transform="translate(423.41715211511564,203.2846545299617)rotate(20.618057707511106)" fill="white" class="commune"><title>77284 Population : 54331</title></path></g><text class="text" y="40" x="427.5" text-anchor="middle" font-size="36" font-family="Helvetica" fill="#6baed6">77 - SEINE ET MARNE</text><line x1="442.1949104858853" y1="232.21039718590765" x2="686.3057693058914" y2="608.2450517132049" stroke="yellow" opacity="0.35" stroke-width="2"/><line x1="675.7069830089879" y1="648.6342307278935" x2="293.8119023292363" y2="797.6589033915482" stroke="yellow" opacity="0.35" stroke-width="2"/><line x1="263.3222431189659" y1="799.048087635369" x2="248.85175406520253" y2="668.0828101413858" stroke="yellow" opacity="0.35" stroke-width="2"/><line x1="247.39986553138013" y1="635.277379336048" x2="242.99580364545224" y2="339.77205636064025" stroke="yellow" opacity="0.35" stroke-width="2"/><line x1="254.70770448495293" y1="309.45712946087343" x2="411.36647728438976" y2="210.86840273931253" stroke="yellow" opacity="0.35" stroke-width="2"/></svg>