<svg viewBox="0,0,600,600" width="600" height="600" style="width: 100%; height: auto;" xmlns="http://www.w3.org/2000/svg" xmlns:xlink="http://www.w3.org/1999/xlink"><rect width="752" height="902.4" fill="black"/><g stroke="#000" stroke-opacity="0.2"><path d="M0,-13.34775705149959L2.9967581703553763,-4.1246837657014135L12.69447132175327,-4.124683765701414L4.848856575698947,1.5754890056530315L7.845614746054325,10.798562291451207L8.881784197001252e-16,5.098389520096762L-7.845614746054323,10.798562291451208L-4.848856575698946,1.5754890056530328L-12.694471321753271,-4.124683765701411L-2.9967581703553776,-4.124683765701413Z" transform="translate(392.28031282283246,130.53541530498842)rotate(1.225554271718291)" fill="white" class="commune"><title>02789 Population : 2526</title></path><path d="M0,-15.873247654971056L3.5637661381291506,-4.905103281308338L15.096355617026989,-4.905103281308339L5.766294739448918,1.873582735131148L9.330060877578072,12.841727108793865L8.881784197001252e-16,6.063041092354379L-9.330060877578068,12.841727108793867L-5.766294739448918,1.8735827351311491L-15.09635561702699,-4.905103281308335L-3.563766138129152,-4.905103281308337Z" transform="translate(234.41713616993593,478.23505896661663)rotate(8.332878359554455)" fill="white" class="commune"><title>02168 Population : 14847</title></path><path d="M0,-18.876579049491834L4.238056047668955,-5.833183721955068L17.952693510379785,-5.833183721955069L6.857318731355415,2.2280779191642193L11.095374779024372,15.271473246700983L8.881784197001252e-16,7.210211605581696L-11.095374779024368,15.271473246700985L-6.857318731355414,2.2280779191642206L-17.952693510379788,-5.833183721955065L-4.238056047668956,-5.833183721955068Z" transform="translate(304.0626552815081,250.33213985337352)rotate(1.7517501677883118)" fill="white" class="commune"><title>02408 Population : 25193</title></path><path d="M0,-18.876579049491834L4.238056047668955,-5.833183721955068L17.952693510379785,-5.833183721955069L6.857318731355415,2.2280779191642193L11.095374779024372,15.271473246700983L8.881784197001252e-16,7.210211605581696L-11.095374779024368,15.271473246700985L-6.857318731355414,2.2280779191642206L-17.952693510379788,-5.833183721955065L-4.238056047668956,-5.833183721955068Z" transform="translate(217.8763253809376,334.73652054004197)rotate(29.358412640271073)" fill="white" class="commune"><title>02722 Population : 28466</title></path><path d="M0,-22.448162112566994L5.039926405668234,-6.936863585267022L21.349470856006818,-6.936863585267023L8.154772225169292,2.649646114250548L13.19469863083753,18.16094464155052L8.881784197001252e-16,8.574434942032948L-13.194698630837525,18.160944641550522L-8.154772225169292,2.649646114250549L-21.34947085600682,-6.936863585267019L-5.0399264056682345,-6.936863585267021Z" transform="translate(204.52760088455295,125.13579243066852)rotate(0.06624597416333367)" fill="white" class="commune"><title>02691 Population : 54443</title></path></g><text class="text" y="25" x="326" text-anchor="middle" font-size="24" font-family="Helvetica" fill="#6baed6">02 - AISNE</text><line x1="217.04444834710492" y1="125.49576728895651" x2="379.76346536028046" y2="130.17544044670043" stroke="yellow" opacity="0.35" stroke-width="2"/><line x1="386.39913565341084" y1="138.5218636082141" x2="309.94383245092973" y2="242.34569155014785" stroke="yellow" opacity="0.35" stroke-width="2"/><line x1="299.41962067406996" y1="265.5256677942564" x2="239.06017077737408" y2="463.0415310257338" stroke="yellow" opacity="0.35" stroke-width="2"/><line x1="233.31441545066937" y1="468.6684897381783" x2="218.97904610020416" y2="344.3030897684803" stroke="yellow" opacity="0.35" stroke-width="2"/><line x1="216.98641041451197" y1="320.76313866608376" x2="205.4175158509786" y2="139.10917430462675" stroke="yellow" opacity="0.35" stroke-width="2"/></svg>