<svg viewBox="0,0,954,1144.8" width="954" height="1144.8" style="width: 100%; height: auto;" xmlns="http://www.w3.org/2000/svg" xmlns:xlink="http://www.w3.org/1999/xlink"><rect width="954" height="1144.8" fill="black"/><g stroke="#000" stroke-opacity="0.2"><path d="M0,-15.873247654971056L3.5637661381291506,-4.905103281308338L15.096355617026989,-4.905103281308339L5.766294739448918,1.873582735131148L9.330060877578072,12.841727108793865L8.881784197001252e-16,6.063041092354379L-9.330060877578068,12.841727108793867L-5.766294739448918,1.8735827351311491L-15.09635561702699,-4.905103281308335L-3.563766138129152,-4.905103281308337Z" transform="translate(798.9280575539567,721.9316496036845)rotate(16.806904661277844)" fill="white" class="commune"><title>insee_com : 85092 
Population : 13226
 Nom : FONTENAY LE COMTE</title></path><path d="M0,-22.448162112566994L5.039926405668234,-6.936863585267022L21.349470856006818,-6.936863585267023L8.154772225169292,2.649646114250548L13.19469863083753,18.16094464155052L8.881784197001252e-16,8.574434942032948L-13.194698630837525,18.160944641550522L-8.154772225169292,2.649646114250549L-21.34947085600682,-6.936863585267019L-5.0399264056682345,-6.936863585267021Z" transform="translate(324.0198647052507,700.0113483040077)rotate(16.244315377359023)" fill="white" class="commune"><title>insee_com : 85194 
Population : 44017
 Nom : SABLES D OLONNE</title></path><path d="M0,-22.448162112566994L5.039926405668234,-6.936863585267022L21.349470856006818,-6.936863585267023L8.154772225169292,2.649646114250548L13.19469863083753,18.16094464155052L8.881784197001252e-16,8.574434942032948L-13.194698630837525,18.160944641550522L-8.154772225169292,2.649646114250549L-21.34947085600682,-6.936863585267019L-5.0399264056682345,-6.936863585267021Z" transform="translate(497.1417373563835,577.6336004576842)rotate(25.28111573692892)" fill="white" class="commune"><title>insee_com : 85191 
Population : 54372
 Nom : ROCHE SUR YON</title></path></g><text class="text" y="40" x="427" text-anchor="middle" font-size="36" font-family="Helvetica" fill="#6baed6">85  - VENDEE</text><line x1="778.8089695407851" y1="712.3117796606178" x2="517.260825369555" y2="587.2534704007509" stroke="yellow" opacity="0.35" stroke-width="2"/><line x1="485.6002791796413" y1="585.7921169807724" x2="335.5613228819929" y2="691.8528317809195" stroke="yellow" opacity="0.35" stroke-width="2"/><line x1="355.68041089516447" y1="701.4727017239861" x2="767.267511364043" y2="720.4702961837061" stroke="yellow" opacity="0.35" stroke-width="2"/></svg>