<svg viewBox="0,0,955,1146" width="955" height="1146" style="width: 100%; height: auto;" xmlns="http://www.w3.org/2000/svg" xmlns:xlink="http://www.w3.org/1999/xlink"><rect width="955" height="1146" fill="black"/><g stroke="#000" stroke-opacity="0.2"><path d="M0,-22.448162112566994L5.039926405668234,-6.936863585267022L21.349470856006818,-6.936863585267023L8.154772225169292,2.649646114250548L13.19469863083753,18.16094464155052L8.881784197001252e-16,8.574434942032948L-13.194698630837525,18.160944641550522L-8.154772225169292,2.649646114250549L-21.34947085600682,-6.936863585267019L-5.0399264056682345,-6.936863585267021Z" transform="translate(437.19519898926046,567.6445627932699)rotate(22.680393991609453)" fill="white" class="commune"><title>13047 Population : 42925</title></path><path d="M0,-22.448162112566994L5.039926405668234,-6.936863585267022L21.349470856006818,-6.936863585267023L8.154772225169292,2.649646114250548L13.19469863083753,18.16094464155052L8.881784197001252e-16,8.574434942032948L-13.194698630837525,18.160944641550522L-8.154772225169292,2.649646114250549L-21.34947085600682,-6.936863585267019L-5.0399264056682345,-6.936863585267021Z" transform="translate(271.9740998104862,570.0108958456076)rotate(7.114515477626906)" fill="white" class="commune"><title>13004 Population : 52857</title></path><path d="M0,-26.69551410299918L5.993516340710753,-8.249367531402827L25.38894264350654,-8.249367531402829L9.697713151397894,3.150978011306063L15.69122949210865,21.597124582902413L1.7763568394002505e-15,10.196779040193524L-15.691229492108645,21.597124582902417L-9.697713151397892,3.1509780113060657L-25.388942643506542,-8.249367531402822L-5.993516340710755,-8.249367531402825Z" transform="translate(693.3164876816172,578.6864429389898)rotate(4.626323391737389)" fill="white" class="commune"><title>13001 Population : 143006</title></path><path d="M0,-44.54138473356747L10.000163930483316,-13.764044835665187L42.36137419566881,-13.764044835665189L16.180605132592746,5.257397304546639L26.18076906307607,36.034737202448916L1.7763568394002505e-15,17.01329506223709L-26.18076906307606,36.03473720244892L-16.180605132592746,5.257397304546643L-42.361374195668816,-13.764044835665178L-10.000163930483321,-13.764044835665185Z" transform="translate(705.8938723941887,770.7206197160449)rotate(26.280785581942293)" fill="white" class="commune"><title>13055 Population : 862211</title></path></g><text class="text" y="40" x="427.5" text-anchor="middle" font-size="36" font-family="Helvetica" fill="#6baed6">13 - BOUCHES DU RHONE</text><line x1="705.0553800800174" y1="757.9183412642412" x2="694.1549799957886" y2="591.4887213907934" stroke="yellow" opacity="0.35" stroke-width="2"/><line x1="676.2417351021268" y1="577.9503175959418" x2="454.2699515687509" y2="568.3806881363179" stroke="yellow" opacity="0.35" stroke-width="2"/><line x1="426.18045904400884" y1="567.8023183300924" x2="282.98883975573784" y2="569.8531403087851" stroke="yellow" opacity="0.35" stroke-width="2"/><line x1="300.90208464939974" y1="583.3915441036368" x2="676.9658875552752" y2="757.3399714580157" stroke="yellow" opacity="0.35" stroke-width="2"/></svg>