<svg viewBox="0,0,600,600" width="600" height="600" style="width: 100%; height: auto;" xmlns="http://www.w3.org/2000/svg" xmlns:xlink="http://www.w3.org/1999/xlink"><rect width="752" height="902.4" fill="black"/><path d="M275,419.0470915722872L275.3424657534246,419.0470915722872L275,419.5676708289211L275,419.5676708289211L274.6575342465753,419.5676708289211L273.97260273972597,419.5676708289211L273.97260273972597,418.0059018519278L274.6575342465753,418.0059018519278L274.6575342465753,418.0059018519278L274.6575342465753,418.5265019134895L274.6575342465753,419.0470915722872ZM121.57534246575341,294.32900259093003L121.57534246575341,294.32900259093003L121.57534246575341,293.8059102475818L121.57534246575341,293.28280736302986L121.57534246575341,292.7596939366995L121.57534246575341,292.7596939366995L121.91780821917803,291.1902904012604L121.57534246575341,289.09760473375354L121.23287671232868,287.0047503230817L121.23287671232868,287.0047503230817L121.23287671232868,287.0047503230817L121.23287671232868,287.0047503230817L117.80821917808214,287.0047503230817L115.7534246575342,287.52797974746136L112.67123287671228,289.09760473375354L112.3287671232876,289.6207919688459L110.61643835616434,291.1902904012604L110.27397260273966,291.7134354564114L109.24657534246569,292.236569968034L108.90410958904101,292.7596939366995L107.87671232876704,293.28280736302986L105.8219178082191,294.8520843936931L105.47945205479442,294.8520843936931L105.47945205479442,294.8520843936931L105.47945205479442,294.32900259093003L105.8219178082191,294.32900259093003L106.16438356164372,293.28280736302986L107.87671232876704,290.66713480201724L107.87671232876704,290.66713480201724L108.90410958904101,289.09760473375354L109.58904109589037,288.05119862365245L110.61643835616434,289.09760473375354L110.95890410958896,289.09760473375354L111.64383561643825,288.5744069522261L112.67123287671228,287.0047503230817L115.0684931506849,285.43499875486305L116.43835616438349,284.9117271318173L117.12328767123279,284.3884449576617L118.15068493150676,282.818535122562L118.15068493150676,282.295210738037L118.49315068493144,281.2485303062713L118.15068493150676,280.20180765361874L116.78082191780817,279.67843049299336L115.7534246575342,279.15504277540094L115.41095890410952,279.15504277540094L114.04109589041087,279.15504277540094L113.01369863013696,279.15504277540094L111.98630136986293,278.63164450024124L112.67123287671228,277.5848162748953L112.67123287671228,277.06138632353395L112.3287671232876,277.06138632353395L111.98630136986293,276.53794581228067L110.95890410958896,275.4910331076935L109.93150684931499,274.9675609132173L108.56164383561634,274.44407815648447L105.8219178082191,272.8735665069689L104.4520547945205,272.3500414953887L102.3972602739725,270.77940306727396L100.68493150684924,269.2086695367652L100.34246575342462,268.6850705566576L99.99999999999994,268.1614610072829L102.3972602739725,266.5905689376159L103.42465753424653,265.54325470070034L103.0821917808218,265.54325470070034L102.05479452054789,265.0195817233398L100.34246575342462,265.0195817233398L99.31506849315065,265.0195817233398L98.28767123287662,265.0195817233398L97.2602739726027,265.0195817233398L94.86301369863008,264.4958981726086L94.17808219178079,263.97220404789914L93.83561643835611,263.97220404789914L94.17808219178079,262.40105822409896L94.52054794520541,261.87732179766317L94.86301369863008,261.3535747943097L95.2054794520547,260.8298172134855L95.54794520547938,260.8298172134855L96.91780821917803,260.3060490545686L97.945205479452,261.3535747943097L97.945205479452,261.87732179766317L98.28767123287662,262.40105822409896L98.6301369863013,262.40105822409896L98.6301369863013,262.9247840742355L99.31506849315065,262.9247840742355L101.02739726027391,263.4484993486294L101.71232876712321,263.97220404789914L102.73972602739718,263.4484993486294L102.73972602739718,263.4484993486294L104.79452054794513,261.87732179766317L105.47945205479442,261.87732179766317L105.8219178082191,260.8298172134855L105.8219178082191,259.258481000179L105.8219178082191,258.7346811035204L105.8219178082191,258.210870626448L105.8219178082191,257.1632179286644L105.8219178082191,257.1632179286644L106.50684931506845,255.591659514168L106.84931506849307,255.06778554222183L108.21917808219172,254.0200058441551L109.93150684931499,252.97218380324557L111.64383561643825,250.8764126741662L111.64383561643825,249.8284635765849L110.95890410958896,249.30447314247067L110.27397260273966,248.78047211737066L109.58904109589037,248.78047211737066L109.24657534246569,249.30447314247067L108.90410958904101,249.30447314247067L108.56164383561634,249.30447314247067L109.24657534246569,248.256460500681L109.93150684931499,247.73243829181956L111.30136986301363,246.16030810634766L111.98630136986293,246.16030810634766L112.3287671232876,246.16030810634766L112.67123287671228,246.16030810634766L112.67123287671228,246.16030810634766L112.67123287671228,246.16030810634766L118.49315068493144,242.49163350448725L118.49315068493144,242.49163350448725L118.15068493150676,242.49163350448725L118.15068493150676,242.49163350448725L117.12328767123279,241.9674947429521L115.7534246575342,241.9674947429521L114.72602739726017,241.9674947429521L113.69863013698625,241.9674947429521L113.01369863013696,239.8708336986092L111.98630136986293,237.7740030289533L111.30136986301363,237.24976885316937L111.30136986301363,236.72552407287003L109.58904109589037,235.15272609892054L108.21917808219172,233.57983266304655L106.50684931506845,231.48249289142768L106.16438356164372,230.95813142248153L105.8219178082191,229.9093766492333L105.47945205479442,229.38498334375618L105.47945205479442,228.33616489210544L106.16438356164372,227.8117397447786L106.84931506849307,227.28730398230982L105.1369863013698,226.76285760412065L103.42465753424653,228.33616489210544L103.0821917808218,229.38498334375618L102.73972602739718,229.9093766492333L103.0821917808218,230.43375934194046L103.76712328767115,230.43375934194046L104.10958904109583,230.43375934194046L104.10958904109583,230.95813142248153L103.76712328767115,232.006843749361L103.0821917808218,233.57983266304655L102.73972602739718,234.10414108286932L102.73972602739718,234.10414108286932L103.0821917808218,234.10414108286932L103.42465753424653,234.10414108286932L103.42465753424653,234.6284388946333L103.42465753424653,234.6284388946333L103.42465753424653,234.6284388946333L103.42465753424653,235.15272609892054L102.73972602739718,235.15272609892054L102.05479452054789,235.15272609892054L101.36986301369853,234.6284388946333L99.65753424657532,234.6284388946333L97.945205479452,235.67700269632041L97.60273972602732,238.82243956929233L96.23287671232873,241.44334538216935L95.89041095890411,241.9674947429521L95.54794520547938,243.01576166739687L95.2054794520547,243.53987923225577L94.86301369863008,243.53987923225577L93.15068493150682,244.58808257016062L90.41095890410958,246.16030810634766L89.04109589041087,247.20840549020795L88.35616438356158,247.73243829181956L85.61643835616434,246.6843620952386L84.58904109589037,246.6843620952386L84.24657534246575,246.6843620952386L83.90410958904101,246.16030810634766L83.90410958904101,246.16030810634766L82.53424657534242,244.58808257016062L81.16438356164372,243.53987923225577L80.47945205479442,243.01576166739687L79.4520547945205,243.01576166739687L76.71232876712327,240.91918542158965L76.71232876712327,240.91918542158965L76.02739726027391,240.91918542158965L73.97260273972603,241.44334538216935L71.91780821917808,241.9674947429521L71.91780821917808,241.9674947429521L71.57534246575335,241.44334538216935L71.57534246575335,241.44334538216935L71.57534246575335,241.44334538216935L71.57534246575335,239.8708336986092L71.23287671232879,238.2982266008039L71.23287671232879,238.2982266008039L70.54794520547938,237.24976885316937L69.86301369863008,237.24976885316937L68.83561643835606,236.20126868744774L68.49315068493149,236.20126868744774L68.49315068493149,235.67700269632041L68.15068493150676,234.6284388946333L68.15068493150676,233.0555136345938L67.80821917808214,232.531183996889L66.78082191780817,232.006843749361L66.43835616438355,232.006843749361L66.09589041095882,232.531183996889L65.75342465753425,232.531183996889L64.04109589041093,232.531183996889L63.01369863013696,232.006843749361L62.671232876712224,230.95813142248153L62.671232876712224,229.38498334375618L62.671232876712224,229.38498334375618L62.671232876712224,228.86057942490515L62.671232876712224,228.86057942490515L61.64383561643831,228.86057942490515L61.64383561643831,229.38498334375618L61.64383561643831,229.38498334375618L61.30136986301363,229.9093766492333L60.958904109589014,229.9093766492333L60.958904109589014,229.9093766492333L60.27397260273972,230.43375934194046L59.931506849314985,230.43375934194046L59.589041095890366,229.9093766492333L57.876712328766985,227.8117397447786L57.53424657534242,227.8117397447786L56.50684931506839,227.28730398230982L56.164383561643774,227.28730398230982L55.47945205479448,227.28730398230982L55.1369863013698,226.76285760412065L54.79452054794518,226.76285760412065L54.10958904109589,226.76285760412065L53.08219178082186,225.71393299825286L53.08219178082186,225.1894547693919L52.73972602739718,224.1404664568181L52.73972602739718,224.1404664568181L52.39726027397256,223.6159563719557L51.36986301369859,222.56690434209304L50.684931506849296,222.56690434209304L49.99999999999994,221.5178098281176L49.65753424657527,221.5178098281176L49.65753424657527,220.46867282532912L49.65753424657527,219.4194933290055L49.65753424657527,219.4194933290055L49.65753424657527,219.4194933290055L48.972602739725914,219.94408838916206L48.28767123287662,220.46867282532912L47.945205479452,220.46867282532912L47.945205479452,219.94408838916206L47.60273972602732,217.32100683684985L47.60273972602732,217.32100683684985L47.60273972602732,216.79635864796364L47.26027397260265,216.2716998315591L46.91780821917803,215.22235031385935L46.23287671232862,214.69765961136363L46.23287671232862,214.69765961136363L46.23287671232862,214.69765961136363L45.890410958904056,214.69765961136363L45.890410958904056,214.69765961136363L45.54794520547932,215.22235031385935L45.54794520547932,215.74703038706502L45.54794520547932,216.2716998315591L45.54794520547932,216.2716998315591L45.54794520547932,216.2716998315591L45.20547945205476,216.2716998315591L44.17808219178073,216.2716998315591L44.17808219178073,215.74703038706502L43.83561643835611,215.74703038706502L43.83561643835611,215.74703038706502L43.83561643835611,215.74703038706502L40.7534246575342,211.02452702425944L40.06849315068479,210.49975126621575L37.32876712328755,208.92536018205647L35.958904109589014,208.40054188203067L33.90410958904101,207.3508733705021L33.21917808219172,206.82602315781696L33.21917808219172,206.82602315781696L33.21917808219172,206.30116230637577L33.21917808219172,205.77629081560008L33.561643835616394,202.62683841189937L33.561643835616394,202.62683841189937L33.561643835616394,202.62683841189937L33.90410958904101,202.1018924292366L34.24657534246569,202.1018924292366L34.931506849314985,202.1018924292366L35.958904109589014,203.1517737510694L35.958904109589014,203.1517737510694L36.30136986301363,203.1517737510694L36.30136986301363,204.20161250138335L36.64383561643831,204.20161250138335L36.64383561643831,204.20161250138335L36.986301369862986,204.72651591369868L37.32876712328755,204.72651591369868L37.32876712328755,204.20161250138335L37.67123287671228,204.20161250138335L38.35616438356158,202.1018924292366L38.35616438356158,201.5769358025318L38.698630136986196,201.5769358025318L38.35616438356158,201.05196853115194L38.35616438356158,201.05196853115194L38.0136986301369,200.5269906145295L37.67123287671228,200.5269906145295L35.958904109589014,199.4770028431849L35.27397260273972,198.95199298727312L34.24657534246569,197.90194133202021L33.561643835616394,196.8518470815834L32.87671232876704,194.7515307761969L31.849315068493127,191.60073673577062L31.50684931506845,188.44955908282645L31.849315068493127,186.34856079961173L31.849315068493127,186.34856079961173L33.561643835616394,184.77270014005626L39.38356164383549,179.51913805041477L40.06849315068479,178.99372316877634L40.7534246575342,178.468297616997L41.78082191780817,177.9428613944874L42.12328767123279,178.468297616997L43.15068493150682,178.99372316877634L43.83561643835611,179.51913805041477L44.86301369863003,180.04454226252346L45.20547945205476,180.04454226252346L45.20547945205476,180.04454226252346L45.20547945205476,180.04454226252346L43.83561643835611,179.51913805041477L43.15068493150682,178.99372316877634L42.12328767123279,177.9428613944874L41.78082191780817,177.9428613944874L41.43835616438349,177.41741450067275L41.43835616438349,177.41741450067275L41.095890410958816,176.36648869668352L40.7534246575342,174.26450900677082L40.41095890410952,171.63679419171604L40.41095890410952,170.06003716608757L40.41095890410952,167.9575449392978L40.41095890410952,165.85488179082677L40.41095890410952,165.32918929275183L40.41095890410952,164.80348610908186L40.06849315068479,162.70056650678453L39.38356164383549,161.12326457736344L39.726027397260225,159.54586643492803L40.41095890410952,157.96837206343844L41.78082191780817,156.39078144679297L43.15068493150682,154.8130945689445L44.86301369863003,153.23531141380954L45.20547945205476,152.70936229771178L46.91780821917803,150.60545882873703L48.972602739725914,148.50138412392698L48.972602739725914,148.50138412392698L48.972602739725914,147.97533868764367L49.31506849315065,147.44928254614933L50.684931506849296,146.39713814512288L53.08219178082186,144.81884123953205L53.08219178082186,144.81884123953205L54.79452054794518,143.7665897594852L56.164383561643774,143.7665897594852L59.589041095890366,143.7665897594852L60.958904109589014,143.7665897594852L62.32876712328766,144.29272085420962L63.35616438356152,144.29272085420962L66.09589041095882,144.29272085420962L68.15068493150676,144.29272085420962L70.20547945205476,143.7665897594852L70.54794520547938,143.7665897594852L70.89041095890406,142.7142954394876L70.89041095890406,142.7142954394876L72.60273972602738,142.1881322130248L73.28767123287668,142.1881322130248L73.6301369863013,142.1881322130248L74.31506849315059,141.66195827476622L75.34246575342462,141.66195827476622L76.36986301369859,141.13577362413344L79.4520547945205,140.60957826054437L82.53424657534242,140.60957826054437L84.58904109589037,140.60957826054437L84.93150684931504,140.60957826054437L85.61643835616434,141.13577362413344L86.98630136986293,141.13577362413344L87.67123287671228,141.13577362413344L88.01369863013696,141.13577362413344L88.69863013698625,141.13577362413344L89.38356164383555,140.60957826054437L89.72602739726017,140.60957826054437L90.0684931506849,140.08337218337329L90.7534246575342,140.08337218337329L91.09589041095887,140.08337218337329L92.46575342465746,140.08337218337329L92.80821917808208,140.60957826054437L93.15068493150682,140.60957826054437L93.49315068493149,140.60957826054437L94.52054794520541,140.60957826054437L96.23287671232873,140.60957826054437L97.60273972602732,140.60957826054437L98.28767123287662,140.60957826054437L101.02739726027391,141.13577362413344L101.36986301369853,141.13577362413344L102.3972602739725,141.66195827476622L103.76712328767115,142.1881322130248L104.4520547945205,142.1881322130248L105.1369863013698,142.7142954394876L105.47945205479442,142.7142954394876L105.47945205479442,142.1881322130248L105.47945205479442,142.1881322130248L105.8219178082191,142.7142954394876L106.84931506849307,143.24044795478767L107.53424657534242,144.29272085420962L109.24657534246569,145.87104988440478L109.58904109589037,146.39713814512288L110.61643835616434,147.44928254614933L111.64383561643825,148.50138412392698L112.3287671232876,148.50138412392698L112.67123287671228,149.0274188555668L113.69863013698625,149.55344288319247L115.41095890410952,151.1314507478528L120.20547945205476,153.76124983064437L121.91780821917803,154.28717754884565L122.2602739726027,154.28717754884565L124.31506849315059,155.33900089156668L125.34246575342462,155.864896517327L126.36986301369859,156.39078144679297L127.05479452054789,156.91665568056487L127.39726027397256,156.91665568056487L129.10958904109583,157.44251921925024L131.16438356164377,158.49421421371153L132.19178082191775,158.49421421371153L133.5616438356164,159.02004567068434L135.61643835616434,160.07167650706833L136.6438356164383,160.07167650706833L138.69863013698625,160.59747588767277L138.69863013698625,160.59747588767277L139.3835616438356,160.59747588767277L140.41095890410952,161.12326457736344L143.8356164383561,161.64904257671515L146.91780821917803,162.1748098863136L148.28767123287668,162.1748098863136L151.7123287671232,163.22631243870273L152.0547945205479,163.22631243870273L152.0547945205479,163.22631243870273L153.08219178082186,163.22631243870273L154.79452054794513,163.22631243870273L155.8219178082191,163.75204768265758L157.19178082191775,163.75204768265758L158.21917808219172,163.75204768265758L158.904109589041,163.75204768265758L159.2465753424657,163.75204768265758L160.95890410958896,164.27777223926023L161.98630136986293,164.80348610908186L164.38356164383555,165.32918929275183L166.78082191780814,165.32918929275183L167.12328767123284,165.32918929275183L167.12328767123284,165.32918929275183L169.5205479452054,165.85488179082677L171.91780821917803,165.85488179082677L172.94520547945203,165.85488179082677L173.63013698630132,166.38056360393603L174.31506849315065,166.38056360393603L174.99999999999994,166.38056360393603L176.02739726027394,166.38056360393603L176.02739726027394,166.38056360393603L177.0547945205479,166.38056360393603L177.39726027397256,166.38056360393603L178.7671232876712,165.85488179082677L182.53424657534242,166.38056360393603L186.6438356164383,166.38056360393603L188.35616438356158,166.90623473265805L191.09589041095884,166.90623473265805L193.49315068493146,166.90623473265805L193.8356164383561,166.90623473265805L193.8356164383561,166.90623473265805L194.86301369863008,166.90623473265805L198.28767123287665,166.90623473265805L200.68493150684927,166.90623473265805L201.36986301369856,167.43189517757492L202.05479452054792,167.43189517757492L204.79452054794513,168.48318401842334L207.5342465753424,169.5344301312216L207.8767123287671,169.5344301312216L208.5616438356164,170.06003716608757L210.6164383561643,170.06003716608757L212.32876712328763,170.06003716608757L213.01369863013693,170.06003716608757L213.69863013698628,170.06003716608757L214.38356164383558,170.06003716608757L214.72602739726022,170.06003716608757L216.09589041095884,170.06003716608757L217.12328767123284,170.06003716608757L217.80821917808214,170.06003716608757L218.15068493150682,170.06003716608757L219.17808219178076,169.5344301312216L220.20547945205476,169.5344301312216L222.26027397260268,169.00881241552634L223.63013698630132,169.00881241552634L224.31506849315065,168.48318401842334L226.02739726027394,168.48318401842334L226.02739726027394,167.9575449392978L226.3698630136986,167.9575449392978L228.42465753424656,167.43189517757492L229.4520547945205,167.43189517757492L230.1369863013698,166.90623473265805L231.8493150684931,166.90623473265805L232.19178082191775,166.90623473265805L232.87671232876707,166.90623473265805L232.87671232876707,166.90623473265805L234.24657534246566,166.90623473265805L236.64383561643828,166.90623473265805L239.0410958904109,166.90623473265805L241.4383561643835,166.90623473265805L244.86301369863008,167.43189517757492L248.972602739726,167.9575449392978L249.31506849315065,167.9575449392978L251.36986301369856,168.48318401842334L254.10958904109583,169.00881241552634L256.16438356164383,169.5344301312216L256.50684931506845,169.5344301312216L257.5342465753424,170.06003716608757L258.2191780821918,170.58563352073543L259.2465753424657,170.58563352073543L259.93150684931504,171.11121919573634L261.30136986301363,171.11121919573634L262.3287671232876,171.11121919573634L262.3287671232876,171.11121919573634L263.0136986301369,171.11121919573634L265.4109589041095,171.63679419171604L265.7534246575342,172.16235850924204L268.8356164383561,172.68791214891098L271.23287671232873,172.68791214891098L271.917808219178,172.68791214891098L273.2876712328766,172.68791214891098L273.6301369863013,172.68791214891098L273.97260273972597,172.68791214891098L274.6575342465753,172.68791214891098L277.05479452054794,172.68791214891098L278.08219178082186,172.16235850924204L278.42465753424653,172.16235850924204L280.4794520547945,172.16235850924204L282.19178082191775,172.68791214891098L282.8767123287671,172.68791214891098L282.8767123287671,172.68791214891098L284.2465753424657,173.21345511133404L285.61643835616434,173.21345511133404L285.95890410958896,173.73898739708966L286.30136986301363,173.73898739708966L286.6438356164383,173.73898739708966L286.6438356164383,173.73898739708966L286.986301369863,173.73898739708966L289.7260273972602,174.79001994098508L290.7534246575342,175.3155202003145L292.46575342465746,175.84100978534843L293.1506849315068,176.36648869668352L293.4931506849315,176.36648869668352L293.8356164383561,176.89195693493457L293.8356164383561,176.89195693493457L294.5205479452054,176.89195693493457L295.20547945205476,177.41741450067275L296.57534246575335,177.9428613944874L297.945205479452,178.468297616997L298.2876712328767,178.99372316877634L299.31506849315065,179.51913805041477L299.31506849315065,179.51913805041477L299.31506849315065,179.51913805041477L299.31506849315065,179.51913805041477L299.99999999999994,180.04454226252346L302.73972602739724,181.62069088753196L305.1369863013698,183.1967435080296L305.4794520547945,183.7220730499721L305.82191780821915,184.24739192711786L306.50684931506845,184.24739192711786L306.84931506849307,184.77270014005626L307.5342465753424,184.77270014005626L307.8767123287671,185.29799768939847L308.904109589041,185.82328457570475L310.61643835616434,186.34856079961173L310.958904109589,186.87382636167968L311.30136986301363,187.3990812625052L311.986301369863,187.9243255026995L313.69863013698625,188.9747820035118L314.7260273972602,189.49999426533032L315.4109589041095,190.0251958688641L316.0958904109589,190.55038681472797L317.12328767123284,191.075567103504L317.80821917808214,191.60073673577062L318.4931506849315,191.60073673577062L319.8630136986301,192.1258957121354L321.23287671232873,192.6510440332022L321.917808219178,193.17618169955313L323.97260273972597,193.70130871176298L325.3424657534246,194.22642507044657L326.7123287671232,194.7515307761969L328.7671232876712,195.27662582958146L329.7945205479452,195.27662582958146L332.19178082191775,195.80171023121875L333.904109589041,195.80171023121875L335.27397260273966,195.80171023121875L336.6438356164383,195.80171023121875L337.6712328767123,195.80171023121875L337.6712328767123,196.32678398169446L337.32876712328766,198.95199298727312L336.986301369863,200.00200205207875L336.986301369863,201.5769358025318L339.04109589041093,202.1018924292366L339.3835616438356,202.62683841189937L340.4109589041095,202.62683841189937L341.0958904109589,202.62683841189937L341.78082191780817,203.1517737510694L342.46575342465746,203.1517737510694L343.4931506849315,202.62683841189937L344.1780821917808,202.62683841189937L344.1780821917808,203.1517737510694L344.5205479452054,203.1517737510694L344.5205479452054,203.6766984473761L344.1780821917808,203.6766984473761L343.8356164383561,204.20161250138335L343.4931506849315,204.20161250138335L343.1506849315068,204.72651591369868L342.80821917808214,204.72651591369868L342.12328767123284,204.72651591369868L341.43835616438355,204.20161250138335L341.0958904109589,204.20161250138335L338.01369863013696,205.25140868491508L337.32876712328766,206.30116230637577L336.6438356164383,207.87571294505324L335.958904109589,210.49975126621575L335.958904109589,211.02452702425944L336.30136986301363,211.54929214830918L336.6438356164383,212.07404663893612L336.986301369863,212.07404663893612L337.6712328767123,210.49975126621575L338.69863013698625,208.92536018205647L339.3835616438356,209.45016784568725L341.0958904109589,209.45016784568725L342.12328767123284,209.45016784568725L342.80821917808214,209.45016784568725L343.1506849315068,209.45016784568725L343.4931506849315,208.92536018205647L343.8356164383561,208.40054188203067L344.5205479452054,207.87571294505324L345.20547945205476,207.87571294505324L345.20547945205476,207.87571294505324L346.23287671232873,204.72651591369868L345.89041095890406,202.1018924292366L345.89041095890406,200.5269906145295L346.23287671232873,199.4770028431849L346.917808219178,198.95199298727312L344.8630136986301,199.4770028431849L344.1780821917808,199.4770028431849L344.1780821917808,199.4770028431849L344.1780821917808,200.00200205207875L344.1780821917808,200.5269906145295L344.5205479452054,201.05196853115194L344.5205479452054,201.05196853115194L344.5205479452054,201.05196853115194L344.5205479452054,201.05196853115194L343.8356164383561,201.05196853115194L344.1780821917808,200.00200205207875L344.1780821917808,199.4770028431849L344.1780821917808,198.95199298727312L343.8356164383561,198.42697248375407L343.4931506849315,197.90194133202021L343.4931506849315,197.90194133202021L343.1506849315068,197.90194133202021L342.80821917808214,197.90194133202021L342.46575342465746,197.90194133202021L342.46575342465746,197.90194133202021L342.46575342465746,198.42697248375407L342.46575342465746,198.42697248375407L342.46575342465746,198.42697248375407L342.46575342465746,197.90194133202021L342.46575342465746,197.90194133202021L343.1506849315068,197.90194133202021L343.4931506849315,197.90194133202021L343.4931506849315,197.90194133202021L343.8356164383561,198.42697248375407L344.1780821917808,198.42697248375407L344.8630136986301,198.42697248375407L345.89041095890406,198.95199298727312L346.23287671232873,198.95199298727312L346.917808219178,198.42697248375407L347.6027397260274,198.42697248375407L347.945205479452,198.42697248375407L348.63013698630135,198.42697248375407L351.3698630136986,198.42697248375407L352.7397260273972,198.42697248375407L353.42465753424653,198.42697248375407L353.7671232876712,198.42697248375407L354.7945205479452,198.42697248375407L355.4794520547945,198.42697248375407L358.5616438356164,198.42697248375407L361.30136986301363,198.42697248375407L364.04109589041093,198.42697248375407L364.7260273972602,197.90194133202021L366.0958904109589,197.90194133202021L367.46575342465746,197.90194133202021L368.8356164383561,197.90194133202021L371.5753424657534,197.37689953150402L372.2602739726027,196.8518470815834L372.6027397260274,196.8518470815834L373.97260273972597,196.8518470815834L374.31506849315065,196.32678398169446L374.6575342465753,196.32678398169446L374.6575342465753,196.32678398169446L375.3424657534246,196.32678398169446L377.39726027397256,195.80171023121875L378.08219178082186,195.27662582958146L379.4520547945205,195.27662582958146L382.5342465753424,194.22642507044657L385.2739726027397,193.17618169955313L387.32876712328766,192.6510440332022L389.04109589041093,192.1258957121354L390.0684931506849,191.60073673577062L390.7534246575342,192.1258957121354L391.0958904109589,192.1258957121354L391.43835616438355,192.1258957121354L391.78082191780817,192.6510440332022L391.78082191780817,192.6510440332022L391.78082191780817,192.6510440332022L391.78082191780817,192.6510440332022L391.43835616438355,192.6510440332022L390.0684931506849,192.1258957121354L389.04109589041093,192.1258957121354L388.3561643835616,192.1258957121354L387.6712328767123,192.6510440332022L386.6438356164383,193.17618169955313L386.30136986301363,193.70130871176298L386.30136986301363,194.22642507044657L385.61643835616434,195.27662582958146L384.2465753424657,197.90194133202021L383.90410958904107,197.90194133202021L383.90410958904107,198.42697248375407L383.90410958904107,198.42697248375407L384.2465753424657,198.42697248375407L385.61643835616434,197.37689953150402L386.6438356164383,196.32678398169446L386.6438356164383,195.80171023121875L386.986301369863,194.22642507044657L386.986301369863,194.22642507044657L387.32876712328766,193.70130871176298L388.3561643835616,193.17618169955313L390.0684931506849,193.70130871176298L391.43835616438355,193.70130871176298L391.43835616438355,193.70130871176298L391.78082191780817,193.70130871176298L391.78082191780817,193.70130871176298L392.12328767123284,193.17618169955313L392.80821917808214,192.1258957121354L392.80821917808214,191.60073673577062L393.1506849315068,191.075567103504L393.1506849315068,190.55038681472797L394.1780821917808,189.49999426533032L395.20547945205476,188.9747820035118L396.917808219178,187.9243255026995L397.945205479452,187.3990812625052L398.63013698630135,187.3990812625052L399.31506849315065,187.3990812625052L399.6575342465753,187.3990812625052L399.99999999999994,187.3990812625052L400.3424657534246,186.87382636167968L402.73972602739724,186.34856079961173L403.42465753424653,185.82328457570475L403.7671232876712,185.82328457570475L405.4794520547945,184.77270014005626L407.5342465753424,183.7220730499721L407.8767123287671,183.7220730499721L408.5616438356164,183.1967435080296L409.2465753424657,182.67140330070833L411.986301369863,181.62069088753196L414.3835616438356,181.09531868048362L414.7260273972602,181.09531868048362L415.7534246575342,180.5699358056845L416.78082191780817,180.04454226252346L417.4657534246575,179.51913805041477L418.1506849315068,179.51913805041477L418.8356164383561,178.99372316877634L419.8630136986301,178.99372316877634L422.2602739726027,177.41741450067275L423.63013698630135,176.36648869668352L425.3424657534246,175.3155202003145L427.0547945205479,174.26450900677082L428.08219178082186,173.21345511133404L430.4794520547945,171.63679419171604L430.82191780821915,171.11121919573634L431.50684931506845,170.58563352073543L432.8767123287671,169.5344301312216L432.8767123287671,169.5344301312216L433.5616438356164,168.48318401842334L433.5616438356164,168.48318401842334L434.58904109589037,167.9575449392978L435.61643835616434,167.43189517757492L436.3013698630137,166.90623473265805L437.32876712328766,166.38056360393603L437.6712328767123,165.85488179082677L439.3835616438356,164.27777223926023L440.4109589041096,163.22631243870273L441.0958904109589,162.70056650678453L441.43835616438355,162.1748098863136L442.12328767123284,161.64904257671515L442.80821917808214,160.59747588767277L443.8356164383561,159.54586643492803L445.20547945205476,158.49421421371153L445.89041095890406,157.44251921925024L447.2602739726027,155.864896517327L448.2876712328767,156.91665568056487L449.31506849315065,157.44251921925024L451.3698630136986,159.02004567068434L451.3698630136986,159.02004567068434L451.71232876712327,159.02004567068434L451.3698630136986,157.96837206343844L449.6575342465753,156.39078144679297L449.6575342465753,156.39078144679297L449.31506849315065,156.91665568056487L448.97260273972597,156.91665568056487L448.63013698630135,156.91665568056487L448.2876712328767,156.39078144679297L448.2876712328767,155.864896517327L447.945205479452,155.864896517327L448.2876712328767,155.864896517327L449.6575342465753,153.76124983064437L451.3698630136986,152.1834024817399L452.0547945205479,150.60545882873703L453.7671232876712,148.50138412392698L455.82191780821915,146.92321569885098L457.8767123287671,144.29272085420962L458.2191780821918,143.7665897594852L459.58904109589037,142.7142954394876L460.2739726027397,141.66195827476622L461.6438356164383,141.13577362413344L461.6438356164383,141.13577362413344L461.986301369863,140.60957826054437L462.6712328767123,140.60957826054437L463.01369863013696,140.08337218337329L464.04109589041093,139.55715539204175L464.3835616438356,138.5046896645108L465.0684931506849,137.97844072711086L465.7534246575342,137.4521810731676L467.12328767123284,136.92591070208437L467.4657534246575,136.39962961323545L467.4657534246575,136.39962961323545L467.80821917808214,136.39962961323545L468.4931506849315,136.39962961323545L470.54794520547944,135.34703527993406L473.2876712328767,134.82072203427742L473.63013698630135,134.82072203427742L474.6575342465753,134.29439806848677L475.6849315068493,133.76806338198003L476.3698630136986,133.2417179741351L477.73972602739724,133.2417179741351L479.4520547945205,132.71536184436627L481.16438356164383,132.18899499208783L481.8493150684931,132.18899499208783L482.8767123287671,131.6626174166995L484.93150684931504,130.60983009414485L485.61643835616434,130.60983009414485L486.30136986301363,130.08342034581074L487.6712328767123,129.0305686720094L490.4109589041096,127.97767409141306L492.80821917808214,126.39825175979422L494.1780821917808,125.87175619067784L495.54794520547944,125.34524989126294L496.917808219178,124.81873286097834L498.2876712328767,124.29220509919469L501.3698630136986,123.7656666053299L503.42465753424653,123.7656666053299L504.1095890410959,123.7656666053299L507.19178082191775,123.7656666053299L512.3287671232877,123.7656666053299L516.4383561643835,123.23911737880553L520.2054794520548,123.23911737880553L523.6301369863013,122.71255741898494L523.972602739726,122.71255741898494L523.972602739726,132.18899499208783L523.972602739726,132.18899499208783L523.972602739726,133.2417179741351L523.972602739726,133.2417179741351L524.3150684931506,133.76806338198003L525.6849315068492,135.87333780604968L526.3698630136986,137.97844072711086L526.7123287671233,140.08337218337329L527.054794520548,142.1881322130248L527.7397260273972,143.24044795478767L528.0821917808219,144.29272085420962L528.0821917808219,145.34495091607096L528.0821917808219,145.34495091607096L528.0821917808219,145.87104988440478L527.054794520548,149.0274188555668L527.054794520548,149.0274188555668L526.7123287671233,150.0794562073752L526.7123287671233,150.0794562073752L525.6849315068492,153.23531141380954L525.6849315068492,153.76124983064437L525.6849315068492,153.76124983064437L525.6849315068492,153.76124983064437L525.6849315068492,154.28717754884565L526.7123287671233,157.44251921925024L527.054794520548,159.02004567068434L527.3972602739726,160.07167650706833L527.7397260273972,160.59747588767277L527.7397260273972,160.59747588767277L528.7671232876712,162.70056650678453L529.4520547945206,163.75204768265758L530.1369863013698,164.80348610908186L531.8493150684931,167.43189517757492L533.2191780821918,169.5344301312216L533.2191780821918,171.11121919573634L532.1917808219177,172.16235850924204L531.1643835616438,173.73898739708966L530.8219178082192,174.26450900677082L530.4794520547945,175.3155202003145L529.7945205479452,176.89195693493457L529.4520547945206,177.9428613944874L529.4520547945206,178.99372316877634L529.4520547945206,178.99372316877634L528.0821917808219,180.5699358056845L527.3972602739726,181.09531868048362L526.7123287671233,181.62069088753196L525.6849315068492,182.14605242740072L524.6575342465753,183.1967435080296L524.3150684931506,183.7220730499721L524.3150684931506,183.7220730499721L527.054794520548,184.24739192711786L528.4246575342465,184.77270014005626L529.1095890410959,184.77270014005626L529.4520547945206,184.77270014005626L530.4794520547945,185.29799768939847L530.4794520547945,186.34856079961173L531.5068493150685,189.49999426533032L531.8493150684931,190.55038681472797L532.8767123287671,192.6510440332022L532.8767123287671,192.6510440332022L532.8767123287671,193.70130871176298L532.1917808219177,194.22642507044657L531.8493150684931,194.7515307761969L529.7945205479452,196.8518470815834L528.7671232876712,197.37689953150402L528.0821917808219,198.42697248375407L528.0821917808219,198.95199298727312L528.0821917808219,200.00200205207875L528.0821917808219,200.00200205207875L528.4246575342465,200.5269906145295L530.4794520547945,201.5769358025318L532.8767123287671,202.62683841189937L534.2465753424657,201.5769358025318L534.5890410958904,200.00200205207875L534.5890410958904,199.4770028431849L534.931506849315,198.95199298727312L534.931506849315,198.95199298727312L536.986301369863,197.90194133202021L538.3561643835617,195.80171023121875L539.0410958904109,195.27662582958146L539.3835616438356,194.7515307761969L540.0684931506848,193.70130871176298L542.1232876712329,193.17618169955313L544.5205479452054,193.17618169955313L545.5479452054794,193.17618169955313L547.2602739726027,193.70130871176298L547.6027397260274,193.70130871176298L547.6027397260274,193.70130871176298L550.3424657534247,195.80171023121875L552.054794520548,196.8518470815834L553.4246575342465,198.42697248375407L553.7671232876712,198.42697248375407L553.7671232876712,198.42697248375407L553.0821917808219,199.4770028431849L552.7397260273972,200.00200205207875L552.7397260273972,201.05196853115194L552.7397260273972,201.5769358025318L552.7397260273972,202.62683841189937L552.7397260273972,203.1517737510694L553.0821917808219,204.20161250138335L553.4246575342465,205.25140868491508L553.4246575342465,207.3508733705021L553.4246575342465,209.45016784568725L553.4246575342465,209.97496487355238L553.0821917808219,209.97496487355238L552.7397260273972,209.97496487355238L550.3424657534247,210.49975126621575L549.3150684931506,211.02452702425944L547.6027397260274,211.54929214830918L545.8904109589041,211.54929214830918L545.2054794520548,211.54929214830918L544.8630136986301,212.07404663893612L544.1780821917808,212.59879049671508L542.4657534246575,213.64824631617012L540.4109589041095,215.22235031385935L540.0684931506848,215.22235031385935L539.7260273972603,215.22235031385935L538.6986301369863,215.74703038706502L538.013698630137,215.74703038706502L535.958904109589,215.74703038706502L534.5890410958904,215.74703038706502L533.9041095890411,215.74703038706502L533.9041095890411,216.2716998315591L532.8767123287671,216.2716998315591L531.8493150684931,216.2716998315591L531.8493150684931,216.2716998315591L531.8493150684931,216.79635864796364L531.8493150684931,217.32100683684985L532.1917808219177,218.37027133441734L532.1917808219177,218.37027133441734L533.5616438356165,219.94408838916206L534.931506849315,222.04236239591046L536.986301369863,225.1894547693919L536.986301369863,225.71393299825286L537.3287671232877,226.23840060964358L538.013698630137,227.28730398230982L538.013698630137,227.28730398230982L538.6986301369863,227.8117397447786L539.3835616438356,228.33616489210544L541.4383561643835,229.38498334375618L542.8082191780821,229.9093766492333L544.8630136986301,232.006843749361L545.5479452054794,233.0555136345938L546.5753424657534,234.10414108286932L547.945205479452,235.15272609892054L548.6301369863013,235.15272609892054L550,234.6284388946333L551.7123287671233,234.6284388946333L552.3972602739726,234.6284388946333L553.0821917808219,234.6284388946333L553.4246575342465,235.15272609892054L553.4246575342465,235.15272609892054L553.7671232876712,235.67700269632041L554.1095890410959,235.15272609892054L554.7945205479452,235.15272609892054L554.7945205479452,235.15272609892054L555.1369863013699,235.15272609892054L555.1369863013699,235.15272609892054L555.1369863013699,235.15272609892054L555.4794520547945,237.24976885316937L555.1369863013699,237.24976885316937L556.1643835616438,237.24976885316937L556.8493150684931,237.7740030289533L557.1917808219177,237.7740030289533L557.5342465753424,238.2982266008039L557.5342465753424,238.82243956929233L557.5342465753424,238.82243956929233L557.1917808219177,239.34664193503704L556.5068493150684,240.3950148605909L556.1643835616438,242.49163350448725L555.8219178082192,243.53987923225577L555.4794520547945,246.16030810634766L555.8219178082192,246.6843620952386L555.8219178082192,247.20840549020795L555.8219178082192,248.256460500681L555.1369863013699,248.78047211737066L556.1643835616438,248.78047211737066L555.8219178082192,249.8284635765849L555.1369863013699,250.8764126741662L555.4794520547945,252.97218380324557L555.8219178082192,253.4961001168449L556.1643835616438,254.54390098574368L556.5068493150684,254.54390098574368L556.5068493150684,255.06778554222183L556.5068493150684,255.06778554222183L556.8493150684931,256.11552290215695L556.8493150684931,256.63937570680355L556.5068493150684,259.258481000179L556.1643835616438,260.8298172134855L556.1643835616438,261.87732179766317L556.1643835616438,262.40105822409896L556.1643835616438,263.4484993486294L556.1643835616438,264.4958981726086L555.8219178082192,265.0195817233398L554.4520547945206,267.6378408880337L554.1095890410959,267.6378408880337L554.1095890410959,267.6378408880337L554.4520547945206,267.6378408880337L554.7945205479452,268.1614610072829L555.1369863013699,268.1614610072829L555.8219178082192,268.6850705566576L555.8219178082192,268.6850705566576L557.1917808219177,269.73225794818063L558.5616438356165,270.25583579148224L558.9041095890411,270.25583579148224L559.931506849315,269.73225794818063L560.6164383561644,269.73225794818063L561.3013698630136,269.73225794818063L561.6438356164383,270.25583579148224L561.986301369863,270.77940306727396L563.013698630137,271.30295977613787L564.3835616438356,271.30295977613787L565.7534246575342,270.77940306727396L566.7808219178082,270.77940306727396L567.4657534246575,270.77940306727396L568.4931506849315,271.30295977613787L568.4931506849315,271.8265059186342L568.4931506849315,272.3500414953887L568.4931506849315,273.39708095394235L569.1780821917807,273.39708095394235L570.5479452054794,273.9205848369129L570.5479452054794,273.9205848369129L570.5479452054794,274.44407815648447L568.8356164383562,276.01449474052424L568.4931506849315,279.15504277540094L567.8082191780821,279.67843049299336L564.7260273972603,280.725174257841L564.0410958904109,280.725174257841L561.986301369863,280.725174257841L562.3287671232877,281.77187579947713L562.6712328767123,284.3884449576617L562.3287671232877,284.9117271318173L562.3287671232877,285.43499875486305L561.6438356164383,288.5744069522261L560.2739726027397,290.14396865807794L559.931506849315,291.7134354564114L559.931506849315,292.7596939366995L559.931506849315,293.8059102475818L559.2465753424657,295.37515565642025L559.2465753424657,295.37515565642025L559.2465753424657,296.4212665641753L559.2465753424657,297.46733531885184L561.986301369863,296.94430621034917L562.6712328767123,296.94430621034917L562.6712328767123,297.46733531885184L563.013698630137,297.46733531885184L562.3287671232877,299.03635942407345L561.3013698630136,300.08232281650635L560.6164383561644,300.08232281650635L559.931506849315,300.60528871115093L558.5616438356165,300.60528871115093L558.2191780821918,300.60528871115093L558.5616438356165,301.1282440722098L558.9041095890411,302.6970469596308L560.2739726027397,302.6970469596308L560.9589041095891,303.2199601921275L562.6712328767123,303.2199601921275L563.3561643835616,302.6970469596308L564.3835616438356,302.1741231958622L564.7260273972603,302.1741231958622L564.7260273972603,302.6970469596308L565.0684931506848,303.2199601921275L565.4109589041095,304.2657550656877L565.7534246575342,305.8343684061074L565.4109589041095,308.97131085312503L565.4109589041095,309.4940977559745L565.4109589041095,310.0168741351263L565.0684931506848,309.4940977559745L564.3835616438356,308.97131085312503L563.013698630137,307.9257054740701L562.3287671232877,307.9257054740701L561.986301369863,307.9257054740701L558.5616438356165,307.9257054740701L557.1917808219177,307.4028869966787L555.8219178082192,308.44851342601396L554.1095890410959,310.0168741351263L552.054794520548,312.10787442660876L552.054794520548,312.6305981961086L552.054794520548,313.15331144542506L552.054794520548,313.15331144542506L552.7397260273972,316.28937005005355L552.7397260273972,316.8120096743769L552.3972602739726,317.334638783188L550.6849315068494,318.37986545655804L548.6301369863013,319.4250500748167L548.2876712328766,319.9476266147394L547.945205479452,320.99274815906756L548.2876712328766,320.99274815906756L548.972602739726,321.5152931646444L549.3150684931506,321.5152931646444L549.3150684931506,322.0378276599222L550.3424657534247,320.99274815906756L551.7123287671233,322.0378276599222L552.7397260273972,323.60536808989855L552.7397260273972,325.1728139482584L552.7397260273972,326.7401652507033L552.7397260273972,326.7401652507033L553.0821917808219,327.7850135956942L553.4246575342465,328.3074220129529L553.7671232876712,328.82981992746863L554.1095890410959,329.35220733984534L554.7945205479452,329.35220733984534L556.1643835616438,330.3969506605281L558.5616438356165,330.3969506605281L560.2739726027397,330.9193065699692L561.986301369863,330.9193065699692L562.6712328767123,330.9193065699692L564.0410958904109,331.44165197961047L566.0958904109589,330.9193065699692L568.1506849315068,331.44165197961047L568.8356164383562,331.96398689001217L569.1780821917807,332.4863113017491L569.5205479452054,333.0086252154142L569.5205479452054,333.0086252154142L569.8630136986301,334.0532215508756L570.2054794520548,335.09777590100566L571.917808219178,335.62003733303936L572.6027397260274,335.09777590100566L573.6301369863013,335.09777590100566L573.6301369863013,335.09777590100566L574.3150684931506,336.6645287139072L574.3150684931506,336.6645287139072L574.3150684931506,337.7089781210743L575,338.2311870859812L575,338.2311870859812L575,338.2311870859812L575,340.31991803455094L573.972602739726,341.88635610567144L572.945205479452,342.4084811533685L571.917808219178,343.4526997882167L570.8904109589041,345.5410112320096L570.8904109589041,345.5410112320096L570.8904109589041,346.58510405023844L570.5479452054794,347.6291549388916L570.2054794520548,350.2390987489671L569.8630136986301,353.37068554227153L569.5205479452054,354.93633752047754L568.8356164383562,355.45820056619414L568.4931506849315,355.45820056619414L568.4931506849315,355.98005313935937L567.8082191780821,355.98005313935937L567.8082191780821,357.0237268703859L567.8082191780821,357.0237268703859L568.4931506849315,358.58915893732774L568.4931506849315,358.58915893732774L568.8356164383562,358.58915893732774L569.8630136986301,359.11094868740474L570.5479452054794,359.11094868740474L570.2054794520548,362.7631838526031L570.2054794520548,363.2848898709708L568.8356164383562,365.8932630164527L567.8082191780821,367.4581613675291L566.7808219178082,369.5445460757619L565.0684931506848,371.6307634732948L563.6986301369863,374.2382999959227L563.6986301369863,374.2382999959227L561.3013698630136,373.19531674606696L561.3013698630136,373.19531674606696L559.2465753424657,372.6738094421162L559.5890410958904,372.6738094421162L559.5890410958904,371.6307634732948L559.931506849315,370.58767568605253L560.6164383561644,369.0229655855219L561.3013698630136,367.4581613675291L558.9041095890411,366.41490626034283L555.8219178082192,365.8932630164527L553.7671232876712,364.8499451452044L551.7123287671233,362.7631838526031L551.3698630136986,362.2414673698004L551.0273972602739,362.7631838526031L550.6849315068494,364.328270516693L550.3424657534247,365.3716093116127L549.6575342465753,367.4581613675291L548.6301369863013,369.5445460757619L546.5753424657534,371.6307634732948L546.2328767123288,372.6738094421162L545.5479452054794,373.19531674606696L545.2054794520548,373.71681359714785L544.5205479452054,374.2382999959227L543.1506849315068,375.28124143893L540.4109589041095,375.80269648428657L536.986301369863,377.88841217169465L536.3013698630136,377.88841217169465L535.958904109589,377.3669989228001L535.2739726027397,376.845575225645L532.1917808219177,376.32414107967634L529.7945205479452,374.2382999959227L527.054794520548,372.6738094421162L526.0273972602739,372.6738094421162L526.0273972602739,373.19531674606696L522.6027397260274,374.2382999959227L521.5753424657534,374.7597759429955L519.8630136986301,374.7597759429955L519.5205479452054,374.7597759429955L519.1780821917807,374.7597759429955L518.8356164383562,374.7597759429955L517.8082191780821,372.15229168472433L517.8082191780821,369.0229655855219L518.1506849315068,367.4581613675291L517.4657534246575,366.41490626034283L517.1232876712329,365.8932630164527L517.1232876712329,365.8932630164527L515.7534246575342,366.41490626034283L514.7260273972603,366.936539043847L514.0410958904109,366.936539043847L513.3561643835617,366.41490626034283L512.6712328767123,366.41490626034283L511.6438356164383,366.936539043847L510.6164383561644,366.936539043847L509.93150684931504,367.4581613675291L506.50684931506845,369.0229655855219L506.16438356164383,369.5445460757619L505.82191780821915,370.06611610908294L505.82191780821915,370.58767568605253L505.4794520547945,371.10922480726003L504.4520547945205,373.71681359714785L504.4520547945205,374.7597759429955L504.7945205479452,375.28124143893L504.7945205479452,376.845575225645L505.1369863013698,376.845575225645L505.1369863013698,377.3669989228001L504.1095890410959,378.40981497292887L502.05479452054794,379.4525892346792L500.6849315068493,379.4525892346792L499.6575342465753,379.4525892346792L498.97260273972597,378.9312073270703L498.97260273972597,378.40981497292887L498.2876712328767,377.3669989228001L497.94520547945206,376.845575225645L497.94520547945206,376.845575225645L496.917808219178,376.32414107967634L496.5753424657534,376.32414107967634L495.89041095890406,376.32414107967634L495.20547945205476,376.32414107967634L494.8630136986301,376.32414107967634L494.5205479452054,376.845575225645L493.83561643835617,376.845575225645L493.4931506849315,376.845575225645L492.80821917808214,377.3669989228001L491.43835616438355,377.88841217169465L490.7534246575342,377.88841217169465L488.01369863013696,378.40981497292887L486.30136986301363,378.9312073270703L486.6438356164383,378.9312073270703L485.958904109589,379.4525892346792L485.61643835616434,379.9739606963558L485.2739726027397,380.49532171267856L484.58904109589037,381.5380124115254L484.2465753424657,382.58066133584725L484.2465753424657,382.58066133584725L483.90410958904107,384.144556405201L483.90410958904107,384.144556405201L483.90410958904107,384.66583387938954L483.90410958904107,384.66583387938954L482.19178082191775,385.7083575078577L480.82191780821915,386.2296036632688L480.4794520547945,386.2296036632688L479.4520547945205,386.75083938025637L479.1095890410959,386.75083938025637L477.39726027397256,387.2720646593807L474.99999999999994,387.7932795012093L472.945205479452,385.1871009134193L472.945205479452,385.1871009134193L472.2602739726027,383.1019701339974L472.2602739726027,382.0593420952064L471.917808219178,379.9739606963558L471.917808219178,379.4525892346792L472.2602739726027,379.4525892346792L472.2602739726027,378.9312073270703L472.2602739726027,378.40981497292887L471.917808219178,377.88841217169465L471.23287671232873,376.845575225645L471.23287671232873,376.845575225645L470.89041095890406,376.32414107967634L470.54794520547944,375.80269648428657L470.20547945205476,375.28124143893L469.1780821917808,374.2382999959227L467.4657534246575,373.71681359714785L466.0958904109589,373.19531674606696L466.0958904109589,373.19531674606696L465.7534246575342,373.19531674606696L465.4109589041096,373.19531674606696L465.4109589041096,374.2382999959227L465.4109589041096,374.2382999959227L465.0684931506849,374.2382999959227L464.7260273972602,374.2382999959227L464.7260273972602,374.2382999959227L462.6712328767123,375.80269648428657L460.61643835616434,377.88841217169465L459.58904109589037,378.40981497292887L458.2191780821918,379.4525892346792L457.19178082191775,381.5380124115254L455.4794520547945,382.0593420952064L454.10958904109583,381.5380124115254L452.0547945205479,380.49532171267856L449.99999999999994,380.49532171267856L449.99999999999994,380.49532171267856L448.97260273972597,382.0593420952064L448.97260273972597,382.0593420952064L448.63013698630135,382.0593420952064L447.2602739726027,383.1019701339974L446.917808219178,383.1019701339974L446.5753424657534,383.62326849026067L446.23287671232873,384.144556405201L444.8630136986301,386.2296036632688L444.52054794520546,387.2720646593807L444.52054794520546,387.7932795012093L444.52054794520546,388.3144839063316L444.1780821917808,390.39919717132216L444.1780821917808,390.920349401571L444.1780821917808,391.44149119855865L443.8356164383561,392.48374349512596L443.4931506849315,393.00485399583704L443.1506849315068,393.5259540656116L442.4657534246575,394.5681229146321L442.12328767123284,395.08919169503133L442.12328767123284,395.08919169503133L442.12328767123284,395.61025004680414L442.12328767123284,396.13129797051806L442.12328767123284,398.2153853962591L441.43835616438355,399.2573665557429L439.7260273972602,400.2993060191111L439.3835616438356,400.8202601162011L439.04109589041093,400.8202601162011L438.01369863013696,400.8202601162011L437.32876712328766,401.3412037909875L436.3013698630137,401.86213704403417L435.61643835616434,401.86213704403417L433.90410958904107,402.38305987594504L432.19178082191775,402.38305987594504L431.1643835616438,402.38305987594504L429.7945205479452,402.9039722872694L428.08219178082186,403.94576585050527L426.3698630136986,404.4666470035736L425.6849315068493,404.98751773836557L425.3424657534246,404.98751773836557L424.6575342465753,405.50837805545234L422.945205479452,406.5500674388568L421.23287671232873,407.59171515836715L419.1780821917808,408.1125233956045L418.8356164383561,408.6333212185891L418.8356164383561,409.15410862790304L419.1780821917808,410.71640837959785L419.52054794520546,411.757889489596L419.8630136986301,413.8407267915172L420.20547945205476,414.8820829926517L419.8630136986301,414.8820829926517L419.52054794520546,414.36141009576386L418.8356164383561,412.79932895869933L417.80821917808214,412.79932895869933L415.4109589041096,412.79932895869933L413.69863013698625,412.79932895869933L411.986301369863,413.3200330793625L411.6438356164383,413.8407267915172L411.986301369863,414.36141009576386L411.986301369863,414.36141009576386L411.6438356164383,415.92339756670117L411.6438356164383,415.92339756670117L410.958904109589,416.96467051826767L410.61643835616434,417.48529138703816L410.27397260273966,418.0059018519278L409.93150684931504,418.5265019134895L409.58904109589037,418.5265019134895L406.8493150684931,420.608798137946L405.4794520547945,421.6498838451589L404.4520547945205,422.17041109952333L403.08219178082186,423.2114344126203L402.0547945205479,424.2524161353904L402.0547945205479,424.2524161353904L402.0547945205479,424.7728914018371L401.3698630136986,426.8546885147298L399.99999999999994,429.45670105490353L398.97260273972597,431.01778388603634L398.63013698630135,430.49743333207516L398.2876712328767,429.9770723885522L398.2876712328767,430.49743333207516L397.2602739726027,430.49743333207516L397.2602739726027,430.49743333207516L396.917808219178,431.01778388603634L396.5753424657534,431.01778388603634L396.5753424657534,431.01778388603634L395.54794520547944,430.49743333207516L394.52054794520546,429.45670105490353L393.1506849315068,429.45670105490353L392.12328767123284,429.45670105490353L388.69863013698625,429.9770723885522L386.30136986301363,431.01778388603634L385.61643835616434,431.5381240510178L385.2739726027397,431.01778388603634L384.93150684931504,430.49743333207516L384.93150684931504,430.49743333207516L383.5616438356164,431.01778388603634L382.19178082191775,431.01778388603634L381.16438356164383,429.45670105490353L380.4794520547945,428.93631933056895L380.1369863013698,428.41592721494817L379.4520547945205,427.37511180761066L379.4520547945205,427.37511180761066L379.10958904109583,427.89552470748094L378.7671232876712,428.41592721494817L379.7945205479452,429.45670105490353L380.1369863013698,431.5381240510178L380.1369863013698,431.5381240510178L379.10958904109583,432.5787732163626L377.39726027397256,433.6193808326607L376.0273972602739,434.1396690613583L375.6849315068493,433.6193808326607L375.3424657534246,433.6193808326607L373.63013698630135,433.6193808326607L373.2876712328767,433.6193808326607L372.945205479452,434.1396690613583L372.6027397260274,434.1396690613583L372.2602739726027,434.1396690613583L372.2602739726027,435.7004714364921L373.2876712328767,437.78139589921193L374.31506849315065,438.8217958391069L376.0273972602739,440.90247115887905L377.73972602739724,442.98298042919123L378.42465753424653,443.50308180582215L379.10958904109583,443.50308180582215L378.42465753424653,444.0231728072322L377.0547945205479,442.98298042919123L374.31506849315065,441.9427465479239L371.5753424657534,440.3823178975108L370.89041095890406,440.90247115887905L370.20547945205476,441.9427465479239L368.4931506849315,440.90247115887905L368.1506849315068,440.3823178975108L367.46575342465746,440.3823178975108L367.46575342465746,440.3823178975108L365.7534246575342,439.86215425746923L364.04109589041093,439.3419802381977L361.986301369863,437.78139589921193L361.6438356164383,436.2207181264748L361.986301369863,435.1802143626992L361.986301369863,434.6599469045068L361.30136986301363,434.1396690613583L360.2739726027397,433.09908221784644L358.90410958904107,432.05845382760526L358.5616438356164,432.05845382760526L357.8767123287671,432.05845382760526L356.1643835616438,432.05845382760526L354.7945205479452,432.05845382760526L353.42465753424653,430.49743333207516L352.7397260273972,429.45670105490353L352.39726027397256,428.41592721494817L352.0547945205479,427.89552470748094L352.0547945205479,428.41592721494817L350,429.9770723885522L349.31506849315065,430.49743333207516L348.2876712328767,431.01778388603634L347.2602739726027,430.49743333207516L345.54794520547944,429.45670105490353L345.20547945205476,429.45670105490353L344.8630136986301,429.45670105490353L344.5205479452054,429.45670105490353L344.1780821917808,429.9770723885522L343.8356164383561,429.9770723885522L343.4931506849315,429.9770723885522L343.4931506849315,429.45670105490353L343.1506849315068,429.45670105490353L343.1506849315068,428.93631933056895L341.78082191780817,427.89552470748094L339.3835616438356,426.8546885147298L339.3835616438356,426.3342548282817L339.04109589041093,426.8546885147298L336.30136986301363,426.3342548282817L335.61643835616434,426.3342548282817L335.27397260273966,426.3342548282817L334.93150684931504,426.8546885147298L334.58904109589037,426.8546885147298L334.2465753424657,426.8546885147298L333.2191780821917,426.3342548282817L332.8767123287671,425.8138107477098L329.7945205479452,424.7728914018371L327.39726027397256,424.2524161353904L325.6849315068493,424.7728914018371L325.3424657534246,424.7728914018371L325.3424657534246,424.7728914018371L325.3424657534246,424.7728914018371L324.99999999999994,425.2933562724247L324.31506849315065,424.7728914018371L324.31506849315065,424.7728914018371L322.945205479452,424.7728914018371L321.23287671232873,425.8138107477098L319.8630136986301,426.8546885147298L319.8630136986301,426.8546885147298L319.8630136986301,426.8546885147298L319.8630136986301,426.8546885147298L319.8630136986301,426.3342548282817L318.8356164383561,424.2524161353904L318.1506849315068,423.2114344126203L316.78082191780817,422.17041109952333L313.3561643835616,422.17041109952333L311.30136986301363,422.6909279551437L310.61643835616434,422.6909279551437L310.27397260273966,422.6909279551437L309.58904109589037,422.17041109952333L309.58904109589037,422.6909279551437L308.904109589041,424.2524161353904L308.2191780821917,426.3342548282817L307.5342465753424,427.89552470748094L307.5342465753424,427.89552470748094L307.19178082191775,427.89552470748094L307.5342465753424,428.41592721494817L308.904109589041,430.49743333207516L309.2465753424657,431.5381240510178L309.2465753424657,433.6193808326607L309.2465753424657,433.6193808326607L308.904109589041,434.1396690613583L308.904109589041,434.1396690613583L307.8767123287671,434.6599469045068L306.50684931506845,436.2207181264748L305.82191780821915,436.74095443320766L305.1369863013698,439.3419802381977L304.1095890410959,440.3823178975108L303.7671232876712,440.90247115887905L303.42465753424653,440.90247115887905L303.42465753424653,440.3823178975108L303.08219178082186,440.3823178975108L299.6575342465753,437.2611803572545L297.6027397260274,435.1802143626992L296.57534246575335,434.6599469045068L295.20547945205476,432.5787732163626L294.5205479452054,431.5381240510178L295.20547945205476,431.01778388603634L296.23287671232873,430.49743333207516L297.6027397260274,430.49743333207516L297.945205479452,430.49743333207516L298.6301369863013,430.49743333207516L298.97260273972597,429.9770723885522L299.31506849315065,429.9770723885522L299.31506849315065,429.45670105490353L299.6575342465753,428.93631933056895L299.6575342465753,428.41592721494817L299.31506849315065,428.41592721494817L299.31506849315065,427.89552470748094L299.31506849315065,427.89552470748094L298.97260273972597,427.37511180761066L298.6301369863013,426.8546885147298L297.945205479452,426.8546885147298L297.945205479452,426.8546885147298L297.6027397260274,426.8546885147298L297.2602739726027,426.8546885147298L296.917808219178,426.8546885147298L296.57534246575335,427.37511180761066L296.23287671232873,427.37511180761066L295.54794520547944,427.89552470748094L294.8630136986301,428.41592721494817L294.1780821917808,428.41592721494817L293.4931506849315,428.41592721494817L293.1506849315068,428.41592721494817L292.80821917808214,427.89552470748094L292.1232876712328,426.8546885147298L291.78082191780817,426.8546885147298L291.43835616438355,426.8546885147298L291.43835616438355,426.8546885147298L290.7534246575342,426.8546885147298L290.7534246575342,427.89552470748094L290.7534246575342,428.41592721494817L290.7534246575342,428.93631933056895L290.4109589041095,428.93631933056895L290.4109589041095,428.93631933056895L290.06849315068484,428.93631933056895L290.06849315068484,428.93631933056895L289.38356164383555,427.89552470748094L289.04109589041093,427.37511180761066L288.69863013698625,426.3342548282817L288.3561643835616,425.8138107477098L288.01369863013696,425.2933562724247L287.6712328767123,424.2524161353904L287.32876712328766,423.731930472517L286.986301369863,423.2114344126203L286.30136986301363,422.6909279551437L285.61643835616434,422.6909279551437L284.58904109589037,421.6498838451589L284.2465753424657,421.1293461914829L283.904109589041,420.608798137946L283.2191780821917,419.5676708289211L283.2191780821917,419.0470915722872L283.2191780821917,417.48529138703816L283.2191780821917,416.4440392450051L283.2191780821917,416.4440392450051L283.2191780821917,415.92339756670117L282.8767123287671,415.40274548278103L282.8767123287671,415.40274548278103L282.19178082191775,415.40274548278103L281.84931506849307,415.40274548278103L279.10958904109583,416.4440392450051L277.73972602739724,416.96467051826767L276.71232876712327,417.48529138703816L276.71232876712327,417.48529138703816L276.3698630136986,418.0059018519278L275.68493150684924,417.48529138703816L276.0273972602739,417.48529138703816L276.3698630136986,416.96467051826767L276.71232876712327,415.40274548278103L276.3698630136986,414.8820829926517L275,413.8407267915172L273.97260273972597,413.8407267915172L272.945205479452,413.8407267915172L271.23287671232873,414.36141009576386L269.5205479452054,415.40274548278103L268.1506849315068,415.92339756670117L266.0958904109589,415.92339756670117L265.4109589041095,415.92339756670117L264.04109589041093,415.40274548278103L264.04109589041093,415.40274548278103L263.69863013698625,415.40274548278103L263.3561643835616,415.40274548278103L263.3561643835616,415.40274548278103L263.0136986301369,415.40274548278103L261.6438356164383,416.4440392450051L261.6438356164383,416.96467051826767L261.30136986301363,416.96467051826767L260.27397260273966,419.5676708289211L259.93150684931504,420.608798137946L258.5616438356164,421.6498838451589L256.16438356164383,422.17041109952333L254.10958904109583,422.17041109952333L253.42465753424653,421.6498838451589L253.08219178082186,421.6498838451589L252.7397260273972,421.6498838451589L252.39726027397256,421.6498838451589L252.39726027397256,422.17041109952333L251.02739726027391,423.731930472517L251.36986301369856,424.2524161353904L252.05479452054792,424.7728914018371L252.39726027397256,425.2933562724247L252.7397260273972,425.2933562724247L253.08219178082186,425.8138107477098L253.08219178082186,426.8546885147298L251.7123287671232,427.89552470748094L251.36986301369856,427.89552470748094L250.34246575342462,428.41592721494817L248.972602739726,428.41592721494817L247.945205479452,428.41592721494817L247.60273972602735,428.41592721494817L247.60273972602735,428.41592721494817L247.60273972602735,427.89552470748094L247.26027397260268,427.37511180761066L246.23287671232873,426.8546885147298L244.86301369863008,426.3342548282817L243.15068493150682,426.3342548282817L242.8082191780821,426.3342548282817L242.12328767123282,426.3342548282817L242.12328767123282,426.3342548282817L241.4383561643835,426.3342548282817L240.7534246575342,426.3342548282817L240.06849315068484,426.3342548282817L239.7260273972602,426.3342548282817L238.01369863013693,427.37511180761066L237.32876712328763,427.37511180761066L235.6164383561643,427.37511180761066L233.904109589041,428.93631933056895L232.87671232876707,430.49743333207516L231.8493150684931,432.05845382760526L230.8219178082191,434.1396690613583L229.4520547945205,435.1802143626992L227.05479452054792,436.2207181264748L227.05479452054792,436.2207181264748L227.05479452054792,436.2207181264748L225.34246575342462,436.74095443320766L224.99999999999994,435.7004714364921L223.972602739726,433.6193808326607L223.28767123287668,432.5787732163626L222.60273972602738,433.09908221784644L221.57534246575338,433.09908221784644L219.52054794520546,433.6193808326607L216.7808219178082,434.1396690613583L215.41095890410955,434.1396690613583L214.72602739726022,434.6599469045068L214.04109589041093,435.1802143626992L211.6438356164383,436.74095443320766L209.931506849315,437.78139589921193L209.58904109589037,437.78139589921193L208.5616438356164,438.3016010596293L206.8493150684931,438.3016010596293L205.13698630136983,438.3016010596293L202.7397260273972,438.3016010596293L201.7123287671232,438.3016010596293L201.36986301369856,438.3016010596293L201.36986301369856,437.78139589921193L202.05479452054792,436.2207181264748L202.39726027397256,435.7004714364921L202.39726027397256,433.6193808326607L202.05479452054792,431.5381240510178L201.7123287671232,431.01778388603634L201.7123287671232,431.01778388603634L201.7123287671232,431.01778388603634L201.02739726027391,431.5381240510178L200.68493150684927,432.05845382760526L200.3424657534246,432.05845382760526L199.31506849315065,432.5787732163626L197.945205479452,432.5787732163626L196.91780821917803,431.5381240510178L196.23287671232873,431.01778388603634L194.5205479452054,431.01778388603634L192.12328767123282,430.49743333207516L191.09589041095884,430.49743333207516L189.7260273972602,430.49743333207516L189.0410958904109,431.01778388603634L188.01369863013693,431.01778388603634L187.32876712328758,429.9770723885522L186.98630136986293,427.89552470748094L185.2739726027397,427.89552470748094L184.2465753424657,428.41592721494817L183.5616438356164,429.45670105490353L181.50684931506848,431.5381240510178L181.16438356164377,431.5381240510178L180.82191780821913,432.5787732163626L180.47945205479448,432.5787732163626L180.47945205479448,433.09908221784644L181.84931506849313,435.1802143626992L183.5616438356164,436.74095443320766L184.93150684931504,438.3016010596293L185.958904109589,439.3419802381977L186.98630136986293,439.86215425746923L188.01369863013693,440.3823178975108L188.35616438356158,440.90247115887905L188.69863013698622,440.90247115887905L188.01369863013693,441.42261404216697L186.6438356164383,442.4628686767428L185.958904109589,442.98298042919123L185.958904109589,443.50308180582215L185.61643835616434,444.0231728072322L184.5890410958904,445.0633236866488L183.90410958904104,445.0633236866488L181.84931506849313,446.6234722058616L180.47945205479448,448.18352737890746L178.4246575342465,451.3033577482747L177.7397260273972,452.34321826543237L177.7397260273972,452.34321826543237L177.0547945205479,452.34321826543237L176.71232876712324,452.34321826543237L174.6575342465753,452.8631329754644L172.26027397260268,453.90293130130885L171.57534246575338,454.42281491826725L169.17808219178076,455.9824035920974L168.8356164383561,455.9824035920974L167.4657534246575,456.502245759606L164.04109589041093,457.54189901238715L162.3287671232876,458.06171009879836L160.61643835616434,458.58151082600307L158.904109589041,459.101301194547L156.5068493150684,459.101301194547L155.1369863013698,459.101301194547L154.79452054794513,459.101301194547L154.79452054794513,459.62108120503035L154.4520547945205,459.62108120503035L154.4520547945205,460.1408508580025L154.4520547945205,460.1408508580025L154.4520547945205,460.66061015403466L154.4520547945205,461.18035909370883L154.4520547945205,461.18035909370883L153.7671232876712,461.7000976775962L153.42465753424648,462.2198259062425L153.08219178082186,462.2198259062425L152.0547945205479,462.7395437802552L151.3698630136986,463.2592513001764L149.99999999999994,464.81831174119L149.99999999999994,465.3379778505114L149.99999999999994,466.3772790160292L149.99999999999994,466.3772790160292L149.99999999999994,466.89691407338614L149.3150684931506,467.93615314010094L149.3150684931506,468.4557571506375L148.28767123287668,470.01450709765777L146.91780821917803,471.57316392986104L146.91780821917803,471.57316392986104L146.23287671232868,472.0926955177456L145.89041095890406,472.61221676180867L145.54794520547938,472.61221676180867L145.54794520547938,473.1317276626396L145.20547945205476,473.1317276626396L144.5205479452054,473.1317276626396L143.8356164383561,473.6512282207914L142.80821917808214,474.69019831138576L141.78082191780817,475.72912703812835L141.78082191780817,476.24857589147723L141.4383561643835,476.7680144055885L141.09589041095887,476.7680144055885L140.7534246575342,476.7680144055885L140.41095890410952,476.7680144055885L139.72602739726022,476.7680144055885L139.3835616438356,476.7680144055885L138.69863013698625,476.7680144055885L138.01369863013696,476.7680144055885L136.98630136986299,476.7680144055885L136.3013698630137,477.2874425810187L134.93150684931504,477.2874425810187L134.58904109589037,477.2874425810187L134.2465753424657,477.2874425810187L134.2465753424657,477.2874425810187L134.58904109589037,476.7680144055885L135.27397260273966,475.72912703812835L135.61643835616434,474.69019831138576L135.95890410958896,473.1317276626396L136.3013698630137,473.1317276626396L136.6438356164383,472.61221676180867L137.3287671232876,472.0926955177456L138.35616438356158,471.57316392986104L139.72602739726022,471.05362199759475L140.41095890410952,470.5340697203901L140.7534246575342,470.5340697203901L141.09589041095887,469.49493412882657L141.4383561643835,467.93615314010094L141.4383561643835,467.93615314010094L141.09589041095887,467.41653878121724L140.7534246575342,467.41653878121724L140.7534246575342,466.89691407338614L140.41095890410952,466.89691407338614L140.41095890410952,466.89691407338614L140.0684931506849,467.41653878121724L138.01369863013696,469.49493412882657L136.3013698630137,470.5340697203901L134.2465753424657,471.05362199759475L133.5616438356164,471.05362199759475L131.16438356164377,471.05362199759475L128.76712328767115,471.57316392986104L126.36986301369859,472.61221676180867L124.65753424657532,474.69019831138576L123.97260273972597,475.2096678449452L123.6301369863013,475.2096678449452L120.89041095890406,475.2096678449452L119.86301369863008,475.2096678449452L119.52054794520541,475.2096678449452L119.17808219178079,474.69019831138576L119.17808219178079,474.17071843685335L118.83561643835611,472.0926955177456L117.46575342465746,471.05362199759475L115.7534246575342,469.49493412882657L113.69863013698625,468.9753508133472L111.64383561643825,468.9753508133472L108.56164383561634,467.93615314010094L105.8219178082191,466.89691407338614L104.10958904109583,465.85763360859346L101.02739726027391,463.77894846659547L100.34246575342462,463.77894846659547L100.34246575342462,463.77894846659547L100.34246575342462,463.2592513001764L99.99999999999994,462.2198259062425L99.31506849315065,461.18035909370883L98.6301369863013,460.66061015403466L96.57534246575341,458.06171009879836L95.2054794520547,458.58151082600307L94.17808219178079,459.101301194547L93.83561643835611,459.101301194547L92.80821917808208,459.62108120503035L91.43835616438349,459.62108120503035L91.09589041095887,459.62108120503035L90.7534246575342,460.1408508580025L89.72602739726017,462.7395437802552L89.38356164383555,462.7395437802552L89.38356164383555,463.77894846659547L89.72602739726017,464.81831174119L89.38356164383555,465.85763360859346L88.35616438356158,465.85763360859346L86.64383561643825,464.81831174119L84.58904109589037,463.77894846659547L84.24657534246575,463.77894846659547L83.90410958904101,463.77894846659547L82.87671232876704,463.77894846659547L82.87671232876704,463.77894846659547L82.53424657534242,463.77894846659547L82.19178082191775,463.77894846659547L81.84931506849313,464.298635280069L81.84931506849313,464.298635280069L81.50684931506845,464.298635280069L79.4520547945205,464.298635280069L77.39726027397262,464.298635280069L77.39726027397262,464.298635280069L77.05479452054789,464.298635280069L76.71232876712327,464.81831174119L76.71232876712327,464.81831174119L76.36986301369859,465.85763360859346L76.02739726027391,466.3772790160292L76.02739726027391,466.89691407338614L75.6849315068493,466.89691407338614L75.6849315068493,466.89691407338614L74.99999999999989,466.89691407338614L74.99999999999989,466.89691407338614L74.31506849315059,466.89691407338614L72.945205479452,465.85763360859346L71.57534246575335,464.81831174119L69.86301369863008,463.77894846659547L69.17808219178079,462.7395437802552L68.15068493150676,462.2198259062425L66.78082191780817,461.7000976775962L65.75342465753425,461.18035909370883L64.72602739726022,460.66061015403466L64.72602739726022,460.66061015403466L64.72602739726022,460.66061015403466L63.69863013698625,461.18035909370883L63.35616438356152,461.7000976775962L61.30136986301363,464.298635280069L59.931506849314985,465.85763360859346L59.589041095890366,466.3772790160292L59.589041095890366,465.85763360859346L59.24657534246569,465.85763360859346L59.24657534246569,465.3379778505114L58.21917808219172,465.3379778505114L55.47945205479448,464.298635280069L53.08219178082186,463.77894846659547L51.02739726027386,462.7395437802552L48.972602739725914,461.7000976775962L47.60273972602732,460.66061015403466L47.60273972602732,460.66061015403466L47.26027397260265,459.62108120503035L45.20547945205476,457.54189901238715L44.86301369863003,457.0220775661728L45.20547945205476,456.502245759606L46.23287671232862,455.4625510630831L46.57534246575335,455.4625510630831L46.91780821917803,455.4625510630831L47.945205479452,455.4625510630831L48.28767123287662,453.90293130130885L48.28767123287662,452.34321826543237L47.26027397260265,450.78341193999586L45.54794520547932,448.18352737890746L44.86301369863003,446.6234722058616L44.52054794520541,446.1034330720249L44.52054794520541,446.1034330720249L41.43835616438349,444.54325343398887L41.095890410958816,444.54325343398887L40.7534246575342,444.54325343398887L40.7534246575342,444.54325343398887L40.7534246575342,444.0231728072322L39.38356164383549,442.98298042919123L36.986301369862986,442.98298042919123L36.986301369862986,442.98298042919123L36.64383561643831,442.98298042919123L36.30136986301363,442.98298042919123L36.64383561643831,442.98298042919123L36.30136986301363,443.50308180582215L35.958904109589014,443.50308180582215L35.958904109589014,443.50308180582215L35.61643835616428,443.50308180582215L35.27397260273972,442.98298042919123L33.21917808219172,442.4628686767428L30.821917808219098,441.42261404216697L27.397260273972563,440.3823178975108L26.36986301369859,440.3823178975108L25.684931506849296,439.3419802381977L25.342465753424563,438.8217958391069L24.999999999999943,438.3016010596293L24.999999999999943,438.3016010596293L24.999999999999943,437.78139589921193L25.342465753424563,436.2207181264748L25.342465753424563,435.7004714364921L25.342465753424563,435.1802143626992L25.684931506849296,434.6599469045068L26.027397260273915,434.1396690613583L26.027397260273915,434.1396690613583L26.027397260273915,434.1396690613583L26.027397260273915,434.1396690613583L26.027397260273915,433.6193808326607L26.027397260273915,433.6193808326607L26.36986301369859,433.6193808326607L26.71232876712321,433.6193808326607L27.397260273972563,434.1396690613583L28.08219178082186,434.1396690613583L28.424657534246535,434.6599469045068L29.794520547945183,433.6193808326607L31.164383561643774,433.09908221784644L31.164383561643774,432.5787732163626L31.50684931506845,431.5381240510178L32.53424657534242,429.9770723885522L33.90410958904101,427.37511180761066L34.931506849314985,426.3342548282817L35.958904109589014,426.3342548282817L36.986301369862986,426.8546885147298L36.986301369862986,426.8546885147298L37.67123287671228,427.37511180761066L38.0136986301369,427.37511180761066L38.0136986301369,427.37511180761066L38.0136986301369,426.8546885147298L38.0136986301369,425.2933562724247L38.0136986301369,425.2933562724247L38.0136986301369,424.2524161353904L38.0136986301369,423.731930472517L38.0136986301369,423.731930472517L38.35616438356158,423.2114344126203L38.698630136986196,423.2114344126203L38.698630136986196,422.6909279551437L39.726027397260225,421.6498838451589L41.095890410958816,420.0882396839406L42.80821917808208,420.0882396839406L43.83561643835611,419.0470915722872L44.52054794520541,418.0059018519278L45.54794520547932,416.96467051826767L45.890410958904056,416.96467051826767L45.890410958904056,416.4440392450051L46.23287671232862,415.40274548278103L46.23287671232862,414.8820829926517L45.890410958904056,413.8407267915172L45.890410958904056,413.8407267915172L45.890410958904056,413.3200330793625L45.890410958904056,413.3200330793625L45.890410958904056,412.79932895869933L46.57534246575335,412.2786144289603L48.28767123287662,410.71640837959785L48.63013698630135,410.71640837959785L48.63013698630135,411.23715413999525L48.63013698630135,411.23715413999525L49.31506849315065,412.79932895869933L49.31506849315065,413.3200330793625L49.31506849315065,413.3200330793625L49.99999999999994,414.36141009576386L50.34246575342456,414.8820829926517L52.39726027397256,415.40274548278103L54.10958904109589,415.92339756670117L55.8219178082191,415.40274548278103L56.50684931506839,414.36141009576386L58.21917808219172,412.2786144289603L60.27397260273972,410.19565220784716L61.30136986301363,407.59171515836715L61.64383561643831,407.07089650630223L61.64383561643831,407.07089650630223L61.98630136986293,406.0292279554269L62.32876712328766,404.98751773836557L62.671232876712224,403.94576585050527L63.01369863013696,403.4248742786076L63.01369863013696,403.4248742786076L63.01369863013696,403.4248742786076L64.04109589041093,402.9039722872694L64.72602739726022,402.38305987594504L65.75342465753425,401.86213704403417L67.12328767123284,400.8202601162011L68.15068493150676,400.2993060191111L68.49315068493149,399.77834149915725L69.17808219178079,399.77834149915725L69.52054794520535,399.77834149915725L70.89041095890406,398.73638118830786L71.91780821917808,397.69437917902906L72.945205479452,396.65233546673335L72.945205479452,396.65233546673335L73.6301369863013,394.5681229146321L74.65753424657532,391.44149119855865L74.99999999999989,389.35686140878533L74.99999999999989,388.8356778753332L74.99999999999989,388.8356778753332L73.28767123287668,386.75083938025637L72.945205479452,386.2296036632688L72.60273972602738,385.7083575078577L72.60273972602738,385.7083575078577L72.26027397260265,386.2296036632688L70.20547945205476,387.2720646593807L67.46575342465746,387.7932795012093L66.09589041095882,388.8356778753332L65.75342465753425,388.8356778753332L65.41095890410952,388.8356778753332L65.0684931506849,388.8356778753332L64.38356164383555,388.3144839063316L64.04109589041093,388.3144839063316L63.35616438356152,387.7932795012093L63.01369863013696,387.7932795012093L62.671232876712224,387.7932795012093L61.64383561643831,387.7932795012093L61.30136986301363,387.7932795012093L60.958904109589014,388.3144839063316L60.61643835616428,388.3144839063316L60.27397260273972,388.3144839063316L60.27397260273972,388.8356778753332L59.589041095890366,388.8356778753332L57.19178082191769,389.87803450724823L56.84931506849313,390.39919717132216L56.84931506849313,389.87803450724823L57.19178082191769,389.87803450724823L57.876712328766985,388.8356778753332L58.561643835616394,388.8356778753332L59.589041095890366,387.7932795012093L60.958904109589014,387.2720646593807L61.30136986301363,387.2720646593807L62.32876712328766,386.2296036632688L63.01369863013696,385.1871009134193L63.69863013698625,384.144556405201L64.72602739726022,383.1019701339974L64.72602739726022,382.58066133584725L65.41095890410952,382.58066133584725L68.15068493150676,381.5380124115254L69.86301369863008,381.01667228420047L71.91780821917808,380.49532171267856L74.99999999999989,378.9312073270703L75.6849315068493,378.9312073270703L76.02739726027391,378.9312073270703L76.02739726027391,378.9312073270703L76.36986301369859,379.4525892346792L76.36986301369859,379.9739606963558L76.71232876712327,381.01667228420047L76.71232876712327,381.5380124115254L77.05479452054789,381.5380124115254L77.39726027397262,381.5380124115254L78.08219178082192,382.0593420952064L78.42465753424653,381.5380124115254L78.42465753424653,381.5380124115254L78.76712328767121,381.01667228420047L79.10958904109583,380.49532171267856L80.8219178082191,379.4525892346792L83.21917808219172,376.845575225645L83.56164383561634,376.32414107967634L83.21917808219172,375.80269648428657L83.21917808219172,374.7597759429955L83.21917808219172,373.71681359714785L83.21917808219172,373.71681359714785L83.56164383561634,373.19531674606696L84.58904109589037,372.6738094421162L85.95890410958896,371.6307634732948L87.32876712328766,371.10922480726003L88.01369863013696,371.10922480726003L88.35616438356158,370.58767568605253L89.04109589041087,370.58767568605253L89.38356164383555,370.58767568605253L89.72602739726017,370.58767568605253L91.43835616438349,369.0229655855219L92.46575342465746,367.979773231993L93.49315068493149,366.41490626034283L93.83561643835611,366.41490626034283L94.17808219178079,366.41490626034283L94.86301369863008,365.8932630164527L95.54794520547938,365.3716093116127L95.89041095890411,365.3716093116127L96.23287671232873,365.8932630164527L96.57534246575341,365.8932630164527L96.57534246575341,365.8932630164527L97.2602739726027,365.8932630164527L97.60273972602732,365.8932630164527L97.945205479452,365.8932630164527L98.6301369863013,365.3716093116127L99.31506849315065,364.8499451452044L101.36986301369853,362.2414673698004L102.73972602739718,360.6762551289976L103.76712328767115,358.58915893732774L104.10958904109583,358.0673587181991L104.4520547945205,357.545548029404L104.79452054794513,357.545548029404L106.50684931506845,355.98005313935937L107.53424657534242,354.93633752047754L109.24657534246569,352.84878060060146L110.61643835616434,349.71713094595543L111.30136986301363,346.58510405023844L111.64383561643825,345.5410112320096L112.3287671232876,343.4526997882167L112.3287671232876,342.9305957140168L112.3287671232876,341.88635610567144L112.3287671232876,341.88635610567144L114.38356164383555,342.4084811533685L114.38356164383555,342.4084811533685L114.72602739726017,342.9305957140168L115.0684931506849,342.9305957140168L115.41095890410952,342.4084811533685L115.7534246575342,341.88635610567144L116.09589041095887,341.36422057035816L116.43835616438349,340.8420745468502L116.78082191780817,339.79775103289285L117.12328767123279,338.75338555919006L117.46575342465746,337.7089781210743L118.15068493150676,336.6645287139072L118.83561643835611,336.14228827046827L120.20547945205476,335.62003733303936L123.28767123287668,334.5755039738069L126.71232876712321,334.5755039738069L126.71232876712321,334.5755039738069L127.05479452054789,333.0086252154142L127.05479452054789,331.44165197961047L126.02739726027391,330.3969506605281L124.99999999999994,328.82981992746863L123.6301369863013,327.2625946751359L121.23287671232868,327.7850135956942L120.89041095890406,327.7850135956942L120.20547945205476,328.3074220129529L119.86301369863008,328.3074220129529L119.52054794520541,327.7850135956942L119.17808219178079,327.7850135956942L118.15068493150676,326.7401652507033L117.46575342465746,325.6952748878357L116.78082191780817,324.650342502453L116.78082191780817,324.1278605498592L116.78082191780817,324.1278605498592L116.78082191780817,323.60536808989855L117.12328767123279,323.0828651219708L117.46575342465746,323.0828651219708L117.80821917808214,322.5603516455121L120.20547945205476,320.99274815906756L121.57534246575341,319.4250500748167L121.91780821917803,319.4250500748167L122.2602739726027,318.37986545655804L122.60273972602732,317.8572573770434L122.60273972602732,317.334638783188L122.945205479452,315.76671990960676L123.6301369863013,314.7213880780837L124.31506849315059,313.15331144542506L124.65753424657532,312.6305981961086L124.65753424657532,312.10787442660876L124.31506849315059,312.10787442660876L124.31506849315059,312.10787442660876L124.31506849315059,311.06239532474865L124.31506849315059,310.53963999119514L124.31506849315059,310.0168741351263L123.97260273972597,310.0168741351263L123.97260273972597,310.0168741351263L123.97260273972597,309.4940977559745L123.97260273972597,307.9257054740701L123.28767123287668,305.3115078211813L122.2602739726027,303.74286289395604L121.57534246575341,303.2199601921275L120.89041095890406,301.65118890024314L120.89041095890406,301.65118890024314L120.89041095890406,301.65118890024314L121.57534246575341,299.55934638766485L121.57534246575341,298.5133619251246L121.91780821917803,297.46733531885184L121.91780821917803,297.46733531885184L121.91780821917803,296.4212665641753L121.57534246575341,294.32900259093003Z" style="fill: none; stroke: rgb(8, 48, 107);"><title>CALVADOS</title></path><g stroke="#000" stroke-opacity="0.2"><path d="M0,-15.873247654971056L3.5637661381291506,-4.905103281308338L15.096355617026989,-4.905103281308339L5.766294739448918,1.873582735131148L9.330060877578072,12.841727108793865L8.881784197001252e-16,6.063041092354379L-9.330060877578068,12.841727108793867L-5.766294739448918,1.8735827351311491L-15.09635561702699,-4.905103281308335L-3.563766138129152,-4.905103281308337Z" transform="translate(180.82191780821913,202.62683841189937)rotate(4.83517178736952)" fill="white" class="commune"><title>14047 Population : 13525</title></path><path d="M0,-15.873247654971056L3.5637661381291506,-4.905103281308338L15.096355617026989,-4.905103281308339L5.766294739448918,1.873582735131148L9.330060877578072,12.841727108793865L8.881784197001252e-16,6.063041092354379L-9.330060877578068,12.841727108793867L-5.766294739448918,1.8735827351311491L-15.09635561702699,-4.905103281308335L-3.563766138129152,-4.905103281308337Z" transform="translate(123.28767123287668,442.4628686767428)rotate(1.5277160683578872)" fill="white" class="commune"><title>14762 Population : 17425</title></path><path d="M0,-18.876579049491834L4.238056047668955,-5.833183721955068L17.952693510379785,-5.833183721955069L6.857318731355415,2.2280779191642193L11.095374779024372,15.271473246700983L8.881784197001252e-16,7.210211605581696L-11.095374779024368,15.271473246700985L-6.857318731355414,2.2280779191642206L-17.952693510379788,-5.833183721955065L-4.238056047668956,-5.833183721955068Z" transform="translate(503.7671232876712,271.30295977613787)rotate(27.344876511322504)" fill="white" class="commune"><title>14366 Population : 20301</title></path><path d="M0,-26.69551410299918L5.993516340710753,-8.249367531402827L25.38894264350654,-8.249367531402829L9.697713151397894,3.150978011306063L15.69122949210865,21.597124582902413L1.7763568394002505e-15,10.196779040193524L-15.691229492108645,21.597124582902417L-9.697713151397892,3.1509780113060657L-25.388942643506542,-8.249367531402822L-5.993516340710755,-8.249367531402825Z" transform="translate(295.54794520547944,251.40037133881924)rotate(7.107073653057469)" fill="white" class="commune"><title>14118 Population : 105403</title></path></g><text class="text" y="25" x="326" text-anchor="middle" font-size="24" font-family="Helvetica" fill="#6baed6">14 - CALVADOS</text><line x1="188.47031963470315" y1="205.87840727369402" x2="287.8995433789954" y2="248.1488024770246" stroke="yellow" opacity="0.35" stroke-width="2"/><line x1="309.42922374429224" y1="252.72721056797383" x2="489.8858447488584" y2="269.9761205469833" stroke="yellow" opacity="0.35" stroke-width="2"/><line x1="478.4018264840182" y1="282.71362036951155" x2="148.65296803652964" y2="431.0522080833691" stroke="yellow" opacity="0.35" stroke-width="2"/><line x1="127.12328767123284" y1="426.4737999924199" x2="176.98630136986296" y2="218.61590709622226" stroke="yellow" opacity="0.35" stroke-width="2"/></svg>