<svg viewBox="0,0,600,600" width="600" height="600" style="width: 100%; height: auto;" xmlns="http://www.w3.org/2000/svg" xmlns:xlink="http://www.w3.org/1999/xlink"><rect width="752" height="902.4" fill="black"/><path d="M344.53184957789733,73.48052737384205L344.53184957789733,73.48052737384205L344.95395241749816,72.87593338295846L345.3760552570992,72.87593338295846L345.3760552570992,72.87593338295846L346.6423637759018,72.87593338295846L348.33077513430567,70.45744920142897L350.0191864927093,67.43410044124903L350.8633921719111,66.82939821240507L351.2854950115121,65.61996127327438L351.2854950115121,65.01522656188536L351.70759785111295,64.41048102181958L351.70759785111295,63.805724652545905L351.2854950115121,61.38659087165797L351.70759785111295,59.57212680104931L352.1297006907138,57.15268969760291L352.5518035303147,56.54780333294184L352.5518035303147,55.94290613158955L352.5518035303147,55.94290613158955L352.1297006907138,55.94290613158955L353.81811204911753,55.33799809300399L355.08442056792023,54.12814950181928L355.928626247122,53.523208948066895L357.1949347659248,52.31329532140808L359.3054489639294,51.70832224733749L361.4159631619342,52.31329532140808L361.838066001535,52.31329532140808L364.37068303914043,51.70832224733749L366.48119723714524,52.31329532140808L367.3254029163469,52.31329532140808L368.5917114351497,51.10333833203549L369.4359171143516,50.498343574894534L369.8580199539525,49.89333797537256L369.8580199539525,49.28832153286203L370.2801227935536,49.28832153286203L370.2801227935536,48.07825611665976L370.7022256331544,47.47320714180387L371.5464313123564,46.868147321700235L372.39063699155804,46.26307665574859L373.65694551036086,46.26307665574859L374.0790483499617,46.26307665574859L374.5011511895626,46.868147321700235L374.9232540291637,46.868147321700235L375.3453568687645,48.07825611665976L375.76745970836544,49.28832153286203L375.76745970836544,50.498343574894534L377.8779739063699,53.523208948066895L380.83269378357636,55.33799809300399L384.20951650038387,56.54780333294184L384.6316193399847,56.54780333294184L385.4758250191867,56.54780333294184L385.8979278587875,57.15268969760291L386.7421335379895,57.15268969760291L387.1642363775903,57.75756522617303L388.008442056792,59.57212680104931L387.58633921719115,60.17695899096725L387.58633921719115,60.781780347650056L387.1642363775903,61.38659087165797L386.7421335379895,61.99139056358763L386.7421335379895,62.596179423981084L386.7421335379895,62.596179423981084L387.1642363775903,63.20095745345316L387.1642363775903,63.20095745345316L387.1642363775903,63.805724652545905L387.1642363775903,63.805724652545905L387.1642363775903,63.805724652545905L387.58633921719115,66.2246851565942L387.58633921719115,68.03879184374091L387.58633921719115,68.6434724204264L387.58633921719115,68.6434724204264L388.43054489639314,68.03879184374091L389.2747505755948,67.43410044124903L390.5410590943976,66.82939821240507L391.8073676132004,65.01522656188536L391.8073676132004,65.01522656188536L392.6515732924023,65.01522656188536L394.76208749040677,66.2246851565942L397.2947045280124,68.6434724204264L397.71680736761334,69.24814217189851L399.8273215656178,70.45744920142897L399.8273215656178,70.45744920142897L399.8273215656178,68.6434724204264L399.8273215656178,68.6434724204264L402.78204144282427,66.2246851565942L407.8472755180354,63.805724652545905L408.6914811972373,65.61996127327438L410.37989255564094,68.6434724204264L412.91250959324657,71.6667129369198L413.7567152724482,71.6667129369198L416.7114351496547,71.6667129369198L417.9777436684575,72.27132857084143L418.39984650805843,71.06208648065513L418.82194934765926,69.85280109869927L419.2440521872603,68.6434724204264L419.2440521872603,68.03879184374091L419.66615502686125,65.61996127327438L419.66615502686125,63.805724652545905L420.0882578664621,63.805724652545905L420.5103607060629,63.805724652545905L420.93246354566406,63.805724652545905L422.19877206446654,64.41048102181958L422.6208749040677,64.41048102181958L423.8871834228704,65.61996127327438L425.57559478127405,66.2246851565942L425.997697620875,66.2246851565942L427.2640061396777,69.24814217189851L427.2640061396777,69.85280109869927L427.68610897927886,71.06208648065513L427.68610897927886,71.6667129369198L428.5303146584805,72.87593338295846L428.5303146584805,72.87593338295846L430.21872601688415,73.48052737384205L431.907137375288,74.08511054408518L434.43975441289365,74.08511054408518L435.2839600920953,74.08511054408518L435.7060629316961,74.08511054408518L436.5502686108981,74.08511054408518L436.97237145049894,74.08511054408518L438.6607828089027,75.29424442488016L439.0828856485035,75.29424442488016L439.5049884881046,75.89879513657434L439.0828856485035,76.50333502991998L437.81657712970093,77.10786410547007L435.7060629316961,78.31688980545368L435.2839600920953,82.54813907878633L434.8618572524945,83.15256000779118L434.8618572524945,83.15256000779118L434.0176515732925,83.75697012526871L433.17344589409083,83.75697012526871L432.32924021488884,84.36136943181191L432.7513430544898,85.57013561434724L433.59554873369166,86.1745024914926L436.97237145049894,86.1745024914926L438.23867996930176,86.1745024914926L438.23867996930176,86.1745024914926L440.77129700690716,84.36136943181191L441.1933998465082,83.15256000779118L441.1933998465082,81.33926478396825L441.1933998465082,77.71238236377758L441.61550268610915,77.71238236377758L441.61550268610915,77.71238236377758L441.61550268610915,78.92138643104045L442.4597083653108,82.54813907878633L443.3039140445128,83.75697012526871L445.41442824251726,86.1745024914926L446.6807367613201,86.77885855997738L447.9470452801229,87.38320382035818L449.2133537989256,86.77885855997738L450.4796623177284,86.77885855997738L451.7459708365312,89.80047679242853L452.16807367613205,89.80047679242853L452.16807367613205,89.80047679242853L452.16807367613205,89.19617475870473L452.16807367613205,89.19617475870473L454.27858787413675,88.59186191915069L455.12279355333874,88.59186191915069L455.12279355333874,88.59186191915069L456.38910207214155,89.19617475870473L457.2333077513432,90.4047680209369L458.499616270146,92.21757688074285L461.0322333077514,92.82182489400657L461.8764389869534,92.82182489400657L462.72064466615507,92.21757688074285L463.56485034535706,91.61331806451199L464.4090560245587,91.00904844478282L466.0974673829626,90.4047680209369L466.0974673829626,90.4047680209369L466.0974673829626,91.00904844478282L466.5195702225634,92.21757688074285L466.5195702225634,93.42606210487793L466.0974673829626,95.23870892891136L465.2532617037607,97.05125855201914L465.2532617037607,97.65542016216932L465.2532617037607,98.25957097450373L465.6753645433615,100.07195863026573L466.0974673829626,101.28016308876613L466.0974673829626,103.09238881993224L466.5195702225634,103.69644247748874L465.6753645433615,105.50853869973434L464.83115886415976,107.3205378082348L465.2532617037607,107.3205378082348L466.94167306216434,107.3205378082348L470.7405986185727,106.71654889486672L472.85111281657726,106.71654889486672L473.69531849577913,106.71654889486672L474.11742133537996,105.50853869973434L475.3837298541828,104.90451741683864L476.22793553338465,103.69644247748874L477.07214121258664,103.09238881993224L477.49424405218747,102.48832436965677L477.49424405218747,102.48832436965677L479.1826554105911,101.8842491261239L481.2931696085957,100.07195863026573L481.7152724481965,99.4678402079735L483.8257866462013,101.28016308876613L484.669992325403,102.48832436965677L485.51419800460496,103.69644247748874L486.3584036838066,104.3004853429411L487.2026093630086,104.90451741683864L489.3131235610133,102.48832436965677L488.4689178818113,99.4678402079735L490.5794320798161,98.86371098958989L491.8457405986186,98.86371098958989L493.1120491174214,98.25957097450373L494.3783576362242,97.05125855201914L495.64466615502704,95.84290293594677L495.64466615502704,95.84290293594677L496.4888718342288,94.03028851394629L496.9109746738296,92.21757688074285L497.7551803530316,91.00904844478282L498.17728319263256,86.77885855997738L498.17728319263256,86.1745024914926L498.17728319263256,85.57013561434724L498.17728319263256,84.96575792799194L497.7551803530316,84.36136943181191L497.3330775134307,82.54813907878633L497.7551803530316,81.33926478396825L499.02148887183455,79.52587224110175L499.4435917114354,79.52587224110175L501.9762087490408,78.92138643104045L505.35303146584806,77.71238236377758L507.0414428242517,77.71238236377758L507.8856485034537,77.71238236377758L509.57405986185734,77.71238236377758L509.57405986185734,77.71238236377758L511.2624712202612,78.92138643104045L512.1066768994629,79.52587224110175L514.6392939370685,80.13034723623787L517.1719109746739,80.13034723623787L519.2824251726784,80.13034723623787L522.6592478894859,80.13034723623787L523.9255564082887,80.13034723623787L525.6139677666923,80.13034723623787L527.724481964697,80.73481141700904L529.4128933231007,82.54813907878633L529.4128933231007,83.15256000779118L529.8349961627016,83.15256000779118L530.6792018419035,83.75697012526871L531.1013046815043,83.75697012526871L531.5234075211054,83.75697012526871L533.2118188795091,84.36136943181191L535.7444359171143,86.1745024914926L535.7444359171143,86.1745024914926L538.2770529547199,81.94370733769756L539.1212586339218,81.33926478396825L540.8096699923256,80.73481141700904L542.4980813507291,80.73481141700904L544.1864927091331,79.52587224110175L546.7191097467387,77.71238236377758L548.8296239447432,74.08511054408518L548.8296239447432,74.08511054408518L548.8296239447432,74.08511054408518L548.8296239447432,73.48052737384205L549.2517267843439,73.48052737384205L549.6738296239448,73.48052737384205L550.095932463546,74.08511054408518L550.9401381427476,74.68968289422264L550.9401381427476,74.08511054408518L551.3622409823486,74.08511054408518L551.3622409823486,72.87593338295846L551.3622409823486,72.27132857084143L550.9401381427476,71.06208648065513L550.5180353031467,68.6434724204264L552.2064466615504,66.82939821240507L554.7390636991558,65.01522656188536L555.5832693783577,63.805724652545905L557.2716807367615,63.20095745345316L558.1158864159634,62.596179423981084L559.3821949347662,62.596179423981084L560.2264006139678,62.596179423981084L561.4927091327706,65.01522656188536L562.7590176515735,66.82939821240507L564.447429009977,69.24814217189851L565.7137375287798,70.45744920142897L567.4021488871836,73.48052737384205L568.6684574059864,75.89879513657434L568.6684574059864,76.50333502991998L569.5126630851883,77.71238236377758L571.2010744435918,78.92138643104045L572.4673829623946,80.13034723623787L571.2010744435918,83.75697012526871L571.2010744435918,87.38320382035818L572.0452801227937,88.59186191915069L572.8894858019955,88.59186191915069L573.3115886415965,88.59186191915069L573.7336914811972,88.59186191915069L574.1557943207983,88.59186191915069L574.1557943207983,88.59186191915069L574.1557943207983,88.59186191915069L573.3115886415965,92.21757688074285L573.3115886415965,93.42606210487793L573.7336914811972,94.63450412175735L573.7336914811972,94.63450412175735L574.1557943207983,94.63450412175735L574.1557943207983,94.63450412175735L574.5778971603993,95.23870892891136L574.5778971603993,95.84290293594677L575,96.44708614346382L575,96.44708614346382L574.5778971603993,96.44708614346382L573.7336914811972,96.44708614346382L571.6231772831927,98.86371098958989L569.934765924789,100.67606625701228L569.5126630851883,101.8842491261239L569.5126630851883,101.8842491261239L569.0905602455873,102.48832436965677L568.6684574059864,102.48832436965677L568.2463545663854,103.09238881993224L568.2463545663854,103.69644247748874L568.2463545663854,104.3004853429411L568.6684574059864,106.71654889486672L569.0905602455873,107.3205378082348L570.3568687643899,109.73638558031234L570.7789716039911,110.3403205558352L572.4673829623946,110.94424474550033L572.8894858019955,111.54815814986068L573.3115886415965,111.54815814986068L573.3115886415965,111.54815814986068L574.1557943207983,112.1520607695129L573.7336914811972,113.35983365691209L572.4673829623946,114.56756341225264L572.0452801227937,115.1714121168261L571.2010744435918,116.37907718260249L570.7789716039911,116.98289354495864L570.7789716039911,117.58669912769983L570.7789716039911,117.58669912769983L570.7789716039911,118.79427795666561L570.3568687643899,120.60556536732474L569.0905602455873,121.81303642586136L568.6684574059864,121.81303642586136L568.6684574059864,122.41675579228104L568.2463545663854,122.41675579228104L567.4021488871836,122.41675579228104L564.447429009977,122.41675579228104L560.648503453569,121.81303642586136L559.3821949347662,121.20930628441056L558.5379892555643,120.60556536732474L558.5379892555643,120.60556536732474L558.1158864159634,120.0018136740473L557.6937835763624,120.0018136740473L556.0053722179587,121.81303642586136L556.0053722179587,121.81303642586136L555.5832693783577,122.41675579228104L555.5832693783577,123.62416220221348L555.161166538757,124.83152551876628L555.161166538757,125.43519101843776L555.161166538757,126.03884574645781L554.7390636991558,128.45335695353424L554.3169608595549,130.86769585980437L553.8948580199542,132.0748007114853L553.8948580199542,134.48888123467987L553.8948580199542,136.9027895479412L554.3169608595549,138.71310779194755L553.8948580199542,139.91993282460317L553.4727551803533,141.12671482522273L553.0506523407521,141.12671482522273L551.7843438219495,142.93680715096343L550.095932463546,144.74680268011798L549.2517267843439,144.74680268011798L548.8296239447432,144.74680268011798L548.4075211051422,145.35011301544728L548.4075211051422,145.35011301544728L547.985418265541,145.35011301544728L547.985418265541,145.95341259787165L547.1412125863394,147.15997950629753L546.7191097467387,148.9697492362866L548.8296239447432,150.1762086411145L549.2517267843439,151.9858171370106L550.9401381427476,155.00161637095152L551.3622409823486,156.2078608536758L553.0506523407521,159.82633649502168L554.7390636991558,163.44442552126566L558.1158864159634,164.65036930333736L558.5379892555643,165.85627014629063L559.3821949347662,167.06212805466203L558.9600920951652,168.8708344247425L559.3821949347662,170.07658501640253L561.0706062931697,171.88513043267085L561.0706062931697,171.88513043267085L561.4927091327706,171.88513043267085L561.4927091327706,171.88513043267085L564.0253261703763,173.6935792970071L565.7137375287798,173.6935792970071L566.9800460475826,173.6935792970071L568.2463545663854,173.6935792970071L568.6684574059864,173.6935792970071L569.0905602455873,173.6935792970071L569.0905602455873,173.6935792970071L569.5126630851883,173.6935792970071L569.5126630851883,173.6935792970071L569.934765924789,174.29637413177988L569.934765924789,174.89915824082345L569.934765924789,174.89915824082345L569.934765924789,175.50193162468713L569.934765924789,177.91291791981348L570.3568687643899,179.7210450546263L570.3568687643899,180.32373265752904L569.5126630851883,180.32373265752904L569.5126630851883,180.32373265752904L569.0905602455873,180.32373265752904L569.0905602455873,180.92640954033777L569.0905602455873,181.5290757036455L569.0905602455873,182.73437587396256L569.0905602455873,183.93963317299858L569.0905602455873,184.54224574720502L569.5126630851883,185.14484760529012L570.7789716039911,185.7474387477996L570.7789716039911,185.7474387477996L571.2010744435918,185.7474387477996L571.2010744435918,186.3500191753228L571.2010744435918,188.1576961735409L570.3568687643899,188.1576961735409L569.934765924789,188.1576961735409L569.0905602455873,188.76023374672877L568.6684574059864,189.36276060774253L568.2463545663854,189.9652767571315L567.8242517267845,191.17027692337433L567.4021488871836,191.17027692337433L567.8242517267845,191.7727609413232L568.2463545663854,191.7727609413232L568.6684574059864,191.7727609413232L569.0905602455873,191.7727609413232L569.5126630851883,191.7727609413232L570.3568687643899,192.37523424993924L570.3568687643899,192.37523424993924L571.2010744435918,192.97769684976083L571.6231772831927,192.97769684976083L571.6231772831927,192.97769684976083L571.2010744435918,193.58014874134824L571.2010744435918,194.18258992527262L571.2010744435918,194.18258992527262L570.3568687643899,195.3874401724388L569.934765924789,195.989849236772L569.5126630851883,196.59224759572317L568.6684574059864,197.7970121996441L568.2463545663854,198.39937844576707L567.4021488871836,199.60407882911386L566.9800460475826,202.0133511760905L565.7137375287798,203.8201930868272L566.1358403683807,204.42245232684218L566.1358403683807,205.02470086935136L566.1358403683807,205.62693871489682L566.5579432079817,206.22916586407155L567.4021488871836,208.03578313890466L568.6684574059864,209.84230416658102L568.6684574059864,210.4444564568439L568.2463545663854,211.64872896228917L567.4021488871836,212.85295870474147L566.1358403683807,216.46539139906236L565.7137375287798,217.0674261096392L566.1358403683807,218.27146347428425L566.1358403683807,219.4754581006855L566.5579432079817,220.67940999335042L566.9800460475826,221.88331915677918L566.9800460475826,222.48525771643835L566.5579432079817,223.08718559547924L566.5579432079817,223.08718559547924L566.1358403683807,224.89290515445828L565.7137375287798,226.6985286080926L565.7137375287798,227.30038173852154L565.7137375287798,227.30038173852154L565.7137375287798,227.9022241928069L565.2916346891789,228.50405597154895L564.8695318495779,228.50405597154895L564.447429009977,229.10587707528975L564.0253261703763,229.707687504575L564.0253261703763,229.707687504575L563.6032233307751,229.707687504575L563.1811204911744,229.707687504575L562.7590176515735,229.707687504575L562.7590176515735,229.707687504575L562.3369148119725,230.30948726000133L562.3369148119725,232.1148224886092L562.3369148119725,233.31832594862135L562.3369148119725,233.92006167257205L562.7590176515735,236.92858025447276L561.4927091327706,238.131913013327L561.0706062931697,238.131913013327L561.0706062931697,238.73356339347083L561.0706062931697,238.73356339347083L560.648503453569,242.94481745325174L559.8042977743669,246.55404798352174L558.9600920951652,250.76433199792518L557.6937835763624,254.3727313451418L557.2716807367615,254.97409395504292L557.6937835763624,255.57544591462647L557.6937835763624,256.1767872244818L558.1158864159634,256.1767872244818L559.8042977743669,257.9807472611392L560.2264006139678,258.5820459776078L560.2264006139678,258.5820459776078L564.0253261703763,260.3858782475836L565.7137375287798,261.58837986697836L566.5579432079817,262.1896147101834L566.9800460475826,262.7908389098084L569.5126630851883,264.59444765274384L571.6231772831927,264.59444765274384L572.0452801227937,264.59444765274384L571.6231772831927,265.7968002737216L572.0452801227937,266.39796062360256L572.4673829623946,267.60024940490985L572.8894858019955,268.8024956320369L573.7336914811972,272.40897903310906L573.3115886415965,274.2120771661612L572.4673829623946,276.01507960767776L572.8894858019955,277.2170280808714L572.4673829623946,277.2170280808714L572.4673829623946,277.8179863727819L572.0452801227937,276.6160591593507L571.6231772831927,275.4140894252996L571.2010744435918,275.4140894252996L571.2010744435918,275.4140894252996L570.7789716039911,275.4140894252996L570.3568687643899,275.4140894252996L569.934765924789,275.4140894252996L569.5126630851883,275.4140894252996L567.8242517267845,276.6160591593507L567.8242517267845,276.6160591593507L567.4021488871836,277.2170280808714L565.7137375287798,278.4189340356679L564.447429009977,278.4189340356679L561.4927091327706,277.8179863727819L557.2716807367615,279.01987107008244L556.8495778971605,279.01987107008244L556.4274750575596,279.01987107008244L555.161166538757,281.4235129341032L554.3169608595549,284.4278261904765L554.3169608595549,284.4278261904765L553.4727551803533,284.4278261904765L551.7843438219495,281.4235129341032L551.3622409823486,279.01987107008244L550.9401381427476,277.2170280808714L550.095932463546,277.2170280808714L549.6738296239448,277.2170280808714L546.7191097467387,275.4140894252996L546.2970069071375,275.4140894252996L545.8749040675366,275.4140894252996L545.4528012279359,274.81308861164143L545.4528012279359,275.4140894252996L544.6085955487338,275.4140894252996L544.6085955487338,276.01507960767776L544.1864927091331,276.01507960767776L542.92018419033,276.01507960767776L541.6538756715274,276.6160591593507L539.5433614735227,276.6160591593507L539.1212586339218,276.6160591593507L538.2770529547199,276.01507960767776L538.2770529547199,275.4140894252996L537.4328472755183,275.4140894252996L537.0107444359171,273.61105508827313L536.5886415963164,273.61105508827313L536.1665387567155,273.61105508827313L535.7444359171143,273.01002237745706L534.0560245587108,270.60578519343835L530.6792018419035,268.20137783747487L530.2570990023027,268.20137783747487L529.8349961627016,268.20137783747487L528.5686876438988,267.60024940490985L528.146584804298,268.20137783747487L527.724481964697,268.20137783747487L525.6139677666923,268.20137783747487L524.3476592478895,268.20137783747487L521.8150422102841,267.60024940490985L519.7045280122795,266.39796062360256L519.7045280122795,266.39796062360256L519.7045280122795,266.39796062360256L519.2824251726784,265.7968002737216L518.8603223330775,264.59444765274384L518.8603223330775,264.59444765274384L518.8603223330775,262.7908389098084L518.8603223330775,262.1896147101834L518.4382194934767,262.1896147101834L518.0161166538759,261.58837986697836L515.9056024558711,259.7846114702661L514.2171910974674,259.18333404713485L512.5287797390637,257.9807472611392L511.68457405986203,257.9807472611392L507.8856485034537,256.77811788514737L507.0414428242517,256.77811788514737L505.7751343054492,256.77811788514737L504.5088257866464,257.3794378971761L504.0867229470455,257.3794378971761L503.2425172678436,257.3794378971761L502.82041442824266,257.3794378971761L501.55410590943995,257.3794378971761L501.132003069839,257.3794378971761L501.132003069839,257.3794378971761L500.28779739063714,257.9807472611392L499.8656945510362,258.5820459776078L499.02148887183455,259.18333404713485L499.02148887183455,259.7846114702661L499.4435917114354,260.3858782475836L500.28779739063714,263.3920524663954L501.9762087490408,266.39796062360256L501.9762087490408,266.39796062360256L502.39831158864183,266.39796062360256L503.2425172678436,266.99911033381795L504.0867229470455,267.60024940490985L505.7751343054492,270.0046993094729L507.46354566385287,273.61105508827313L507.46354566385287,273.61105508827313L507.8856485034537,274.2120771661612L507.46354566385287,274.81308861164143L507.46354566385287,274.81308861164143L507.0414428242517,276.01507960767776L506.6193399846509,276.6160591593507L506.19723714505005,277.2170280808714L505.7751343054492,277.8179863727819L505.35303146584806,277.8179863727819L505.35303146584806,278.4189340356679L504.93092862624724,278.4189340356679L504.93092862624724,279.01987107008244L505.35303146584806,280.82261840802676L505.35303146584806,281.4235129341032L505.35303146584806,281.4235129341032L505.35303146584806,282.6252701097874L505.35303146584806,283.22613276050834L505.7751343054492,283.22613276050834L506.6193399846509,285.0286569708551L506.6193399846509,285.0286569708551L506.6193399846509,285.62947712888854L507.0414428242517,286.2302866651662L507.0414428242517,286.2302866651662L507.0414428242517,287.4318738746224L506.6193399846509,287.4318738746224L505.7751343054492,291.0363806385758L504.93092862624724,292.8384906869396L504.0867229470455,294.0398443095619L501.9762087490408,295.2411554763603L500.28779739063714,297.0430426316707L500.28779739063714,297.0430426316707L499.8656945510362,297.6436504603589L499.8656945510362,298.24424767845267L499.4435917114354,298.84483428649764L499.4435917114354,298.84483428649764L499.4435917114354,298.84483428649764L500.28779739063714,300.04597567465316L500.28779739063714,300.04597567465316L501.55410590943995,301.24707462930746L503.2425172678436,303.0486435082312L503.2425172678436,303.64914525594577L503.2425172678436,304.2496363986429L503.2425172678436,304.2496363986429L503.2425172678436,304.8501169368683L503.2425172678436,304.8501169368683L501.55410590943995,307.25193305615176L499.02148887183455,309.6535795484597L495.64466615502704,310.8543391956555L495.222563315426,310.8543391956555L494.80046047582516,310.8543391956555L494.3783576362242,310.8543391956555L494.3783576362242,310.8543391956555L493.9562547966234,310.2539646715086L493.53415195702235,310.2539646715086L493.1120491174214,310.2539646715086L491.00153491941694,310.8543391956555L489.3131235610133,311.4547031214461L486.3584036838066,312.0550564494697L485.9363008442058,312.6553991802393L485.51419800460496,312.6553991802393L485.0920951650038,313.25573131435885L484.669992325403,313.8560528523594L483.8257866462013,315.0566641422374L481.7152724481965,318.0580069739008L481.2931696085957,318.65824376301316L481.2931696085957,319.2584699610379L480.87106676899475,319.8586855684989L480.87106676899475,320.4588905859855L480.87106676899475,321.65926885320005L480.87106676899475,322.2594421040485L480.4489639293939,322.2594421040485L478.7605525709903,325.26014955293067L477.49424405218747,328.2605923772171L475.8058326937838,330.0607310809064L474.5395241749809,332.4607678942448L474.11742133537996,333.66072282882305L473.69531849577913,334.26068443003896L473.69531849577913,334.26068443003896L473.2732156561781,334.26068443003896L472.85111281657726,334.26068443003896L472.0069071373755,334.26068443003896L470.7405986185727,334.26068443003896L469.8963929393707,333.66072282882305L469.05218726016903,333.66072282882305L468.20798158096704,333.06075065042023L467.7858787413662,333.06075065042023L467.3637759017654,332.4607678942448L466.94167306216434,332.4607678942448L466.5195702225634,332.4607678942448L466.0974673829626,331.8607745597765L465.6753645433615,331.8607745597765L465.2532617037607,332.4607678942448L465.2532617037607,332.4607678942448L462.72064466615507,335.46057590308556L462.29854182655424,335.46057590308556L462.29854182655424,336.06050577603673L461.8764389869534,336.6604250740056L461.8764389869534,337.2603337975452L461.8764389869534,340.85956410705694L461.45433614735225,343.2588395619605L461.0322333077514,343.85863200352105L460.6101304681506,344.45841387731343L460.6101304681506,344.45841387731343L460.18802762854966,345.0581851839088L459.7659247889486,345.0581851839088L459.3438219493478,345.65794592384555L458.92171910974685,345.65794592384555L457.65541059094403,345.65794592384555L456.38910207214155,345.65794592384555L455.54489639293956,345.65794592384555L455.12279355333874,346.2576960977058L454.7006907137377,346.2576960977058L454.27858787413675,346.8574357060279L454.27858787413675,346.8574357060279L453.01227935533404,349.25628849498753L452.5901765157331,351.0553171757492L452.5901765157331,352.25461682316745L453.01227935533404,353.45387423061766L453.43438219493487,357.05139305757257L453.43438219493487,357.05139305757257L453.43438219493487,357.6509425810582L453.01227935533404,357.6509425810582L451.3238679969304,358.250481549534L450.90176515732924,358.8500099635712L449.63545663852676,358.250481549534L448.79125095932477,358.250481549534L448.36914811972395,358.8500099635712L447.10283960092113,359.44952782370456L446.6807367613201,360.0490351305125L446.6807367613201,360.0490351305125L446.6807367613201,360.6485318845407L446.6807367613201,361.24801808632037L446.6807367613201,361.84749373644445L445.41442824251726,363.0464133838577L445.41442824251726,363.6458573822565L442.4597083653108,366.64291914350906L441.1933998465082,367.2422998534603L439.5049884881046,368.4410296355345L437.3944742900999,372.03696591871994L437.3944742900999,372.03696591871994L437.3944742900999,372.6362517333837L436.97237145049894,372.6362517333837L436.97237145049894,373.2355270068765L434.0176515732925,373.8347917397841L433.59554873369166,373.8347917397841L433.17344589409083,373.8347917397841L432.7513430544898,373.2355270068765L432.32924021488884,372.6362517333837L431.48503453568696,372.6362517333837L431.907137375288,373.8347917397841L432.32924021488884,374.43404593264495L433.17344589409083,375.03328958599377L434.43975441289365,375.6325227003981L434.43975441289365,375.6325227003981L434.8618572524945,376.8309573146289L434.43975441289365,377.4301588155249L433.17344589409083,379.8268594574147L432.32924021488884,382.22339154700967L431.907137375288,383.4215943957606L431.907137375288,383.4215943957606L431.907137375288,384.0206800230699L431.907137375288,384.6197551197329L431.907137375288,385.2188196862844L431.907137375288,385.2188196862844L432.32924021488884,385.81787372330655L434.43975441289365,387.0159502109309L435.7060629316961,387.6149726626427L435.7060629316961,388.8129859846158L435.7060629316961,390.01095720167723L435.7060629316961,390.6099270222621L435.7060629316961,391.80783509024695L436.1281657712973,393.6046182676255L436.5502686108981,397.79674411065935L438.6607828089027,398.39557715490446L439.5049884881046,398.39557715490446L441.1933998465082,400.1920131854604L443.3039140445128,402.5871140084855L447.10283960092113,404.3833292317504L449.63545663852676,406.17944984811766L450.0575594781276,406.17944984811766L450.0575594781276,406.17944984811766L450.4796623177284,406.17944984811766L450.4796623177284,406.17944984811766L450.0575594781276,406.77813569907084L449.2133537989256,408.57413019610976L448.79125095932477,409.1727740116694L448.79125095932477,409.1727740116694L448.36914811972395,409.77140731978943L447.9470452801229,409.77140731978943L447.10283960092113,410.37003012099376L446.6807367613201,410.37003012099376L443.3039140445128,410.37003012099376L442.88181120491197,410.37003012099376L442.03760552571,410.37003012099376L441.1933998465082,411.5672442048526L440.77129700690716,413.36298654255006L441.1933998465082,414.5600955820846L441.1933998465082,415.7571626115787L440.77129700690716,416.9541876354633L440.34919416730634,419.3481116840085L439.0828856485035,420.54501071749473L437.3944742900999,422.34028054160444L434.43975441289365,424.1354559075917L432.7513430544898,425.3321870155196L431.06293169608614,424.7338267081177L428.95241749808133,424.7338267081177L427.2640061396777,424.7338267081177L427.2640061396777,424.7338267081177L427.68610897927886,425.930536830303L428.5303146584805,428.32383117455174L428.1082118188797,430.7169576812812L429.3745203376825,433.10991638569976L430.21872601688415,434.9045253149379L430.21872601688415,437.8953305284158L430.21872601688415,437.8953305284158L428.95241749808133,438.4934601257628L428.5303146584805,439.09157924260944L427.2640061396777,440.8858737156879L427.2640061396777,440.8858737156879L426.84190330007686,444.474179762572L427.68610897927886,446.26819136603444L427.68610897927886,447.46414673396794L427.68610897927886,449.2580012453036L427.68610897927886,449.8559318071166L427.2640061396777,451.0517615211138L426.84190330007686,451.6496606743931L425.997697620875,452.8454275762306L425.1534919416732,453.44329532590564L425.1534919416732,453.44329532590564L424.73138910207217,454.63899942547505L424.73138910207217,455.236835776479L425.1534919416732,455.8346616623421L425.1534919416732,456.43247708363924L425.997697620875,457.62807653468553L424.73138910207217,457.62807653468553L424.73138910207217,457.62807653468553L424.30928626247135,457.62807653468553L423.8871834228704,457.0302820408979L423.8871834228704,457.62807653468553L421.7766692248657,456.43247708363924L420.0882578664621,455.236835776479L418.82194934765926,455.236835776479L416.7114351496547,455.236835776479L413.3346124328474,454.63899942547505L411.64620107444375,454.0411526088101L411.2240982348429,454.0411526088101L411.2240982348429,454.0411526088101L410.8019953952419,454.63899942547505L410.8019953952419,455.236835776479L410.37989255564094,457.0302820408979L409.9577897160401,457.62807653468553L409.9577897160401,457.62807653468553L409.9577897160401,457.62807653468553L409.11358403683823,457.62807653468553L406.1588641596318,458.82363413400526L403.62624712202626,461.214623795011L402.78204144282427,464.2031255334041L400.6715272448198,464.2031255334041L398.98311588641616,464.2031255334041L396.8726016884116,465.39845302660615L395.60629316960876,467.191365849234L395.60629316960876,467.788982547725L395.18419033000794,468.3865887925822L394.76208749040677,468.9841845843912L394.33998465080595,468.9841845843912L393.9178818112051,468.9841845843912L393.9178818112051,468.9841845843912L393.4957789716043,468.9841845843912L393.4957789716043,468.9841845843912L393.07367613200313,469.58176992366134L392.6515732924023,470.7769092468516L392.6515732924023,470.7769092468516L392.6515732924023,470.7769092468516L393.07367613200313,471.3744632318703L393.4957789716043,471.3744632318703L393.9178818112051,471.3744632318703L393.9178818112051,471.3744632318703L394.33998465080595,471.9720067665512L394.33998465080595,471.9720067665512L394.33998465080595,472.5695398514363L393.9178818112051,472.5695398514363L393.4957789716043,472.5695398514363L392.2294704528015,472.5695398514363L391.8073676132004,472.5695398514363L392.2294704528015,473.167062487104L393.07367613200313,475.55704854835494L393.4957789716043,477.34942840415533L396.0283960092096,479.73912198647304L397.71680736761334,480.93390611941504L398.5610130468152,484.51800793804796L398.98311588641616,487.50447239552886L399.8273215656178,491.0878853770955L400.6715272448198,492.8794510247317L400.6715272448198,492.8794510247317L401.0936300844206,493.47661871192395L401.9378357636226,494.0737759690346L401.9378357636226,494.0737759690346L404.47045280122813,497.0594058222705L404.89255564082896,497.65650051028933L406.5809669992326,499.44772201886735L407.0030698388334,500.04477500507346L407.8472755180354,500.04477500507346L409.11358403683823,500.64181756718244L411.2240982348429,502.43288271446L411.2240982348429,502.43288271446L411.2240982348429,503.02988358568837L410.8019953952419,503.02988358568837L410.8019953952419,503.626874035559L410.37989255564094,503.626874035559L410.37989255564094,504.22385406459944L410.8019953952419,504.8208236733917L411.2240982348429,506.61166998358385L410.37989255564094,507.8055154323956L409.53568687643906,510.78994676654474L408.6914811972373,511.9836463965112L407.8472755180354,513.7741177440003L407.8472755180354,514.3709207026768L407.0030698388334,515.5644953876181L407.0030698388334,515.5644953876181L407.0030698388334,515.5644953876181L406.5809669992326,515.5644953876181L405.3146584804298,514.9677132503748L404.0483499616271,514.3709207026768L404.0483499616271,514.3709207026768L402.35993860322344,514.3709207026768L399.8273215656178,514.9677132503748L399.405218726017,514.9677132503748L398.5610130468152,515.5644953876181L397.71680736761334,516.7580284329124L397.2947045280124,516.7580284329124L397.2947045280124,517.3547793420585L396.0283960092096,517.9515198429399L395.60629316960876,517.9515198429399L394.76208749040677,517.9515198429399L394.76208749040677,517.9515198429399L394.76208749040677,517.3547793420585L393.9178818112051,515.5644953876181L393.9178818112051,515.5644953876181L393.4957789716043,515.5644953876181L393.4957789716043,514.9677132503748L391.3852647735995,514.9677132503748L390.1189562547968,514.9677132503748L389.69685341519585,514.9677132503748L388.43054489639314,515.5644953876181L388.008442056792,515.5644953876181L387.58633921719115,515.5644953876181L387.58633921719115,515.5644953876181L385.4758250191867,517.9515198429399L383.78741366078293,519.1449696220589L383.3653108211821,519.1449696220589L382.94320798158105,519.1449696220589L379.56638526477354,519.7416789014023L379.1442824251727,519.7416789014023L378.30007674597096,519.7416789014023L377.8779739063699,519.7416789014023L377.4558710667691,520.3383777746276L376.18956254796626,520.9350662423312L374.5011511895626,520.3383777746276L374.0790483499617,520.3383777746276L374.0790483499617,520.3383777746276L372.81273983115886,518.5482499360987L371.1243284727552,516.1612671149378L371.1243284727552,516.1612671149378L371.1243284727552,515.5644953876181L370.7022256331544,515.5644953876181L369.8580199539525,516.1612671149378L366.48119723714524,516.7580284329124L363.10437452033784,517.3547793420585L362.26016884113596,517.9515198429399L358.88334612432845,519.1449696220589L358.46124328472763,519.1449696220589L357.1949347659248,519.7416789014023L355.5065234075212,519.7416789014023L352.5518035303147,519.7416789014023L348.33077513430567,520.3383777746276L346.6423637759018,520.9350662423312L344.95395241749816,521.531744305019L343.68764389869557,522.7250692175621L342.42133537989275,523.9183525166263L341.5771297006909,524.5149785624562L341.15502686108994,525.7081994494802L340.7329240214889,526.3047942917292L340.31082118188806,526.3047942917292L339.8887183422871,526.901378733899L337.77820414428265,528.0945164200857L336.5118956254797,528.6910696652049L335.66768994627796,529.2876125124058L333.9792785878743,529.884144962205L333.55717574827327,529.884144962205L333.1350729086723,529.884144962205L333.1350729086723,530.4806670151702L332.7129700690715,531.6736799327846L332.7129700690715,532.2701707984961L331.4466615502687,533.4631213465109L331.02455871066786,533.4631213465109L331.02455871066786,534.0595810298728L330.6024558710668,534.0595810298728L330.6024558710668,534.0595810298728L330.180353031466,534.0595810298728L328.0698388334614,534.0595810298728L326.8035303146586,532.8666512695636L327.2256331542595,531.0771786718469L327.2256331542595,528.0945164200857L326.8035303146586,525.7081994494802L326.38142747505754,522.7250692175621L326.38142747505754,522.7250692175621L325.9593246354567,522.1284119632401L325.53722179585577,522.1284119632401L324.27091327705307,521.531744305019L323.00460475825025,520.3383777746276L321.73829623944766,519.1449696220589L321.3161933998466,518.5482499360987L320.8940905602457,518.5482499360987L320.8940905602457,519.1449696220589L320.8940905602457,519.1449696220589L320.47198772064485,519.1449696220589L320.47198772064485,519.1449696220589L320.0498848810438,519.7416789014023L318.36147352264015,520.3383777746276L317.5172678434384,519.7416789014023L316.2509593246356,519.1449696220589L314.98465080583287,518.5482499360987L312.8741366078282,519.1449696220589L312.8741366078282,519.1449696220589L312.8741366078282,519.1449696220589L312.45203376822724,519.7416789014023L310.7636224098236,521.531744305019L308.6531082118189,523.9183525166263L308.2310053722181,525.111594206559L307.3867996930163,526.3047942917292L306.1204911742135,526.901378733899L305.69838833461245,527.4979527765063L305.2762854950116,527.4979527765063L304.0099769762088,528.6910696652049L303.58787413660787,529.884144962205L303.16577129700704,530.4806670151702L303.58787413660787,531.0771786718469L303.58787413660787,531.0771786718469L304.0099769762088,531.6736799327846L304.0099769762088,531.6736799327846L304.0099769762088,532.2701707984961L303.58787413660787,532.2701707984961L302.32156561780516,532.2701707984961L301.4773599386034,532.8666512695636L298.52264006139694,532.8666512695636L296.8342287029933,533.4631213465109L293.87950882578684,536.4453158385004L292.191097467383,537.0417235621499L290.0805832693785,538.234507839079L289.65848042977746,538.234507839079L289.23637759017663,538.234507839079L288.8142747505757,538.234507839079L288.8142747505757,538.234507839079L288.39217191097487,538.8308843934465L287.9700690713738,539.4272505591252L287.547966231773,539.4272505591252L286.2816577129702,542.4089255763429L285.85955487336923,543.0052294213492L285.85955487336923,543.0052294213492L285.4374520337684,543.601522881494L285.01534919416736,543.0052294213492L284.5932463545664,543.0052294213492L283.74904067536454,541.8126113459039L283.3269378357637,540.023606336661L282.9048349961628,538.8308843934465L281.21642363775914,538.234507839079L280.7943207981583,538.234507839079L280.7943207981583,538.234507839079L280.37221795855726,538.234507839079L280.37221795855726,538.8308843934465L279.95011511895643,540.6199517266141L279.95011511895643,543.0052294213492L279.95011511895643,544.1978059572903L279.95011511895643,545.3903409580889L279.5280122793555,546.5828344280671L279.10590943975444,547.1790655903678L278.6838066001536,547.7752863715796L278.2617037605527,548.3714967722772L277.4174980813508,548.9676967929918L276.99539524174986,549.56388643424L276.151189562548,549.56388643424L273.19646968534175,549.56388643424L272.7743668457407,548.9676967929918L271.08595548733706,548.9676967929918L269.3975441289333,550.1600656965966L268.9754412893325,550.7562345806036L267.70913277052966,552.5446789679008L267.70913277052966,553.1408063439085L267.70913277052966,553.7369233442587L267.2870299309287,553.7369233442587L267.2870299309287,553.1408063439085L267.2870299309287,551.9485412157082L268.1312356101306,550.7562345806036L268.1312356101306,550.1600656965966L266.8649270913278,548.3714967722772L265.5986185725251,547.7752863715796L264.33231005372227,547.1790655903678L262.6438986953186,545.3903409580889L261.79969301611675,544.1978059572903L261.3775901765158,543.601522881494L260.95548733691487,543.601522881494L260.95548733691487,543.601522881494L261.3775901765158,544.7940786493127L261.79969301611675,546.5828344280671L261.3775901765158,547.1790655903678L261.3775901765158,547.1790655903678L259.68917881811217,548.3714967722772L258.8449731389103,548.3714967722772L258.42287029930935,548.9676967929918L257.15656178050665,550.7562345806036L256.7344589409057,551.3523930867959L256.7344589409057,551.3523930867959L256.3123561013048,550.7562345806036L256.3123561013048,550.7562345806036L255.89025326170383,550.1600656965966L254.20184190330008,547.7752863715796L253.77973906369925,546.5828344280671L252.51343054489644,545.3903409580889L250.82501918649268,544.1978059572903L249.98081350729092,544.1978059572903L248.29240214888728,543.601522881494L246.1818879508827,543.601522881494L245.75978511128176,543.0052294213492L245.33768227168093,543.0052294213492L245.75978511128176,542.4089255763429L246.60399079048352,541.8126113459039L247.02609363008457,541.8126113459039L247.87029930928634,541.2162867295192L247.87029930928634,541.2162867295192L247.4481964696854,541.2162867295192L246.60399079048352,537.6381208955063L246.60399079048352,536.4453158385004L246.60399079048352,535.2524692180777L246.60399079048352,533.4631213465109L246.1818879508827,532.8666512695636L246.1818879508827,532.2701707984961L245.75978511128176,531.6736799327846L243.64927091327718,530.4806670151702L242.8050652340753,529.884144962205L242.38296239447436,529.2876125124058L241.96085955487354,529.884144962205L241.96085955487354,529.884144962205L239.4282425172679,529.884144962205L239.00613967766708,528.0945164200857L237.31772831926344,526.3047942917292L236.05141980046062,525.7081994494802L235.20721412125874,525.111594206559L231.4082885648504,525.111594206559L230.98618572524958,525.111594206559L230.56408288564865,525.111594206559L230.56408288564865,525.7081994494802L229.71987720644677,525.7081994494802L229.29777436684583,525.111594206559L229.29777436684583,524.5149785624562L229.29777436684583,523.9183525166263L228.8756715272449,523.9183525166263L228.8756715272449,523.3217160685126L228.03146584804313,519.7416789014023L227.6093630084422,516.7580284329124L227.18726016884125,515.5644953876181L226.34305448963948,514.3709207026768L226.34305448963948,513.7741177440003L226.34305448963948,513.1773043737703L225.92095165003843,513.1773043737703L225.4988488104376,512.5804805914631L225.07674597083667,512.5804805914631L222.1220260936302,510.78994676654474L221.69992325402927,510.19308133042796L221.69992325402927,510.19308133042796L220.8557175748274,509.59620547950544L218.74520337682281,506.0147316323346L218.32310053722188,504.22385406459944L217.05679201841917,504.22385406459944L215.79048349961636,503.626874035559L214.52417498081354,503.626874035559L213.25786646201084,503.626874035559L212.8357636224099,503.626874035559L212.41366078280896,502.43288271446L210.30314658480438,500.04477500507346L209.03683806600156,498.253584772021L207.77052954719886,497.65650051028933L206.50422102839605,496.46230070743695L205.23791250959334,495.26805919514663L204.8158096699924,493.47661871192395L204.8158096699924,492.282272906883L204.8158096699924,491.685084357865L204.8158096699924,491.0878853770955L204.8158096699924,491.0878853770955L204.39370683039158,491.0878853770955L203.12739831158876,490.49067596405075L201.438986953185,489.2962258389489L199.32847275518043,488.69898512578584L198.48426707597866,488.69898512578584L198.48426707597866,488.69898512578584L198.0621642363776,488.69898512578584L197.6400613967768,488.101733978172L196.7958557175749,486.9072003773472L196.37375287797397,486.9072003773472L196.37375287797397,486.9072003773472L195.10744435917127,486.30991792304485L193.84113584036845,485.71262503210164L193.84113584036845,485.71262503210164L193.41903300076763,485.71262503210164L192.1527244819648,486.9072003773472L190.886415963162,486.9072003773472L188.77590176515753,486.30991792304485L188.35379892555648,486.30991792304485L187.08749040675377,486.30991792304485L187.08749040675377,486.30991792304485L186.66538756715283,486.9072003773472L186.2432847275519,487.50447239552886L186.2432847275519,488.101733978172L186.66538756715283,488.69898512578584L186.66538756715283,488.69898512578584L186.2432847275519,488.69898512578584L186.2432847275519,488.69898512578584L185.82118188795096,487.50447239552886L185.82118188795096,487.50447239552886L186.2432847275519,486.9072003773472L186.2432847275519,486.30991792304485L186.2432847275519,485.71262503210164L185.82118188795096,485.71262503210164L182.44435917114367,485.11532170395003L178.64543361473534,484.51800793804796L176.11281657712982,483.3233490908424L173.5801995395243,482.1286484860975L171.46968534151972,482.1286484860975L169.78127398311597,482.72600400842566L168.09286262471232,484.51800793804796L167.6707597851114,485.11532170395003L165.13814274750587,487.50447239552886L163.44973138910223,488.69898512578584L162.60552570990035,488.69898512578584L161.76132003069847,488.69898512578584L160.9171143514966,488.69898512578584L159.65080583269378,488.69898512578584L159.22870299309295,487.50447239552886L158.38449731389107,484.51800793804796L157.96239447429014,482.1286484860975L157.5402916346893,479.14171425626046L155.00767459708368,478.54429608282953L152.47505755947827,479.14171425626046L152.47505755947827,479.14171425626046L152.05295471987722,479.14171425626046L152.05295471987722,479.73912198647304L152.05295471987722,480.33651927400206L149.09823484267088,481.53128252328315L146.1435149654643,481.53128252328315L144.45510360706066,482.1286484860975L143.6108979278589,482.1286484860975L142.34458940905608,482.72600400842566L141.92248656945515,483.3233490908424L141.50038372985432,483.3233490908424L139.81197237145057,484.51800793804796L138.12356101304692,486.30991792304485L136.01304681504234,486.9072003773472L135.5909439754414,486.9072003773472L135.16884113584058,486.9072003773472L133.48042977743683,487.50447239552886L133.48042977743683,488.101733978172L133.05832693783577,489.2962258389489L132.63622409823495,489.8934561181886L132.214121258634,489.8934561181886L132.214121258634,489.8934561181886L131.79201841903318,489.8934561181886L131.36991557943213,489.8934561181886L130.9478127398313,489.8934561181886L130.9478127398313,489.8934561181886L130.9478127398313,489.8934561181886L130.52570990023037,490.49067596405075L130.52570990023037,491.0878853770955L130.9478127398313,491.685084357865L131.36991557943213,492.282272906883L131.36991557943213,492.282272906883L131.36991557943213,492.8794510247317L131.36991557943213,493.47661871192395L130.9478127398313,494.6709227965839L130.10360706062943,495.26805919514663L129.6815042210285,495.26805919514663L128.4151957022258,495.26805919514663L127.14888718342297,495.86518516525393L126.3046815042211,496.46230070743695L126.3046815042211,496.46230070743695L125.46047582501922,497.65650051028933L125.03837298541839,497.65650051028933L124.61627014581745,497.65650051028933L124.19416730621651,497.65650051028933L123.77206446661557,497.65650051028933L123.34996162701464,497.65650051028933L121.661550268611,497.0594058222705L118.70683039140454,494.6709227965839L118.70683039140454,494.6709227965839L117.01841903300078,494.0737759690346L116.59631619339996,494.0737759690346L116.59631619339996,493.47661871192395L114.90790483499632,491.0878853770955L113.21949347659256,488.101733978172L113.21949347659256,488.101733978172L112.79739063699162,488.101733978172L110.2647735993861,485.71262503210164L109.42056792018423,484.51800793804796L108.15425940138152,481.53128252328315L107.73215656178058,480.93390611941504L105.621642363776,476.15451894606304L103.93323100537236,475.55704854835494L101.40061396776673,474.3620764129155L101.82271680736767,473.76457467407454L103.08902532617049,471.3744632318703L104.35533384497319,469.58176992366134L103.51112816577131,468.9841845843912L102.24481964696861,470.17934481097836L100.55640828856497,470.17934481097836L99.29009976976215,469.58176992366134L98.44589409056027,469.58176992366134L98.86799693016121,468.3865887925822L100.13430544896391,466.59373869658157L100.55640828856497,465.996101089233L101.40061396776673,464.2031255334041L101.40061396776673,463.6054461017193L100.97851112816579,463.0077562125771L100.13430544896391,462.41005586545725L99.71220260936309,461.81234505978864L99.29009976976215,460.61689207058953L98.86799693016121,460.61689207058953L98.44589409056027,460.0191498859931L96.75748273215663,457.0302820408979L95.49117421335382,454.0411526088101L95.06907137375299,452.8454275762306L95.49117421335382,451.6496606743931L95.91327705295475,451.6496606743931L96.3353798925558,451.6496606743931L96.3353798925558,451.0517615211138L96.3353798925558,451.0517615211138L95.91327705295475,449.2580012453036L95.91327705295475,448.6600602128674L95.49117421335382,448.06210870928044L95.49117421335382,448.06210870928044L93.38066001534924,445.67019797230023L91.6922486569456,445.67019797230023L90.42594013814278,445.07219410467223L89.58173445894101,444.474179762572L88.73752877973914,443.2781196528267L88.73752877973914,443.2781196528267L88.73752877973914,443.2781196528267L89.15963161933996,442.6800738840684L89.58173445894101,442.6800738840684L89.58173445894101,442.6800738840684L92.11435149654653,442.6800738840684L94.22486569455111,442.6800738840684L95.06907137375299,442.6800738840684L95.49117421335382,442.6800738840684L96.75748273215663,442.082017638666L99.71220260936309,440.28778603703904L102.66692248656955,438.4934601257628L103.08902532617049,438.4934601257628L103.51112816577131,437.8953305284158L103.51112816577131,437.8953305284158L104.35533384497319,435.5027073230267L104.35533384497319,433.70812984682925L104.35533384497319,433.70812984682925L104.35533384497319,433.10991638569976L103.93323100537236,433.10991638569976L103.93323100537236,432.51169243914774L103.93323100537236,431.91345800657655L103.93323100537236,431.31521308748415L103.93323100537236,431.31521308748415L103.08902532617049,430.7169576812812L101.82271680736767,430.1186917874329L100.13430544896391,429.52041540540813L99.29009976976215,428.9221285346175L98.86799693016121,428.9221285346175L98.44589409056027,428.9221285346175L97.60168841135851,428.32383117455174L97.60168841135851,428.32383117455174L95.49117421335382,427.1272049843101L94.64696853415205,426.528876153061L92.95855717574841,425.3321870155196L92.53645433614736,425.3321870155196L92.11435149654653,424.7338267081177L91.6922486569456,424.7338267081177L91.27014581734466,424.7338267081177L89.15963161933996,424.7338267081177L89.15963161933996,424.7338267081177L88.3154259401382,425.3321870155196L87.89332310053726,425.3321870155196L86.62701458173467,425.930536830303L84.93860322333092,426.528876153061L84.51650038372986,427.1272049843101L83.6722947045281,427.1272049843101L83.25019186492727,427.1272049843101L80.2954719877207,427.1272049843101L79.45126630851883,426.528876153061L79.45126630851883,426.528876153061L79.029163468918,426.528876153061L78.18495778971612,425.930536830303L78.18495778971612,425.930536830303L78.18495778971612,425.3321870155196L78.18495778971612,425.3321870155196L78.18495778971612,423.5370746133558L78.18495778971612,422.34028054160444L78.18495778971612,421.7418677629794L78.18495778971612,421.14344448845077L77.76285495011518,421.14344448845077L76.9186492709133,421.14344448845077L76.49654643131248,421.14344448845077L76.49654643131248,421.14344448845077L76.07444359171154,421.14344448845077L75.23023791250966,422.34028054160444L73.54182655410591,422.93868282487165L72.27551803530332,423.5370746133558L71.0092095165005,423.5370746133558L69.74290099769769,423.5370746133558L69.32079815809675,423.5370746133558L68.89869531849592,423.5370746133558L68.05448963929405,423.5370746133558L67.63238679969311,422.93868282487165L67.21028396009217,422.34028054160444L67.21028396009217,421.7418677629794L66.78818112049123,421.14344448845077L66.3660782808904,421.14344448845077L65.94397544128935,420.54501071749473L65.94397544128935,420.54501071749473L65.52187260168853,420.54501071749473L64.25556408288571,420.54501071749473L64.25556408288571,420.54501071749473L63.83346124328477,420.54501071749473L63.41135840368395,421.14344448845077L62.56715272448196,421.7418677629794L62.14504988488113,422.34028054160444L61.72294704528019,422.34028054160444L60.45663852647749,423.5370746133558L59.19033000767456,423.5370746133558L56.23561013046822,422.93868282487165L53.7029930928627,422.34028054160444L52.436684574059996,421.14344448845077L50.74827321565624,419.94656644952556L48.21565617805061,416.9541876354633L46.94934765924802,415.7571626115787L43.99462778204145,414.5600955820846L41.46201074443593,413.36298654255006L39.77359938603229,412.16583548862036L38.507290867229585,411.5672442048526L37.24098234842677,410.9686424158208L36.81887950882583,410.9686424158208L37.24098234842677,410.9686424158208L37.24098234842677,407.3768110403398L38.92939370683041,407.3768110403398L41.039907904835104,407.3768110403398L43.150422102839684,407.3768110403398L43.150422102839684,407.3768110403398L44.838833461243325,406.17944984811766L46.10514198004614,403.78460133659974L47.371450498848844,402.5871140084855L47.79355333844978,402.5871140084855L48.21565617805061,401.9883545744051L48.63775901765166,401.3895846262494L49.90406753645436,400.7908041634473L51.17037605525718,398.9943996817419L52.01458173445906,396.5990464677998L51.592478894858004,394.2035249490873L52.01458173445906,393.00570106437954L47.371450498848844,388.8129859846158L46.52724481964697,387.6149726626427L44.838833461243325,385.81787372330655L44.4167306216425,385.2188196862844L43.150422102839684,385.81787372330655L41.46201074443593,387.0159502109309L40.61780506523405,387.6149726626427L38.08518802762865,387.0159502109309L30.48733691481209,387.6149726626427L27.532617037605633,387.6149726626427L26.266308518802816,384.6197551197329L26.266308518802816,381.624274324462L26.688411358403755,381.0251465690344L26.688411358403755,379.8268594574147L27.110514198004807,378.02934977971745L27.110514198004807,377.4301588155249L27.532617037605633,377.4301588155249L28.376822716807396,374.43404593264495L28.376822716807396,373.8347917397841L28.376822716807396,373.2355270068765L28.376822716807396,373.2355270068765L31.331542594013968,372.03696591871994L33.86415963161937,371.4376695623505L34.28626247122031,371.4376695623505L37.66308518802771,370.23904522227895L40.19570222563323,367.8416700172893L41.039907904835104,366.64291914350906L41.88411358403687,366.04352788685355L43.57252494244062,365.4441260829517L44.838833461243325,364.24529083121524L45.6830391404452,363.6458573822565L45.6830391404452,363.0464133838577L46.10514198004614,361.84749373644445L46.52724481964697,361.24801808632037L46.94934765924802,361.24801808632037L46.52724481964697,360.6485318845407L46.52724481964697,360.6485318845407L46.94934765924802,358.250481549534L47.371450498848844,355.85226234338916L46.94934765924802,355.85226234338916L46.94934765924802,354.65308940255636L46.52724481964697,354.053487095749L46.10514198004614,352.8542508066166L46.10514198004614,352.8542508066166L45.6830391404452,352.25461682316745L44.838833461243325,351.65497227972446L42.728319263238745,352.25461682316745L40.19570222563323,353.45387423061766L39.77359938603229,353.45387423061766L39.35149654643135,353.45387423061766L37.66308518802771,353.45387423061766L37.24098234842677,353.45387423061766L36.39677666922489,353.45387423061766L35.552570990023014,352.8542508066166L35.13046815042219,352.8542508066166L34.28626247122031,351.65497227972446L33.86415963161937,351.65497227972446L30.909439754412915,350.4556515106815L30.48733691481209,349.85597528392464L30.909439754412915,349.85597528392464L31.753645433614793,347.45716474934306L31.753645433614793,347.45716474934306L31.753645433614793,346.8574357060279L31.753645433614793,346.8574357060279L31.753645433614793,346.8574357060279L30.909439754412915,345.65794592384555L27.95471987720657,343.85863200352105L25.422102839601052,343.2588395619605L25,343.2588395619605L25.422102839601052,343.2588395619605L25.84420567920199,342.6590365520897L26.266308518802816,342.05922297335565L26.266308518802816,342.05922297335565L26.266308518802816,339.65986295860057L26.688411358403755,337.86023194722657L27.110514198004807,336.06050577603673L27.532617037605633,333.06075065042023L29.221028396009274,331.8607745597765L30.06523407521115,331.2607706464223L30.48733691481209,329.4606954276096L31.331542594013968,326.4603584337019L31.753645433614793,325.86025928552044L31.331542594013968,325.26014955293067L30.48733691481209,325.26014955293067L30.06523407521115,325.26014955293067L30.48733691481209,325.26014955293067L30.909439754412915,324.6600292353578L31.331542594013968,324.059898332227L30.909439754412915,322.2594421040485L30.48733691481209,319.2584699610379L29.221028396009274,313.25573131435885L30.48733691481209,312.6553991802393L30.48733691481209,312.6553991802393L30.909439754412915,312.6553991802393L34.708365310821364,313.25573131435885L35.97467382962395,313.25573131435885L37.24098234842677,313.8560528523594L38.08518802762865,313.8560528523594L39.35149654643135,314.45636379479765L40.61780506523405,313.25573131435885L41.46201074443593,312.6553991802393L43.57252494244062,310.2539646715086L45.6830391404452,307.85236058036025L47.79355333844978,304.2496363986429L48.21565617805061,303.64914525594577L48.63775901765166,301.24707462930746L48.63775901765166,301.24707462930746L49.0598618572526,299.4454102850359L50.3261703760553,296.4424241918059L51.592478894858004,294.0398443095619L54.12509593246364,292.8384906869396L55.81350729086728,291.6370946040224L56.23561013046822,291.6370946040224L58.768227168073736,291.6370946040224L59.19033000767456,291.6370946040224L59.61243284727561,291.6370946040224L62.14504988488113,290.4356560563647L62.98925556408301,289.83492085685066L63.83346124328477,289.2341750394917L63.83346124328477,288.63341860369474L64.67766692248665,286.8310855802265L64.67766692248665,286.2302866651662L65.09976976208759,285.62947712888854L65.52187260168853,282.0243968345021L65.52187260168853,280.82261840802676L65.94397544128935,279.01987107008244L66.3660782808904,277.2170280808714L65.94397544128935,277.2170280808714L65.94397544128935,276.6160591593507L65.94397544128935,276.6160591593507L65.94397544128935,276.6160591593507L63.83346124328477,276.01507960767776L62.98925556408301,275.4140894252996L59.61243284727561,273.01002237745706L59.19033000767456,272.40897903310906L56.657712970069156,270.60578519343835L54.9693016116654,268.8024956320369L53.7029930928627,267.60024940490985L53.28089025326176,267.60024940490985L53.28089025326176,267.60024940490985L53.28089025326176,268.20137783747487L53.28089025326176,268.20137783747487L54.547198772064576,269.40360278918524L54.547198772064576,270.0046993094729L54.547198772064576,270.0046993094729L53.7029930928627,271.807925054698L51.592478894858004,274.2120771661612L49.90406753645436,275.4140894252996L48.21565617805061,276.01507960767776L47.79355333844978,276.01507960767776L46.94934765924802,274.2120771661612L46.94934765924802,272.40897903310906L46.10514198004614,271.20686044167087L45.260936300844264,270.60578519343835L45.260936300844264,270.60578519343835L45.260936300844264,270.60578519343835L47.371450498848844,266.99911033381795L47.371450498848844,266.39796062360256L47.79355333844978,265.7968002737216L47.79355333844978,265.195629283633L47.371450498848844,264.59444765274384L46.94934765924802,264.59444765274384L45.6830391404452,263.9932553805156L45.6830391404452,264.59444765274384L44.838833461243325,266.39796062360256L44.4167306216425,266.99911033381795L42.728319263238745,268.8024956320369L40.19570222563323,268.20137783747487L39.35149654643135,267.60024940490985L39.35149654643135,267.60024940490985L38.507290867229585,266.39796062360256L38.507290867229585,265.7968002737216L38.08518802762865,265.195629283633L38.08518802762865,263.3920524663954L38.507290867229585,261.58837986697836L38.507290867229585,259.18333404713485L38.507290867229585,256.77811788514737L38.507290867229585,255.57544591462647L38.507290867229585,254.97409395504292L38.92939370683041,254.3727313451418L38.92939370683041,254.3727313451418L39.77359938603229,254.3727313451418L40.61780506523405,254.3727313451418L44.4167306216425,255.57544591462647L44.838833461243325,256.1767872244818L46.10514198004614,258.5820459776078L46.94934765924802,259.18333404713485L49.0598618572526,256.77811788514737L51.17037605525718,256.1767872244818L51.592478894858004,256.1767872244818L52.01458173445906,255.57544591462647L51.592478894858004,251.96717439126223L51.592478894858004,251.36575852143505L51.17037605525718,250.1628948201942L51.17037605525718,250.1628948201942L50.74827321565624,249.56144698765638L50.3261703760553,249.56144698765638L49.0598618572526,247.7570395557159L49.0598618572526,247.15554909842467L49.0598618572526,246.55404798352174L49.0598618572526,246.55404798352174L49.48196469685354,245.95253621046504L49.90406753645436,245.95253621046504L50.3261703760553,245.95253621046504L51.17037605525718,245.95253621046504L51.17037605525718,245.95253621046504L51.17037605525718,245.95253621046504L51.17037605525718,247.15554909842467L51.17037605525718,247.15554909842467L51.17037605525718,247.7570395557159L51.17037605525718,247.7570395557159L52.01458173445906,247.15554909842467L52.436684574059996,247.15554909842467L53.28089025326176,246.55404798352174L53.28089025326176,245.95253621046504L52.85878741366082,244.74948068765661L52.85878741366082,244.74948068765661L49.90406753645436,244.1479369367771L48.21565617805061,244.74948068765661L46.52724481964697,245.95253621046504L46.10514198004614,245.95253621046504L45.6830391404452,245.95253621046504L44.838833461243325,244.1479369367771L44.4167306216425,244.1479369367771L44.4167306216425,243.54638252549194L43.99462778204145,242.94481745325174L43.150422102839684,241.74165532362167L40.19570222563323,239.93683215795318L38.92939370683041,239.33520310816675L38.08518802762865,239.33520310816675L37.66308518802771,239.33520310816675L37.24098234842677,239.33520310816675L37.24098234842677,239.33520310816675L36.39677666922489,239.93683215795318L36.39677666922489,239.33520310816675L35.97467382962395,238.73356339347083L35.97467382962395,238.73356339347083L35.97467382962395,237.53025196718954L36.39677666922489,236.92858025447276L36.81887950882583,236.32689787460913L37.66308518802771,235.72520482704567L38.08518802762865,235.12350111124033L39.35149654643135,235.72520482704567L40.19570222563323,235.12350111124033L41.039907904835104,233.92006167257205L41.46201074443593,230.91127634209624L41.46201074443593,228.50405597154895L42.30621642363781,224.89290515445828L43.150422102839684,220.67940999335042L43.150422102839684,220.67940999335042L43.57252494244062,220.07743938846397L44.4167306216425,219.4754581006855L45.6830391404452,219.4754581006855L46.10514198004614,219.4754581006855L46.10514198004614,219.4754581006855L46.52724481964697,220.07743938846397L46.52724481964697,220.07743938846397L47.371450498848844,220.07743938846397L47.371450498848844,219.4754581006855L47.79355333844978,218.87346612949477L48.21565617805061,218.27146347428425L48.63775901765166,218.27146347428425L50.3261703760553,217.66945013451186L50.74827321565624,217.0674261096392L51.17037605525718,216.46539139906236L51.17037605525718,215.26128991861697L50.3261703760553,213.45505754123587L49.90406753645436,212.25084917861022L50.3261703760553,212.25084917861022L52.01458173445906,212.85295870474147L52.85878741366082,214.05714568866097L54.547198772064576,214.05714568866097L54.9693016116654,214.05714568866097L57.079815809670094,215.26128991861697L59.19033000767456,217.0674261096392L59.19033000767456,217.0674261096392L60.878741366078316,216.46539139906236L61.30084420567937,216.46539139906236L62.56715272448196,217.66945013451186L63.41135840368395,218.27146347428425L65.09976976208759,220.07743938846397L67.21028396009217,221.2813699159451L69.32079815809675,222.48525771643835L71.43131235610133,223.68910279444026L73.96392939370696,224.29100931392531L74.80813507290873,224.89290515445828L76.07444359171154,224.89290515445828L77.34075211051436,226.09666480099258L77.34075211051436,226.09666480099258L77.34075211051436,224.89290515445828L77.76285495011518,224.29100931392531L78.18495778971612,223.68910279444026L78.60706062931706,223.08718559547924L80.71757482732164,220.07743938846397L82.82808902532622,217.66945013451186L83.6722947045281,215.26128991861697L85.36070606293185,212.25084917861022L86.62701458173467,211.0465980552326L87.47122026093643,209.84230416658102L87.89332310053726,209.24014118389096L88.73752877973914,208.63796750818074L89.15963161933996,208.63796750818074L89.58173445894101,209.24014118389096L90.84804297774372,209.24014118389096L92.53645433614736,208.63796750818074L93.38066001534924,208.63796750818074L93.80276285495017,208.63796750818074L94.22486569455111,208.03578313890466L94.22486569455111,204.42245232684218L94.22486569455111,203.8201930868272L94.22486569455111,202.61564251202435L94.64696853415205,202.0133511760905L94.64696853415205,202.0133511760905L94.64696853415205,202.0133511760905L94.64696853415205,202.0133511760905L95.91327705295475,202.0133511760905L95.91327705295475,202.0133511760905L96.3353798925558,202.0133511760905L96.3353798925558,202.0133511760905L97.17958557175757,200.20641296748727L97.60168841135851,198.39937844576707L97.60168841135851,197.7970121996441L97.60168841135851,197.7970121996441L97.60168841135851,196.59224759572317L98.02379125095945,195.989849236772L98.02379125095945,195.3874401724388L98.44589409056027,195.3874401724388L99.71220260936309,194.18258992527262L100.13430544896391,193.58014874134824L101.40061396776673,191.17027692337433L103.51112816577131,189.36276060774253L106.8879508825787,187.5551478876332L107.31005372217976,187.5551478876332L107.73215656178058,187.5551478876332L108.9984650805834,187.5551478876332L108.9984650805834,187.5551478876332L110.2647735993861,188.1576961735409L110.68687643898704,188.1576961735409L111.95318495778986,189.9652767571315L114.06369915579444,192.37523424993924L114.48580199539526,192.97769684976083L114.90790483499632,193.58014874134824L114.90790483499632,193.58014874134824L114.90790483499632,194.18258992527262L115.33000767459714,194.18258992527262L115.75211051419808,193.58014874134824L115.75211051419808,192.97769684976083L116.59631619339996,192.37523424993924L118.28472755180371,189.9652767571315L119.55103607060641,187.5551478876332L120.39524174980818,185.7474387477996L120.81734458940923,184.54224574720502L121.23944742901006,182.73437587396256L121.661550268611,181.5290757036455L121.661550268611,180.32373265752904L121.661550268611,178.51563768634514L121.23944742901006,177.91291791981348L120.39524174980818,176.7074462191922L120.39524174980818,176.1046942839639L120.39524174980818,174.89915824082345L120.39524174980818,174.89915824082345L120.39524174980818,174.29637413177988L121.23944742901006,173.6935792970071L124.19416730621651,174.29637413177988L127.57099002302391,174.29637413177988L127.99309286262474,174.29637413177988L130.52570990023037,173.09077373595937L131.36991557943213,171.88513043267085L131.79201841903318,170.67944421743596L131.79201841903318,170.07658501640253L131.79201841903318,169.4737150857036L131.79201841903318,168.26794303295537L131.79201841903318,167.6650409097747L132.214121258634,166.45920446701712L133.90253261703776,167.6650409097747L136.85725249424422,168.8708344247425L137.27935533384505,169.4737150857036L137.27935533384505,170.07658501640253L137.27935533384505,172.4879574480292L137.27935533384505,175.50193162468713L137.27935533384505,176.1046942839639L137.27935533384505,176.7074462191922L137.70145817344599,176.7074462191922L138.9677666922487,176.1046942839639L139.81197237145057,176.1046942839639L140.65617805065244,175.50193162468713L142.34458940905608,175.50193162468713L144.45510360706066,175.50193162468713L145.29930928626254,174.89915824082345L147.40982348426712,173.09077373595937L147.83192632386806,170.67944421743596L147.40982348426712,168.8708344247425L147.40982348426712,168.26794303295537L147.40982348426712,167.6650409097747L148.67613200306982,167.06212805466203L149.09823484267088,167.6650409097747L150.36454336147358,167.6650409097747L151.20874904067546,168.26794303295537L152.47505755947827,168.8708344247425L153.74136607828098,170.07658501640253L154.58557175748285,171.28229268933865L155.85188027628567,171.88513043267085L157.5402916346893,172.4879574480292L159.65080583269378,173.09077373595937L160.49501151189565,173.6935792970071L160.49501151189565,173.09077373595937L162.1834228702994,173.09077373595937L162.1834228702994,175.50193162468713L163.44973138910223,176.1046942839639L163.87183422870305,176.7074462191922L164.71603990790493,176.7074462191922L164.71603990790493,176.7074462191922L166.82655410590962,175.50193162468713L168.51496546431326,173.6935792970071L170.2033768227169,172.4879574480292L172.73599386032242,172.4879574480292L172.73599386032242,172.4879574480292L173.5801995395243,172.4879574480292L174.846508058327,173.09077373595937L175.26861089792794,173.09077373595937L175.69071373752888,173.09077373595937L175.69071373752888,173.09077373595937L176.53491941673076,172.4879574480292L176.9570222563317,171.88513043267085L178.2233307751344,168.26794303295537L178.64543361473534,167.6650409097747L178.64543361473534,167.06212805466203L179.06753645433628,165.85627014629063L179.06753645433628,165.85627014629063L179.06753645433628,164.65036930333736L179.91174213353804,161.6354293273871L179.91174213353804,161.03240912164256L180.3338449731391,159.82633649502168L180.75594781273992,159.22328407304667L182.44435917114367,158.62022091117979L183.28856485034544,159.22328407304667L187.08749040675377,158.62022091117979L190.886415963162,159.82633649502168L192.1527244819648,159.82633649502168L193.41903300076763,159.22328407304667L196.37375287797397,157.41406236557668L198.9063699155795,158.01714700887533L200.1726784343823,155.6047439839458L201.438986953185,153.19216906664224L202.28319263238689,151.9858171370106L202.70529547198782,151.3826250524835L203.12739831158876,151.3826250524835L203.12739831158876,151.3826250524835L203.5495011511896,151.3826250524835L203.97160399079053,151.3826250524835L207.34842670759792,149.57298431317395L208.1926323867997,147.76324683340135L208.1926323867997,147.76324683340135L208.1926323867997,147.15997950629753L208.1926323867997,147.15997950629753L208.1926323867997,145.35011301544728L208.1926323867997,143.54014974842357L207.77052954719886,142.3334537983137L208.1926323867997,141.12671482522273L208.61473522640074,140.5233292036355L210.30314658480438,138.71310779194755L210.30314658480438,138.71310779194755L210.72524942440532,138.71310779194755L211.14735226400626,138.71310779194755L211.56945510360708,137.50623972270114L212.8357636224099,136.29932861231646L213.67996930161178,135.09237445626422L214.10207214121272,134.48888123467987L215.36838066001553,133.28186250159706L216.63468917881823,132.0748007114853L218.32310053722188,130.26412728444848L220.01151189562552,128.45335695353424L221.27782041442833,127.84974530638283L222.9662317728321,127.24612288987919L222.9662317728321,127.24612288987919L223.3883346124329,126.03884574645781L223.81043745203385,126.03884574645781L223.81043745203385,126.03884574645781L223.3883346124329,125.43519101843776L223.81043745203385,125.43519101843776L224.2325402916348,125.43519101843776L225.4988488104376,125.43519101843776L225.92095165003843,125.43519101843776L226.7651573292403,124.83152551876628L227.18726016884125,124.22784924687949L227.18726016884125,124.22784924687949L227.18726016884125,123.62416220221348L227.18726016884125,123.62416220221348L227.18726016884125,122.41675579228104L227.6093630084422,121.81303642586136L228.03146584804313,121.81303642586136L228.45356868764395,121.20930628441056L228.8756715272449,120.60556536732474L228.8756715272449,120.60556536732474L229.29777436684583,120.60556536732474L229.71987720644677,120.60556536732474L229.71987720644677,120.60556536732474L230.1419800460476,120.60556536732474L231.4082885648504,122.41675579228104L232.2524942440523,123.02046438420803L232.2524942440523,123.02046438420803L233.518802762855,123.02046438420803L236.05141980046062,122.41675579228104L237.73983115886426,121.20930628441056L239.85034535686896,120.60556536732474L242.8050652340753,118.79427795666561L244.91557943208,117.58669912769983L246.1818879508827,116.98289354495864L247.4481964696854,114.56756341225264L247.4481964696854,113.9637039257941L247.87029930928634,112.75595260500268L247.87029930928634,112.75595260500268L247.87029930928634,112.75595260500268L248.71450498848822,112.75595260500268L249.5587106676901,113.35983365691209L252.0913277052955,112.75595260500268L252.51343054489644,112.75595260500268L252.51343054489644,111.54815814986068L256.3123561013048,110.94424474550033L257.15656178050665,110.3403205558352L257.5786646201075,110.3403205558352L258.0007674597085,105.50853869973434L258.42287029930935,104.90451741683864L259.26707597851123,102.48832436965677L260.111281657713,100.07195863026573L260.111281657713,99.4678402079735L260.53338449731405,98.25957097450373L260.53338449731405,97.65542016216932L260.95548733691487,96.44708614346382L261.3775901765158,95.84290293594677L261.3775901765158,95.84290293594677L261.79969301611675,96.44708614346382L261.79969301611675,96.44708614346382L262.2217958557177,96.44708614346382L263.06600153491945,96.44708614346382L263.4881043745205,96.44708614346382L265.17651573292414,97.65542016216932L266.44282425172696,98.86371098958989L267.70913277052966,99.4678402079735L271.5080583269379,99.4678402079735L271.5080583269379,99.4678402079735L272.3522640061399,98.25957097450373L274.0406753645435,97.05125855201914L274.46277820414434,98.25957097450373L274.8848810437454,99.4678402079735L276.57329240214904,101.8842491261239L276.99539524174986,102.48832436965677L277.4174980813508,102.48832436965677L277.83960092095185,106.11254919223211L278.2617037605527,106.71654889486672L280.7943207981583,107.3205378082348L282.48273215656195,107.3205378082348L282.9048349961628,106.71654889486672L282.9048349961628,106.71654889486672L283.3269378357637,106.71654889486672L283.74904067536454,106.71654889486672L285.4374520337684,107.3205378082348L285.85955487336923,107.92451593290025L286.7037605525712,108.52848326941239L287.12586339217205,108.52848326941239L287.547966231773,108.52848326941239L287.9700690713738,107.92451593290025L288.39217191097487,107.3205378082348L288.8142747505757,106.11254919223211L288.8142747505757,104.90451741683864L288.8142747505757,104.3004853429411L289.23637759017663,103.69644247748874L289.65848042977746,103.09238881993224L289.65848042977746,102.48832436965677L290.50268610897933,102.48832436965677L290.9247889485804,102.48832436965677L293.03530314658497,103.69644247748874L294.3016116653878,105.50853869973434L295.14581734458966,106.71654889486672L295.5679201841905,106.71654889486672L295.9900230237914,106.71654889486672L297.2563315425941,106.71654889486672L298.1005372217959,106.71654889486672L298.52264006139694,106.71654889486672L298.94474290099777,106.71654889486672L298.94474290099777,106.71654889486672L299.3668457405987,106.71654889486672L300.6331542594015,105.50853869973434L301.05525709900235,104.3004853429411L301.8994627782042,101.8842491261239L301.8994627782042,100.67606625701228L301.8994627782042,100.07195863026573L301.4773599386034,99.4678402079735L302.32156561780516,98.25957097450373L303.58787413660787,97.65542016216932L307.3867996930163,98.25957097450373L309.07521105141996,98.25957097450373L311.1857252494244,98.25957097450373L312.8741366078282,98.25957097450373L313.71834228703005,97.65542016216932L313.71834228703005,96.44708614346382L313.71834228703005,95.23870892891136L313.71834228703005,92.82182489400657L312.8741366078282,91.00904844478282L312.0299309286262,90.4047680209369L311.1857252494244,90.4047680209369L310.34151957022254,89.80047679242853L309.4973138910208,88.59186191915069L309.07521105141996,87.98753827323526L308.6531082118189,87.38320382035818L308.6531082118189,86.77885855997738L309.07521105141996,86.77885855997738L309.07521105141996,86.77885855997738L309.07521105141996,86.77885855997738L310.34151957022254,85.57013561434724L313.71834228703005,83.15256000779118L314.56254796623193,82.54813907878633L314.56254796623193,80.73481141700904L315.82885648503475,78.92138643104045L316.2509593246356,78.92138643104045L318.783576362241,77.10786410547007L319.62778204144297,77.71238236377758L320.47198772064485,77.71238236377758L321.73829623944766,78.92138643104045L322.1603990790485,79.52587224110175L322.5825019186494,80.13034723623787L323.84881043745213,81.94370733769756L326.38142747505754,82.54813907878633L327.64773599386035,82.54813907878633L328.0698388334614,82.54813907878633L328.91404451266317,82.54813907878633L329.3361473522642,82.54813907878633L329.75825019186505,81.33926478396825L329.75825019186505,80.73481141700904L328.49194167306234,79.52587224110175L328.0698388334614,79.52587224110175L328.0698388334614,77.10786410547007L328.91404451266317,74.08511054408518L329.75825019186505,72.87593338295846L330.6024558710668,72.27132857084143L333.55717574827327,70.45744920142897L335.66768994627796,71.06208648065513L336.5118956254797,71.06208648065513L336.9339984650808,71.06208648065513L337.77820414428265,72.27132857084143L337.77820414428265,72.27132857084143L340.31082118188806,71.6667129369198L341.15502686108994,71.06208648065513L342.8434382194937,70.45744920142897L342.8434382194937,70.45744920142897L343.2655410590945,71.06208648065513L343.68764389869557,71.06208648065513L344.1097467382964,72.27132857084143L344.53184957789733,73.48052737384205Z" style="fill: none; stroke: rgb(8, 48, 107);"><title>CORREZE</title></path><g stroke="#000" stroke-opacity="0.2"><path d="M0,-13.34775705149959L2.9967581703553763,-4.1246837657014135L12.69447132175327,-4.124683765701414L4.848856575698947,1.5754890056530315L7.845614746054325,10.798562291451207L8.881784197001252e-16,5.098389520096762L-7.845614746054323,10.798562291451208L-4.848856575698946,1.5754890056530328L-12.694471321753271,-4.124683765701411L-2.9967581703553776,-4.124683765701413Z" transform="translate(480.4489639293939,176.1046942839639)rotate(17.21406793662692)" fill="white" class="commune"><title>19275 Population : 9782</title></path><path d="M0,-15.873247654971056L3.5637661381291506,-4.905103281308338L15.096355617026989,-4.905103281308339L5.766294739448918,1.873582735131148L9.330060877578072,12.841727108793865L8.881784197001252e-16,6.063041092354379L-9.330060877578068,12.841727108793867L-5.766294739448918,1.8735827351311491L-15.09635561702699,-4.905103281308335L-3.563766138129152,-4.905103281308337Z" transform="translate(251.66922486569467,342.6590365520897)rotate(5.670938790126366)" fill="white" class="commune"><title>19272 Population : 14453</title></path><path d="M0,-22.448162112566994L5.039926405668234,-6.936863585267022L21.349470856006818,-6.936863585267023L8.154772225169292,2.649646114250548L13.19469863083753,18.16094464155052L8.881784197001252e-16,8.574434942032948L-13.194698630837525,18.160944641550522L-8.154772225169292,2.649646114250549L-21.34947085600682,-6.936863585267019L-5.0399264056682345,-6.936863585267021Z" transform="translate(148.67613200306982,420.54501071749473)rotate(14.461182886422804)" fill="white" class="commune"><title>19031 Population : 47004</title></path></g><text class="text" y="25" x="326" text-anchor="middle" font-size="24" font-family="Helvetica" fill="#6baed6">19 - CORREZE</text><line x1="155.5423381939115" y1="415.3526124398011" x2="244.803018674853" y2="347.85143482978333" stroke="yellow" opacity="0.35" stroke-width="2"/><line x1="266.9212074699413" y1="331.5554137342146" x2="465.1969813251473" y2="187.20831710183896" stroke="yellow" opacity="0.35" stroke-width="2"/><line x1="458.33077513430567" y1="192.40071537953264" x2="170.79432079815808" y2="404.248989621926" stroke="yellow" opacity="0.35" stroke-width="2"/></svg>