<svg viewBox="0,0,955,1146" width="955" height="1146" style="width: 100%; height: auto;" xmlns="http://www.w3.org/2000/svg" xmlns:xlink="http://www.w3.org/1999/xlink"><rect width="955" height="1146" fill="black"/><g stroke="#000" stroke-opacity="0.2"><path d="M0,-18.876579049491834L4.238056047668955,-5.833183721955068L17.952693510379785,-5.833183721955069L6.857318731355415,2.2280779191642193L11.095374779024372,15.271473246700983L8.881784197001252e-16,7.210211605581696L-11.095374779024368,15.271473246700985L-6.857318731355414,2.2280779191642206L-17.952693510379788,-5.833183721955065L-4.238056047668956,-5.833183721955068Z" transform="translate(560.9657772621811,362.1697118270786)rotate(21.97707234145585)" fill="white" class="commune"><title>76217 Population : 29606</title></path><path d="M0,-26.69551410299918L5.993516340710753,-8.249367531402827L25.38894264350654,-8.249367531402829L9.697713151397894,3.150978011306063L15.69122949210865,21.597124582902413L1.7763568394002505e-15,10.196779040193524L-15.691229492108645,21.597124582902417L-9.697713151397892,3.1509780113060657L-25.388942643506542,-8.249367531402822L-5.993516340710755,-8.249367531402825Z" transform="translate(564.1154292343388,752.4105952222235)rotate(20.203808861688767)" fill="white" class="commune"><title>76540 Population : 110117</title></path><path d="M0,-31.746495309942112L7.127532276258301,-9.810206562616676L30.192711234053977,-9.810206562616678L11.532589478897837,3.747165470262296L18.660121755156144,25.68345421758773L1.7763568394002505e-15,12.126082184708759L-18.660121755156137,25.683454217587734L-11.532589478897837,3.7471654702622983L-30.19271123405398,-9.81020656261667L-7.127532276258304,-9.810206562616674Z" transform="translate(64.37064965197212,706.3667817298592)rotate(21.330488190563482)" fill="white" class="commune"><title>76351 Population : 170352</title></path></g><text class="text" y="40" x="427.5" text-anchor="middle" font-size="36" font-family="Helvetica" fill="#6baed6">76 - SEINE MARITIME</text><line x1="527.8594354215005" y1="385.1161831539306" x2="97.4769914926527" y2="683.4203104030072" stroke="yellow" opacity="0.35" stroke-width="2"/><line x1="97.68696829079656" y1="709.4363692960168" x2="530.7991105955143" y2="749.3410076560659" stroke="yellow" opacity="0.35" stroke-width="2"/><line x1="563.9054524361949" y1="726.3945363292138" x2="561.175754060325" y2="388.1857707200882" stroke="yellow" opacity="0.35" stroke-width="2"/></svg>