<svg viewBox="0,0,955,1146" width="955" height="1146" style="width: 100%; height: auto;" xmlns="http://www.w3.org/2000/svg" xmlns:xlink="http://www.w3.org/1999/xlink"><rect width="955" height="1146" fill="black"/><g stroke="#000" stroke-opacity="0.2"><path d="M0,-15.873247654971056L3.5637661381291506,-4.905103281308338L15.096355617026989,-4.905103281308339L5.766294739448918,1.873582735131148L9.330060877578072,12.841727108793865L8.881784197001252e-16,6.063041092354379L-9.330060877578068,12.841727108793867L-5.766294739448918,1.8735827351311491L-15.09635561702699,-4.905103281308335L-3.563766138129152,-4.905103281308337Z" transform="translate(683.7827145465612,770.1135332994709)rotate(27.966991454286486)" fill="white" class="commune"><title>51649 Population : 12552</title></path><path d="M0,-18.876579049491834L4.238056047668955,-5.833183721955068L17.952693510379785,-5.833183721955069L6.857318731355415,2.2280779191642193L11.095374779024372,15.271473246700983L8.881784197001252e-16,7.210211605581696L-11.095374779024368,15.271473246700985L-6.857318731355414,2.2280779191642206L-17.952693510379788,-5.833183721955065L-4.238056047668956,-5.833183721955068Z" transform="translate(320.2404138770544,511.2886381375138)rotate(29.237647417888414)" fill="white" class="commune"><title>51230 Population : 23084</title></path><path d="M0,-22.448162112566994L5.039926405668234,-6.936863585267022L21.349470856006818,-6.936863585267023L8.154772225169292,2.649646114250548L13.19469863083753,18.16094464155052L8.881784197001252e-16,8.574434942032948L-13.194698630837525,18.160944641550522L-8.154772225169292,2.649646114250549L-21.34947085600682,-6.936863585267019L-5.0399264056682345,-6.936863585267021Z" transform="translate(566.4576993304931,572.5794573322419)rotate(18.581111247233892)" fill="white" class="commune"><title>51108 Population : 44980</title></path><path d="M0,-31.746495309942112L7.127532276258301,-9.810206562616676L30.192711234053977,-9.810206562616678L11.532589478897837,3.747165470262296L18.660121755156144,25.68345421758773L1.7763568394002505e-15,12.126082184708759L-18.660121755156137,25.683454217587734L-11.532589478897837,3.7471654702622983L-30.19271123405398,-9.81020656261667L-7.127532276258304,-9.810206562616674Z" transform="translate(379.7291539866101,330.2502399844707)rotate(3.455021816298953)" fill="white" class="commune"><title>51454 Population : 183113</title></path></g><text class="text" y="40" x="427.5" text-anchor="middle" font-size="36" font-family="Helvetica" fill="#6baed6">51 - MARNE</text><line x1="375.7632379793064" y1="342.3194665280069" x2="324.20632988435807" y2="499.21941159397755" stroke="yellow" opacity="0.35" stroke-width="2"/><line x1="344.4765672550215" y1="528.543631148311" x2="659.5465611685942" y2="752.8585402886737" stroke="yellow" opacity="0.35" stroke-width="2"/><line x1="675.9610468654901" y1="756.9445949016556" x2="574.2793670115643" y2="585.7483957300572" stroke="yellow" opacity="0.35" stroke-width="2"/><line x1="554.0091296409009" y1="556.4241761757238" x2="392.1777236762023" y2="346.40552114098875" stroke="yellow" opacity="0.35" stroke-width="2"/></svg>