<svg viewBox="0,0,954,1144.8" width="954" height="1144.8" style="width: 100%; height: auto;" xmlns="http://www.w3.org/2000/svg" xmlns:xlink="http://www.w3.org/1999/xlink"><rect width="954" height="1144.8" fill="black"/><path d="M782.8091858460916,490.32960872396507L784.7339551860487,489.76927156931924L785.46720064889,489.9093562818525L787.2086586231371,490.0494407117876L788.766805231674,489.0688437675999L792.4330325458786,488.088232975897L793.9911791544155,487.52787773461023L796.2825712257936,485.8467848788787L797.8407178343305,485.00622318869137L799.490520125722,483.88545844010514L799.3988644428669,483.60526442639093L800.1321099057081,482.9047744454874L802.515157659941,481.22356965844665L802.9734360742168,481.0834674220605L803.340058805637,480.8032621012462L803.9816485856231,480.8032621012462L804.2566156341882,480.66315901680355L807.5562202169722,482.9047744454874L806.2730406570008,486.5472451814421L806.4563520227111,487.38778821776214L809.66430092264,487.24769841825764L809.66430092264,487.38778821776214L812.2306600425832,487.38778821776214L812.2306600425832,488.92875735948473L813.3305282368447,489.0688437675999L813.3305282368447,489.34901573607203L813.9721180168303,489.34901573607203L814.1554293825407,488.5084964394555L814.9803305282371,488.92875735948473L815.163641893947,488.5084964394555L815.5302646253672,488.5084964394555L815.8052316739327,488.3684089008675L819.288147622427,494.5319932706916L821.3045726452397,494.5319932706916L819.288147622427,498.1738541863597L830.2868295650405,502.0956446797936L841.1022001419442,506.85752114442585L844.6767717732941,513.1595027386575L833.8614011963905,521.9813165058004L834.0447125621004,522.4013749313817L834.0447125621004,523.3815013797212L833.4947784649703,526.4618087635172L832.8531886849842,529.2619696854526L834.3196796106658,529.54197957008L836.2444489506229,530.2419993440708L837.8942512420153,530.3820024524102L840.735577410524,530.9420120644645L841.1022001419442,531.222015177671L841.1022001419442,531.6420177314867L842.0187569704958,531.6420177314867L846.509885430396,532.6220138160861L847.5180979418024,532.7620121282889L848.4346547703535,532.6220138160861L849.3512115989051,532.9020101583301L849.9928013788904,533.0420079063115L850.9093582074415,532.9020101583301L851.0926695731519,532.7620121282889L851.4592923045725,531.9220180234188L855.4921423501978,533.1820053721385L856.9586332758795,533.8819884697805L861.4497617357802,535.4219264598796L865.2076447328395,536.6818503368268L866.7657913413764,536.8218404683212L867.7740038527832,537.3817981737011L870.6153300212914,538.6416865102947L872.1734766298282,510.6387787158674L873.3650005069453,510.6387787158674L875.5647368954678,509.7985170454049L876.6646050897293,508.11796320806025L877.2145391868598,507.4177204411244L880.5141437696439,506.85752114442585L882.3472574267462,508.11796320806025L882.255601743891,509.7985170454049L880.7891108182093,510.9188636804538L877.7644732839904,510.9188636804538L876.481293724019,513.0194649150944L876.481293724019,513.1595027386575L877.9477846497007,513.2995402799206L878.2227516982662,514.9799687534032L880.055865355368,514.6999001643853L883.5387813038628,514.9799687534032L885.005272229545,514.9799687534032L885.0969279123997,514.9799687534032L885.0969279123997,513.9997237511707L885.6468620095302,511.6190711507152L885.6468620095302,509.5184275629217L887.6632870323429,506.2973173292703L889.2214336408802,505.316949779939L890.7795802494165,503.49623047321074L893.6209064179252,504.3365683919983L894.079184832201,504.75673353851744L894.1708405150562,507.27767104053055L893.4375950522149,511.33898900964414L893.254283686505,511.8991521623175L892.7043495893745,513.0194649150944L893.1626280036498,513.1595027386575L892.3377268579538,514.5598654463683L890.5046132008515,518.340703744092L889.9546791037205,518.2006763657628L889.40474500659,520.5811034084836L889.8630234208654,521.2812134851702L890.4129575179968,522.4013749313817L890.8712359322717,523.241484162354L892.7960052722292,525.2016995243248L893.254283686505,524.7816580317667L894.079184832201,528.2819262013873L893.9875291493458,528.2819262013873L894.3541518807665,529.6819840891912L894.629118929332,530.3820024524102L894.9957416607522,531.9220180234188L894.9957416607522,533.8819884697805L894.8124302950418,534.7219588775624L896.0956098550132,535.1419402732281L895.8206428064486,535.7019115182047L895.8206428064486,535.8419036242194L894.7207746121867,536.5418599232289L895.1790530264625,537.3817981737011L894.629118929332,537.6617753340106L895.5456757578827,539.201629548792L894.9957416607522,539.7615680746167L896.553888269289,541.441356577081L896.8288553178545,541.0214132587789L897.2871337321299,541.5813371191107L897.1954780492747,541.5813371191107L897.7454121464057,542.1412564672064L899.1202473892322,541.0214132587789L900.0368042177834,542.0012770532121L900.8617053634794,543.1211044690353L901.6866065091754,545.080759019489L903.3364088005678,546.2005368055688L904.1613099462634,545.2207322296672L905.1695224576702,545.9205940508691L905.7194565548002,545.080759019489L906.4527020176415,545.5006778040624L907.002636114772,544.8008117532372L908.7440940890197,545.9205940508691L908.0108486261784,547.1803275652346L909.5689952347152,547.0403583026055L910.3022406975565,547.1803275652346L912.0436986718032,548.3000715162925L912.5936327689342,548.3000715162925L913.9684680117607,549.1398676380559L914.0601236946159,549.5597618928223L914.4267464260365,549.6997260805365L914.1517793774715,550.2595800122654L914.5184021088917,550.8194294333007L914.4267464260365,550.8194294333007L915.3433032545877,552.2190332522223L913.1435668660652,555.0181563225706L915.0683362060222,556.4176755771477L915.6182703031532,556.557625952395L914.6100577917464,557.9571142035638L914.5184021088917,559.0766845124745L914.2434350603262,559.7764067963144L914.3350907431818,559.7764067963144L914.2434350603262,559.916350407635L915.7099259860079,560.7560061576296L915.8932373517187,561.0358891531941L916.8097941802698,561.595651762771L917.7263510088205,562.575225480563L918.001318057386,564.9541327415063L918.3679407888067,564.8141992743695L918.5512521545165,566.2135212668072L919.5594646659233,566.0735903354071L919.5594646659233,565.3739314523336L921.1176112744597,565.2339988304811L921.3009226401696,566.2135212668072L924.600527222954,565.9336591222964L924.7838385886644,565.9336591222964L924.6921829058097,566.0735903354071L924.1422488086787,567.1930298978259L924.5088715400993,568.8721554341537L923.6839703944033,569.431854931383L922.950724931562,570.5512404040637L922.2174794687216,570.9710053083545L921.7592010544458,571.5306879037962L921.7592010544458,571.8105275114358L920.7509885430395,574.1891186865396L919.651120348778,577.2671746738924L919.0095305687919,578.1066208320844L918.001318057386,580.2051918750076L916.8097941802698,581.4643040892843L913.5101895974854,584.5420379331481L912.9602555003548,585.2415038933977L912.1353543546584,585.8010715940327L911.127141843252,586.9201934823868L910.7605191118319,587.7595230751976L908.8357497718744,590.5572151963206L906.9109804319169,593.0750418425159L907.7358815776133,595.5927773017975L908.8357497718744,598.3901542088206L909.8439622832807,601.8867170667145L911.7687316232382,601.1874185630659L914.3350907431818,599.7888004542838L915.9848930345734,599.2293453325838L919.1011862516475,597.5509529553092L920.476021494474,596.5718720229052L921.2092669573149,598.250288036681L920.6593328601843,598.6698857089141L921.3925783230252,599.6489370958952L920.476021494474,600.3482510740869L919.4678089830677,603.2852929735018L919.651120348778,603.8447154589667L919.3761533002125,603.9845703770043L921.2092669573149,606.5019107979169L922.6757578829965,608.0402406329376L927.4418533914632,610.4175925263771L929,611.1167982025509L928.5417215857242,611.815996847683L928.2667545371587,611.955835733017L923.3173476629827,611.815996847683L923.0423806144172,612.0956743371062L921.7592010544458,612.0956743371062L918.7345635202269,611.955835733017L917.17641691169,612.0956743371062L915.4349589374428,612.5151884620063L913.6018452803401,612.6550259411961L912.5936327689342,612.5151884620063L912.501977086079,612.9347000559137L910.4855520632668,615.8712103480502L909.0190611375847,617.6889879094233L906.7276690662065,620.9049395016264L905.4444895062352,622.4429507338864L905.5361451890903,622.5827682500894L904.1613099462634,623.1420355038572L904.8945554091047,625.6586824881524L904.9862110919598,625.6586824881524L905.8111122376558,628.315044394978L904.9862110919598,628.5946555355986L904.8028997262495,630.5519020435022L904.8945554091047,631.9499015402835L903.3364088005678,632.3692959096152L903.4280644834225,632.9284844679642L902.6948190205817,632.9284844679642L902.6948190205817,635.5845687239998L902.2365406063063,635.7243598224522L902.4198519720162,637.8211925839714L900.5867383149143,638.1007655093636L901.2283280949005,638.6599079888474L899.8534928520735,638.9394775430046L899.1202473892322,639.4986132801569L898.9369360235219,639.4986132801569L897.6537564635505,640.1975266307927L896.4622325864339,640.7566522548077L895.5456757578827,641.7351112818651L894.2624961979113,641.7351112818651L894.2624961979113,641.8748900192368L890.1379904694309,642.4340021598546L889.40474500659,642.8533333159357L884.455338132414,645.5090386008815L884.0887154009929,645.6488097545662L883.4471256210077,645.7885806274207L883.4471256210077,646.4874307788341L879.6892426239478,646.4874307788341L879.6892426239478,645.3692671663084L875.8397039440333,644.8101786195111L873.9149346040754,644.530632660877L873.731623238365,647.465809195317L874.3732130183512,647.465809195317L874.281557335496,648.863468776537L873.8232789212207,650.1213383894574L873.5483118726552,649.9815762223661L873.3650005069453,651.9382210086915L876.206326675453,651.9382210086915L877.0312278211495,656.5500945488529L876.8479164554392,656.6898435197436L877.4895062354253,660.1834765572421L879.2309642096725,661.8603580996496L883.080502889587,661.0219223807799L882.8971915238772,658.6462996356349L883.3554699381525,658.6462996356349L883.2638142552973,657.2488365958707L886.930041569502,656.9693406192819L887.205008618067,659.0655330736045L887.8465983980532,661.0219223807799L890.8712359322717,661.1616623689697L890.9628916151269,662.5590468134324L890.9628916151269,663.6769341608451L890.5962688837067,668.2880296142612L886.6550745209365,668.4277550089464L887.1133529352123,673.3179670549434L886.0134847409508,673.4576823489188L885.7385176923854,670.8030437879424L884.9136165466894,670.8030437879424L885.005272229545,670.9427641320508L882.3472574267462,671.2222039784829L882.255601743891,669.9647158312364L879.6892426239478,669.8249935230924L879.6892426239478,668.9866537817434L877.1228835040051,669.1263777734785L877.1228835040051,670.3838810722154L874.6481800669167,670.3838810722154L874.4648687012063,668.5674801230707L873.4566561898005,669.1263777734785L871.4402311669874,670.5236022580284L870.4320186555815,673.4576823489188L869.607117509885,674.575394601241L869.8820845584505,674.994532066994L869.7904288755954,675.1342439945292L869.0571834127545,674.994532066994L868.6905606813339,677.2298892448744L867.4990368042177,677.0901815251273L864.2910879042884,683.0973601983133L863.1912197100273,685.7515297745631L862.8245969786071,688.8246522933041L860.7165162729393,688.5452831266812L860.4415492243738,690.2214813043174L859.2500253472572,690.3611626634229L859.5249923958227,694.830818133174L857.4169116901553,695.1101620689878L857.5085673730096,697.205205849401L853.2007502788197,697.3448731924509L855.4004866673422,702.652024553463L851.5509479874277,704.8864935391321L851.734259353138,705.1657971186432L850.359424110311,706.003701132584L849.9928013788904,704.8864935391321L847.7014093075127,705.3054484881359L848.0680320389333,705.8640511640915L846.4182297475413,707.4001854078306L845.410017236135,706.4226493570168L843.6685592618878,707.8191252269971L842.2937240190608,708.9362857510059L843.8518706275981,710.4723521956839L842.1104126533505,711.8687468219723L842.385379701916,712.1480223857798L839.360742167697,712.5669336305436L838.0775626077257,712.5669336305436L840.0939876305383,714.2425533999267L838.4441853391463,716.0577626349186L835.0529250735067,713.2651134362677L831.2033863935922,717.8729245374197L833.0365000506945,719.5484165931557L829.8285511507652,723.4577412414219L827.0788806651117,722.0615790680749L824.9707999594443,720.2465263813865L824.3292101794582,719.9672833061777L822.4960965223563,723.1785110467608L822.2211294737908,723.0388955294402L821.5795396938047,724.2954251057527L819.013180573862,722.8992797320898L817.2717225996148,725.4123212458871L813.9721180168303,729.4609195556914L811.9556929940177,727.6460597726546L809.2060225083646,731.9737242338015L807.9228429483928,734.0676588572314L806.2730406570008,735.7427612161046L805.9064179255802,735.8823512602685L805.4481395113048,737.8365824942666L805.53979519416,738.394924201275L804.8065497313187,740.6282462580639L802.2401906113755,739.6511766723343L801.3236337828248,739.7907588811722L799.9487985399978,739.7907588811722L798.1156848828955,740.3490849183072L797.565750785765,740.3490849183072L796.3742269086483,740.7678265082577L795.2743587143868,740.6282462580639L794.4494575686908,739.6511766723343L793.8078677887047,739.5115941837212L791.7914427658925,738.1157539074338L791.516475717327,738.394924201275L791.241508668762,738.2553391942856L791.1498529859068,738.394924201275L790.5999188887758,738.2553391942856L790.5082632059211,738.394924201275L790.1416404745,738.394924201275L788.5834938659641,738.5345089284383L788.0335597688327,738.6740933758192L787.666937037412,738.9532614310592L786.2921017945855,739.232428366995L784.4589881374836,739.5115941837212L783.6340869917872,739.9303408101623L783.1758085775123,740.3490849183072L782.9008415289463,739.9303408101623L782.717530163236,739.9303408101623L782.6258744803808,739.6511766723343L782.3509074318158,739.6511766723343L781.9842847003952,739.3720114152602L781.5260062861198,739.232428366995L781.4343506032646,738.6740933758192L780.7927608232785,738.1157539074338L780.5177937747135,737.5574099617806L780.3344824090032,737.5574099617806L780.3344824090032,737.2782363099468L780.1511710432928,737.2782363099468L780.0595153604381,736.9990615387651L779.2346142147421,736.7198856482064L777.8597789719151,736.0219410245336L777.4931562404945,735.7427612161046L777.4015005576398,735.7427612161046L776.8515664605084,735.3239894045473L776.3932880462335,735.1843982409628L776.118320997668,734.9052150742136L775.0184528034065,734.6260307880584L773.8269289262903,734.6260307880584L773.64361756058,735.0448067975376L771.4438811720565,735.6031708921219L771.3522254892023,735.6031708921219L771.2605698063467,735.1843982409628L770.8939470749265,735.1843982409628L770.0690459292305,735.7427612161046L767.5026868092868,736.8594737334206L767.1360640778666,736.9990615387651L767.0444083950115,736.0219410245336L766.5861299807361,734.4864382251399L766.2195072493155,734.346845382388L763.9281151779373,736.0219410245336L762.8282469836763,736.4407086383071L762.8282469836763,736.8594737334206L761.7283787894148,736.8594737334206L760.2618878637327,736.4407086383071L759.1620196694716,736.580297283188L759.2536753523268,737.8365824942666L759.0703639866169,737.9761683407851L757.8788401095003,737.4178232757986L757.0539389638038,739.0928450389329L754.670891209571,737.2782363099468L753.2960559667445,736.3011197135565L752.5628105039032,736.4407086383071L749.2632059211192,734.20725225973L747.246780898307,732.1133218345713L747.0634695325966,732.1133218345713L745.0470445097835,730.1589299523621L745.3220115583495,729.8797266334732L744.1304876812328,728.6232978421831L743.397242218392,727.5064532144097L742.1140626584197,726.5291994679428L742.0224069755654,726.6688079858504L739.1810808070568,723.4577412414219L736.1564432728378,719.4087937954318L735.7898205414172,718.1521760138421L734.1400182500256,718.0125504156385L727.9990874987325,716.7559074294986L725.0661056473687,716.337021392952L722.2247794788605,715.6388723973141L718.8335192132208,714.1029199597106L718.4668964818002,715.3596108385173L716.0838487275673,714.5218194401023L716.0838487275673,714.5218194401023L715.0756362161615,714.1029199597106L714.800669167596,714.8010843599186L714.3423907533202,715.4992417579415L714.0674237047551,715.9181328358027L713.7008009733345,716.197392153983L712.6925884619286,715.6388723973141L711.3177532191016,718.571051128114L710.3095407076953,720.9446291689237L710.7678191219707,721.3634874812269L708.8430497820136,724.0161982709251L708.0181486363172,725.5519320035382L707.7431815877526,725.5519320035382L707.651525904897,725.8311526788675L706.8266247592005,725.6915424811887L706.2766906620705,725.4123212458871L705.9100679306498,724.9934872931699L705.9100679306498,724.4350381032054L704.9018554192435,723.8765844335503L703.0687417621411,723.1785110467608L701.9688735678801,722.8992797320898L701.7855622021698,722.8992797320898L699.952448545067,722.2011965454003L699.5858258136468,722.2011965454003L698.852580350806,721.9219613107416L695.1863530366013,730.0193284328561L694.2697962080506,729.6005221948799L692.9866166480788,732.392516196458L693.5365507452088,733.5092824484236L692.4366825509478,735.6031708921219L691.978404136672,736.8594737334206L691.2451586738312,737.6969963679585L691.1535029909764,737.6969963679585L690.7868802595558,738.1157539074338L690.053634796715,739.232428366995L689.7786677481495,738.9532614310592L689.228733651019,740.2095038287443L686.8456858967857,737.2782363099468L685.379194971104,735.7427612161046L684.1876710939873,734.346845382388L681.8962790226096,736.0219410245336L679.4215755855216,737.1386490642908L677.4968062455641,736.3011197135565L676.7635607827233,735.7427612161046L676.1219710027376,735.1843982409628L670.8975970799956,730.7173332311722L670.5309743485759,730.2985311919256L668.6978606914731,730.5777328313197L668.5145493257628,730.9965331911008L668.1479265943422,731.275732031354L667.2313697657914,729.8797266334732L666.7730913515156,728.7629021609173L665.1232890601241,729.8797266334732L664.8483220115581,729.4609195556914L663.2901754030213,730.5777328313197L661.457061745919,728.0648777678216L659.807259454527,726.110372234376L657.607523066004,724.8538754156616L651.3749366318566,729.8797266334732L649.7251343404641,731.275732031354L647.8920206833623,735.8823512602685L651.5582479975665,745.6529590014034L650.3667241204503,746.2112380363615L647.5253979519416,746.6299443752796L644.8673831491433,747.0486481966072L641.659434249214,747.886048286593L635.7934705464868,750.3981881381405L630.2941295751798,752.2124550055596L628.4610159180775,753.3289034311892L626.7195579438308,754.5848865160442L624.886444286728,755.7012969088028L623.6032647267566,756.2594953939042L621.7701510696538,757.3758789420244L620.0286930954071,758.9108771010651L617.9206123897393,761.2830804393743L613.7044509784037,763.9342709098564L610.58815776133,766.1667740861958L609.0300111527931,767.4225256766294L606.0053736185741,770.7710859037034L605.2721281557338,771.4686823555603L600.0477542329922,774.9565598213376L595.4649700902362,778.7232713314443L589.5073507046538,784.8611796374244L585.6578120247391,788.6273556421293L579.9751596877218,794.206501436347L579.0586028591708,795.4617476711064L578.0503903477643,796.856439186362L577.2254892020683,797.8327066357815L574.0175403021392,801.0403462308677L572.4593936936024,802.2954693545835L567.5099868194261,805.2240020560639L565.2185947480484,800.6219668319827L567.1433640880059,799.2273506915299L567.5099868194261,798.8089604059642L570.5346243536449,797.1353741392159L567.6932981851364,792.2538512293177L566.7767413565855,791.2775056026585L566.2268072594543,790.8590675740998L569.0681334279632,788.069416488579L571.7261482307615,786.6745490551621L571.3595254993409,785.6981252340265L571.4511811821958,785.5586349995501L570.9929027679207,784.4427030684528L571.176214133631,784.3032103201767L570.7179357193552,783.1872582782598L570.9012470850655,783.1872582782598L570.6262800365002,782.3502825149917L571.176214133631,782.2107855767536L569.8013788908042,779.1417822599178L570.4429686707899,778.8627752536704L569.3431004765284,776.630678971931L569.5264118422385,776.4911705794802L568.9764777451078,775.2355824739425L569.2514447936735,775.0960712873493L568.6098550136874,773.700944053242L568.7015106965425,773.561429792986L567.0517084051505,770.0734824651227L566.3184629423097,768.1201556663509L567.8766095508465,767.0039443287242L568.5181993308327,767.2829988401572L568.8848220622529,767.5620522335666L568.8848220622529,767.2829988401572L568.4265436479775,764.6319358395849L568.8848220622529,764.9109998547283L568.8848220622529,764.7714679869387L569.7097232079489,764.6319358395849L569.6180675250939,763.9342709098564L569.7097232079489,763.9342709098564L569.5264118422385,761.5621578729915L571.7261482307615,761.4226192959686L572.1844266450373,761.1435413031722L572.5510493764577,760.5853819626573L572.2760823278923,759.6085923528881L571.8178039136164,759.6085923528881L571.9094595964716,758.6317890431164L572.4593936936024,755.1430939495476L572.5510493764577,753.0497930027632L572.7343607421676,753.0497930027632L572.3677380107474,747.7464823042465L571.3595254993409,747.7464823042465L567.5099868194261,747.0486481966072L567.3266754537158,748.0256139892299L566.043495893744,747.886048286593L561.827334482409,747.0486481966072L561.2774003852783,746.9090805359083L561.2774003852783,746.7695125954779L560.2691878738719,746.7695125954779L558.8026969481903,747.0486481966072L557.5195173882189,747.0486481966072L557.9777958024938,745.0946754905235L552.2951434654772,743.0010724592648L552.1118320997671,743.2802231670648L550.1870627598094,742.5823442992769L546.7041468113152,741.1865655799702L544.6877217885024,744.6759599199504L544.1377876913718,744.2572418316122L544.2294433742268,744.2572418316122L542.4879853999794,742.7219206323716L543.5878535942411,741.6053021335174L545.3293115684883,738.6740933758192L546.6124911284599,736.0219410245336L546.8874581770253,735.0448067975376L546.9791138598803,734.20725225973L547.0707695427357,732.6717094387714L546.8874581770253,729.0421099586238L546.9791138598803,728.2044832062966L547.5290479570108,725.6915424811887L547.8040150055763,725.1330988907066L546.7958024941702,724.574650820643L546.6124911284599,724.4350381032054L546.0625570313291,723.1785110467608L545.9709013484737,721.7823432733712L545.6959342999089,721.0842488863855L545.3293115684883,720.3861474989608L545.0543445199228,719.6880391108571L544.5960661056477,717.8729245374197L544.5044104227923,716.8955355481885L544.5960661056477,715.6388723973141L544.3210990570822,714.6614520400763L542.9462638142554,712.706570151895L541.4797728885735,710.6119929188935L539.9216262800364,707.958771273079L539.4633478657606,707.6794789007836L538.4551353543545,706.9812430670936L536.4387103315423,705.0261454690117L535.7971205515562,704.1882296868498L535.4304978201355,703.4899588294356L534.6055966744398,702.7916809666494L534.0556625773092,702.372710886375L531.7642705059311,701.5347631596451L529.5645341174084,700.1381611961624L526.90651931461,698.8811954676348L526.7232079488999,698.6018666673044L526.3565852174793,697.9035397617772L521.5904897090136,696.6465336744004L520.9488999290274,696.7862021385881L519.5740646862007,696.6465336744004L519.0241305890702,696.5068649299428L515.1745919091554,694.830818133174L513.4331339349083,694.4118001271418L512.1499543749367,694.1324533882071L509.12531684071746,694.1324533882071L505.8257122579339,693.5737565465242L502.15948494372947,693.4340816353142L501.1512724323227,693.1547309718808L500.0514042380612,692.8753791871422L499.40981445807574,692.4563494075264L499.0431917266553,692.0373171049214L497.7600121666835,690.3611626634229L496.93511102098773,689.3833872621399L497.3017337524079,686.7293562058549L494.27709621818894,687.1484204703593L494.6437189496098,684.0752239253634L496.93511102098773,672.6193863767548L500.1430599209166,664.2358710987828L499.77643718949594,660.7424415623536L494.8270303153199,652.2177371997896L494.55206326675443,652.4972522677417L493.6355064382035,653.7550561751123L487.67788705262114,660.4629596211817L485.01987224982236,663.2577285105071L485.01987224982236,664.3756046316194L484.65324951840216,665.6331937983487L480.25377674135643,664.3756046316194L477.1374835242825,663.1179927324338L474.112845990064,662.4193096320232L472.73801074723724,661.8603580996496L471.3631755044105,661.1616623689697L468.61350501875677,660.1834765572421L464.21403224171127,658.3668092734224L461.464361756058,657.38858416312L459.44793673324557,664.5153378838149L459.26462536753525,664.5153378838149L456.88157761330217,666.4715739475869L455.5067423704754,667.3099439943544L452.9403832505325,668.2880296142612L452.2071377876914,668.4277550089464L452.75707188482215,673.3179670549434L452.665416201967,674.8548198589197L451.015613910575,675.4136670079752L450.28236844773437,675.2739556415254L449.3658116191825,675.8327994242645L448.9075332049074,674.4356815515785L448.2659434249215,673.0385356252955L446.6161411335297,670.3838810722154L445.51627293926776,669.1263777734785L443.4081922336004,667.0304884345751L442.3999797221941,665.9126549706198L442.03335699077365,666.4715739475869L440.10858765081593,667.7291252293944L438.09216262800373,668.9866537817434L436.2590489709012,669.8249935230924L436.35070465375657,669.8249935230924L435.892426239481,670.2441596057906L435.25083645949485,670.3838810722154L434.0593125823789,670.5236022580284L433.69268985095823,670.6633231633023L433.05110007097255,670.9427641320508L432.13454324242116,671.781080304565L430.48474095102915,672.3399521415995L429.2015613910578,673.5973973623404L429.3848727567679,674.1562546106579L428.65162729392705,674.2959682214059L427.09348068539,674.8548198589197L423.61056473689564,676.6710566827533L422.87731927405457,676.9504735248702L422.1440738112135,676.251929315833L421.68579539693815,675.8327994242645L419.6693703741255,675.8327994242645L417.1946669370375,675.4136670079752L411.6953259657307,675.4136670079752L410.5038020886143,675.2739556415254L409.86221230862816,675.4136670079752L408.3040657000911,676.3916387186837L407.38750887154015,677.2298892448744L407.4791645543951,678.0681296729308L405.3710838487277,680.722491078981L403.81293724019065,679.4651746135423L402.62141336307445,678.9063600031441L396.93876102605714,676.251929315833L395.8388928317959,675.9725096686234L395.28895873466513,674.994532066994L394.55571327182406,672.759103073513L394.6473689546792,671.3619234808721L392.3559768833013,668.8469295094619L390.33955186048865,666.052385135823L389.3313393490828,664.6550708553914L388.41478252053116,663.956403191085L387.7731927405457,663.5371992247165L380.1657710635711,653.4755461610985L376.49954374936624,648.4441738508685L374.20815167798855,649.0032331901093L370.17530163236347,650.2611002757549L367.7922538781304,650.959905495074L365.225894758187,651.239425617212L364.2176822467809,651.239425617212L359.90986515259056,650.5406232058594L359.3599310554598,650.1213383894574L358.4433742269084,649.0032331901093L355.4187366926901,647.6055764171833L354.4105241812838,646.9067374994993L353.3106559870223,646.2078915608145L353.127344621312,645.7885806274207L352.21078779276104,644.3908592602966L351.93582074419555,644.1113116164779L350.7442968670789,642.294224546029L350.0110514042383,643.4124375916581L348.81952752712164,644.3908592602966L348.63621616141154,644.8101786195111L348.4529047957012,645.2294954509125L348.2695934299909,645.5090386008815L347.16972523572963,645.5090386008815L346.3448240900336,646.3476613102393L345.7948899929029,646.6271999665987L343.9617763358008,647.326041692635L343.2285308729597,646.4874307788341L342.7702524586841,645.7885806274207L342.31197404440877,643.2726619440364L337.3625671702323,643.8317628491786L337.08760012166704,641.5953322635469L336.6293217073912,641.7351112818651L336.44601034168113,640.8964329585069L336.44601034168113,640.7566522548077L335.25448646456493,640.6168712701838L334.52124100172387,640.7566522548077L333.6046841731725,641.8748900192368L332.77978302747647,644.530632660877L332.3215046132011,644.3908592602966L331.0383250532295,644.2510855788496L330.76335800466404,644.3908592602966L330.3967352732434,644.6704057806346L329.6634898104028,644.9499511775066L327.9220318361554,646.6271999665987L326.73050795903896,647.1862739090866L326.2722295447634,646.766968873475L323.9808374733857,643.1328860155627L323.4309033762545,642.0146684757201L323.61421474196527,641.8748900192368L322.60600223055894,640.3373084581835L322.33103518199346,640.4770900046205L321.5977897191524,638.9394775430046L320.86454425631155,637.9609791871262L320.5895772077465,638.1007655093636L316.46507147926604,632.788687749875L314.99858055358436,631.2509053045942L313.5320896279022,628.8742655520255L313.07381121362687,629.1538744442878L312.6155327993513,628.5946555355986L312.43222143364096,628.8742655520255L308.4910270708708,625.5188711560695L308.85764980229146,624.6799972607623L307.1161918280445,622.4429507338864L303.26665314812976,619.7863645122998L303.81658724526005,617.9686417781923L304.09155429382577,616.4305315819947L304.9164554395213,613.773715650801L304.366521342391,613.6338804213374L302.9000304167089,612.9347000559137L300.0587042482007,610.837116775816L299.7837371996352,610.4175925263771L297.2173780796918,611.815996847683L298.04227922538826,613.3542091188065L295.29260873973453,615.1720524789125L292.72624961979136,617.129676797842L293.6428064483423,618.807596636645L288.14346547703553,621.1845804376208L283.8356483828452,622.8624024392266L286.6769745513536,625.6586824881524L283.56068133427993,627.0567803501326L280.4443881172058,628.0354321301638L276.68650512014597,630.6917032577476L277.8780289972626,634.0468480969357L277.6947176315523,634.3264361943002L277.8780289972626,634.4662298215262L275.76994829159503,638.3803373109622L275.58663692588493,638.9394775430046L275.1283585116089,642.0146684757201L275.2200141944643,650.2611002757549L273.5702119030723,649.8418137744884L272.37868802595585,650.1213383894574L271.8287539288251,650.4008618811931L271.46213119740446,650.680384249732L270.08729595457817,652.6370093805308L269.62901754030213,653.4755461610985L269.5373618574472,653.7550561751123L267.88755956605496,652.916522763815L265.9627902260977,651.239425617212L264.95457771469137,650.5406232058594L264.4046436175606,651.0996656965217L263.02980837473433,653.3357907329482L262.5715299604583,654.4538262967762L262.29656291189326,654.3140728339786L261.5633174490522,655.0128373404586L258.3553685491231,657.2488365958707L256.6139105748757,658.2270636712637L254.68914123491868,658.5065545948746L254.68914123491868,658.2270636712637L255.60569806346984,656.8295922098623L255.7890094291797,656.4103452972704L255.51404238061468,653.7550561751123L255.69735374632478,652.4972522677417L256.3389435263107,652.2177371997896L256.5222548920208,652.2177371997896L256.6139105748757,652.0779792446556L256.98053330629637,650.5406232058594L257.3471560377168,649.8418137744884L257.98874581770247,649.2827611748289L257.98874581770247,648.863468776537L258.81364696339847,648.0248763977434L259.9135151576602,647.6055764171833L260.0968265233705,647.465809195317L260.0051708405151,647.326041692635L259.54689242623954,646.766968873475L257.89709013484753,645.5090386008815L254.68914123491868,644.530632660877L254.9641082834837,642.8533333159357L254.7807969177736,642.8533333159357L254.87245260062878,642.1544466513369L255.05576396633865,642.1544466513369L255.05576396633865,641.7351112818651L255.14741964919403,639.4986132801569L254.68914123491868,636.0039411764374L254.32251850349803,633.9070536267973L254.2308628206431,632.5090934706968L251.57284801784476,632.5090934706968L250.74794687214853,632.3692959096152L248.45655480077085,631.390705113743L247.1733752407988,631.2509053045942L247.90662070363987,628.315044394978L249.64807867788727,628.7344606843544L251.02291392071402,628.7344606843544L251.02291392071402,628.0354321301638L250.93125823785886,627.8956255762023L250.8396025550037,626.6373539427805L251.29788096927928,626.7771630262869L251.4811923349896,625.2392476486275L251.57284801784476,625.2392476486275L252.12278211497528,624.4003703802373L253.4059616749471,621.1845804376208L254.50582986920836,619.6465413734913L256.4305992091656,609.0191600803155L260.0051708405151,597.4110850948855L259.1802696948191,596.991479825163L258.44702423197805,596.0123910135662L257.5304674034271,595.033288412953L256.98053330629637,595.1731610572751L254.2308628206431,594.0541720227557L253.22265030923654,593.4946707512499L252.39774916354077,592.6554104008319L251.11456960356895,592.3756546991426L251.3895366521342,591.9560190357442L250.8396025550037,591.3965008775049L250.19801277501801,590.9768593034896L247.53999797221945,589.9976857795045L246.62344114366851,590.8369782159134L245.24860590084177,590.4173332643113L245.15695021798638,591.256620634289L243.78211497516008,591.1167401096391L242.8655581466087,592.235776426096L241.49072290378194,590.8369782159134L241.21575585521668,590.2774510508607L240.94078880665143,589.438151859089L239.6576092466796,588.7387281252159L238.55774105241812,587.7595230751976L237.82449558957728,587.4797476702806L238.19111832099793,586.5005248856323L237.54952854101225,580.9047014764874L236.90793876102634,580.4849965603498L236.17469329818528,580.2051918750076L236.0830376153301,580.0652891099526L235.4414478353442,579.3657710609186L234.70820237250337,578.6662459720246L233.97495690966252,577.5469911864129L232.96674439825642,576.7075382694748L232.50846598398084,575.4483398843149L231.86687620399516,575.0286020198546L229.8504511811825,574.04920381189L229.20886140119637,573.3496252137556L228.75058298692102,572.7899572653623L228.01733752407995,572.5101216011972L227.65071479265976,572.090365992357L226.7341579641086,571.2508471694891L226.45919091554333,571.1109263797553L221.78475108993212,571.1109263797553L216.37706580148028,570.8310839552942L214.26898509581292,570.9710053083545L213.90236236439227,571.950446892748L213.62739531582702,572.3702033465815L210.14447936733245,575.5882519425431L209.8695123187672,575.7281637191045L207.76143161309983,575.3084275444853L206.56990773598318,575.4483398843149L205.9283179559975,575.4483398843149L205.37838385886675,575.3084275444853L204.18685998175033,574.6088616205889L200.24566561898018,575.8680752140644L197.40433945047153,576.9873570349155L197.9542735476025,579.3657710609186L199.05414174186353,584.5420379331481L199.97069857041492,584.5420379331481L200.33732130183535,587.8994103553923L197.1293724019065,588.7387281252159L195.84619284193445,589.1583832099786L196.12115989050017,589.2982676752872L197.3126837676166,589.9976857795045L197.58765081618185,589.9976857795045L197.8626178647471,590.5572151963206L193.55480077055677,592.9351649767414L195.20460306194877,595.8725200576882L191.9966541620197,596.991479825163L190.53016323633778,596.8516108391632L189.98022913920727,596.8516108391632L187.23055865355377,597.1313485298087L187.4138700192641,597.5509529553092L185.39744499645167,597.8306878320291L185.3057893135965,598.5300200995407L183.56433133934934,598.5300200995407L181.9145290479571,598.6698857089141L181.5479063165369,598.6698857089141L179.98975970799984,597.9705548483253L177.60671195376676,597.1313485298087L175.77359829666466,598.1104215831947L173.48220622528652,597.1313485298087L172.74896076244568,597.1313485298087L171.92405961674945,597.4110850948855L171.4657812024741,596.5718720229052L170.457568691068,596.8516108391632L169.81597891108208,594.8934154871749L168.62445503396543,593.9142971270339L167.7078982054145,594.8934154871749L165.23319476832648,591.256620634289L165.04988340261616,590.1375685559397L164.6832606711955,590.5572151963206L163.58339247693425,589.0184984632288L163.0334583798035,589.5780357614203L160.83372199128075,591.5363808392431L160.10047652843969,591.9560190357442L157.71742877420684,593.7744219498927L158.35901855419274,594.3339209699698L158.90895265132326,594.613668791404L160.65041062557043,596.0123910135662L161.10868903984624,596.2921320810492L161.3836560884115,596.7117415717075L158.08405150562726,598.8097510368752L157.35080604278664,599.5090734561381L156.98418331136577,599.2293453325838L154.14285714285734,603.005580042809L155.0594139714085,606.6417603711525L155.60934806853925,610.6972756405739L153.77623441143692,610.5574342241162L153.86789009429208,610.5574342241162L152.67636621717566,610.13790828723L152.49305485146533,610.837116775816L151.02656392578342,610.4175925263771L150.659941194363,611.3964785043208L141.21940586028632,609.7183798190526L139.38629220318398,608.4597792265849L137.91980127750207,607.201155851275L129.6707898205416,615.3118846151046L123.9881374835245,609.1590045905687L121.51343404643649,611.3964785043208L115.73912602656401,604.8236939777053L115.18919192943349,605.5229559088839L114.82256919801307,604.5439872360657L114.54760214944758,605.1033995941107L114.18097941802716,604.9635469265413L114.36429078373726,604.6838407475589L113.0811112237659,604.1244250137679L113.44773395518632,603.4251490168754L112.16455439521474,603.4251490168754L112.07289871235957,603.7048602595751L111.24799756666357,603.1454366488106L111.15634188380841,603.2852929735018L109.5065395924164,602.5860085367822L107.58177025245914,601.3272788264803L107.30680320389342,601.3272788264803L107.39845888674881,601.1874185630659L106.02362364392206,600.3482510740869L103.73223157254415,599.3692095350489L104.09885430396457,598.949616083497L102.81567474399299,598.3901542088206L103.45726452397867,596.8516108391632L104.19050998681973,595.4529055016828L104.92375544966058,593.9142971270339L105.19872249822583,592.9351649767414L105.01541113251551,589.9976857795045L105.19872249822583,589.1583832099786L106.02362364392206,587.7595230751976L106.20693500963239,587.199971139351L106.20693500963239,586.2207444135493L105.65700091250164,585.2415038933977L104.64878840109532,584.2622495783216L104.2821656696749,583.282981467848L102.26574064686247,581.0446025520723L99.6077258440639,578.8061515529844L98.04957923552683,577.8268065724696L97.22467808983083,577.2671746738924L96.3081212612799,576.9873570349155L95.39156443272873,576.2878080090813L93.92507350704682,575.3084275444853L92.36692689850975,573.7693732176194L91.45037006995881,573.2097086491631L90.07553482713183,571.950446892748L89.52560073000132,571.6706078484858L87.96745412146424,571.1109263797553L86.22599614721707,569.9915499212948L83.93460407583916,568.3124514295487L83.38466997870864,568.0325977369575L80.54334381019999,567.1930298978259L79.9017540302143,567.1930298978259L79.16850856737324,567.332958575309L78.4352631045324,567.4728869711107L75.6855926188789,566.7732421749533L73.76082327892141,565.9336591222964L71.83605393896391,564.394397182492L70.91949711041298,564.114527712416L68.81141640474539,564.114527712416L67.52823684477357,563.834657115287L65.32850045625082,563.2749125398113L64.50359931055482,563.2749125398113L62.94545270201775,563.554785391083L62.39551860488723,563.6947213940512L61.570617459191226,564.2544625883165L59.92081516779899,563.974592554754L59.737503802088895,563.834657115287L58.91260265639289,563.834657115287L57.35445604785582,563.6947213940512L56.162932170739396,564.2544625883165L54.87975261076781,564.9541327415063L53.87154009936171,565.3739314523336L53.77988441650632,565.6537958508052L54.054851465071806,566.9131716976262L53.96319578221687,567.332958575309L48.00557639663407,567.0531009386177L46.72239683666248,567.332958575309L44.06438203386415,568.3124514295487L43.23948088816837,568.7322298555519L41.8646456453414,569.7117029897126L35.44874784548347,574.6088616205889L30.22437392274196,578.2465275394643L28.299604582784468,576.1478973590492L28.75788299706005,575.5882519425431L27.016425022812882,574.1891186865396L26.008212511406555,573.3496252137556L26.92476933995772,572.3702033465815L25.000000000000227,569.1520057461457L26.28317955997204,568.7322298555519L26.28317955997204,568.0325977369575L26.466490925682137,567.6128150851728L28.574571631349954,565.5138637924247L29.03285004562531,565.2339988304811L29.12450572848047,565.5138637924247L29.216161411335634,565.5138637924247L29.491128459900892,565.0940659268526L29.85775119132154,565.3739314523336L31.1409307512929,563.4148491063534L30.957619385582802,563.1349756915297L31.415897799858158,562.7151634559996L36.731927405454826,558.6568477603141L37.190205819730636,558.7967936261994L38.47338537970222,557.5372706875132L35.08212511406282,555.2980624283591L34.34887965122198,555.4380150584766L34.257223968366816,555.4380150584766L34.623846699787464,555.1581095163856L33.89060123694662,553.8985206246653L35.08212511406282,553.7585648940003L35.26543647977314,553.1987391525035L35.63205921119379,552.918824590437L36.91523877116515,552.07907413887L37.83179559971654,551.2393135390084L38.2900740139919,550.9593910837866L38.2900740139919,550.5395052866152L37.923451282571705,550.5395052866152L38.2900740139919,548.5800046846343L38.106762648281574,548.3000715162925L37.64848423400622,548.0201372202064L37.923451282571705,547.6002336615056L38.47338537970222,547.0403583026055L37.64848423400622,547.1803275652346L37.098550136875474,547.0403583026055L35.63205921119379,546.7604189314152L35.26543647977314,546.4804784324224L34.99046943120766,546.7604189314152L34.80715806549756,546.4804784324224L34.257223968366816,546.6204488228832L33.982256919801785,546.3405077599891L33.523978505525974,546.4804784324224L33.157355774105554,546.3405077599891L33.06570009125039,546.4804784324224L32.69907735982997,546.4804784324224L32.97404440839523,545.9205940508691L33.157355774105554,544.5208633590955L33.34066713981565,544.2409138369694L33.89060123694662,543.9609631869534L34.07391260265672,543.8209874389722L34.07391260265672,543.5410350969469L33.79894555409146,542.9811270290447L33.89060123694662,542.2812355991846L34.165568285511654,542.0012770532121L34.5321910169323,541.7213173791315L35.44874784548347,541.7213173791315L35.90702625975905,541.5813371191107L36.54861603974473,540.6014674022881L36.54861603974473,540.0415356453159L36.27364899117947,539.0616442122555L36.82358308830999,538.0817389590156L36.82358308830999,537.3817981737011L36.64027172259989,537.2418091704676L36.64027172259989,536.9618303177485L38.74835242826748,535.9818954481889L39.29828652539845,535.2819335075765L39.664909256818646,535.0019467567472L40.30649903680455,534.7219588775624L41.49802291392098,534.8619529582211L41.6813342796313,534.5819645148513L42.047957011051494,533.7419924144415L41.58967859677614,533.0420079063115L41.49802291392098,532.6220138160861L41.406367231065815,531.9220180234188L41.49802291392098,531.3620163110681L42.32292405961698,529.9619922809215L42.6895467910374,528.9819586722151L44.06438203386415,527.581886676453L44.15603771671931,527.0218499774055L43.972726351009214,526.0417748901818L44.06438203386415,525.0616859756847L44.06438203386415,524.5016289590349L44.24769339957447,523.6615349678323L44.52266044813973,523.5215183148612L44.88928317956038,523.241484162354L45.71418432525638,523.3815013797212L46.72239683666248,522.8214308168681L47.27233093379323,522.8214308168681L47.36398661664839,522.5413938421334L47.27233093379323,522.2613557384175L46.814052519517645,522.1213362632407L46.53908547095239,521.841296466162L46.63074115380755,521.141192034338L46.814052519517645,520.8611482859051L47.913920713779135,520.4410805463776L48.46385481090988,520.0210102666242L48.8304775423303,518.340703744092L49.28875595660588,518.0606487052137L49.8386900537364,517.9206207623356L50.6635911994324,517.0804471773299L52.863327587955155,515.4000695196592L53.2299503193758,514.9799687534032L53.59657305079622,514.419830446066L53.77988441650632,514.419830446066L53.96319578221687,515.1200026244769L54.054851465071806,515.2600362132362L54.97140829362297,515.2600362132362L55.70465375646404,514.9799687534032L56.071276487884234,514.419830446066L56.25458785359456,513.7196512096489L56.43789921930488,513.4395775388475L57.537767413566144,512.4593107974288L57.81273446213163,511.75911179769173L57.81273446213163,511.33898900964414L58.45432424211731,510.078605398332L58.45432424211731,509.0982912214604L59.737503802088895,507.97791521946783L59.82915948494406,506.85752114442585L59.462536753523636,505.316949779939L59.5541924363788,504.75673353851744L59.92081516779899,503.9164007035506L60.28743789921964,503.49623047321074L60.83737199635016,503.35617316486605L62.39551860488723,503.07605770090595L62.67048565345249,502.79594110709877L62.76214133630765,502.6558823865562L62.94545270201775,501.1152178183547L63.1287640677283,499.9947130285873L63.40373111629356,499.7145840063822L64.68691067626492,499.5745190715679L65.23684477339566,499.29438835445035L65.42015613910598,498.59405661808705L65.32850045625082,497.7536492121144L65.32850045625082,496.7731610511328L65.60346750481631,496.63309018377186L67.34492547906348,496.0728038892121L68.07817094190432,495.93273160929675L68.16982662475948,495.6525862018243L67.98651525904916,494.8121431986874L68.07817094190432,494.39191788289463L68.35313799046958,494.11176625964436L68.90307208760055,493.8316135062123L69.63631755044139,493.6915367056572L70.00294028186158,493.2713046087374L70.09459596471675,491.59035079065507L69.26969481902074,490.8899413571635L69.08638345331065,490.4696923061347L69.54466186758623,489.489101296429L70.18625164757191,489.489101296429L70.46121869613762,489.20892989316053L70.55287437899256,488.78867066872044L70.36956301328223,488.5084964394555L69.72797323329655,487.9481445895217L69.54466186758623,486.6873363940758L68.99472777045571,485.2864115493212L67.43658116191864,485.5665987793909L67.16161411335338,485.70669197043026L67.06995843049822,486.5472451814421L66.61168001622241,486.6873363940758L66.33671296765715,487.9481445895217L65.97009023623673,489.0688437675999L65.32850045625082,488.92875735948473L65.78677887052663,486.26706190830737L65.60346750481631,485.14631751031266L65.42015613910598,485.14631751031266L65.60346750481631,484.4458430756349L64.22863226198956,484.58593852786L64.1369765791344,483.74536157460534L65.51181182196115,482.6245764744235L64.96187772483063,480.38295199981803L65.05353340768579,480.38295199981803L65.23684477339566,479.8225345734245L65.32850045625082,479.8225345734245L65.69512318767147,478.84179319303075L65.78677887052663,478.14125515414344L65.60346750481631,476.8802688723081L65.60346750481631,475.3390323154017L65.69512318767147,475.0588038111091L66.52002433336725,474.77857417577616L66.8866470647879,474.49834340941743L66.97830274764306,473.93787848346255L66.97830274764306,473.0971726113494L67.06995843049822,472.67681585778337L67.34492547906348,472.25645655910193L68.16982662475948,471.69597353515564L68.44479367332474,471.27560829785216L68.35313799046958,470.85524051534594L68.16982662475948,470.4348701875351L68.16982662475948,470.01449731447065L68.26148230761464,469.87437245780166L68.53644935617967,469.734247318338L69.72797323329655,469.734247318338L70.46121869613762,469.45399619092495L70.64453006184749,469.173743932246L71.2861198418334,466.23102691135136L71.56108689039866,465.8106285829854L72.38598803609489,465.25009351838526L72.9359221332254,464.8296892498329L73.57751191321131,464.54941832309123L74.49406874176248,464.40928243539383L75.96055966744416,463.28818515015155L76.14387103315448,463.1480467165311L76.05221535029932,462.867769000557L75.77724830173406,462.1670697599402L75.13565852174838,460.76565006072633L74.40241305890731,459.78463943770475L72.66095508466015,458.10287468678143L72.56929940180498,457.8225766003743L72.56929940180498,457.5422773822356L73.48585623035615,456.0006114506323L74.49406874176248,455.1596883292077L74.67738010747257,454.8793783582223L74.8606914731829,453.8982845456849L74.76903579032773,452.7770174944162L74.95234715603806,452.0762163896652L75.6855926188789,450.5344290534631L75.868903984589,449.8336053066814L75.868903984589,446.74989675494726L76.23552671600964,446.18920775334846L76.41883808171997,445.4883401319894L76.60214944743007,445.20799110183L77.61036195883639,444.92764093929145L78.06864037311198,443.94640645279287L78.61857447024249,443.52587314058474L79.0768528845183,442.68479887205467L79.9017540302143,442.40443851758755L80.0850653959244,441.56335065917665L81.27658927304083,440.72225260786945L81.45990063875115,440.44188432568626L81.36824495589599,439.74095866506104L80.45168812734505,438.61946288390027L80.0850653959244,437.9185188178162L79.99340971306924,436.79699358686776L79.81009834735914,436.37641695268394L79.71844266450421,435.3950615612048L78.52691878738733,433.43230914681044L78.2519517388223,433.15191141323885L78.06864037311198,432.87151254677156L77.79367332454626,432.1705104239736L77.79367332454626,431.7499057514724L77.88532900740165,431.1890955560011L77.70201764169133,431.04889229903347L77.61036195883639,430.3478717652688L78.16029605596714,429.78705023963994L78.80188583595282,429.3664311210887L78.89354151880798,429.0860169590378L78.80188583595282,428.52518523564504L78.4352631045324,427.54371881339466L78.4352631045324,427.1230860973883L78.61857447024249,426.56223850986134L78.80188583595282,426.2818130162923L79.0768528845183,426.2818130162923L80.26837676163473,426.1415998445664L80.36003244448989,425.44052973620273L80.54334381019999,425.16009970966843L81.0932779073305,425.01988427144533L81.91817905302673,425.16009970966843L82.19314610159222,425.44052973620273L82.46811315015725,425.58074432451394L82.65142451586757,425.3003148646094L82.65142451586757,424.73945254499995L82.74308019872274,424.1785856922288L81.91817905302673,422.49595793395565L81.82652337017157,421.0937369672174L81.91817905302673,419.97193979171425L81.91817905302673,419.5512611752638L81.45990063875115,418.9903523859539L80.81831085876524,418.85012448018097L80.54334381019999,417.8685212046912L80.26837676163473,416.4662067219979L80.36003244448989,415.6248044285385L80.63499949305515,414.92362805649464L80.9099665416204,414.5029188320623L81.0932779073305,413.6614927304181L81.64321200446147,411.97860991443304L82.19314610159222,411.1371531994955L82.55976883301241,409.874948992343L82.28480178444715,408.89321873366134L82.19314610159222,408.0517245982919L81.73486768731664,407.49072283790156L81.64321200446147,407.06996854065073L82.0098347358819,406.5089588417177L82.8347358815779,405.52718095272576L84.66784953868,403.70384229850606L85.5844063672314,402.30124149385665L85.95102909865182,401.1791404329051L85.95102909865182,399.7764885837387L86.86758592720298,397.6724576340057L87.05089729291308,397.11137193651666L87.14255297576824,395.0072601523498L87.50917570718889,394.1655975686808L87.2342086586234,392.7628039024057L87.14255297576824,392.4822417650139L85.76771773294149,392.06139643133065L84.85116090439033,391.2196981042507L84.57619385582507,390.65856021225045L84.20957112440465,390.51827503000095L84.11791544154948,390.3779895640255L84.02625975869432,388.97511930017936L83.29301429585325,388.97511930017936L83.20135861299809,388.83483071331284L83.20135861299809,388.55425268844556L83.75129271012906,387.852802661022L84.02625975869432,386.7304678627261L85.03447227010065,385.4678195078086L84.94281658724549,385.18722786314174L84.66784953868,384.62604116857983L84.75950522153516,384.20514816806826L85.30943931866614,383.08275434700045L85.30943931866614,382.9424538423409L84.94281658724549,382.1006448546177L84.85116090439033,381.11852145598823L85.03447227010065,381.11852145598823L85.30943931866614,381.39912956034823L85.49275068437623,381.39912956034823L86.5926188786375,381.11852145598823L87.2342086586234,381.258825650104L87.60083139004405,381.258825650104L87.60083139004405,380.8379122163751L87.05089729291308,380.27669033135317L87.05089729291308,380.1363841505663L87.2342086586234,379.8557709374727L88.0591098043194,379.7154639051805L88.15076548717457,379.5751565890896L87.87579843860908,379.0139244863458L87.96745412146424,378.73330673196324L89.25063368143606,378.17206781711866L90.167190509987,377.75113565063657L91.35871438710365,376.76895066061115L92.00030416708933,375.78675176147954L92.64189394707523,375.0851726030596L92.82520531278556,374.9448559197699L93.7417621413365,374.6642217014887L94.65831896988789,374.5239041665045L94.84163033559798,374.24326824491436L95.39156443272873,372.9803925450833L96.03315421271441,372.27878499751387L96.58308830984515,372.1384626362851L98.141234918382,371.8578170620094L98.50785764980265,370.45457215567876L99.05779174693316,369.7529390551572L99.42441447835358,368.91096996447595L100.34097130690498,368.34965155839745L100.52428267261507,368.06899065162725L100.34097130690498,367.3673334154082L100.24931562404981,365.82366250638006L100.34097130690498,365.4026553857766L100.79924972118056,364.8413085825159L101.80746223258666,364.2799572352815L102.99898610970308,364.1396186884667L105.38203386393616,363.57826166119776L105.84031227821174,363.57826166119776L106.57355774105258,364.1396186884667L106.7568691067629,364.1396186884667L107.03183615532816,363.8589407428444L107.49011456960397,362.87655898692174L107.49011456960397,361.47313233683235L107.58177025245914,361.05209880325856L108.49832708101007,360.3503705665207L109.5065395924164,359.2275906172508L110.60640778667766,358.6661938252728L111.4313089323739,357.5433866061576L112.25621007806967,357.40303442541335L112.25621007806967,357.2626819606012L112.34786576092483,356.70126926060766L112.16455439521474,356.42056120607594L111.52296461522906,356.13985201519245L111.24799756666357,355.85914168793533L111.33965324951873,355.57843022429734L112.07289871235957,355.2977176242566L112.16455439521474,354.8766465934459L111.98124302950441,354.7362890149452L111.06468620095325,354.3152145748463L110.97303051809808,354.03449686085514L111.06468620095325,353.7537780104176L111.24799756666357,353.6134181590314L112.62283280949032,352.771253084029L112.80614417520042,352.6308912437671L112.71448849234525,352.35016671080666L112.98945554091074,351.6483504059797L113.26442258947623,351.5079862926068L113.44773395518632,350.5254295427949L113.35607827233116,350.38506315618724L113.17276690662106,350.244696485468L113.17276690662106,350.1043295305353L113.44773395518632,349.82359476824786L113.53938963804148,349.54285886929574L114.54760214944758,349.82359476824786L114.82256919801307,349.1217528896377L115.18919192943349,347.57767574927857L116.19740444083982,347.57767574927857L116.28906012369475,347.43730339503963L116.6556828551154,345.7528129770362L117.20561695224615,344.48941830584954L117.57223968366634,343.2260006125143L117.57223968366634,341.260638437976L117.20561695224615,339.57599794392445L120.23025448646467,339.85677420234424L120.32191016931984,341.1202532936222L120.04694312075458,343.08561944765825L120.78018858359565,346.0335642220598L120.59687721788532,347.43730339503963L120.78018858359565,348.560274271651L120.78018858359565,348.98138366142666L120.50522153503016,349.54285886929574L120.32191016931984,349.54285886929574L119.95528743789941,350.38506315618724L119.77197607218909,351.5079862926068L120.87184426645081,351.5079862926068L120.87184426645081,351.78871423524106L121.78840109500175,352.069441041298L122.70495792355291,350.94652699761355L130.40403528338265,355.15736089810525L132.05383757477466,355.57843022429734L131.87052620906456,355.9994969936306L135.90337625468942,356.8416228617134L138.10311264321217,358.38549372490525L139.20298083747366,360.6310627133498L140.5778160803004,360.771408360677L140.5778160803004,360.91175372397265L141.860995640272,360.91175372397265L141.860995640272,362.1748492122133L143.510797931664,362.1748492122133L143.510797931664,362.73621759999514L143.87742066308442,363.99927985767863L145.71053432018675,363.71860134404415L145.80219000304191,364.56063347685995L141.5860285917065,366.5253353610242L139.9362263003145,367.9286597723185L141.4027172259964,375.2254890025142L138.2864240089225,375.92706674153305L139.56960356889408,382.3812489857155L136.08668762039974,383.363354504967L136.26999898610984,384.20514816806826L135.62840920612416,384.20514816806826L135.62840920612416,384.20514816806826L129.76244550339675,384.20514816806826L128.84588867484558,383.7842526135573L127.19608638345358,388.27367352865986L126.82946365203316,388.1333835231999L122.33833519213249,387.43192923974857L123.34654770353882,391.78083145707933L123.1632363378285,393.6044835062494L122.88826928926301,394.0253194785546L125.54628409206134,393.885041104797L126.00456250633715,394.72670709244994L126.92111933488809,395.70863783823006L127.28774206630874,395.0072601523498L127.83767616343948,394.44615289788635L128.38761026057,394.30587537509564L128.93754435770074,394.30587537509564L129.12085572341084,395.70863783823006L129.57913413768665,395.8489125244305L129.30416708912117,396.4100084328602L130.95396938051317,396.83082738594385L131.68721484335424,396.69055468522856L131.7788705262094,397.9529987809947L131.41224779478898,397.9529987809947L132.23714894048476,403.28306503456406L132.42046030619508,405.80769033868273L132.42046030619508,405.9479446063342L133.33701713474647,406.0881985904998L133.24536145189109,404.82590252591035L135.3534421575589,404.5453891703655L136.26999898610984,405.24667043261434L136.72827740038542,405.10641474726435L137.6448342289366,404.6856459898918L138.4697353746326,404.5453891703655L140.21119334887976,404.82590252591035L141.5860285917065,404.82590252591035L142.86920815167832,405.10641474726435L142.86920815167832,406.0881985904998L142.77755246882316,406.5089588417177L142.04430700598232,407.9114745834813L145.25225590591117,408.89321873366134L144.7939774916356,410.99690942149755L145.80219000304191,410.99690942149755L145.89384568589708,412.6798160482431L145.6188786373316,414.22244459864305L146.35212410017266,414.08220705672284L146.2604684173175,417.8685212046912L149.28510595153625,421.23396033897734L145.43556727162127,424.73945254499995L147.54364797728908,426.1415998445664L155.33438101997376,431.1890955560011L156.15928216566977,431.7499057514724L156.7092162628005,432.1705104239736L157.44246172564158,432.4509121227893L159.00060833417842,433.43230914681044L170.09094595964734,425.861172651159L179.16485856230383,419.97193979171425L178.70658014802802,418.9903523859539L179.25651424515877,418.85012448018097L179.71479265943458,420.2523907858558L181.2729392679712,419.97193979171425L181.18128358511603,419.83171386962204L182.83108587650827,419.5512611752638L182.83108587650827,419.83171386962204L184.75585521646576,418.85012448018097L186.40565750785777,417.7282910317226L188.14711548210494,419.97193979171425L187.87214843353968,421.5144062324616L189.06367231065633,422.63617847216665L189.8885734563521,423.75793257771875L190.89678596775866,423.33727691316017L191.9966541620197,425.861172651159L194.47135759910816,425.44052973620273L194.74632464767342,425.44052973620273L194.37970191625277,422.07529461917875L194.83798033052835,422.07529461917875L195.75453715907952,419.1305800083719L196.02950420764478,418.9903523859539L196.2128155733551,418.42943906248547L197.58765081618185,418.5696678184322L203.178647470344,418.7098962909877L203.0869917874886,421.5144062324616L203.36195883605387,423.33727691316017L201.4371894960966,423.33727691316017L201.25387813038628,422.63617847216665L200.33732130183535,422.63617847216665L200.6122883504006,425.3003148646094L203.63692588461936,424.4590196852587L203.63692588461936,425.861172651159L206.11162932170737,425.72095862947026L207.1198418331137,426.0013863895001L207.94474297881015,426.42202590474335L210.9693805130289,427.54371881339466L212.3442157558552,428.244767674325L213.2607725844066,430.9086887587764L213.62739531582702,431.3292985297594L210.6944134644632,433.0117121216099L211.152691878739,434.2734955501146L212.61918280442092,433.71270574747905L213.07746121869627,434.83428082134196L215.002230558654,434.41369229275006L214.63560782723334,433.0117121216099L216.10209875291503,432.5911125473576L216.19375443576996,432.4509121227893L216.19375443576996,432.03030914972624L217.93521241001736,431.60970362748776L218.21017945858262,430.2076668087684L220.50157152996076,428.66539359143644L221.8764067727875,427.68392915217555L224.90104430700626,426.2818130162923L226.09256818412268,428.10455846869445L227.100780695529,429.0860169590378L228.5672716212107,429.6468441500474L229.57548413261702,429.6468441500474L230.12541822974777,431.46950122022827L231.68356483828484,431.60970362748776L232.32515461827052,430.2076668087684L233.24171144682145,430.9086887587764L232.23349893541535,432.3107114150189L232.14184325256042,433.5725075887385L232.87508871540103,434.1332985242916L232.7834330325461,434.2734955501146L233.42502281253178,434.83428082134196L233.97495690966252,435.1146717576921L234.52489100679304,435.5352560381798L234.70820237250337,435.9558377698122L234.6165466896482,437.4979489800462L234.06661259251746,438.4792746370076L233.51667849538717,439.32039987081225L233.24171144682145,439.8811443634695L233.05840008111159,441.8437144111449L232.50846598398084,443.66605119441374L232.60012166683578,445.3481657584707L232.41681030112545,445.7686880297988L231.77522052113977,446.6097249291852L233.69998986109727,447.59092176510603L235.80807056676485,444.3669372170334L235.8997262496198,444.3669372170334L241.30741153807162,438.8998385281593L241.76568995234743,439.8811443634695L245.15695021798638,439.0400259255257L246.53178546081313,438.7596508475908L247.08171955794387,439.18021303976275L250.8396025550037,437.21756767232L250.93125823785886,436.6568016586534L251.84781506641002,435.5352560381798L252.39774916354077,435.1146717576921L253.4059616749471,436.79699358686776L252.12278211497528,437.0773765936974L253.68092872351235,439.8811443634695L254.50582986920836,439.74095866506104L254.50582986920836,439.6007726834505L258.1720571834128,438.3390861069347L262.02159586332755,437.0773765936974L262.47987427760313,437.35775846778415L266.971002737504,434.69408492836374L267.70424820034464,434.1332985242916L270.08729595457817,432.73131268865836L270.63723005170846,437.9185188178162L274.4867687316232,443.66605119441374L275.76994829159503,442.68479887205467L276.8698164858563,445.3481657584707L277.0531278515666,445.3481657584707L276.31988238872555,449.41310766214883L276.41153807158094,450.25410040387214L280.4443881172058,449.693439708215L279.98610970293043,448.01143044874334L281.2692892629018,447.59092176510603L281.2692892629018,447.3105812273352L282.5524688228734,446.8900682976746L282.9190915542938,448.1515994438523L284.2939267971208,447.45075163774163L285.1188279428168,447.1704105338649L287.5018756970496,446.8900682976746L287.1352529656292,445.3481657584707L298.4089019568082,441.8437144111449L303.26665314812976,439.74095866506104L305.7413565852178,438.61946288390027L305.8330122680727,438.61946288390027L307.02453614518913,438.05870819736447L309.4075838994222,437.4979489800462L311.0573861908142,436.6568016586534L311.6989759707999,436.51660944725154L313.8070566764677,436.51660944725154L314.3569907735987,434.83428082134196L314.906924870729,434.97447643113264L315.64017033357004,434.97447643113264L315.64017033357004,435.1146717576921L315.64017033357004,435.1146717576921L316.19010443070056,435.25486680106405L316.19010443070056,435.1146717576921L319.4897090134848,434.1332985242916L320.5895772077465,433.852903622952L321.2311669877322,433.9931012152156L321.1395113048768,433.43230914681044L320.86454425631155,432.87151254677156L320.86454425631155,432.87151254677156L321.78110108486294,432.87151254677156L321.96441245057326,433.29211042162206L322.33103518199346,433.852903622952L322.51434654770355,434.69408492836374L322.8809692791242,434.83428082134196L323.15593632768946,434.97447643113264L323.5225590591099,434.97447643113264L323.4309033762545,435.67545023190905L323.79752610767537,436.2362241749288L323.7058704248202,436.51660944725154L323.79752610767537,436.79699358686776L323.9808374733857,436.9371852318509L324.0724931562406,437.21756767232L324.0724931562406,437.35775846778415L323.79752610767537,437.4979489800462L323.8891817905303,438.19889729373244L323.7058704248202,439.18021303976275L323.8891817905303,439.46058641868876L323.8891817905303,439.8811443634695L324.25580452195095,440.1615149108475L324.4391158876613,440.44188432568626L324.5307715705162,440.44188432568626L324.62242725337137,439.8811443634695L325.1723613505019,440.02132977874135L327.64706478759035,439.0400259255257L328.1053432018657,438.8998385281593L329.02190003041665,438.8998385281593L329.7551454932577,439.0400259255257L330.4883909560988,439.46058641868876L330.76335800466404,439.8811443634695L332.41316029605605,438.19889729373244L332.87143871033186,438.05870819736447L333.3297171246072,438.05870819736447L333.51302849031754,437.7783291550513L336.0793876102605,438.7596508475908L337.5458785359426,439.18021303976275L340.11223765588556,437.7783291550513L343.4118422386698,436.6568016586534L346.98641387001953,434.97447643113264L347.7196593328606,434.41369229275006L348.81952752712164,433.852903622952L349.18615025854183,433.43230914681044L350.3776741356587,431.8901075922404L351.56919801277536,429.78705023963994L357.7101287640678,423.89815056590305L358.62668559261874,422.2155160074326L359.1766196897495,421.654628754186L359.4515867383152,420.39261585782515L360.2764878840112,420.81328937355283L360.82642198114195,420.67306515169184L361.1013890297072,420.81328937355283L362.01794585825814,421.23396033897734L363.11781405251963,421.9350729475191L363.11781405251963,422.07529461917875L364.30933792963606,422.3557371123534L365.225894758187,422.916618698604L366.50907431815904,423.4774957513582L367.51728682956514,423.6177143061868L368.34218797526114,425.861172651159L368.8921220723919,426.1415998445664L370.5419243637839,426.42202590474335L371.73344824090054,426.84266287022183L372.55834938659655,427.26329728600103L373.4749062151475,427.96434897981817L373.1999391665822,428.80560166390205L374.1164959951336,429.78705023963994L375.3080198722498,430.6282808285396L376.4078880665113,430.9086887587764L376.49954374936624,431.1890955560011L377.874378992193,430.2076668087684L379.43252560073006,430.06746156899317L380.1657710635711,430.3478717652688L381.08232789212207,431.3292985297594L383.00709723207956,431.60970362748776L382.82378586636946,432.3107114150189L383.64868701206547,431.7499057514724L385.0235222548922,431.7499057514724L386.1233904491535,431.46950122022827L387.95650410625603,429.78705023963994L389.4229950319377,428.244767674325L389.8812734462133,427.8241392076161L403.6296258744803,413.52125405473635L407.2041975058298,413.52125405473635L409.67890094291783,414.6431555236559L412.42857142857156,413.9419692314186L413.5284396228326,413.38101509562694L414.444996451384,414.5029188320623L414.9949305485145,413.8017311226213L415.26989759708,413.24077585303894L415.3615532799354,412.39933444513736L415.7281760113558,411.838367837292L416.36976579134125,411.1371531994955L416.09479874277645,410.99690942149755L416.64473283990674,410.29568627941626L416.82804420561706,410.43593147477804L418.47784649700907,408.75297041987506L418.6611578627194,408.47247294177214L419.0277805941398,408.33222377744096L418.9361249112844,408.19197432963847L419.7610260569809,407.06996854065073L420.03599310554614,407.35047168899473L422.87731927405457,405.6674357874872L422.5106965426344,404.9661587783412L423.0606306397649,405.10641474726435L423.51890905404025,405.10641474726435L425.99361249112826,402.8622852185217L426.7268579539698,403.5635834940549L427.0018250025346,399.63622183904226L434.7925580452195,399.35568749882077L444.87468315928254,393.7447624473425L450.0990570820236,391.92111408602796L449.73243435060317,391.78083145707933L450.190712764879,389.11540760327625L451.015613910575,387.43192923974857L452.2071377876914,385.4678195078086L454.3152184933592,385.6081149045276L454.49852985906955,383.92455141549726L457.61482307614324,382.80215305385354L457.61482307614324,384.064849933653L457.4315117104327,385.4678195078086L456.05667646760617,389.53627081029117L457.24820034472236,389.6765579785497L457.61482307614324,388.1333835231999L459.44793673324557,388.1333835231999L459.1729696846801,389.8168448630968L460.08952651323125,389.95713146387425L461.2810503903479,389.53627081029117L463.48078677887065,387.0110532647668L464.21403224171127,385.04693161517207L466.96370272736476,385.74841001743334L466.50542431308895,389.25569562269084L467.4219811416408,390.7988451108249L466.59707999594434,395.4280876148405L468.1552266044814,396.12946104592993L467.3303254587854,397.9529987809947L466.4137686302345,400.33755272654525L468.4301936530467,401.319404058042L467.8802595559157,402.44150285040087L468.61350501875677,403.0025454407805L468.61350501875677,404.40513206725154L466.96370272736476,403.984359056667L465.1305890702629,403.28306503456406L465.2222447531176,406.5089588417177L466.8720470445098,406.5089588417177L468.24688228733635,405.9479446063342L468.4301936530467,407.06996854065073L471.45483118726565,409.5944560501812L470.99655277298984,411.6981254766506L471.3631755044105,411.6981254766506L472.3713880158166,412.1188517081464L473.1962891615126,412.96029651758727L477.2291392071377,411.27739669399307L478.05404035283414,413.1005363270451L478.6039744499644,413.38101509562694L481.4453006184731,411.6981254766506L482.2702017641693,411.5578828325888L482.91179154415477,411.1371531994955L483.46172564128597,410.8566653600137L483.6450370069963,410.5761763866976L484.01165973841626,410.71642101509497L484.1033154212712,410.99690942149755L483.9200040555611,411.6981254766506L484.46993815269184,412.39933444513736L484.2866267869815,412.96029651758727L484.01165973841626,413.38101509562694L484.1949711041266,413.52125405473635L484.92821656696765,415.3443347299981L485.38649498124323,416.0455068506708L486.1197404440841,415.6248044285385L487.03629727263524,415.3443347299981L487.49457568691105,416.746671885805L488.04450978404134,416.4662067219979L490.2442461725641,416.0455068506708L490.3359018554195,416.18574042451655L491.61908141539107,415.6248044285385L491.7107370982462,415.76503885268176L492.26067119537674,415.4845697209894L492.3523268782317,415.4845697209894L495.74358714387085,413.24077585303894L496.385176923857,412.53957538841496L498.2182905809593,410.99690942149755L498.6765689952349,409.5944560501812L498.76822467808984,409.4542091538751L498.95153604379993,409.31396197409777L499.0431917266553,409.4542091538751L499.13484740951026,409.4542091538751L498.6765689952349,407.9114745834813L500.41802696948207,407.35047168899473L500.9679610666128,407.06996854065073L500.9679610666128,406.78946425823233L503.35100882084566,408.33222377744096L502.8010747237147,409.5944560501812L504.45087701510715,410.8566653600137L507.5671702321813,410.15544080052496L507.4755145493259,414.22244459864305L509.12531684071746,424.73945254499995L509.0336611578625,425.861172651159L508.7586941092975,427.26329728600103L512.6998884720674,427.40350819136074L512.7915441549223,423.75793257771875L512.9748555206324,423.75793257771875L512.9748555206324,422.63617847216665L513.158166886343,420.81328937355283L513.0665112034876,417.58806057539186L513.6164453006184,417.44782983563346L515.4495589577211,416.18574042451655L518.199229443374,414.6431555236559L518.6575078576498,414.5029188320623L519.2990976376359,418.85012448018097L523.0569806346953,420.81328937355283L523.331947683261,420.53284064642503L526.4482409003347,422.07529461917875L526.631552266045,421.9350729475191L526.7232079488999,421.5144062324616L529.5645341174084,423.75793257771875L529.4728784345534,424.1785856922288L531.8559261887865,426.42202590474335L531.9475818716414,426.2818130162923L532.4975159687722,426.42202590474335L534.0556625773092,426.1415998445664L534.4222853087294,426.56223850986134L534.8805637230053,427.40350819136074L533.2307614316128,429.6468441500474L531.6726148230762,431.46950122022827L530.9393693602351,433.71270574747905L529.6561898002637,435.1146717576921L528.4646659231471,436.2362241749288L529.1979113859879,436.9371852318509L529.9311568488292,438.61946288390027L530.6644023116698,439.8811443634695L532.1308932373518,441.7035326767291L532.9557943830478,443.52587314058474L532.5891716516276,443.94640645279287L533.780695528744,445.0678161621254L537.6302342086587,447.0302395572944L537.5385785258036,447.45075163774163L538.3634796714996,448.43193658486416L538.73010240292,448.29176815586834L538.9134137686303,448.43193658486416L540.0132819628914,447.7310916093993L540.4715603771674,447.1704105338649L540.4715603771674,446.8900682976746L540.379904694312,445.9088615540968L539.8299705971813,444.92764093929145L540.4715603771674,444.086583657343L540.5632160600223,443.10533728032897L540.7465274257329,442.96515809403354L542.7629524485451,441.8437144111449L544.1377876913718,440.5820686083607L545.6959342999089,440.1615149108475L547.4373922741559,439.18021303976275L547.9873263712866,438.7596508475908L548.3539491027072,438.7596508475908L549.4538172969683,439.0400259255257L550.7369968569401,439.32039987081225L550.3703741255197,438.4792746370076L549.6371286626786,437.6381392091207L549.4538172969683,437.0773765936974L548.8122275169826,436.37641695268394L548.3539491027072,436.09603111400065L548.5372604684173,435.67545023190905L548.4456047855624,435.3950615612048L548.0789820541415,434.83428082134196L546.7958024941702,433.852903622952L546.0625570313291,433.9931012152156L545.1460002027782,433.43230914681044L543.9544763256615,432.87151254677156L545.0543445199228,431.46950122022827L550.4620298083746,434.69408492836374L550.828652539795,433.71270574747905L551.653553685491,434.1332985242916L551.7452093683462,433.9931012152156L554.2199128054344,434.97447643113264L554.8615025854201,435.1146717576921L556.9695832910877,435.5352560381798L558.4360742167698,435.1146717576921L559.2609753624661,434.83428082134196L559.7192537767412,434.83428082134196L560.4524992395823,434.97447643113264L561.7356787995541,435.5352560381798L562.652235628105,435.5352560381798L563.2938254080912,435.1146717576921L564.2103822366421,433.9931012152156L566.1351515765994,432.4509121227893L566.6850856737301,433.15191141323885L567.6932981851364,433.852903622952L568.1515765994118,434.1332985242916L568.7931663793975,433.9931012152156L569.0681334279632,433.71270574747905L569.1597891108181,434.1332985242916L569.9846902565141,434.1332985242916L572.7343607421676,433.43230914681044L573.8342289364293,432.87151254677156L575.4840312278209,432.1705104239736L575.8506539592418,432.1705104239736L576.7672107877927,432.1705104239736L579.0586028591708,431.60970362748776L577.9587346649093,430.6282808285396L579.7918483220114,429.78705023963994L579.516881273446,429.3664311210887L581.2583392476931,428.3849765966297L581.075027881983,428.10455846869445L582.9997972219405,426.2818130162923L584.0080097333469,424.87966854986007L585.1078779276083,426.42202590474335L586.666024536145,429.78705023963994L587.5825813646964,431.46950122022827L588.7741052418128,434.2734955501146L589.7823177532189,434.97447643113264L590.7905302646254,436.2362241749288L593.8151677988437,437.6381392091207L595.8315928216566,439.18021303976275L596.3815269187871,440.02132977874135L596.7481496502076,440.72225260786945L598.1229848930345,442.68479887205467L598.7645746730204,443.66605119441374L599.4061644530061,444.086583657343L597.9396735273242,444.7874654333864L598.3979519416,445.4883401319894L597.1147723816282,446.18920775334846L597.2064280644836,446.32938042838214L595.7399371388015,447.3105812273352L594.4567575788299,447.8712611706069L594.8233803102505,448.57210473075975L593.7235121159893,448.57210473075975L593.2652337017134,448.71227259363513L592.6236439217278,448.9926074702016L591.0654973131909,449.8336053066814L589.1407279732334,450.5344290534631L588.1325154618271,454.3187550204166L582.3582074419548,462.1670697599402L582.3582074419548,462.4473503048939L587.399269998986,464.68955392787757L588.3158268275374,464.96982428887713L593.8151677988437,465.8106285829854L596.3815269187871,465.9507616419578L596.3815269187871,465.67049524111644L596.1065598702219,464.54941832309123L597.2980837473385,464.40928243539383L597.7563621616139,464.1290098113823L597.7563621616139,465.67049524111644L600.8726553786878,465.25009351838526L602.3391463043699,465.3902277088564L602.5224576700798,465.109959045054L604.813849741458,465.67049524111644L605.1804724728781,464.54941832309123L605.3637838385885,463.1480467165311L608.6633884213725,463.1480467165311L613.1545168812736,463.00790800000686L616.2708100983473,464.2691462648363L620.8535942411031,459.78463943770475L621.6784953867991,460.76565006072633L622.0451181182193,460.48536272594356L621.8618067525094,460.3452186341383L621.8618067525094,459.3642020696425L621.4951840210892,458.66346746415365L622.6867078982054,457.6824271327787L623.9698874581773,456.1407643137718L629.4692284294842,459.78463943770475L630.4774409408901,459.50434814192704L631.210686403731,458.24302330552746L632.3105545979924,457.5422773822356L634.7852580350809,456.5612212054548L635.2435364493563,456.1407643137718L636.3434046436173,455.580151163289L637.2599614721689,455.2998428901992L639.0014194464156,455.43999716825783L639.0930751292708,455.580151163289L641.3844672006489,455.43999716825783L642.5759910777656,455.01953348521783L643.0342694920405,454.3187550204166L646.2422183919703,454.0384416535817L645.5089729291285,452.3565376806073L645.2340058805639,451.095082956228L645.1423501977088,449.13277448388544L645.0506945148536,449.13277448388544L644.8673831491433,447.1704105338649L644.9590388319984,445.9088615540968L646.2422183919703,445.9088615540968L646.1505627091146,445.7686880297988L647.2504309033761,445.6285142224224L646.7004968062456,443.80622896513523L647.7087093176519,443.52587314058474L647.5253979519416,442.82497862458695L648.9918888776233,442.68479887205467L648.3502990976376,438.8998385281593L649.7251343404641,438.8998385281593L649.633478657609,437.7783291550513L651.7415593632768,437.4979489800462L651.7415593632768,437.21756767232L653.2997059718141,437.4979489800462L653.483017337524,436.51660944725154L653.5746730203791,436.51660944725154L653.8496400689442,435.1146717576921L654.6745412146406,435.25486680106405L655.4994423603366,431.1890955560011L658.157457163135,431.46950122022827L658.157457163135,428.3849765966297L658.2491128459901,427.54371881339466L658.6157355774103,425.861172651159L658.7073912602655,424.1785856922288L659.3489810402516,421.37418342741876L659.807259454527,420.2523907858558L662.6485856230352,420.39261585782515L662.5569299401805,420.67306515169184L663.8401095001518,421.0937369672174L664.2983879144276,419.1305800083719L666.13150157153,419.4110344029905L666.4064686200954,418.28921002311836L668.1479265943422,418.85012448018097L668.5145493257628,417.58806057539186L668.5145493257628,416.4662067219979L670.8059413971405,417.0271359159742L670.7142857142858,417.7282910317226L674.5638243942008,418.28921002311836L676.3052823684475,418.7098962909877L678.4133630741153,419.6914876641531L677.405150562709,420.95351331208803L676.580249417013,422.49595793395565L678.1383960255498,423.19705779166543L677.4968062455641,424.03836827073246L678.6883301226803,424.59923625680676L678.5050187569705,424.87966854986007L680.3381324140728,426.0013863895001L679.879853999797,426.56223850986134L680.8880665112033,427.26329728600103L682.2629017540303,427.68392915217555L682.07959038832,428.3849765966297L682.4462131197406,429.0860169590378L683.9127040454218,429.9272560459358L683.6377369968573,430.7684849353027L684.0043597282774,431.04889229903347L684.0960154111322,431.04889229903347L687.4872756767718,434.5538887521543L687.3956199939166,434.5538887521543L687.4872756767718,434.69408492836374L691.1535029909764,438.8998385281593L693.8115177937748,442.96515809403354L695.7362871337323,445.6285142224224L695.6446314508771,445.7686880297988L696.4695325965731,447.0302395572944L700.7773496907635,450.6745929536992L703.0687417621411,454.4589112793765L704.9018554192435,457.8225766003743L706.9182804420561,460.6255065348014L707.7431815877526,461.6065052751801L708.2931156848827,461.88678808337136L707.9264929534625,462.4473503048939L709.3929838791441,463.28818515015155L708.9347054648688,465.5303616164165L707.5598702220423,466.23102691135136L707.9264929534625,466.6514226940417L708.9347054648688,468.6132360209449L709.1180168305787,468.89349054224294L709.9429179762747,469.734247318338L710.3095407076953,469.3138702029755L711.3177532191016,470.29474617934466L711.4094089019568,470.29474617934466L711.501064584812,470.01449731447065L712.0509986819425,470.29474617934466L711.776031633377,470.57499391293095L712.9675555104941,471.69597353515564L713.9757680219,470.29474617934466L715.2589475818718,467.63233628711896L715.6255703132924,465.8106285829854L715.6255703132924,464.40928243539383L716.4504714589884,464.40928243539383L716.8170941904086,464.54941832309123L717.275372604684,464.40928243539383L717.6419953361042,464.68955392787757L718.1002737503804,464.68955392787757L718.1919294332356,464.54941832309123L718.1002737503804,464.54941832309123L718.1919294332356,463.84873605585017L718.1002737503804,463.56846116881206L718.1919294332356,463.28818515015155L718.1002737503804,462.867769000557L718.2835851160903,462.72762971823977L718.3752407989459,462.3072101738435L718.4668964818002,462.1670697599402L719.3834533103518,462.4473503048939L719.5667646760621,462.3072101738435L719.6584203589173,461.6065052751801L719.2917976274966,461.6065052751801L719.2001419446415,461.04593626387214L719.2917976274966,460.9057933037693L719.5667646760621,461.186078941093L719.6584203589173,460.48536272594356L720.0250430903375,460.20507425939286L720.1166987731926,459.78463943770475L720.2083544560478,459.64449393126415L720.574977187468,459.924784661227L720.7582885531783,459.50434814192704L720.8499442360339,459.3642020696425L721.3082226503088,459.64449393126415L721.3082226503088,459.3642020696425L721.6748453817295,459.0839090762529L722.1331237960053,459.2240557144032L722.3164351617152,459.2240557144032L722.5914022102806,458.9437621551333L722.4997465274255,458.24302330552746L722.5914022102806,458.24302330552746L722.8663692588461,458.38317164135515L723.049680624556,458.38317164135515L722.9580249417013,457.8225766003743L723.2329919902663,457.1218264327763L722.9580249417013,456.5612212054548L722.9580249417013,456.1407643137718L722.774713575991,455.8604583044871L722.8663692588461,455.580151163289L722.9580249417013,455.580151163289L723.2329919902663,455.8604583044871L723.5079590388323,455.7203048753945L723.5996147216865,455.580151163289L723.5996147216865,455.01953348521783L723.7829260873973,454.8793783582223L725.4327283787893,454.59906725529436L725.79935111021,454.7392229482648L726.4409408901956,455.01953348521783L727.3574977187468,455.01953348521783L728.6406772787182,455.2998428901992L730.748757984386,456.28091689397843L732.1235932272125,456.5612212054548L732.6735273243435,456.84152438506135L735.1482307614315,460.20507425939286L742.2057183412753,468.89349054224294L750.1797627496708,466.79155405587517L750.546385481091,466.79155405587517L751.9212207239175,466.0908944181065L754.2126127952952,465.25009351838526L755.3124809895571,465.109959045054L762.2783128865453,464.54941832309123L764.5697049579235,465.3902277088564L764.4780492750688,468.05272358434013L765.8528845178948,468.3329803683082L766.3111629321706,468.1928521177615L766.8610970293012,468.47310833606025L767.7776538578523,468.47310833606025L768.144276589273,468.6132360209449L768.9691777349685,468.47310833606025L769.7024231978098,468.47310833606025L770.5273243435058,468.75336342299124L771.0772584406363,468.47310833606025L772.1771266348983,468.6132360209449L772.9103720977387,468.6132360209449L773.8269289262903,468.75336342299124L774.743485754841,469.0336173786782L775.6600425833922,469.173743932246L777.9514346547703,469.87437245780166L778.8679914833215,470.1546218882868L779.2346142147421,470.29474617934466L779.6012369461623,470.29474617934466L780.0595153604381,470.4348701875351L780.2428267261485,470.4348701875351L780.8844165061337,470.57499391293095L781.2510392375543,470.7151173555394L781.5260062861198,470.9953633923069L782.6258744803808,471.13548598645866L782.992497211802,471.69597353515564L783.9090540403527,472.11633622732916L784.367332454628,472.67681585778337L785.3755449660343,472.9570539762499L786.6587245260062,472.9570539762499L787.666937037412,473.65764432385186L787.3003143059918,475.1989182046527L785.9254790631649,479.6824295100523L783.9090540403527,486.6873363940758Z" style="fill: none; stroke: rgb(8, 48, 107);"><title>VAL D OISE</title></path><g stroke="#000" stroke-opacity="0.2"><path d="M0,-18.876579049491834L4.238056047668955,-5.833183721955068L17.952693510379785,-5.833183721955069L6.857318731355415,2.2280779191642193L11.095374779024372,15.271473246700983L8.881784197001252e-16,7.210211605581696L-11.095374779024368,15.271473246700985L-6.857318731355414,2.2280779191642206L-17.952693510379788,-5.833183721955065L-4.238056047668956,-5.833183721955068Z" transform="translate(475.94595964716586,606.5019107979169)rotate(3.8573857625648165)" fill="white" class="commune"><title>insee_com : 95500 
Population : 30767
 Nom : PONTOISE</title></path><path d="M0,-22.448162112566994L5.039926405668234,-6.936863585267022L21.349470856006818,-6.936863585267023L8.154772225169292,2.649646114250548L13.19469863083753,18.16094464155052L8.881784197001252e-16,8.574434942032948L-13.194698630837525,18.160944641550522L-8.154772225169292,2.649646114250549L-21.34947085600682,-6.936863585267019L-5.0399264056682345,-6.936863585267021Z" transform="translate(730.3821352529653,681.4209904100644)rotate(4.721790616403498)" fill="white" class="commune"><title>insee_com : 95585 
Population : 58587
 Nom : SARCELLES</title></path><path d="M0,-26.69551410299918L5.993516340710753,-8.249367531402827L25.38894264350654,-8.249367531402829L9.697713151397894,3.150978011306063L15.69122949210865,21.597124582902413L1.7763568394002505e-15,10.196779040193524L-15.691229492108645,21.597124582902417L-9.697713151397892,3.1509780113060657L-25.388942643506542,-8.249367531402822L-5.993516340710755,-8.249367531402825Z" transform="translate(611.7796816384466,750.5377488060403)rotate(9.07445472166272)" fill="white" class="commune"><title>insee_com : 95018 
Population : 110210
 Nom : ARGENTEUIL</title></path></g><text class="text" y="40" x="427" text-anchor="middle" font-size="36" font-family="Helvetica" fill="#6baed6">95  - VAL D OISE</text><line x1="602.7241001723612" y1="740.9353596054988" x2="485.0015411132512" y2="616.1042999984585" stroke="yellow" opacity="0.35" stroke-width="2"/><line x1="492.9083713542192" y1="611.4965161053934" x2="713.419723545912" y2="676.4263851025879" stroke="yellow" opacity="0.35" stroke-width="2"/><line x1="722.4753050119974" y1="686.0287743031295" x2="619.6865118794145" y2="745.9299649129753" stroke="yellow" opacity="0.35" stroke-width="2"/></svg>