<svg viewBox="0,0,954,1144.8" width="954" height="1144.8" style="width: 100%; height: auto;" xmlns="http://www.w3.org/2000/svg" xmlns:xlink="http://www.w3.org/1999/xlink"><rect width="954" height="1144.8" fill="black"/><g stroke="#000" stroke-opacity="0.2"><path d="M0,-13.34775705149959L2.9967581703553763,-4.1246837657014135L12.69447132175327,-4.124683765701414L4.848856575698947,1.5754890056530315L7.845614746054325,10.798562291451207L8.881784197001252e-16,5.098389520096762L-7.845614746054323,10.798562291451208L-4.848856575698946,1.5754890056530328L-12.694471321753271,-4.124683765701411L-2.9967581703553776,-4.124683765701413Z" transform="translate(455.6151205108838,582.7663470025182)rotate(22.633774651540687)" fill="white" class="commune"><title>insee_com : 66149 
Population : 6124
 Nom : PRADES</title></path><path d="M0,-13.34775705149959L2.9967581703553763,-4.1246837657014135L12.69447132175327,-4.124683765701414L4.848856575698947,1.5754890056530315L7.845614746054325,10.798562291451207L8.881784197001252e-16,5.098389520096762L-7.845614746054323,10.798562291451208L-4.848856575698946,1.5754890056530328L-12.694471321753271,-4.124683765701411L-2.9967581703553776,-4.124683765701413Z" transform="translate(662.6977271166656,690.7909186763172)rotate(6.1945955059768245)" fill="white" class="commune"><title>insee_com : 66049 
Population : 7798
 Nom : CERET</title></path><path d="M0,-26.69551410299918L5.993516340710753,-8.249367531402827L25.38894264350654,-8.249367531402829L9.697713151397894,3.150978011306063L15.69122949210865,21.597124582902413L1.7763568394002505e-15,10.196779040193524L-15.691229492108645,21.597124582902417L-9.697713151397892,3.1509780113060657L-25.388942643506542,-8.249367531402822L-5.993516340710755,-8.249367531402825Z" transform="translate(753.1411797019844,510.76716460588796)rotate(24.13030484987518)" fill="white" class="commune"><title>insee_com : 66136 
Population : 120158
 Nom : PERPIGNAN</title></path></g><text class="text" y="40" x="427" text-anchor="middle" font-size="36" font-family="Helvetica" fill="#6baed6">66  - PYRENEES ORIENTALES</text><line x1="668.7272906223535" y1="678.789335071622" x2="747.1116161962965" y2="522.7687482105832" stroke="yellow" opacity="0.35" stroke-width="2"/><line x1="733.3061090892443" y1="515.5671100989966" x2="475.4501911236238" y2="577.9664015094095" stroke="yellow" opacity="0.35" stroke-width="2"/><line x1="469.4206276179359" y1="589.9679851141047" x2="648.8922200096135" y2="683.5892805647306" stroke="yellow" opacity="0.35" stroke-width="2"/></svg>