<svg viewBox="0,0,954,1144.8" width="954" height="1144.8" style="width: 100%; height: auto;" xmlns="http://www.w3.org/2000/svg" xmlns:xlink="http://www.w3.org/1999/xlink"><rect width="954" height="1144.8" fill="black"/><g stroke="#000" stroke-opacity="0.2"><path d="M0,-13.34775705149959L2.9967581703553763,-4.1246837657014135L12.69447132175327,-4.124683765701414L4.848856575698947,1.5754890056530315L7.845614746054325,10.798562291451207L8.881784197001252e-16,5.098389520096762L-7.845614746054323,10.798562291451208L-4.848856575698946,1.5754890056530328L-12.694471321753271,-4.124683765701411L-2.9967581703553776,-4.124683765701413Z" transform="translate(524.7699673728807,837.8167333354577)rotate(4.711433913362425)" fill="white" class="commune"><title>insee_com : 52269 
Population : 7731
 Nom : LANGRES</title></path><path d="M0,-18.876579049491834L4.238056047668955,-5.833183721955068L17.952693510379785,-5.833183721955069L6.857318731355415,2.2280779191642193L11.095374779024372,15.271473246700983L8.881784197001252e-16,7.210211605581696L-11.095374779024368,15.271473246700985L-6.857318731355414,2.2280779191642206L-17.952693510379788,-5.833183721955065L-4.238056047668956,-5.833183721955068Z" transform="translate(398.696651419712,597.0550090103861)rotate(27.971146389127128)" fill="white" class="commune"><title>insee_com : 52121 
Population : 21945
 Nom : CHAUMONT</title></path><path d="M0,-18.876579049491834L4.238056047668955,-5.833183721955068L17.952693510379785,-5.833183721955069L6.857318731355415,2.2280779191642193L11.095374779024372,15.271473246700983L8.881784197001252e-16,7.210211605581696L-11.095374779024368,15.271473246700985L-6.857318731355414,2.2280779191642206L-17.952693510379788,-5.833183721955065L-4.238056047668956,-5.833183721955068Z" transform="translate(272.6233354665428,76.39872663188726)rotate(14.802412354407311)" fill="white" class="commune"><title>insee_com : 52448 
Population : 24012
 Nom : SAINT DIZIER</title></path></g><text class="text" y="40" x="427" text-anchor="middle" font-size="36" font-family="Helvetica" fill="#6baed6">52  - HAUTE MARNE</text><line x1="407.10153914992327" y1="613.1057906320576" x2="516.3650796426695" y2="821.7659517137862" stroke="yellow" opacity="0.35" stroke-width="2"/><line x1="507.9601919124582" y1="787.055532888553" x2="289.43311092696536" y2="127.15992707879195" stroke="yellow" opacity="0.35" stroke-width="2"/><line x1="281.0282231967541" y1="111.10914545712052" x2="390.2917636895007" y2="562.3445901851529" stroke="yellow" opacity="0.35" stroke-width="2"/></svg>