<svg viewBox="0,0,600,600" width="600" height="600" style="width: 100%; height: auto;" xmlns="http://www.w3.org/2000/svg" xmlns:xlink="http://www.w3.org/1999/xlink"><rect width="752" height="902.4" fill="black"/><g stroke="#000" stroke-opacity="0.2"><path d="M0,-15.873247654971056L3.5637661381291506,-4.905103281308338L15.096355617026989,-4.905103281308339L5.766294739448918,1.873582735131148L9.330060877578072,12.841727108793865L8.881784197001252e-16,6.063041092354379L-9.330060877578068,12.841727108793867L-5.766294739448918,1.8735827351311491L-15.09635561702699,-4.905103281308335L-3.563766138129152,-4.905103281308337Z" transform="translate(180.82191780821913,202.62683841189937)rotate(0.964372787891673)" fill="white" class="commune"><title>14047 Population : 13525</title></path><path d="M0,-15.873247654971056L3.5637661381291506,-4.905103281308338L15.096355617026989,-4.905103281308339L5.766294739448918,1.873582735131148L9.330060877578072,12.841727108793865L8.881784197001252e-16,6.063041092354379L-9.330060877578068,12.841727108793867L-5.766294739448918,1.8735827351311491L-15.09635561702699,-4.905103281308335L-3.563766138129152,-4.905103281308337Z" transform="translate(123.28767123287668,442.4628686767428)rotate(22.173118980010408)" fill="white" class="commune"><title>14762 Population : 17425</title></path><path d="M0,-18.876579049491834L4.238056047668955,-5.833183721955068L17.952693510379785,-5.833183721955069L6.857318731355415,2.2280779191642193L11.095374779024372,15.271473246700983L8.881784197001252e-16,7.210211605581696L-11.095374779024368,15.271473246700985L-6.857318731355414,2.2280779191642206L-17.952693510379788,-5.833183721955065L-4.238056047668956,-5.833183721955068Z" transform="translate(503.7671232876712,271.30295977613787)rotate(1.8583336495988412)" fill="white" class="commune"><title>14366 Population : 20301</title></path><path d="M0,-26.69551410299918L5.993516340710753,-8.249367531402827L25.38894264350654,-8.249367531402829L9.697713151397894,3.150978011306063L15.69122949210865,21.597124582902413L1.7763568394002505e-15,10.196779040193524L-15.691229492108645,21.597124582902417L-9.697713151397892,3.1509780113060657L-25.388942643506542,-8.249367531402822L-5.993516340710755,-8.249367531402825Z" transform="translate(295.54794520547944,251.40037133881924)rotate(22.76926819728933)" fill="white" class="commune"><title>14118 Population : 105403</title></path></g><text class="text" y="25" x="326" text-anchor="middle" font-size="24" font-family="Helvetica" fill="#6baed6">14 - CALVADOS</text><line x1="188.47031963470315" y1="205.87840727369402" x2="287.8995433789954" y2="248.1488024770246" stroke="yellow" opacity="0.35" stroke-width="2"/><line x1="309.42922374429224" y1="252.72721056797383" x2="489.8858447488584" y2="269.9761205469833" stroke="yellow" opacity="0.35" stroke-width="2"/><line x1="478.4018264840182" y1="282.71362036951155" x2="148.65296803652964" y2="431.0522080833691" stroke="yellow" opacity="0.35" stroke-width="2"/><line x1="127.12328767123284" y1="426.4737999924199" x2="176.98630136986296" y2="218.61590709622226" stroke="yellow" opacity="0.35" stroke-width="2"/></svg>