<svg viewBox="0,0,954,1144.8" width="954" height="1144.8" style="width: 100%; height: auto;" xmlns="http://www.w3.org/2000/svg" xmlns:xlink="http://www.w3.org/1999/xlink"><rect width="954" height="1144.8" fill="black"/><g stroke="#000" stroke-opacity="0.2"><path d="M0,-13.34775705149959L2.9967581703553763,-4.1246837657014135L12.69447132175327,-4.124683765701414L4.848856575698947,1.5754890056530315L7.845614746054325,10.798562291451207L8.881784197001252e-16,5.098389520096762L-7.845614746054323,10.798562291451208L-4.848856575698946,1.5754890056530328L-12.694471321753271,-4.124683765701411L-2.9967581703553776,-4.124683765701413Z" transform="translate(733.7307858687814,627.1734015110051)rotate(10.645469165060971)" fill="white" class="commune"><title>insee_com : 58062 
Population : 1964
 Nom : CHATEAU CHINON (VILLE)</title></path><path d="M0,-13.34775705149959L2.9967581703553763,-4.1246837657014135L12.69447132175327,-4.124683765701414L4.848856575698947,1.5754890056530315L7.845614746054325,10.798562291451207L8.881784197001252e-16,5.098389520096762L-7.845614746054323,10.798562291451208L-4.848856575698946,1.5754890056530328L-12.694471321753271,-4.124683765701411L-2.9967581703553776,-4.124683765701413Z" transform="translate(464.29055515501113,247.81644877258805)rotate(20.57147694505234)" fill="white" class="commune"><title>insee_com : 58079 
Population : 3759
 Nom : CLAMECY</title></path><path d="M0,-13.34775705149959L2.9967581703553763,-4.1246837657014135L12.69447132175327,-4.124683765701414L4.848856575698947,1.5754890056530315L7.845614746054325,10.798562291451207L8.881784197001252e-16,5.098389520096762L-7.845614746054323,10.798562291451208L-4.848856575698946,1.5754890056530328L-12.694471321753271,-4.124683765701411L-2.9967581703553776,-4.124683765701413Z" transform="translate(77.07613554434033,295.2227289823204)rotate(7.778064829562178)" fill="white" class="commune"><title>insee_com : 58086 
Population : 9874
 Nom : COSNE COURS SUR LOIRE</title></path><path d="M0,-18.876579049491834L4.238056047668955,-5.833183721955068L17.952693510379785,-5.833183721955069L6.857318731355415,2.2280779191642193L11.095374779024372,15.271473246700983L8.881784197001252e-16,7.210211605581696L-11.095374779024368,15.271473246700985L-6.857318731355414,2.2280779191642206L-17.952693510379788,-5.833183721955065L-4.238056047668956,-5.833183721955068Z" transform="translate(228.80735400144204,700.4137796094583)rotate(21.080518827398116)" fill="white" class="commune"><title>insee_com : 58194 
Population : 32990
 Nom : NEVERS</title></path></g><text class="text" y="40" x="427" text-anchor="middle" font-size="36" font-family="Helvetica" fill="#6baed6">58  - NIEVRE</text><line x1="715.7681038211966" y1="601.8829379951106" x2="482.2532372025958" y2="273.10691228848253" stroke="yellow" opacity="0.35" stroke-width="2"/><line x1="438.4762605142997" y1="250.97686745323688" x2="102.89043018505171" y2="292.0623103016716" stroke="yellow" opacity="0.35" stroke-width="2"/><line x1="87.19155010814711" y1="322.2354656907963" x2="218.69193943763526" y2="673.4010429009825" stroke="yellow" opacity="0.35" stroke-width="2"/><line x1="262.46891612593134" y1="695.5310877362281" x2="700.0692237442921" y2="632.0560933842353" stroke="yellow" opacity="0.35" stroke-width="2"/></svg>