<svg viewBox="0,0,955,1146" width="955" height="1146" style="width: 100%; height: auto;" xmlns="http://www.w3.org/2000/svg" xmlns:xlink="http://www.w3.org/1999/xlink"><rect width="955" height="1146" fill="black"/><g stroke="#000" stroke-opacity="0.2"><path d="M0,-13.34775705149959L2.9967581703553763,-4.1246837657014135L12.69447132175327,-4.124683765701414L4.848856575698947,1.5754890056530315L7.845614746054325,10.798562291451207L8.881784197001252e-16,5.098389520096762L-7.845614746054323,10.798562291451208L-4.848856575698946,1.5754890056530328L-12.694471321753271,-4.124683765701411L-2.9967581703553776,-4.124683765701413Z" transform="translate(447.6179245283018,722.6837794494786)rotate(14.65772772496867)" fill="white" class="commune"><title>32256 Population : 3483</title></path><path d="M0,-13.34775705149959L2.9967581703553763,-4.1246837657014135L12.69447132175327,-4.124683765701414L4.848856575698947,1.5754890056530315L7.845614746054325,10.798562291451207L8.881784197001252e-16,5.098389520096762L-7.845614746054323,10.798562291451208L-4.848856575698946,1.5754890056530328L-12.694471321753271,-4.124683765701411L-2.9967581703553776,-4.124683765701413Z" transform="translate(425.0539083557951,339.43445321429317)rotate(24.79012036424701)" fill="white" class="commune"><title>32107 Population : 6554</title></path><path d="M0,-18.876579049491834L4.238056047668955,-5.833183721955068L17.952693510379785,-5.833183721955069L6.857318731355415,2.2280779191642193L11.095374779024372,15.271473246700983L8.881784197001252e-16,7.210211605581696L-11.095374779024368,15.271473246700985L-6.857318731355414,2.2280779191642206L-17.952693510379788,-5.833183721955065L-4.238056047668956,-5.833183721955068Z" transform="translate(547.6314016172506,609.0251418600856)rotate(2.3444251511839234)" fill="white" class="commune"><title>32013 Population : 21618</title></path></g><text class="text" y="40" x="427.5" text-anchor="middle" font-size="36" font-family="Helvetica" fill="#6baed6">32 - GERS</text><line x1="539.4595687331536" y1="591.0524292836994" x2="433.22574123989216" y2="357.40716579067936" stroke="yellow" opacity="0.35" stroke-width="2"/><line x1="426.5581761006289" y1="364.9844082966389" x2="446.113656783468" y2="697.1338243671329" stroke="yellow" opacity="0.35" stroke-width="2"/><line x1="454.28548966756506" y1="715.106536943519" x2="540.9638364779873" y2="616.6023843660452" stroke="yellow" opacity="0.35" stroke-width="2"/></svg>