<svg viewBox="0,0,954,1144.8" width="954" height="1144.8" style="width: 100%; height: auto;" xmlns="http://www.w3.org/2000/svg" xmlns:xlink="http://www.w3.org/1999/xlink"><rect width="954" height="1144.8" fill="black"/><g stroke="#000" stroke-opacity="0.2"><path d="M0,-15.873247654971056L3.5637661381291506,-4.905103281308338L15.096355617026989,-4.905103281308339L5.766294739448918,1.873582735131148L9.330060877578072,12.841727108793865L8.881784197001252e-16,6.063041092354379L-9.330060877578068,12.841727108793867L-5.766294739448918,1.8735827351311491L-15.09635561702699,-4.905103281308335L-3.563766138129152,-4.905103281308337Z" transform="translate(613.9742070025245,568.537225142114)rotate(23.635627394348177)" fill="white" class="commune"><title>insee_com : 64422 
Population : 10684
 Nom : OLORON SAINTE MARIE</title></path><path d="M0,-22.448162112566994L5.039926405668234,-6.936863585267022L21.349470856006818,-6.936863585267023L8.154772225169292,2.649646114250548L13.19469863083753,18.16094464155052L8.881784197001252e-16,8.574434942032948L-13.194698630837525,18.160944641550522L-8.154772225169292,2.649646114250549L-21.34947085600682,-6.936863585267019L-5.0399264056682345,-6.936863585267021Z" transform="translate(182.36406541543192,364.56878866717307)rotate(15.724658634296922)" fill="white" class="commune"><title>insee_com : 64102 
Population : 51228
 Nom : BAYONNE</title></path><path d="M0,-22.448162112566994L5.039926405668234,-6.936863585267022L21.349470856006818,-6.936863585267023L8.154772225169292,2.649646114250548L13.19469863083753,18.16094464155052L8.881784197001252e-16,8.574434942032948L-13.194698630837525,18.160944641550522L-8.154772225169292,2.649646114250549L-21.34947085600682,-6.936863585267019L-5.0399264056682345,-6.936863585267021Z" transform="translate(730.2608934255296,500.1594247596622)rotate(8.81223638382128)" fill="white" class="commune"><title>insee_com : 64445 
Population : 77130
 Nom : PAU</title></path></g><text class="text" y="40" x="427" text-anchor="middle" font-size="36" font-family="Helvetica" fill="#6baed6">64  - PYRENEES ATLANTIQUES</text><line x1="211.1380748545714" y1="378.1666844321691" x2="585.200197563385" y2="554.9393293771179" stroke="yellow" opacity="0.35" stroke-width="2"/><line x1="621.7266527640581" y1="563.9787051166172" x2="722.508447663996" y2="504.717944785159" stroke="yellow" opacity="0.35" stroke-width="2"/><line x1="693.7344382248565" y1="491.1200490201629" x2="218.8905206161051" y2="373.60816440667236" stroke="yellow" opacity="0.35" stroke-width="2"/></svg>