<svg viewBox="0,0,600,600" width="600" height="600" style="width: 100%; height: auto;" xmlns="http://www.w3.org/2000/svg" xmlns:xlink="http://www.w3.org/1999/xlink"><rect width="752" height="902.4" fill="black"/><path d="M402.321541377132,424.4574548142664L402.321541377132,424.4574548142664L401.6266582438409,425.8892309965413L401.2792166771951,425.8892309965413L401.2792166771951,425.8892309965413L400.93177511054955,425.4119801135312L400.2368919772582,425.4119801135312L399.5420088439671,425.4119801135312L398.15224257738464,426.3664740357017L398.15224257738464,427.7981560940061L398.4996841440302,427.3209365840303L399.19456727732154,427.3209365840303L399.5420088439671,427.3209365840303L400.2368919772582,427.7981560940061L400.584333543904,427.7981560940061L400.93177511054955,427.7981560940061L400.584333543904,428.27536776173656L400.584333543904,428.7525715876218L399.88945041061265,429.2297675720474L398.84712571067575,429.2297675720474L397.80480101073886,430.184136018197L397.10991787744774,431.13847310338315L396.06759317751107,432.09277883084724L395.0252684775742,432.56991993644624L393.28806064434616,434.9555078991325L392.24573594440926,434.0012962254914L391.8982943777635,433.0470532038089L391.8982943777635,432.56991993644624L391.8982943777635,432.56991993644624L391.8982943777635,432.56991993644624L392.9406190777004,432.09277883084724L394.33038534428306,431.61562988662627L394.6778269109286,431.13847310338315L395.0252684775742,430.6613084806995L395.7201516108655,430.184136018197L397.10991787744774,428.7525715876218L397.4573594440933,428.27536776173656L397.80480101073886,427.7981560940061L398.15224257738464,427.7981560940061L398.15224257738464,427.3209365840303L397.80480101073886,425.8892309965413L397.80480101073886,425.8892309965413L397.10991787744774,425.8892309965413L396.7624763108024,426.3664740357017L396.06759317751107,426.3664740357017L395.0252684775742,426.3664740357017L394.6778269109286,426.3664740357017L394.33038534428306,426.3664740357017L394.33038534428306,426.3664740357017L393.9829437776373,425.8892309965413L393.9829437776373,425.8892309965413L393.9829437776373,425.4119801135312L394.33038534428306,425.4119801135312L394.6778269109286,425.4119801135312L395.37271004421996,424.93472138623474L397.80480101073886,424.4574548142664L398.15224257738464,423.9801803972405L399.19456727732154,423.50289813472045L401.2792166771951,423.0256080263207L402.6689829437778,423.0256080263207L404.7536323436516,422.5483100716483L405.1010739102967,422.5483100716483L405.1010739102967,423.0256080263207L405.1010739102967,423.0256080263207L405.1010739102967,423.0256080263207L405.1010739102967,423.0256080263207L404.4061907770058,423.9801803972405L404.4061907770058,423.9801803972405L404.0587492103598,424.4574548142664L403.7113076437147,424.4574548142664L403.3638660770689,424.4574548142664L403.3638660770689,424.4574548142664L403.3638660770689,424.4574548142664L403.0164245104231,424.4574548142664L402.6689829437778,424.4574548142664L402.6689829437778,423.9801803972405L402.321541377132,423.9801803972405L402.321541377132,423.9801803972405L402.321541377132,423.9801803972405ZM430.811749842072,475.95700026868144L430.811749842072,476.43342194108845L430.811749842072,476.43342194108845L430.46430827542645,476.9098358122246L428.03221730890687,476.9098358122246L427.68477574226176,476.9098358122246L426.98989260896997,476.9098358122246L426.64245104232486,476.43342194108845L425.94756790903375,475.95700026868144L424.90524320909685,475.95700026868144L424.2103600758053,475.4805707946034L423.1680353758686,475.0041335184651L422.47315224257727,475.0041335184651L422.1257106759317,475.0041335184651L421.77826910928616,474.0512355584033L422.82059380922306,473.57477487366486L423.86291850915995,473.57477487366486L425.60012634238797,474.0512355584033L428.03221730890687,474.52768843986996L429.7694251421351,475.4805707946034L430.11686670878066,475.4805707946034ZM238.32912192040408,401.0617746611679L237.2867972204674,401.5394261165238L235.89703095388495,402.0170697074318L234.5072646873025,402.0170697074318L233.1174984207198,400.58411534093466L231.3802905874918,399.15109018700605L231.0328490208467,399.15109018700605L229.9905243209098,398.6733994032729L227.905874921036,397.240279849113L227.21099178774466,397.240279849113L226.8635502210991,396.7625575953971L224.08401768793397,395.80708948202664L222.69425142135196,395.329343621579L220.95704358812327,394.85158989139745L217.83006948831326,393.89605882026444L216.78774478837636,393.4182814784908L214.35565382185723,393.4182814784908L211.22867972204654,392.9404962653862L208.44914718888162,392.46270318052484L206.71193935565384,392.46270318052484L204.62728995578004,392.46270318052484L203.2375236891976,391.9849022235285L199.76310802274133,391.9849022235285L196.6361339229311,391.9849022235285L193.16171825647484,392.9404962653862L191.7719519898926,392.9404962653862L190.38218572331016,393.4182814784908L190.03474415666437,393.4182814784908L189.68730259001882,393.4182814784908L188.64497789008192,392.9404962653862L187.60265319014525,392.9404962653862L185.86544535691678,393.4182814784908L184.12823752368877,393.4182814784908L183.0859128237521,393.89605882026444L180.30638029058719,394.373828291089L178.56917245735917,393.89605882026444L177.87428932406783,393.89605882026444L177.17940619077672,393.89605882026444L176.83196462413093,393.89605882026444L175.44219835754893,393.89605882026444L174.05243209096625,393.89605882026444L173.70499052432092,393.89605882026444L173.35754895767514,393.89605882026444L172.66266582438402,393.4182814784908L171.96778269109245,392.9404962653862L170.92545799115578,392.9404962653862L169.88313329121888,392.46270318052484L166.75615919140841,391.9849022235285L166.0612760581173,391.9849022235285L163.9766266582435,391.5070933939569L162.2394188250155,391.5070933939569L158.07012002526835,390.5514521155492L157.02779532533145,390.5514521155492L155.63802905874877,390.07361966588724L152.51105495893876,389.117931143639L150.07896399241918,388.1622111214383L148.34175615919116,387.2064595960728L146.9519898926087,386.7285720186701L144.86734049273514,385.29486202278713L143.82501579279824,384.8169429349073L142.78269109286134,383.86108112285365L141.04548325963333,381.9492629421766L140.35060012634221,381.471288695353L140.00315855969643,380.99330656707025L139.30827542640554,380.03731866444286L138.96083385975953,379.5593128893124L138.6133922931142,379.08129923107845L138.26595072646865,378.12524826371373L138.26595072646865,377.1691657591109L138.26595072646865,376.69111267932385L138.26595072646865,376.2130517140249L138.26595072646865,375.7349828627739L138.6133922931142,375.25690612518883L138.6133922931142,374.3007289893867L138.96083385975953,373.82262859034745L140.00315855969643,372.8664041279917L140.69804169298754,372.3882800638421L141.74036639292444,371.91014811053174L142.08780795957023,371.91014811053174L142.08780795957023,371.91014811053174L142.78269109286134,371.91014811053174L142.78269109286134,371.91014811053174L142.43524952621578,371.91014811053174L142.43524952621578,372.3882800638421L141.74036639292444,372.3882800638421L141.04548325963333,372.8664041279917L141.3929248262791,372.8664041279917L141.74036639292444,372.8664041279917L142.08780795957023,372.8664041279917L142.43524952621578,372.8664041279917L142.78269109286134,372.8664041279917L143.82501579279824,372.3882800638421L144.86734049273514,371.43200826763496L147.29943145925427,369.5193699920128L149.03663929248228,368.56300350613674L149.03663929248228,368.0848084247518L149.73152242577362,367.6066054505427L150.07896399241918,367.6066054505427L150.07896399241918,367.12839458307644L150.7738471257103,366.17194916681547L151.12128869235607,365.6937146171949L151.46873025900186,365.6937146171949L151.8161718256472,365.6937146171949L151.8161718256472,365.2154721727129L151.12128869235607,363.78069746598703L151.12128869235607,363.3024234379627L150.7738471257103,362.34585169082857L150.07896399241918,359.9542841059156L150.07896399241918,359.4759468913253L149.38408085912806,357.5625190273895L148.68919772583672,356.1273651621923L148.34175615919116,355.64896473500994L147.64687302589982,354.6921401699983L147.29943145925427,354.21371603138687L146.9519898926087,353.25684403983905L145.56222362602603,351.82147676073146L144.86734049273514,351.3430051882424L143.82501579279824,350.3860383216597L143.13013265950713,349.9075430267476L142.43524952621578,349.42903982355347L141.3929248262791,348.4720096906458L140.00315855969643,347.51494791970254L137.91850915982286,346.55785450746407L136.52874289324063,345.6007294506562L134.09665192672105,345.1221550545197L132.7068856601386,344.16498252476595L130.6222362602648,343.6863843903193L129.2324699936828,343.207778342301L126.1054958938721,342.72916438027823L124.71572962728965,342.2505425038653L122.97852179406141,342.2505425038653L121.58875552747918,341.77191271263655L118.46178142766848,341.77191271263655L114.98736576121269,341.29327500620275L112.90271636133889,341.29327500620275L110.12318382817398,341.29327500620275L108.03853442830064,341.29327500620275L105.95388502842684,341.29327500620275L104.56411876184416,341.29327500620275L102.13202779532503,341.29327500620275L99.6999368288059,341.77191271263655L97.96272899557789,342.2505425038653L96.92040429564099,342.72916438027823L96.57296272899521,343.207778342301L95.8780795957041,343.6863843903193L94.8357548957672,344.16498252476595L94.14087176247631,345.1221550545197L93.09854706253941,345.1221550545197L92.75110549589363,344.6435727460339L93.09854706253941,344.6435727460339L93.09854706253941,344.6435727460339L92.40366392924807,344.6435727460339L92.05622236260251,344.6435727460339L91.70878079595673,345.1221550545197L91.70878079595673,345.1221550545197L91.70878079595673,346.0792959348437L92.05622236260251,346.55785450746407L92.05622236260251,346.55785450746407L92.05622236260251,346.55785450746407L92.05622236260251,346.55785450746407L92.05622236260251,346.55785450746407L91.70878079595673,346.55785450746407L91.70878079595673,345.6007294506562L91.01389766266561,345.6007294506562L90.66645609601983,345.6007294506562L89.97157296272871,345.1221550545197L89.62413139608316,345.1221550545197L88.58180669614626,345.1221550545197L87.53948199620936,345.1221550545197L86.1497157296269,345.1221550545197L85.45483259633556,345.6007294506562L84.75994946304468,346.0792959348437L84.06506632975356,345.6007294506562L82.3278584965251,344.16498252476595L81.28553379658865,344.16498252476595L80.59065066329708,343.6863843903193L79.89576753000597,343.6863843903193L79.54832596336018,343.6863843903193L77.46367656348684,343.207778342301L76.7687934301955,343.207778342301L76.42135186354994,343.207778342301L74.68414403032193,342.72916438027823L73.64181933038503,342.72916438027823L72.94693619709392,342.72916438027823L72.59949463044813,342.72916438027823L71.90461149715702,342.72916438027823L70.86228679722012,342.72916438027823L70.51484523057434,342.72916438027823L68.430195830701,342.72916438027823L67.73531269740965,342.2505425038653L66.69298799747276,342.2505425038653L66.3455464308272,342.2505425038653L65.99810486418164,342.2505425038653L64.2608970309534,341.77191271263655L64.2608970309534,341.77191271263655L63.56601389766229,341.77191271263655L62.8711307643714,341.77191271263655L62.523689197725616,341.77191271263655L61.8288060644345,341.77191271263655L61.13392293114293,341.77191271263655L59.04927353126959,341.77191271263655L57.31206569804135,341.29327500620275L56.26974099810445,341.29327500620275L53.142766898293985,341.29327500620275L50.363234365129074,341.29327500620275L50.01579279848352,341.29327500620275L48.62602653190106,341.29327500620275L47.931143398610175,341.29327500620275L46.54137713202749,340.8146293841346L45.84649399873638,341.29327500620275L45.49905243209059,341.29327500620275L43.414403032217024,340.8146293841346L41.677195198988784,340.8146293841346L40.28742893240633,340.8146293841346L38.55022109917854,340.8146293841346L37.16045483259586,340.3359758460356L36.11813013265896,340.3359758460356L32.99115603284895,340.3359758460356L30.559065066329595,339.85731439150914L29.16929879974691,339.85731439150914L27.779532533164684,339.85731439150914L26.042324699936216,339.85731439150914L25.694883133290887,339.85731439150914L25,339.85731439150914L25,339.85731439150914L25,337.94258940084546L25.347441566645102,336.9851793962953L25.347441566645102,334.59151579015816L25.694883133290887,333.15522257377233L25.694883133290887,332.67644232372913L25,331.2400540342169L25,330.76124208987676L25.347441566645102,330.28242222094923L25.347441566645102,329.80359442700865L27.084649399873115,326.45157793504404L28.126974099810013,324.0570426008235L28.126974099810013,323.57811174467133L28.126974099810013,323.57811174467133L27.779532533164684,323.09917295780906L27.779532533164684,322.62022623980374L27.779532533164684,322.14127159027703L27.779532533164684,322.14127159027703L28.474415666455798,321.18333849493865L28.821857233101355,320.7043600483412L29.864181933038253,320.22537366855613L30.21162349968381,319.7463793551942L30.559065066329595,319.7463793551942L30.559065066329595,319.7463793551942L33.33859759949405,318.3093488095292L34.03348073278562,317.8303227577635L36.81301326595053,316.8722468469314L37.507896399241645,316.8722468469314L38.8976626658241,316.8722468469314L39.939987365761,316.8722468469314L40.98231206569767,316.3931969870464L41.32975363234323,316.3931969870464L43.06696146557147,315.43507345632315L44.80416929879948,314.4769181749216L45.151610865445036,314.4769181749216L45.84649399873638,313.9978286266887L47.58370183196416,313.9978286266887L47.931143398610175,313.518731139553L48.27858496525528,313.518731139553L50.01579279848352,312.08139104070506L51.058117498420415,310.6439794770413L52.44788376500287,309.20649643752404L52.44788376500287,308.7273195389171L52.79532533164843,308.7273195389171L52.79532533164843,308.7273195389171L53.142766898293985,308.7273195389171L54.18509159823088,308.7273195389171L54.53253316487667,308.7273195389171L55.227416298167554,308.7273195389171L55.922299431458896,308.7273195389171L56.26974099810445,308.7273195389171L56.964624131395794,308.24813469692526L58.00694883133269,307.2897411810918L57.31206569804135,306.33131588675315L56.964624131395794,305.85209132161253L55.57485786481311,304.89361835337695L55.227416298167554,304.41436994944524L54.879974731522225,303.9351135984398L53.837650031585326,302.01800871537125L52.79532533164843,300.1007766462135L52.10044219835709,299.1421129086375L52.10044219835709,298.66276911268506L52.10044219835709,298.1834173647294L52.10044219835709,297.7040576643558L52.79532533164843,296.74531440474675L53.142766898293985,296.26593084468186L53.49020846493977,296.26593084468186L53.49020846493977,296.26593084468186L54.879974731522225,294.8277324385672L55.57485786481311,293.38946243493774L55.57485786481311,293.38946243493774L55.922299431458896,293.38946243493774L56.61718256475001,293.8688937254483L56.964624131395794,294.3483170598447L57.31206569804135,294.3483170598447L57.31206569804135,294.8277324385672L57.31206569804135,294.8277324385672L57.31206569804135,295.3071398620086L57.31206569804135,295.7865393305656L56.964624131395794,296.26593084468186L55.57485786481311,297.2246900111604L55.227416298167554,297.2246900111604L54.879974731522225,297.7040576643558L54.879974731522225,298.1834173647294L54.879974731522225,298.1834173647294L54.879974731522225,298.66276911268506L54.879974731522225,299.1421129086375L55.227416298167554,299.621448753016L55.922299431458896,300.1007766462135L56.61718256475001,301.05940858069516L58.00694883133269,302.01800871537125L59.744156664560705,302.97657705353777L60.09159823120649,303.4558492999349L60.43903979785182,303.4558492999349L60.786481364497604,303.9351135984398L61.13392293114293,303.9351135984398L61.8288060644345,303.4558492999349L62.523689197725616,302.97657705353777L63.913455464307845,302.01800871537125L64.95578016424474,301.05940858069516L65.65066329753608,300.5800965886301L66.3455464308272,299.621448753016L66.69298799747276,298.66276911268506L66.69298799747276,298.1834173647294L67.04042956411854,298.1834173647294L67.04042956411854,298.1834173647294L67.3878711307641,298.1834173647294L68.08275426405544,298.1834173647294L70.16740366392924,298.1834173647294L70.86228679722012,298.1834173647294L71.90461149715702,298.1834173647294L72.59949463044813,297.7040576643558L73.29437776373925,297.7040576643558L75.72646873025883,296.26593084468186L76.42135186354994,295.7865393305656L77.11623499684129,295.7865393305656L77.46367656348684,295.3071398620086L77.81111813013217,295.3071398620086L78.15855969677818,294.8277324385672L78.85344283006907,294.3483170598447L79.20088439671486,293.38946243493774L79.20088439671486,292.9100231879311L79.54832596336018,291.9511208227341L79.54832596336018,291.4716577037216L79.54832596336018,290.99218662656494L79.54832596336018,290.99218662656494L79.89576753000597,290.99218662656494L80.24320909665175,290.5127075908531L80.93809222994287,290.99218662656494L82.67530006317088,291.4716577037216L84.41250789639889,291.9511208227341L85.10739102969023,292.4305759839881L85.80227416298158,292.4305759839881L86.1497157296269,291.9511208227341L86.49715729627246,291.9511208227341L87.1920404295638,291.4716577037216L87.88692356285492,290.99218662656494L88.58180669614626,290.033220596164L89.2766898294376,289.5537256420939L89.2766898294376,289.0742227282426L89.62413139608316,289.0742227282426L89.62413139608316,288.11519301951193L89.97157296272871,287.63566622381404L89.97157296272871,287.15613146669057L89.97157296272871,286.67658874771223L89.97157296272871,286.67658874771223L89.97157296272871,286.19703806648613L89.62413139608316,286.19703806648613L89.2766898294376,286.19703806648613L88.92924826279182,285.7174794226048L88.92924826279182,285.7174794226048L88.58180669614626,285.7174794226048L87.53948199620936,285.7174794226048L86.49715729627246,286.19703806648613L86.49715729627246,286.19703806648613L86.1497157296269,286.19703806648613L86.1497157296269,286.19703806648613L85.80227416298158,286.19703806648613L85.45483259633556,286.19703806648613L85.10739102969023,286.19703806648613L85.10739102969023,286.19703806648613L85.10739102969023,285.7174794226048L85.10739102969023,285.7174794226048L85.45483259633556,285.23791281563535L85.45483259633556,285.23791281563535L86.49715729627246,284.2787557108386L87.88692356285492,283.3195667488071L88.58180669614626,282.83996032032155L89.97157296272871,281.88072356630073L90.31901452937427,281.40109323995057L91.01389766266561,280.9214549468379L92.05622236260251,280.4418086865371L92.75110549589363,279.96215445864436L93.09854706253941,279.96215445864436L93.44598862918451,279.48249226275584L94.8357548957672,279.48249226275584L96.22552116234965,279.96215445864436L96.92040429564099,279.96215445864436L97.6152874289321,280.4418086865371L99.00505369551456,280.9214549468379L100.04737839545146,280.9214549468379L100.39481996209679,280.9214549468379L101.08970309538813,280.9214549468379L101.78458622867925,280.4418086865371L102.13202779532503,280.4418086865371L102.82691092861614,279.96215445864436L103.52179406190749,279.48249226275584L104.56411876184416,278.5231439653071L104.56411876184416,278.5231439653071L105.25900189513573,277.5637637909276L105.60644346178105,277.08406174886477L105.60644346178105,277.08406174886477L106.30132659507262,275.1651738717701L106.99620972836374,274.2056821021979L107.34365129500884,273.24615844088476L107.69109286165485,272.76638464979624L108.03853442830064,272.2866028845456L109.42830069488264,271.32701542988434L109.77574226152842,270.8472097396516L109.77574226152842,270.8472097396516L110.12318382817398,269.8875744313409L110.12318382817398,269.4077448124299L110.12318382817398,268.92790721648635L110.12318382817398,268.4480616430701L109.77574226152842,267.96820809179553L109.42830069488264,267.00847705396154L108.73341756159152,266.5285995666127L108.38597599494574,266.04871409972475L107.69109286165485,265.56882065291575L107.34365129500884,265.56882065291575L106.30132659507262,265.56882065291575L105.95388502842684,265.56882065291575L105.60644346178105,265.56882065291575L105.25900189513573,266.04871409972475L103.86923562855304,267.00847705396154L103.52179406190749,267.00847705396154L102.82691092861614,267.48834656222607L101.78458622867925,267.48834656222607L100.39481996209679,267.96820809179553L99.6999368288059,267.96820809179553L99.00505369551456,267.96820809179553L97.96272899557789,267.48834656222607L97.26784586228655,267.00847705396154L97.26784586228655,267.00847705396154L95.18319646241298,265.0889192257746L94.48831332912141,264.12909242880414L93.7934301958303,263.16923370556106L93.44598862918451,262.68929237053817L93.09854706253941,262.20934305270566L93.09854706253941,261.7293857516597L93.09854706253941,260.7694471982322L93.44598862918451,259.80947670699607L93.7934301958303,259.80947670699607L94.8357548957672,258.36946107949916L95.18319646241298,258.36946107949916L95.53063802905831,257.88943989785184L96.22552116234965,256.44932842968046L96.22552116234965,255.9692752978408L96.57296272899521,254.04898288061304L96.92040429564099,252.6086796717609L97.6152874289321,250.2080144889369L98.31017056222345,249.24769246402866L99.00505369551456,247.80714946801163L100.39481996209679,244.4456026125481L101.78458622867925,242.04425776979406L101.78458622867925,241.56396480127296L102.47946936197059,241.08366383181783L103.17435249526193,240.6033548609812L104.21667719519883,240.12303788836653L104.56411876184416,240.12303788836653L106.30132659507262,239.64271291357727L107.34365129500884,239.64271291357727L108.03853442830064,239.1623799361696L109.42830069488264,239.1623799361696L109.77574226152842,238.68203895576153L110.47062539481954,238.68203895576153L110.81806696146532,238.20168997190922L111.16550852811088,237.72133298421613L111.51295009475643,236.76059499566327L111.51295009475643,236.76059499566327L111.51295009475643,236.28021399397403L111.16550852811088,235.79982498678146L111.16550852811088,235.31942797368174L110.47062539481954,233.87818889482514L110.47062539481954,233.39775985396045L110.47062539481954,232.4368777479067L110.47062539481954,232.4368777479067L110.47062539481954,231.9564246818809L110.81806696146532,230.51501742687833L112.20783322804778,227.63198662345167L112.90271636133889,226.67091225656986L113.25015792798467,225.7098058346237L113.94504106127579,225.22924060198784L113.94504106127579,225.22924060198784L114.29248262792157,225.22924060198784L117.41945672773227,224.26808609125874L118.80922299431427,223.78749681236877L119.85154769425117,223.78749681236877L121.58875552747918,223.78749681236877L123.67340492735275,223.78749681236877L125.75805432722632,223.78749681236877L126.45293746051789,223.78749681236877L127.147820593809,223.78749681236877L127.49526216045479,223.78749681236877L127.84270372710012,223.3068995172216L128.53758686039123,223.3068995172216L128.885028427037,222.82629420542798L129.57991156032813,222.3456808765477L130.2747946936197,221.38443016592282L130.9696778269108,221.38443016592282L131.31711939355614,220.90379278333785L132.01200252684748,220.90379278333785L132.35944409349304,220.90379278333785L133.05432722678438,221.38443016592282L134.44409349336684,221.8650595301915L134.44409349336684,222.3456808765477L135.8338597599493,223.3068995172216L137.5710675931773,224.26808609125874L138.6133922931142,224.7486673543317L139.30827542640554,225.22924060198784L139.65571699305065,225.22924060198784L141.3929248262791,225.22924060198784L144.86734049273514,225.7098058346237L145.56222362602603,225.7098058346237L146.60454832596292,226.19036305268673L147.29943145925427,226.67091225656986L147.64687302589982,226.67091225656986L147.64687302589982,227.15145344668053L148.68919772583672,228.59302893859058L149.73152242577362,230.03453232152606L150.7738471257103,230.51501742687833L151.12128869235607,230.51501742687833L151.8161718256472,230.99549452178326L153.20593809222987,231.47596360665557L154.24826279216677,231.47596360665557L155.63802905874877,231.47596360665557L156.68035375868567,230.99549452178326L157.72267845862257,230.51501742687833L158.76500315855947,230.03453232152606L159.4598862918508,230.03453232152606L160.15476942514192,230.51501742687833L161.19709412507882,230.99549452178326L161.8919772583697,231.47596360665557L162.2394188250155,231.9564246818809L162.9343019583066,231.9564246818809L163.2817435249524,230.03453232152606L163.2817435249524,229.55403920529352L162.9343019583066,229.07353807778418L162.2394188250155,226.67091225656986L161.8919772583697,225.7098058346237L161.5445356917246,224.7486673543317L161.19709412507882,224.26808609125874L160.15476942514192,223.3068995172216L159.4598862918508,221.8650595301915L158.76500315855947,220.90379278333785L158.76500315855947,219.9424939615892L158.07012002526835,218.01980008008832L157.72267845862257,215.61625224781892L157.72267845862257,214.6547769548124L157.72267845862257,212.7317300761606L158.07012002526835,211.77015848387236L158.4175615919139,209.8469189767893L159.11244472520502,208.40440505123843L160.15476942514192,206.48094073556422L160.5022109917877,206.00005457979205L160.5022109917877,205.5191603924286L161.8919772583697,203.1145689675286L162.2394188250155,202.15267616203346L162.5868603916615,201.19075121696733L162.5868603916615,200.2287941289942L162.9343019583066,199.74780353040114L163.2817435249524,197.82376076216315L163.2817435249524,197.34272997456355L163.2817435249524,196.86169114791846L163.62918509159772,195.89958937585106L163.9766266582435,194.93745544262492L164.3240682248893,194.45637641453504L165.3663929248262,193.01309107940688L167.45104232469976,190.12630324279235L168.84080859128198,188.68280071888148L169.53569172457355,187.7204254710232L170.57801642451022,186.27680224304277L171.27289955780134,185.3143465154135L171.62034112444712,184.83310657765105L171.62034112444712,184.35185859004196L171.96778269109245,181.94549788974473L172.31522425773824,179.05759931742068L172.31522425773824,177.6135412965159L172.66266582438402,176.65079566949862L172.66266582438402,175.20661680100602L172.66266582438402,173.28093215999615L172.66266582438402,172.31804148215087L172.31522425773824,170.39216339504128L171.96778269109245,169.9106737184593L171.62034112444712,168.466156310551L171.27289955780134,167.98463438045655L170.23057485786444,166.05846601171652L169.18825015792754,164.6137550426938L168.84080859128198,163.65057406067717L168.1459254579911,162.20574207530444L168.1459254579911,161.72411527521763L168.49336702463665,161.24248040530802L168.49336702463665,160.76083746512086L169.53569172457355,159.79752737232047L170.92545799115578,157.87081032525384L173.70499052432092,156.907403364301L174.39987365761203,156.42568777302222L175.09475679090315,155.94396410730405L176.48452305748583,155.4622323667354L176.48452305748583,155.4622323667354L176.83196462413093,154.49874465939138L176.83196462413093,154.01698869177199L176.83196462413093,154.01698869177199L176.48452305748583,153.053452526583L176.48452305748583,152.57167232815482L176.48452305748583,152.57167232815482L176.13708149084005,152.08988405195487L175.78963992419403,151.60808769757205L175.44219835754893,151.60808769757205L175.09475679090315,151.1262832645807L174.39987365761203,151.1262832645807L174.05243209096625,151.1262832645807L173.35754895767514,151.1262832645807L171.62034112444712,151.60808769757205L170.57801642451022,151.60808769757205L170.23057485786444,152.08988405195487L169.18825015792754,152.57167232815482L167.7984838913453,152.08988405195487L168.49336702463665,150.16265016110265L169.53569172457355,149.68082148977555L169.88313329121888,149.19898473817375L170.23057485786444,149.19898473817375L170.23057485786444,148.23528699247618L170.23057485786444,147.7534259975473L170.23057485786444,147.27155692065207L169.88313329121888,147.27155692065207L168.84080859128198,146.78967976140484L168.49336702463665,146.30779451935814L168.1459254579911,145.34399978525835L168.1459254579911,144.38017271499848L168.1459254579911,143.89824705275896L168.84080859128198,143.89824705275896L169.53569172457355,143.41631330522432L171.96778269109245,141.97046354670601L173.35754895767514,140.52454100548493L173.70499052432092,140.52454100548493L174.39987365761203,140.04255064918834L174.74731522425736,140.04255064918834L175.09475679090315,142.4524215526144L175.78963992419403,142.4524215526144L176.13708149084005,141.97046354670601L176.13708149084005,141.48849745381813L176.13708149084005,140.52454100548493L176.13708149084005,140.52454100548493L176.48452305748583,140.52454100548493L176.83196462413093,140.04255064918834L177.52684775742227,139.56055220425696L180.30638029058719,138.1145083334559L182.04358812381543,137.15043863540632L182.73847125710677,137.15043863540632L183.43335439039788,136.66839164985504L183.78079595704367,136.66839164985504L184.47567909033478,136.66839164985504L185.51800379027145,136.18633657273676L185.51800379027145,136.18633657273676L185.86544535691678,135.70427340364404L187.60265319014525,134.25803534023726L188.29753632343636,132.81172443389005L189.33986102337326,131.84747668911223L189.68730259001882,131.36534067329558L190.03474415666437,130.8831965613208L190.38218572331016,130.8831965613208L190.72962728995572,130.40104435274043L191.07706885660127,130.40104435274043L191.42451042324683,129.918884047147L191.42451042324683,129.918884047147L191.42451042324683,129.43671564414035L191.42451042324683,129.43671564414035L190.03474415666437,129.918884047147L187.95009475679058,129.918884047147L187.60265319014525,129.918884047147L187.60265319014525,129.918884047147L188.29753632343636,129.43671564414035L189.68730259001882,128.954539143273L192.4668351231835,127.99016184633729L193.16171825647484,127.50796104942128L194.89892608970285,126.54353515658295L196.2886923562853,125.57907686231192L197.3310170562222,124.13232866085309L198.7207833228049,122.20321762256208L200.45799115603268,120.27397691811711L201.1528742893238,120.27397691811711L202.1951989892607,118.82696128023599L202.1951989892607,117.86224365368616L201.8477574226149,116.89749359547204L204.2798483891345,117.37987267874269L204.62728995578004,117.37987267874269L209.14403032217274,117.86224365368616L214.00821225521145,118.82696128023599L226.8635502210991,121.72091960370017L230.3379658875549,122.20321762256208L241.45609602021455,123.1677893483029L251.18445988629173,127.50796104942128L251.5319014529373,127.99016184633729L252.57422615287396,128.47235454415568L252.57422615287396,128.47235454415568L258.48073278584957,134.25803534023726L260.56538218572337,135.22220214213303L265.4295641187616,134.74012278779992L266.4718888186985,134.74012278779992L268.2090966519263,136.18633657273676L274.11560328490214,139.0785456702797L280.71699305116863,141.97046354670601L283.84396715097887,144.38017271499848L289.7504737839545,152.57167232815482L291.48768161718226,154.98049255091246L291.48768161718226,154.98049255091246L292.87744788376494,155.94396410730405L293.57233101705606,156.42568777302222L293.9197725837016,156.907403364301L294.2672141503474,157.3891108815733L294.9620972836385,157.87081032525384L300.5211623499681,161.72411527521763L302.9532533164877,163.65057406067717L304.6904611497157,167.021566326599L305.3853442830066,167.98463438045655L306.7751105495893,171.35511856159792L307.4699936828804,173.76236540897662L307.81743524952594,179.05759931742068L307.81743524952594,179.538935880817L308.1648768161717,180.02026438978282L308.1648768161717,180.5015848447474L308.5123183828173,180.9828972461073L309.90208464939974,181.94549788974473L315.46114971572933,185.3143465154135L317.1983575489576,186.27680224304277L319.6304485154769,187.23922577626945L324.14718888186985,190.12630324279235L335.6127605811746,196.38064428183134L340.47694251421353,199.26680489482533L352.6373973468096,206.00005457979205L357.8490208464939,207.92355101761132L364.4504106127606,205.03825817308098L368.2722678458622,203.59550331897844L368.2722678458622,203.59550331897844L372.094125078964,202.15267616203346L374.5262160454831,201.67171770714776L376.9583070120025,201.67171770714776L378.0006317119394,202.15267616203346L381.82248894504073,202.63362658201368L384.2545799115603,203.59550331897844L386.68667087807967,204.55734792133808L387.72899557801657,204.55734792133808L392.24573594440926,205.5191603924286L395.37271004421996,206.00005457979205L399.88945041061265,206.48094073556422L402.6689829437778,207.44268895407004L405.7959570435878,210.80855478519152L410.3126974099812,215.1355186131659L412.0499052432092,215.61625224781892L415.5243209096652,217.53910655771324L417.608970309539,218.500485581244L420.3885028427037,219.9424939615892L421.4308275426406,220.4231473820364L422.47315224257727,220.90379278333785L425.60012634238797,223.3068995172216L427.33733417561575,223.78749681236877L428.37965887555265,223.78749681236877L430.46430827542645,225.22924060198784L432.20151610865446,226.19036305268673L433.5912823752369,226.67091225656986L436.02337334175604,228.1125117872907L437.06569804169294,229.07353807778418L439.8452305748581,230.99549452178326L440.88755527479475,231.47596360665557L442.277321541377,231.9564246818809L445.0568540745419,233.87818889482514L446.79406190777013,234.35860992811286L447.1415034744157,234.35860992811286L448.8787113076439,234.35860992811286L449.226152874289,234.35860992811286L450.9633607075177,235.31942797368174L454.4377763739735,237.2409679922821L456.8698673404929,237.72133298421613L458.2596336070751,239.1623799361696L458.95451674036644,239.1623799361696L459.99684144030334,239.1623799361696L462.08149084017714,240.12303788836653L462.08149084017714,240.6033548609812L464.86102337334205,240.6033548609812L467.6405559065065,241.08366383181783L470.4200884396714,242.04425776979406L472.852179406191,243.48508867374767L477.3689197725837,244.4456026125481L481.53821857233083,243.48508867374767L483.62286797220463,243.96534964259263L486.7498420720153,243.48508867374767L492.3089071383449,243.00481970562032L493.6986734049274,243.00481970562032L496.47820593809206,243.48508867374767L499.25773847125697,243.96534964259263L503.42703727100434,244.4456026125481L503.7744788376499,243.96534964259263L504.1219204042957,243.48508867374767L505.1642451042326,242.52454273777767L505.51168667087813,242.04425776979406L506.2065698041695,242.04425776979406L509.3335439039797,241.08366383181783L511.07075173720773,240.6033548609812L513.8502842703726,239.1623799361696L516.2823752368922,237.72133298421613L517.6721415034742,236.28021399397403L517.6721415034742,236.28021399397403L519.4093493367022,233.87818889482514L520.1042324699938,232.91732280512952L520.4516740366391,232.4368777479067L520.7991156032849,231.9564246818809L521.1465571699307,231.47596360665557L521.493998736576,231.47596360665557L522.1888818698674,230.99549452178326L523.2312065698043,230.51501742687833L523.2312065698043,230.51501742687833L523.5786481364498,230.51501742687833L524.6209728363867,229.55403920529352L525.6632975363236,228.59302893859058L527.0530638029059,228.1125117872907L529.1377132027797,228.1125117872907L529.8325963360708,228.1125117872907L537.8237523689199,229.55403920529352L538.518635502211,229.55403920529352L539.2135186355024,229.55403920529352L540.2558433354393,229.07353807778418L540.6032849020849,229.07353807778418L541.2981680353762,228.59302893859058L541.6456096020213,228.1125117872907L541.6456096020213,228.1125117872907L547.2046746683513,218.9811630616059L547.5521162349969,218.500485581244L548.5944409349336,217.05840501372222L549.6367656348705,216.09697785917524L549.984207201516,216.09697785917524L552.4162981680356,215.1355186131659L553.1111813013267,214.6547769548124L553.4586228679725,214.17402727235822L553.4586228679725,214.17402727235822L554.1535060012636,212.7317300761606L555.8907138344916,213.21250383344886L559.0176879343021,213.6932695653668L559.3651295009477,213.6932695653668L560.7548957675301,214.6547769548124L561.797220467467,215.61625224781892L563.5344283006953,216.09697785917524L564.2293114339864,216.5776954476787L565.271636133923,217.53910655771324L565.271636133923,218.500485581244L564.9241945672773,220.4231473820364L564.2293114339864,221.8650595301915L564.5767530006322,222.82629420542798L565.6190777005684,224.7486673543317L566.3139608338599,226.19036305268673L567.7037271004422,228.1125117872907L568.051168667088,228.1125117872907L568.3986102337335,228.59302893859058L569.4409349336704,228.1125117872907L570.1358180669617,228.1125117872907L571.1781427668982,227.63198662345167L572.5679090334809,228.1125117872907L572.5679090334809,228.1125117872907L572.9153506001264,228.59302893859058L573.6102337334178,229.55403920529352L573.9576753000631,229.55403920529352L574.6525584333547,230.03453232152606L575,230.03453232152606L573.6102337334178,232.4368777479067L573.262792166772,232.4368777479067L572.9153506001264,232.91732280512952L572.5679090334809,233.39775985396045L572.2204674668351,233.39775985396045L571.8730259001895,234.35860992811286L571.8730259001895,234.35860992811286L571.1781427668982,237.72133298421613L570.4832596336073,241.08366383181783L570.4832596336073,242.04425776979406L570.1358180669617,243.00481970562032L570.1358180669617,243.48508867374767L570.1358180669617,243.96534964259263L570.4832596336073,243.96534964259263L570.1358180669617,243.96534964259263L569.788376500316,243.48508867374767L568.7460518003791,243.48508867374767L568.051168667088,243.48508867374767L567.3562855337968,243.48508867374767L566.3139608338599,243.96534964259263L565.6190777005684,243.96534964259263L564.9241945672773,243.96534964259263L563.8818698673404,243.48508867374767L562.4921036007584,243.48508867374767L561.1023373341757,243.48508867374767L559.3651295009477,243.96534964259263L558.6702463676563,243.96534964259263L557.6279216677194,244.4456026125481L557.2804801010739,244.4456026125481L556.2381554011374,244.92584758401426L554.8483891345547,244.92584758401426L553.4586228679725,245.40608455743495L551.0265319014529,245.40608455743495L550.3316487681618,245.88631353319943L547.5521162349969,247.32695247873198L545.4674668351233,248.287338461716L543.7302590018951,248.76751946025252L543.035375868604,249.24769246402866L542.6879343019582,249.24769246402866L542.3404927353131,248.76751946025252L541.9930511686671,249.24769246402866L541.2981680353762,250.2080144889369L540.2558433354393,251.6484375759028L539.2135186355024,253.08878873229332L537.4763108022744,252.12856261977504L536.4339861023375,252.12856261977504L535.3916614024006,252.6086796717609L535.7391029690461,255.0091450680302L534.6967782691092,255.9692752978408L534.3493367024637,256.92937357335904L533.307012002527,258.36946107949916L532.9595704358815,258.8494742746334L532.9595704358815,259.80947670699607L532.6121288692357,260.2894659450576L532.2646873025903,261.24942046697106L531.5698041692988,262.20934305270566L530.5274794693619,264.609009817872L529.4851547694252,266.04871409972475L529.1377132027797,266.5285995666127L529.1377132027797,267.48834656222607L529.4851547694252,270.8472097396516L529.8325963360708,272.2866028845456L530.8749210360077,275.1651738717701L531.9172457359446,277.5637637909276L532.9595704358815,279.96215445864436L529.8325963360708,280.9214549468379L526.7056222362603,281.88072356630073L523.9260897030956,282.83996032032155L522.1888818698674,283.3195667488071L520.4516740366391,283.3195667488071L520.4516740366391,285.23791281563535L521.1465571699307,285.7174794226048L523.2312065698043,288.11519301951193L523.9260897030956,288.59471185417715L524.2735312697412,289.0742227282426L524.6209728363867,289.5537256420939L524.9684144030323,289.5537256420939L525.6632975363236,289.5537256420939L526.358180669615,289.5537256420939L529.4851547694252,290.5127075908531L530.8749210360077,290.5127075908531L532.9595704358815,290.5127075908531L534.0018951358184,290.99218662656494L534.3493367024637,290.99218662656494L535.044219835755,291.4716577037216L535.7391029690461,291.9511208227341L536.781427668983,292.4305759839881L537.4763108022744,292.9100231879311L538.1711939355655,293.8688937254483L538.1711939355655,293.8688937254483L538.1711939355655,293.8688937254483L538.518635502211,294.3483170598447L539.560960202148,294.8277324385672L539.560960202148,295.3071398620086L539.9084017687935,295.3071398620086L540.9507264687302,295.7865393305656L541.6456096020213,296.26593084468186L542.6879343019582,296.26593084468186L543.035375868604,296.26593084468186L543.035375868604,295.7865393305656L543.3828174352498,295.7865393305656L543.3828174352498,295.7865393305656L544.0777005685409,295.7865393305656L544.4251421351864,296.26593084468186L544.4251421351864,296.26593084468186L544.0777005685409,296.26593084468186L543.7302590018951,297.7040576643558L542.6879343019582,299.621448753016L541.9930511686671,302.497296858819L541.6456096020213,303.9351135984398L541.9930511686671,307.2897411810918L541.6456096020213,310.6439794770413L540.9507264687302,312.56051234697225L540.2558433354393,314.95599978465907L540.2558433354393,317.35128877036914L541.2981680353762,318.7883669260955L541.2981680353762,318.7883669260955L540.9507264687302,319.7463793551942L539.9084017687935,321.18333849493865L539.560960202148,322.14127159027703L537.8237523689199,322.14127159027703L536.4339861023375,325.0148805225872L535.3916614024006,328.84591506249126L535.3916614024006,328.84591506249126L535.3916614024006,329.3247587076512L535.7391029690461,329.3247587076512L538.518635502211,330.28242222094923L540.2558433354393,331.2400540342169L540.9507264687302,331.7188580543698L540.6032849020849,332.67644232372913L542.6879343019582,334.59151579015816L543.3828174352498,335.07026435242005L544.772583701832,336.02773771457214L545.4674668351233,336.50646251528815L546.50979153506,337.94258940084546L546.50979153506,338.4212825252107L546.8572331017058,339.3786450201296L547.2046746683513,340.3359758460356L551.0265319014529,347.99348276013916L552.0688566013898,350.3860383216597L553.1111813013267,351.3430051882424L553.8060644346178,352.2999404265647L555.8907138344916,353.7352839881278L557.6279216677194,355.1705564044096L559.0176879343021,356.6057576863823L559.3651295009477,356.6057576863823L561.797220467467,358.51924876128396L562.1446620341126,358.51924876128396L562.1446620341126,358.51924876128396L562.4921036007584,358.9976017765912L563.5344283006953,358.9976017765912L563.8818698673404,358.9976017765912L564.5767530006322,358.9976017765912L565.6190777005684,358.51924876128396L566.3139608338599,358.9976017765912L566.3139608338599,358.9976017765912L565.6190777005684,361.86755397090747L565.6190777005684,361.86755397090747L564.9241945672773,362.34585169082857L562.4921036007584,364.2589635975055L562.1446620341126,364.2589635975055L561.4497789008215,364.7372218329474L560.7548957675301,364.7372218329474L559.3651295009477,365.6937146171949L557.6279216677194,366.17194916681547L555.8907138344916,367.12839458307644L554.500947567909,367.6066054505427L554.1535060012636,367.6066054505427L553.1111813013267,368.0848084247518L550.3316487681618,366.65017582197106L549.984207201516,366.65017582197106L547.2046746683513,365.2154721727129L544.0777005685409,364.2589635975055L543.035375868604,364.7372218329474L540.9507264687302,365.2154721727129L537.8237523689199,364.7372218329474L536.0865445356917,364.7372218329474L535.044219835755,364.7372218329474L534.6967782691092,365.2154721727129L534.6967782691092,365.2154721727129L531.9172457359446,367.6066054505427L531.2223626026534,367.6066054505427L529.8325963360708,369.04119069508306L530.8749210360077,371.43200826763496L531.2223626026534,371.91014811053174L531.5698041692988,372.3882800638421L532.2646873025903,374.7788215008695L532.2646873025903,378.12524826371373L532.6121288692357,378.60327768934076L532.6121288692357,379.5593128893124L532.9595704358815,380.03731866444286L533.307012002527,382.4272293079266L533.307012002527,383.3831383978577L533.307012002527,383.86108112285365L534.0018951358184,385.77277323243834L534.6967782691092,386.7285720186701L535.3916614024006,386.7285720186701L535.3916614024006,386.7285720186701L535.7391029690461,387.2064595960728L537.1288692356286,389.117931143639L537.4763108022744,389.59577934204935L537.4763108022744,389.59577934204935L537.1288692356286,390.5514521155492L537.1288692356286,390.5514521155492L536.4339861023375,391.02927669143173L536.0865445356917,391.9849022235285L535.044219835755,393.4182814784908L534.0018951358184,394.85158989139745L533.307012002527,395.329343621579L532.6121288692357,395.80708948202664L532.2646873025903,395.80708948202664L532.2646873025903,396.28482747316593L531.2223626026534,396.7625575953971L530.8749210360077,397.240279849113L531.9172457359446,399.15109018700605L532.6121288692357,401.5394261165238L532.2646873025903,403.4499532974187L530.5274794693619,405.36035467280817L530.1800379027165,405.83793536258236L529.1377132027797,406.3155081915356L527.0530638029059,406.7930731600645L524.9684144030323,406.7930731600645L524.9684144030323,406.7930731600645L524.9684144030323,407.27063026857286L525.3158559696781,406.7930731600645L527.0530638029059,407.27063026857286L528.7902716361339,406.7930731600645L529.8325963360708,407.27063026857286L531.9172457359446,409.1807801106079L532.6121288692357,410.1358078820449L533.307012002527,410.1358078820449L534.6967782691092,409.65829792512886L536.0865445356917,409.1807801106079L539.2135186355024,408.70325443809634L541.9930511686671,408.2257209072013L544.4251421351864,408.2257209072013L545.1200252684778,408.2257209072013L546.1623499684147,411.0908042247538L547.5521162349969,413.95560471274075L547.8995578016427,414.43304396955136L548.2469993682882,414.9104753728061L548.5944409349336,415.3878989229197L550.3316487681618,417.77489889043136L551.7214150347443,419.20700465903064L552.4162981680356,420.6390397820178L552.7637397346809,421.11636912586255L552.7637397346809,421.11636912586255L553.4586228679725,421.5936906218267L554.8483891345547,423.50289813472045L556.5855969677825,424.4574548142664L557.2804801010739,424.4574548142664L557.6279216677194,424.93472138623474L557.6279216677194,424.93472138623474L557.2804801010739,426.3664740357017L556.5855969677825,427.3209365840303L556.5855969677825,428.27536776173656L556.9330385344283,432.09277883084724L556.2381554011374,432.09277883084724L553.4586228679725,433.52417863336814L552.7637397346809,433.52417863336814L549.984207201516,434.0012962254914L547.2046746683513,435.90968822793L545.1200252684778,436.86383721511083L541.9930511686671,437.81795486390183L540.2558433354393,438.2950019374184L538.8660770688566,439.726096159211L536.0865445356917,441.6341121395999L536.0865445356917,441.6341121395999L536.781427668983,442.58807314474325L537.4763108022744,444.01895593022346L537.1288692356286,444.01895593022346L534.6967782691092,445.9266900462244L530.5274794693619,446.8805101409016L529.8325963360708,446.8805101409016L529.4851547694252,447.35740844881L529.8325963360708,447.35740844881L529.8325963360708,447.83429893098946L529.4851547694252,448.311181587811L528.7902716361339,451.649141109785L528.0953885028428,454.5099442032697L528.0953885028428,455.9402401784246L528.0953885028428,457.84719202133056L528.4428300694885,459.7540187937848L528.4428300694885,460.23070594764795L528.0953885028428,462.61402450150126L527.747946936197,465.47374894517634L527.4005053695516,468.33319221146303L527.4005053695516,469.2862774980058L527.4005053695516,469.76280843016866L527.0530638029059,471.1923543869998L526.358180669615,473.09830638527274L526.358180669615,473.57477487366486L526.010739102969,473.57477487366486L525.6632975363236,473.57477487366486L522.8837650031587,472.6218300928049L521.493998736576,471.6688540940704L520.7991156032849,471.1923543869998L520.4516740366391,470.71584687426L519.4093493367022,470.2393315554473L518.0195830701202,469.76280843016866L515.9349336702464,469.2862774980058L515.2400505369553,469.2862774980058L514.545167403664,469.2862774980058L514.1977258370184,469.2862774980058L513.1554011370815,469.2862774980058L512.807959570436,469.2862774980058L509.6809854706255,470.2393315554473L509.3335439039797,470.2393315554473L508.6386607706886,470.71584687426L508.2912192040433,470.71584687426L507.2488945041064,471.6688540940704L505.8591282375237,473.09830638527274L505.51168667087813,473.57477487366486L505.1642451042326,474.0512355584033L503.42703727100434,476.43342194108845L504.46936197094124,477.3862418825156L505.1642451042326,477.3862418825156L505.51168667087813,477.3862418825156L506.2065698041695,477.3862418825156L506.2065698041695,477.3862418825156L506.5540113708148,478.3390306221045L504.8168035375868,480.24451450857305L504.8168035375868,480.24451450857305L504.46936197094124,480.72086598405076L504.46936197094124,480.24451450857305L503.42703727100434,480.72086598405076L503.7744788376499,481.67354554240956L503.7744788376499,482.6261939133474L503.7744788376499,482.6261939133474L503.079595704359,483.1025064045207L502.73215413771345,483.1025064045207L501.68982943777655,482.1498736261019L500.64750473783965,481.19720966185196L500.30006317119387,481.19720966185196L499.95262160454854,480.24451450857305L499.95262160454854,480.24451450857305L499.95262160454854,479.76815523504047L499.95262160454854,479.76815523504047L499.95262160454854,479.76815523504047L499.60518003790276,480.24451450857305L499.60518003790276,480.72086598405076L499.25773847125697,480.72086598405076L498.91029690461164,480.72086598405076L498.56285533796586,480.72086598405076L497.86797220467474,480.24451450857305L495.78332280480095,478.81541329221363L495.43588123815516,478.81541329221363L494.7409981048643,478.3390306221045L491.96146557169936,476.9098358122246L490.5716993051169,475.4805707946034L488.8344914718891,473.57477487366486L487.7921667719522,472.1453459958684L486.0549589387242,470.2393315554473L485.7075173720784,469.76280843016866L485.7075173720784,469.76280843016866L485.36007580543264,469.2862774980058L485.36007580543264,469.2862774980058L485.0126342387873,468.8097387585658L484.66519267214153,468.8097387585658L484.66519267214153,468.8097387585658L484.31775110549574,467.8566378562755L483.9703095388504,467.8566378562755L483.62286797220463,467.3800756926212L483.62286797220463,466.9035057200781L483.2754264055591,466.426927938257L483.2754264055591,465.9503423467613L482.9279848389135,464.52053871016324L482.9279848389135,463.56729723001627L482.9279848389135,463.09066477200395L483.2754264055591,462.13737641811895L483.2754264055591,461.18405681107106L482.9279848389135,459.7540187937848L482.2331017056224,459.2773238246191L481.8856601389766,458.8006210397689L479.4535691724575,457.3704657869712L479.10612760581193,456.89373173529384L478.75868603916615,457.3704657869712L477.7163613392295,457.3704657869712L477.7163613392295,457.3704657869712L477.02147820593814,457.84719202133056L477.02147820593814,457.84719202133056L475.6317119393557,459.7540187937848L474.241945672773,460.70738528659786L472.852179406191,461.66072052144955L472.504737839545,461.18405681107106L472.852179406191,460.23070594764795L473.1996209728361,459.2773238246191L473.5470625394819,459.2773238246191L471.4624131396083,460.70738528659786L470.7675300063172,461.66072052144955L470.4200884396714,461.66072052144955L470.4200884396714,462.13737641811895L470.4200884396714,462.13737641811895L470.4200884396714,462.61402450150126L470.7675300063172,463.09066477200395L470.4200884396714,464.0439218759311L470.0726468730261,464.9971477331201L469.7252053063803,464.9971477331201L469.7252053063803,464.9971477331201L466.59823120656984,465.47374894517634L465.9033480732785,464.9971477331201L465.55590650663316,464.9971477331201L465.55590650663316,464.52053871016324L465.20846493998715,464.52053871016324L464.86102337334205,464.0439218759311L464.16614024005025,463.09066477200395L463.47125710675937,462.61402450150126L462.42893240682247,462.61402450150126L461.38660770688557,462.13737641811895L460.69172457359446,461.66072052144955L459.301958307012,461.66072052144955L458.60707517372066,462.13737641811895L458.2596336070751,462.13737641811895L458.2596336070751,462.13737641811895L456.8698673404929,461.18405681107106L454.7852179406191,459.7540187937848L452.00568540745417,458.8006210397689L451.6582438408086,458.32391043880125L451.3108022741628,458.8006210397689L450.6159191408717,458.8006210397689L448.53126974099814,459.2773238246191L447.836386607707,460.23070594764795L448.1838281743526,461.18405681107106L448.1838281743526,462.13737641811895L446.0991787744788,461.66072052144955L444.3619709412508,460.70738528659786L441.92987997473165,459.7540187937848L441.2349968414403,459.2773238246191L439.4977890082123,458.8006210397689L438.8029058749212,458.8006210397689L438.4554643082754,459.2773238246191L438.4554643082754,459.2773238246191L437.7605811749843,460.70738528659786L436.3708149084016,460.23070594764795L436.02337334175604,459.7540187937848L435.3284902084647,459.2773238246191L434.28616550852826,458.32391043880125L432.8963992419458,457.84719202133056L431.8540745420089,457.84719202133056L430.11686670878066,457.84719202133056L427.68477574226176,458.8006210397689L427.33733417561575,458.8006210397689L427.33733417561575,459.2773238246191L426.64245104232486,459.2773238246191L425.2526847757422,459.2773238246191L425.2526847757422,459.2773238246191L424.90524320909685,459.2773238246191L423.86291850915995,459.2773238246191L423.1680353758686,459.2773238246191L422.1257106759317,459.7540187937848L421.4308275426406,459.7540187937848L421.4308275426406,460.23070594764795L421.0833859759948,460.23070594764795L421.0833859759948,460.23070594764795L419.69361970941236,460.70738528659786L418.998736576121,460.70738528659786L416.5666456096021,459.7540187937848L416.21920404295633,459.7540187937848L415.5243209096652,459.2773238246191L412.3973468098545,458.32391043880125L411.35502210991785,456.89373173529384L411.35502210991785,456.89373173529384L411.70246367656364,455.9402401784246L412.3973468098545,454.5099442032697L412.3973468098545,453.5563744552601L412.3973468098545,453.5563744552601L412.74478837650054,452.6027734251693L413.09222994314587,451.649141109785L413.09222994314587,451.1723132190964L413.09222994314587,451.1723132190964L413.4396715097914,451.1723132190964L413.7871130764372,451.1723132190964L413.7871130764372,450.69547750588754L413.7871130764372,450.2186339697437L413.7871130764372,449.2649234270575L414.13455464308254,448.78805641970393L414.13455464308254,448.78805641970393L415.17687934301944,448.311181587811L415.871762476311,448.311181587811L416.21920404295633,448.311181587811L416.91408717624745,447.83429893098946L416.91408717624745,447.83429893098946L417.608970309539,446.8805101409016L418.30385344283013,445.44976825865524L420.3885028427037,443.54200283082537L421.77826910928616,442.58807314474325L422.1257106759317,442.58807314474325L422.1257106759317,442.1110965572516L422.1257106759317,442.1110965572516L422.47315224257727,441.6341121395999L422.1257106759317,440.2031119015737L422.1257106759317,439.726096159211L422.1257106759317,439.2490725846619L421.77826910928616,439.2490725846619L421.77826910928616,439.2490725846619L421.4308275426406,439.2490725846619L421.4308275426406,439.726096159211L421.4308275426406,439.726096159211L421.4308275426406,439.2490725846619L422.1257106759317,438.77204117752626L422.1257106759317,438.77204117752626L422.1257106759317,438.77204117752626L422.1257106759317,438.77204117752626L422.47315224257727,438.2950019374184L422.82059380922306,436.86383721511083L422.47315224257727,435.4326019814289L421.77826910928616,434.4784059806225L421.0833859759948,433.52417863336814L420.73594440934926,432.56991993644624L420.3885028427037,431.61562988662627L420.3885028427037,431.61562988662627L420.3885028427037,431.13847310338315L420.3885028427037,431.13847310338315L418.30385344283013,428.7525715876218L418.30385344283013,428.7525715876218L417.26152874289323,427.7981560940061L415.17687934301944,426.3664740357017L414.13455464308254,425.8892309965413L413.4396715097914,425.8892309965413L413.4396715097914,425.8892309965413L413.09222994314587,425.8892309965413L413.09222994314587,425.4119801135312L412.74478837650054,425.4119801135312L412.74478837650054,424.93472138623474L412.74478837650054,424.93472138623474L412.74478837650054,424.93472138623474L412.74478837650054,424.4574548142664L413.09222994314587,424.4574548142664L413.4396715097914,424.4574548142664L413.7871130764372,423.9801803972405L413.7871130764372,423.9801803972405L413.7871130764372,423.50289813472045L413.7871130764372,423.50289813472045L413.7871130764372,423.50289813472045L414.13455464308254,423.50289813472045L413.7871130764372,423.50289813472045L413.7871130764372,423.0256080263207L413.7871130764372,423.0256080263207L413.7871130764372,423.50289813472045L414.13455464308254,423.50289813472045L414.13455464308254,423.50289813472045L413.7871130764372,423.50289813472045L414.13455464308254,423.50289813472045L414.13455464308254,423.50289813472045L414.13455464308254,423.50289813472045L414.13455464308254,423.50289813472045L414.4819962097283,423.50289813472045L414.4819962097283,423.50289813472045L414.4819962097283,423.0256080263207L414.13455464308254,423.0256080263207L414.13455464308254,423.0256080263207L414.13455464308254,423.0256080263207L414.13455464308254,423.0256080263207L414.13455464308254,423.0256080263207L414.4819962097283,423.0256080263207L414.4819962097283,423.0256080263207L414.4819962097283,423.0256080263207L414.8294377763741,422.5483100716483L415.5243209096652,421.5936906218267L415.5243209096652,420.6390397820178L415.17687934301944,420.1617025898595L415.17687934301944,419.6843575489911L415.17687934301944,419.6843575489911L415.5243209096652,419.6843575489911L415.871762476311,418.7296439195452L415.871762476311,418.7296439195452L416.91408717624745,418.7296439195452L417.26152874289323,418.7296439195452L417.26152874289323,418.7296439195452L418.30385344283013,419.20700465903064L419.34617814276703,420.1617025898595L419.69361970941236,419.6843575489911L421.0833859759948,419.6843575489911L421.4308275426406,419.6843575489911L422.47315224257727,419.20700465903064L422.47315224257727,419.20700465903064L422.47315224257727,418.7296439195452L422.47315224257727,418.25227533014186L422.1257106759317,418.25227533014186L420.3885028427037,418.25227533014186L418.6512950094759,418.7296439195452L417.26152874289323,417.2975145999844L417.95641187618435,415.3878989229197L418.6512950094759,413.95560471274075L418.998736576121,412.04576914194695L419.34617814276703,410.6133099817889L418.998736576121,409.65829792512886L417.95641187618435,409.1807801106079L417.608970309539,408.70325443809634L416.5666456096021,407.7481795174863L416.5666456096021,407.27063026857286L415.871762476311,405.83793536258236L415.5243209096652,404.4051697091818L414.13455464308254,402.0170697074318L414.13455464308254,401.0617746611679L414.8294377763741,400.58411534093466L415.17687934301944,400.58411534093466L414.4819962097283,399.6287731042612L413.09222994314587,399.6287731042612L411.70246367656364,399.6287731042612L411.35502210991785,399.15109018700605L411.35502210991785,399.15109018700605L412.3973468098545,399.15109018700605L412.3973468098545,398.6733994032729L411.35502210991785,398.19570075264346L409.9652558433354,397.71799423473203L409.9652558433354,397.240279849113L406.4908401768794,394.85158989139745L406.8382817435247,394.85158989139745L406.8382817435247,394.373828291089L406.8382817435247,394.373828291089L408.2280480101074,395.329343621579L409.9652558433354,396.28482747316593L410.3126974099812,396.7625575953971L411.0075805432723,395.80708948202664L411.0075805432723,394.85158989139745L411.0075805432723,394.85158989139745L407.8806064434616,392.46270318052484L406.1433986102336,391.02927669143173L404.7536323436516,390.5514521155492L404.0587492103598,391.9849022235285L404.0587492103598,392.46270318052484L403.7113076437147,392.46270318052484L401.2792166771951,390.07361966588724L401.2792166771951,390.07361966588724L401.2792166771951,390.07361966588724L401.2792166771951,390.07361966588724L402.6689829437778,389.59577934204935L404.4061907770058,390.5514521155492L404.7536323436516,390.5514521155492L406.1433986102336,390.07361966588724L406.1433986102336,390.07361966588724L406.1433986102336,389.59577934204935L405.1010739102967,389.117931143639L402.321541377132,387.6843392968549L401.6266582438409,387.6843392968549L401.2792166771951,387.2064595960728L400.584333543904,387.2064595960728L399.88945041061265,387.2064595960728L398.84712571067575,387.2064595960728L397.4573594440933,387.2064595960728L395.0252684775742,388.1622111214383L392.59317751105505,389.59577934204935L390.8559696778268,390.5514521155492L390.8559696778268,390.5514521155492L390.50852811118125,390.5514521155492L390.50852811118125,390.5514521155492L390.16108654453546,391.02927669143173L388.0764371446621,392.9404962653862L387.3815540113708,393.89605882026444L385.9917877447883,395.329343621579L384.9494630448514,396.28482747316593L384.9494630448514,396.28482747316593L384.60202147820587,396.28482747316593L384.2545799115603,396.28482747316593L383.2122552116234,396.7625575953971L382.5173720783325,397.71799423473203L381.47504737839563,398.19570075264346L379.04295641187605,399.6287731042612L376.9583070120025,401.0617746611679L376.6108654453569,401.0617746611679L375.56854074542,401.5394261165238L375.56854074542,401.5394261165238L375.22109917877447,401.0617746611679L374.8736576121287,401.0617746611679L374.8736576121287,401.0617746611679L373.8313329121918,402.0170697074318L371.7466835123182,402.49470543427014L370.0094756790902,402.9723332974645L369.3145925457991,402.9723332974645L367.2299431459253,402.0170697074318L364.79785217940616,402.0170697074318L362.71320277953237,401.5394261165238L360.97599494630435,402.0170697074318L359.23878711307657,402.0170697074318L358.89134554643056,402.0170697074318L358.19646241313967,401.5394261165238L357.50157927984856,401.5394261165238L357.1541377132028,401.0617746611679L356.806696146557,401.0617746611679L356.806696146557,401.0617746611679L356.806696146557,401.0617746611679L356.45925457991166,401.0617746611679L355.069488313329,401.0617746611679L354.37460518003786,400.58411534093466L354.37460518003786,400.1064481554422L354.0271636133921,400.1064481554422L354.0271636133921,400.1064481554422L353.6797220467465,400.1064481554422L353.33228048010096,400.1064481554422L353.33228048010096,400.1064481554422L352.9848389134554,400.1064481554422L352.9848389134554,400.1064481554422L352.6373973468096,400.1064481554422L352.6373973468096,400.1064481554422L352.28995578016406,400.1064481554422L352.28995578016406,401.0617746611679L351.9425142135185,401.5394261165238L351.9425142135185,402.0170697074318L351.5950726468727,402.0170697074318L351.5950726468727,402.49470543427014L351.24763108022717,402.9723332974645L350.90018951358184,402.9723332974645L349.85786481364494,402.9723332974645L347.77321541377114,403.4499532974187L344.6462413139607,403.4499532974187L344.2987997473151,403.92756543451105L342.90903348073243,403.4499532974187L340.8243840808591,402.9723332974645L340.12950094756775,402.9723332974645L339.7820593809222,402.9723332974645L339.7820593809222,402.49470543427014L339.43461781427663,402.49470543427014L339.43461781427663,402.49470543427014L339.43461781427663,402.49470543427014L339.43461781427663,402.49470543427014L339.43461781427663,402.49470543427014L339.0871762476311,402.49470543427014L337.0025268477573,402.49470543427014L334.2229943145926,402.49470543427014L331.79090334807324,402.49470543427014L331.79090334807324,402.49470543427014L331.0960202147819,402.49470543427014L327.96904611497166,402.49470543427014L325.18951358180675,401.0617746611679L324.84207201516097,401.0617746611679L324.4946304485152,401.0617746611679L324.4946304485152,401.0617746611679L323.45230574857874,400.58411534093466L323.10486418193295,400.58411534093466L323.10486418193295,400.58411534093466L322.06253948199605,402.0170697074318L321.36765634870517,402.49470543427014L320.6727732154138,402.9723332974645L318.9355653821856,402.9723332974645L318.2406822488945,402.9723332974645L317.1983575489576,402.49470543427014L317.1983575489576,402.49470543427014L317.1983575489576,402.0170697074318L317.1983575489576,402.0170697074318L315.8085912823751,401.0617746611679L314.41882501579244,401.5394261165238L314.07138344914733,401.5394261165238L313.7239418825013,401.5394261165238L313.7239418825013,402.0170697074318L312.3341756159193,403.92756543451105L311.2918509159824,404.4051697091818L311.2918509159824,404.88276612181653L310.59696778269085,404.4051697091818L309.90208464939974,404.4051697091818L309.5546430827542,403.92756543451105L309.5546430827542,403.4499532974187L309.90208464939974,402.9723332974645L309.90208464939974,402.0170697074318L309.2072015161086,401.5394261165238L307.81743524952594,402.0170697074318L306.4276689829435,402.9723332974645L305.7327858496526,402.49470543427014L303.6481364497788,400.58411534093466L303.300694883133,400.1064481554422L301.2160454832597,398.19570075264346L300.5211623499681,397.71799423473203L300.5211623499681,397.240279849113L300.1737207833228,397.240279849113L299.4788376500312,396.28482747316593L299.1313960833859,395.329343621579L298.7839545167401,394.373828291089L298.7839545167401,393.89605882026444L299.826279216677,392.46270318052484L301.2160454832597,391.5070933939569L301.563487049905,391.02927669143173L301.563487049905,391.02927669143173L301.563487049905,390.07361966588724L301.2160454832597,389.59577934204935L300.5211623499681,389.59577934204935L300.1737207833228,389.117931143639L298.7839545167401,388.64007507023416L297.7416298168032,387.2064595960728L297.0467466835123,385.77277323243834L296.6993051168665,384.33901596840224L295.65698041692985,382.90518779302147L293.9197725837016,380.99330656707025L292.53000631711916,380.03731866444286L291.83512318382805,378.12524826371373L291.48768161718226,377.1691657591109L290.7927984838914,375.7349828627739L289.05559065066336,373.82262859034745L288.01326595072646,372.3882800638421L288.360707517372,371.43200826763496L290.44535691724536,370.95386053472976L291.48768161718226,370.4757049114269L292.87744788376494,369.5193699920128L292.87744788376494,369.5193699920128L292.53000631711916,369.04119069508306L292.1825647504736,368.56300350613674L291.48768161718226,367.6066054505427L291.48768161718226,367.6066054505427L295.30953885028407,367.6066054505427L296.6993051168665,367.6066054505427L299.1313960833859,368.0848084247518L301.2160454832597,368.0848084247518L302.9532533164877,368.56300350613674L303.9955780164246,368.56300350613674L305.3853442830066,368.56300350613674L306.4276689829435,368.0848084247518L307.4699936828804,368.0848084247518L307.81743524952594,367.6066054505427L309.2072015161086,367.12839458307644L310.2495262160455,367.12839458307644L312.3341756159193,366.65017582197106L312.3341756159193,366.65017582197106L312.68161718256465,366.65017582197106L313.02905874921044,367.12839458307644L313.02905874921044,367.6066054505427L313.37650031585554,368.0848084247518L313.7239418825013,368.0848084247518L314.41882501579244,368.56300350613674L316.1560328490207,369.04119069508306L317.1983575489576,369.04119069508306L319.28300694883137,369.04119069508306L321.36765634870517,369.04119069508306L322.75742261528717,369.04119069508306L323.79974731522407,369.04119069508306L324.4946304485152,368.56300350613674L324.84207201516097,368.56300350613674L325.18951358180675,368.56300350613674L326.23183828174365,368.0848084247518L326.23183828174365,368.0848084247518L327.96904611497166,368.0848084247518L329.01137081490856,367.6066054505427L331.0960202147819,367.12839458307644L332.8332280480099,367.12839458307644L333.52811118130126,368.0848084247518L333.52811118130126,368.0848084247518L334.57043588123815,369.04119069508306L335.2653190145295,369.9975413973334L335.2653190145295,369.9975413973334L335.9602021478206,369.9975413973334L337.34996841440284,369.5193699920128L339.0871762476311,369.04119069508306L341.17182564750465,368.0848084247518L342.90903348073243,366.65017582197106L345.341124447252,365.2154721727129L346.0360075805431,364.7372218329474L346.0360075805431,364.7372218329474L346.3834491471889,364.7372218329474L346.73089071383424,364.2589635975055L347.77321541377114,363.3024234379627L349.1629816803538,362.34585169082857L350.5527479469358,360.910934836269L352.28995578016406,359.4759468913253L352.9848389134554,358.9976017765912L354.37460518003786,357.5625190273895L355.7643714466203,356.1273651621923L357.8490208464939,353.25684403983905L359.23878711307657,351.82147676073146L359.93367024636746,350.8645257086937L359.93367024636746,350.8645257086937L360.28111181301324,350.8645257086937L360.62855337965857,350.8645257086937L361.67087807959547,349.9075430267476L362.01831964624125,349.42903982355347L363.4080859128237,348.4720096906458L363.4080859128237,348.4720096906458L363.4080859128237,348.4720096906458L360.28111181301324,345.1221550545197L361.32343651295014,344.16498252476595L361.32343651295014,344.16498252476595L364.79785217940616,347.51494791970254L365.4927353126975,347.51494791970254L365.84017687934306,347.03640516895393L368.619709412508,345.6007294506562L368.9671509791533,345.1221550545197L370.0094756790902,344.16498252476595L371.0518003790271,343.6863843903193L371.0518003790271,343.207778342301L371.3992419456729,343.207778342301L371.3992419456729,343.207778342301L371.3992419456729,342.2505425038653L371.3992419456729,340.8146293841346L371.7466835123182,339.3786450201296L372.4415666456098,337.46388835800826L372.4415666456098,337.46388835800826L372.4415666456098,336.50646251528815L371.7466835123182,334.11275930656484L371.0518003790271,332.67644232372913L370.356917245736,331.2400540342169L370.356917245736,330.76124208987676L370.0094756790902,330.76124208987676L370.356917245736,330.28242222094923L370.0094756790902,329.3247587076512L369.66203411244487,328.36706349108863L368.9671509791533,327.4093365679728L367.5773847125713,326.45157793504404L364.79785217940616,324.53596552665476L364.79785217940616,324.53596552665476L364.10296904611505,324.53596552665476L363.75552747946927,324.53596552665476L363.06064434617815,325.0148805225872L363.06064434617815,325.0148805225872L362.71320277953237,325.0148805225872L361.67087807959547,325.4937875890282L359.58622867972167,326.45157793504404L359.58622867972167,326.93046121544467L358.89134554643056,326.93046121544467L358.89134554643056,326.93046121544467L357.50157927984856,328.84591506249126L356.45925457991166,329.80359442700865L355.7643714466203,330.76124208987676L355.7643714466203,330.76124208987676L355.41692987997476,330.76124208987676L354.7220467466834,331.2400540342169L354.37460518003786,331.7188580543698L351.5950726468727,333.63399490123993L349.85786481364494,334.11275930656484L348.1206569804169,336.02773771457214L347.07833228048,338.4212825252107L346.73089071383424,338.8999677314969L346.0360075805431,339.85731439150914L346.0360075805431,340.3359758460356L346.3834491471889,340.3359758460356L346.3834491471889,340.8146293841346L346.73089071383424,341.77191271263655L346.3834491471889,341.77191271263655L345.68856601389734,341.77191271263655L345.341124447252,341.77191271263655L344.6462413139607,341.29327500620275L344.2987997473151,340.8146293841346L343.95135818066933,340.3359758460356L343.6039166140238,340.3359758460356L342.90903348073243,340.3359758460356L342.21415034744155,339.85731439150914L342.21415034744155,338.8999677314969L342.21415034744155,338.4212825252107L341.866708780796,337.94258940084546L341.51926721415043,337.46388835800826L340.47694251421353,335.5490049937507L340.12950094756775,335.5490049937507L340.12950094756775,335.07026435242005L339.43461781427663,334.59151579015816L338.0448515476942,332.67644232372913L337.6974099810484,331.2400540342169L337.34996841440284,330.76124208987676L336.6550852811115,329.3247587076512L335.9602021478206,328.36706349108863L335.6127605811746,327.88820399305405L335.2653190145295,326.93046121544467L335.2653190145295,325.9726867263671L334.57043588123815,324.0570426008235L334.2229943145926,322.14127159027703L333.52811118130126,320.7043600483412L332.8332280480099,319.7463793551942L332.1383449147188,317.8303227577635L331.79090334807324,317.35128877036914L331.79090334807324,316.3931969870464L332.1383449147188,315.91413919032493L332.4857864813646,315.43507345632315L332.8332280480099,314.95599978465907L333.52811118130126,314.4769181749216L333.52811118130126,314.4769181749216L333.52811118130126,313.9978286266887L333.52811118130126,313.9978286266887L333.52811118130126,313.518731139553L333.1806696146557,313.518731139553L333.1806696146557,313.518731139553L333.1806696146557,313.9978286266887L333.52811118130126,313.9978286266887L333.1806696146557,313.9978286266887L333.1806696146557,313.9978286266887L333.1806696146557,313.518731139553L333.52811118130126,313.518731139553L333.52811118130126,313.518731139553L333.52811118130126,313.03962571312513L333.52811118130126,312.56051234697225L333.52811118130126,312.08139104070506L333.52811118130126,311.6022617938943L333.52811118130126,311.12312460614703L333.1806696146557,311.12312460614703L332.1383449147188,309.68566539314634L332.1383449147188,309.68566539314634L331.0960202147819,308.7273195389171L330.4011370814908,308.7273195389171L330.053695514845,308.24813469692526L329.3588123815539,308.24813469692526L328.66392924826255,308.24813469692526L327.96904611497166,308.24813469692526L327.2741629816803,308.24813469692526L326.23183828174365,308.24813469692526L325.18951358180675,308.7273195389171L324.4946304485152,308.7273195389171L323.79974731522407,308.7273195389171L323.45230574857874,308.24813469692526L322.06253948199605,308.24813469692526L321.71509791535027,307.76894191111205L320.6727732154138,307.76894191111205L320.32533164876827,307.76894191111205L319.9778900821225,307.76894191111205L319.28300694883137,307.76894191111205L319.6304485154769,308.24813469692526L319.9778900821225,308.24813469692526L319.9778900821225,308.24813469692526L319.9778900821225,308.24813469692526L319.6304485154769,308.24813469692526L319.28300694883137,307.76894191111205L318.58812381554003,308.24813469692526L318.58812381554003,308.24813469692526L318.2406822488945,308.24813469692526L318.2406822488945,308.24813469692526L317.8932406822489,308.24813469692526L317.54579911560313,308.24813469692526L317.54579911560313,308.24813469692526L317.54579911560313,308.24813469692526L317.54579911560313,308.24813469692526L317.54579911560313,308.24813469692526L317.8932406822489,308.24813469692526L318.2406822488945,308.24813469692526L318.2406822488945,308.24813469692526L318.2406822488945,307.76894191111205L317.8932406822489,307.76894191111205L317.8932406822489,307.76894191111205L317.8932406822489,307.76894191111205L317.1983575489576,307.76894191111205L316.50347441566623,307.76894191111205L316.1560328490207,307.76894191111205L315.113708149084,307.2897411810918L314.41882501579244,307.2897411810918L313.7239418825013,307.2897411810918L313.02905874921044,307.2897411810918L313.02905874921044,307.2897411810918L312.3341756159193,307.2897411810918L311.98673404927354,307.76894191111205L310.2495262160455,308.7273195389171L310.2495262160455,309.20649643752404L309.90208464939974,309.20649643752404L309.90208464939974,309.68566539314634L309.90208464939974,310.16482640617323L310.59696778269085,311.12312460614703L310.94440934933664,311.6022617938943L311.2918509159824,311.6022617938943L311.2918509159824,311.6022617938943L311.2918509159824,311.6022617938943L310.94440934933664,311.6022617938943L310.59696778269085,311.12312460614703L309.5546430827542,310.16482640617323L308.1648768161717,309.68566539314634L307.81743524952594,308.7273195389171L307.4699936828804,307.76894191111205L307.4699936828804,307.2897411810918L307.12255211623483,306.8105325064316L306.7751105495893,306.33131588675315L305.7327858496526,304.89361835337695L304.6904611497157,303.9351135984398L303.9955780164246,303.4558492999349L303.9955780164246,302.97657705353777L303.6481364497788,302.01800871537125L303.9955780164246,300.5800965886301L303.9955780164246,300.5800965886301L303.9955780164246,299.621448753016L303.9955780164246,299.1421129086375L303.6481364497788,298.66276911268506L302.9532533164877,297.7040576643558L301.2160454832597,295.3071398620086L300.8686039166139,294.3483170598447L300.5211623499681,294.3483170598447L300.5211623499681,293.8688937254483L300.1737207833228,293.8688937254483L300.1737207833228,293.8688937254483L300.1737207833228,293.8688937254483L299.4788376500312,293.8688937254483L298.43651295009454,293.8688937254483L298.0890713834492,293.8688937254483L297.7416298168032,293.8688937254483L297.39418825015787,293.8688937254483L297.0467466835123,294.3483170598447L297.0467466835123,294.3483170598447L297.0467466835123,294.8277324385672L296.6993051168665,295.7865393305656L296.6993051168665,296.26593084468186L296.6993051168665,296.74531440474675L296.6993051168665,298.1834173647294L296.6993051168665,299.1421129086375L297.0467466835123,300.5800965886301L297.39418825015787,303.4558492999349L297.7416298168032,306.33131588675315L296.6993051168665,309.20649643752404L295.30953885028407,311.12312460614703L293.9197725837016,313.518731139553L292.87744788376494,314.95599978465907L292.1825647504736,316.8722468469314L291.83512318382805,318.7883669260955L291.83512318382805,321.18333849493865L292.53000631711916,324.0570426008235L293.2248894504105,326.93046121544467L293.57233101705606,327.4093365679728L293.57233101705606,327.88820399305405L293.57233101705606,328.84591506249126L293.57233101705606,329.80359442700865L292.87744788376494,330.76124208987676L292.87744788376494,330.76124208987676L292.53000631711916,331.2400540342169L292.53000631711916,331.2400540342169L292.53000631711916,331.7188580543698L292.53000631711916,332.67644232372913L292.53000631711916,333.15522257377233L293.57233101705606,334.59151579015816L293.9197725837016,334.59151579015816L294.61465571699296,335.07026435242005L294.9620972836385,335.07026435242005L294.9620972836385,335.07026435242005L295.30953885028407,335.07026435242005L295.65698041692985,335.07026435242005L298.7839545167401,335.07026435242005L301.9109286165508,335.07026435242005L304.6904611497157,334.59151579015816L305.7327858496526,334.59151579015816L306.7751105495893,335.07026435242005L307.81743524952594,335.5490049937507L309.2072015161086,336.50646251528815L309.5546430827542,336.50646251528815L309.90208464939974,337.46388835800826L310.2495262160455,337.46388835800826L310.59696778269085,337.94258940084546L310.59696778269085,338.4212825252107L310.94440934933664,339.85731439150914L311.2918509159824,340.3359758460356L311.2918509159824,340.8146293841346L311.63929248262775,342.2505425038653L311.63929248262775,344.16498252476595L311.63929248262775,345.6007294506562L311.63929248262775,346.0792959348437L311.63929248262775,346.0792959348437L311.63929248262775,346.55785450746407L311.2918509159824,347.99348276013916L311.2918509159824,348.4720096906458L311.2918509159824,348.9505287116517L312.3341756159193,352.2999404265647L313.02905874921044,355.1705564044096L313.37650031585554,356.6057576863823L313.7239418825013,357.08414230798735L313.7239418825013,358.04088784503256L313.7239418825013,358.9976017765912L313.7239418825013,358.9976017765912L313.7239418825013,358.9976017765912L313.7239418825013,359.9542841059156L312.68161718256465,362.82414151305784L312.3341756159193,364.2589635975055L311.2918509159824,365.2154721727129L309.5546430827542,366.17194916681547L308.5123183828173,366.65017582197106L307.81743524952594,367.12839458307644L306.4276689829435,367.12839458307644L304.6904611497157,367.12839458307644L302.9532533164877,367.12839458307644L300.5211623499681,367.12839458307644L299.4788376500312,367.12839458307644L296.6993051168665,367.12839458307644L296.35186355022097,367.12839458307644L295.30953885028407,367.12839458307644L294.61465571699296,367.12839458307644L294.61465571699296,367.12839458307644L294.2672141503474,366.65017582197106L294.2672141503474,366.65017582197106L293.9197725837016,367.12839458307644L293.2248894504105,366.65017582197106L291.14024005053716,366.65017582197106L290.44535691724536,366.65017582197106L290.44535691724536,366.17194916681547L290.09791535060026,366.17194916681547L289.7504737839545,366.17194916681547L288.7081490840176,366.17194916681547L288.01326595072646,365.6937146171949L288.01326595072646,365.6937146171949L288.01326595072646,365.6937146171949L288.01326595072646,365.6937146171949L287.6658243840807,366.65017582197106L287.6658243840807,367.12839458307644L287.6658243840807,367.6066054505427L287.3183828174351,367.6066054505427L286.97094125078956,367.6066054505427L286.97094125078956,367.6066054505427L287.3183828174351,367.6066054505427L287.3183828174351,367.6066054505427L287.3183828174351,367.6066054505427L287.6658243840807,367.12839458307644L287.6658243840807,367.12839458307644L286.97094125078956,366.65017582197106L286.97094125078956,366.65017582197106L286.6234996841438,366.65017582197106L286.6234996841438,368.0848084247518L286.97094125078956,369.9975413973334L286.27605811749845,369.9975413973334L285.5811749842071,369.5193699920128L284.19140871762465,368.0848084247518L284.19140871762465,366.65017582197106L284.5388502842702,364.7372218329474L284.19140871762465,363.3024234379627L283.84396715097887,362.82414151305784L283.4965255843333,362.82414151305784L283.4965255843333,359.9542841059156L283.149084017688,358.9976017765912L283.149084017688,358.51924876128396L282.8016424510424,358.04088784503256L282.45420088439664,357.5625190273895L282.1067593177511,357.08414230798735L281.7593177511055,356.6057576863823L281.41187618445974,356.1273651621923L280.71699305116863,355.64896473500994L274.81048641819325,354.6921401699983L273.07327858496524,354.6921401699983L271.6835123183828,354.21371603138687L271.6835123183828,353.7352839881278L271.6835123183828,353.7352839881278L271.336070751737,353.25684403983905L270.98862918509144,353.25684403983905L270.6411876184459,353.25684403983905L270.6411876184459,353.25684403983905L270.2937460518001,352.77839618612416L269.94630448515454,352.77839618612416L269.2514213518632,352.77839618612416L268.5565382185721,352.77839618612416L268.2090966519263,352.77839618612416L268.2090966519263,352.77839618612416L267.8616550852812,352.77839618612416L264.7346809854705,353.7352839881278L264.0397978521794,353.7352839881278L263.6923562855336,354.21371603138687L262.30259001895115,354.6921401699983L261.26026531901425,355.1705564044096L260.9128237523687,356.1273651621923L260.56538218572337,357.08414230798735L260.56538218572337,357.5625190273895L260.21794061907735,358.9976017765912L259.870499052432,358.9976017765912L258.1332912192038,359.9542841059156L257.0909665192669,360.43261342076585L257.0909665192669,360.43261342076585L256.39608338597577,360.43261342076585L256.39608338597577,360.43261342076585L255.35375868603887,360.910934836269L255.00631711939354,361.3892483528507L254.65887555274776,361.3892483528507L254.31143398610197,361.86755397090747L253.96399241945664,362.34585169082857L253.61655085281086,362.82414151305784L253.61655085281086,362.82414151305784L255.70120025268466,366.17194916681547L255.70120025268466,366.17194916681547L255.35375868603887,366.65017582197106L255.35375868603887,366.65017582197106L255.00631711939354,365.2154721727129L253.61655085281086,363.3024234379627L252.92166771951997,362.34585169082857L253.26910928616508,361.86755397090747L253.96399241945664,358.51924876128396L254.31143398610197,358.04088784503256L255.00631711939354,357.5625190273895L255.35375868603887,357.08414230798735L255.70120025268466,356.6057576863823L256.39608338597577,356.6057576863823L257.0909665192669,356.1273651621923L258.1332912192038,355.64896473500994L258.48073278584957,354.6921401699983L257.78584965255845,354.6921401699983L255.35375868603887,355.1705564044096L253.61655085281086,355.64896473500994L253.26910928616508,356.1273651621923L251.18445988629173,358.51924876128396L249.44725205306372,356.1273651621923L248.40492735312682,353.7352839881278L247.36260265318992,353.25684403983905L246.6677195198988,353.25684403983905L246.6677195198988,353.25684403983905L246.32027795325303,352.77839618612416L245.97283638660747,350.8645257086937L245.97283638660747,350.8645257086937L245.97283638660747,349.42903982355347L245.97283638660747,348.9505287116517L245.27795325331613,347.03640516895393L244.58307012002524,343.6863843903193L244.58307012002524,343.6863843903193L244.58307012002524,343.6863843903193L244.23562855337923,342.72916438027823L243.88818698673413,342.72916438027823L243.54074542008834,342.72916438027823L241.45609602021455,343.6863843903193L240.76121288692343,344.6435727460339L241.108654453569,346.0792959348437L242.1509791535059,347.03640516895393L242.49842072015144,347.51494791970254L242.84586228679723,347.99348276013916L243.54074542008834,348.9505287116517L244.23562855337923,350.8645257086937L244.93051168667103,352.2999404265647L245.6253948199619,353.7352839881278L246.32027795325303,355.64896473500994L247.36260265318992,357.5625190273895L247.7100442198357,358.51924876128396L249.09981048641794,361.86755397090747L249.44725205306372,362.34585169082857L249.79469361970928,363.3024234379627L249.79469361970928,363.3024234379627L249.09981048641794,363.78069746598703L247.7100442198357,364.7372218329474L246.32027795325303,365.2154721727129L245.27795325331613,365.2154721727129L244.23562855337923,364.7372218329474L241.45609602021455,361.86755397090747L239.02400505369542,359.9542841059156L237.98168035375875,358.9976017765912L236.2444725205305,357.5625190273895L235.2021478205936,356.6057576863823L233.4649399873656,354.6921401699983L232.77005685407448,355.1705564044096L231.72773215413758,356.1273651621923L231.3802905874918,356.6057576863823L231.3802905874918,356.6057576863823L231.72773215413758,357.08414230798735L232.77005685407448,358.04088784503256L233.81238155401138,358.9976017765912L236.93935565382185,361.3892483528507L237.63423878711274,362.34585169082857L239.02400505369542,363.3024234379627L242.84586228679723,366.65017582197106L243.88818698673413,367.6066054505427L244.23562855337923,368.0848084247518L244.23562855337923,368.56300350613674L244.23562855337923,368.56300350613674L243.88818698673413,368.56300350613674L243.88818698673413,369.04119069508306L241.80353758686033,369.04119069508306L241.45609602021455,369.5193699920128L241.45609602021455,369.5193699920128L240.41377132027765,369.5193699920128L240.41377132027765,369.5193699920128L240.41377132027765,369.04119069508306L240.41377132027765,369.04119069508306L238.67656348704963,367.6066054505427L238.32912192040408,367.6066054505427L237.63423878711274,366.65017582197106L237.63423878711274,366.65017582197106L237.63423878711274,366.65017582197106L237.63423878711274,367.12839458307644L236.93935565382185,367.6066054505427L236.2444725205305,368.56300350613674L235.89703095388495,369.04119069508306L235.5495893872394,369.5193699920128L236.2444725205305,370.4757049114269L237.2867972204674,370.95386053472976L239.02400505369542,371.91014811053174L241.45609602021455,372.3882800638421L241.80353758686033,373.34452030335524L241.80353758686033,373.34452030335524L240.76121288692343,373.82262859034745L238.67656348704963,373.82262859034745L235.89703095388495,374.3007289893867L235.5495893872394,374.3007289893867L233.81238155401138,374.7788215008695L232.0751737207829,374.7788215008695L227.21099178774466,375.25690612518883L227.21099178774466,375.25690612518883L226.51610865445332,374.3007289893867L226.16866708780776,374.3007289893867L225.8212255211622,374.7788215008695L225.12634238787086,375.25690612518883L225.8212255211622,376.2130517140249L226.16866708780776,376.69111267932385L226.16866708780776,376.69111267932385L227.21099178774466,375.7349828627739L231.3802905874918,375.25690612518883L232.0751737207829,375.25690612518883L233.4649399873656,375.25690612518883L234.5072646873025,374.7788215008695L235.2021478205936,374.7788215008695L238.32912192040408,374.3007289893867L238.67656348704963,374.3007289893867L240.41377132027765,374.3007289893867L248.05748578648104,373.34452030335524L248.05748578648104,373.34452030335524L248.05748578648104,373.34452030335524L247.7100442198357,373.34452030335524L241.80353758686033,373.82262859034745L241.45609602021455,374.3007289893867L241.45609602021455,374.3007289893867L241.108654453569,375.25690612518883L240.76121288692343,376.2130517140249L239.71888818698653,378.12524826371373L237.63423878711274,379.08129923107845L236.5919140871763,379.5593128893124L235.5495893872394,380.03731866444286L234.1598231206567,379.5593128893124L233.1174984207198,380.03731866444286L233.1174984207198,380.03731866444286L233.4649399873656,380.5153165568954L233.81238155401138,380.5153165568954L235.5495893872394,380.5153165568954L236.5919140871763,380.5153165568954L237.63423878711274,380.03731866444286L237.63423878711274,380.03731866444286L237.98168035375875,380.03731866444286L237.98168035375875,380.5153165568954L237.98168035375875,380.5153165568954L237.98168035375875,380.5153165568954L237.98168035375875,380.5153165568954L237.63423878711274,380.5153165568954L237.63423878711274,380.5153165568954L237.98168035375875,380.99330656707025L238.32912192040408,380.99330656707025L239.02400505369542,381.471288695353L239.37144662034098,381.471288695353L239.37144662034098,381.471288695353L239.37144662034098,380.99330656707025L239.37144662034098,380.5153165568954L239.37144662034098,380.5153165568954L241.45609602021455,380.5153165568954L242.1509791535059,381.9492629421766L242.84586228679723,383.3831383978577L243.19330385344256,384.33901596840224L243.54074542008834,384.33901596840224L244.58307012002524,383.86108112285365L245.6253948199619,383.3831383978577L246.32027795325303,383.86108112285365L247.01516108654437,384.8169429349073L248.40492735312682,386.7285720186701L249.79469361970928,389.59577934204935L250.14213518635484,389.59577934204935L250.4895767530004,389.59577934204935L251.87934301958308,390.07361966588724L251.87934301958308,390.07361966588724L251.87934301958308,390.07361966588724L252.22678458622863,389.117931143639L252.22678458622863,389.117931143639L252.57422615287396,388.64007507023416L252.57422615287396,388.64007507023416L252.92166771951997,385.77277323243834L254.65887555274776,384.33901596840224L257.43840808591267,382.90518779302147L259.1756159191407,381.9492629421766L259.52305748578647,381.9492629421766L260.21794061907735,381.471288695353L260.56538218572337,380.99330656707025L260.9128237523687,380.5153165568954L261.26026531901425,380.03731866444286L261.9551484523056,379.5593128893124L261.6077068856598,379.5593128893124L261.26026531901425,379.5593128893124L261.26026531901425,379.5593128893124L261.26026531901425,379.5593128893124L261.26026531901425,379.5593128893124L261.26026531901425,379.5593128893124L261.26026531901425,379.5593128893124L261.6077068856598,379.5593128893124L261.9551484523056,379.08129923107845L261.9551484523056,378.60327768934076L262.30259001895115,377.64721095376444L262.30259001895115,377.1691657591109L262.30259001895115,376.69111267932385L262.30259001895115,375.7349828627739L261.9551484523056,374.7788215008695L261.9551484523056,374.7788215008695L262.9974731522425,375.7349828627739L263.34491471888805,376.2130517140249L263.6923562855336,376.69111267932385L263.6923562855336,376.69111267932385L263.6923562855336,378.12524826371373L263.34491471888805,379.08129923107845L262.9974731522425,379.5593128893124L262.9974731522425,380.03731866444286L262.6500315855967,380.03731866444286L261.6077068856598,380.99330656707025L260.21794061907735,382.4272293079266L259.52305748578647,383.3831383978577L258.8281743524951,383.86108112285365L257.78584965255845,385.29486202278713L255.70120025268466,387.2064595960728L253.96399241945664,389.117931143639L252.92166771951997,390.07361966588724L252.22678458622863,390.5514521155492L250.4895767530004,392.46270318052484L248.05748578648104,394.373828291089L247.7100442198357,394.85158989139745L247.01516108654437,395.329343621579L246.6677195198988,395.80708948202664L245.27795325331613,397.240279849113L244.23562855337923,398.6733994032729L242.49842072015144,400.58411534093466L242.1509791535059,400.58411534093466L241.45609602021455,401.0617746611679L241.108654453569,400.58411534093466L240.0663297536321,400.58411534093466L239.71888818698653,400.1064481554422Z" style="fill: none; stroke: rgb(8, 48, 107);"><title>BOUCHES DU RHONE</title></path><g stroke="#000" stroke-opacity="0.2"><path d="M0,-22.448162112566994L5.039926405668234,-6.936863585267022L21.349470856006818,-6.936863585267023L8.154772225169292,2.649646114250548L13.19469863083753,18.16094464155052L8.881784197001252e-16,8.574434942032948L-13.194698630837525,18.160944641550522L-8.154772225169292,2.649646114250549L-21.34947085600682,-6.936863585267019L-5.0399264056682345,-6.936863585267021Z" transform="translate(275.50536955148414,296.74531440474675)rotate(26.310755240167246)" fill="white" class="commune"><title>13047 Population : 42925</title></path><path d="M0,-22.448162112566994L5.039926405668234,-6.936863585267022L21.349470856006818,-6.936863585267023L8.154772225169292,2.649646114250548L13.19469863083753,18.16094464155052L8.881784197001252e-16,8.574434942032948L-13.194698630837525,18.160944641550522L-8.154772225169292,2.649646114250549L-21.34947085600682,-6.936863585267019L-5.0399264056682345,-6.936863585267021Z" transform="translate(175.09475679090315,298.1834173647294)rotate(11.751795938594192)" fill="white" class="commune"><title>13004 Population : 52857</title></path><path d="M0,-26.69551410299918L5.993516340710753,-8.249367531402827L25.38894264350654,-8.249367531402829L9.697713151397894,3.150978011306063L15.69122949210865,21.597124582902413L1.7763568394002505e-15,10.196779040193524L-15.691229492108645,21.597124582902417L-9.697713151397892,3.1509780113060657L-25.388942643506542,-8.249367531402822L-5.993516340710755,-8.249367531402825Z" transform="translate(431.15919140871756,303.4558492999349)rotate(3.4125569781287988)" fill="white" class="commune"><title>13001 Population : 143006</title></path><path d="M0,-44.54138473356747L10.000163930483316,-13.764044835665187L42.36137419566881,-13.764044835665189L16.180605132592746,5.257397304546639L26.18076906307607,36.034737202448916L1.7763568394002505e-15,17.01329506223709L-26.18076906307606,36.03473720244892L-16.180605132592746,5.257397304546643L-42.361374195668816,-13.764044835665178L-10.000163930483321,-13.764044835665185Z" transform="translate(438.8029058749212,420.1617025898595)rotate(8.463653874676112)" fill="white" class="commune"><title>13055 Population : 862211</title></path></g><text class="text" y="25" x="326" text-anchor="middle" font-size="24" font-family="Helvetica" fill="#6baed6">13 - BOUCHES DU RHONE</text><line x1="438.2933249105076" y1="412.3813123705312" x2="431.66877237313116" y2="311.2362395192632" stroke="yellow" opacity="0.35" stroke-width="2"/><line x1="420.78226995156865" y1="303.00848030692237" x2="285.88229100863305" y2="297.1926833977593" stroke="yellow" opacity="0.35" stroke-width="2"/><line x1="268.81132870077874" y1="296.8411879354123" x2="181.78879764160854" y2="298.08754383406387" stroke="yellow" opacity="0.35" stroke-width="2"/><line x1="192.67530006317102" y1="306.3153030464047" x2="421.22236260265333" y2="412.02981690818416" stroke="yellow" opacity="0.35" stroke-width="2"/></svg>