<svg viewBox="0,0,955,1146" width="955" height="1146" style="width: 100%; height: auto;" xmlns="http://www.w3.org/2000/svg" xmlns:xlink="http://www.w3.org/1999/xlink"><rect width="955" height="1146" fill="black"/><g stroke="#000" stroke-opacity="0.2"><path d="M0,-15.873247654971056L3.5637661381291506,-4.905103281308338L15.096355617026989,-4.905103281308339L5.766294739448918,1.873582735131148L9.330060877578072,12.841727108793865L8.881784197001252e-16,6.063041092354379L-9.330060877578068,12.841727108793867L-5.766294739448918,1.8735827351311491L-15.09635561702699,-4.905103281308335L-3.563766138129152,-4.905103281308337Z" transform="translate(622.8076702919284,797.0606275877617)rotate(8.424436940453683)" fill="white" class="commune"><title>57630 Population : 11987</title></path><path d="M0,-18.876579049491834L4.238056047668955,-5.833183721955068L17.952693510379785,-5.833183721955069L6.857318731355415,2.2280779191642193L11.095374779024372,15.271473246700983L8.881784197001252e-16,7.210211605581696L-11.095374779024368,15.271473246700985L-6.857318731355414,2.2280779191642206L-17.952693510379788,-5.833183721955065L-4.238056047668956,-5.833183721955068Z" transform="translate(635.2404121350883,504.5623797127191)rotate(17.33271458171867)" fill="white" class="commune"><title>57631 Population : 20944</title></path><path d="M0,-18.876579049491834L4.238056047668955,-5.833183721955068L17.952693510379785,-5.833183721955069L6.857318731355415,2.2280779191642193L11.095374779024372,15.271473246700983L8.881784197001252e-16,7.210211605581696L-11.095374779024368,15.271473246700985L-6.857318731355414,2.2280779191642206L-17.952693510379788,-5.833183721955065L-4.238056047668956,-5.833183721955068Z" transform="translate(543.0309101316543,438.8258485253027)rotate(3.7056358303315005)" fill="white" class="commune"><title>57227 Population : 21627</title></path><path d="M0,-22.448162112566994L5.039926405668234,-6.936863585267022L21.349470856006818,-6.936863585267023L8.154772225169292,2.649646114250548L13.19469863083753,18.16094464155052L8.881784197001252e-16,8.574434942032948L-13.194698630837525,18.160944641550522L-8.154772225169292,2.649646114250549L-21.34947085600682,-6.936863585267019L-5.0399264056682345,-6.936863585267021Z" transform="translate(147.25529479107036,292.70233983400976)rotate(9.698587166183632)" fill="white" class="commune"><title>57672 Population : 40586</title></path><path d="M0,-26.69551410299918L5.993516340710753,-8.249367531402827L25.38894264350654,-8.249367531402829L9.697713151397894,3.150978011306063L15.69122949210865,21.597124582902413L1.7763568394002505e-15,10.196779040193524L-15.691229492108645,21.597124582902417L-9.697713151397892,3.1509780113060657L-25.388942643506542,-8.249367531402822L-5.993516340710755,-8.249367531402825Z" transform="translate(181.96336576989097,505.3537152151439)rotate(9.92421742092613)" fill="white" class="commune"><title>57463 Population : 117890</title></path></g><text class="text" y="40" x="427.5" text-anchor="middle" font-size="36" font-family="Helvetica" fill="#6baed6">57 - MOSELLE</text><line x1="211.35298607136014" y1="524.8008427066518" x2="593.4180499904593" y2="777.6135000962538" stroke="yellow" opacity="0.35" stroke-width="2"/><line x1="623.636519748139" y1="777.5607443960922" x2="634.4115626788777" y2="524.0622629043886" stroke="yellow" opacity="0.35" stroke-width="2"/><line x1="629.093112001526" y1="500.1799443002247" x2="549.1782102652165" y2="443.20828393779715" stroke="yellow" opacity="0.35" stroke-width="2"/><line x1="516.6458691089487" y1="429.0842812792165" x2="173.64033581377595" y2="302.443907080096" stroke="yellow" opacity="0.35" stroke-width="2"/><line x1="149.5691661896584" y1="306.87909819275205" x2="179.64949437130292" y2="491.1769568564016" stroke="yellow" opacity="0.35" stroke-width="2"/></svg>