<svg viewBox="0,0,954,1144.8" width="954" height="1144.8" style="width: 100%; height: auto;" xmlns="http://www.w3.org/2000/svg" xmlns:xlink="http://www.w3.org/1999/xlink"><rect width="954" height="1144.8" fill="black"/><g stroke="#000" stroke-opacity="0.2"><path d="M0,-15.873247654971056L3.5637661381291506,-4.905103281308338L15.096355617026989,-4.905103281308339L5.766294739448918,1.873582735131148L9.330060877578072,12.841727108793865L8.881784197001252e-16,6.063041092354379L-9.330060877578068,12.841727108793867L-5.766294739448918,1.8735827351311491L-15.09635561702699,-4.905103281308335L-3.563766138129152,-4.905103281308337Z" transform="translate(494.590653105825,396.8475876259545)rotate(3.6020179881310908)" fill="white" class="commune"><title>insee_com : 53147 
Population : 12841
 Nom : MAYENNE</title></path><path d="M0,-15.873247654971056L3.5637661381291506,-4.905103281308338L15.096355617026989,-4.905103281308339L5.766294739448918,1.873582735131148L9.330060877578072,12.841727108793865L8.881784197001252e-16,6.063041092354379L-9.330060877578068,12.841727108793867L-5.766294739448918,1.8735827351311491L-15.09635561702699,-4.905103281308335L-3.563766138129152,-4.905103281308337Z" transform="translate(429.01512986467185,942.8626082236806)rotate(4.084756041705971)" fill="white" class="commune"><title>insee_com : 53062 
Population : 16776
 Nom : CHATEAU GONTIER SUR MAYENNE</title></path><path d="M0,-15.873247654971056L3.5637661381291506,-4.905103281308338L15.096355617026989,-4.905103281308339L5.766294739448918,1.873582735131148L9.330060877578072,12.841727108793865L8.881784197001252e-16,6.063041092354379L-9.330060877578068,12.841727108793867L-5.766294739448918,1.8735827351311491L-15.09635561702699,-4.905103281308335L-3.563766138129152,-4.905103281308337Z" transform="translate(429.01512986467185,942.8626082236806)rotate(23.63662211979272)" fill="white" class="commune"><title>insee_com : 53062 
Population : 16776
 Nom : CHATEAU GONTIER SUR MAYENNE</title></path><path d="M0,-22.448162112566994L5.039926405668234,-6.936863585267022L21.349470856006818,-6.936863585267023L8.154772225169292,2.649646114250548L13.19469863083753,18.16094464155052L8.881784197001252e-16,8.574434942032948L-13.194698630837525,18.160944641550522L-8.154772225169292,2.649646114250549L-21.34947085600682,-6.936863585267019L-5.0399264056682345,-6.936863585267021Z" transform="translate(378.40875851054886,665.4886618861638)rotate(2.44553689590656)" fill="white" class="commune"><title>insee_com : 53130 
Population : 49728
 Nom : LAVAL</title></path></g><text class="text" y="40" x="427" text-anchor="middle" font-size="36" font-family="Helvetica" fill="#6baed6">53  - MAYENNE</text><line x1="425.641371774397" y1="924.3710118011794" x2="381.7825166008237" y2="683.9802583086649" stroke="yellow" opacity="0.35" stroke-width="2"/><line x1="386.15421815023393" y1="647.5792569354832" x2="486.84519346613996" y2="414.75699257663507" stroke="yellow" opacity="0.35" stroke-width="2"/><line x1="490.2189515564148" y1="433.24858899913625" x2="433.38683141408205" y2="906.4616068504988" stroke="yellow" opacity="0.35" stroke-width="2"/></svg>