<svg viewBox="0,0,954,1144.8" width="954" height="1144.8" style="width: 100%; height: auto;" xmlns="http://www.w3.org/2000/svg" xmlns:xlink="http://www.w3.org/1999/xlink"><rect width="954" height="1144.8" fill="black"/><g stroke="#000" stroke-opacity="0.2"><path d="M0,-13.34775705149959L2.9967581703553763,-4.1246837657014135L12.69447132175327,-4.124683765701414L4.848856575698947,1.5754890056530315L7.845614746054325,10.798562291451207L8.881784197001252e-16,5.098389520096762L-7.845614746054323,10.798562291451208L-4.848856575698946,1.5754890056530328L-12.694471321753271,-4.124683765701411L-2.9967581703553776,-4.124683765701413Z" transform="translate(220.0345023427517,383.7369049640474)rotate(28.000994517894625)" fill="white" class="commune"><title>insee_com : 43040 
Population : 6721
 Nom : BRIOUDE</title></path><path d="M0,-13.34775705149959L2.9967581703553763,-4.1246837657014135L12.69447132175327,-4.124683765701414L4.848856575698947,1.5754890056530315L7.845614746054325,10.798562291451207L8.881784197001252e-16,5.098389520096762L-7.845614746054323,10.798562291451208L-4.848856575698946,1.5754890056530328L-12.694471321753271,-4.124683765701411L-2.9967581703553776,-4.124683765701413Z" transform="translate(693.4696862132614,521.583626776217)rotate(1.5130745413244528)" fill="white" class="commune"><title>insee_com : 43268 
Population : 7202
 Nom : YSSINGEAUX</title></path><path d="M0,-15.873247654971056L3.5637661381291506,-4.905103281308338L15.096355617026989,-4.905103281308339L5.766294739448918,1.873582735131148L9.330060877578072,12.841727108793865L8.881784197001252e-16,6.063041092354379L-9.330060877578068,12.841727108793867L-5.766294739448918,1.8735827351311491L-15.09635561702699,-4.905103281308335L-3.563766138129152,-4.905103281308337Z" transform="translate(539.2518813005822,612.1278109987215)rotate(5.057858179486034)" fill="white" class="commune"><title>insee_com : 43157 
Population : 18995
 Nom : PUY EN VELAY</title></path></g><text class="text" y="40" x="427" text-anchor="middle" font-size="36" font-family="Helvetica" fill="#6baed6">43  - HAUTE LOIRE</text><line x1="241.3156609399404" y1="398.962965366359" x2="517.9707227033936" y2="596.9017505964099" stroke="yellow" opacity="0.35" stroke-width="2"/><line x1="549.5330682947608" y1="606.0915320505545" x2="683.1884992190828" y2="527.619905724384" stroke="yellow" opacity="0.35" stroke-width="2"/><line x1="661.9073406218941" y1="512.3938453220724" x2="251.596847934119" y2="392.92668641819205" stroke="yellow" opacity="0.35" stroke-width="2"/></svg>