<svg viewBox="0,0,954,1144.8" width="954" height="1144.8" style="width: 100%; height: auto;" xmlns="http://www.w3.org/2000/svg" xmlns:xlink="http://www.w3.org/1999/xlink"><rect width="954" height="1144.8" fill="black"/><g stroke="#000" stroke-opacity="0.2"><path d="M0,-18.876579049491834L4.238056047668955,-5.833183721955068L17.952693510379785,-5.833183721955069L6.857318731355415,2.2280779191642193L11.095374779024372,15.271473246700983L8.881784197001252e-16,7.210211605581696L-11.095374779024368,15.271473246700985L-6.857318731355414,2.2280779191642206L-17.952693510379788,-5.833183721955065L-4.238056047668956,-5.833183721955068Z" transform="translate(109.8052117263851,551.9585134918743)rotate(17.669470034853664)" fill="white" class="commune"><title>insee_com : 94038 
Population : 31204
 Nom : HAY LES ROSES</title></path><path d="M0,-18.876579049491834L4.238056047668955,-5.833183721955068L17.952693510379785,-5.833183721955069L6.857318731355415,2.2280779191642193L11.095374779024372,15.271473246700983L8.881784197001252e-16,7.210211605581696L-11.095374779024368,15.271473246700985L-6.857318731355414,2.2280779191642206L-17.952693510379788,-5.833183721955065L-4.238056047668956,-5.833183721955068Z" transform="translate(563.2775244299673,283.68343343705055)rotate(22.177139579057787)" fill="white" class="commune"><title>insee_com : 94052 
Population : 32851
 Nom : NOGENT SUR MARNE</title></path><path d="M0,-26.69551410299918L5.993516340710753,-8.249367531402827L25.38894264350654,-8.249367531402829L9.697713151397894,3.150978011306063L15.69122949210865,21.597124582902413L1.7763568394002505e-15,10.196779040193524L-15.691229492108645,21.597124582902417L-9.697713151397892,3.1509780113060657L-25.388942643506542,-8.249367531402822L-5.993516340710755,-8.249367531402825Z" transform="translate(450.498371335505,557.7675892494444)rotate(6.888670795625906)" fill="white" class="commune"><title>insee_com : 94028 
Population : 90605
 Nom : CRETEIL</title></path></g><text class="text" y="40" x="427" text-anchor="middle" font-size="36" font-family="Helvetica" fill="#6baed6">94  - VAL DE MARNE</text><line x1="427.78549402823035" y1="557.3803175322731" x2="132.51808903365975" y2="552.3457852090456" stroke="yellow" opacity="0.35" stroke-width="2"/><line x1="140.03669923995724" y1="534.0735081548861" x2="533.0460369163952" y2="301.5684387740388" stroke="yellow" opacity="0.35" stroke-width="2"/><line x1="555.7589142236699" y1="301.95571049121014" x2="458.01698154180247" y2="539.4953121952848" stroke="yellow" opacity="0.35" stroke-width="2"/></svg>