<svg viewBox="0,0,955,1146" width="955" height="1146" style="width: 100%; height: auto;" xmlns="http://www.w3.org/2000/svg" xmlns:xlink="http://www.w3.org/1999/xlink"><rect width="955" height="1146" fill="black"/><g stroke="#000" stroke-opacity="0.2"><path d="M0,-13.34775705149959L2.9967581703553763,-4.1246837657014135L12.69447132175327,-4.124683765701414L4.848856575698947,1.5754890056530315L7.845614746054325,10.798562291451207L8.881784197001252e-16,5.098389520096762L-7.845614746054323,10.798562291451208L-4.848856575698946,1.5754890056530328L-12.694471321753271,-4.124683765701411L-2.9967581703553776,-4.124683765701413Z" transform="translate(173.9939024390237,428.09189057288677)rotate(26.948677101110068)" fill="white" class="commune"><title>88321 Population : 6639</title></path><path d="M0,-15.873247654971056L3.5637661381291506,-4.905103281308338L15.096355617026989,-4.905103281308339L5.766294739448918,1.873582735131148L9.330060877578072,12.841727108793865L8.881784197001252e-16,6.063041092354379L-9.330060877578068,12.841727108793867L-5.766294739448918,1.8735827351311491L-15.09635561702699,-4.905103281308335L-3.563766138129152,-4.905103281308337Z" transform="translate(799.5676274944562,473.3629980333426)rotate(3.794206390496412)" fill="white" class="commune"><title>88413 Population : 19748</title></path><path d="M0,-18.876579049491834L4.238056047668955,-5.833183721955068L17.952693510379785,-5.833183721955069L6.857318731355415,2.2280779191642193L11.095374779024372,15.271473246700983L8.881784197001252e-16,7.210211605581696L-11.095374779024368,15.271473246700985L-6.857318731355414,2.2280779191642206L-17.952693510379788,-5.833183721955065L-4.238056047668956,-5.833183721955068Z" transform="translate(569.8059866962308,574.2767476020344)rotate(21.106230530460103)" fill="white" class="commune"><title>88160 Population : 31558</title></path></g><text class="text" y="40" x="427.5" text-anchor="middle" font-size="36" font-family="Helvetica" fill="#6baed6">88 - VOSGES</text><line x1="543.4185144124169" y1="564.531090466758" x2="200.3813747228375" y2="437.8375477081633" stroke="yellow" opacity="0.35" stroke-width="2"/><line x1="215.69881744271922" y1="431.10996440358383" x2="757.8627124907607" y2="470.34492420264553" stroke="yellow" opacity="0.35" stroke-width="2"/><line x1="784.2501847745746" y1="480.09058133792206" x2="585.1234294161125" y2="567.549164297455" stroke="yellow" opacity="0.35" stroke-width="2"/></svg>