<svg viewBox="0,0,954,1144.8" width="954" height="1144.8" style="width: 100%; height: auto;" xmlns="http://www.w3.org/2000/svg" xmlns:xlink="http://www.w3.org/1999/xlink"><rect width="954" height="1144.8" fill="black"/><g stroke="#000" stroke-opacity="0.2"><path d="M0,-13.34775705149959L2.9967581703553763,-4.1246837657014135L12.69447132175327,-4.124683765701414L4.848856575698947,1.5754890056530315L7.845614746054325,10.798562291451207L8.881784197001252e-16,5.098389520096762L-7.845614746054323,10.798562291451208L-4.848856575698946,1.5754890056530328L-12.694471321753271,-4.124683765701411L-2.9967581703553776,-4.124683765701413Z" transform="translate(608.5000591705216,800.8471270049704)rotate(21.576584515867797)" fill="white" class="commune"><title>insee_com : 55122 
Population : 5536
 Nom : COMMERCY</title></path><path d="M0,-15.873247654971056L3.5637661381291506,-4.905103281308338L15.096355617026989,-4.905103281308339L5.766294739448918,1.873582735131148L9.330060877578072,12.841727108793865L8.881784197001252e-16,6.063041092354379L-9.330060877578068,12.841727108793867L-5.766294739448918,1.8735827351311491L-15.09635561702699,-4.905103281308335L-3.563766138129152,-4.905103281308337Z" transform="translate(352.81210506002753,794.3531406561524)rotate(23.56512047020303)" fill="white" class="commune"><title>insee_com : 55029 
Population : 14985
 Nom : BAR LE DUC</title></path><path d="M0,-15.873247654971056L3.5637661381291506,-4.905103281308338L15.096355617026989,-4.905103281308339L5.766294739448918,1.873582735131148L9.330060877578072,12.841727108793865L8.881784197001252e-16,6.063041092354379L-9.330060877578068,12.841727108793867L-5.766294739448918,1.8735827351311491L-15.09635561702699,-4.905103281308335L-3.563766138129152,-4.905103281308337Z" transform="translate(486.1550674106061,443.1941986380916)rotate(25.504972985675376)" fill="white" class="commune"><title>insee_com : 55545 
Population : 17475
 Nom : VERDUN</title></path></g><text class="text" y="40" x="427" text-anchor="middle" font-size="36" font-family="Helvetica" fill="#6baed6">55  - MEUSE</text><line x1="369.8579686673938" y1="794.786073079407" x2="591.4541955631553" y2="800.4141945817158" stroke="yellow" opacity="0.35" stroke-width="2"/><line x1="600.3437263865272" y1="777.0035984471784" x2="494.3114001946004" y2="467.0377271958835" stroke="yellow" opacity="0.35" stroke-width="2"/><line x1="477.2655365872342" y1="466.604794772629" x2="361.70163588339943" y2="770.942544521615" stroke="yellow" opacity="0.35" stroke-width="2"/></svg>