<svg viewBox="0,0,955,1146" width="955" height="1146" style="width: 100%; height: auto;" xmlns="http://www.w3.org/2000/svg" xmlns:xlink="http://www.w3.org/1999/xlink"><rect width="955" height="1146" fill="black"/><g stroke="#000" stroke-opacity="0.2"><path d="M0,-13.34775705149959L2.9967581703553763,-4.1246837657014135L12.69447132175327,-4.124683765701414L4.848856575698947,1.5754890056530315L7.845614746054325,10.798562291451207L8.881784197001252e-16,5.098389520096762L-7.845614746054323,10.798562291451208L-4.848856575698946,1.5754890056530328L-12.694471321753271,-4.124683765701411L-2.9967581703553776,-4.124683765701413Z" transform="translate(419.86134549873213,606.696693945014)rotate(26.962167241091112)" fill="white" class="commune"><title>50147 Population : 8624</title></path><path d="M0,-15.873247654971056L3.5637661381291506,-4.905103281308338L15.096355617026989,-4.905103281308339L5.766294739448918,1.873582735131148L9.330060877578072,12.841727108793865L8.881784197001252e-16,6.063041092354379L-9.330060877578068,12.841727108793867L-5.766294739448918,1.8735827351311491L-15.09635561702699,-4.905103281308335L-3.563766138129152,-4.905103281308337Z" transform="translate(475.23966060779355,933.9901193578917)rotate(14.654229548157623)" fill="white" class="commune"><title>50025 Population : 10068</title></path><path d="M0,-15.873247654971056L3.5637661381291506,-4.905103281308338L15.096355617026989,-4.905103281308339L5.766294739448918,1.873582735131148L9.330060877578072,12.841727108793865L8.881784197001252e-16,6.063041092354379L-9.330060877578068,12.841727108793867L-5.766294739448918,1.8735827351311491L-15.09635561702699,-4.905103281308335L-3.563766138129152,-4.905103281308337Z" transform="translate(626.1173150375831,560.9693649072469)rotate(6.638812432817243)" fill="white" class="commune"><title>50502 Population : 18961</title></path><path d="M0,-26.69551410299918L5.993516340710753,-8.249367531402827L25.38894264350654,-8.249367531402829L9.697713151397894,3.150978011306063L15.69122949210865,21.597124582902413L1.7763568394002505e-15,10.196779040193524L-15.691229492108645,21.597124582902417L-9.697713151397892,3.1509780113060657L-25.388942643506542,-8.249367531402822L-5.993516340710755,-8.249367531402825Z" transform="translate(319.27624254553905,107.96427970971126)rotate(19.756431707299036)" fill="white" class="commune"><title>50129 Population : 80076</title></path></g><text class="text" y="40" x="427.5" text-anchor="middle" font-size="36" font-family="Helvetica" fill="#6baed6">50 - MANCHE</text><line x1="339.73231404500865" y1="138.1646187228803" x2="605.6612435381135" y2="530.7690258940779" stroke="yellow" opacity="0.35" stroke-width="2"/><line x1="616.0588047422639" y1="585.8374152039565" x2="485.29817090311286" y2="909.1220690611821" stroke="yellow" opacity="0.35" stroke-width="2"/><line x1="471.54777293385615" y1="912.1705576636998" x2="423.55323317266954" y2="628.5162556392058" stroke="yellow" opacity="0.35" stroke-width="2"/><line x1="413.15567196851924" y1="573.4478663293271" x2="325.98191607575194" y2="141.2131073253981" stroke="yellow" opacity="0.35" stroke-width="2"/></svg>