<svg viewBox="0,0,955,1146" width="955" height="1146" style="width: 100%; height: auto;" xmlns="http://www.w3.org/2000/svg" xmlns:xlink="http://www.w3.org/1999/xlink"><rect width="955" height="1146" fill="black"/><g stroke="#000" stroke-opacity="0.2"><path d="M0,-15.873247654971056L3.5637661381291506,-4.905103281308338L15.096355617026989,-4.905103281308339L5.766294739448918,1.873582735131148L9.330060877578072,12.841727108793865L8.881784197001252e-16,6.063041092354379L-9.330060877578068,12.841727108793867L-5.766294739448918,1.8735827351311491L-15.09635561702699,-4.905103281308335L-3.563766138129152,-4.905103281308337Z" transform="translate(466.1645226811104,605.7240722673669)rotate(10.770594855199274)" fill="white" class="commune"><title>60157 Population : 10193</title></path><path d="M0,-15.873247654971056L3.5637661381291506,-4.905103281308338L15.096355617026989,-4.905103281308339L5.766294739448918,1.873582735131148L9.330060877578072,12.841727108793865L8.881784197001252e-16,6.063041092354379L-9.330060877578068,12.841727108793867L-5.766294739448918,1.8735827351311491L-15.09635561702699,-4.905103281308335L-3.563766138129152,-4.905103281308337Z" transform="translate(574.6174678402169,762.6274649608386)rotate(6.270042419232592)" fill="white" class="commune"><title>60612 Population : 14590</title></path><path d="M0,-22.448162112566994L5.039926405668234,-6.936863585267022L21.349470856006818,-6.936863585267023L8.154772225169292,2.649646114250548L13.19469863083753,18.16094464155052L8.881784197001252e-16,8.574434942032948L-13.194698630837525,18.160944641550522L-8.154772225169292,2.649646114250549L-21.34947085600682,-6.936863585267019L-5.0399264056682345,-6.936863585267021Z" transform="translate(738.2159783344621,586.8975332479531)rotate(14.552314953588866)" fill="white" class="commune"><title>60159 Population : 40258</title></path><path d="M0,-22.448162112566994L5.039926405668234,-6.936863585267022L21.349470856006818,-6.936863585267023L8.154772225169292,2.649646114250548L13.19469863083753,18.16094464155052L8.881784197001252e-16,8.574434942032948L-13.194698630837525,18.160944641550522L-8.154772225169292,2.649646114250549L-21.34947085600682,-6.936863585267019L-5.0399264056682345,-6.936863585267021Z" transform="translate(268.8659444820587,552.0482132599718)rotate(9.952412894178847)" fill="white" class="commune"><title>60057 Population : 56020</title></path></g><text class="text" y="40" x="427.5" text-anchor="middle" font-size="36" font-family="Helvetica" fill="#6baed6">60 - OISE</text><line x1="282.01918302866216" y1="555.6266038604648" x2="453.0112841345069" y2="602.1456816668739" stroke="yellow" opacity="0.35" stroke-width="2"/><line x1="484.3012863913338" y1="604.4689696660727" x2="720.0792146242386" y2="588.1526358492473" stroke="yellow" opacity="0.35" stroke-width="2"/><line x1="727.3094109681791" y1="598.6128620288122" x2="585.5240352064999" y2="750.9121361799795" stroke="yellow" opacity="0.35" stroke-width="2"/><line x1="554.2340329496731" y1="748.5888481807808" x2="289.24937937260256" y2="566.0868300400296" stroke="yellow" opacity="0.35" stroke-width="2"/></svg>