<svg viewBox="0,0,954,1144.8" width="954" height="1144.8" style="width: 100%; height: auto;" xmlns="http://www.w3.org/2000/svg" xmlns:xlink="http://www.w3.org/1999/xlink"><rect width="954" height="1144.8" fill="black"/><g stroke="#000" stroke-opacity="0.2"><path d="M0,-13.34775705149959L2.9967581703553763,-4.1246837657014135L12.69447132175327,-4.124683765701414L4.848856575698947,1.5754890056530315L7.845614746054325,10.798562291451207L8.881784197001252e-16,5.098389520096762L-7.845614746054323,10.798562291451208L-4.848856575698946,1.5754890056530328L-12.694471321753271,-4.124683765701411L-2.9967581703553776,-4.124683765701413Z" transform="translate(752.9818478337943,253.17177100066328)rotate(25.154315948252954)" fill="white" class="commune"><title>insee_com : 16106 
Population : 2670
 Nom : CONFOLENS</title></path><path d="M0,-13.34775705149959L2.9967581703553763,-4.1246837657014135L12.69447132175327,-4.124683765701414L4.848856575698947,1.5754890056530315L7.845614746054325,10.798562291451207L8.881784197001252e-16,5.098389520096762L-7.845614746054323,10.798562291451208L-4.848856575698946,1.5754890056530328L-12.694471321753271,-4.124683765701411L-2.9967581703553776,-4.124683765701413Z" transform="translate(752.9818478337943,253.17177100066328)rotate(12.45461664235458)" fill="white" class="commune"><title>insee_com : 16106 
Population : 2670
 Nom : CONFOLENS</title></path><path d="M0,-15.873247654971056L3.5637661381291506,-4.905103281308338L15.096355617026989,-4.905103281308339L5.766294739448918,1.873582735131148L9.330060877578072,12.841727108793865L8.881784197001252e-16,6.063041092354379L-9.330060877578068,12.841727108793867L-5.766294739448918,1.8735827351311491L-15.09635561702699,-4.905103281308335L-3.563766138129152,-4.905103281308337Z" transform="translate(113.00907608310283,545.2981450623556)rotate(3.0968539961827055)" fill="white" class="commune"><title>insee_com : 16102 
Population : 18825
 Nom : COGNAC</title></path><path d="M0,-22.448162112566994L5.039926405668234,-6.936863585267022L21.349470856006818,-6.936863585267023L8.154772225169292,2.649646114250548L13.19469863083753,18.16094464155052L8.881784197001252e-16,8.574434942032948L-13.194698630837525,18.160944641550522L-8.154772225169292,2.649646114250549L-21.34947085600682,-6.936863585267019L-5.0399264056682345,-6.936863585267021Z" transform="translate(421.9702900092179,590.615164187926)rotate(12.658294297133898)" fill="white" class="commune"><title>insee_com : 16015 
Population : 41740
 Nom : ANGOULEME</title></path></g><text class="text" y="40" x="427" text-anchor="middle" font-size="36" font-family="Helvetica" fill="#6baed6">16  - CHARENTE</text><line x1="401.3728757474769" y1="587.5940295795547" x2="133.60649034484382" y2="548.3192796707269" stroke="yellow" opacity="0.35" stroke-width="2"/><line x1="155.6739275331489" y1="525.8230534582428" x2="710.3169963837482" y2="272.6468626047761" stroke="yellow" opacity="0.35" stroke-width="2"/><line x1="730.9144106454892" y1="275.6679972131475" x2="444.037727197523" y2="568.1189379754418" stroke="yellow" opacity="0.35" stroke-width="2"/></svg>