<svg viewBox="0,0,955,1146" width="955" height="1146" style="width: 100%; height: auto;" xmlns="http://www.w3.org/2000/svg" xmlns:xlink="http://www.w3.org/1999/xlink"><rect width="955" height="1146" fill="black"/><g stroke="#000" stroke-opacity="0.2"><path d="M0,-18.876579049491834L4.238056047668955,-5.833183721955068L17.952693510379785,-5.833183721955069L6.857318731355415,2.2280779191642193L11.095374779024372,15.271473246700983L8.881784197001252e-16,7.210211605581696L-11.095374779024368,15.271473246700985L-6.857318731355414,2.2280779191642206L-17.952693510379788,-5.833183721955065L-4.238056047668956,-5.833183721955068Z" transform="translate(465.19810693393697,757.7942021678973)rotate(13.654013147236125)" fill="white" class="commune"><title>78517 Population : 26202</title></path><path d="M0,-22.448162112566994L5.039926405668234,-6.936863585267022L21.349470856006818,-6.936863585267023L8.154772225169292,2.649646114250548L13.19469863083753,18.16094464155052L8.881784197001252e-16,8.574434942032948L-13.194698630837525,18.160944641550522L-8.154772225169292,2.649646114250549L-21.34947085600682,-6.936863585267019L-5.0399264056682345,-6.936863585267021Z" transform="translate(317.57539014118447,173.42869894624164)rotate(16.963912063338643)" fill="white" class="commune"><title>78361 Population : 43969</title></path><path d="M0,-22.448162112566994L5.039926405668234,-6.936863585267022L21.349470856006818,-6.936863585267023L8.154772225169292,2.649646114250548L13.19469863083753,18.16094464155052L8.881784197001252e-16,8.574434942032948L-13.194698630837525,18.160944641550522L-8.154772225169292,2.649646114250549L-21.34947085600682,-6.936863585267019L-5.0399264056682345,-6.936863585267021Z" transform="translate(767.1536640100221,277.34484441676614)rotate(13.14177424469636)" fill="white" class="commune"><title>78551 Population : 44008</title></path><path d="M0,-26.69551410299918L5.993516340710753,-8.249367531402827L25.38894264350654,-8.249367531402829L9.697713151397894,3.150978011306063L15.69122949210865,21.597124582902413L1.7763568394002505e-15,10.196779040193524L-15.691229492108645,21.597124582902417L-9.697713151397892,3.1509780113060657L-25.388942643506542,-8.249367531402822L-5.993516340710755,-8.249367531402825Z" transform="translate(790.6390962270507,506.87258283107076)rotate(14.595179198726655)" fill="white" class="commune"><title>78646 Population : 85346</title></path></g><text class="text" y="40" x="427.5" text-anchor="middle" font-size="36" font-family="Helvetica" fill="#6baed6">78 - YVELINES</text><line x1="347.54727506577365" y1="180.35644197760993" x2="737.1817790854329" y2="270.4171013853978" stroke="yellow" opacity="0.35" stroke-width="2"/><line x1="768.7193594911573" y1="292.64669364438646" x2="789.0734007459155" y2="491.57073360345044" stroke="yellow" opacity="0.35" stroke-width="2"/><line x1="768.9430302741764" y1="523.6006907868592" x2="486.8941728868112" y2="741.0660942121089" stroke="yellow" opacity="0.35" stroke-width="2"/><line x1="455.3565924810868" y1="718.8365019531203" x2="327.41690459403463" y2="212.3863991610187" stroke="yellow" opacity="0.35" stroke-width="2"/></svg>