<svg viewBox="0,0,955,1146" width="955" height="1146" style="width: 100%; height: auto;" xmlns="http://www.w3.org/2000/svg" xmlns:xlink="http://www.w3.org/1999/xlink"><rect width="955" height="1146" fill="black"/><g stroke="#000" stroke-opacity="0.2"><path d="M0,-15.873247654971056L3.5637661381291506,-4.905103281308338L15.096355617026989,-4.905103281308339L5.766294739448918,1.873582735131148L9.330060877578072,12.841727108793865L8.881784197001252e-16,6.063041092354379L-9.330060877578068,12.841727108793867L-5.766294739448918,1.8735827351311491L-15.09635561702699,-4.905103281308335L-3.563766138129152,-4.905103281308337Z" transform="translate(185.60087173100868,718.8475342207967)rotate(17.986850863005696)" fill="white" class="commune"><title>31483 Population : 11431</title></path><path d="M0,-18.876579049491834L4.238056047668955,-5.833183721955068L17.952693510379785,-5.833183721955069L6.857318731355415,2.2280779191642193L11.095374779024372,15.271473246700983L8.881784197001252e-16,7.210211605581696L-11.095374779024368,15.271473246700985L-6.857318731355414,2.2280779191642206L-17.952693510379788,-5.833183721955065L-4.238056047668956,-5.833183721955068Z" transform="translate(513.5647571606476,464.1679621182302)rotate(20.750472372529664)" fill="white" class="commune"><title>31395 Population : 25207</title></path><path d="M0,-37.75315809898367L8.47611209533791,-11.666367443910136L35.90538702075957,-11.666367443910138L13.71463746271083,4.4561558383284385L22.190749558048743,30.542946493401967L1.7763568394002505e-15,14.420423211163392L-22.190749558048736,30.54294649340197L-13.714637462710828,4.456155838328441L-35.905387020759576,-11.66636744391013L-8.476112095337912,-11.666367443910136Z" transform="translate(582.8767123287671,349.9273801675117)rotate(1.6606327510419294)" fill="white" class="commune"><title>31555 Population : 475438</title></path></g><text class="text" y="40" x="427.5" text-anchor="middle" font-size="36" font-family="Helvetica" fill="#6baed6">31 - HAUTE GARONNE</text><line x1="491.70049813200495" y1="481.1466002584013" x2="207.4651307596513" y2="701.8688960806255" stroke="yellow" opacity="0.35" stroke-width="2"/><line x1="212.08592777085926" y1="694.252857283911" x2="556.3916562889166" y2="374.5220571043974" stroke="yellow" opacity="0.35" stroke-width="2"/><line x1="578.2559153175591" y1="357.5434189642263" x2="518.1855541718555" y2="456.55192332151563" stroke="yellow" opacity="0.35" stroke-width="2"/></svg>