<svg viewBox="0,0,955,1146" width="955" height="1146" style="width: 100%; height: auto;" xmlns="http://www.w3.org/2000/svg" xmlns:xlink="http://www.w3.org/1999/xlink"><rect width="955" height="1146" fill="black"/><g stroke="#000" stroke-opacity="0.2"><path d="M0,-13.34775705149959L2.9967581703553763,-4.1246837657014135L12.69447132175327,-4.124683765701414L4.848856575698947,1.5754890056530315L7.845614746054325,10.798562291451207L8.881784197001252e-16,5.098389520096762L-7.845614746054323,10.798562291451208L-4.848856575698946,1.5754890056530328L-12.694471321753271,-4.124683765701411L-2.9967581703553776,-4.124683765701413Z" transform="translate(575.5330672748009,617.4582210688568)rotate(11.903544708282208)" fill="white" class="commune"><title>29026 Population : 5212</title></path><path d="M0,-15.873247654971056L3.5637661381291506,-4.905103281308338L15.096355617026989,-4.905103281308339L5.766294739448918,1.873582735131148L9.330060877578072,12.841727108793865L8.881784197001252e-16,6.063041092354379L-9.330060877578068,12.841727108793867L-5.766294739448918,1.8735827351311491L-15.09635561702699,-4.905103281308335L-3.563766138129152,-4.905103281308337Z" transform="translate(706.5877993158497,308.9224225455291)rotate(3.405480712364036)" fill="white" class="commune"><title>29151 Population : 14721</title></path><path d="M0,-22.448162112566994L5.039926405668234,-6.936863585267022L21.349470856006818,-6.936863585267023L8.154772225169292,2.649646114250548L13.19469863083753,18.16094464155052L8.881784197001252e-16,8.574434942032948L-13.194698630837525,18.160944641550522L-8.154772225169292,2.649646114250549L-21.34947085600682,-6.936863585267019L-5.0399264056682345,-6.936863585267021Z" transform="translate(566.7616875712656,776.6129104702486)rotate(3.69386176086129)" fill="white" class="commune"><title>29232 Population : 63405</title></path><path d="M0,-26.69551410299918L5.993516340710753,-8.249367531402827L25.38894264350654,-8.249367531402829L9.697713151397894,3.150978011306063L15.69122949210865,21.597124582902413L1.7763568394002505e-15,10.196779040193524L-15.691229492108645,21.597124582902417L-9.697713151397892,3.1509780113060657L-25.388942643506542,-8.249367531402822L-5.993516340710755,-8.249367531402825Z" transform="translate(354.18472063854097,464.65705346726827)rotate(17.806429201434796)" fill="white" class="commune"><title>29019 Population : 139342</title></path></g><text class="text" y="40" x="427.5" text-anchor="middle" font-size="36" font-family="Helvetica" fill="#6baed6">29 - FINISTERE</text><line x1="368.9412770809583" y1="474.84379797404085" x2="560.7765108323836" y2="607.2714765620842" stroke="yellow" opacity="0.35" stroke-width="2"/><line x1="584.2700494108709" y1="596.8891678339683" x2="697.8508171797797" y2="329.4914757804176" stroke="yellow" opacity="0.35" stroke-width="2"/><line x1="697.2660585328774" y1="340.1017884071771" x2="576.0834283542379" y2="745.4335446086006" stroke="yellow" opacity="0.35" stroke-width="2"/><line x1="552.5898897757506" y1="755.8158533367166" x2="368.35651843405594" y2="485.4541106008003" stroke="yellow" opacity="0.35" stroke-width="2"/></svg>