<svg viewBox="0,0,954,1144.8" width="954" height="1144.8" style="width: 100%; height: auto;" xmlns="http://www.w3.org/2000/svg" xmlns:xlink="http://www.w3.org/1999/xlink"><rect width="954" height="1144.8" fill="black"/><path d="M85.07035830618861,397.29240418525296L93.31530944625501,382.98263281417894L98.61563517915238,383.8770202860178L122.17263843648198,386.11297335429117L126.000651465798,387.007348337007L128.65081433224805,388.34890412096865L130.1231270358303,389.24327018341864L130.1231270358303,387.45453449041815L132.47882736156407,387.007348337007L136.30684039087828,387.45453449041815L137.77915309446234,387.45453449041815L150.4410423452773,378.5106419286167L153.68013029315898,375.8274045746366L163.986319218242,387.9017197517678L164.8697068403908,387.9017197517678L185.77654723127125,387.007348337007L188.42671009771948,385.6657845247246L237.3074918566772,361.963499894744L239.3687296416938,358.83282209944446L250.26384364820933,353.01859018579125L255.26970684039043,349.4405263529334L262.6312703583071,345.86240540241124L264.6925081433219,344.0733235072403L277.0599348534197,336.02227825508453L281.1824104234529,335.12769981983L291.4885993485341,331.10205267585116L300.322475570033,326.62902660135296L304.4449511400653,328.4182477434515L308.27296416938134,331.99664717860287L316.51791530944683,340.9423958284606L320.9348534201954,344.96786623995285L323.58501628664453,346.7569409949356L326.52964169381085,347.65147301755496L330.35765472312687,348.5460014701821L338.89706840390863,348.0987376900157L342.4306188925084,348.5460014701821L352.7368078175905,351.2295654089248L358.03713355048876,351.2295654089248L366.5765472312705,350.7823069836595L370.99348534202,351.2295654089248L376.29381107491827,352.1240795821068L381.8885993485346,354.3603493979608L383.9498371335503,355.2548510773631L383.3609120521178,356.5965969035751L388.66123778501606,362.4107360104972L389.83908794788294,361.06902498632553L390.72247557003357,361.963499894744L389.5446254071667,363.3052055648295L394.84495114006586,368.67194793888484L394.2560260586324,373.14413510245504L396.6117263843644,370.90805267353426L399.85081433224696,371.3552709436917L402.5009771986979,372.249704807502L403.97328990227925,373.5913489116938L403.6788273615639,377.61623304593377L411.33485342019594,377.1690272662672L418.40195439739364,378.95784503169125L423.99674267101,378.95784503169125L434.59739413680745,378.5106419286167L439.3087947882732,378.95784503169125L443.4312703583064,379.85224856151035L451.3817589576547,382.5354377401527L466.6938110749188,382.98263281417894L467.8716612377839,382.98263281417894L468.7550488599345,383.8770202860178L467.8716612377839,381.1938471652975L474.0553745928337,376.7218205945974L478.47231270358316,373.5913489116938L477.8833876221497,373.14413510245504L478.47231270358316,372.249704807502L479.0612377850166,368.67194793888484L485.2449511400646,351.2295654089248L486.1283387622152,348.5460014701821L485.83387622149803,347.20420745250885L486.1283387622152,347.20420745250885L487.3061889250821,341.8369510565535L488.77850162866525,336.91685311993933L485.83387622149803,335.12769981983L485.53941368078176,336.02227825508453L484.3615635179167,335.57498948383727L484.0671009771986,329.3128529583046L485.53941368078176,321.7085948107415L487.0117263843649,317.68270663320436L489.0729641693815,314.55141027556965L490.83973941368095,312.76207842864096L495.5511400651476,309.1833718768321L497.02345276872984,307.39399717142805L498.495765472313,304.7099083253124L499.3791530944636,298.8942722106003L499.3791530944636,295.7627133304777L498.79022801302835,293.9732314661378L492.0175895765469,284.13082578475587L488.77850162866525,278.31465559551725L486.1283387622152,274.7353989085532L481.41693811074856,271.15608505139244L475.82214983713493,268.0241385267291L470.22736156351857,265.7870070656354L464.0436482084697,264.4447174683155L434.89185667752463,258.1805930311966L430.7693811074914,257.73314887061133L431.0638436482086,254.1535634198808L413.98501628664417,253.258658122184L413.6905537459288,256.83825786886155L414.27947882736225,256.39081102772616L413.98501628664417,258.1805930311966L413.39609120521163,258.1805930311966L413.10162866449537,260.41780043247854L405.7400651465805,259.07547867210815L403.3843648208467,276.0776268656191L392.78371335504926,274.7353989085532L392.4892508143321,275.6302184399101L375.1159609120523,272.9457491263747L367.16547231270397,272.05091887543676L365.39869706840454,271.15608505139244L364.22084690553856,270.2612476538052L363.0429967426717,268.0241385267291L359.8039087947891,261.76011415201356L358.03713355048876,260.41780043247854L352.4423452768742,264.4447174683155L352.14788273615704,266.23443514454993L350.97003257329015,268.4715621389041L350.97003257329015,269.81382761514396L351.26449511400733,273.8405758040608L353.91465798045556,278.31465559551725L355.3869706840396,283.2360401962651L357.44820846905714,294.4206032718939L358.9205211726385,298.8942722106003L344.78631921824035,306.05195676654694L340.9583061889243,307.39399717142805L334.77459283387634,308.2886863099993L330.9465798045603,307.84134218713734L327.70749185667864,307.39399717142805L329.7687296416934,304.7099083253124L331.82996742671,297.10481535160216L340.07491856677643,257.73314887061133L340.9583061889243,250.5739207843435L341.84169381107495,241.17708677300834L341.84169381107495,238.93968725579907L349.79218241042327,238.04472119320417L380.1218241042343,241.17708677300834L381.0052117263849,230.4373653261573L386.89446254071754,231.3323617754213L389.83908794788294,230.4373653261573L395.72833876221466,231.77985865948722L395.72833876221466,228.19985856159474L396.3172638436481,224.61980126067647L397.495114006515,220.14464918867452L403.6788273615639,222.82975115822046L404.85667752442987,221.03968675402575L407.8013029315962,221.934720743855L414.8684039087948,221.934720743855L419.5798045602605,222.3822363979125L421.34657980455904,223.72477799703483L418.9908794788271,226.857343777403L420.46319218241115,227.30484959922615L422.22996742670966,226.857343777403L424.8801302931606,227.30484959922615L432.53615635179176,229.9898657607555L434.89185667752463,224.61980126067647L433.71400651465683,224.17229007577407L437.5420195439747,219.69712906508357L448.14267100977213,213.431753475219L451.676221498371,211.64161398171564L457.2710097719864,209.8514601845527L464.0436482084697,208.50883544972748L474.64429967426713,208.06129208338098L487.3061889250821,206.2711096779385L492.3120521172641,205.82356184141827L490.83973941368095,197.76754789846018L491.4286644951135,196.8724173559749L491.4286644951135,193.73943229144788L490.5452768729647,190.15882428109762L493.1954397394138,188.36849881484522L495.2566775244295,187.47333071631147L498.2013029315958,187.0257453256927L509.3908794788276,189.71124425594462L515.5745928338756,189.71124425594462L517.3413680781769,188.81608152281842L518.8136807817591,188.36849881484522L524.7029315960917,190.15882428109762L531.7700325732894,190.15882428109762L534.1257328990223,183.8926225519681L549.1433224755692,187.47333071631147L551.2045602605867,187.47333071631147L554.7381107491856,187.0257453256927L555.0325732899028,187.92091521274415L561.8052117263851,187.0257453256927L563.5719869706845,192.8442856540205L565.633224755702,190.60640341203543L571.2280130293166,187.92091521274415L571.81693811075,189.71124425594462L576.8228013029329,187.47333071631147L579.7674267100983,194.1870042688097L573.2892508143323,195.9772832368908L578.8840390879477,209.8514601845527L580.3563517915309,208.50883544972748L586.2456026058635,206.2711096779385L588.3068403908792,209.8514601845527L596.2573289902275,204.48091296778875L597.7296416938116,203.1382560475904L601.8521172638439,202.69070195264067L604.502280130293,203.1382560475904L608.0358306188928,211.64161398171564L609.8026058631922,214.77434870874276L612.158306188926,217.01198955229484L613.6306188925082,220.14464918867452L622.1700325732891,224.61980126067647L623.6423452768731,224.17229007577407L627.7648208469054,229.09486394876149L628.0592833876226,230.4373653261573L627.7648208469054,232.2273546496872L626.8814332247557,234.0173296732246L628.0592833876226,234.91231182258343L631.003908794788,231.77985865948722L634.2429967426706,229.54236530160415L644.2547231270364,244.30940856374218L646.9048859934846,242.96699030091986L647.7882736156353,243.4144639488659L656.0332247557008,240.28212964721024L656.6221498371342,241.17708677300834L657.8000000000002,240.72960865692585L657.8000000000002,239.834649743716L661.0390879478837,239.38716894664685L673.1120521172634,263.99728581582895L689.8964169381106,256.39081102772616L692.841042345277,263.5498532699421L693.1355048859941,266.6818623302097L694.3133550488601,268.4715621389041L699.0247557003249,273.39316291190335L698.4358306188924,274.7353989085532L698.7302931596096,275.6302184399101L699.9081433224756,276.52503439818975L703.7361563517916,280.10426250082674L704.6195439739413,280.99906059424393L706.6807817589579,280.99906059424393L708.4475570032573,282.7886460623122L706.0918566775254,284.5782172391191L704.325081433225,285.0256078004604L699.9081433224756,285.47299746848876L696.3745928338767,286.8151611138019L700.497068403909,293.9732314661378L706.6807817589579,297.10481535160216L718.164820846906,302.4731430640095L721.1094462540723,300.68371478130575L727.5876221498374,297.5521809058264L728.17654723127,302.92049790217425L727.8820846905546,306.05195676654694L733.1824104234529,302.0257873327355L743.488599348535,314.1040786531521L745.5498371335498,312.76207842864096L751.4390879478833,319.91932010429446L755.5615635179156,317.68270663320436L759.3895765472316,324.83979117590934L766.7511400651465,329.76015422676574L768.812377850164,340.49511687553604L786.7745928338773,348.5460014701821L790.6026058631933,349.88778745554737L792.0749185667746,351.2295654089248L801.497719869707,353.4658441489155L797.3752442996747,357.9383346980612L790.6026058631933,378.5106419286167L793.2527687296415,383.4298269961728L793.841693811075,391.0319916039298L794.4306188925084,391.92634696219466L799.4364820846913,395.50373271558783L807.6814332247568,397.73956982285017L806.7980456026062,400.8697043118882L818.2820846905543,405.34124919975875L827.1159609120523,411.6012622132839L829.4716612377861,412.9426708324463L845.0781758957664,417.86110043810913L853.6175895765482,419.64959354302846L858.6234527687302,426.80342329555424L862.157003257329,428.1447409625398L865.9850162866451,429.03894828257035L867.4573289902291,429.9331520362757L872.1687296416949,432.6157418996445L872.4631921824093,433.06283708970295L862.7459283387625,458.09874497703277L859.8013029315971,461.22803692071466L857.7400651465796,470.6156507358246L861.5680781758956,470.6156507358246L861.8625407166137,470.16863041825127L870.990879478828,472.85073895720416L882.4749185667752,481.34387103139306L879.8247557003269,491.177622115094L876.2912052117272,497.88220517040463L870.4019543973945,504.5865877888282L873.6410423452771,508.1621765679447L865.3960912052116,511.737708341243L866.2794788273613,513.9723867522844L868.340716612378,526.4861743898655L859.5068403908799,524.6985331889009L858.328990228013,530.5083149972488L857.7400651465796,532.742806390248L856.8566775244308,531.8490125044482L854.2065146579807,531.8490125044482L853.323127035831,532.2959098925057L852.1452768729641,534.0834905405645L848.3172638436481,534.9772755219601L849.4951140065141,540.7867910865461L849.4951140065141,546.1492872843228L847.7283387622147,555.0864960557083L842.4280130293173,553.7459374410391L839.7778501628663,553.7459374410391L840.0723127035835,562.236006692634L841.8390879478839,567.1511630710447L842.7224755700317,573.8534754793509L843.3114006514652,576.0875351148425L845.3726384364827,579.2151812258526L850.0840390879493,585.0235511701321L851.8508143322479,588.1510726945708L852.4397394136813,587.2574995653995L854.500977198697,585.917133197916L859.8013029315971,588.1510726945708L862.7459283387625,587.2574995653995L863.6293159609131,585.917133197916L867.4573289902291,584.5767588215531L868.9296416938105,583.2363764363399L872.7576547231265,583.2363764363399L875.4078175895775,582.3427837300696L877.174592833876,581.4491874641681L876.8801302931588,578.7683773084427L885.1250814332252,574.7471020035155L892.1921824104247,573.4066608822322L896.3146579804561,573.8534754793509L898.0814332247555,572.066211751051L900.7315960912056,571.61939359401L903.3817589576556,572.5130290182133L903.9706840390891,573.4066608822322L905.4429967426713,577.8747668037249L906.9153094462545,580.5555876386352L916.6325732899022,591.2785506167565L918.3993485342025,594.4059849385812L919.2827361563532,600.2139615816996L920.7550488599345,605.1282859149796L920.4605863192182,606.4685375046975L921.0495114006517,610.9359849781904L921.9328990228023,612.2762018729409L926.9387622149852,619.4238901001227L928.7055374592837,624.7845068340539L929,626.5713506163156L928.7055374592837,628.3581801679102L926.644299674268,631.9317965803784L926.3498371335509,632.8251917898015L923.1107491856692,633.2718880604662L916.0436482084688,632.3784946297237L916.9270358306194,635.9520470085845L897.492508143323,641.7589482339099L890.7198697068407,642.2056267186126L875.4078175895775,635.0586642498383L881.0026058631938,658.2854599703278L882.1804560260589,659.6253940608585L887.4807817589581,664.0917832418345L888.3641693811087,665.8783140218002L889.2475570032575,666.3249444942339L888.0697068403915,668.5580835221626L888.0697068403915,669.004708660912L887.4807817589581,669.8979562714812L885.1250814332252,674.8107545711973L882.4749185667752,679.2768415103201L878.3524429967429,682.8496470650134L877.174592833876,681.9564510091441L871.2853420195443,694.9074458687683L858.328990228013,693.1211461862549L857.151140065147,694.9074458687683L855.0899022801304,696.6937313326343L853.323127035831,699.3731328689319L854.7954397394142,702.9456184884184L846.8449511400659,708.3042402888823L846.2560260586333,708.3042402888823L839.1889250814329,719.0211000572308L852.7342019543976,727.0584090636403L854.2065146579807,728.8444386447663L857.7400651465796,733.3094504178734L858.328990228013,733.7559467098035L857.4456026058642,738.2208607759385L870.4019543973945,742.6856860230037L866.5739413680785,745.3645385399868L866.8684039087948,746.2574822739407L864.8071661237791,747.1504224556556L867.162866449512,763.2227383058635L863.0403908794797,764.5620460137434L862.7459283387625,762.7763006274763L853.6175895765482,765.9013457303809L853.9120521172636,766.3477771934413L851.5563517915307,775.2762200063735L848.3172638436481,776.1690447558649L847.4338762214984,775.2762200063735L844.1947882736158,779.7403082424717L844.1947882736158,780.1867121835239L837.1276872964172,786.4362741473597L838.0110749185678,785.9898826342542L832.7107491856686,795.3639180075261L831.5328990228008,798.0421419336926L830.6495114006511,797.5957734982367L827.999348534202,804.2912068412115L828.2938110749192,804.2912068412115L826.5270358306198,807.8620229760418L823.5824104234525,806.0766220082005L822.6990228013037,805.1839161997195L822.1100977198703,803.8448508308502L819.1654723127031,812.7718024255009L816.2208469055377,811.4327823153872L815.3374592833889,817.6814745025185L815.9263843648214,817.6814745025185L815.9263843648214,823.0373579545703L814.4540716612382,831.0709435741301L813.5706840390876,831.0709435741301L811.8039087947882,840.4430968340312L810.3315960912059,848.9223269801878L799.7309446254085,845.3521638425009L797.669706840391,855.6162298616255L792.0749185667746,856.062482958223L792.0749185667746,860.0787209180999L790.6026058631933,860.0787209180999L790.6026058631933,865.4335931210953L787.9524429967432,865.4335931210953L790.6026058631933,873.46566199261L794.1361563517921,881.0512410185765L793.841693811075,882.3898460118216L796.7863192182413,888.1903754432569L794.1361563517921,890.421308406163L798.5530944625416,893.5445773202518L802.0866449511404,896.2216303877358L807.3869706840387,902.4679634422646L811.5094462540728,905.5910648186982L828.2938110749192,917.1907754104759L824.171335504886,918.5291650028958L820.3433224755709,918.9752930945542L808.2703583061893,922.9904060409754L800.9087947882736,926.5593350669369L796.7863192182413,927.8976688304683L799.142019543975,935.0353142159875L799.142019543975,938.1579627447936L799.7309446254085,941.2805678596778L793.5472312703587,943.0648941481195L793.5472312703587,942.1727327757981L782.9465798045612,942.6188139048754L782.3576547231278,945.7413570022909L777.6462540716611,945.7413570022909L768.2234527687306,947.0795764694631L768.5179153094468,951.9863129685109L749.9667752442992,956.8929422794608L750.2612377850164,960.9073774480203L746.4332247557004,960.9073774480203L747.0221498371338,957.3389941745845L739.660586319219,956.8929422794608L734.9491856677523,956.8929422794608L732.5934853420194,954.6626695164305L737.3048859934861,951.0941870324605L738.482736156353,949.7559914843005L738.7771986970683,948.417787963408L737.3048859934861,945.7413570022909L735.2436482084695,943.0648941481195L733.7713355048863,942.6188139048754L730.82671009772,939.0501400646754L727.5876221498374,937.7118727558991L724.348534201954,936.3735974729643L723.170684039088,935.927503940009L721.992833876222,936.3735974729643L721.6983713355057,934.1431209476432L726.1153094462552,933.25092413518L725.5263843648218,932.8048243999656L725.2319218241046,930.1282073806215L725.5263843648218,929.682101442857L725.820846905538,926.1132220402651L721.6983713355057,927.4515584621404L718.4592833876231,929.682101442857L717.5758957654725,929.682101442857L717.2814332247563,929.682101442857L716.3980456026056,926.1132220402651L714.6312703583071,922.0981649228779L713.158957654724,919.86754661944L716.9869706840391,914.9601083650778L718.7537459283385,911.8371372784895L718.4592833876231,911.8371372784895L712.5700325732896,906.0372186127934L709.9198697068414,903.8064407789789L707.5641693811076,907.8218249252532L705.7973941368082,909.6064170564641L699.319218241043,915.4062435465748L696.0801302931595,917.6369061609439L695.491205211727,918.5291650028958L694.9022801302935,917.6369061609439L694.3133550488601,911.39099500663L694.6078175895764,906.4833715203567L693.4299674267104,900.6833145837008L690.1908794788278,902.0218025571667L690.1908794788278,902.4679634422646L681.3570032573289,906.0372186127934L681.6514657980451,906.4833715203567L680.4736156351792,907.3756746766448L679.2957654723132,904.6987545715529L677.5289902280128,901.1294781278993L675.4677524429972,897.5601449542155L672.2286644951155,889.0827512880496L670.7563517915314,887.2979960522789L667.2228013029326,884.620836601709L667.5172638436488,882.8360459030664L670.7563517915314,883.2822449076048L671.639739413682,881.9436452339578L673.995439739414,881.9436452339578L675.1732899022809,880.6050375808263L675.4677524429972,877.9277983352658L673.7009771986968,877.4815886911238L674.5843648208474,869.8958890753856L668.9895765472311,870.3421137935657L666.339413680782,869.8958890753856L666.0449511400657,862.7561729825393L660.155700325733,861.4174509411969L654.8553745928348,861.4174509411969L651.6162866449513,850.7073872614419L648.0827361563524,851.5999120802735L644.5491856677527,852.0461731593241L641.8990228013045,851.1536501144001L641.6045602605873,851.1536501144001L641.3100977198701,850.7073872614419L644.5491856677527,849.3685933810193L646.3159609120521,849.3685933810193L649.8495114006528,848.4760596925044L646.9048859934846,844.0133380301704L645.1381107491861,840.8893800881924L643.665798045603,839.550527664338L641.3100977198701,837.7653786799929L639.837785016287,836.4265076272131L639.2488599348535,834.6413338037964L641.8990228013045,834.1950381300412L639.837785016287,829.285727167211L638.9543973941363,821.6983990698936L635.4208469055375,790.0073742971581L634.831921824104,775.7226328249963L617.7530944625405,750.2756851165614L616.5752442996745,751.1686093127937L615.3973941368076,755.6331770115648L610.0970684039094,758.3118750065041L610.9804560260582,749.3827573680901L606.5635179153105,745.3645385399868L600.3798045602607,748.4898260673508L599.7908794788264,747.5968912142853L566.2221498371337,763.6691750963219L542.9596091205212,774.8298063000839L533.2423452768735,779.2939034138399L529.7087947882746,780.6331152367347L519.4026058631916,781.9723190701625L518.5192182410437,781.5259186800395L515.5745928338756,781.9723190701625L508.21302931596074,782.418718572415L508.21302931596074,782.8651171870588L504.6794788273619,782.8651171870588L500.5570032573296,785.0970969449263L495.84560260586295,786.4362741473597L493.78436482084817,786.8826647728274L492.90097719869755,786.4362741473597L493.1954397394138,779.7403082424717L490.5452768729647,773.4905598543119L487.6006514657993,773.9369762239803L486.71726384364865,776.1690447558649L484.9504885993492,778.8474976973375L484.9504885993492,784.2043077048729L480.2390879478826,785.5434902333654L478.76677524430033,788.2218313234334L471.40521172638546,789.5609898851253L470.22736156351857,799.3812419149908L459.6267100977211,798.488509481569L453.4429967426722,795.3639180075261L451.08729641693753,800.7203339084808L448.4371335504893,799.8276068002742L446.3758957654727,802.5057774746674L449.90944625407155,804.7375619641971L453.4429967426722,805.6302695476916L459.33224755700394,806.9693242670037L460.510097719869,807.4156740652979L460.21563517915365,808.7547181353439L460.510097719869,808.7547181353439L460.510097719869,809.2010643839312L460.21563517915365,809.2010643839312L459.33224755700394,810.9864405038243L454.6208469055382,809.2010643839312L453.14853420195413,812.7718024255009L454.03192182410476,812.7718024255009L453.4429967426722,814.1108145492617L447.2592833876224,812.7718024255009L448.4371335504893,810.540097805002L445.4925081433221,808.3083709993516L445.1980456026067,808.7547181353439L444.6091205211733,808.7547181353439L442.84234527687295,810.540097805002L436.65863192182496,802.0594179144246L435.4807817589581,802.5057774746674L435.77524429967434,806.0766220082005L436.65863192182496,808.3083709993516L434.89185667752463,812.7718024255009L434.59739413680745,815.89615162462L436.65863192182496,822.5910392136138L436.65863192182496,823.4836758082092L435.4807817589581,826.1615642980032L436.95309446254123,827.5004965651897L439.3087947882732,828.8394208475656L439.60325732899037,829.285727167211L439.60325732899037,831.0709435741301L441.6644951140079,832.8561457861797L442.84234527687295,834.6413338037964L441.6644951140079,836.4265076272131L441.95895765472324,837.7653786799929L444.3146579804561,839.1042417488352L444.02019543973984,841.3356624553853L442.54788273615577,840.8893800881924L437.5420195439747,839.550527664338L436.3641693811078,838.2116672568081L430.180456026058,830.6246408032312L426.64690553745913,824.3763088537962L423.70228013029373,818.5741306175187L421.6410423452771,813.2181406875316L420.46319218241115,813.66447806207L418.9908794788271,810.540097805002L418.6964169381108,808.7547181353439L421.6410423452771,803.8448508308502L422.22996742670966,796.7030339645571L417.22410423452766,798.9348761420406L413.6905537459288,797.5957734982367L410.7459283387634,792.6856621290499L399.85081433224696,796.7030339645571L396.90618892508155,797.1494041751721L375.7048859934848,802.0594179144246L371.28794788273626,803.3984939329966L362.4540716612373,806.9693242670037L352.4423452768742,812.7718024255009L336.2469055374595,826.6078759410302L332.71335504885974,822.5910392136138L337.71921824104174,816.788814838219L340.3693811074918,812.3254632762109L338.0136807817589,811.8791232394578L333.3022801302941,809.2010643839312L333.3022801302941,807.4156740652979L332.1244299674263,807.8620229760418L330.0631921824115,807.4156740652979L329.47426710097807,809.6474097449682L327.41302931596147,808.7547181353439L327.70749185667864,808.3083709993516L325.35179153094487,807.4156740652979L326.52964169381085,805.1839161997195L326.824104234528,803.3984939329966L326.824104234528,799.3812419149908L325.9407166123774,789.1146045855712L318.8736156351806,789.5609898851253L318.8736156351806,789.5609898851253L307.3895765472307,788.2218313234334L307.3895765472307,787.3290545106865L299.4390879478824,786.4362741473597L296.78892508143326,795.3639180075261L290.60521172638346,794.9175442467968L286.77719869706925,812.3254632762109L269.6983713355048,804.2912068412115L264.39804560260563,812.7718024255009L261.15895765472305,811.4327823153872L259.686644951139,814.1108145492617L254.6807817589579,811.8791232394578L249.96938110749215,820.8057553772232L227.59022801302945,813.2181406875316L224.9400651465803,818.5741306175187L220.22866449511457,817.6814745025185L207.86123778501678,816.3424836751656L206.09446254071736,781.0795174021623L203.4442996742673,699.8196966815449L184.59869706840345,699.8196966815449L184.59869706840345,708.750786330027L173.70358306188973,715.8954021544487L166.34201954397395,735.5419229949184L158.09706840390845,732.8629532377818L140.1348534201943,720.3606715466594L139.54592833876268,721.7002350404509L133.36221498371287,719.4676247754833L130.41758957654747,723.9328230962274L127.47296416938207,725.2723652693676L123.9394136807814,725.7188775504765L123.0560260586326,725.7188775504765L113.9276872964183,719.9141486053122L113.63322475570112,720.3606715466594L110.98306188925017,719.4676247754833L108.6273615635182,717.2349923005095L110.6885993485339,713.2161978744261L106.5661237785007,710.0904191225127L106.27166123778443,708.750786330027L106.5661237785007,707.8576933591103L98.32117263843702,696.6937313326343L91.54853420195468,692.2279910129146L89.1928338762209,690.4416700017755L83.59804560260545,681.9564510091441L80.65342019543914,678.8302368162258L76.53094462540685,675.7039790699782L70.34723127035886,673.0242949069652L68.8749185667748,672.1310597413976L70.64169381107513,675.7039790699782L71.52508143322575,678.8302368162258L72.40846905537455,680.1700482318411L69.75830618892542,684.1894344825414L70.05276872964168,685.0826216505084L67.6970684039079,687.7621618235135L66.22475570032657,690.8882515876903L60.33550488599303,687.7621618235135L58.27426710097734,686.8689853208198L56.21302931596165,684.1894344825414L54.15179153094505,683.7428395655006L51.501628664495,681.9564510091441L49.73485342019558,681.5098516480939L49.44039087947931,682.4030494814797L40.90097719869664,676.5972000132315L35.600651465798364,676.1505899859767L29.122475570033203,672.5776777685678L33.539413680780854,669.004708660912L31.47817589576607,665.4316826602153L33.244951140066405,663.1985125178471L25.00000000000091,658.2854599703278L36.77850162866525,640.8655885966436L36.484039087948986,640.4189074441674L38.839739413680945,636.8454262100568L37.956351791530324,630.5916970959806L39.42866449511439,627.4647671709536L41.78436482084726,628.3581801679102L42.96221498371324,620.7640562914312L44.434527687297305,615.8500744516205L44.72899022801266,613.6164107616933L43.84560260586386,613.1696753549913L43.84560260586386,612.2762018729409L44.434527687297305,610.9359849781904L44.72899022801266,610.4892442341079L45.612377850163284,607.3620341163187L46.20130293159673,607.3620341163187L47.96807817589615,605.1282859149796L50.029315960912754,600.6607227876666L51.501628664495,599.7671994860284L57.97980456026107,589.9382082747761L60.041042345277674,586.8107116660103L63.280130293160255,576.9811527392012L69.16938110749197,563.576514567947L70.64169381107513,564.4701820342743L72.997394136808,560.4486503971275L75.0586319218246,561.342330325162L77.70879478827374,554.1927912028332L71.81954397394293,552.4053708145802L72.997394136808,548.830487306579L72.40846905537455,548.830487306579L75.35309446254178,539.8930292554433L71.23061889250857,538.5523798309441L72.40846905537455,534.0834905405645L71.23061889250857,533.6365967142629L72.70293159609082,528.7207058544154L72.11400651465738,528.2738013425551L73.29185667752427,520.2293678484566L64.45798045602533,517.1008991204726L54.446254071662224,512.6315823776822L69.75830618892542,451.84003007158753L75.94201954397522,429.03894828257035L77.11986970684029,421.8851898612047L73.58631921824144,421.43807238095906L72.997394136808,422.3323064498836L72.40846905537455,425.0149872569018L72.40846905537455,427.69763596507255L71.52508143322575,427.69763596507255L70.9361563517923,429.03894828257035L71.23061889250857,433.06283708970295L70.9361563517923,432.6157418996445L70.05276872964168,434.85120893476414L63.280130293160255,432.16864581790287L61.218892508143654,433.5099313882238L59.45211726384241,431.7215488446527L53.268403908794426,432.16864581790287L52.09055374592754,421.43807238095906L55.624104234528204,414.2840714257327L63.86905537459188,415.625463993405L74.76416938110833,416.0725930657645Z" style="fill: none; stroke: rgb(8, 48, 107);"><title>VAL DE MARNE</title></path><g stroke="#000" stroke-opacity="0.2"><path d="M0,-18.876579049491834L4.238056047668955,-5.833183721955068L17.952693510379785,-5.833183721955069L6.857318731355415,2.2280779191642193L11.095374779024372,15.271473246700983L8.881784197001252e-16,7.210211605581696L-11.095374779024368,15.271473246700985L-6.857318731355414,2.2280779191642206L-17.952693510379788,-5.833183721955065L-4.238056047668956,-5.833183721955068Z" transform="translate(109.8052117263851,551.9585134918743)rotate(16.508678032665486)" fill="white" class="commune"><title>insee_com : 94038 
Population : 31204
 Nom : HAY LES ROSES</title></path><path d="M0,-18.876579049491834L4.238056047668955,-5.833183721955068L17.952693510379785,-5.833183721955069L6.857318731355415,2.2280779191642193L11.095374779024372,15.271473246700983L8.881784197001252e-16,7.210211605581696L-11.095374779024368,15.271473246700985L-6.857318731355414,2.2280779191642206L-17.952693510379788,-5.833183721955065L-4.238056047668956,-5.833183721955068Z" transform="translate(563.2775244299673,283.68343343705055)rotate(13.606729317971046)" fill="white" class="commune"><title>insee_com : 94052 
Population : 32851
 Nom : NOGENT SUR MARNE</title></path><path d="M0,-26.69551410299918L5.993516340710753,-8.249367531402827L25.38894264350654,-8.249367531402829L9.697713151397894,3.150978011306063L15.69122949210865,21.597124582902413L1.7763568394002505e-15,10.196779040193524L-15.691229492108645,21.597124582902417L-9.697713151397892,3.1509780113060657L-25.388942643506542,-8.249367531402822L-5.993516340710755,-8.249367531402825Z" transform="translate(450.498371335505,557.7675892494444)rotate(27.92819044891182)" fill="white" class="commune"><title>insee_com : 94028 
Population : 90605
 Nom : CRETEIL</title></path></g><text class="text" y="40" x="427" text-anchor="middle" font-size="36" font-family="Helvetica" fill="#6baed6">94  - VAL DE MARNE</text><line x1="427.78549402823035" y1="557.3803175322731" x2="132.51808903365975" y2="552.3457852090456" stroke="yellow" opacity="0.35" stroke-width="2"/><line x1="140.03669923995724" y1="534.0735081548861" x2="533.0460369163952" y2="301.5684387740388" stroke="yellow" opacity="0.35" stroke-width="2"/><line x1="555.7589142236699" y1="301.95571049121014" x2="458.01698154180247" y2="539.4953121952848" stroke="yellow" opacity="0.35" stroke-width="2"/></svg>