<svg viewBox="0,0,954,1144.8" width="954" height="1144.8" style="width: 100%; height: auto;" xmlns="http://www.w3.org/2000/svg" xmlns:xlink="http://www.w3.org/1999/xlink"><rect width="954" height="1144.8" fill="black"/><g stroke="#000" stroke-opacity="0.2"><path d="M0,-13.34775705149959L2.9967581703553763,-4.1246837657014135L12.69447132175327,-4.124683765701414L4.848856575698947,1.5754890056530315L7.845614746054325,10.798562291451207L8.881784197001252e-16,5.098389520096762L-7.845614746054323,10.798562291451208L-4.848856575698946,1.5754890056530328L-12.694471321753271,-4.124683765701411L-2.9967581703553776,-4.124683765701413Z" transform="translate(411.1890239182603,634.8662995461855)rotate(4.5478233975603235)" fill="white" class="commune"><title>insee_com : 67300 
Population : 9312
 Nom : MOLSHEIM</title></path><path d="M0,-15.873247654971056L3.5637661381291506,-4.905103281308338L15.096355617026989,-4.905103281308339L5.766294739448918,1.873582735131148L9.330060877578072,12.841727108793865L8.881784197001252e-16,6.063041092354379L-9.330060877578068,12.841727108793867L-5.766294739448918,1.8735827351311491L-15.09635561702699,-4.905103281308335L-3.563766138129152,-4.905103281308337Z" transform="translate(320.08228191036505,424.33863943169854)rotate(0.13133772757901507)" fill="white" class="commune"><title>insee_com : 67437 
Population : 11239
 Nom : SAVERNE</title></path><path d="M0,-15.873247654971056L3.5637661381291506,-4.905103281308338L15.096355617026989,-4.905103281308339L5.766294739448918,1.873582735131148L9.330060877578072,12.841727108793865L8.881784197001252e-16,6.063041092354379L-9.330060877578068,12.841727108793867L-5.766294739448918,1.8735827351311491L-15.09635561702699,-4.905103281308335L-3.563766138129152,-4.905103281308337Z" transform="translate(384.3188327269918,933.2448171786164)rotate(7.436918766439732)" fill="white" class="commune"><title>insee_com : 67462 
Population : 19252
 Nom : SELESTAT</title></path><path d="M0,-18.876579049491834L4.238056047668955,-5.833183721955068L17.952693510379785,-5.833183721955069L6.857318731355415,2.2280779191642193L11.095374779024372,15.271473246700983L8.881784197001252e-16,7.210211605581696L-11.095374779024368,15.271473246700985L-6.857318731355414,2.2280779191642206L-17.952693510379788,-5.833183721955065L-4.238056047668956,-5.833183721955068Z" transform="translate(617.6136697886832,343.52900758334)rotate(1.9404944196946383)" fill="white" class="commune"><title>insee_com : 67180 
Population : 34504
 Nom : HAGUENAU</title></path><path d="M0,-31.746495309942112L7.127532276258301,-9.810206562616676L30.192711234053977,-9.810206562616678L11.532589478897837,3.747165470262296L18.660121755156144,25.68345421758773L1.7763568394002505e-15,12.126082184708759L-18.660121755156137,25.683454217587734L-11.532589478897837,3.7471654702622983L-30.19271123405398,-9.81020656261667L-7.127532276258304,-9.810206562616674Z" transform="translate(592.7727378280051,602.0920785804483)rotate(14.863250991052704)" fill="white" class="commune"><title>insee_com : 67482 
Population : 280966
 Nom : STRASBOURG</title></path></g><text class="text" y="40" x="427" text-anchor="middle" font-size="36" font-family="Helvetica" fill="#6baed6">67  - BAS RHIN</text><line x1="603.852026730655" y1="362.9514937141964" x2="424.9506669762885" y2="615.4438134153291" stroke="yellow" opacity="0.35" stroke-width="2"/><line x1="405.11524111773394" y1="620.8311222052197" x2="326.1560647108914" y2="438.3738167726643" stroke="yellow" opacity="0.35" stroke-width="2"/><line x1="324.3647186314735" y1="458.2657179481597" x2="380.0363960058833" y2="899.3177386621552" stroke="yellow" opacity="0.35" stroke-width="2"/><line x1="398.21575973372603" y1="911.1679679387385" x2="578.8758108212709" y2="624.1689278203262" stroke="yellow" opacity="0.35" stroke-width="2"/><line x1="594.428799958717" y1="584.8545405139744" x2="615.9576076579713" y2="360.76654564981385" stroke="yellow" opacity="0.35" stroke-width="2"/></svg>