<svg viewBox="0,0,955,1146" width="955" height="1146" style="width: 100%; height: auto;" xmlns="http://www.w3.org/2000/svg" xmlns:xlink="http://www.w3.org/1999/xlink"><rect width="955" height="1146" fill="black"/><g stroke="#000" stroke-opacity="0.2"><path d="M0,-13.34775705149959L2.9967581703553763,-4.1246837657014135L12.69447132175327,-4.124683765701414L4.848856575698947,1.5754890056530315L7.845614746054325,10.798562291451207L8.881784197001252e-16,5.098389520096762L-7.845614746054323,10.798562291451208L-4.848856575698946,1.5754890056530328L-12.694471321753271,-4.124683765701411L-2.9967581703553776,-4.124683765701413Z" transform="translate(705.755207492346,756.258148664987)rotate(6.828922413031594)" fill="white" class="commune"><title>86165 Population : 5998</title></path><path d="M0,-18.876579049491834L4.238056047668955,-5.833183721955068L17.952693510379785,-5.833183721955069L6.857318731355415,2.2280779191642193L11.095374779024372,15.271473246700983L8.881784197001252e-16,7.210211605581696L-11.095374779024368,15.271473246700985L-6.857318731355414,2.2280779191642206L-17.952693510379788,-5.833183721955065L-4.238056047668956,-5.833183721955068Z" transform="translate(476.8325871125955,378.251695517647)rotate(26.76260996289336)" fill="white" class="commune"><title>86066 Population : 32057</title></path><path d="M0,-26.69551410299918L5.993516340710753,-8.249367531402827L25.38894264350654,-8.249367531402829L9.697713151397894,3.150978011306063L15.69122949210865,21.597124582902413L1.7763568394002505e-15,10.196779040193524L-15.691229492108645,21.597124582902417L-9.697713151397892,3.1509780113060657L-25.388942643506542,-8.249367531402822L-5.993516340710755,-8.249367531402825Z" transform="translate(347.3544869561185,603.0507085721838)rotate(15.86153181937872)" fill="white" class="commune"><title>86194 Population : 87961</title></path></g><text class="text" y="40" x="427.5" text-anchor="middle" font-size="36" font-family="Helvetica" fill="#6baed6">86 - VIENNE</text><line x1="492.0940951379122" y1="403.4521257274697" x2="690.4936994670293" y2="731.0577184551643" stroke="yellow" opacity="0.35" stroke-width="2"/><line x1="681.8618261232642" y1="746.0443193254667" x2="371.24786832520033" y2="613.264537911704" stroke="yellow" opacity="0.35" stroke-width="2"/><line x1="355.9863602998836" y1="588.0641077018813" x2="468.2007137688304" y2="393.23829638794945" stroke="yellow" opacity="0.35" stroke-width="2"/></svg>