<svg viewBox="0,0,955,1146" width="955" height="1146" style="width: 100%; height: auto;" xmlns="http://www.w3.org/2000/svg" xmlns:xlink="http://www.w3.org/1999/xlink"><rect width="955" height="1146" fill="black"/><g stroke="#000" stroke-opacity="0.2"><path d="M0,-13.34775705149959L2.9967581703553763,-4.1246837657014135L12.69447132175327,-4.124683765701414L4.848856575698947,1.5754890056530315L7.845614746054325,10.798562291451207L8.881784197001252e-16,5.098389520096762L-7.845614746054323,10.798562291451208L-4.848856575698946,1.5754890056530328L-12.694471321753271,-4.124683765701411L-2.9967581703553776,-4.124683765701413Z" transform="translate(437.73824257425736,351.66902173340713)rotate(18.596033253945336)" fill="white" class="commune"><title>45252 Population : 9027</title></path><path d="M0,-15.873247654971056L3.5637661381291506,-4.905103281308338L15.096355617026989,-4.905103281308339L5.766294739448918,1.873582735131148L9.330060877578072,12.841727108793865L8.881784197001252e-16,6.063041092354379L-9.330060877578068,12.841727108793867L-5.766294739448918,1.8735827351311491L-15.09635561702699,-4.905103281308335L-3.563766138129152,-4.905103281308337Z" transform="translate(711.0303217821781,503.4195297717233)rotate(21.45627674743526)" fill="white" class="commune"><title>45208 Population : 14222</title></path><path d="M0,-26.69551410299918L5.993516340710753,-8.249367531402827L25.38894264350654,-8.249367531402829L9.697713151397894,3.150978011306063L15.69122949210865,21.597124582902413L1.7763568394002505e-15,10.196779040193524L-15.691229492108645,21.597124582902417L-9.697713151397892,3.1509780113060657L-25.388942643506542,-8.249367531402822L-5.993516340710755,-8.249367531402825Z" transform="translate(251.8100247524751,601.2292651913485)rotate(26.519011544668444)" fill="white" class="commune"><title>45234 Population : 114782</title></path></g><text class="text" y="40" x="427.5" text-anchor="middle" font-size="36" font-family="Helvetica" fill="#6baed6">45 - LOIRET</text><line x1="680.4156353135313" y1="509.94017879969834" x2="282.424711221122" y2="594.7086161633736" stroke="yellow" opacity="0.35" stroke-width="2"/><line x1="264.20523927392725" y1="584.5919156274857" x2="425.3430280528052" y2="368.3063712972699" stroke="yellow" opacity="0.35" stroke-width="2"/><line x1="455.9577145214521" y1="361.78572226929487" x2="692.8108498349834" y2="493.3028292358356" stroke="yellow" opacity="0.35" stroke-width="2"/></svg>