<svg viewBox="0,0,954,1144.8" width="954" height="1144.8" style="width: 100%; height: auto;" xmlns="http://www.w3.org/2000/svg" xmlns:xlink="http://www.w3.org/1999/xlink"><rect width="954" height="1144.8" fill="black"/><g stroke="#000" stroke-opacity="0.2"><path d="M0,-13.34775705149959L2.9967581703553763,-4.1246837657014135L12.69447132175327,-4.124683765701414L4.848856575698947,1.5754890056530315L7.845614746054325,10.798562291451207L8.881784197001252e-16,5.098389520096762L-7.845614746054323,10.798562291451208L-4.848856575698946,1.5754890056530328L-12.694471321753271,-4.124683765701411L-2.9967581703553776,-4.124683765701413Z" transform="translate(802.3893557422966,843.6917661755651)rotate(29.916991842898085)" fill="white" class="commune"><title>insee_com : 59036 
Population : 4495
 Nom : AVESNES SUR HELPE</title></path><path d="M0,-18.876579049491834L4.238056047668955,-5.833183721955068L17.952693510379785,-5.833183721955069L6.857318731355415,2.2280779191642193L11.095374779024372,15.271473246700983L8.881784197001252e-16,7.210211605581696L-11.095374779024368,15.271473246700985L-6.857318731355414,2.2280779191642206L-17.952693510379788,-5.833183721955065L-4.238056047668956,-5.833183721955068Z" transform="translate(508.441643323996,807.9948044835328)rotate(29.629254651885535)" fill="white" class="commune"><title>insee_com : 59122 
Population : 32558
 Nom : CAMBRAI</title></path><path d="M0,-18.876579049491834L4.238056047668955,-5.833183721955068L17.952693510379785,-5.833183721955069L6.857318731355415,2.2280779191642193L11.095374779024372,15.271473246700983L8.881784197001252e-16,7.210211605581696L-11.095374779024368,15.271473246700985L-6.857318731355414,2.2280779191642206L-17.952693510379788,-5.833183721955065L-4.238056047668956,-5.833183721955068Z" transform="translate(443.3215686274507,681.4784361602215)rotate(22.99225565079468)" fill="white" class="commune"><title>insee_com : 59178 
Population : 39700
 Nom : DOUAI</title></path><path d="M0,-22.448162112566994L5.039926405668234,-6.936863585267022L21.349470856006818,-6.936863585267023L8.154772225169292,2.649646114250548L13.19469863083753,18.16094464155052L8.881784197001252e-16,8.574434942032948L-13.194698630837525,18.160944641550522L-8.154772225169292,2.649646114250549L-21.34947085600682,-6.936863585267019L-5.0399264056682345,-6.936863585267021Z" transform="translate(630.5787114845934,688.0280484837567)rotate(20.093096073459176)" fill="white" class="commune"><title>insee_com : 59606 
Population : 43336
 Nom : VALENCIENNES</title></path><path d="M0,-26.69551410299918L5.993516340710753,-8.249367531402827L25.38894264350654,-8.249367531402829L9.697713151397894,3.150978011306063L15.69122949210865,21.597124582902413L1.7763568394002505e-15,10.196779040193524L-15.691229492108645,21.597124582902417L-9.697713151397892,3.1509780113060657L-25.388942643506542,-8.249367531402822L-5.993516340710755,-8.249367531402825Z" transform="translate(146.25079365079353,235.07315215672497)rotate(16.631721010773674)" fill="white" class="commune"><title>insee_com : 59183 
Population : 87353
 Nom : DUNKERQUE</title></path><path d="M0,-31.746495309942112L7.127532276258301,-9.810206562616676L30.192711234053977,-9.810206562616678L11.532589478897837,3.747165470262296L18.660121755156144,25.68345421758773L1.7763568394002505e-15,12.126082184708759L-18.660121755156137,25.683454217587734L-11.532589478897837,3.7471654702622983L-30.19271123405398,-9.81020656261667L-7.127532276258304,-9.810206562616674Z" transform="translate(439.43884220354767,507.18051967738575)rotate(0.8665211054754951)" fill="white" class="commune"><title>insee_com : 59350 
Population : 232787
 Nom : LILLE</title></path></g><text class="text" y="40" x="427" text-anchor="middle" font-size="36" font-family="Helvetica" fill="#6baed6">59  - NORD</text><line x1="782.7928415810766" y1="841.3119687294296" x2="528.0381574852161" y2="810.3746019296683" stroke="yellow" opacity="0.35" stroke-width="2"/><line x1="504.100305010893" y1="799.5603799286454" x2="447.6629069405537" y2="689.9128607151089" stroke="yellow" opacity="0.35" stroke-width="2"/><line x1="423.5168502956735" y1="651.7180838933217" x2="166.05551198257066" y2="264.83350442362473" stroke="yellow" opacity="0.35" stroke-width="2"/><line x1="165.79666355431047" y1="253.213643324769" x2="419.89297230003075" y2="489.0400285093417" stroke="yellow" opacity="0.35" stroke-width="2"/><line x1="452.18150015561736" y1="519.2370215978104" x2="617.8360535325237" y2="675.971546563332" stroke="yellow" opacity="0.35" stroke-width="2"/><line x1="642.032754435107" y1="698.4056296632106" x2="790.9353127917831" y2="833.3141849961113" stroke="yellow" opacity="0.35" stroke-width="2"/></svg>