<svg viewBox="0,0,600,600" width="600" height="600" style="width: 100%; height: auto;" xmlns="http://www.w3.org/2000/svg" xmlns:xlink="http://www.w3.org/1999/xlink"><rect width="752" height="902.4" fill="black"/><path d="M329.33996383363456,211.4910396733576L330.3345388788425,211.0234273129863L332.32368896925846,210.55580683407243L334.3128390596744,209.62054151893608L334.9758890898129,208.68524372454704L335.63893911995183,207.7499134475038L334.9758890898129,206.3468571195299L334.64436407474386,205.41144562099726L334.64436407474386,204.47600162791423L335.30741410488235,203.0727747036144L334.9758890898129,201.669474647475L334.64436407474386,200.73390064225532L334.64436407474386,200.26610144802908L334.64436407474386,200.26610144802908L334.3128390596744,200.26610144802908L333.9813140446049,199.79829412549952L333.9813140446049,199.33047867424102L334.3128390596744,196.5234152394696L334.3128390596744,196.05554287517953L334.64436407474386,195.11977374975322L334.9758890898129,194.65187698778755L335.30741410488235,194.65187698778755L335.63893911995183,194.65187698778755L335.97046413502085,194.1839720923963L336.6335141651598,193.24813789970722L336.6335141651598,192.31227116826994L336.6335141651598,190.90841005352559L336.6335141651598,189.9724619603403L336.6335141651598,189.5044757074611L336.3019891500903,189.5044757074611L335.97046413502085,189.0364813164888L335.97046413502085,187.16442236322473L336.3019891500903,185.760292677478L336.6335141651598,182.48370510519453L335.97046413502085,180.14304108492797L335.97046413502085,178.2703632323537L335.30741410488235,175.92933257641926L335.63893911995183,174.52461638095338L336.3019891500903,172.18325968170757L336.6335141651598,170.31002755547524L336.9650391802288,168.43666494026183L336.9650391802288,167.96830389436218L336.9650391802288,167.96830389436218L336.6335141651598,167.49993469075707L336.3019891500903,167.49993469075707L335.63893911995183,167.49993469075707L332.9867389993974,166.5631718087534L330.99758890898147,165.62637629083838L330.666063893912,165.15796629236138L330.3345388788425,165.15796629236138L330.0030138637735,165.15796629236138L328.67691380349606,165.15796629236138L327.6823387582881,165.62637629083838L327.6823387582881,165.62637629083838L327.01928872814915,165.15796629236138L325.69318866787216,163.28424469158563L325.03013863773367,162.34733492110172L325.03013863773367,162.34733492110172L325.03013863773367,161.41039249935056L325.03013863773367,159.53640968833497L326.35623869801066,157.19374745025198L327.01928872814915,154.38228323167277L324.6986136226642,152.97644083199702L324.0355635925257,151.57052489000853L322.37793851717925,150.16453539416398L322.37793851717925,149.69585588157497L322.37793851717925,149.69585588157497L322.37793851717925,148.7584723328946L323.04098854731774,145.9461254678754L323.04098854731774,144.53984164102803L324.0355635925257,142.6646820295391L324.3670886075947,141.72705314080667L324.6986136226642,140.32054844431332L323.70403857745623,138.91397010148285L323.37251356238676,138.4450942860276L321.7148884870403,138.4450942860276L320.05726341169384,137.97621028591675L319.39421338155535,137.97621028591675L317.40506329113896,138.4450942860276L316.410488245931,138.91397010148285L315.084388185654,139.38283773274088L313.42676311030755,139.8516971802128L311.7691380349611,140.32054844431332L308.78541289933673,140.32054844431332L307.4593128390593,141.2582264241828L305.80168776371283,141.2582264241828L302.8179626280894,141.72705314080667L300.828812537673,141.72705314080667L298.1766124171186,140.32054844431332L296.18746232670264,139.8516971802128L292.87221217600927,137.97621028591675L285.91018685955396,134.693793079241L285.5786618444845,134.693793079241L285.247136829415,132.81794597587214L285.247136829415,132.34896372664662L284.915611814346,130.00392961869147L285.247136829415,129.53489822173287L285.5786618444845,128.5968108490306L285.91018685955396,127.65869070174085L286.24171187462343,127.65869070174085L286.9047619047619,126.72053777642213L287.5678119349004,125.78235206965473L287.23628691983095,123.90588229802961L287.23628691983095,122.49844389243663L287.23628691983095,120.62174456044886L287.8993369499699,119.21413395303898L288.89391199517786,118.27568587096539L289.2254370102469,116.39869126623671L289.55696202531635,114.52156538449708L289.88848704038537,113.11363480609361L290.22001205545484,112.17497338209068L290.5515370705243,110.7669196798779L290.88306208559334,109.82817616259126L290.88306208559334,109.82817616259126L290.88306208559334,109.35879208789993L292.2091621458708,108.88939980195937L293.5352622061482,108.88939980195937L294.86136226642566,108.88939980195937L295.52441229656415,108.88939980195937L296.18746232670264,108.88939980195937L296.5189873417721,108.88939980195937L297.1820373719106,108.4199993043112L297.5135623869801,108.4199993043112L298.50813743218805,107.95059059453706L298.83966244725707,107.48117367221857L298.83966244725707,107.01174853690463L298.83966244725707,106.5423151881696L298.83966244725707,106.07287362560237L298.50813743218805,106.07287362560237L297.8450874020491,105.60342384875548L297.5135623869801,105.13396585719238L297.1820373719106,105.13396585719238L296.8505123568416,103.25605173525764L296.8505123568416,102.78655266370697L296.5189873417721,101.8475298682788L296.18746232670264,99.49982905452998L295.8559373116336,98.09110992603746L295.1928872814947,96.21270265030762L294.5298372513562,95.743080274151L294.5298372513562,94.80381085013505L294.19831223628717,94.80381085013505L294.19831223628717,92.92517330325063L293.86678722121724,90.1069701840679L293.86678722121724,89.63724086546063L293.86678722121724,89.16750331749427L294.86136226642566,88.22800353177081L295.1928872814947,87.75824129312969L295.8559373116336,87.75824129312969L296.8505123568416,87.75824129312969L297.1820373719106,87.75824129312969L297.5135623869801,87.75824129312969L297.5135623869801,87.28847082341963L298.50813743218805,85.87911002342662L299.17118746232654,84.46967512811898L300.49728752260353,83.9998470287137L302.15491259795044,83.53001069475795L302.48643761301946,83.53001069475795L303.1494876431584,83.06016612582971L303.4810126582279,82.59031332151426L303.81253767329736,82.12045228134593L304.1440626883664,80.7108197415364L304.47558770343585,80.7108197415364L305.13863773357434,81.18070549179902L307.1277878239903,83.53001069475795L309.1169379144062,85.87911002342662L309.4484629294752,86.34890518898828L309.7799879445447,86.34890518898828L311.7691380349611,87.28847082341963L312.4321880650996,88.22800353177081L312.7637130801686,88.69775753975046L312.7637130801686,88.69775753975046L314.75286317058453,89.16750331749427L315.7474382157925,89.16750331749427L316.74201326100047,89.16750331749427L317.07353827606994,89.16750331749427L317.73658830620843,89.16750331749427L318.06811332127745,89.16750331749427L319.0626883664854,88.69775753975046L322.0464135021098,87.75824129312969L323.37251356238676,87.28847082341963L325.3616636528027,86.34890518898828L327.01928872814915,85.40930662505343L328.67691380349606,83.06016612582971L328.67691380349606,83.06016612582971L328.67691380349606,82.59031332151426L330.0030138637735,83.53001069475795L330.3345388788425,84.46967512811898L331.99216395418944,86.34890518898828L334.64436407474386,88.22800353177081L335.63893911995183,89.63724086546063L336.9650391802288,90.1069701840679L337.62808921036776,90.57669127373447L338.29113924050625,91.51610876800987L338.95418927064475,91.98580517348819L338.95418927064475,92.4554933517611L339.2857142857142,92.92517330325063L339.2857142857142,93.86450852764756L339.6172393007837,94.80381085013505L339.6172393007837,95.2734496742305L340.9433393610607,98.09110992603746L341.93791440626865,100.90847420025239L341.6063893911996,102.78655266370697L340.9433393610607,103.7255425899566L339.6172393007837,106.07287362560237L338.95418927064475,107.01174853690463L338.95418927064475,107.48117367221857L339.6172393007837,107.48117367221857L342.2694394213381,108.4199993043112L344.5901145268231,109.82817616259126L346.24773960217,110.29755202644446L347.90536467751645,110.7669196798779L349.5629897528629,111.2362791233536L350.55756479807087,110.7669196798779L351.2206148282098,110.29755202644446L352.2151898734178,109.82817616259126L354.20433996383326,110.29755202644446L355.19891500904123,110.7669196798779L355.8619650391802,111.2362791233536L357.18806509945716,111.70563035727537L358.18264014466513,112.17497338209068L358.18264014466513,112.17497338209068L358.5141651597346,112.17497338209068L360.1717902350815,110.7669196798779L360.83484026522,110.29755202644446L361.1663652802895,110.29755202644446L361.829415310428,110.29755202644446L363.48704038577443,110.7669196798779L363.48704038577443,111.2362791233536L363.8185654008439,111.2362791233536L364.4816154309824,113.11363480609361L364.8131404460514,114.52156538449708L365.47619047619037,114.99085916365584L366.47076552139833,115.46014473671676L366.47076552139833,115.46014473671676L367.7968655816753,115.92942210410183L368.12839059674525,115.92942210410183L368.4599156118138,115.92942210410183L370.7805907172997,114.99085916365584L373.1012658227846,114.52156538449708L376.084990958409,114.05226339880028L377.07956600361695,114.05226339880028L379.0687160940324,114.05226339880028L379.4002411091019,114.05226339880028L379.4002411091019,113.58295320614707L379.4002411091019,112.17497338209068L380.0632911392404,109.82817616259126L380.0632911392404,109.35879208789993L380.39481615430986,108.4199993043112L380.0632911392404,107.01174853690463L379.0687160940324,105.13396585719238L378.7371910789634,104.1950252282295L379.0687160940324,103.25605173525764L379.4002411091019,103.25605173525764L379.4002411091019,102.78655266370697L379.4002411091019,102.78655266370697L379.4002411091019,101.8475298682788L379.0687160940324,100.43893403793481L378.07414104882446,99.03026423257324L377.74261603375544,98.56069118988307L377.07956600361695,97.62152044057802L377.07956600361695,97.15192273309003L377.07956600361695,96.21270265030762L377.74261603375544,96.21270265030762L378.40566606389393,96.21270265030762L379.0687160940324,95.743080274151L379.4002411091019,95.743080274151L380.7263411693789,94.33416380141352L381.72091621458685,93.39484502840787L382.3839662447258,92.92517330325063L383.3785412899333,92.4554933517611L384.7046413502112,91.98580517348819L386.0307414104882,91.04640413491143L386.36226642555766,90.1069701840679L387.02531645569616,89.16750331749427L387.02531645569616,89.16750331749427L387.35684147076563,89.16750331749427L388.3514165159736,90.1069701840679L389.34599156118156,91.04640413491143L389.6775165762506,91.04640413491143L390.00904159132006,91.04640413491143L390.3405666063891,91.04640413491143L391.003616636528,91.51610876800987L391.33514165159704,91.98580517348819L392.329716696805,93.39484502840787L392.329716696805,93.39484502840787L393.65581675708245,93.86450852764756L394.3188667872214,93.86450852764756L396.30801687763733,93.86450852764756L396.63954189270635,93.86450852764756L398.96021699819175,92.92517330325063L400.28631705846874,92.4554933517611L401.94394213381565,91.51610876800987L404.2646172393006,90.1069701840679L404.2646172393006,88.69775753975046L404.5961422543701,87.28847082341963L404.92766726943955,86.81869212218953L405.2591922845086,86.34890518898828L405.92224231464706,85.87911002342662L407.2483423749245,85.40930662505343L407.911392405063,83.9998470287137L408.90596745027096,82.59031332151426L408.90596745027096,82.59031332151426L409.23749246534044,82.59031332151426L410.2320675105484,83.06016612582971L411.22664255575637,83.53001069475795L411.88969258589486,83.9998470287137L413.2157926461723,84.46967512811898L413.8788426763108,84.46967512811898L414.5418927064493,84.46967512811898L415.20494273658824,84.46967512811898L415.53646775165726,84.46967512811898L415.86799276672673,83.9998470287137L416.8625678119347,83.53001069475795L417.85714285714266,83.53001069475795L418.85171790235063,83.53001069475795L422.16696805304355,83.06016612582971L422.8300180831825,83.9998470287137L424.48764315852895,85.87911002342662L425.4822182037374,87.28847082341963L425.8137432188064,88.22800353177081L426.80831826401436,89.16750331749427L426.4767932489449,89.63724086546063L426.4767932489449,90.1069701840679L426.14526823387587,90.57669127373447L425.8137432188064,91.04640413491143L425.8137432188064,91.04640413491143L425.8137432188064,91.98580517348819L425.8137432188064,92.4554933517611L426.14526823387587,92.92517330325063L427.47136829415285,94.80381085013505L428.4659433393608,96.21270265030762L428.7974683544303,96.21270265030762L428.7974683544303,96.21270265030762L429.4605183845688,96.68231680315148L429.79204339963826,97.62152044057802L431.78119349005374,99.96938565616438L432.1127185051232,101.37800614356092L432.1127185051232,102.78655266370697L432.1127185051232,103.7255425899566L431.78119349005374,104.66449965049105L432.1127185051232,105.13396585719238L432.4442435201927,105.60342384875548L432.7757685352617,105.60342384875548L434.4333936106086,106.5423151881696L436.42254370102455,106.5423151881696L437.08559373116304,106.5423151881696L437.4171187462325,106.5423151881696L437.748643761302,107.48117367221857L437.748643761302,107.95059059453706L437.748643761302,110.7669196798779L438.080168776371,112.64430819821064L438.080168776371,112.64430819821064L438.080168776371,113.11363480609361L438.080168776371,113.11363480609361L438.080168776371,113.58295320614707L437.748643761302,113.58295320614707L437.748643761302,114.52156538449708L436.754068716094,115.46014473671676L437.4171187462325,116.39869126623671L438.4116937914405,117.33720497650211L438.74321880650996,117.80644952549483L439.73779385171747,119.21413395303898L440.06931886678694,119.68334569051149L440.06931886678694,120.62174456044886L440.06931886678694,120.62174456044886L440.06931886678694,120.62174456044886L439.40626883664845,120.62174456044886L439.074743821579,121.09093169380503L438.74321880650996,121.09093169380503L438.4116937914405,121.56011062662219L438.4116937914405,121.56011062662219L438.080168776371,124.37501203677675L438.74321880650996,125.78235206965473L439.074743821579,126.25144902094326L439.40626883664845,126.72053777642213L439.40626883664845,126.72053777642213L440.4008438818564,129.53489822173287L441.0638939119949,130.47295282327832L442.05846895720333,130.94196783594816L443.0530440024113,130.47295282327832L444.04761904761926,130.00392961869147L445.37371910789625,130.47295282327832L447.6943942133812,130.47295282327832L449.02049427365864,130.47295282327832L451.34116937914405,130.47295282327832L453.66184448462946,130.47295282327832L453.9933694996985,130.47295282327832L454.6564195298374,130.47295282327832L455.9825195901144,130.47295282327832L456.6455696202529,130.47295282327832L456.6455696202529,130.00392961869147L456.9770946353224,130.00392961869147L456.9770946353224,130.00392961869147L457.64014466546087,130.00392961869147L458.63471971066883,130.00392961869147L459.9608197709463,130.94196783594816L460.95539481615424,131.41097465710118L461.2869198312237,131.8799732871994L462.2814948764317,131.8799732871994L462.9445449065702,132.34896372664662L464.2706449668476,132.34896372664662L464.2706449668476,132.81794597587214L464.60216998191663,133.28692003532706L464.9336949969861,133.75588590542247L464.9336949969861,134.22484358657675L465.2652200120556,136.10059243051364L465.9282700421941,137.03841773007298L466.59132007233256,138.4450942860276L466.59132007233256,138.91397010148285L466.92284508740204,141.72705314080667L466.2597950572631,142.19587167577265L465.2652200120556,142.6646820295391L464.60216998191663,142.6646820295391L463.93911995177814,142.6646820295391L462.9445449065702,143.13348420252078L462.6130198915007,144.07106400782868L462.6130198915007,145.00861109514153L462.6130198915007,145.4773723706203L462.6130198915007,145.4773723706203L464.2706449668476,145.9461254678754L465.9282700421941,146.88360712946087L466.2597950572631,147.3523356946498L466.2597950572631,147.3523356946498L466.2597950572631,147.82105608333222L466.2597950572631,148.28976829593012L466.59132007233256,150.16453539416398L467.25437010247106,150.6332067328076L468.5804701627485,152.03917170942805L469.90657022302594,152.97644083199702L470.23809523809496,152.97644083199702L470.9011452682339,153.44506313602687L470.9011452682339,153.91367726911267L471.5641952983724,158.13083684505546L471.5641952983724,159.0678935731994L469.57504520795646,163.28424469158563L469.57504520795646,164.22112181419652L468.91199517781797,165.15796629236138L467.58589511754053,167.0315573290245L466.92284508740204,167.96830389436218L465.5967450271246,168.90501782890715L464.9336949969861,169.84169913609003L465.2652200120556,170.31002755547524L465.9282700421941,170.31002755547524L466.92284508740204,169.84169913609003L467.25437010247106,169.3733625606983L467.25437010247106,169.3733625606983L467.58589511754053,169.3733625606983L467.91742013261,169.3733625606983L468.5804701627485,169.3733625606983L468.91199517781797,169.84169913609003L469.243520192887,169.84169913609003L469.90657022302594,170.77834781931233L470.23809523809496,171.71496388199375L470.23809523809496,172.65154732756855L469.90657022302594,172.65154732756855L469.243520192887,172.65154732756855L467.91742013261,173.11982681998052L467.25437010247106,174.99286326392394L466.59132007233256,175.92933257641926L466.2597950572631,176.8657692871384L465.9282700421941,176.8657692871384L466.59132007233256,177.80217339949013L467.25437010247106,178.73854491690145L466.92284508740204,179.20671845355537L466.92284508740204,181.5474639335007L466.59132007233256,183.41991369897733L466.59132007233256,183.8880057802271L466.59132007233256,184.3560897182797L466.92284508740204,184.3560897182797L467.25437010247106,184.3560897182797L467.25437010247106,184.82416551354618L467.25437010247106,184.3560897182797L467.58589511754053,184.82416551354618L468.248945147679,184.82416551354618L469.243520192887,185.29223316647767L470.56962025316443,185.760292677478L471.89572031344187,186.22834404699097L472.2272453285109,186.22834404699097L472.89029535864984,185.760292677478L473.55334538878833,185.760292677478L473.55334538878833,185.760292677478L474.2163954189268,185.760292677478L474.5479204339963,186.22834404699097L475.2109704641348,186.69638727543497L475.8740204942733,187.63244931081135L476.20554550934276,188.56847878701592L476.86859553948125,190.44044007554476L477.8631705846892,191.3763718946866L478.8577456298972,191.84432559945344L480.5153707052441,192.31227116826994L483.830620855937,191.3763718946866L483.1675708257985,192.78020860155084L483.1675708257985,194.1839720923963L484.1621458710065,196.5234152394696L484.1621458710065,196.99127947205852L484.825195901145,197.92698354380627L485.4882459312839,198.39482338382368L486.48282097649144,198.39482338382368L488.14044605183835,199.79829412549952L489.46654611211534,200.73390064225532L490.7926461723928,201.2016917085857L493.1133212778782,202.137249459327L493.44484629294766,202.6050161445528L495.43399638336314,204.94372768648464L495.7655213984326,205.41144562099726L497.0916214587096,205.87915543186318L498.74924653405697,206.3468571195299L500.4068716094034,206.8145506844121L501.4014466546114,207.2822361269209L502.0644966847499,207.7499134475038L502.3960216998189,208.68524372454704L503.05907172995785,209.15289668185505L503.72212176009634,209.62054151893608L504.7166968053043,210.55580683407243L505.7112718505123,210.55580683407243L507.03737191078926,210.55580683407243L507.3688969258592,210.08817823620848L508.0319469559977,210.08817823620848L508.6949969861357,210.08817823620848L508.6949969861357,210.08817823620848L509.68957203134414,210.55580683407243L510.6841470765521,211.4910396733576L510.6841470765521,211.4910396733576L510.6841470765521,211.4910396733576L511.0156720916216,211.4910396733576L511.0156720916216,211.4910396733576L512.673297166968,211.4910396733576L514.6624472573835,211.4910396733576L515.9885473176614,211.4910396733576L517.3146473779384,211.4910396733576L517.6461723930079,211.4910396733576L517.6461723930079,211.95864391559735L517.9776974080773,211.95864391559735L518.3092224231464,212.89382804745765L518.6407474382158,213.3614079378931L519.3037974683543,213.3614079378931L520.2983725135623,212.89382804745765L520.6298975286318,212.89382804745765L520.6298975286318,212.89382804745765L520.9614225437008,212.89382804745765L523.2820976491862,210.55580683407243L523.6136226642552,210.08817823620848L524.6081977094636,208.21758264657183L524.9397227245327,207.2822361269209L525.6027727546716,205.87915543186318L526.5973477998796,204.47600162791423L526.9288728149486,204.47600162791423L527.5919228450875,204.94372768648464L530.244122965642,205.87915543186318L531.570223025919,206.8145506844121L533.8908981314044,207.7499134475038L534.8854731766123,208.68524372454704L536.8746232670283,210.08817823620848L539.1952983725137,211.95864391559735L539.8583484026522,212.42624004016034L539.8583484026522,212.42624004016034L540.1898734177212,212.42624004016034L541.5159734779986,212.42624004016034L542.1790235081371,212.42624004016034L544.168173598553,212.42624004016034L545.4942736588305,212.89382804745765L547.1518987341769,213.82897971191414L548.8095238095234,214.2965433699501L550.1356238698008,214.2965433699501L551.1301989150088,215.23164633972192L551.7932489451473,216.1667168506101L552.1247739602168,218.9717336638132L552.4562989752862,220.84158264035796L555.1084990958407,222.24388422008997L556.4345991561177,223.17871139738418L557.0976491862566,224.11350614462572L556.1030741410486,225.9829983624295L555.4400241109097,228.31968127591244L553.7823990355632,231.1234333824068L552.7878239903553,234.3941089485379L552.1247739602168,235.32851479915553L551.4617239300783,236.26288826373275L550.7986738999393,236.7300628523044L549.8040988547318,237.66438774414564L549.4725738396623,238.13153804827016L549.4725738396623,238.59868025840115L549.4725738396623,239.065814374997L549.8040988547318,239.5329403984615L550.4671488848703,240.00005832920942L550.7986738999393,240.46716816768094L551.7932489451473,240.93426991429806L551.7932489451473,240.93426991429806L554.1139240506327,242.80259599057536L555.7715491259792,244.67079263088453L556.4345991561177,247.00585645315005L556.1030741410486,248.40679771175564L556.1030741410486,248.87376196137484L556.1030741410486,248.87376196137484L556.7661241711871,250.27460620637066L557.0976491862566,250.27460620637066L557.4291742013256,250.74153812148143L557.4291742013256,250.74153812148143L557.7606992163956,251.20846195403283L557.7606992163956,252.1422853731092L557.7606992163956,253.0760764669758L557.7606992163956,254.4767025053843L557.4291742013256,254.94356169257662L556.7661241711871,254.94356169257662L556.7661241711871,254.94356169257662L556.7661241711871,254.94356169257662L556.4345991561177,255.87725583105566L556.7661241711871,256.3440907831864L556.7661241711871,257.27773645535854L557.0976491862566,258.21134982089643L557.7606992163956,258.6781443897089L557.4291742013256,260.07847964547545L557.4291742013256,261.4787422340414L557.4291742013256,261.9454802839209L557.4291742013256,261.9454802839209L557.7606992163956,262.4122102613619L558.423749246534,263.8123517632157L559.418324291742,265.67909411031724L559.749849306811,266.61241686771245L560.41289933695,267.5457073521684L562.0705244122964,270.34538520160277L563.0650994575044,271.74511524492846L563.3966244725734,271.74511524492846L563.3966244725734,271.74511524492846L565.3857745629894,272.6782282884269L566.7118746232668,273.1447727158302L568.3694996986137,273.6113090808867L568.7010247136827,273.6113090808867L569.6955997588907,274.07783738401486L571.0216998191681,274.07783738401486L571.3532248342372,274.5443576256548L571.3532248342372,274.5443576256548L571.3532248342372,275.0108698062031L571.6847498493066,275.47737392610725L571.3532248342372,275.943869985771L571.6847498493066,278.27622939521825L572.3477998794451,279.67554834494877L573.0108499095836,281.074794786593L573.673899939723,282.94034393807306L574.6684749849301,285.27209917655637L574.6684749849301,285.27209917655637L574.6684749849301,285.27209917655637L575,288.5362183629586L575,289.00248890663715L575,289.46875140225166L575,289.46875140225166L573.0108499095836,289.9350058502496L570.0271247739602,289.9350058502496L569.3640747438212,289.9350058502496L569.3640747438212,289.9350058502496L568.7010247136827,289.46875140225166L565.7172995780593,288.5362183629586L563.7281494876429,287.13735843943505L563.0650994575044,286.67105569935666L562.4020494273655,286.2047449091406L562.0705244122964,285.7384260683357L562.0705244122964,285.7384260683357L561.4074743821575,285.27209917655637L560.744424352019,285.27209917655637L559.749849306811,284.80576423335515L558.423749246534,284.80576423335515L556.7661241711871,284.80576423335515L553.7823990355632,285.7384260683357L551.1301989150088,286.67105569935666L550.1356238698008,285.7384260683357L549.4725738396623,285.27209917655637L549.1410488245929,284.80576423335515L548.4779987944544,284.80576423335515L548.1464737793849,285.27209917655637L548.1464737793849,285.27209917655637L546.8203737191079,285.27209917655637L544.831223628692,286.2047449091406L542.842073538276,288.0699397708122L540.8529234478601,289.9350058502496L540.1898734177212,290.86749060501097L539.1952983725137,291.3337209126257L538.5322483423747,291.3337209126257L538.2007233273057,291.3337209126257L537.8691983122362,290.86749060501097L537.8691983122362,290.86749060501097L537.5376732971667,290.86749060501097L537.2061482820977,290.86749060501097L537.2061482820977,290.86749060501097L536.8746232670283,290.86749060501097L536.5430982519588,291.79994317429737L536.2115732368898,292.26615739043336L535.8800482218203,292.73236356144844L535.5485232067508,293.66475176984386L535.5485232067508,294.1309338080355L535.5485232067508,294.59710780280875L535.5485232067508,295.0632737545675L535.5485232067508,295.52943166371915L535.8800482218203,296.4617233559293L535.8800482218203,297.393982882797L536.2115732368898,297.8601005852797L536.2115732368898,297.8601005852797L535.5485232067508,298.3262102476838L535.5485232067508,298.3262102476838L534.5539481615428,298.79231187041296L533.8908981314044,299.72449099860387L533.2278481012659,299.72449099860387L533.2278481012659,300.1905685048805L532.5647980711269,301.12269940391343L532.5647980711269,301.5887527975101L532.2332730560579,301.5887527975101L532.2332730560579,301.5887527975101L530.9071729957805,302.0547981543714L530.575647980711,302.5208354749375L528.9180229053645,302.5208354749375L527.9234478601566,302.0547981543714L525.6027727546716,301.5887527975101L523.2820976491862,300.6566379731812L522.6190476190473,299.72449099860387L521.9559975889088,299.2584054539184L521.6244725738397,299.2584054539184L521.6244725738397,299.2584054539184L519.6353224834238,300.6566379731812L518.9722724532853,300.6566379731812L518.9722724532853,301.12269940391343L518.9722724532853,302.0547981543714L518.3092224231464,302.5208354749375L516.9831223628694,305.31689065938554L515.6570223025915,306.71480979541957L513.667872212176,309.0445143854413L512.3417721518986,310.44224077585386L510.6841470765521,312.30576356230813L509.02652200120565,313.2374767913134L506.70584689572024,314.1691579153012L505.0482218203733,314.1691579153012L503.72212176009634,314.1691579153012L502.3960216998189,314.1691579153012L501.0699216395419,316.4982202878018L500.73839662447244,317.8955614280567L501.0699216395419,319.29283036967536L501.0699216395419,319.758570641352L501.0699216395419,320.2243028926423L500.73839662447244,320.6900271239392L498.74924653405697,322.0871517021624L497.42314647377907,323.01852799541666L497.0916214587096,323.01852799541666L496.4285714285711,323.01852799541666L496.0970464135021,323.01852799541666L494.77094635322464,323.01852799541666L494.10789632308615,322.55284385773484L492.4502712477397,323.01852799541666L490.7926461723928,323.01852799541666L489.7980711271848,323.4842041156189L488.14044605183835,324.4155323052837L486.8143459915609,326.27809249335405L486.48282097649144,326.27809249335405L486.1512959614224,326.7437125029501L485.81977094635295,326.7437125029501L485.4882459312839,326.27809249335405L485.15672091621445,326.27809249335405L484.825195901145,325.34682843007613L484.825195901145,325.34682843007613L483.499095840868,325.34682843007613L483.1675708257985,325.34682843007613L483.1675708257985,325.34682843007613L482.17299578059055,326.7437125029501L481.8414707655211,327.20932449843167L481.8414707655211,328.6061124042644L481.1784207353826,330.00282819795393L480.5153707052441,330.93393200371065L480.5153707052441,330.93393200371065L480.1838456901746,330.93393200371065L479.85232067510515,330.46838410622877L479.85232067510515,330.46838410622877L478.52622061482816,329.5372642784896L477.8631705846892,329.5372642784896L477.2001205545507,329.5372642784896L476.53707052441223,330.46838410622877L476.20554550934276,330.93393200371065L476.20554550934276,330.93393200371065L476.20554550934276,331.3994718908107L475.8740204942733,331.3994718908107L475.54249547920426,331.86500376796903L474.5479204339963,332.33052763558953L473.8848704038578,332.33052763558953L472.89029535864984,332.7960434940833L472.2272453285109,332.7960434940833L472.2272453285109,333.2615513438868L472.2272453285109,334.1925430190422L472.89029535864984,335.1235026644099L473.55334538878833,336.0544302833114L473.8848704038578,336.0544302833114L473.8848704038578,336.5198820838923L473.8848704038578,338.3816092367415L473.55334538878833,338.8470210146661L472.89029535864984,339.3124247893247L472.89029535864984,339.3124247893247L471.2326702833029,339.77782056110664L468.248945147679,340.70858809777565L467.91742013261,340.70858809777565L467.25437010247106,341.17395986349584L466.92284508740204,341.63932362802007L466.59132007233256,342.57002715515046L466.2597950572631,342.57002715515046L466.2597950572631,343.5006986825065L466.2597950572631,343.5006986825065L466.59132007233256,343.9660224473082L466.59132007233256,344.4313382134278L466.59132007233256,344.4313382134278L466.2597950572631,344.8966459812764L466.2597950572631,345.3619457512541L465.9282700421941,345.82723752380116L464.60216998191663,346.292521299325L464.2706449668476,346.7577970782222L463.93911995177814,348.1535764394648L463.93911995177814,348.1535764394648L462.6130198915007,349.084056038213L462.2814948764317,349.084056038213L461.61844484629273,349.5492838462269L460.95539481615424,349.5492838462269L460.62386980108477,349.5492838462269L458.30319469559936,350.47971548156784L456.6455696202529,351.87530298918136L454.98794454490644,353.7359744520363L454.32489451476795,354.2011223418558L453.66184448462946,354.66626224212814L453.33031946956,354.66626224212814L452.00421940928254,355.13139415329715L451.34116937914405,355.5965180757703L450.67811934900556,355.5965180757703L450.0150693188666,355.5965180757703L450.0150693188666,355.13139415329715L449.02049427365864,355.13139415329715L447.6943942133812,354.66626224212814L447.0313441832427,354.66626224212814L444.71066907775776,354.66626224212814L444.3791440626883,354.66626224212814L444.04761904761926,354.66626224212814L443.3845690174803,354.2011223418558L443.7160940325498,354.66626224212814L443.7160940325498,355.5965180757703L444.04761904761926,357.92201787220256L443.7160940325498,360.24731801359303L443.3845690174803,362.1074144100021L443.3845690174803,363.50240289003705L443.0530440024113,364.4323553033064L442.7215189873418,364.4323553033064L442.05846895720333,365.3622757950434L441.39541892706484,365.8272240713886L441.39541892706484,366.29216436860224L440.73236889692544,368.15184577437685L440.73236889692544,368.15184577437685L441.0638939119949,369.081638613261L441.0638939119949,369.54652306816206L441.0638939119949,370.47626805093387L441.0638939119949,370.941128579645L440.4008438818564,371.4059811337793L440.06931886678694,371.87082571377687L439.73779385171747,373.26531161300227L439.40626883664845,373.7301243005386L439.074743821579,373.7301243005386L438.4116937914405,374.19492901600825L438.080168776371,374.65972575980777L435.4279686558166,376.0540681654238L434.4333936106086,376.9835899184727L433.77034358046967,377.9130797948419L432.1127185051232,378.84253779786013L431.4496684749847,379.3072548478849L431.4496684749847,379.3072548478849L430.7866184448462,380.23666504707944L430.7866184448462,380.23666504707944L430.7866184448462,381.6307205999037L430.7866184448462,381.6307205999037L430.45509342977675,382.5600511426346L430.1235684147073,383.0247044675125L429.4605183845688,383.953987226334L429.79204339963826,386.27705477903146L429.4605183845688,388.1353655228886L429.1289933694993,389.9935489192176L429.1289933694993,391.8516049945247L429.1289933694993,392.78058529507325L429.1289933694993,393.2450635125133L428.7974683544303,394.17399608383494L427.8028933092223,395.102896839795L427.8028933092223,395.56733528806217L427.47136829415285,396.49618832720444L427.8028933092223,396.96060291890535L427.8028933092223,397.4250095592688L427.8028933092223,397.8894082486768L427.47136829415285,398.35379898756946L427.13984327908383,398.35379898756946L426.4767932489449,398.35379898756946L426.14526823387587,398.35379898756946L424.48764315852895,398.35379898756946L422.498493068113,398.35379898756946L420.5093429776971,398.8181817763507L419.5147679324891,398.8181817763507L418.85171790235063,398.35379898756946L418.18866787221214,397.8894082486768L417.52561784207364,397.8894082486768L416.8625678119347,397.4250095592688L415.53646775165726,398.35379898756946L413.5473176612413,398.8181817763507L413.2157926461723,398.8181817763507L412.88426763110283,398.8181817763507L412.5527426160338,398.8181817763507L412.22121760096434,398.8181817763507L411.88969258589486,398.8181817763507L410.8951175406869,398.35379898756946L408.90596745027096,397.8894082486768L407.2483423749245,398.35379898756946L404.92766726943955,398.8181817763507L404.2646172393006,398.8181817763507L403.27004219409264,398.8181817763507L401.6124171187462,398.8181817763507L399.2917420132608,398.35379898756946L399.2917420132608,398.35379898756946L397.9656419529838,397.8894082486768L397.9656419529838,397.4250095592688L397.30259192284484,396.96060291890535L397.30259192284484,396.49618832720444L397.30259192284484,396.49618832720444L396.30801687763733,396.0317657837186L395.6449668474984,396.0317657837186L395.31344183242936,396.0317657837186L394.6503918022904,396.0317657837186L394.3188667872214,396.49618832720444L393.9873417721519,396.96060291890535L393.65581675708245,396.96060291890535L392.6612417118745,397.4250095592688L392.329716696805,397.8894082486768L391.6666666666665,397.8894082486768L390.67209162145855,397.8894082486768L390.3405666063891,397.8894082486768L390.00904159132006,397.8894082486768L388.6829415310426,397.4250095592688L388.0198915009041,396.96060291890535L387.68836648583465,396.96060291890535L387.68836648583465,396.96060291890535L386.36226642555766,396.49618832720444L386.0307414104882,396.49618832720444L385.69921639541917,396.49618832720444L385.03616636527977,396.49618832720444L384.3731163351413,396.96060291890535L384.04159132007226,397.4250095592688L383.3785412899333,397.4250095592688L382.7154912597948,396.96060291890535L381.72091621458685,396.49618832720444L380.7263411693789,396.0317657837186L380.0632911392404,395.56733528806217L377.74261603375544,395.102896839795L377.41109101868597,395.102896839795L377.41109101868597,395.102896839795L376.7480409885475,395.56733528806217L376.084990958409,396.0317657837186L375.4219409282696,396.49618832720444L375.09041591320056,396.49618832720444L374.7588908981311,396.49618832720444L373.7643158529231,396.49618832720444L373.1012658227846,396.0317657837186L372.10669077757666,394.63845043852416L372.10669077757666,394.63845043852416L372.10669077757666,394.17399608383494L371.44364074743817,391.38710291059033L370.1175406871607,389.5290150075198L369.7860156720917,389.5290150075198L368.12839059674525,389.5290150075198L366.80229053646735,389.5290150075198L365.8077154912594,389.5290150075198L365.47619047619037,389.5290150075198L365.1446654611209,389.0644731378379L364.4816154309824,387.6707997767844L362.82399035563594,386.27705477903146L362.160940325497,385.8124571919034L361.4978902953585,386.27705477903146L361.4978902953585,387.20622607105906L361.1663652802895,387.20622607105906L360.83484026522,387.6707997767844L358.5141651597346,388.5999233097609L358.18264014466513,388.5999233097609L357.51959011452664,388.5999233097609L357.18806509945716,388.5999233097609L355.19891500904123,387.6707997767844L354.53586497890274,387.6707997767844L354.53586497890274,387.20622607105906L354.20433996383326,387.20622607105906L352.8782399035563,384.418616661118L352.8782399035563,383.953987226334L353.20976491862575,383.0247044675125L353.20976491862575,382.5600511426346L353.20976491862575,382.09538985356994L352.5467148884868,381.1660433811994L351.55213984327884,379.7719639308234L350.22603978300185,377.9130797948419L350.22603978300185,376.5188330267483L350.22603978300185,376.5188330267483L345.9162145871005,374.19492901600825L345.58468957203104,374.19492901600825L345.58468957203104,374.19492901600825L345.58468957203104,373.7301243005386L344.25858951175405,371.87082571377687L342.9324894514766,370.0113995472384L342.2694394213381,370.0113995472384L341.27486437613015,369.54652306816206L340.61181434599166,369.081638613261L340.61181434599166,368.6167461821351L340.2802893309222,367.68693738956426L339.2857142857142,365.8272240713886L338.95418927064475,364.4323553033064L337.9596142254368,363.50240289003705L337.9596142254368,363.50240289003705L337.62808921036776,363.50240289003705L336.9650391802288,363.0374147117873L336.6335141651598,363.0374147117873L336.3019891500903,363.0374147117873L334.3128390596744,364.8973195391627L332.9867389993974,366.7570966870808L331.99216395418944,367.2220210272644L330.99758890898147,367.68693738956426L329.00843881856554,368.15184577437685L328.67691380349606,368.6167461821351L328.01386377335757,369.081638613261L328.3453887884266,369.54652306816206L330.0030138637735,371.4059811337793L330.3345388788425,371.87082571377687L330.99758890898147,371.87082571377687L331.99216395418944,372.3356623200234L333.3182640144664,374.65972575980777L332.9867389993974,375.58929533411356L331.99216395418944,377.4483388410408L330.99758890898147,378.84253779786013L330.99758890898147,379.3072548478849L330.99758890898147,380.23666504707944L330.99758890898147,381.1660433811994L330.99758890898147,382.09538985356994L330.666063893912,383.0247044675125L330.666063893912,383.4893498286074L330.3345388788425,385.3478516434843L330.3345388788425,386.7416444052724L328.67691380349606,387.20622607105906L327.3508137432186,388.1353655228886L326.35623869801066,388.5999233097609L326.0247136829412,389.0644731378379L326.0247136829412,389.5290150075198L326.35623869801066,389.5290150075198L326.35623869801066,390.45807487335696L326.35623869801066,390.45807487335696L326.0247136829412,390.45807487335696L323.70403857745623,389.9935489192176L321.7148884870403,389.0644731378379L321.0518384569018,388.5999233097609L320.72031344183233,388.1353655228886L319.39421338155535,386.7416444052724L318.06811332127745,386.27705477903146L316.74201326100047,385.3478516434843L316.078963230862,384.418616661118L315.084388185654,382.5600511426346L315.084388185654,382.5600511426346L314.4213381555155,383.4893498286074L308.78541289933673,386.27705477903146L306.7962628089208,387.6707997767844L306.7962628089208,389.0644731378379L306.4647377938518,389.5290150075198L305.80168776371283,389.5290150075198L305.13863773357434,389.5290150075198L304.1440626883664,389.5290150075198L303.1494876431584,389.5290150075198L300.828812537673,389.5290150075198L300.49728752260353,389.5290150075198L299.83423749246504,389.5290150075198L296.8505123568416,389.9935489192176L296.5189873417721,389.9935489192176L295.8559373116336,390.45807487335696L295.52441229656415,390.45807487335696L295.52441229656415,390.45807487335696L295.1928872814947,390.92259287034904L295.8559373116336,391.38710291059033L296.5189873417721,392.78058529507325L296.8505123568416,394.17399608383494L296.8505123568416,396.0317657837186L297.5135623869801,397.8894082486768L297.5135623869801,397.8894082486768L297.5135623869801,397.8894082486768L297.8450874020491,397.8894082486768L297.8450874020491,397.8894082486768L299.17118746232654,398.8181817763507L299.83423749246504,400.2112824461292L300.1657625075345,401.60431157977655L300.828812537673,403.9258678636361L302.15491259795044,406.7114732188311L303.4810126582279,408.56838459666324L304.1440626883664,410.42516891820196L304.47558770343585,411.81767379453595L304.47558770343585,412.74597068744697L304.80711271850487,414.13835649805696L305.13863773357434,414.13835649805696L305.13863773357434,414.6024692289102L304.80711271850487,414.6024692289102L304.80711271850487,415.06657402412384L304.1440626883664,415.06657402412384L303.81253767329736,415.99475980922944L303.81253767329736,415.99475980922944L302.8179626280894,419.24316014475335L301.1603375527425,421.09921440527614L300.1657625075345,422.9551417877992L300.49728752260353,424.81094231870884L298.83966244725707,426.202709486377L297.1820373719106,427.1305146374325L296.18746232670264,427.59440532598455L295.1928872814947,428.05828809043305L293.86678722121724,428.5221629311782L293.86678722121724,428.5221629311782L293.5352622061482,428.5221629311782L293.20373719107874,428.5221629311782L293.20373719107874,428.5221629311782L292.87221217600927,428.05828809043305L291.8776371308013,426.202709486377L291.5461121157323,424.81094231870884L290.88306208559334,423.4191038118406L290.22001205545484,422.0271939546474L289.55696202531635,421.09921440527614L288.2308619650389,419.24316014475335L286.57323688969245,416.9229138566807L285.5786618444845,415.06657402412384L284.5840867992765,413.6742358311312L283.921036769138,412.74597068744697L282.5949367088606,411.35351344110677L281.6003616636526,410.42516891820196L280.2742616033752,409.9609847479005L278.9481615430982,408.10416866477317L278.9481615430982,407.6399447914373L278.9481615430982,406.7114732188311L278.6166365280287,405.7829698755304L277.9535864978902,404.8544347582392L277.29053646775174,403.9258678636361L276.95901145268226,403.9258678636361L276.6274864376128,403.9258678636361L276.29596142254377,402.9972691884359L275.63291139240505,402.06863872932445L275.63291139240505,401.60431157977655L275.63291139240505,401.60431157977655L275.63291139240505,401.60431157977655L274.6383363471971,402.5329579320678L272.6491862567809,403.9258678636361L272.3176612417117,403.9258678636361L271.65461121157296,404.39015528330856L271.3230861965037,404.39015528330856L270.99156118143446,403.9258678636361L270.99156118143446,402.9972691884359L270.99156118143446,402.5329579320678L270.6600361663652,401.1399764829912L269.66546112115725,400.67563343857546L269.66546112115725,399.74692350520854L269.66546112115725,399.282556615417L269.66546112115725,396.0317657837186L269.66546112115725,394.63845043852416L269.66546112115725,392.31609912254135L269.333936106088,391.8516049945247L269.66546112115725,391.38710291059033L269.66546112115725,391.38710291059033L269.00241109101853,391.38710291059033L266.3502109704641,390.45807487335696L264.6925858951174,389.5290150075198L263.36648583484,389.0644731378379L263.03496081977073,389.0644731378379L262.37191078963224,388.5999233097609L261.7088607594935,388.5999233097609L261.045810729355,388.5999233097609L261.045810729355,388.5999233097609L260.05123568414706,388.5999233097609L260.05123568414706,388.5999233097609L259.7197106690778,388.5999233097609L259.38818565400834,388.1353655228886L259.0566606389391,388.1353655228886L257.7305605786619,386.7416444052724L257.3990355635922,385.8124571919034L257.0675105485234,385.3478516434843L256.4044605183842,385.3478516434843L256.0729355033152,384.88323813336683L255.74141048824572,384.88323813336683L254.41531042796873,384.88323813336683L254.08378541289926,384.88323813336683L253.7522603978298,384.88323813336683L253.42073538276077,385.3478516434843L253.0892103676913,385.8124571919034L252.09463532248333,386.27705477903146L251.10006027727536,386.27705477903146L250.43701024713687,385.3478516434843L248.77938517178995,384.418616661118L247.784810126582,383.953987226334L246.79023508137402,383.953987226334L246.458710066305,383.953987226334L245.79566003616605,383.953987226334L245.46413502109704,384.418616661118L245.13261000602756,384.418616661118L244.80108499095854,384.88323813336683L244.46955997588907,384.88323813336683L244.1380349608196,385.8124571919034L244.1380349608196,386.27705477903146L244.1380349608196,386.7416444052724L243.80650994575058,387.20622607105906L243.4749849306811,388.1353655228886L244.1380349608196,388.5999233097609L244.1380349608196,388.5999233097609L245.13261000602756,389.5290150075198L245.46413502109704,390.45807487335696L245.46413502109704,390.45807487335696L245.46413502109704,390.45807487335696L245.46413502109704,390.92259287034904L244.80108499095854,391.8516049945247L243.80650994575058,393.2450635125133L242.48040988547314,395.56733528806217L241.81735985533464,397.4250095592688L243.14345991561163,399.282556615417L243.14345991561163,399.282556615417L243.14345991561163,401.1399764829912L242.8119349005426,401.60431157977655L241.48583484026517,400.67563343857546L239.16515973477976,399.282556615417L238.50210970464127,398.8181817763507L238.50210970464127,397.4250095592688L238.50210970464127,396.96060291890535L237.5075346594333,396.0317657837186L237.5075346594333,396.0317657837186L237.17600964436383,396.0317657837186L236.8444846292948,396.49618832720444L236.51295961422534,396.96060291890535L236.51295961422534,397.4250095592688L234.5238095238094,399.282556615417L232.53465943339324,400.67563343857546L230.2139843279083,402.06863872932445L228.5563592525616,402.9972691884359L226.89873417721515,403.9258678636361L226.89873417721515,403.9258678636361L226.56720916214567,404.39015528330856L226.23568414707665,404.39015528330856L225.90415913200718,405.31870628883553L225.90415913200718,406.24722551871673L225.90415913200718,406.7114732188311L225.90415913200718,408.10416866477317L225.57263411693793,409.0325925875477L225.2411091018687,409.49679263782673L224.57805907172997,410.8893451491276L224.24653405666072,411.35351344110677L223.91500904159102,411.35351344110677L223.91500904159102,411.81767379453595L223.25195901145253,411.81767379453595L222.92043399638305,411.81767379453595L222.58890898131403,412.2818262098481L221.9258589511751,412.2818262098481L221.59433393610607,411.81767379453595L221.2628089210366,411.81767379453595L220.93128390596735,411.81767379453595L219.93670886075938,412.2818262098481L218.94213381555141,412.74597068744697L218.61060880048217,412.74597068744697L217.94755877034368,413.21010722772553L215.2953586497888,414.6024692289102L215.2953586497888,415.06657402412384L215.2953586497888,415.06657402412384L214.30078360458083,415.06657402412384L213.9692585895118,415.06657402412384L212.97468354430384,415.53067088409443L211.6485834840264,415.53067088409443L211.31705846895716,415.53067088409443L210.9855334538879,415.99475980922944L210.9855334538879,415.99475980922944L210.9855334538879,415.99475980922944L210.65400843881844,416.45884079995085L210.3224834237492,416.9229138566807L209.99095840867994,417.3869789798264L209.65943339361047,417.8510361697845L208.99638336347198,418.31508542698793L208.33333333333348,418.31508542698793L207.00723327305582,419.24316014475335L205.34960819770936,420.6352127359969L204.3550331525014,421.09921440527614L203.69198312236267,421.09921440527614L203.02893309222418,421.5632081446929L202.6974080771547,422.0271939546474L202.3658830620857,422.4911718355397L202.3658830620857,422.9551417877992L202.0343580470162,423.88305790805316L201.70283303194674,424.81094231870884L201.37130801687772,426.202709486377L201.03978300180825,426.66661602437307L200.70825798673923,427.1305146374325L199.71368294153126,429.44988884326085L198.7191078963233,431.7690649876495L198.3875828812536,432.69667999975354L198.3875828812536,434.0880431221267L198.3875828812536,434.5518149923482L197.39300783604563,437.3342799516722L197.06148282097638,438.72540556709646L197.06148282097638,439.189098276569L195.07233273056045,441.97108835779727L194.40928270042195,442.8983550897319L194.07775768535248,442.8983550897319L193.74623267028323,443.3619765897165L193.414707655214,443.3619765897165L193.0831826401445,443.82559017957465L192.7516576250755,443.82559017957465L192.42013261000602,444.2891958597502L192.08860759493632,445.21638349262867L192.08860759493632,446.14353949164797L191.42555756479783,447.0706638600859L191.42555756479783,447.53421418387006L191.09403254972835,447.9977566012494L190.76250753465933,448.46129111261325L190.09945750452107,448.92481771840175L189.76793248945137,448.92481771840175L189.4364074743819,449.3883364189933L189.10488245931288,449.3883364189933L188.44183242917393,448.92481771840175L187.77878239903544,448.92481771840175L187.11573236889694,448.92481771840175L186.45268233875822,448.92481771840175L186.12115732368898,448.92481771840175L185.7896323086195,448.92481771840175L185.7896323086195,449.8518472148353L185.7896323086195,450.3153501063025L186.12115732368898,451.24233217783694L186.45268233875822,452.6327460127213L185.7896323086195,454.0230887305661L184.79505726341176,455.41336034244887L184.13200723327304,455.87676841368375L184.13200723327304,455.87676841368375L183.8004822182038,456.8035608594837L183.4689572031341,457.26694523488914L183.4689572031341,457.7303217124936L183.4689572031341,457.7303217124936L184.13200723327304,459.1204037627067L184.4635322483423,459.5837486532728L184.79505726341176,459.5837486532728L185.126582278481,460.04708564809334L188.1103074141049,461.43704926225837L188.1103074141049,461.43704926225837L188.7733574442434,461.43704926225837L189.10488245931288,461.43704926225837L189.4364074743819,461.43704926225837L189.76793248945137,460.97373595217505L190.09945750452107,460.97373595217505L190.76250753465933,460.04708564809334L190.76250753465933,459.5837486532728L191.09403254972835,459.5837486532728L191.75708257986753,459.1204037627067L192.08860759493632,459.1204037627067L192.42013261000602,459.1204037627067L192.42013261000602,459.1204037627067L192.7516576250755,459.1204037627067L192.7516576250755,459.5837486532728L193.0831826401445,459.5837486532728L193.0831826401445,460.04708564809334L193.0831826401445,460.5104147475977L193.0831826401445,460.97373595217505L193.0831826401445,461.9003546782442L193.414707655214,462.3636522005363L193.414707655214,462.82694182956766L193.0831826401445,463.2902235657202L193.0831826401445,463.7534974094233L192.42013261000602,465.6065138678787L192.42013261000602,465.6065138678787L192.42013261000602,466.06974825545694L192.42013261000602,466.532974753045L193.0831826401445,466.9961933610357L193.74623267028323,467.9226069099168L193.74623267028323,468.3858018516039L193.74623267028323,468.84898890534896L193.74623267028323,469.31216807158125L193.414707655214,469.77533935066094L193.414707655214,469.77533935066094L193.0831826401445,470.2385027430282L192.7516576250755,470.2385027430282L192.42013261000602,470.2385027430282L192.08860759493632,470.2385027430282L191.42555756479783,470.2385027430282L190.76250753465933,470.7016582490942L190.43098251958986,470.7016582490942L189.76793248945137,470.7016582490942L189.4364074743819,471.16480586926264L189.10488245931288,471.16480586926264L189.10488245931288,471.62794560393377L189.10488245931288,472.09107745353685L189.10488245931288,472.09107745353685L189.10488245931288,472.55420141846844L189.4364074743819,473.01731749913233L190.09945750452107,474.40661843967973L190.43098251958986,474.86970298740926L190.43098251958986,475.33277965291563L190.09945750452107,475.7958484366318L189.4364074743819,477.18500750103703L189.10488245931288,478.1110741424636L189.10488245931288,478.1110741424636L189.10488245931288,478.574095643944L188.7733574442434,479.9631128764195L188.7733574442434,480.4261028646142L189.10488245931288,480.8890849754971L189.10488245931288,480.8890849754971L189.4364074743819,481.3520592094974L189.4364074743819,481.3520592094974L189.76793248945137,481.81502556701525L190.09945750452107,481.81502556701525L190.76250753465933,481.81502556701525L191.42555756479783,481.3520592094974L191.75708257986753,481.3520592094974L192.08860759493632,481.3520592094974L192.7516576250755,481.81502556701525L192.7516576250755,481.81502556701525L193.0831826401445,481.81502556701525L193.0831826401445,482.27798404844725L193.0831826401445,483.6668122404153L193.0831826401445,483.6668122404153L193.0831826401445,484.1297392216402L192.7516576250755,484.5926583288456L191.75708257986753,485.98136841036467L191.42555756479783,486.4442560255411L191.42555756479783,486.9071357687244L191.42555756479783,487.8328716407814L191.42555756479783,488.2957277704554L191.75708257986753,489.2214164191755L192.08860759493632,489.6842489390365L191.75708257986753,490.60989037177933L189.4364074743819,490.1470735897601L189.10488245931288,490.1470735897601L188.7733574442434,489.6842489390365L187.77878239903544,488.75857602978067L187.4472573839662,488.2957277704554L187.11573236889694,487.8328716407814L186.78420735382747,487.37000764033655L186.12115732368898,487.37000764033655L181.81133212778764,483.20387738474165L179.49065702230268,480.8890849754971L177.83303194695577,479.5001150105127L176.50693188667879,477.18500750103703L176.50693188667879,476.72196236027594L176.83845690174803,475.33277965291563L177.16998191681728,473.9435260093269L177.16998191681728,471.16480586926264L176.83845690174803,470.7016582490942L176.50693188667879,470.2385027430282L176.1754068716093,470.2385027430282L174.18625678119338,468.3858018516039L173.52320675105466,468.3858018516039L172.52863170584692,468.3858018516039L171.8655816757082,468.3858018516039L170.539481615431,467.9226069099168L169.8764315852925,467.4594040798547L169.21338155515355,466.532974753045L169.21338155515355,466.532974753045L168.55033152501505,466.532974753045L168.21880650994558,466.06974825545694L167.88728149487656,466.06974825545694L167.88728149487656,466.06974825545694L166.22965641952965,466.532974753045L164.5720313441832,467.4594040798547L163.57745629897522,467.4594040798547L163.90898131404447,468.3858018516039L163.90898131404447,468.84898890534896L163.90898131404447,468.84898890534896L163.90898131404447,469.31216807158125L163.90898131404447,470.2385027430282L163.24593128390597,471.16480586926264L162.9144062688365,471.62794560393377L161.91983122362876,473.01731749913233L161.5883062085593,473.4804256959542L159.93068113321283,475.7958484366318L159.59915611814336,476.25890933893606L159.26763110307434,477.64804476162317L159.26763110307434,477.64804476162317L159.26763110307434,479.5001150105127L159.26763110307434,479.9631128764195L159.26763110307434,480.4261028646142L159.59915611814336,481.3520592094974L160.59373116335132,483.6668122404153L160.9252561784208,484.1297392216402L160.9252561784208,484.5926583288456L161.25678119349004,484.5926583288456L161.91983122362876,485.5184729227949L162.58288125376725,485.5184729227949L163.24593128390597,486.4442560255411L163.57745629897522,486.4442560255411L164.90355635925243,487.8328716407814L166.8927064496686,488.75857602978067L168.88185654008453,490.1470735897601L169.21338155515355,490.60989037177933L171.20253164556948,491.53550033128704L171.20253164556948,491.53550033128704L171.53405666063895,491.99829350961227L171.53405666063895,492.46107882084834L171.8655816757082,492.9238562654027L171.8655816757082,493.38662584370104L171.8655816757082,494.3121414031266L171.8655816757082,495.7003557554817L171.8655816757082,496.1630781447566L171.8655816757082,496.1630781447566L172.19710669077745,496.62579267062756L173.1916817359854,497.55119813377314L173.8547317661239,498.0138890718754L174.18625678119338,498.0138890718754L174.84930681133187,498.476572148189L175.18083182640157,499.4019147171366L175.51235684147082,499.8645742105855L175.84388185654007,500.78986961745613L175.84388185654007,501.7151335870276L175.84388185654007,502.64036612253403L175.84388185654007,503.5655672272842L176.1754068716093,504.028155994125L176.1754068716093,504.49073690450496L176.50693188667879,504.9533099588207L176.83845690174803,505.87843250088554L176.83845690174803,506.34098198945867L177.16998191681728,506.34098198945867L178.16455696202524,507.26605740368905L178.49608197709472,507.7285833301812L178.82760699216374,507.7285833301812L180.15370705244118,508.19110140346856L182.1428571428571,509.1161139920314L183.13743218806485,509.57860850812904L184.4635322483423,509.57860850812904L185.45810729355026,509.57860850812904L187.4472573839662,509.57860850812904L187.4472573839662,509.57860850812904L188.1103074141049,510.0410951726408L188.44183242917393,510.0410951726408L189.76793248945137,511.42850806078786L189.10488245931288,513.7407058807839L189.10488245931288,514.2031218994161L188.1103074141049,516.515084288103L187.77878239903544,516.9774532277934L186.78420735382747,516.9774532277934L186.12115732368898,516.9774532277934L185.45810729355026,516.9774532277934L185.126582278481,516.9774532277934L184.79505726341176,516.9774532277934L184.79505726341176,516.9774532277934L182.47438215792613,517.4398143224298L181.47980711271816,517.4398143224298L181.47980711271816,516.0527075029313L181.14828209764914,516.0527075029313L180.81675708257967,515.5903228718907L180.81675708257967,515.5903228718907L178.82760699216374,515.5903228718907L177.83303194695577,515.5903228718907L175.84388185654007,515.5903228718907L175.18083182640157,515.5903228718907L174.18625678119338,516.0527075029313L173.1916817359854,515.5903228718907L172.52863170584692,515.1279303945576L171.8655816757082,515.1279303945576L171.53405666063895,514.6655300705297L171.20253164556948,515.1279303945576L170.87100663050023,514.6655300705297L169.21338155515355,514.2031218994161L168.21880650994558,513.7407058807839L167.5557564798071,513.2782820142347L166.8927064496686,512.8158502993792L166.5611814345989,512.8158502993792L164.90355635925243,512.8158502993792L163.24593128390597,512.8158502993792L162.251356238698,512.8158502993792L161.25678119349004,512.3534107357809L160.9252561784208,512.3534107357809L156.61543098251968,508.19110140346856L156.2839059674502,507.7285833301812L149.98493068113294,506.34098198945867L149.6534056660637,506.8035236235828L149.32188065099444,506.8035236235828L149.32188065099444,506.8035236235828L148.99035563592497,507.26605740368905L148.99035563592497,507.26605740368905L148.32730560578648,507.7285833301812L146.66968053044002,508.19110140346856L146.33815551537054,508.6536116239422L146.33815551537054,508.6536116239422L145.67510548523205,509.57860850812904L144.0174804098856,510.0410951726408L143.35443037974687,510.0410951726408L143.02290536467763,510.0410951726408L141.69680530439996,509.57860850812904L140.0391802290535,508.6536116239422L138.3815551537068,508.19110140346856L138.0500301386378,508.19110140346856L137.05545509342983,508.19110140346856L136.72393007836035,508.19110140346856L136.72393007836035,508.19110140346856L136.72393007836035,508.19110140346856L136.39240506329088,508.19110140346856L135.0663050030139,509.1161139920314L134.4032549728754,509.57860850812904L134.07172995780593,510.5035739859868L133.40867992766744,510.9660449485709L130.75647980711256,512.3534107357809L129.7619047619046,512.8158502993792L129.0988547317661,512.8158502993792L125.78360458107318,512.8158502993792L123.1314044605183,513.2782820142347L122.79987944544905,513.7407058807839L122.46835443037958,514.6655300705297L122.13682941531033,515.1279303945576L121.47377938517161,516.0527075029313L119.4846292947559,516.9774532277934L118.15852923447869,517.4398143224298L115.83785412899329,518.8268505400174L115.83785412899329,519.2891802584581L115.83785412899329,518.8268505400174L115.17480409885479,518.8268505400174L114.18022905364683,517.9021675724016L113.51717902350788,517.9021675724016L113.18565400843886,517.4398143224298L112.1910789632309,517.4398143224298L111.19650391802293,517.4398143224298L110.86497890295345,516.9774532277934L110.53345388788443,516.515084288103L110.86497890295345,516.515084288103L111.85955394816142,516.515084288103L112.85412899336939,516.515084288103L113.18565400843886,516.0527075029313L113.51717902350788,516.0527075029313L113.51717902350788,516.0527075029313L113.84870403857735,515.1279303945576L114.18022905364683,515.1279303945576L114.18022905364683,514.6655300705297L113.84870403857735,514.2031218994161L112.85412899336939,511.42850806078786L111.85955394816142,509.57860850812904L110.86497890295345,508.19110140346856L110.86497890295345,508.19110140346856L110.53345388788443,507.7285833301812L110.53345388788443,507.26605740368905L110.53345388788443,506.8035236235828L110.86497890295345,504.49073690450496L111.5280289330924,503.10297060356424L112.1910789632309,500.32722584389194L112.1910789632309,498.476572148189L112.1910789632309,498.476572148189L112.1910789632309,498.0138890718754L112.52260397830014,497.55119813377314L111.85955394816142,496.62579267062756L111.19650391802293,496.1630781447566L110.20192887281496,495.23762550238825L109.87040385774571,494.7748873850687L109.53887884267647,494.3121414031266L109.53887884267647,494.3121414031266L109.53887884267647,493.84938755613257L109.53887884267647,493.84938755613257L110.20192887281496,492.9238562654027L110.20192887281496,492.46107882084834L109.87040385774571,491.99829350961227L109.53887884267647,491.53550033128704L109.53887884267647,491.53550033128704L109.87040385774571,490.1470735897601L109.87040385774571,488.75857602978067L109.87040385774571,488.2957277704554L109.87040385774571,487.8328716407814L109.87040385774571,486.9071357687244L109.87040385774571,486.4442560255411L110.20192887281496,485.98136841036467L111.5280289330924,484.5926583288456L112.85412899336939,483.6668122404153L113.84870403857735,482.27798404844725L114.18022905364683,481.81502556701525L114.18022905364683,481.81502556701525L112.1910789632309,479.5001150105127L110.53345388788443,477.64804476162317L110.53345388788443,477.64804476162317L110.20192887281496,477.64804476162317L107.54972875226031,479.0371092665009L105.89210367691362,479.5001150105127L105.22905364677513,479.5001150105127L103.90295358649769,479.9631128764195L102.5768535262207,480.8890849754971L101.91380349608221,481.3520592094974L100.91922845087424,481.81502556701525L100.58770343580454,480.8890849754971L100.91922845087424,479.9631128764195L101.25075346594303,479.0371092665009L100.25617842073507,478.1110741424636L99.26160337552733,477.64804476162317L98.26702833031936,476.72196236027594L97.60397830018064,476.25890933893606L96.27787823990343,474.86970298740926L96.27787823990343,474.40661843967973L95.94635322483418,473.9435260093269L95.94635322483418,473.4804256959542L95.94635322483418,472.55420141846844L95.94635322483418,471.62794560393377L96.27787823990343,470.7016582490942L96.27787823990343,470.7016582490942L97.60397830018064,470.2385027430282L98.26702833031936,469.77533935066094L98.59855334538861,468.3858018516039L97.93550331525012,466.532974753045L97.60397830018064,466.532974753045L97.2724532851114,466.06974825545694L97.2724532851114,466.06974825545694L96.94092827004215,466.06974825545694L96.6094032549729,466.06974825545694L96.27787823990343,466.06974825545694L94.95177817962622,466.06974825545694L93.95720313441848,465.6065138678787L92.96262808921051,464.6800214210998L92.29957805907202,463.7534974094233L91.96805304400232,463.2902235657202L91.96805304400232,462.82694182956766L91.63652802893284,462.82694182956766L91.30500301386382,462.3636522005363L90.97347799879435,462.3636522005363L90.64195298372488,462.3636522005363L89.97890295358638,462.3636522005363L89.31585292344789,462.82694182956766L88.32127787823993,463.7534974094233L87.98975286317045,463.7534974094233L87.98975286317045,463.7534974094233L87.98975286317045,463.2902235657202L87.98975286317045,462.82694182956766L88.98432790837842,460.5104147475977L89.97890295358638,459.1204037627067L91.30500301386382,457.7303217124936L92.96262808921051,455.87676841368375L93.95720313441848,454.9499443717905L95.28330319469546,453.5596490591561L95.94635322483418,452.6327460127213L95.61482820976494,451.7058113587009L94.95177817962622,450.77884509383875L94.2887281494875,450.3153501063025L93.95720313441848,450.3153501063025L93.2941531042793,450.3153501063025L93.2941531042793,450.3153501063025L92.96262808921051,450.77884509383875L92.29957805907202,451.24233217783694L91.63652802893284,451.24233217783694L90.64195298372488,451.24233217783694L88.98432790837842,451.7058113587009L88.32127787823993,451.7058113587009L87.98975286317045,451.24233217783694L85.00602772754678,451.24233217783694L83.01687763713062,451.7058113587009L81.69077757685363,451.7058113587009L81.35925256178416,451.7058113587009L80.69620253164567,451.7058113587009L80.3646775165762,451.7058113587009L80.3646775165762,451.7058113587009L79.7016274864377,451.7058113587009L76.7179023508138,450.77884509383875L75.72332730560561,451.24233217783694L75.06027727546712,451.24233217783694L74.72875226039764,451.24233217783694L74.06570223025915,451.24233217783694L73.07112718505118,450.3153501063025L72.40807715491246,449.8518472148353L71.74502712477397,450.3153501063025L71.74502712477397,450.3153501063025L71.08197709463548,451.24233217783694L70.750452079566,451.7058113587009L69.09282700421954,452.1692826368635L67.76672694394188,452.6327460127213L65.77757685352617,452.1692826368635L64.45147679324896,450.77884509383875L65.11452682338745,449.3883364189933L65.44605183845692,446.6071056294895L61.799276672694305,446.6071056294895L59.810126582278144,444.2891958597502L59.47860156720935,442.8983550897319L55.83182640144673,445.21638349262867L55.16877637130801,445.21638349262867L54.17420132610005,445.6799654461611L52.848101265822834,446.14353949164797L52.185051235684114,447.0706638600859L50.52742616033743,448.46129111261325L49.864376130198934,449.3883364189933L49.864376130198934,449.3883364189933L49.864376130198934,448.92481771840175L48.86980108499097,447.9977566012494L47.875226039783,447.0706638600859L47.54370102471353,446.6071056294895L47.21217600964451,446.14353949164797L46.880650994575035,445.21638349262867L46.54912597950556,444.75279363062145L46.21760096443654,444.2891958597502L45.223025919228576,443.3619765897165L43.896925858951136,442.43472567922436L42.23930078360445,442.8983550897319L41.9077757685352,442.43472567922436L41.9077757685352,442.43472567922436L41.57625075346573,441.97108835779727L41.24472573839648,441.0437899804856L41.24472573839648,440.1164599545009L41.24472573839648,439.189098276569L41.24472573839648,438.2617049433902L41.24472573839648,437.79799640504643L40.913200723327236,436.40682329810807L40.58167570825776,436.40682329810807L39.91862567811927,435.47933497944905L39.587100663049796,435.47933497944905L39.587100663049796,435.0155789446435L38.9240506329113,435.0155789446435L38.9240506329113,434.5518149923482L37.59795057263432,435.0155789446435L35.27727546714891,434.5518149923482L33.95117540687147,435.0155789446435L33.619650391802224,435.0155789446435L33.619650391802224,435.0155789446435L31.962025316455538,435.0155789446435L30.635925256178325,434.5518149923482L30.635925256178325,434.5518149923482L30.635925256178325,434.5518149923482L30.30440024110908,434.0880431221267L29.972875226039832,434.0880431221267L29.641350210970586,433.16047562622407L29.309825195901112,431.7690649876495L29.641350210970586,430.84141829396685L30.635925256178325,430.84141829396685L32.29355033152501,430.37758306550313L32.956600361663504,430.37758306550313L33.28812537673275,429.91373991539876L33.619650391802224,429.44988884326085L32.62507534659426,427.59440532598455L32.62507534659426,426.66661602437307L32.62507534659426,425.73879502305135L32.62507534659426,422.9551417877992L31.298975286317045,419.7071856061448L30.96745027124757,418.7791267518478L30.635925256178325,417.3869789798264L30.30440024110908,415.53067088409443L29.972875226039832,414.6024692289102L29.309825195901112,413.6742358311312L28.978300180831866,413.21010722772553L28.64677516576262,412.74597068744697L28.315250150693146,412.74597068744697L26.326100060276985,411.35351344110677L25,408.56838459666324L25,408.56838459666324L25.33152501506902,408.56838459666324L27.320675105484952,407.17571297626637L29.309825195901112,405.31870628883553L30.30440024110908,404.8544347582392L30.635925256178325,404.39015528330856L31.298975286317045,404.39015528330856L31.63050030138629,404.39015528330856L31.962025316455538,404.39015528330856L31.962025316455538,404.8544347582392L32.956600361663504,404.8544347582392L33.28812537673275,404.8544347582392L33.95117540687147,405.31870628883553L35.608800482218385,405.7829698755304L37.266425557564844,406.7114732188311L39.587100663049796,407.6399447914373L41.24472573839648,409.0325925875477L42.570825798673695,409.9609847479005L42.902350813743396,410.42516891820196L43.23387582881264,410.8893451491276L43.56540084388189,410.8893451491276L44.559975889089856,410.8893451491276L46.21760096443654,409.0325925875477L47.54370102471353,406.7114732188311L47.54370102471353,406.7114732188311L47.54370102471353,406.7114732188311L47.875226039783,406.24722551871673L47.875226039783,406.24722551871673L48.86980108499097,406.7114732188311L49.864376130198934,407.17571297626637L50.19590114526795,407.17571297626637L51.19047619047592,403.9258678636361L50.85895117540713,402.5329579320678L49.864376130198934,402.06863872932445L48.86980108499097,401.60431157977655L46.54912597950556,400.67563343857546L45.223025919228576,400.2112824461292L43.56540084388189,399.74692350520854L41.24472573839648,398.35379898756946L40.913200723327236,397.4250095592688L40.58167570825776,396.49618832720444L40.25015069318874,396.0317657837186L40.25015069318874,396.0317657837186L40.58167570825776,395.102896839795L40.25015069318874,393.7095337753017L40.25015069318874,393.2450635125133L39.25557564798078,391.38710291059033L38.9240506329113,390.45807487335696L38.59252561784206,389.0644731378379L38.9240506329113,388.5999233097609L38.9240506329113,388.1353655228886L39.587100663049796,387.20622607105906L40.25015069318874,387.20622607105906L40.913200723327236,386.27705477903146L41.24472573839648,385.3478516434843L40.913200723327236,383.953987226334L40.25015069318874,383.0247044675125L38.9240506329113,380.23666504707944L38.9240506329113,379.3072548478849L38.59252561784206,378.84253779786013L38.59252561784206,378.37781278031616L38.26100060277281,376.9835899184727L38.26100060277281,376.0540681654238L37.92947558770334,375.58929533411356L38.26100060277281,374.65972575980777L38.26100060277281,374.19492901600825L38.26100060277281,374.19492901600825L40.25015069318874,373.7301243005386L40.25015069318874,373.26531161300227L40.58167570825776,373.26531161300227L41.9077757685352,373.7301243005386L42.570825798673695,373.7301243005386L42.570825798673695,373.7301243005386L43.56540084388189,375.58929533411356L44.22845087402061,376.5188330267483L45.55455093429782,377.9130797948419L45.88607594936707,377.9130797948419L46.54912597950556,377.9130797948419L49.864376130198934,377.9130797948419L50.85895117540713,377.4483388410408L52.51657625075359,377.4483388410408L54.17420132610005,377.4483388410408L54.50572634116929,377.4483388410408L55.16877637130801,377.4483388410408L55.83182640144673,377.4483388410408L55.83182640144673,377.4483388410408L55.83182640144673,377.4483388410408L56.16335141651575,377.9130797948419L56.494876431585226,377.9130797948419L59.14707655213965,378.37781278031616L60.141651597347845,379.3072548478849L62.462326702833025,380.23666504707944L63.125376732971745,380.7013581970605L63.45690174804099,380.7013581970605L65.11452682338745,381.1660433811994L65.77757685352617,381.1660433811994L66.77215189873391,381.6307205999037L68.09825195901158,382.5600511426346L70.41892706449653,384.418616661118L70.750452079566,384.88323813336683L71.74502712477397,385.3478516434843L72.73960216998194,385.3478516434843L73.40265220012043,384.88323813336683L73.7341772151899,384.88323813336683L74.06570223025915,384.88323813336683L75.72332730560561,384.88323813336683L76.05485232067485,385.3478516434843L77.04942736588305,385.8124571919034L77.71247739602177,386.27705477903146L79.03857745629898,387.20622607105906L80.3646775165762,387.6707997767844L83.01687763713062,389.0644731378379L83.3484026522001,389.0644731378379L84.01145268233859,389.0644731378379L85.66907775768527,389.5290150075198L86.66365280289324,389.5290150075198L86.66365280289324,389.5290150075198L89.31585292344789,387.6707997767844L90.31042796865586,386.7416444052724L90.97347799879435,386.27705477903146L90.97347799879435,385.8124571919034L91.30500301386382,385.3478516434843L91.63652802893284,384.418616661118L91.96805304400232,383.0247044675125L92.96262808921051,381.6307205999037L93.2941531042793,378.84253779786013L93.2941531042793,378.37781278031616L93.2941531042793,377.9130797948419L93.625678119349,376.5188330267483L93.95720313441848,375.1245145323737L93.95720313441848,375.1245145323737L93.95720313441848,374.65972575980777L94.2887281494875,374.19492901600825L94.95177817962622,373.26531161300227L94.95177817962622,373.26531161300227L95.28330319469546,373.26531161300227L96.6094032549729,372.80049095296636L96.94092827004215,372.3356623200234L99.26160337552733,372.80049095296636L99.92465340566605,372.80049095296636L101.58227848101274,374.19492901600825L101.91380349608221,374.19492901600825L102.5768535262207,373.7301243005386L102.90837854128972,373.26531161300227L103.2399035563592,373.26531161300227L104.23447860156716,372.80049095296636L104.56600361663664,372.80049095296636L104.56600361663664,372.80049095296636L105.56057866184437,372.80049095296636L105.89210367691362,372.80049095296636L105.89210367691362,372.80049095296636L106.88667872212159,372.80049095296636L106.55515370705234,372.3356623200234L106.55515370705234,372.3356623200234L105.22905364677513,370.0113995472384L104.23447860156716,368.6167461821351L103.2399035563592,367.2220210272644L102.90837854128972,366.7570966870808L101.58227848101274,365.3622757950434L101.25075346594303,364.8973195391627L100.91922845087424,364.4323553033064L100.58770343580454,364.4323553033064L100.25617842073507,363.96738308706335L99.92465340566605,363.96738308706335L99.59312839059658,363.50240289003705L97.93550331525012,362.1074144100021L96.27787823990343,359.78227395521753L95.28330319469546,358.8521618844534L94.2887281494875,357.45693388698055L94.2887281494875,357.45693388698055L93.95720313441848,357.45693388698055L93.625678119349,357.45693388698055L92.96262808921051,356.99184191515087L92.63110307414081,357.45693388698055L91.63652802893284,357.92201787220256L90.64195298372488,358.3870938712171L90.31042796865586,358.3870938712171L89.64737793851714,357.45693388698055L88.65280289330917,356.52674195627696L86.99517781796271,355.13139415329715L85.66907775768527,354.2011223418558L85.00602772754678,354.2011223418558L84.34297769740829,353.7359744520363L84.34297769740829,353.7359744520363L84.67450271247708,353.2708185722913L84.67450271247708,351.87530298918136L84.67450271247708,351.41011514547426L85.00602772754678,350.47971548156784L85.00602772754678,349.5492838462269L85.33755274261603,348.61882023609724L86.33212778782399,345.82723752380116L87.32670283303196,343.5006986825065L87.32670283303196,343.0353669185861L87.6582278481012,343.0353669185861L87.6582278481012,342.57002715515046L87.6582278481012,342.1046793917594L87.6582278481012,342.1046793917594L87.6582278481012,341.63932362802007L88.32127787823993,340.70858809777565L88.98432790837842,340.70858809777565L89.64737793851714,340.70858809777565L89.97890295358638,340.70858809777565L90.31042796865586,339.77782056110664L90.64195298372488,338.8470210146661L90.64195298372488,337.9161894551107L90.64195298372488,336.98532587911177L90.97347799879435,335.5889704769652L91.30500301386382,334.65802684523806L92.29957805907202,334.1925430190422L93.625678119349,333.727051185404L93.95720313441848,333.727051185404L93.95720313441848,333.2615513438868L94.2887281494875,332.7960434940833L94.62025316455697,330.93393200371065L94.62025316455697,330.46838410622877L94.2887281494875,329.5372642784896L94.95177817962622,329.5372642784896L95.61482820976494,328.6061124042644L95.61482820976494,328.14052444866684L96.27787823990343,327.20932449843167L96.94092827004215,325.81246446919977L97.2724532851114,323.4842041156189L99.26160337552733,322.55284385773484L100.25617842073507,322.0871517021624L101.25075346594303,321.15574333568657L101.91380349608221,318.82708207717224L101.91380349608221,318.82708207717224L101.58227848101274,318.3613257634461L101.25075346594303,317.8955614280567L99.59312839059658,316.9640086906584L99.59312839059658,316.4982202878018L99.26160337552733,314.6349864389558L98.93007836045808,312.30576356230813L99.26160337552733,309.51043121171097L99.26160337552733,308.57858952916285L98.93007836045808,307.6467157248553L98.59855334538861,306.71480979541957L98.59855334538861,306.2488447827527L98.59855334538861,304.8509015478485L99.26160337552733,303.91889922299015L99.26160337552733,303.91889922299015L99.26160337552733,303.45288600882486L99.26160337552733,302.9868647596195L101.25075346594303,302.9868647596195L101.91380349608221,302.0547981543714L102.24532851115123,301.5887527975101L102.5768535262207,301.5887527975101L102.90837854128972,301.5887527975101L103.2399035563592,301.12269940391343L103.90295358649769,302.0547981543714L103.90295358649769,302.0547981543714L103.90295358649769,302.5208354749375L105.56057866184437,303.45288600882486L106.88667872212159,303.91889922299015L108.5443037974685,304.3849044025301L110.53345388788443,303.45288600882486L111.85955394816142,302.9868647596195L112.85412899336939,303.45288600882486L113.84870403857735,304.3849044025301L114.18022905364683,304.8509015478485L114.84327908378532,304.8509015478485L116.16937914406253,305.7828717375414L117.16395418927073,305.7828717375414L120.14767932489463,306.2488447827527L122.79987944544905,306.71480979541957L124.45750452079551,308.11265664243183L126.44665461121167,308.57858952916285L127.77275467148888,309.0445143854413L128.10427968655813,309.0445143854413L129.43037974683534,308.57858952916285L130.4249547920433,308.57858952916285L130.75647980711256,307.18076677598583L130.4249547920433,306.71480979541957L130.09342977697406,305.7828717375414L130.09342977697406,305.7828717375414L130.4249547920433,304.3849044025301L131.75105485232052,304.3849044025301L132.7456298975285,304.8509015478485L134.07172995780593,304.8509015478485L135.0663050030139,304.3849044025301L135.39783001808337,303.45288600882486L135.0663050030139,303.45288600882486L134.73477998794442,302.9868647596195L134.4032549728754,302.0547981543714L134.4032549728754,301.5887527975101L135.0663050030139,298.79231187041296L135.0663050030139,298.3262102476838L136.39240506329088,297.8601005852797L137.71850512356832,298.79231187041296L138.3815551537068,299.2584054539184L139.37613019891478,300.6566379731812L141.03375527426147,301.5887527975101L143.35443037974687,302.0547981543714L145.67510548523205,302.5208354749375L147.995780590717,302.5208354749375L148.32730560578648,302.5208354749375L148.32730560578648,302.0547981543714L148.32730560578648,302.0547981543714L148.99035563592497,301.5887527975101L148.99035563592497,301.12269940391343L148.99035563592497,301.12269940391343L149.6534056660637,299.72449099860387L150.31645569620264,298.3262102476838L150.64798071127188,297.8601005852797L150.97950572634113,297.393982882797L151.3110307414106,296.4617233559293L151.3110307414106,295.99558153069665L151.64255575647985,295.52943166371915L151.64255575647985,294.59710780280875L151.64255575647985,294.1309338080355L151.64255575647985,293.19856168777915L151.64255575647985,292.73236356144844L151.9740807715491,292.26615739043336L152.96865581675706,291.79994317429737L153.3001808318263,291.3337209126257L154.95780590717277,290.4012522510202L156.9469559975887,289.46875140225166L159.26763110307434,287.6036531297832L159.93068113321283,287.6036531297832L160.26220614828208,287.13735843943505L160.59373116335132,287.13735843943505L161.25678119349004,286.2047449091406L161.5883062085593,285.7384260683357L161.5883062085593,285.27209917655637L161.5883062085593,284.80576423335515L161.25678119349004,284.3394212383355L161.25678119349004,283.4067110911019L160.59373116335132,281.5411941562015L160.59373116335132,280.60838736178994L160.59373116335132,280.60838736178994L160.26220614828208,280.1419718813886L159.59915611814336,279.67554834494877L158.93610608800486,279.20911675204843L155.95238095238074,278.27622939521825L154.29475587703428,277.8097736304371L152.30560578661834,277.3433098075184L151.9740807715491,277.3433098075184L151.9740807715491,277.3433098075184L151.9740807715491,276.8768379260546L152.30560578661834,276.4103579856055L152.63713080168782,275.943869985771L152.63713080168782,275.943869985771L153.96323086196503,275.0108698062031L154.62628089210375,275.0108698062031L155.95238095238074,272.21167579827306L156.61543098251968,269.41219151574114L156.9469559975887,268.01234049308914L157.6100060277272,266.61241686771245L158.27305605786637,265.67909411031724L158.93610608800486,264.7457390765994L159.93068113321283,263.3456460005873L161.25678119349004,261.0119961112905L161.5883062085593,261.0119961112905L161.5883062085593,260.5452419152425L161.5883062085593,260.07847964547545L161.25678119349004,260.07847964547545L160.9252561784208,258.21134982089643L160.59373116335132,255.87725583105566L160.59373116335132,253.0760764669758L160.59373116335132,252.60918496048907L161.91983122362876,253.0760764669758L164.24050632911394,253.54295989301318L165.8981314044604,255.4104128009858L166.5611814345989,255.87725583105566L167.22423146473784,256.3440907831864L167.5557564798071,256.81091765782185L168.21880650994558,256.81091765782185L170.2079566003615,256.81091765782185L170.87100663050023,256.81091765782185L170.87100663050023,256.81091765782185L171.53405666063895,256.3440907831864L172.52863170584692,256.81091765782185L174.18625678119338,256.81091765782185L176.1754068716093,257.7445471762476L177.83303194695577,258.6781443897089L178.16455696202524,258.6781443897089L178.82760699216374,258.6781443897089L179.49065702230268,258.6781443897089L180.15370705244118,258.6781443897089L180.15370705244118,258.6781443897089L180.48523206751042,258.21134982089643L181.14828209764914,257.7445471762476L181.14828209764914,257.7445471762476L181.14828209764914,257.27773645535854L181.14828209764914,256.3440907831864L181.14828209764914,256.3440907831864L181.47980711271816,255.87725583105566L181.81133212778764,255.4104128009858L182.47438215792613,254.94356169257662L184.4635322483423,253.54295989301318L184.79505726341176,253.54295989301318L185.126582278481,253.54295989301318L185.45810729355026,253.54295989301318L186.45268233875822,253.54295989301318L188.44183242917393,253.54295989301318L189.4364074743819,254.4767025053843L189.76793248945137,254.94356169257662L190.43098251958986,255.4104128009858L191.09403254972835,255.87725583105566L192.08860759493632,255.4104128009858L193.74623267028323,254.00983523900504L195.73538276069917,252.60918496048907L197.39300783604563,251.20846195403283L198.05605786618435,251.20846195403283L199.05063291139209,251.67537770442868L199.71368294153126,251.67537770442868L201.03978300180825,252.60918496048907L201.70283303194674,252.60918496048907L202.0343580470162,252.60918496048907L202.0343580470162,252.1422853731092L202.0343580470162,251.67537770442868L202.0343580470162,249.8076662082567L202.0343580470162,248.40679771175564L202.0343580470162,247.93982537745615L202.0343580470162,247.47284495806525L202.3658830620857,247.47284495806525L203.36045810729365,247.00585645315005L203.69198312236267,246.5388598622667L205.6811332127786,245.60484242101302L206.67570825798657,245.13782156976959L208.66485834840273,244.2037556039577L209.99095840867994,243.73671048853794L210.3224834237492,243.2696572842142L211.31705846895716,242.80259599057536L211.31705846895716,242.3355266071885L211.31705846895716,241.40136356946095L210.9855334538879,240.46716816768094L210.9855334538879,240.00005832920942L210.65400843881844,238.13153804827016L210.65400843881844,238.13153804827016L210.3224834237492,238.13153804827016L209.65943339361047,237.66438774414564L208.33333333333348,236.7300628523044L207.00723327305582,236.26288826373275L205.0180831826401,234.3941089485379L203.02893309222418,234.3941089485379L202.6974080771547,233.92689387740393L202.3658830620857,233.92689387740393L202.0343580470162,233.45967070849656L201.37130801687772,232.05795261083767L201.70283303194674,231.59069704657668L202.0343580470162,231.1234333824068L203.69198312236267,230.1888817527033L204.02350813743215,229.7215937863075L204.02350813743215,229.7215937863075L206.01265822784808,228.31968127591244L207.67028330319476,227.38503242206207L209.32790837854145,226.4503511533876L210.65400843881844,225.51563746650572L210.9855334538879,225.04826846517244L211.6485834840264,225.04826846517244L212.64315852923437,225.04826846517244L212.97468354430384,225.04826846517244L213.63773357444234,225.04826846517244L216.9529837251357,225.51563746650572L219.93670886075938,224.11350614462572L220.26823387582863,223.64611282455007L220.5997588908981,222.7113018627133L220.93128390596735,221.3090246093343L221.59433393610607,219.43920807389077L222.25738396624456,218.5042511424217L222.58890898131403,218.0367605092615L222.92043399638305,217.56926176392153L223.25195901145253,217.56926176392153L223.25195901145253,217.10175490598704L224.9095840867992,216.63423993501783L225.2411091018687,216.1667168506101L226.89873417721515,216.1667168506101L227.8933092224231,216.1667168506101L228.22483423749236,216.63423993501783L228.22483423749236,216.63423993501783L229.88245931283882,218.9717336638132L230.54550934297754,220.37413256173386L230.54550934297754,220.37413256173386L232.20313441832445,221.77645846911037L233.8607594936709,224.11350614462572L236.18143459915586,225.9829983624295L236.18143459915586,225.9829983624295L236.8444846292948,226.4503511533876L236.8444846292948,225.51563746650572L237.5075346594333,225.04826846517244L237.83905967450255,224.58089135801492L238.1705846895718,224.58089135801492L238.83363471971052,224.11350614462572L240.82278481012668,222.24388422008997L241.15430982519592,222.24388422008997L242.1488848704039,221.3090246093343L243.80650994575058,220.37413256173386L244.46955997588907,220.37413256173386L244.80108499095854,219.90667437304728L246.79023508137402,218.5042511424217L249.11091018685966,216.63423993501783L249.77396021699815,216.63423993501783L250.10548523206762,216.63423993501783L250.10548523206762,216.1667168506101L250.43701024713687,215.69918565231637L251.10006027727536,214.2965433699501L251.10006027727536,214.2965433699501L251.43158529234483,213.82897971191414L252.4261603375528,213.82897971191414L253.0892103676913,213.3614079378931L253.42073538276077,213.3614079378931L255.07836045810723,213.3614079378931L256.0729355033152,211.95864391559735L256.7359855334537,211.0234273129863L258.3936106088004,208.21758264657183L259.0566606389391,207.2822361269209L259.7197106690778,205.87915543186318L260.71428571428555,204.94372768648464L262.040385774563,204.00826744486767L262.7034358047015,204.00826744486767L263.03496081977073,204.00826744486767L264.0295358649787,204.47600162791423L264.0295358649787,204.47600162791423L265.02411091018666,205.87915543186318L265.6871609403256,206.8145506844121L266.6817359855336,206.8145506844121L267.0132610006026,206.8145506844121L267.67631103074154,206.8145506844121L268.33936106088004,206.3468571195299L269.66546112115725,206.8145506844121L270.6600361663652,207.2822361269209L270.99156118143446,207.7499134475038L271.3230861965037,208.21758264657183L271.65461121157296,208.68524372454704L273.6437613019889,209.62054151893608L273.97528631705813,209.62054151893608L274.30681133212784,209.62054151893608L274.30681133212784,209.15289668185505L274.6383363471971,208.68524372454704L274.96986136226633,208.68524372454704L275.3013863773358,208.68524372454704L277.9535864978902,208.21758264657183L279.6112115732367,208.68524372454704L280.2742616033752,208.68524372454704L280.60578661844465,208.68524372454704L280.60578661844465,208.68524372454704L282.5949367088606,206.8145506844121L282.92646172393006,206.3468571195299L283.2579867389991,206.3468571195299L283.58951175406855,206.3468571195299L283.921036769138,206.3468571195299L284.5840867992765,206.3468571195299L285.247136829415,206.3468571195299L285.5786618444845,206.8145506844121L286.24171187462343,206.8145506844121L287.8993369499699,208.21758264657183L288.5623869801084,208.21758264657183L289.55696202531635,208.68524372454704L292.2091621458708,209.62054151893608L292.54068716094025,209.62054151893608L293.20373719107874,209.62054151893608L293.86678722121724,209.62054151893608L295.1928872814947,209.62054151893608L297.1820373719106,209.62054151893608L298.83966244725707,209.62054151893608L299.83423749246504,209.62054151893608L300.49728752260353,209.62054151893608L301.1603375527425,209.15289668185505L301.4918625678115,208.68524372454704L301.82338758288097,207.7499134475038L302.8179626280894,205.87915543186318L304.1440626883664,204.00826744486767L305.13863773357434,202.6050161445528L307.1277878239903,201.2016917085857L307.79083785412877,200.73390064225532L309.4484629294752,200.73390064225532L310.7745629897531,201.2016917085857L312.7637130801686,199.79829412549952L313.42676311030755,199.33047867424102L313.75828812537657,199.33047867424102L315.415913200723,199.33047867424102L315.7474382157925,199.33047867424102L318.06811332127745,199.79829412549952L319.0626883664854,200.26610144802908L319.72573839662437,201.669474647475L320.05726341169384,202.137249459327L320.05726341169384,202.6050161445528L320.3887884267633,203.0727747036144L320.3887884267633,203.54052513690112L321.0518384569018,204.00826744486767L322.0464135021098,204.47600162791423L322.70946353224826,204.94372768648464L323.70403857745623,206.8145506844121L323.70403857745623,207.7499134475038L325.03013863773367,208.68524372454704L326.35623869801066,209.62054151893608L326.68776371308013,209.62054151893608L327.3508137432186,210.08817823620848L329.00843881856554,210.55580683407243Z" style="fill: none; stroke: rgb(8, 48, 107);"><title>HAUTES ALPES</title></path><g stroke="#000" stroke-opacity="0.2"><path d="M0,-15.873247654971056L3.5637661381291506,-4.905103281308338L15.096355617026989,-4.905103281308339L5.766294739448918,1.873582735131148L9.330060877578072,12.841727108793865L8.881784197001252e-16,6.063041092354379L-9.330060877578068,12.841727108793867L-5.766294739448918,1.8735827351311491L-15.09635561702699,-4.905103281308335L-3.563766138129152,-4.905103281308337Z" transform="translate(433.1072935503312,187.16442236322473)rotate(1.625376766290687)" fill="white" class="commune"><title>05023 Population : 11950</title></path><path d="M0,-22.448162112566994L5.039926405668234,-6.936863585267022L21.349470856006818,-6.936863585267023L8.154772225169292,2.649646114250548L13.19469863083753,18.16094464155052L8.881784197001252e-16,8.574434942032948L-13.194698630837525,18.160944641550522L-8.154772225169292,2.649646114250549L-21.34947085600682,-6.936863585267019L-5.0399264056682345,-6.936863585267021Z" transform="translate(239.49668474984924,336.5198820838923)rotate(7.850552325602146)" fill="white" class="commune"><title>05061 Population : 40805</title></path></g><text class="text" y="25" x="326" text-anchor="middle" font-size="24" font-family="Helvetica" fill="#6baed6">05 - HAUTES ALPES</text><line x1="420.19991963029906" y1="197.12145301126924" x2="252.40405866988138" y2="326.5628514358478" stroke="yellow" opacity="0.35" stroke-width="2"/><line x1="252.40405866988138" y1="326.5628514358478" x2="420.19991963029906" y2="197.12145301126924" stroke="yellow" opacity="0.35" stroke-width="2"/></svg>