<svg viewBox="0,0,954,1144.8" width="954" height="1144.8" style="width: 100%; height: auto;" xmlns="http://www.w3.org/2000/svg" xmlns:xlink="http://www.w3.org/1999/xlink"><rect width="954" height="1144.8" fill="black"/><g stroke="#000" stroke-opacity="0.2"><path d="M0,-15.873247654971056L3.5637661381291506,-4.905103281308338L15.096355617026989,-4.905103281308339L5.766294739448918,1.873582735131148L9.330060877578072,12.841727108793865L8.881784197001252e-16,6.063041092354379L-9.330060877578068,12.841727108793867L-5.766294739448918,1.8735827351311491L-15.09635561702699,-4.905103281308335L-3.563766138129152,-4.905103281308337Z" transform="translate(281.1145703611457,412.3539307715655)rotate(12.0187779441013)" fill="white" class="commune"><title>14047 Population : 13525</title></path><path d="M0,-15.873247654971056L3.5637661381291506,-4.905103281308338L15.096355617026989,-4.905103281308339L5.766294739448918,1.873582735131148L9.330060877578072,12.841727108793865L8.881784197001252e-16,6.063041092354379L-9.330060877578068,12.841727108793867L-5.766294739448918,1.8735827351311491L-15.09635561702699,-4.905103281308335L-3.563766138129152,-4.905103281308337Z" transform="translate(186.5491905354919,806.557151425055)rotate(22.019111978204748)" fill="white" class="commune"><title>14762 Population : 17425</title></path><path d="M0,-18.876579049491834L4.238056047668955,-5.833183721955068L17.952693510379785,-5.833183721955069L6.857318731355415,2.2280779191642193L11.095374779024372,15.271473246700983L8.881784197001252e-16,7.210211605581696L-11.095374779024368,15.271473246700985L-6.857318731355414,2.2280779191642206L-17.952693510379788,-5.833183721955065L-4.238056047668956,-5.833183721955068Z" transform="translate(811.9190535491906,525.2325011593275)rotate(29.15636668585533)" fill="white" class="commune"><title>14366 Population : 20301</title></path><path d="M0,-26.69551410299918L5.993516340710753,-8.249367531402827L25.38894264350654,-8.249367531402829L9.697713151397894,3.150978011306063L15.69122949210865,21.597124582902413L1.7763568394002505e-15,10.196779040193524L-15.691229492108645,21.597124582902417L-9.697713151397892,3.1509780113060657L-25.388942643506542,-8.249367531402822L-5.993516340710755,-8.249367531402825Z" transform="translate(469.6824408468244,492.51988307326974)rotate(6.140820902199949)" fill="white" class="commune"><title>14118 Population : 105403</title></path></g><text class="text" y="40" x="427" text-anchor="middle" font-size="36" font-family="Helvetica" fill="#6baed6">14 - CALVADOS</text><line x1="293.6857617268576" y1="417.6983275916791" x2="457.1112494811125" y2="487.1754862531561" stroke="yellow" opacity="0.35" stroke-width="2"/><line x1="492.49821502698217" y1="494.7007242790069" x2="789.1032793690329" y2="523.0516599535903" stroke="yellow" opacity="0.35" stroke-width="2"/><line x1="770.2277293482773" y1="543.9874778437094" x2="228.24051473640515" y2="787.8021747406732" stroke="yellow" opacity="0.35" stroke-width="2"/><line x1="192.8535491905355" y1="780.2769367148225" x2="274.8102117061021" y2="438.63414548179816" stroke="yellow" opacity="0.35" stroke-width="2"/></svg>