<svg viewBox="0,0,955,1146" width="955" height="1146" style="width: 100%; height: auto;" xmlns="http://www.w3.org/2000/svg" xmlns:xlink="http://www.w3.org/1999/xlink"><rect width="955" height="1146" fill="black"/><g stroke="#000" stroke-opacity="0.2"><path d="M0,-13.34775705149959L2.9967581703553763,-4.1246837657014135L12.69447132175327,-4.124683765701414L4.848856575698947,1.5754890056530315L7.845614746054325,10.798562291451207L8.881784197001252e-16,5.098389520096762L-7.845614746054323,10.798562291451208L-4.848856575698946,1.5754890056530328L-12.694471321753271,-4.124683765701411L-2.9967581703553776,-4.124683765701413Z" transform="translate(580.4264909847434,494.5766133175712)rotate(18.637510816303873)" fill="white" class="commune"><title>01269 Population : 3482</title></path><path d="M0,-13.34775705149959L2.9967581703553763,-4.1246837657014135L12.69447132175327,-4.124683765701414L4.848856575698947,1.5754890056530315L7.845614746054325,10.798562291451207L8.881784197001252e-16,5.098389520096762L-7.845614746054323,10.798562291451208L-4.848856575698946,1.5754890056530328L-12.694471321753271,-4.124683765701411L-2.9967581703553776,-4.124683765701413Z" transform="translate(624.9861303744801,859.2631984974796)rotate(5.035062730719623)" fill="white" class="commune"><title>01034 Population : 9133</title></path><path d="M0,-15.873247654971056L3.5637661381291506,-4.905103281308338L15.096355617026989,-4.905103281308339L5.766294739448918,1.873582735131148L9.330060877578072,12.841727108793865L8.881784197001252e-16,6.063041092354379L-9.330060877578068,12.841727108793867L-5.766294739448918,1.8735827351311491L-15.09635561702699,-4.905103281308335L-3.563766138129152,-4.905103281308337Z" transform="translate(852.1775312066575,319.41261241013854)rotate(9.153140506891976)" fill="white" class="commune"><title>01173 Population : 12652</title></path><path d="M0,-22.448162112566994L5.039926405668234,-6.936863585267022L21.349470856006818,-6.936863585267023L8.154772225169292,2.649646114250548L13.19469863083753,18.16094464155052L8.881784197001252e-16,8.574434942032948L-13.194698630837525,18.160944641550522L-8.154772225169292,2.649646114250549L-21.34947085600682,-6.936863585267019L-5.0399264056682345,-6.936863585267021Z" transform="translate(349.4694868238562,448.3496226813804)rotate(21.644857003046578)" fill="white" class="commune"><title>01053 Population : 41365</title></path></g><text class="text" y="40" x="427.5" text-anchor="middle" font-size="36" font-family="Helvetica" fill="#6baed6">01 - AIN</text><line x1="606.6183541377719" y1="831.8689601097396" x2="367.83726306056445" y2="475.7438610691204" stroke="yellow" opacity="0.35" stroke-width="2"/><line x1="382.9833564493763" y1="439.75382199663096" x2="818.6636615811374" y2="328.008413094888" stroke="yellow" opacity="0.35" stroke-width="2"/><line x1="834.0607951918632" y1="331.09021247063407" x2="598.5432269995376" y2="482.89901325707564" stroke="yellow" opacity="0.35" stroke-width="2"/><line x1="583.3971336107259" y1="518.8890523295651" x2="622.0154877484977" y2="834.9507594854857" stroke="yellow" opacity="0.35" stroke-width="2"/></svg>