<svg viewBox="0,0,954,1144.8" width="954" height="1144.8" style="width: 100%; height: auto;" xmlns="http://www.w3.org/2000/svg" xmlns:xlink="http://www.w3.org/1999/xlink"><rect width="954" height="1144.8" fill="black"/><g stroke="#000" stroke-opacity="0.2"><path d="M0,-15.873247654971056L3.5637661381291506,-4.905103281308338L15.096355617026989,-4.905103281308339L5.766294739448918,1.873582735131148L9.330060877578072,12.841727108793865L8.881784197001252e-16,6.063041092354379L-9.330060877578068,12.841727108793867L-5.766294739448918,1.8735827351311491L-15.09635561702699,-4.905103281308335L-3.563766138129152,-4.905103281308337Z" transform="translate(282.36114050924476,413.67899909681)rotate(20.631832515154315)" fill="white" class="commune"><title>insee_com : 14047 
Population : 13121
 Nom : BAYEUX</title></path><path d="M0,-15.873247654971056L3.5637661381291506,-4.905103281308338L15.096355617026989,-4.905103281308339L5.766294739448918,1.873582735131148L9.330060877578072,12.841727108793865L8.881784197001252e-16,6.063041092354379L-9.330060877578068,12.841727108793867L-5.766294739448918,1.8735827351311491L-15.09635561702699,-4.905103281308335L-3.563766138129152,-4.905103281308337Z" transform="translate(177.73958787275097,790.3558050493666)rotate(17.95044334610824)" fill="white" class="commune"><title>insee_com : 14762 
Population : 17178
 Nom : VIRE NORMANDIE</title></path><path d="M0,-15.873247654971056L3.5637661381291506,-4.905103281308338L15.096355617026989,-4.905103281308339L5.766294739448918,1.873582735131148L9.330060877578072,12.841727108793865L8.881784197001252e-16,6.063041092354379L-9.330060877578068,12.841727108793867L-5.766294739448918,1.8735827351311491L-15.09635561702699,-4.905103281308335L-3.563766138129152,-4.905103281308337Z" transform="translate(177.73958787275097,790.3558050493666)rotate(13.716675112963275)" fill="white" class="commune"><title>insee_com : 14762 
Population : 17178
 Nom : VIRE NORMANDIE</title></path><path d="M0,-18.876579049491834L4.238056047668955,-5.833183721955068L17.952693510379785,-5.833183721955069L6.857318731355415,2.2280779191642193L11.095374779024372,15.271473246700983L8.881784197001252e-16,7.210211605581696L-11.095374779024368,15.271473246700985L-6.857318731355414,2.2280779191642206L-17.952693510379788,-5.833183721955065L-4.238056047668956,-5.833183721955068Z" transform="translate(805.9754093257798,526.1024357600181)rotate(18.295326241279525)" fill="white" class="commune"><title>insee_com : 14366 
Population : 20318
 Nom : LISIEUX</title></path><path d="M0,-26.69551410299918L5.993516340710753,-8.249367531402827L25.38894264350654,-8.249367531402829L9.697713151397894,3.150978011306063L15.69122949210865,21.597124582902413L1.7763568394002505e-15,10.196779040193524L-15.691229492108645,21.597124582902417L-9.697713151397892,3.1509780113060657L-25.388942643506542,-8.249367531402822L-5.993516340710755,-8.249367531402825Z" transform="translate(467.8547593849218,495.63527947313924)rotate(22.437273385239013)" fill="white" class="commune"><title>insee_com : 14118 
Population : 105354
 Nom : CAEN</title></path></g><text class="text" y="40" x="427" text-anchor="middle" font-size="36" font-family="Helvetica" fill="#6baed6">14  - CALVADOS</text><line x1="294.7273817676232" y1="419.14275112189864" x2="455.48851812654334" y2="490.1715274480506" stroke="yellow" opacity="0.35" stroke-width="2"/><line x1="490.39613604764565" y1="497.66642322559784" x2="783.4340326630559" y2="524.0712920075596" stroke="yellow" opacity="0.35" stroke-width="2"/><line x1="764.0930212289112" y1="543.7193270459746" x2="219.62197596961957" y2="772.7389137634101" stroke="yellow" opacity="0.35" stroke-width="2"/><line x1="184.71435804851723" y1="765.2440179858628" x2="275.3863703334785" y2="438.79078616031376" stroke="yellow" opacity="0.35" stroke-width="2"/></svg>