<svg viewBox="0,0,955,1146" width="955" height="1146" style="width: 100%; height: auto;" xmlns="http://www.w3.org/2000/svg" xmlns:xlink="http://www.w3.org/1999/xlink"><rect width="955" height="1146" fill="black"/><g stroke="#000" stroke-opacity="0.2"><path d="M0,-22.448162112566994L5.039926405668234,-6.936863585267022L21.349470856006818,-6.936863585267023L8.154772225169292,2.649646114250548L13.19469863083753,18.16094464155052L8.881784197001252e-16,8.574434942032948L-13.194698630837525,18.160944641550522L-8.154772225169292,2.649646114250549L-21.34947085600682,-6.936863585267019L-5.0399264056682345,-6.936863585267021Z" transform="translate(478.79101283880163,730.9609816231095)rotate(6.176073304933692)" fill="white" class="commune"><title>81065 Population : 41338</title></path><path d="M0,-22.448162112566994L5.039926405668234,-6.936863585267022L21.349470856006818,-6.936863585267023L8.154772225169292,2.649646114250548L13.19469863083753,18.16094464155052L8.881784197001252e-16,8.574434942032948L-13.194698630837525,18.160944641550522L-8.154772225169292,2.649646114250549L-21.34947085600682,-6.936863585267019L-5.0399264056682345,-6.936863585267021Z" transform="translate(420.6954350927249,453.84592378258094)rotate(7.769340415587623)" fill="white" class="commune"><title>81004 Population : 49024</title></path></g><text class="text" y="40" x="427.5" text-anchor="middle" font-size="36" font-family="Helvetica" fill="#6baed6">81 - TARN</text><line x1="424.56847360913" y1="472.3202609719495" x2="474.9179743223965" y2="712.4866444337409" stroke="yellow" opacity="0.35" stroke-width="2"/><line x1="474.9179743223965" y1="712.4866444337409" x2="424.56847360913" y2="472.3202609719495" stroke="yellow" opacity="0.35" stroke-width="2"/></svg>