<svg viewBox="0,0,954,1144.8" width="954" height="1144.8" style="width: 100%; height: auto;" xmlns="http://www.w3.org/2000/svg" xmlns:xlink="http://www.w3.org/1999/xlink"><rect width="954" height="1144.8" fill="black"/><g stroke="#000" stroke-opacity="0.2"><path d="M0,-15.873247654971056L3.5637661381291506,-4.905103281308338L15.096355617026989,-4.905103281308339L5.766294739448918,1.873582735131148L9.330060877578072,12.841727108793865L8.881784197001252e-16,6.063041092354379L-9.330060877578068,12.841727108793867L-5.766294739448918,1.8735827351311491L-15.09635561702699,-4.905103281308335L-3.563766138129152,-4.905103281308337Z" transform="translate(289.3078141081468,614.0099086647169)rotate(24.093115087997457)" fill="white" class="commune"><title>insee_com : 82033 
Population : 13944
 Nom : CASTELSARRASIN</title></path><path d="M0,-22.448162112566994L5.039926405668234,-6.936863585267022L21.349470856006818,-6.936863585267023L8.154772225169292,2.649646114250548L13.19469863083753,18.16094464155052L8.881784197001252e-16,8.574434942032948L-13.194698630837525,18.160944641550522L-8.154772225169292,2.649646114250549L-21.34947085600682,-6.936863585267019L-5.0399264056682345,-6.936863585267021Z" transform="translate(465.0836038318424,637.6010877987574)rotate(29.483022032485987)" fill="white" class="commune"><title>insee_com : 82121 
Population : 60810
 Nom : MONTAUBAN</title></path></g><text class="text" y="40" x="427" text-anchor="middle" font-size="36" font-family="Helvetica" fill="#6baed6">82  - TARN ET GARONNE</text><line x1="301.0262000897265" y1="615.5826539403196" x2="453.3652178502627" y2="636.0283425231547" stroke="yellow" opacity="0.35" stroke-width="2"/><line x1="453.3652178502627" y1="636.0283425231547" x2="301.0262000897265" y2="615.5826539403196" stroke="yellow" opacity="0.35" stroke-width="2"/></svg>