<svg viewBox="0,0,954,1144.8" width="954" height="1144.8" style="width: 100%; height: auto;" xmlns="http://www.w3.org/2000/svg" xmlns:xlink="http://www.w3.org/1999/xlink"><rect width="954" height="1144.8" fill="black"/><path d="M225.91608012993993,240.37239887776377L222.8162786500634,238.20535819909855L218.98231366179334,235.81012627122982L218.24815015340164,235.23982030937623L216.20880707453443,233.98513007196016L214.98520122721447,233.41480854494876L213.19057931781254,232.27415089763963L211.47753113156432,232.27415089763963L209.68290922216147,232.50228398375475L209.03031943692395,232.50228398375475L204.62533838657237,232.73041629153886L204.70691210972655,232.04601703318622L205.03320700234508,231.5897469692136L205.5226493412738,230.6771975008378L205.5226493412738,230.44905818775442L205.1963544486548,229.65056446196832L205.35950189496407,228.96613367875398L205.6857967875826,228.39576934083016L206.66468146543957,227.14095067061862L207.7251398664498,226.2283404822665L207.806713589604,225.2016391303987L208.62245082115123,225.08756022920716L208.78559826746005,225.31571783698018L208.78559826746005,225.77203071676922L208.94874571376977,225.77203071676922L209.19346688323367,225.54387466616026L209.68290922216147,225.31571783698018L210.17235156109018,224.85940184287028L210.41707273055363,224.40308273427218L210.5802201768629,224.06084135899437L211.64067857787404,223.37635335258528L211.88539974733703,223.2622713368837L212.70113697888428,223.2622713368837L212.78271070203846,222.92002412173315L213.109005594657,222.92002412173315L213.76159537989452,222.92002412173315L214.25103771882277,222.69185833826486L214.4141851651325,222.34960820308333L214.00631654935842,222.00735631584394L213.68002165674034,221.32284728503873L213.76159537989452,220.86650403751992L214.0878902725135,220.86650403751992L214.57733261144176,220.41015767501813L215.06677495037002,220.29607059769478L215.55621728929736,220.1819833256377L215.96408590507144,220.29607059769478L216.53510196715342,220.1819833256377L216.86139685977196,219.95380819749698L217.18769175239095,219.26927814030932L217.18769175239095,218.92701048325398L217.35083919870067,218.69883107170608L217.51398664500994,218.35656049411045L217.43241292185485,218.01428816413681L217.67713409131875,217.67201408171968L218.24815015340164,217.55792233150714L218.98231366179334,217.21564591249626L219.63490344703087,217.21564591249626L220.695361848042,216.75927462780237L221.42952535643326,216.07471185900795L222.08211514167078,215.61833278524136L222.8162786500634,214.24917686929984L223.14257354268193,213.90688350861456L223.55044215845464,213.222291529004L223.79516332791854,211.96718802335818L224.03988449738245,211.28257617822237L223.87673705107363,209.79922645918123L223.87673705107363,209.57101588841033L223.9583107742278,209.11459240935073L224.12145822053753,207.97352007620066L224.12145822053753,207.1747578524155L223.9583107742278,206.94653832092445L224.03988449738245,206.60420756262465L224.12145822053753,206.49009692022082L224.52932683631025,206.14776382415585L225.2634903447024,205.3489797813454L225.3450640678575,204.89252747073624L226.65024363833254,204.89252747073624L227.71070203934278,204.89252747073624L229.83161884136416,204.55018619214388L230.48420862660078,203.9796134977587L230.72892979606513,203.52315183521569L231.70781447392073,202.49610169624066L232.03410936653972,201.24079675951361L233.09456776755042,200.89843677566387L233.6655838296333,200.44195406907966L234.23659989171574,199.98546824461664L234.88918967695327,199.64310183012276L235.21548456957134,199.41485657942394L235.37863201588107,198.8442400422573L235.54177946218988,198.15949376661592L236.35751669373713,197.13236119808425L236.76538530950984,196.33346939721378L239.29417072730575,184.12064865641878L238.64158094206732,179.0979063842533L237.4995488179029,173.96062027535663L240.43620285147017,169.27963785616885L241.41508752932623,167.56700135547726L242.23082476087257,165.85432094379212L242.8018408229559,164.94087343502179L243.1281357155749,163.79904648246156L244.51488900920322,161.05858215547778L244.75961017866757,161.28695847732888L245.00433134813147,161.28695847732888L245.49377368705973,160.6018271691646L245.656921133369,160.14506905929738L245.98321602598753,160.03087904377753L246.79895325753478,159.34573485080182L247.6962642122362,158.8889681508299L248.10413282800891,159.0031601186929L248.34885399747282,159.23154346863885L248.26728027431818,160.14506905929738L248.51200144378208,160.71601620855654L249.16459122901915,160.83020505275636L249.49088612163814,160.71601620855654L249.81718101425668,160.4876379345369L249.9803284605664,160.03087904377753L250.46977079949465,159.5741170293768L250.7144919689581,158.66058362943295L251.61180292365952,157.97542537948175L252.18281898574196,157.061870112404L252.50911387836095,156.71928366561042L253.16170366359802,156.4908917247958L254.4668832340726,156.3766954614839L257.24038982133106,156.3766954614839L258.0561270528783,156.1483023491237L259.0350117307339,155.69151378123934L260.2586175780539,155.00632507144473L260.8296336401372,154.43532910995418L261.80851831799237,153.29332254115434L262.6242555495396,152.83651444564748L263.27684533477714,152.7223119335249L264.3373037357874,153.1791208102004L264.90831979787026,153.29332254115434L267.2739577693551,152.83651444564748L267.43710521566436,152.608109226152L268.7422847861394,150.895045179539L269.394874571376,150.20980725666595L270.618480418696,149.5245623025039L272.08680743548075,148.382471753117L272.16838115863493,148.03984077941277L272.00523371232566,147.0119373101261L273.0656921133359,146.78351216820738L274.0445767911924,146.78351216820738L275.02346146904847,146.32665954023105L277.06280454791477,147.12614958807535L278.0416892257713,147.24036167066515L278.8574264573176,147.12614958807535L279.67316368886395,146.32665954023105L280.5704746435654,145.64137473780283L281.95722793719506,143.9281319628135L282.2019491066594,143.12860362452193L282.12037538350387,141.64373988266016L282.2835228298136,141.1868520881544L282.44667027612286,141.07262965105474L283.99657101606135,140.27306712009886L286.1990615412369,138.10277769929962L286.36220898754664,137.76009397356393L286.28063526439246,136.61780218505737L286.5253564338559,136.1608799975147L286.77007760332026,135.36125864485075L287.1779462190939,134.56162771533127L287.5042411117124,134.1046914556573L288.0752571737944,133.87622215307056L288.809420682187,133.87622215307056L289.62515791373335,134.21892581378052L290.1146002526616,134.67586129163828L290.6856163147445,135.93241773111367L291.17505865367184,136.27511083754507L291.66450099260055,136.61780218505737L292.39866450099225,137.30317960330285L292.7249593936108,138.21700521701132L293.1328280093844,142.78594569173583L294.03013896408584,143.12860362452193L295.33531853456043,143.01438450899877L299.08770979967494,143.5854781329399L300.1481682006852,143.6996962715857L302.1875112795524,143.35704126945348L303.2479696805626,145.75558935992012L303.5742645731807,146.2124458948747L307.57137700775957,150.32401406543795L308.468687962461,151.46607141094137L311.8132106118028,155.00632507144473L312.30265295073013,155.46311832572974L313.28153762858665,155.5773161511097L315.3208807074534,156.03410550006083L318.66540335679474,157.17606520414847L319.64428803465034,157.5186493079309L319.80743548096007,157.40445480191556L320.8678938819703,152.03709275978326L326.41490705648766,151.80868480615027L326.90434939541547,155.23472208912426L326.98592311857055,155.34892030504852L327.6385129038076,158.66058362943295L326.74120194910665,159.34573485080182L325.10972748601307,160.4876379345369L325.5991698249409,161.51533401831693L324.5387114239302,162.42882837379148L323.3151055766102,162.77138553615805L322.9072369608375,163.2281256865026L322.4177946219088,163.2281256865026L322.09149972929026,163.57067874966015L323.1519581303005,171.33474369934993L323.55982674607503,175.7872561510012L324.13084280815656,178.1846399471542L326.08861216386913,177.49968192660162L326.49648077964184,178.1846399471542L326.74120194910665,178.98374876231537L327.23064428803355,179.44037807967834L327.6385129038076,179.66869156802568L328.53582385850905,179.78284801964037L329.35156109005584,179.8970042761648L329.84100342898364,179.78284801964037L331.0646092763036,179.2120638111155L332.0434939541592,178.98374876231537L332.4513625699328,178.6412747262002L332.77765746255136,178.5271163240177L333.1039523551699,178.6412747262002L333.43024724778843,178.8695909453454L333.26709980147916,179.2120638111155L333.34867352463334,179.44037807967834L333.6749684172528,179.5545349213644L334.2459844793357,179.2120638111155L335.2248691571913,179.0979063842533L335.30644288034637,179.44037807967834L335.632737772964,179.78284801964037L336.1221801118927,180.23947187548765L336.6116224508214,180.467782633139L336.85634362028395,180.467782633139L337.42735968236775,180.01116033764265L337.7536545749854,179.8970042761648L338.2430969139141,180.01116033764265L338.97726042230533,180.35362735184754L339.38512903807987,180.467782633139L340.1192925464711,180.467782633139L340.2008662696253,180.58193771941296L340.2824399927804,181.03855611398467L339.95614510016185,181.8376307955332L340.03771882331694,181.9517835413135L340.2824399927804,182.06593609209085L341.0981772243276,181.9517835413135L341.2613246706369,182.06593609209085L341.50604584010034,182.52254434479255L341.42447211694525,183.43575148905802L341.0981772243276,184.12064865641878L341.01660350117254,184.5772428677301L341.2613246706369,184.6913909330251L341.50604584010034,184.6913909330251L341.91391445587396,184.4630946074103L342.07706190218323,184.34894615210214L342.7296516874203,184.23479750178376L344.8505684894417,184.5772428677301L345.50315827467966,184.23479750178376L345.8294531672982,184.34894615210214L346.318895506226,184.5772428677301L346.64519039884453,185.2621283344488L347.05305901461816,185.83286086077715L347.4609276303918,186.63187820777966L347.4609276303918,187.65917218609684L347.2977801840816,188.11574221800402L347.2977801840816,188.68645037092938L347.7872225230103,189.82785205393157L347.8687962461645,190.05613005095074L348.11351741562885,190.17026875704323L348.195091138783,190.39854558428488L348.52138603140156,190.51268370549224L348.847680924021,190.62682163173304L349.8265656018757,191.19750833862054L350.3160079408044,191.42578165672603L351.7843349575887,191.42578165672603L352.4369247428258,190.969234240707L353.57895686699067,191.19750833862054L353.9052517596101,191.0833713871616L354.55784154484627,190.7409593630291L355.047283883775,190.7409593630291L355.69987366901205,190.28440726814733L356.4340371774042,189.3712937203236L356.923479516332,189.02887292298692L359.5338386572812,188.45816769465455L359.9417072730548,188.11574221800402L360.0232809962099,188.22988423854986L360.5127233351368,187.8874575919981L362.552066414004,188.00160000250617L363.77567226132396,188.68645037092938L363.6940985381698,189.59957327705342L363.77567226132396,189.82785205393157L364.7545569391805,190.7409593630291L365.2439992781083,190.7409593630291L366.38603140227315,190.39854558428488L367.0386211875111,189.71371276299033L367.0386211875111,189.3712937203236L367.44648980328475,188.68645037092938L367.7727846959033,188.68645037092938L369.1595379895325,189.02887292298692L369.0779642663774,190.85509689935134L369.97527522107885,191.42578165672603L370.1384226673872,191.65405419506715L370.1384226673872,191.88232595357113L370.056848944233,192.33886713130778L370.1384226673872,193.48020643002383L370.056848944233,194.1650006525524L369.56740660530613,195.5345680460523L369.2411117126867,195.9910842733152L368.5885219274487,196.7899801671083L367.44648980328475,197.58886651077773L366.2228839559639,199.64310183012276L364.5914094928712,200.09958999304945L364.5098357697161,200.21371154658846L363.6125248150147,200.55607503801002L359.37069121097284,202.83845349617332L359.12597004150757,202.83845349617332L358.71810142573486,203.1808035425056L358.5549539794256,203.06668705525954L358.4733802562714,203.52315183521569L358.22865908680706,203.86549837439816L358.0655116404978,204.43607204292493L358.0655116404978,205.120754015712L357.57606930157,206.83242826294736L355.8630211153222,210.02743625084258L353.66053059014484,210.02743625084258L353.17108825121795,209.34280453845713L351.70276123443364,210.48385349678574L351.70276123443364,210.9402676262689L349.9081393250308,211.28257617822237L349.418696986103,211.62488297726668L348.03194369247376,212.19539041360986L345.7478794441431,212.6517928569374L345.3400108283704,210.9402676262689L343.219094026349,210.5979573213408L342.07706190218323,210.5979573213408L341.42447211694525,210.7120609510821L339.7114239306984,211.16847352235345L337.6720808518312,214.3632742667105L333.6749684172528,212.19539041360986L333.5118209709435,212.19539041360986L332.77765746255136,212.6517928569374L331.5540516152314,213.90688350861456L330.1672983216022,215.50423752998176L329.35156109005584,217.32973824688816L328.9436924742822,218.81292087485053L329.0252661974373,219.4974556048328L329.35156109005584,220.0678958589051L329.43313481321,220.41015767501813L329.43313481321,220.6383312456528L329.0252661974373,221.4369326102169L328.86211875112804,222.12144047292531L329.0252661974373,222.80594132733677L328.9436924742822,223.60451680003462L329.18841364374657,224.40308273427218L329.18841364374657,226.0001859887925L329.0252661974373,227.3691012713898L329.35156109005584,228.05354840261862L329.43313481321,228.62391565982398L330.085724598448,229.3083499461136L330.24887204475726,229.65056446196832L330.085724598448,230.22091809627454L330.1672983216022,231.0194050109494L329.9225771521378,231.81788239037996L329.26998736690075,232.84448215357406L328.9436924742822,233.52887323949835L328.4542501353535,233.98513007196016L328.2095289658905,234.44138379130163L327.7200866269618,235.5820044701395L327.47536545749836,236.60854644651408L326.25175961017794,236.83666474569327L326.0070384407136,236.95072360344057L325.4360223786316,237.74913016056234L324.0492690850019,238.8896944209264L323.0703844071463,240.03023922856664L322.9072369608375,240.37239887776377L322.9072369608375,241.39886732166633L322.7440895145278,241.85507046178827L322.499368345063,241.85507046178827L322.3362208987546,241.74101996850368L322.1730734524449,241.74101996850368L321.92835228298054,241.96912076055742L321.5204836672078,241.85507046178827L320.7047464356606,242.31127048991766L319.8890092041147,243.4517569455711L319.31799314203136,243.90794608217402L319.15484569572163,244.2500858925705L319.07327197256745,244.7062695836794L318.58382963363965,245.27649482192646L319.07327197256745,246.30288799919072L319.31799314203136,247.44330638903193L319.39956686518644,248.9258212255736L319.39956686518644,251.2065491180765L319.56271431149617,251.89075232084724L320.1337303735786,252.57494852483796L321.43890994405274,253.3731685840321L322.499368345063,254.5134664305515L321.68363111351755,254.85555199386727L321.11261505143466,255.42569071171602L319.64428803465034,256.109850758643L318.8285508031031,256.3379025525792L318.4206821873304,256.5659535690502L315.7287493232261,258.39033371216647L313.3631113517408,260.328683098036L311.89478433495697,261.240828080925L311.40534199602916,261.46886238334264L309.85544125609067,261.46886238334264L309.44757264031705,261.46886238334264L308.95813030138925,261.01279300119495L308.30554051615263,261.1268106382413L309.03970402454433,262.15296062677226L309.7738675329356,263.0650807360871L310.58960476448283,263.2931088202531L310.997473380256,263.179094875326L311.40534199602916,262.951066402522L311.65006316549307,262.951066402522L311.32376827287453,263.40712257089035L311.24219454971944,263.6351494892151L310.997473380256,263.86317563030025L309.36599891716287,264.2052133846446L308.30554051615263,264.77527242249926L306.18462371413034,266.7134368183906L306.1030499909757,266.8274447401782L306.1030499909757,267.0554600008909L305.2057390362752,268.3095300441928L304.9610178668104,269.5635765812913L304.14528063526404,270.1335899642145L303.9821331889548,270.24759205804L303.9005594657997,270.4755956629888L304.06370691210896,271.5016022700147L303.81898574264505,271.95760015625274L303.81898574264505,272.413594934711L303.41111712687234,273.09758127556415L302.9216747879441,274.3515380740282L302.9216747879441,274.9215106683914L303.0848222342538,275.4914784075372L303.0848222342538,275.83345672057476L302.4322324490163,277.88528989610495L302.26908500270656,279.13915697549965L301.61649521746904,280.5069851757653L301.2902003248505,282.44469393319014L301.2086266016963,282.90061725141277L301.2086266016963,284.496324404332L301.4533477711602,285.2941637125914L301.61649521746904,285.5221160536166L301.8612163869334,285.8640431093081L301.8612163869334,286.4339176532085L302.1875112795524,287.45967960367125L301.77964266377876,288.713367303666L301.77964266377876,289.28321758563834L301.4533477711602,290.6508384663248L300.7191842627676,292.2463608401231L298.84298863021013,290.6508384663248L298.6798411839018,290.3089358661309L297.37466161342627,289.5111563398241L296.88521927449847,289.16924791740166L296.72207182818875,288.713367303666L295.9063345966433,287.9155687573293L295.6616134271785,287.6876245686799L294.8458761956322,286.77584005027165L294.11171268724047,286.77584005027165L291.74607471575473,286.3199431326502L290.52246886843477,286.20596841796214L289.62515791373335,285.63609193296725L288.9725681284958,285.18018725090224L288.6462732358773,285.06621059511235L287.3410936654027,285.06621059511235L286.77007760332026,285.06621059511235L286.28063526439246,284.9522337452072L282.7729651687414,284.61030203072005L280.5704746435654,284.7242794630147L279.67316368886395,284.9522337452072L278.12326294892546,285.06621059511235L278.12326294892546,284.0404119575105L278.0416892257713,283.58449640464096L277.14437827106985,281.98876750870113L276.73650965529623,281.64682065180386L276.41021476267815,280.9629216960311L275.5944775311309,281.30487204759265L275.02346146904847,281.87478541723976L274.45244540696604,282.2167311092271L272.820970943872,282.5586750539369L272.4131023280993,282.7866367130482L271.2710702039335,282.7866367130482L271.10792275762424,282.5586750539369L270.618480418696,281.1908887912359L270.4553329723876,281.07690534069843L269.6395957408404,280.27901575068245L269.1501534019126,280.16503074689535L268.9870059556033,279.9370601568662L268.57913733983014,279.9370601568662L268.2528424472116,280.0510455489639L267.7634001082829,279.8230745705878L266.8660891535819,278.7971955566827L265.80563075257123,277.08736224859604L262.37953438007526,276.97337180792965L260.74805991698213,276.8593811730607L257.9745533297232,276.0614412916111L257.4035372676408,275.83345672057476L252.34596643205168,274.9215106683914L250.46977079949465,274.4655329813031L249.81718101425668,274.2375429725071L247.53311676592648,274.00955218688614L247.53311676592648,273.78156062436756L245.24905251759583,274.00955218688614L243.86229922396615,274.00955218688614L241.25194008301742,275.0355046046243L238.64158094206732,275.60547137273534L237.98899115683025,275.83345672057476L235.94964807796396,276.8593811730607L234.23659989171574,276.97337180792965L230.72892979606513,277.6573115391584L228.77116044035347,277.4293324054888L227.46598086987888,277.54332206943945L222.73470492690785,279.02517003007233L220.9400830175059,279.3671302838702L221.51109907958744,278.7971955566827L222.2452625879805,277.6573115391584L222.73470492690785,275.60547137273534L222.8162786500634,274.80751653792686L222.8162786500634,270.70359849090164L222.73470492690785,269.90558519379556L222.89785237321757,268.76554968640994L222.16368886482496,268.08151905748673L220.7769355711962,266.3714118873904L220.2059195091133,265.8013664500031L219.14546110810306,264.43323758268525L218.4112975997109,263.179094875326L217.59556036816412,262.3809918200059L216.77982313661732,260.5567205097541L216.12723335138026,258.84642097362666L214.98520122721447,256.5659535690502L214.98520122721447,256.3379025525792L214.74048005775148,255.6537448382296L215.1483486735242,254.62749514606548L215.4746435661432,253.1451066820082L215.7193647356071,252.57494852483796L217.26926547554558,250.86444489203132L218.49287132286554,250.18023119062127L218.737592492329,249.95215840137098L219.30860855441233,248.81178278943116L219.55332972387578,248.12754808924365L220.36906695542302,247.5573471585376L220.61378812488647,246.7590576886214L220.7769355711962,246.64501555792958L221.10323046381473,246.1888450906772L223.87673705107363,246.07480198771373L225.0187691752385,246.30288799919072ZM168.97762136798383,365.2577992114748L170.03807976899452,365.371639458157L170.1196534921487,364.2332282879288L170.52752210792187,363.20864169747074L172.24057029417008,363.09479777586967L173.8720447572632,361.8425018715061L174.52463454250073,361.2732687229509L174.9325031582748,360.70403073827765L178.7664681465435,356.4915193328561L179.58220537808984,356.94693874051154L180.0716477170181,357.5162086467026L180.96895867171952,357.97162108906923L181.29525356433805,356.94693874051154L181.78469590326677,353.53121772035956L182.1109907958853,352.8480526177882L182.68200685796728,352.27874304389843L182.92672802743118,351.481701512399L183.49774408951362,350.7985155091228L183.5793178126687,350.6846504978821L183.90561270528724,350.3430543028808L186.1081032304628,351.481701512399L186.84226673885496,350.5707852930791L189.1263309871856,349.3182552665821L193.5313120375381,346.2437640893695L194.02075437646545,345.90214524793555L194.5917704385488,345.67439838575956L194.5917704385488,344.4217768024246L194.34704926908444,343.62464178036316L194.75491788485806,343.3968871745383L196.0600974553322,342.48586100700777L199.40462010467354,341.80258324978786L200.4650785056847,341.46094175733015L201.85183179931346,341.46094175733015L202.17812669193245,337.47499558149866L202.34127413824217,336.56388886282366L203.23858509294314,334.2860678394427L205.84894423389233,333.37491773807415L207.15412380436646,331.66647788586124L207.88828731275953,330.8691910396956L208.54087709799614,329.8440940043729L209.8460566684712,329.27458887120156L210.90651506948143,328.70507889481814L213.43530048727598,327.5660444120658L213.51687421043152,327.79385285852914L215.31149611983346,327.4521398982397L217.26926547554558,327.90775679112994L218.00342898393728,327.79385285852914L219.4717560007216,327.4521398982397L221.91896769536197,326.4269905550682L223.7135896047639,325.9713635872977L226.0792275762492,324.8322826047006L226.8133910846409,324.6044640830223L227.6291283161877,324.4905545315414L230.56578234975586,324.8322826047006L230.89207724237485,324.8322826047006L228.85273416350765,327.79385285852914L227.05811225410525,329.8440940043729L225.91608012993993,332.34985905661597L226.24237502255892,332.46375524046016L229.50532394874517,333.1471282758066L230.32106118029242,329.7301933652052L231.05522468868412,329.27458887120156L233.9103049990972,329.1606872633638L240.028334235697,328.81898127755994L242.1492510377184,329.27458887120156L244.43331528604904,329.3884902852733L247.9409853816992,329.8440940043729L248.6751488900918,327.90775679112994L249.32773867532887,328.0216605300375L252.67226132467022,326.65480287645914L256.58780003609354,326.9965199054277L260.3401913012085,322.5540625086287L264.5004511820971,319.2505056818409L270.7816278650057,316.51640435260924L271.4342176502432,316.0607099431072L272.576249774409,315.83286157525436L274.53401913012067,315.1493118194703L278.6127052878537,313.21254961259547L281.05991698249363,311.6175269022933L284.73073452445396,309.68066252272547L285.46489803284567,309.11098586442677L286.28063526439246,308.1994931280642L287.09637249593834,307.4019268032862L287.8305360043314,306.9461703514753L288.483125789568,306.71829096206056L289.4620104674241,306.03464813944447L290.1146002526616,305.46494045411964L291.25663237682693,304.21156647981843L291.58292726944546,303.9836777813398L292.8065331167654,303.86973314120405L294.51958130301364,302.61632929854386L295.0090236419419,301.932644583263L295.6616134271785,301.36290198641655L297.21151416711746,300.90710441739793L297.94567767550916,300.4513037447323L299.08770979967494,299.9954999683905L301.4533477711602,299.88154853932065L302.6769536184793,299.88154853932065L304.8794441436562,299.9954999683905L305.6136076520479,299.9954999683905L307.24508211514103,300.2234022445482L308.7949828550795,300.3373530916215L310.0185887023995,300.1094512034397L311.24219454971944,299.65364509924984L312.0579317812667,299.7675969162956L313.60783252120564,299.65364509924984L315.0761595379886,299.31178848424315L316.13661793899973,298.7420235793543L316.78920772423726,298.17225382452307L318.33910846417575,296.69082976345817L319.15484569572163,296.0070845227019L320.2968778198874,294.8674935996605L322.7440895145278,293.61392117365904L325.10972748601307,292.2463608401231L326.82277567226083,291.1067058829285L327.23064428803355,290.6508384663248L328.78054502797204,289.5111563398241L328.78054502797204,289.16924791740166L329.26998736690075,288.713367303666L331.22775672261287,287.6876245686799L331.5540516152314,287.45967960367125L333.5118209709435,286.8898137944343L335.1432954340371,286.3199431326502L337.34578595921266,285.8640431093081L338.2430969139141,285.5221160536166L338.6509655296877,285.2941637125914L339.0588341454604,285.06621059511235L340.03771882331694,285.18018725090224L340.2824399927804,285.06621059511235L340.690308608554,284.7242794630147L341.3428983937911,284.61030203072005L341.91391445587396,284.3823465838359L342.6480779642652,284.2683685691736L343.219094026349,284.0404119575105L344.3611261505139,283.69847558406764L345.2584371052144,283.0145975956111L345.99260061360746,282.5586750539369L346.318895506226,282.5586750539369L347.54250135354596,282.5586750539369L348.52138603140156,282.2167311092271L348.7661072008659,281.87478541723976L349.01082837032936,281.4188551098414L350.4791553871137,280.16503074689535L351.53961378812437,280.3930005603179L353.0895145280638,279.70908879017225L353.9868254827643,278.9111828904788L354.80256271431153,278.4552323903117L355.69987366901205,277.99927878331073L356.18931600794076,277.99927878331073L357.0050532394871,277.54332206943945L357.9839379173427,276.74539034401096L359.452264934127,275.37748524809285L360.5942970582928,274.57952769439726L361.73632918245676,275.83345672057476L364.83613066233465,281.07690534069843L366.0597365096546,282.67265598058293L366.6307525717375,284.0404119575105L366.87547374120186,284.9522337452072L366.87547374120186,285.63609193296725L366.95704746435604,286.09199350916606L366.79390001804677,288.1435121695613L366.95704746435604,288.37145480549225L367.1201949106653,289.625125425795L367.85435841905746,292.13239621766843L368.0990795885218,293.27203370990173L368.42537448114035,294.0697684087281L368.99639054322324,296.34895801617677L369.48583288215104,296.69082976345817L370.056848944233,297.37456801967346L371.6883234073266,298.7420235793543L372.58563436202803,299.88154853932065L373.07507670095583,300.5652542038806L373.809240209348,302.1605402642235L374.62497744089524,302.1605402642235L375.60386211874993,302.1605402642235L375.9301570113694,302.2744878137746L376.01173073452355,302.50238233090204L376.58274679660644,302.61632929854386L378.2957949828551,302.8442226519328L378.54051615231856,302.95816903769446L379.5194008301751,303.41395264108723L380.9877278469585,303.30000703118276L381.8034650785057,302.1605402642235L382.7823497563604,302.3884351693123L382.8639234795155,302.50238233090204L383.67966071106275,302.50238233090204L384.65854538891836,302.8442226519328L386.942609637249,303.30000703118276L388.5740841003426,303.86973314120405L389.71611622450746,304.09762222754944L390.4502797328996,304.439454402469L390.85814834867233,304.439454402469L391.42916441075613,304.3255105381031L391.5923118570654,304.3255105381031L393.5500812127775,305.23705602247355L394.44739216747894,305.8067656471321L395.099981952716,306.03464813944447L396.0788666305716,306.60435097642767L397.30247247789157,309.4527924411159L397.7103410936652,309.3388571094474L398.36293087890226,309.56672757885826L399.42338927991295,309.7945972726666L399.1786681104486,305.8067656471321L400.5654214040778,304.89522792040225L402.8494856524094,303.1860612273158L405.1335499007391,301.932644583263L405.7861396859771,301.47685089374136L406.928171810142,300.3373530916215L407.00974553329706,300.3373530916215L408.15177765746193,299.08388310425653L409.62010467424534,298.17225382452307L410.7621367984111,297.48852371666L411.0068579678755,297.6024792196695L413.3724959393612,296.8047866245397L413.61721710882466,296.57687270839233L414.26980689406173,296.12104254788574L414.59610178668026,295.5512504818107L414.75924923299044,295.32333229720825L415.0039704024539,295.20937291385053L415.4118390182275,295.09541333649395L415.9828550803104,294.41165179761447L416.8801660350118,293.8418451792677L417.12488720447527,293.49995887977275L417.12488720447527,293.27203370990173L417.69590326655816,292.7022173894147L418.5116404981045,292.4742895028685L418.83793539072303,292.01843140114215L419.0826565601874,291.7905011859475L419.4089514528059,291.9044663905879L419.81682006857955,292.13239621766843L420.1431149611981,292.13239621766843L420.9588521927444,291.2206722519404L421.0404259158995,290.87877256277716L421.2035733622088,290.76480561160133L421.6114419779815,290.87877256277716L421.85616314744584,290.87877256277716L422.1008843169102,290.6508384663248L422.34560548637364,290.42290359360777L422.83504782530235,289.96703151931433L423.0797689947658,290.0809998289769L423.24291644107507,289.85306301556557L423.81393250315796,288.9413079987062L424.9559646273228,288.1435121695613L425.2822595199423,288.0295405604993L425.7717018588701,287.8015967600659L425.93484930517934,287.8015967600659L426.2611441977979,288.2574835845735L426.7505865367257,287.9155687573293L427.1584551524993,288.0295405604993L427.566323768272,287.573652183215L427.7294712145822,287.231733862267L428.1373398303549,287.11776070042833L428.46363472297344,286.77584005027165L428.7083558924378,286.66186611199373L428.95307706190215,286.4339176532085L429.1977982313656,286.09199350916606L429.44251940082995,285.9780184062838L429.6056668471392,286.09199350916606L429.8503880166036,285.63609193296725L430.095109186067,285.5221160536166L430.3398303555314,285.18018725090224L431.0739938639226,284.61030203072005L431.318715033387,284.3823465838359L431.48186247969625,284.2683685691736L431.6450099260055,283.69847558406764L431.8081573723148,283.47051703111356L432.37917343439767,283.47051703111356L433.03176321963474,282.67265598058293L433.11333694278983,282.3307126182626L433.43963183540836,281.87478541723976L433.60277928171763,281.53283797788754L433.92907417433617,281.64682065180386L434.50009023641815,281.53283797788754L434.98953257534686,281.1908887912359L435.1526800216561,281.1908887912359L435.2342537448112,281.30487204759265L435.2342537448112,281.64682065180386L435.56054863742975,281.76080313159036L435.8052698068941,281.76080313159036L436.94730193105806,281.4188551098414L437.3551705468326,281.64682065180386L437.59989171629604,281.64682065180386L437.59989171629604,280.5069851757653L437.59989171629604,279.9370601568662L437.51831799314186,279.48111664681346L437.19202310052333,278.56922030659916L437.19202310052333,278.3412442798144L436.94730193105806,277.99927878331073L436.94730193105806,277.4293324054888L436.62100703844044,277.2013524950744L436.4578595921312,276.63139932075137L436.3762858689761,276.2894250858517L436.4578595921312,275.9474491031797L435.8868435300483,275.0355046046243L435.6421223605839,274.80751653792686L435.47897491427557,274.3515380740282L434.98953257534686,273.667564551768L434.6632376827283,273.32557516872475L434.09222162064543,272.98358403763996L434.6632376827283,272.75558897914743L435.2342537448112,272.413594934711L435.7236960837381,271.95760015625274L436.7025807615955,271.5016022700147L437.3551705468326,271.27360216144734L438.66035011730673,270.93160054185137L440.2918245804003,270.36159395764116L440.9444143656374,270.01958767615724L442.4127413824217,268.9935583419792L442.73903627504023,268.9935583419792L443.14690489081295,268.6515450672596L443.881068399206,268.3095300441928L445.104674246526,268.08151905748673L446.0019852012265,267.5114881909976L446.5730012633094,267.28347448446584L446.980869879083,266.9414524676613L447.4703122180099,266.9414524676613L448.5307706190215,267.16946733981604L449.0202129579493,267.9675132727134L449.4280815737229,268.3095300441928L449.9175239126507,269.4495733219228L450.08067135896,269.5635765812913L450.08067135896,270.93160054185137L450.81483486735215,273.09758127556415L451.38585092943504,273.2115783192421L451.9568669915179,273.2115783192421L452.527883053599,273.89555650272086L453.0173253925277,274.2375429725071L453.26204656199207,274.57952769439726L453.0988991156828,275.0355046046243L452.0384407146721,276.4034166916681L451.9568669915179,276.97337180792965L451.79371954520775,277.2013524950744L450.9779823136605,277.88528989610495L450.73326114419706,278.22725597517274L449.9175239126507,280.3930005603179L449.67280274318637,281.53283797788754L449.26493412741365,282.1027494060254L449.5912290200322,282.90061725141277L449.67280274318637,283.35653746344906L449.83595018949654,283.47051703111356L449.9990976358049,283.92643336049514L450.08067135896,284.61030203072005L449.9990976358049,285.18018725090224L449.75437646634236,286.54789197965147L449.34650785056783,287.0037873444671L449.0202129579493,287.8015967600659L448.77549178848494,288.713367303666L448.69391806532985,288.8273377482474L448.69391806532985,289.0552780550788L448.85706551164003,289.5111563398241L449.0202129579493,290.76480561160133L448.9386392347951,291.9044663905879L448.69391806532985,292.8161810416277L448.85706551164003,293.8418451792677L448.5307706190215,295.32333229720825L447.551885941165,295.6652092830627L443.06533116765877,296.4629154592767L442.9837574445046,296.57687270839233L443.55477350658657,296.69082976345817L444.20736329182455,297.9443445645884L444.12578956866855,298.28620816350303L442.73903627504023,298.28620816350303L442.08644648980317,299.08388310425653L441.2707092582559,299.65364509924984L440.69969319617303,299.9954999683905L438.66035011730673,300.3373530916215L437.2735968236775,301.0210541006236L436.62100703844044,301.7047481264599L436.4578595921312,302.50238233090204L433.43963183540836,304.3255105381031L432.54232088070694,305.92070699024043L432.54232088070694,305.8067656471321L432.2160259880875,306.71829096206056L431.97130481862405,308.8831138437745L431.6450099260055,310.25033433349745L431.0739938639226,311.7314583560874L430.99242014076754,312.1871822324756L431.0739938639226,313.32647835212265L430.8292726944592,314.12397410070844L430.8292726944592,315.71893710058794L430.5845515249948,315.83286157525436L430.7476989713041,316.17463383622817L430.91084641761336,316.2885575355249L431.1555675870777,316.7442503943312L431.88973109546987,317.4277838674243L431.6450099260055,317.8834689728319L431.56343620285134,318.5669908161435L432.37917343439767,318.68091044496396L434.01064789749125,319.7061783826575L434.98953257534686,320.04793087326107L436.04999097635664,320.5035981474066L437.11044937736824,321.0731778794725L439.3129399025447,321.30100841567037L439.55766107200816,321.0731778794725L439.7208085183174,321.18709324446536L439.8023822414725,321.30100841567037L439.8023822414725,321.52883817673137L442.3311676592666,321.8705813648121L442.24959393611243,323.80709315338754L441.4338567045652,327.1104251942379L441.4338567045652,328.81898127755994L441.4338567045652,329.27458887120156L441.923299043493,330.9830897417269L441.59700415087445,331.8942723842847L441.59700415087445,332.46375524046016L441.67857787403045,332.9193380388315L442.4943151055759,334.399960730545L442.9837574445046,334.7416382417214L443.3100523371231,334.85553035809426L443.4731997834324,335.4249880347779L443.63634722974166,335.6527697497222L443.3916260602773,336.3361102465642L443.3100523371231,336.9055553347789L443.4731997834324,337.8166574056886L443.4731997834324,338.2722037934436L443.63634722974166,338.4999758254344L443.4731997834324,339.4110562076967L443.63634722974166,339.98047515334474L443.63634722974166,340.6637714982644L443.71792095289584,340.89153539754625L443.71792095289584,341.2331797942752L443.55477350658657,342.03034327663045L443.22847861396804,342.9413756396243L442.73903627504023,345.33277664062916L443.3100523371231,345.67439838575956L442.3311676592666,346.8131249535363L441.8417253203388,347.724092270495L441.10756181194665,348.4073096284701L440.2102508572452,349.659856687249L440.04710341093596,350.1153225385133L439.3129399025447,350.7985155091228L438.66035011730673,351.59556516890007L437.7630391626053,352.27874304389843L437.11044937736824,352.7341910900577L435.96841725320246,354.32823486851703L435.8052698068941,354.32823486851703L435.3158274679654,354.1005166508694L435.1526800216561,354.21437585646345L434.98953257534686,355.01138487735443L434.58166395957414,355.58067123009823L434.1737953438005,356.1499527454944L433.3580581122542,356.833084178812L433.11333694278983,357.2885012646657L433.92907417433617,358.19932614941354L435.2342537448112,358.99628776626196L435.3158274679654,359.3378398429122L435.2342537448112,359.6793901784258L434.98953257534686,360.1347879173554L434.98953257534686,360.1347879173554L435.3158274679654,360.1347879173554L435.8052698068941,360.59018256096897L436.04999097635664,360.4763341902508L436.2947121458219,360.0209387727882L436.3762858689761,359.5655402600387L436.2131384226668,359.2239893441583L436.4578595921312,358.54088228886394L437.11044937736824,358.19932614941354L437.4367442699868,358.08547371596796L438.00776033206967,358.99628776626196L437.9261866089155,358.99628776626196L438.08933405522384,360.0209387727882L438.00776033206967,360.9317265124919L437.51831799314186,362.5255752662997L437.51831799314186,363.09479777586967L438.252481501534,363.4363289604371L439.14979245623454,363.66401544969267L439.47608734885307,364.34707027533295L440.2102508572452,365.2577992114748L442.4127413824217,364.00554373289197L443.06533116765877,365.2577992114748L443.14690489081295,366.0546768766144L443.06533116765877,366.5100312875293L443.3100523371231,366.6238694067433L444.12578956866855,366.8515450649793L444.69680563075235,367.1930571019402L445.5125428622987,368.3314179880035L446.16513264753576,369.35592625127174L446.32828009384593,369.46975953588117L446.73614870961865,369.8112582293834L446.980869879083,368.78675692770776L447.14401732539227,368.559087844631L447.3887384948557,368.4452530130002L447.79660711062934,368.559087844631L448.4491968958664,369.2420927732892L449.4280815737229,370.1527551826148L450.6516874210429,371.0634052164969L451.87529326836284,371.40489578874985L452.527883053599,372.2017003566216L453.1804728388379,373.3399761619512L453.6699151777657,373.1123225476258L453.75148890091987,372.8846681599316L453.83306262407496,372.99849545046163L453.9962100703842,373.2261494514387L453.83306262407496,373.6814551333882L453.83306262407496,373.90910681438254L454.0777837935384,374.25058288577566L454.6487998556204,374.5920572172545L455.6276845334769,374.8197058049336L456.44342176502414,374.8197058049336L456.93286410395285,375.04735361930216L457.50388016603483,375.04735361930216L458.1564699512728,375.5026469281802L458.48276484389044,375.5026469281802L458.80905973650897,375.95793714395404L459.2169283522826,376.1855810919078L459.6247969680553,376.0717592145811L459.86951813751966,375.8441148799611L459.95109186067475,375.3888238909349L460.2773867532933,375.04735361930216L460.2773867532933,374.8197058049336L460.44053419960255,374.7058816077406L460.92997653853035,375.3888238909349L461.1746977079947,375.5026469281802L461.6641400469225,375.2750006603819L461.90886121638687,375.3888238909349L461.99043493954105,375.6164697720815L461.99043493954105,376.41322426664556L462.1535823858503,376.6408666681309L462.39830355531467,376.5270455640566L462.8061721710883,375.95793714395404L463.05089334055174,375.8441148799611L463.7850568489439,375.3888238909349L463.94820429525316,375.3888238909349L464.11135174156243,375.5026469281802L464.43764663418096,375.04735361930216L465.00866269626385,374.8197058049336L465.1718101425731,374.8197058049336L465.98754737411946,375.3888238909349L466.47698971304726,375.5026469281802L466.8848583288209,375.7302924226751L466.96643205197597,375.8441148799611L467.04800577513015,376.1855810919078L467.45587439090286,376.5270455640566L467.7821692835223,376.41322426664556L467.7821692835223,375.95793714395404L467.9453167298316,375.95793714395404L469.65836491608025,376.9823288205662L469.9846598086988,376.75468757893395L470.2293809781622,376.75468757893395L470.55567587078076,377.3237892332181L470.4741021476266,377.5514285418103L470.63724959393585,377.89288605492766L470.9635444865544,378.0067048393903L471.8608554412558,378.0067048393903L472.10557661071925,378.0067048393903L472.8397401191114,378.6896134868657L473.24760873488503,378.917248156351L473.65547735065775,378.917248156351L474.22649341274064,378.5757958621689L474.71593575166935,378.34816003293963L475.12380436744206,378.34816003293963L477.16314744630927,379.71396341097716L478.14203212416487,380.5106691947731L480.099801479877,381.9902405249304L481.4049810503511,381.9902405249304L482.79173434398126,381.6488038862226L484.6679299765383,380.8521116315387L487.0335679480231,380.6244835336256L487.93087890272454,380.8521116315387L488.82818985742597,381.6488038862226L490.7859592131381,382.1040523512929L491.52012272153024,382.786919251128L492.09113878361313,383.0145400050242L492.3358599530775,382.9007297247226L492.7437285688502,381.8764285053039L493.1515971846229,381.3073655081098L493.39631835408727,381.19355232888483L494.04890813932434,381.0797389563668L494.7014979245614,380.738297679236L495.6803826024179,380.6244835336256L496.1698249413457,380.8521116315387L497.2302833423564,382.3316754242769L497.3118570655115,382.44548667088384L497.2302833423564,383.12835009211267L497.47500451182077,383.58358850784134L498.209168020212,383.9250152905661L498.86175780545,384.26644033406046L499.18805269806944,384.3802482954343L499.51434759068707,384.26644033406046L500.00378992961487,383.8112065562309L500.3300848222334,383.24215998591535L500.2485110990792,382.5592977242195L500.4116585453894,382.1040523512929L500.4932322685436,382.1040523512929L500.65637971485194,382.2178639844351L501.06424833062556,382.9007297247226L501.2273957769348,382.786919251128L502.12470673163625,382.3316754242769L502.3694279011006,382.44548667088384L502.69572279371914,382.786919251128L503.10359140949276,383.0145400050242L503.3483125789562,382.9007297247226L503.59303374842057,382.9007297247226L504.24562353365764,383.3559696864904L504.73506587258544,382.786919251128L504.8166395957405,382.44548667088384L505.22450821151415,382.44548667088384L505.5508031041327,382.5592977242195L507.4269987366897,362.6394201550793L508.0795885219268,362.7532648504057L508.24273596823605,362.6394201550793L509.0584731997824,362.7532648504057L509.466341815556,362.7532648504057L509.87421043132963,362.86710935233714L510.36365277025743,362.6394201550793L510.9346688323403,362.9809536608009L511.17939000180377,362.9809536608009L512.8108644648973,362.7532648504057L513.7897491427539,362.41173018410336L514.1160440353724,362.1840394393803L515.0133549900729,361.9563479209173L516.0738133910845,362.1840394393803L517.3789929615587,362.1840394393803L518.1131564699508,362.41173018410336L518.6025988088786,362.86710935233714L519.1736148709615,363.09479777586967L520.3972207182815,363.4363289604371L520.6419418877458,363.66401544969267L523.0075798592306,365.2577992114748L525.128496661252,366.16851576943736L528.5545930337476,368.559087844631L529.6150514347582,368.78675692770776L530.2676412199962,368.78675692770776L530.3492149431504,368.90059117916826L530.3492149431504,369.1282591019699L530.2676412199962,369.46975953588117L530.2676412199962,369.46975953588117L530.5939361126148,369.58359262708836L530.6755098357689,369.58359262708836L531.0018047283875,369.8112582293834L531.2465258978527,369.69742552492244L531.4096733441611,369.8112582293834L531.4912470673153,369.69742552492244L531.7359682367796,369.69742552492244L531.8175419599347,369.8112582293834L531.6543945136254,370.03892305826594L531.8175419599347,370.26658711361233L532.3069842988625,370.60808174645354L532.633279191481,370.60808174645354L533.2042952535639,371.0634052164969L533.3674426998741,371.0634052164969L533.5305901461825,371.51872559281037L533.856885038801,371.51872559281037L534.1016062082654,371.6325552034832L534.6726222703483,372.315528807223L534.8357697166566,372.315528807223L535.4067857787395,372.77084067606484L535.8962281176682,373.3399761619512L536.0593755639775,373.4538026790906L537.1198339649882,374.13675772197166L537.609276303916,374.8197058049336L538.3434398123081,374.93352980877535L539.8933405522466,375.04735361930216L540.1380617217101,375.3888238909349L540.4643566143286,375.6164697720815L540.8722252301022,375.7302924226751L541.4432412921851,375.95793714395404L542.2589785237315,376.5270455640566L542.6668471395051,376.9823288205662L543.1562894784329,377.2099692889533L543.5641580942065,377.77906707720103L544.6246164952172,378.6896134868657L547.2349756361664,379.8277791027722L547.9691391445576,380.28303993721784L548.7033026529507,380.8521116315387L548.7033026529507,380.96592539060657L548.948023822415,380.96592539060657L549.9269085002707,381.4211784940926L551.966251579137,383.8112065562309L552.2925464717555,384.26644033406046L552.5372676412198,385.0630920054755L553.4345785959204,386.8839745569203L553.5161523190754,387.4529902100476L553.842447211694,387.7943972833673L553.9240209348491,388.36340520800877L554.1687421043125,388.81860807001067L554.4134632737769,389.04620834176603L554.9029056127047,389.2738078407492L555.3923479516325,389.8428032072843L556.1265114600246,390.29799602302955L556.6975275221075,390.41179374397325L557.3501173073446,390.8669826959522L558.6552968778196,391.3221685569806L558.9000180472831,390.75318574772245L558.9815917704382,390.29799602302955L558.8184443241289,390.18419810886553L558.9000180472831,390.0704000015103L558.3290019852011,389.3876073004649L558.1658545388909,389.04620834176603L558.1658545388909,388.59100702538126L557.9211333694275,388.2496040094775L557.9211333694275,387.7943972833673L557.7579859231182,387.4529902100476L557.9211333694275,386.99777807397186L558.6552968778196,386.54256284639996L559.3078866630567,386.31495407332113L559.5526078325211,386.8839745569203L560.4499187872225,386.99777807397186L561.8366720808517,387.90819925470714L562.570835589243,387.4529902100476L563.2234253744809,387.2253845284431L563.7128677134087,387.2253845284431L565.0996210070389,387.7943972833673L565.752210792275,388.02200103282667L566.0785056848936,388.2496040094775L566.404800577513,388.36340520800877L566.7310954701315,388.02200103282667L566.975816639595,388.13580261776224L567.3836852553686,388.4772062132979L568.199422486915,388.13580261776224L569.6677495036993,387.90819925470714L571.2176502436378,386.42875855647435L576.8462371413098,389.6152056402643L581.2512181916618,393.02908800821024L584.2694459483837,393.9394272775244L585.9009204114773,393.9394272775244L585.9009204114773,393.4842591881534L586.1456415809416,393.1428810929574L586.0640678577865,392.57391373767314L589.0822956145103,391.2083723814794L589.0007218913543,390.98077945096884L589.1638693376644,390.8669826959522L589.490164230283,390.6393886063379L589.7348853997464,390.6393886063379L589.8980328460557,390.29799602302955L590.5506226312937,389.9566017009929L591.1216386933756,389.50140656695294L591.5295073091493,388.81860807001067L591.5295073091493,388.36340520800877L592.2636708175414,387.5667927610193L592.9978343259336,387.4529902100476L593.4057029417072,387.1115813977958L593.7319978343257,386.99777807397186L593.895145280635,386.54256284639996L594.6293087890272,386.20114939692576L594.7924562353364,385.97353946445946L595.2003248511091,385.7459287590973L596.5870781447384,385.40451125184336L597.8106839920583,384.3802482954343L600.9920591950904,381.19355232888483L601.9709438729469,381.8764285053039L602.2156650424104,382.2178639844351L602.9498285508025,382.9007297247226L603.1129759971127,383.24215998591535L604.0102869518141,384.03882383163L606.8653672622268,385.5183172808174L609.3125789568667,386.54256284639996L617.2252301028684,391.3221685569806L618.4488359501893,391.7773513271459L619.3461469048898,392.1187363763893L619.5092943512,392.23253100645525L620.3250315827463,392.68770759504696L620.5697527522107,393.02908800821024L620.6513264753648,393.7118436191595L621.385489983757,394.39459227638145L622.9353907236964,395.0773339801017L623.9958491247062,395.98764543552534L625.0563075257169,396.5565838181574L623.8327016783978,398.8322890664276L621.6302111532204,402.5870338519817L622.2828009384584,403.61101866340323L622.2828009384584,403.8385687198752L622.2828009384584,404.1798923566166L622.038079768995,404.7487612231853L622.4459483847677,405.5451695278025L622.4459483847677,406.1140268109011L622.2828009384584,406.68287926774065L622.3643746616126,407.2517268984593L626.1167659267276,413.508732348826L626.5246345425003,419.4239097072932L626.5246345425003,423.17750166510814L624.1589965710164,428.63689679903473L624.8115863562525,436.25655957141134L624.4037177404798,437.73490134467283L624.0774228478604,438.07605251194036L623.7511279552418,438.8720651553158L623.3432593394691,440.69148715835763L623.2616856163149,441.82860085313587L623.1801118931589,442.85198669951933L623.5879805089326,443.53423525772087L623.6695542320876,443.9890637754361L623.6695542320876,444.67130077054026L623.9958491247062,446.1494571271469L623.8327016783978,448.53717937273177L625.3826024183363,448.6508783125537L625.5457498646456,448.53717937273177L625.790471034109,448.19608139727643L625.8720447572632,448.19608139727643L626.9325031582739,449.3330679051869L627.9113878361304,450.0152505617589L628.8086987908318,450.24264323929674L629.7060097455324,450.58373081065656L631.1743367623167,451.83437040443096L631.5822053780903,451.83437040443096L632.9689586717195,451.7206768591641L634.1925645190395,452.28914265904314L634.6004331348122,452.28914265904314L635.1714491968951,452.1754498843802L636.5582024905243,451.83437040443096L637.2107922757623,451.7206768591641L637.3739397220716,451.83437040443096L637.7002346146901,451.7206768591641L638.3528243999272,451.4932891906865L638.4343981230813,451.37959506744664L638.7606930157008,451.0385115419267L639.3317090777828,450.6974262824515L639.8211514167115,450.58373081065656L640.2290200324842,450.47003514620155L640.3921674787944,451.0385115419267L642.2683631113514,450.6974262824515L642.9209528965885,450.6974262824515L644.9602959754548,451.0385115419267L645.4497383143835,450.81112156157906L648.2232449016419,448.8782756141227L649.2021295794975,448.7645770596573L650.099440534199,448.6508783125537L651.3230463815198,448.8782756141227L656.8700595560367,455.5861493291595L657.1147807255011,455.13139941971895L657.7673705107372,455.01771146080864L658.0120916802016,455.01771146080864L658.6646814654396,455.5861493291595L659.7251398664503,455.81352312816307L660.133008482223,455.81352312816307L660.9487457137702,455.3587747596757L661.5197617758522,454.67664642838645L661.6829092221615,453.9945111627312L661.9276303916258,453.42605981069937L662.9065150694814,452.7439118313705L663.2328099621,452.63021982726787L663.8038260241829,451.9480637570596L664.0485471936472,451.83437040443096L664.9458581483477,451.9480637570596L665.2721530409672,451.83437040443096L666.4957588882871,452.1754498843802L666.9036275040598,451.83437040443096L666.9036275040598,452.1754498843802L666.5773326114413,453.76713119979104L666.8220537809057,453.9945111627312L667.3114961198335,454.22189035509655L667.4746435661427,454.5629576990177L668.2088070745349,455.5861493291595L667.4746435661427,456.60932535754546L667.637791012452,457.29143404249044L668.0456596282256,458.0872187450441L668.2088070745349,460.474516231865L667.9640859050705,461.2702631883367L667.637791012452,461.6112947097645L667.4746435661427,461.95232449816103L667.637791012452,463.43010022206727L667.3930698429886,464.4531566611113L667.3114961198335,465.8172076536648L668.861396859772,467.52223240838066L669.5955603681641,468.54522646997066L670.4112975997105,468.31789580381155L672.2874932322675,467.86323216147866L672.4506406785777,467.86323216147866L672.8585092943504,468.20423018198926L673.5110990795874,468.99988549228146L673.8373939722069,469.227213848455L674.4084100342889,469.34087773782085L676.5293268363102,469.5682049390016L676.1214582205375,470.36384407982405L676.2846056668468,471.61411510234757L676.4477531131561,472.0687533362725L676.6109005594653,472.18241241360374L676.6924742826204,473.20533544837235L677.4266377910126,475.9330539957373L677.5082115141668,476.0467065296616L677.7529326836302,476.8422688790961L678.1608012994038,478.4333652913774L678.0792275762487,478.88795733929874L677.7529326836302,479.79713219956466L677.7529326836302,480.4790052638273L677.5897852373209,481.0472275265274L677.1819166215482,482.52458290009235L677.9160801299395,484.22918331653636L678.323948745714,484.91101136404905L678.6502436383325,486.6155511871766L678.8133910846409,487.29735499866365L678.9765385309502,487.52462139714044L679.7107020393423,488.0927840274817L681.1790290561266,488.54731066984095L681.5868976718994,488.7745728370646L681.8316188413637,488.8882036321811L682.1579137339832,489.68361381314025L684.3604042591587,490.1381296855834L685.9918787222514,490.5926424810459L687.6233531853459,490.8198977249049L689.0101064789742,490.5926424810459L689.8258437105214,490.36538646789995L690.6415809420678,490.47901457062835L692.028334235697,490.47901457062835L692.4362028514697,490.36538646789995L692.5993502977799,490.36538646789995L697.1674787944403,490.2517581728971L697.1674787944403,490.36538646789995L698.1463634722977,490.36538646789995L703.4486554773503,490.93352505841176L704.9169824941337,491.1607791484639L706.4668832340722,491.9561624061971L708.5878000360935,492.2970380607803L711.1165854538885,492.97878417810716L711.5244540696622,492.86516030594794L712.5033387475187,493.4332777439122L714.6242555495401,493.8877682332168L718.213499368344,493.20603134557314L718.0503519220356,499.4550270734326L718.0503519220356,502.2952874377661L718.3766468146541,503.09053881222644L718.3766468146541,505.47623643097177L716.5004511820971,508.42983987347543L719.4371052156648,510.81534782685776L719.4371052156648,511.4969059648938L719.2739577693555,518.6528488749318L718.1319256451898,521.7194481821498L717.9687781988805,524.1044841904586L718.1319256451898,524.8994773754821L718.1319256451898,525.8080294951869L718.4582205378092,530.1234842659906L718.4582205378092,530.4641662573995L717.9687781988805,531.486201866057L717.3977621367976,537.2774433219165L717.4793358599527,539.0942005231191L717.3977621367976,540.5702795791731L717.5609095831078,541.024451226629L717.642483306262,541.1379936588055L717.724057029417,542.3869477501867L717.8872044757254,542.8411071186638L719.9265475545926,548.0637192457871L720.0896950009019,548.8584289876089L720.823858509294,549.9937123161071L721.0685796787584,550.6748731074113L721.4764482945311,552.2642214382286L721.3133008482218,552.9453592167192L725.3104132828003,552.718314057609L727.023461469048,552.3777448807377L728.4917884858323,552.6047911904243L730.204836672081,552.6047911904243L731.9994585814829,553.058881508623L732.4889009204107,552.9453592167192L734.3650965529678,552.1506978039761L735.2624075076701,551.9236499601539L737.2201768633813,551.4695519712768L737.9543403717735,551.4695519712768L738.5253564338554,551.2425018262002L740.9725681284963,550.2207666803442L741.2988630211148,550.2207666803442L743.1750586536718,549.1990159999623L744.0723696083733,548.8584289876089L746.9274499187868,547.7231264794391L747.8247608734873,547.3825319868265L747.9063345966433,547.2690001056471L748.1510557661068,547.3825319868265L748.8852192744989,547.155468032659L749.9456776755087,547.4960636761607L750.761414907056,547.4960636761607L755.4926908500265,545.6795336289215L755.4926908500265,545.906602570285L755.6558382963367,546.2472045436443L755.818985742645,547.3825319868265L755.818985742645,548.1772497843267L755.0032485110978,550.447820277448L754.0243638332431,552.6047911904243L753.8612163869338,553.058881508623L753.7796426637788,553.9670529406794L753.7796426637788,555.5563234173387L754.7585273416353,560.2103993533456L754.8401010647895,562.0265366912499L755.0848222342538,563.2751026461774L755.6558382963367,564.6371481465976L756.0637069121094,568.3826309716169L755.9821331889552,569.4040900688196L755.3295434037173,571.560452749356L755.166395957408,572.3548847222191L755.2479696805631,574.0572073377552L755.2479696805631,575.8729706169324L755.0032485110978,576.4403865846107L754.9216747879436,578.3695650545778L755.0848222342538,578.9369599521233L755.0848222342538,579.5043500613174L754.9216747879436,582.0008096596139L754.6769536184793,583.7028880602447L755.3295434037173,587.4473088850791L755.2479696805631,587.6742367791085L754.6769536184793,589.03578806117L754.5953798953251,589.7165533640946L754.6769536184793,595.6162306556726L753.0454791553866,599.5868758984216L751.9034470312208,601.401949934916L751.4140046922939,603.2169749891909L750.3535462912823,604.8050817341282L748.6404981050346,609.0020404975876L748.314203212416,610.1363087262289L745.5406966251576,613.3121580190345L745.4591229020034,613.3121580190345L744.7249593936103,614.2195159927651L741.7883053600426,616.9415164857273L741.7883053600426,617.1683448886906L741.6251579137333,617.395172526929L741.6251579137333,617.5085860592153L741.4620104674241,617.7354125502388L739.1779462190943,622.4985922103442L739.0147987727842,628.0552089775956L738.4437827107013,629.3025496731643L736.8938819707628,629.5293364063036L735.4255549539785,630.2096920195254L734.9361126150516,631.0034315405865L734.9361126150516,631.1168221363987L734.1203753835043,633.1578201880911L733.7940804908858,633.8381391153816L733.5493593214214,634.6318358376811L733.4677855982663,634.6318358376811L733.4677855982663,639.0536890737494L733.0599169824936,640.8676986621285L732.3257534741024,643.4752517864326L732.2441797509464,644.7223066989973L730.775852734163,651.5240176964726L730.4495578415444,652.770923493481L730.204836672081,653.7911019655585L729.7969680563065,655.2646657962832L729.6338206099972,656.2848064754871L729.3890994405338,656.2848064754871L729.6338206099972,657.3049316951656L729.3890994405338,659.1184494719273L729.6338206099972,661.3852779934023L729.2259519942245,662.518663631643L725.7182818985739,671.585061927588L725.6367081754197,671.9250281153145L725.3104132828003,672.8315962242705L725.2288395596461,673.2848757015527L725.799855621729,674.4180610452968L726.452445406966,675.0979630978763L726.452445406966,675.551227319047L726.6155928532753,676.2311179300887L726.6971665764295,676.7976881954746L726.6155928532753,677.7041907048551L726.8603140227397,678.950611730208L726.7787402995846,679.9703935914367L726.9418877458938,680.083701733849L727.1866089153573,679.8570852583507L727.2681826385124,680.083701733849L727.1866089153573,680.6502395862117L727.023461469048,680.9901600098892L727.2681826385124,681.6699957098754L727.7576249774411,682.1232156971382L728.0023461469045,682.6897363919634L728.4917884858323,683.2562523211309L728.6549359321425,683.7094616332324L728.7365096552967,685.1823708344746L728.899657101605,685.2956702079755L728.981230824761,685.748865796013L729.4706731636879,686.9951379386766L731.1837213499366,687.5616176525436L734.8545388918965,687.6749130235767L735.0176863382057,687.4483220909533L735.7518498465979,687.6749130235767L736.4860133549901,687.6749130235767L737.5464717560008,686.9951379386766L738.1990615412369,686.3153559925049L738.4437827107013,685.9754624464113L739.1779462190943,685.6355671848942L739.7489622811763,685.069071270329L740.7278469590328,684.3892698828349L740.809420682187,684.502570590601L741.2988630211148,684.72917143433L741.7883053600426,685.2956702079755L751.0061360765203,691.1869750000551L752.6376105396139,691.979995908092L755.818985742645,694.245718484548L756.0637069121094,694.0191496564948L756.2268543584187,693.6792949855007L758.0214762678206,692.9995804991122L758.266197437285,692.8862940844847L759.1635083919864,692.3198591533219L759.7345244540693,692.3198591533219L760.79498285508,691.866707778594L761.7738675329356,691.5268422468216L764.9552427359677,690.7338160032959L765.8525536906691,690.6205257777256L767.1577332611441,690.2806539576341L767.7287493232261,689.9407804224611L771.6442880346503,690.5072353615687L772.3784515430416,690.8471060383235L772.9494676051254,691.3002642728752L774.0914997292903,690.2806539576341L774.5809420682181,689.9407804224611L774.9072369608366,689.9407804224611L775.3151055766102,690.167362969798L775.5598267460746,690.8471060383235L776.457137700776,692.0932838470544L776.0492690850024,693.1128667231751L775.4782530229195,693.5660097141154L774.9888106839917,694.245718484548L774.4177946219088,695.378551193171L774.499368345063,695.831678942086L774.3362208987546,696.3980843416721L774.9072369608366,696.9644849785473L775.3151055766102,697.5308808528571L778.5780545027965,701.722062313318L778.8227756722608,701.722062313318L779.1490705648794,702.0618764087267L779.8016603501173,702.9680389497298L780.862118751128,703.8741893018305L781.0252661974373,704.1007249853938L781.1068399205915,704.4405270824354L781.8410034289836,705.0068601020757L782.2488720447573,705.5731883609114L782.4120194910665,706.0262475402342L782.9014618299934,706.5925672298399L783.7987727846948,707.7251923276708L783.961920231005,708.0649761440072L784.6960837393972,709.4240942728939L784.8592311857055,709.6506112954667L784.8592311857055,710.5566717701076L785.1039523551699,711.689230228767L785.4302472477884,712.1422482816706L785.5933946940986,712.5952632886329L785.5118209709435,713.0482752497046L785.3486735246343,714.4072928582827L785.5933946940986,715.9927787576671L785.5118209709435,721.5416856364682L793.5060458401003,719.390122922443L797.095289658906,719.1636386403843L804.6000721891351,720.7490126290941L805.171088251218,719.6166064432618L805.5789568669916,719.7298479181918L805.6605305901458,720.2960524383961L807.047283883775,720.9754915826707L807.047283883775,721.5416856364682L806.4762678216921,722.4475862275503L806.1499729290736,723.5799448410762L805.9868254827643,724.3725845492809L804.8447933585994,726.184297445543L804.1106298502064,727.9959616379056L802.3975816639595,729.6943525888419L801.1739758166395,730.713366615535L801.0108283703294,731.1662567930107L800.3582385850923,732.0720280181049L800.195091138783,732.638128852348L799.7872225230103,733.4306620321513L798.9714852914631,734.5628361232666L798.8083378451538,735.2421314493622L798.8899115683089,736.1478479013458L798.8899115683089,736.3742751126993L798.8899115683089,737.1667643623878L799.0530590146172,737.5063997599282L798.5636166756904,739.9970070520285L798.318895506226,740.9026596148833L797.1768633820602,743.3931414241815L796.9321422125959,744.4119483720642L796.7689947662866,744.7515472663508L796.1979787042046,745.3175416217418L796.1164049810504,745.6571359539666L795.8716838115861,745.9967285754901L795.5453889189666,746.5627124764724L795.3006677495032,746.9023005362033L793.0981772243276,748.7134079647658L793.0981772243276,749.2793690581748L792.9350297780184,750.4112769914864L792.4455874390906,751.6563537686598L792.6087348853989,752.5618497098476L792.690308608554,752.9014075524101L792.1192925464711,752.9014075524101L790.5693918065326,754.0332546767095L790.0799494676039,755.1650828002312L790.0799494676039,755.5046275323039L790.3246706370692,757.4286820489651L790.3246706370692,758.1077470049495L790.0799494676039,759.2395067339239L789.8352282981414,759.8053794747466L789.590507128677,760.2580742481805L789.4273596823678,760.3712474666318L789.1826385129034,760.3712474666318L788.3669012813571,760.3712474666318L788.2037538350478,760.3712474666318L788.0406063887385,760.484420495166L787.3064428803455,761.6161403331862L787.1432954340371,762.2951631187025L787.061721710882,762.9741790665576L787.2248691571913,763.5400204667021L787.5511640498098,764.2190238793191L787.4695903266556,764.4453568308454L786.4907056488,765.4638457118708L785.0223786320148,766.5954819828985L783.8803465078499,768.1797408595667L783.1461829994587,768.519220062437L782.5751669373749,769.9902768607571L781.5962822595193,771.2349921657806L781.3515610900549,771.913918103819L781.1884136437466,772.2533785098422L781.0252661974373,772.932294195969L780.780545027972,773.3849008564794L780.6173975816637,773.9506549107755L780.4542501353535,774.1769552036349L780.127955242735,774.4032547371753L780.0463815195808,774.6295535113532L780.0463815195808,774.7427026137229L779.9648077964266,774.8558515262484L779.8832340732715,775.1952971248757L778.8227756722608,777.6845126484113L778.7412019491067,777.9108004133304L779.1490705648794,778.7028016118347L779.0674968417243,779.04222784999L779.0674968417243,779.607934451109L778.4964807796423,780.9656109359494L778.0886121638696,781.4181636913854L777.028153762858,781.5313014058047L776.457137700776,781.4181636913854L776.2124165313116,781.1918876932104L775.151958130301,780.8524722726797L774.8256632376815,780.8524722726797L773.3573362208981,781.7575762653578L772.704746435661,782.5495322961797L771.7258617578054,784.3596825942295L771.399566865186,785.1516080749498L770.6654033567947,786.2829140626782L770.2575347410211,786.5091729834603L770.0128135715577,786.5091729834603L769.6049449557831,786.2829140626782L769.2786500631646,786.3960436179186L768.299765385309,787.0748169652143L767.1577332611441,788.0929641800612L766.5867171990612,788.3192170298425L766.0972748601325,788.658594881701L764.7105215665042,789.6767181931427L764.3842266738857,790.2423356155632L764.3026529507297,791.1473136274581L762.0185887023999,792.1653993798973L761.8554412560898,792.3916385717239L761.6922938097814,792.9572332320968L761.447572640317,793.4097055463062L761.2028514708527,793.5228231506771L759.8160981772244,793.6359405654221L759.1635083919864,793.2965877522438L758.7556397762137,792.8441146793484L758.8372134993679,806.5300828384861L758.5109186067493,808.6788670122623L759.0003609456771,813.7678197708447L758.1030499909757,816.1425330698476L757.3688864825845,817.9517823572605L756.2268543584187,823.8315076087019L755.2479696805631,830.7282248501433L755.4111171268723,830.8412799182915L755.5742645731807,831.5196063510884L756.3084280815738,831.745713647324L756.6347229741923,832.0848731716615L757.2057390362752,832.3109785745764L758.5924923299044,832.5370832201661L759.0819346688322,832.3109785745764L759.8160981772244,831.8587670114284L760.4686879624605,831.6326600938555L760.6318354087707,831.745713647324L761.1212777476985,831.5196063510884L766.6682909222163,827.6756664351997L767.7287493232261,827.1103626909025L768.0550442158446,827.1103626909025L768.3813391084632,827.2234238184974L770.2575347410211,828.3540246792109L770.4206821873304,828.2409654452786L770.6654033567947,828.46708372375L771.1548456957216,828.8062597212775L771.6442880346503,828.8062597212775L772.9494676051254,825.0752300101158L774.4177946219088,820.2132757637955L776.2939902544667,818.7433136692634L777.2728749323223,818.1779351079385L779.2306442880335,817.386397165079L780.127955242735,817.1602417620452L781.5147085363651,817.1602417620452L782.65674066053,817.499474582437L783.7987727846948,817.9517823572605L784.6960837393972,818.630238335907L786.0828370330255,819.4217616911483L789.1010647897492,820.6655653520356L790.6509655296877,820.7786372755072L791.3035553149239,821.2309230751634L792.0377188233169,821.0047805541908L793.8323407327189,818.2910111990932L796.6058473199773,818.4040871007965L801.3371232629479,821.9093460919394L804.3553510196707,819.5348356983959L805.9052517596101,819.7609831446171L806.8841364374657,819.3086874944202L809.9023641941876,819.1956131082843L812.5127233351368,820.5524932391054L814.552066414004,817.6125518103217L818.304457679119,818.1779351079385L819.8543584190575,816.3686918832464L821.404259158996,816.1425330698476L823.1173073452446,816.2556125712945L824.1777657462544,817.7256288487697L826.0539613788123,818.7433136692634L827.6038621187508,819.4217616911483L828.4195993502972,819.5348356983959L829.9695000902366,820.2132757637955L831.2746796607107,820.439420936782L833.2324490164219,820.2132757637955L835.6796607110618,821.1178519094101L838.2084461288568,821.6832058440341L842.4502797328996,822.7008309929297L845.142212597003,822.9269678313503L845.223786320159,823.8315076087019L845.3869337664673,824.2837729516759L845.4685074896215,824.622969970238L845.9579498285502,825.4144230513921L846.8552607832517,829.7107207161825L847.099981952716,829.8237774884692L847.6709980147989,830.9543347971121L847.7525717379531,831.293498297513L848.4051615231901,831.745713647324L848.894603862118,832.3109785745764L849.3840462010467,833.1023415209493L849.7103410936652,833.3284435160022L853.2180111893149,836.9459724520057L854.0337484208621,839.2068296047728L856.2362389460386,841.0154608170924L861.2938097816277,842.8240435804473L861.2122360584726,843.276181701629L861.8648258437097,844.0674161281859L861.6201046742453,844.293481404151L861.2938097816277,845.762887248784L861.456957227937,846.3280348281842L861.7832521205555,846.7801494859668L862.4358419057926,847.3452885511215L863.8225951994218,849.2667259931841L864.1488900920413,850.0578902248017L866.2698068940617,853.2224544587007L866.1066594477525,854.2396043254194L866.2698068940617,855.0307102966108L866.7592492329904,856.0478329277685L867.2486915719182,856.725906171283L867.3302652950724,857.2909620067803L867.738133910846,859.0991089100426L868.3091499729289,859.7771515181448L869.0433134813202,860.455187318963L869.1248872044753,860.9072074044452L869.2064609276304,861.5852318602192L869.6959032665582,862.1502470404594L869.8590507128674,862.8282590174276L869.2880346507845,863.7322643991138L869.7774769897133,864.1842625525605L869.8590507128674,864.5232591825625L870.185345605486,864.6362576811443L870.4300667749503,865.879228688369L870.7563616675689,866.2182168113795L871.3273777296517,866.4442079482105L871.7352463454245,866.8961879534836L872.7957047464351,867.235170972599L873.2035733622088,867.8001388906487L873.5298682548273,868.0261247346789L874.1008843169102,868.13911737319L875.0797689947658,868.3651020831167L875.4876376105394,868.5910860369913L875.813932503157,868.8170692347921L876.1402273957765,868.930060550163L876.7112434578594,868.8170692347921L877.6085544125608,868.8170692347921L877.8532755820243,869.0430516765482L878.0164230283335,869.2690333622595L878.1795704746437,869.3820239215856L878.4242916441062,869.1560426138967L879.6478974914262,868.930060550163L879.8110449377364,869.1560426138967L879.9741923840456,869.3820239215856L880.3004872766651,869.4950142919042L880.7899296155929,869.7209944655697L881.0346507850563,869.8339842688656L881.6056668471392,869.4950142919042L881.7688142934476,869.6080044732371L881.9319617397578,869.9469738831613L882.095109186067,870.0599633084785L882.6661252481499,869.9469738831613L882.8292726944592,870.3989304503775L882.9924201407675,870.7378958912959L883.971304818624,871.5288086385699L884.1344522649342,872.3197121253397L884.2975997112426,872.7716528172896L884.5423208807069,872.7716528172896L884.9501894964806,872.7716528172896L885.194910665944,873.1106063519474L885.4396318354084,873.2235904855697L885.7659267280269,873.5625417525225L885.847500451182,873.7885083189758L885.4396318354084,874.1274567513901L885.5212055585625,874.2404391842356L885.9290741743362,874.2404391842356L886.418516513264,874.579385349025L887.5605486374297,874.4664034830712L888.2131384226668,874.8053485140699L888.6210070384395,874.8053485140699L889.1920231005233,874.3534214281317L890.0077603320697,874.0144741295444L890.5787763941526,873.6755251302457L890.9866450099253,873.2235904855697L891.4760873488531,872.7716528172896L892.047103410936,872.6586679277752L892.7812669193281,872.7716528172896L893.1891355351017,874.3534214281317L892.6181194730189,875.3702531198651L893.7601515971846,881.357951539183L893.5154304277203,888.5876725727867L894.2495939361124,895.5907272031982L895.4731997834324,901.1248860071719L895.6363472297417,901.4636973339511L895.9626421223602,901.6895706081559L896.6968056307524,901.8025069621508L897.2678216928352,902.1413148918218L897.3493954159894,902.3671859012829L898.0019852012265,902.5930561558853L898.6545749864645,903.1577284897357L898.8992961559279,903.1577284897357L899.0624436022372,903.4965296254231L899.3887384948557,903.6094629599102L900.0413282800937,903.4965296254231L900.2860494495571,903.8353290626837L900.85706551164,904.2870590037855L900.9386392347951,904.5129228420919L901.4280815737229,904.8517171842759L901.6728027431864,905.1905098281131L902.1622450821151,905.3034403319834L902.6516874210429,905.7551604605542L903.2227034831249,905.9810193926678L903.304277206279,906.4327349926025L903.6305720988985,906.8844475735168L903.6305720988985,907.1103027318604L903.7121458220536,907.2232300280084L903.8752932683628,907.3361571354617L904.2015881609805,907.2232300280084L904.6910304999092,907.7878636785317L904.9357516693735,907.7878636785317L905.2620465619921,907.900789842628L905.5883414546106,907.7878636785317L905.7514889009199,907.7878636785317L906.0777837935384,908.1266416047511L906.0777837935384,908.5783428649229L906.3225049630028,908.6912677082801L906.5672261324662,908.8041923629862L906.7303735787764,909.5946596632057L906.9750947482398,909.8205057653176L907.7908319797871,910.1592735035156L908.5249954881783,910.1592735035156L908.6065692113334,910.2721957056201L908.6065692113334,910.4980395438397L908.9328641039519,910.4980395438397L909.4223064428797,910.7238826274115L909.9933225049626,911.4014073506551L910.238043674427,911.4014073506551L910.4827648438904,911.1755665308156L910.4827648438904,911.0626458379484L910.3196173975812,910.9497249564083L910.809059736509,910.9497249564083L912.2773867532924,911.6272474158541L912.6036816459109,911.740167165517L912.4405341996026,911.4014073506551L913.2562714311498,911.740167165517L914.1535823858503,912.5306001311183L914.3983035553147,913.0951894474492L914.8061721710874,913.0951894474492L915.6219094026346,913.2081067448307L916.0297780184073,913.6597740480138L917.0902364194189,914.337269344047L917.2533838657273,914.7889291023239L918.1506948204287,915.1276719405505L918.7217108825116,915.4664130812889L919.2111532214403,915.9180652950236L921.5767911929252,917.7246439735682L922.3925284244715,918.6279152078787L923.7792817181007,921.1118488712673L924.5134452264929,922.0150748481974L925.2476087348841,922.6924864115717L925.5739036275036,923.1440903495386L926.8790831979777,925.8536506286327L927.7763941526791,927.4341773106935L928.0211153221435,927.8857495763368L928.5105576610713,928.6759937839088L928.9999999999991,931.1595583073577L928.5105576610713,932.5141914160195L925.9001985201221,936.5779279164271L924.1871503338743,939.1740761623805L923.5345605486373,939.9641884540979L922.8003970402451,940.867162626404L921.5767911929252,941.9958633865826L915.3771882331703,943.914611445849L914.7245984479323,944.253208393442L912.7668290922211,945.8333050675938L910.1564699512719,949.4448159882013L909.585453889189,950.3476635863335L909.4223064428797,950.4605186886765L909.4223064428797,950.5733736027469L896.2889370149787,971.7867530453732L895.881068399206,972.3508478699005L895.1469048908139,973.0277554513668L893.6785778740295,974.15591970479L892.699693196173,974.7199947775007L890.1709077783789,975.622505112733L888.8657282079039,975.7353180582286L887.3974011911205,975.622505112733L868.3907236960831,972.3508478699005L866.9223966792988,972.3508478699005L864.556758707814,972.4636662704288L863.0884316910297,972.3508478699005L861.5385309510912,971.6739335160892L860.6412199963897,971.5611137986634L859.58076159538,972.0123915395379L858.6834506406785,972.6893025071549L858.2755820249049,973.2533898069378L857.7861396859771,974.043104125958L857.3782710702035,974.6071801391881L856.9704024544299,974.9456234899044L855.3389279913372,975.9609433848818L854.6863382060992,976.4121917811935L854.1968958671714,977.089058733116L853.7890272513978,977.5402996061312L853.2180111893149,977.8787282860867L852.5654214040778,978.1043464656977L850.199783432593,978.7811964908542L848.5683089694994,979.7964588342875L847.7525717379531,980.4732919339949L847.1815556758702,980.9245102394561L846.2026709980146,982.2781471035923L845.4685074896215,983.5189571093215L843.8370330265288,986.1133045144015L843.5923118570654,986.7900744373328L842.9397220718274,987.5796307936689L841.471395055044,988.7075524665197L840.5740841003426,989.9482445951144L840.0846417614148,991.1889139794293L839.6767731456412,991.640060844009L837.8821512362383,993.1062673852866L837.3927088973096,993.4446182303072L836.7401191120725,994.346878881086L835.6796607110618,995.3619077364929L835.190218372134,995.7002473056564L833.3955964627321,996.1513641003548L830.7852373217829,998.181352470092L829.561631474463,999.3090974805527L826.38025627143,1001.2262208784668L825.9723876556573,1001.3389911521444L824.5040606388739,1001.3389911521444L820.0990795885218,1002.3539151612786L812.5942970582928,1004.7220120072452L811.6154123804363,1005.2858323795517L810.5549539794256,1006.0751730116899L809.4944955784149,1007.0900260149792L808.2708897310949,1008.1048638047214L807.4551524995477,1009.119686381644L806.4762678216921,1010.9237778469251L796.6874210431324,1009.7962263150112L790.3246706370692,1007.8793456106068L783.7171990615407,1007.5410669107878L780.3726764121993,1007.0900260149792L767.5656018769168,1007.8793456106068L759.8160981772244,1009.6834701289627L754.9216747879436,1008.4431396873042L745.4591229020034,1010.360004428403L734.9361126150516,1007.9921048015603L728.981230824761,1005.3985958904887L722.2106118029233,1003.030522713525L715.9294351200142,1001.9028397025395L709.4035372676408,1001.1134504168949L709.0772423750223,1000.8879089301481L704.3459664320517,998.632452728998L702.2250496300303,998.2941278166763L700.5935751669367,997.7302492048257L696.6780364555125,995.2491275042485L691.0494495578414,993.2190511882363L683.299945858148,989.384296447206L680.8527341635081,988.7075524665197L678.894964807796,987.3540442032463L678.2423750225589,987.2412506260662L674.4084100342889,986.9028687665123L673.6742465258976,986.9028687665123L669.4324129218548,985.6621208057404L662.5802201768629,981.4885288902296L659.3172712506766,979.7964588342875L657.0332070023451,979.2324260796668L650.6704565962818,974.7199947775007L648.0600974553327,972.3508478699005L642.2683631113514,968.5149103135773L639.3317090777828,967.6123051625764L634.7635805811224,965.3557395989192L629.9507309149967,962.5349267919519L627.8298141129753,961.8579142158051L623.5064067857784,960.5038687365886L616.5726403176313,955.2002629570634L613.7991337303729,954.1846314312206L611.4334957588881,953.2818350499074L605.723335138061,950.2348082956669L605.1523190759781,950.1219528166694L599.6053059014621,947.5262248241197L591.5295073091493,943.3502794325323L587.8586897671903,941.5443853431279L577.009384587619,931.6111056924346L569.50460205739,923.5956912707989L562.8971304818624,921.6763665210165L552.2925464717555,920.6602313573458L545.0324851109899,918.7408232635134L535.1620646092761,917.3859141489957L532.7148529146361,916.5955379574443L526.7599711243456,914.337269344047L520.7235156109,911.9660060988899L511.995127233351,910.9497249564083L509.22162064609256,910.6109611799475L503.8377549178849,910.6109611799475L498.209168020212,910.7238826274115L489.31763219635377,914.5630996004256L489.31763219635377,914.4501845665582L480.0182277567219,918.5150069636293L464.43764663418096,924.7246803762537L452.6910304999092,920.5473265074688L424.0586536726223,904.6258544782031L412.23046381519544,897.9625650429225L385.3111351741554,882.9395191231015L374.62497744089524,876.7260049004835L369.56740660530613,874.2404391842356L364.9992781086439,871.5288086385699L351.8659086807429,864.1842625525605L349.9081393250308,862.2632495092985L349.01082837032936,861.5852318602192L347.8687962461645,860.3421818248535L347.54250135354596,859.7771515181448L347.05305901461816,858.3080505966645L346.8083378451538,856.725906171283L346.2373217830718,844.0674161281859L344.8505684894417,838.7546642310772L341.1797509474818,830.615169592631L340.2008662696253,828.8062597212775L335.71431149612,820.439420936782L330.33044576791144,816.481771005776L316.78920772423726,807.0955589919467L315.97347049269,806.3038910502437L315.2393069842983,805.8515051991271L314.26042230644316,805.0598226615766L313.60783252120564,804.268130835364L311.89478433495697,802.6847193155263L309.03970402454433,800.5357442459499L308.6318354087707,800.1964261360699L304.8794441436562,794.8802196097386L291.17505865367184,775.8741831969746L283.6702761234428,770.2165904431604L268.17126872405606,763.6531881769406L254.5484569572277,755.9573511817798L250.2250496300303,753.4673334896943L247.77783793539038,753.4673334896943L235.94964807796396,753.5805181071337L231.54466702761238,751.6563537686598L217.67713409131875,738.2988756989434L217.35083919870067,737.9592442945141L215.22992239667838,736.9403398132563L214.33261144197695,736.3742751126993L191.41039523551717,725.5049108171443L165.38837754917859,723.6931796559002L156.74156289478424,721.8813997852849L126.55928532755797,715.9927787576671L115.38368525536862,713.8410388526099L104.61595379895243,711.9157396359951L104.12651146002509,712.028994054017L98.57949828550773,711.0096974381522L101.76087348853935,706.4793036727424L102.41346327377687,705.5731883609114L104.12651146002509,703.9874572388217L105.59483847680849,702.8547692986758L107.22631293990207,701.9486052340653L113.75221079227504,699.4565912029357L115.2205378090589,699.0034878379811L116.68886482584321,698.7769350125891L117.58617578054418,698.8902115205201L118.4834867352456,699.1167639649357L119.21765024363776,699.4565912029357L120.7675509835758,699.6831417425274L122.64374661613328,700.0229661232952L125.98826926547508,697.8707160914273L127.13030138964086,697.6441594562348L128.109186067496,697.304323074648L129.65908680743496,696.2848036427822L130.88269265475492,695.378551193171L131.53528243999244,694.6988538542792L132.0247247789207,694.0191496564948L132.43259339469387,692.9995804991122L133.65619924201383,691.979995908092L133.737772965168,691.5268422468216L133.90092041147773,691.3002642728752L136.59285327558155,688.4679752843658L137.0822956145098,687.7882082039941L138.7953438007571,685.1823708344746L139.61108103230436,683.7094616332324L140.34524454069606,682.1232156971382L141.48727666486184,678.950611730208L142.13986645009845,677.7041907048551L143.03717740480033,676.5710606613866L144.34235697527492,675.3245955898456L146.62642122360512,673.5115142959767L149.31835408770894,672.264992586548L152.3365818444322,671.358416848816L153.3154665222878,671.0184478001756L154.78379353907258,670.2251800111626L156.74156289478424,668.9785974596816L157.80202129579448,668.0719774709505L158.6993322504959,666.9386853170508L159.35192203573297,665.9187060681215L159.84136437466077,665.0120448742819L160.2492329904344,663.8787012115208L160.41238043674412,662.8586756023869L160.33080671358948,661.2719383801305L160.08608554412558,659.6851637582295L159.59664320519687,658.4383860308444L157.6388738494852,654.9246154676657L156.65998917162915,652.8842774206059L156.25212055585553,651.6373737233953L156.00739938639254,650.1637304828328L156.00739938639254,648.9167763867954L156.25212055585553,646.6495279344235L156.90471034109396,643.021771543732L157.6388738494852,640.300825918217L158.2098899115681,639.280442946314L158.53618480418663,638.8269344371074L159.10720086626907,638.2600445028947L160.08608554412558,637.9199082501946L161.22811766829,637.6931497932965L162.61487096191968,637.8065291172461L163.5121819166211,638.0332871921055L165.8778198881064,638.9403118509363L167.50929435119997,639.3938195961018L168.24345785959167,639.8473242851906L169.3039162606019,640.074075483717L170.8538170005404,640.7543244953267L172.73001263309789,641.4345666312074L174.11676592672757,641.7746851207849L175.34037177404798,641.8880575687072L178.1954520844606,641.7746851207849L180.15322144017227,641.4345666312074L181.45840101064778,640.9810726379146L182.19256451903948,640.5275755887924L182.92672802743118,639.8473242851906L183.66089153582334,638.6001790364826L184.31348132106086,637.1262503082035L184.72134993683403,634.4050663008238L184.5582024905243,632.5908824945072L184.5582024905243,631.7971616987925L185.29236599891692,628.8489739137804L184.5582024905243,626.6944473008989L184.23190759790623,625.2202577614225L184.15033387475114,623.7460359211764L184.23190759790623,621.8181586193969L184.06876015159696,618.1890632379436L183.74246525897843,615.2402790845881L183.49774408951362,613.9926776467255L182.92672802743118,612.5182097523066L182.27413824219366,611.3839816871987L181.45840101064778,610.3631600768058L180.0716477170181,609.0020404975876L179.09276303916204,608.3214703794656L178.1954520844606,607.8677531418725L176.72712506767675,607.5274632052533L174.85092943511927,607.0737406117623L170.93539072369595,606.6200149576835L167.67244179750878,606.8468781673073L166.36726222703464,606.7334466581306L165.63309871864294,606.5065830659296L164.8173614870957,606.1662862429512L164.40949287132298,605.7125544674782L163.92005053239473,605.1453854439242L163.5121819166211,604.5782116377741L163.34903447031138,604.0110330488533L162.6964446850743,600.9481860180313L162.12542862299142,596.1834800434299L162.20700234614696,592.6664567075277L161.88070745352798,590.5107708403593L161.55441256090853,589.2627105946158L161.22811766829,588.46847837737L160.16765926727976,586.7665206079473L155.354809601155,580.298688170049L154.4574986464536,579.1639165703673L144.58707814473837,570.5390264177404L139.52950730915018,566.5666653621665L138.95849124706683,565.9991660481974L138.1427540155205,564.7506506924838L137.89803284605568,563.9561288463447L137.6533116765927,562.9345869585813L137.6533116765927,562.1400436455588L137.8164591229015,560.6644382883896L138.6321963544483,555.4428053438896L138.71377007760293,554.421134054639L138.6321963544483,553.172403608798L138.22432773867467,551.2425018262002L137.6533116765927,550.2207666803442L137.0822956145098,549.5396012861893L135.85868976718984,548.5178402490492L134.47193647356016,547.9501885154896L128.92492329904326,545.7930681954895L127.29344883594968,545.3389287781756L125.6619743728561,544.9983222010123L125.00938458761948,544.771250190417L123.45948384768053,543.6358786273486L120.19653492149337,541.8192442228974L118.07561811947289,540.1161048618233L117.01515971846175,539.6619270744923L115.2205378090589,539.88901635191L113.83378451543012,537.2774433219165L115.87312759429733,535.3470849682708L115.38368525536862,533.7573364435084L115.2205378090589,532.0539927081991L116.11784876376032,527.9657915328571L116.19942248691541,527.0572685960578L116.11784876376032,526.6030025199943L115.95470131745151,526.2623009470553L115.62840642483252,526.0351656051134L114.81266919328573,525.5808926172685L113.34434217650187,525.0130470624863L110.8971304818624,524.5587671625472L110.16296697346979,524.6723374255525L109.10250857245956,524.7859074965309L107.47103410936688,525.467323890327L102.65818444324077,527.6250968714448L97.43746616134194,529.8963619785864L96.1322865908678,530.8048465211905L92.05360043313476,534.6657687780535L91.31943692474306,535.233532749684L90.17740480057728,535.8012919234243L88.46435661432861,536.141945124742L86.66973470492667,535.8012919234243L85.77242375022524,535.3470849682708L84.38567045659556,533.8708911570793L83.56993322504923,532.7353353845974L82.91734343981261,531.486201866057L82.59104854719317,530.3506057855702L82.4279011008839,528.1929203472391L82.59104854719317,527.28440048216L82.6726222703478,525.6944611522413L82.75419599350289,523.990912967427L82.6726222703478,523.0823362704323L82.26475365457418,521.6058729265787L81.69373759249265,520.129377128811L80.79642663779032,518.5392684340914L77.12560909583044,514.2230693547826L76.14672441797484,512.860001491892L75.49413463273731,511.4969059648938L74.27052878541735,510.0201879238448L73.5363652770252,508.9978256432805L72.88377549178767,507.7482506087181L72.14961198339597,505.7034413077927L71.66016964446771,504.2265958676362L71.49702219815845,502.63611060859694L71.49702219815845,500.36392346084904L72.14961198339597,496.0465560457087L73.94423389279882,492.86516030594794L74.92311857065488,490.5926424810459L75.24941346327341,489.3427248894877L75.49413463273731,487.63825430787983L75.65728207904658,483.6609879869793L75.98357697166512,480.81993919863453L75.90200324851094,473.20533544837235L76.0651506948202,472.18241241360374L76.22829814112902,471.50045506269817L76.79931420321236,470.36384407982405L80.30698429886252,465.0215146106275L80.71485291463569,464.2258121335399L81.61216386933711,462.0660007091574L81.85688503880101,461.0429078778907L82.02003248511073,458.42826644292654L82.02003248511073,456.2682684148749L81.28586897671812,452.0617569170572L80.95957408409959,448.7645770596573L80.47013174517224,445.1261215796985L80.1438368525537,440.3503492914606L79.49124706731618,436.597718256955L81.12272153040931,429.7742148546822L81.20429525356394,427.8407626854678L80.71485291463569,426.02099208225263L79.89911568308935,424.31491229854146L81.20429525356394,423.5187268805603L82.59104854719317,423.85995035990345L82.59104854719317,423.2912435964972L82.83576971665707,422.9500172236876L82.91734343981261,420.2201437387921L83.4067857787395,418.6276662220407L84.38567045659556,416.69389268330997L84.38567045659556,416.1251251477879L84.71196534921455,414.4187935964583L84.87511279552427,412.25737796629255L84.63039162605946,411.8023342192246L82.91734343981261,409.98212835040613L82.59104854719317,409.75459914260864L82.10160620826537,409.64083424919227L81.93845876195564,409.52706916274474L80.95957408409959,409.0720068867886L79.16495217469674,407.93433768504474L78.18606749684068,407.59303316043224L77.12560909583044,407.36549584547174L76.554593033748,407.36549584547174L75.5757083558924,407.59303316043224L74.27052878541735,407.36549584547174L73.45479155387102,407.13795775840845L71.25230102869455,406.1140268109011L70.43656379714776,403.4972433455332L70.27341635083849,401.9043686224468L69.94712145822041,400.6527976479556L69.86554773506577,399.6287676536667L69.94712145822041,398.3771541966562L70.35499007399358,397.0117310478454L71.25230102869455,395.304913002823L72.63905432232377,393.25667398453515L73.7810864464891,391.3221685569806L74.02580761595345,390.75318574772245L74.43367623172662,389.6152056402643L74.51524995488171,388.02200103282667L74.35210250857244,386.31495407332113L73.86266016964373,384.72167102002277L73.0469229380974,382.9007297247226L72.06803826024179,381.6488038862226L71.33387475184873,381.0797389563668L69.13138422667362,379.94159460132505L68.23407327197219,379.71396341097716L66.60259880887861,379.71396341097716L61.78974914275386,380.28303993721784L57.71106298502036,381.76261629237706L56.161162245081414,382.5592977242195L54.28496661252393,383.24215998591535L53.142934488359515,383.58358850784134L51.10359140949231,383.9250152905661L49.87998556217235,383.9250152905661L48.819527161162114,383.8112065562309L48.0853636527695,383.6973976286754L47.51434759068752,383.46977919378696L46.45388918967592,382.5592977242195L45.801299404439305,381.76261629237706L45.311857065511504,381.0797389563668L44.98556217289297,380.0554099065557L44.74084100342907,378.6896134868657L44.577693557119346,377.3237892332181L44.577693557119346,376.75468757893395L45.14870961920178,374.47823263344617L47.51434759068752,367.7622399623142L48.0853636527695,366.6238694067433L48.3300848222334,365.8269985107545L48.737953438007935,364.2332282879288L48.90110088431629,362.7532648504057L48.90110088431629,361.15942151292256L48.819527161162114,360.0209387727882L48.3300848222334,358.313178389355L47.8406424833056,357.0607931086997L46.45388918967592,354.78366898174863L44.82241472658325,352.7341910900577L42.619924201407684,350.5707852930791L40.0095650604585,348.5211785106949L38.54123804367373,347.04086794418254L35.76773145641573,344.5356524597446L34.70727305540413,343.3968871745383L33.15737231546609,341.5748224484123L29.16025988088768,336.10833085560444L28.344522649340888,333.0332332541657L27.039343078866295,330.5274937713839L26.54990073993804,329.27458887120156L25.815737231546336,327.79385285852914L25.244721169463446,326.08527061987115L24.999999999999545,323.2375366760898L25.081573723154634,321.8705813648121L24.999999999999545,320.3896816195629L25.32629489261808,317.7695479872127L25.57101606208198,316.63032747040415L26.223605847319504,314.69360810524813L26.468327016783405,313.4404068978183L26.79462190940194,310.70606829199096L26.876195632557028,309.3388571094474L26.54990073993804,302.95816903769446L26.71304818624776,299.88154853932065L27.039343078866295,298.28620816350303L27.691932864103364,296.34895801617677L28.099801479876987,294.1837297323873L28.099801479876987,292.9301444997618L28.344522649340888,291.1067058829285L28.344522649340888,289.85306301556557L28.344522649340888,287.45967960367125L28.670817541959423,283.58449640464096L28.344522649340888,279.48111664681346L28.0182277567219,278.4552323903117L27.610359140949186,277.2013524950744L27.202490525175563,276.63139932075137L26.95776935571166,275.60547137273534L25.57101606208198,272.98358403763996L25.32629489261808,271.8436009760262L25.081573723154634,270.4755956629888L25.57101606208198,268.08151905748673L25.815737231546336,265.57334691507276L26.468327016783405,261.5828792430693L26.79462190940194,258.39033371216647L26.876195632557028,255.42569071171602L26.468327016783405,250.97847982847452L26.223605847319504,249.95215840137098L33.075798592311,253.2591377302233L41.641039523551626,257.93424334106385L41.80418696986044,257.93424334106385L42.538350478252596,257.47814986020967L43.10936654033458,256.90802863596764L43.2725139866443,255.6537448382296L44.74084100342907,256.3379025525792L46.37231546652174,256.5659535690502L46.53546291283146,257.0220532695603L49.064248330626015,260.328683098036L52.000902364193735,260.5567205097541L55.182277567225356,260.5567205097541L58.200505323948164,260.44270190107636L63.99223966792988,260.10064490899094L67.17361487096196,260.328683098036L77.20718281898507,260.5567205097541L76.71774048005727,257.820220262387L76.63616675690264,256.79400380804145L77.28875654213925,255.76777160988422L77.69662515791379,254.74152366715862L79.00180472838792,254.62749514606548L81.85688503880101,254.62749514606548L81.12272153040931,253.2591377302233L84.05937556397703,253.71525997913704L85.03826024183309,253.82929005536425L94.01136978884642,254.05734962465067L100.45569391806521,254.9695801262278L100.94513625699301,254.9695801262278L101.35300487276663,254.74152366715862L101.59772604223053,254.62749514606548L104.04493773687045,254.9695801262278L108.04205017144841,255.3116633569225L114.73109547013155,255.19763580774452L117.83089695000899,254.85555199386727L118.07561811947289,255.0836080641675L118.2387655657817,255.0836080641675L118.5650604584007,255.6537448382296L119.29922396679285,257.136077708783L121.50171449196887,259.4165256776105L121.82800938458786,260.2146641006766L124.92781086446439,263.9771884093716L125.82512181916582,263.86317563030025L126.55928532755797,263.6351494892151L127.4565962822594,263.6351494892151L128.35390723696082,263.2931088202531L128.84334957588862,262.951066402522L129.08807074535252,262.0389447386551L129.41436563797106,261.8109123795002L129.90380797689932,261.92492865625536L130.14852914636276,262.15296062677226L131.4537087168378,261.8109123795002L133.81934668832264,266.3714118873904L136.266558382963,268.6515450672596L137.89803284605568,268.42353524614737L140.50839198700578,275.2634918944823L141.48727666486184,275.7194641437454L142.05829272694427,276.17543328581814L142.8740299584906,276.2894250858517L143.6897671900374,277.08736224859604L145.81068399205878,278.9111828904788L147.11586356253338,279.70908879017225L147.6053059014621,279.9370601568662L147.85002707092508,280.0510455489639L151.84713950550395,279.5951028155614L151.0314022739576,283.92643336049514L151.11297599711224,284.0404119575105L150.8682548276479,285.63609193296725L150.623533658184,286.4339176532085L150.70510738133862,287.573652183215L150.8682548276479,288.8273377482474L151.92871322865858,291.1067058829285L152.17343439812248,292.13239621766843L152.01028695181367,294.9814535650803L151.84713950550395,296.0070845227019L152.01028695181367,297.2606121286881L151.5208446128854,298.28620816350303L151.2761234434215,298.40016230845504L150.94982855080252,299.65364509924984L150.5419599350289,300.5652542038806L150.623533658184,305.46494045411964L150.94982855080252,308.8831138437745L151.84713950550395,309.3388571094474L152.3365818444322,311.1617991482417L153.3154665222878,314.12397410070844L152.41815556758638,316.97209566069796L151.35769716657614,319.0226681685672L152.3365818444322,319.2505056818409L153.88648258437024,322.44014946911193L155.925825663237,325.6296413269956L158.45461108103245,332.46375524046016L158.45461108103245,332.9193380388315L158.2098899115681,333.8304943382391L158.29146363472273,334.2860678394427L158.29146363472273,334.96942228078115L158.128316188413,335.6527697497222L158.3730373578769,335.766660316709L158.6993322504959,337.24722006377124L158.29146363472273,338.4999758254344L157.80202129579448,339.5249403840862L158.04674246525838,341.1192985223315L159.18877458942416,343.16913179428957L158.6993322504959,344.0801486688506L159.27034831257834,344.0801486688506L159.02562714311443,345.78827191365417L158.45461108103245,347.3824809783837L158.29146363472273,348.5211785106949L157.9651687421042,350.00145636602247L159.18877458942416,357.0607931086997L159.67821692835105,361.15942151292256L160.65710160620802,361.50096256270626L160.90182277567146,361.72865562869265L162.20700234614696,363.8917011652593L165.38837754917859,364.80243629070173Z" style="fill: none; stroke: rgb(8, 48, 107);"><title>VAUCLUSE</title></path><g stroke="#000" stroke-opacity="0.2"><path d="M0,-15.873247654971056L3.5637661381291506,-4.905103281308338L15.096355617026989,-4.905103281308339L5.766294739448918,1.873582735131148L9.330060877578072,12.841727108793865L8.881784197001252e-16,6.063041092354379L-9.330060877578068,12.841727108793867L-5.766294739448918,1.8735827351311491L-15.09635561702699,-4.905103281308335L-3.563766138129152,-4.905103281308337Z" transform="translate(632.9689586717195,765.4638457118708)rotate(28.585005930888773)" fill="white" class="commune"><title>insee_com : 84003 
Population : 11425
 Nom : APT</title></path><path d="M0,-18.876579049491834L4.238056047668955,-5.833183721955068L17.952693510379785,-5.833183721955069L6.857318731355415,2.2280779191642193L11.095374779024372,15.271473246700983L8.881784197001252e-16,7.210211605581696L-11.095374779024368,15.271473246700985L-6.857318731355414,2.2280779191642206L-17.952693510379788,-5.833183721955065L-4.238056047668956,-5.833183721955068Z" transform="translate(351.05017144919657,561.9130295452633)rotate(8.447013771334754)" fill="white" class="commune"><title>insee_com : 84031 
Population : 28309
 Nom : CARPENTRAS</title></path><path d="M0,-26.69551410299918L5.993516340710753,-8.249367531402827L25.38894264350654,-8.249367531402829L9.697713151397894,3.150978011306063L15.69122949210865,21.597124582902413L1.7763568394002505e-15,10.196779040193524L-15.691229492108645,21.597124582902417L-9.697713151397892,3.1509780113060657L-25.388942643506542,-8.249367531402822L-5.993516340710755,-8.249367531402825Z" transform="translate(152.41815556758638,682.4631286859512)rotate(10.305615006028987)" fill="white" class="commune"><title>insee_com : 84007 
Population : 91921
 Nom : AVIGNON</title></path></g><text class="text" y="40" x="427" text-anchor="middle" font-size="36" font-family="Helvetica" fill="#6baed6">84  - VAUCLUSE</text><line x1="600.9322384647774" y1="759.9304645768095" x2="184.4548757745286" y2="687.9965098210125" stroke="yellow" opacity="0.35" stroke-width="2"/><line x1="165.66028995969373" y1="674.4264554099053" x2="337.8080370570892" y2="569.9497028213092" stroke="yellow" opacity="0.35" stroke-width="2"/><line x1="369.84475726403144" y1="575.4830839563705" x2="614.1743728568847" y2="751.8937913007636" stroke="yellow" opacity="0.35" stroke-width="2"/></svg>