<svg viewBox="0,0,954,1144.8" width="954" height="1144.8" style="width: 100%; height: auto;" xmlns="http://www.w3.org/2000/svg" xmlns:xlink="http://www.w3.org/1999/xlink"><rect width="954" height="1144.8" fill="black"/><g stroke="#000" stroke-opacity="0.2"><path d="M0,-15.873247654971056L3.5637661381291506,-4.905103281308338L15.096355617026989,-4.905103281308339L5.766294739448918,1.873582735131148L9.330060877578072,12.841727108793865L8.881784197001252e-16,6.063041092354379L-9.330060877578068,12.841727108793867L-5.766294739448918,1.8735827351311491L-15.09635561702699,-4.905103281308335L-3.563766138129152,-4.905103281308337Z" transform="translate(298.2255790533736,323.62126740711756)rotate(29.359696756916296)" fill="white" class="commune"><title>insee_com : 49331 
Population : 17562
 Nom : SEGRE EN ANJOU BLEU</title></path><path d="M0,-18.876579049491834L4.238056047668955,-5.833183721955068L17.952693510379785,-5.833183721955069L6.857318731355415,2.2280779191642193L11.095374779024372,15.271473246700983L8.881784197001252e-16,7.210211605581696L-11.095374779024368,15.271473246700985L-6.857318731355414,2.2280779191642206L-17.952693510379788,-5.833183721955065L-4.238056047668956,-5.833183721955068Z" transform="translate(752.5584088620342,682.3871162663963)rotate(5.975705414965549)" fill="white" class="commune"><title>insee_com : 49328 
Population : 26734
 Nom : SAUMUR</title></path><path d="M0,-22.448162112566994L5.039926405668234,-6.936863585267022L21.349470856006818,-6.936863585267023L8.154772225169292,2.649646114250548L13.19469863083753,18.16094464155052L8.881784197001252e-16,8.574434942032948L-13.194698630837525,18.160944641550522L-8.154772225169292,2.649646114250549L-21.34947085600682,-6.936863585267019L-5.0399264056682345,-6.936863585267021Z" transform="translate(295.2099697885197,850.4987926669492)rotate(13.33229025979952)" fill="white" class="commune"><title>insee_com : 49099 
Population : 53917
 Nom : CHOLET</title></path><path d="M0,-26.69551410299918L5.993516340710753,-8.249367531402827L25.38894264350654,-8.249367531402829L9.697713151397894,3.150978011306063L15.69122949210865,21.597124582902413L1.7763568394002505e-15,10.196779040193524L-15.691229492108645,21.597124582902417L-9.697713151397892,3.1509780113060657L-25.388942643506542,-8.249367531402822L-5.993516340710755,-8.249367531402825Z" transform="translate(483.7139979859013,505.05141223947794)rotate(24.942843843949873)" fill="white" class="commune"><title>insee_com : 49007 
Population : 152960
 Nom : ANGERS</title></path></g><text class="text" y="40" x="427" text-anchor="middle" font-size="36" font-family="Helvetica" fill="#6baed6">49  - MAINE ET LOIRE</text><line x1="471.1470627727425" y1="528.0812376013093" x2="307.7769050016785" y2="827.4689673051178" stroke="yellow" opacity="0.35" stroke-width="2"/><line x1="325.699865726754" y1="839.291347573579" x2="722.0685129237999" y2="693.5945613597665" stroke="yellow" opacity="0.35" stroke-width="2"/><line x1="722.2695535414568" y1="658.4693930091111" x2="328.514434373951" y2="347.53899066440283" stroke="yellow" opacity="0.35" stroke-width="2"/><line x1="310.5914736488755" y1="335.7166103959416" x2="471.34810339039944" y2="492.9560692506539" stroke="yellow" opacity="0.35" stroke-width="2"/></svg>