<svg viewBox="0,0,955,1146" width="955" height="1146" style="width: 100%; height: auto;" xmlns="http://www.w3.org/2000/svg" xmlns:xlink="http://www.w3.org/1999/xlink"><rect width="955" height="1146" fill="black"/><g stroke="#000" stroke-opacity="0.2"><path d="M0,-15.873247654971056L3.5637661381291506,-4.905103281308338L15.096355617026989,-4.905103281308339L5.766294739448918,1.873582735131148L9.330060877578072,12.841727108793865L8.881784197001252e-16,6.063041092354379L-9.330060877578068,12.841727108793867L-5.766294739448918,1.8735827351311491L-15.09635561702699,-4.905103281308335L-3.563766138129152,-4.905103281308337Z" transform="translate(302.0261697065821,606.7824245296943)rotate(9.031232206329722)" fill="white" class="commune"><title>82033 Population : 13929</title></path><path d="M0,-22.448162112566994L5.039926405668234,-6.936863585267022L21.349470856006818,-6.936863585267023L8.154772225169292,2.649646114250548L13.19469863083753,18.16094464155052L8.881784197001252e-16,8.574434942032948L-13.194698630837525,18.160944641550522L-8.154772225169292,2.649646114250549L-21.34947085600682,-6.936863585267019L-5.0399264056682345,-6.936863585267021Z" transform="translate(474.27042030134805,633.7364225503406)rotate(0.6170542919873345)" fill="white" class="commune"><title>82121 Population : 60444</title></path></g><text class="text" y="40" x="427.5" text-anchor="middle" font-size="36" font-family="Helvetica" fill="#6baed6">82 - TARN ET GARONNE</text><line x1="313.5091197462332" y1="608.5793577310707" x2="462.78747026169697" y2="631.9394893489642" stroke="yellow" opacity="0.35" stroke-width="2"/><line x1="462.78747026169697" y1="631.9394893489642" x2="313.5091197462332" y2="608.5793577310707" stroke="yellow" opacity="0.35" stroke-width="2"/></svg>