<svg viewBox="0,0,954,1144.8" width="954" height="1144.8" style="width: 100%; height: auto;" xmlns="http://www.w3.org/2000/svg" xmlns:xlink="http://www.w3.org/1999/xlink"><rect width="954" height="1144.8" fill="black"/><g stroke="#000" stroke-opacity="0.2"><path d="M0,-13.34775705149959L2.9967581703553763,-4.1246837657014135L12.69447132175327,-4.124683765701414L4.848856575698947,1.5754890056530315L7.845614746054325,10.798562291451207L8.881784197001252e-16,5.098389520096762L-7.845614746054323,10.798562291451208L-4.848856575698946,1.5754890056530328L-12.694471321753271,-4.124683765701411L-2.9967581703553776,-4.124683765701413Z" transform="translate(781.4205803170803,801.4910599694995)rotate(29.863656343445918)" fill="white" class="commune"><title>insee_com : 36046 
Population : 4109
 Nom : CHATRE</title></path><path d="M0,-13.34775705149959L2.9967581703553763,-4.1246837657014135L12.69447132175327,-4.124683765701414L4.848856575698947,1.5754890056530315L7.845614746054325,10.798562291451207L8.881784197001252e-16,5.098389520096762L-7.845614746054323,10.798562291451208L-4.848856575698946,1.5754890056530328L-12.694471321753271,-4.124683765701411L-2.9967581703553776,-4.124683765701413Z" transform="translate(158.1121746933892,750.7136338370256)rotate(9.392156950209884)" fill="white" class="commune"><title>insee_com : 36018 
Population : 6389
 Nom : BLANC</title></path><path d="M0,-15.873247654971056L3.5637661381291506,-4.905103281308338L15.096355617026989,-4.905103281308339L5.766294739448918,1.873582735131148L9.330060877578072,12.841727108793865L8.881784197001252e-16,6.063041092354379L-9.330060877578068,12.841727108793867L-5.766294739448918,1.8735827351311491L-15.09635561702699,-4.905103281308335L-3.563766138129152,-4.905103281308337Z" transform="translate(783.0430750822613,440.37301757759997)rotate(23.039512449149942)" fill="white" class="commune"><title>insee_com : 36088 
Population : 11905
 Nom : ISSOUDUN</title></path><path d="M0,-22.448162112566994L5.039926405668234,-6.936863585267022L21.349470856006818,-6.936863585267023L8.154772225169292,2.649646114250548L13.19469863083753,18.16094464155052L8.881784197001252e-16,8.574434942032948L-13.194698630837525,18.160944641550522L-8.154772225169292,2.649646114250549L-21.34947085600682,-6.936863585267019L-5.0399264056682345,-6.936863585267021Z" transform="translate(582.0565360454682,575.4749458295701)rotate(26.57464691624094)" fill="white" class="commune"><title>insee_com : 36044 
Population : 43741
 Nom : CHATEAUROUX</title></path></g><text class="text" y="40" x="427" text-anchor="middle" font-size="36" font-family="Helvetica" fill="#6baed6">36  - INDRE</text><line x1="186.37513211686112" y1="739.0310546365286" x2="553.7935786219963" y2="587.1575250300671" stroke="yellow" opacity="0.35" stroke-width="2"/><line x1="595.3474723302423" y1="590.5426867722321" x2="768.1296440323061" y2="786.4233190268375" stroke="yellow" opacity="0.35" stroke-width="2"/><line x1="781.528746634759" y1="777.4165238100395" x2="782.9349087645826" y2="464.44755373705993" stroke="yellow" opacity="0.35" stroke-width="2"/><line x1="741.3810150563365" y1="461.062391994895" x2="199.774234719314" y2="730.0242594197305" stroke="yellow" opacity="0.35" stroke-width="2"/></svg>