<svg viewBox="0,0,955,1146" width="955" height="1146" style="width: 100%; height: auto;" xmlns="http://www.w3.org/2000/svg" xmlns:xlink="http://www.w3.org/1999/xlink"><rect width="955" height="1146" fill="black"/><g stroke="#000" stroke-opacity="0.2"><path d="M0,-13.34775705149959L2.9967581703553763,-4.1246837657014135L12.69447132175327,-4.124683765701414L4.848856575698947,1.5754890056530315L7.845614746054325,10.798562291451207L8.881784197001252e-16,5.098389520096762L-7.845614746054323,10.798562291451208L-4.848856575698946,1.5754890056530328L-12.694471321753271,-4.124683765701411L-2.9967581703553776,-4.124683765701413Z" transform="translate(144.77941176470574,617.5325328827712)rotate(26.3896300686432)" fill="white" class="commune"><title>62588 Population : 2075</title></path><path d="M0,-15.873247654971056L3.5637661381291506,-4.905103281308338L15.096355617026989,-4.905103281308339L5.766294739448918,1.873582735131148L9.330060877578072,12.841727108793865L8.881784197001252e-16,6.063041092354379L-9.330060877578068,12.841727108793867L-5.766294739448918,1.8735827351311491L-15.09635561702699,-4.905103281308335L-3.563766138129152,-4.905103281308337Z" transform="translate(417.6102941176466,353.592718171647)rotate(12.628278243972094)" fill="white" class="commune"><title>62765 Population : 14443</title></path><path d="M0,-18.876579049491834L4.238056047668955,-5.833183721955068L17.952693510379785,-5.833183721955069L6.857318731355415,2.2280779191642193L11.095374779024372,15.271473246700983L8.881784197001252e-16,7.210211605581696L-11.095374779024368,15.271473246700985L-6.857318731355414,2.2280779191642206L-17.952693510379788,-5.833183721955065L-4.238056047668956,-5.833183721955068Z" transform="translate(627.7787990196073,562.6118980784995)rotate(28.171258636004662)" fill="white" class="commune"><title>62119 Population : 25186</title></path><path d="M0,-18.876579049491834L4.238056047668955,-5.833183721955068L17.952693510379785,-5.833183721955069L6.857318731355415,2.2280779191642193L11.095374779024372,15.271473246700983L8.881784197001252e-16,7.210211605581696L-11.095374779024368,15.271473246700985L-6.857318731355414,2.2280779191642206L-17.952693510379788,-5.833183721955065L-4.238056047668956,-5.833183721955068Z" transform="translate(726.4859068627447,641.9182178341398)rotate(29.592811141582168)" fill="white" class="commune"><title>62498 Population : 30689</title></path><path d="M0,-22.448162112566994L5.039926405668234,-6.936863585267022L21.349470856006818,-6.936863585267023L8.154772225169292,2.649646114250548L13.19469863083753,18.16094464155052L8.881784197001252e-16,8.574434942032948L-13.194698630837525,18.160944641550522L-8.154772225169292,2.649646114250549L-21.34947085600682,-6.936863585267019L-5.0399264056682345,-6.936863585267021Z" transform="translate(695.9865196078429,770.5749658801069)rotate(6.046700208676974)" fill="white" class="commune"><title>62041 Population : 40883</title></path><path d="M0,-22.448162112566994L5.039926405668234,-6.936863585267022L21.349470856006818,-6.936863585267023L8.154772225169292,2.649646114250548L13.19469863083753,18.16094464155052L8.881784197001252e-16,8.574434942032948L-13.194698630837525,18.160944641550522L-8.154772225169292,2.649646114250549L-21.34947085600682,-6.936863585267019L-5.0399264056682345,-6.936863585267021Z" transform="translate(52.726715686274474,389.52523472138637)rotate(28.627645071292807)" fill="white" class="commune"><title>62160 Population : 41669</title></path><path d="M0,-22.448162112566994L5.039926405668234,-6.936863585267022L21.349470856006818,-6.936863585267023L8.154772225169292,2.649646114250548L13.19469863083753,18.16094464155052L8.881784197001252e-16,8.574434942032948L-13.194698630837525,18.160944641550522L-8.154772225169292,2.649646114250549L-21.34947085600682,-6.936863585267019L-5.0399264056682345,-6.936863585267021Z" transform="translate(201.89644607843115,192.82582736510085)rotate(24.31033998505168)" fill="white" class="commune"><title>62193 Population : 74978</title></path></g><text class="text" y="40" x="427.5" text-anchor="middle" font-size="36" font-family="Helvetica" fill="#6baed6">62 - PAS DE CALAIS</text><line x1="191.95179738562072" y1="205.93912118885322" x2="62.67136437908492" y2="376.411940897634" stroke="yellow" opacity="0.35" stroke-width="2"/><line x1="58.863562091503226" y1="404.7257212654787" x2="138.642565359477" y2="602.3320463386789" stroke="yellow" opacity="0.35" stroke-width="2"/><line x1="181.52655228758155" y1="627.7353617492603" x2="659.239379084967" y2="760.3721370136178" stroke="yellow" opacity="0.35" stroke-width="2"/><line x1="698.019812091503" y1="761.997849343709" x2="724.4526143790846" y2="650.4953343705376" stroke="yellow" opacity="0.35" stroke-width="2"/><line x1="719.9054330065355" y1="636.6311298504304" x2="634.3592728758165" y2="567.8989860622089" stroke="yellow" opacity="0.35" stroke-width="2"/><line x1="613.7675653594765" y1="548.6772860847093" x2="431.6215277777773" y2="367.52733016543715" stroke="yellow" opacity="0.35" stroke-width="2"/><line x1="403.22937091503223" y1="342.8749254512106" x2="216.2773692810455" y2="203.54362008553727" stroke="yellow" opacity="0.35" stroke-width="2"/></svg>