<svg viewBox="0,0,955,1146" width="955" height="1146" style="width: 100%; height: auto;" xmlns="http://www.w3.org/2000/svg" xmlns:xlink="http://www.w3.org/1999/xlink"><rect width="955" height="1146" fill="black"/><g stroke="#000" stroke-opacity="0.2"><path d="M0,-13.34775705149959L2.9967581703553763,-4.1246837657014135L12.69447132175327,-4.124683765701414L4.848856575698947,1.5754890056530315L7.845614746054325,10.798562291451207L8.881784197001252e-16,5.098389520096762L-7.845614746054323,10.798562291451208L-4.848856575698946,1.5754890056530328L-12.694471321753271,-4.124683765701411L-2.9967581703553776,-4.124683765701413Z" transform="translate(469.23666910153406,863.214041329964)rotate(19.30157171099521)" fill="white" class="commune"><title>08490 Population : 4359</title></path><path d="M0,-13.34775705149959L2.9967581703553763,-4.1246837657014135L12.69447132175327,-4.124683765701414L4.848856575698947,1.5754890056530315L7.845614746054325,10.798562291451207L8.881784197001252e-16,5.098389520096762L-7.845614746054323,10.798562291451208L-4.848856575698946,1.5754890056530328L-12.694471321753271,-4.124683765701411L-2.9967581703553776,-4.124683765701413Z" transform="translate(262.32286340394467,762.5159472952073)rotate(0.8645582364372373)" fill="white" class="commune"><title>08362 Population : 7662</title></path><path d="M0,-15.873247654971056L3.5637661381291506,-4.905103281308338L15.096355617026989,-4.905103281308339L5.766294739448918,1.873582735131148L9.330060877578072,12.841727108793865L8.881784197001252e-16,6.063041092354379L-9.330060877578068,12.841727108793867L-5.766294739448918,1.8735827351311491L-15.09635561702699,-4.905103281308335L-3.563766138129152,-4.905103281308337Z" transform="translate(623.2651570489402,575.839061260478)rotate(22.83758258113169)" fill="white" class="commune"><title>08409 Population : 16846</title></path><path d="M0,-22.448162112566994L5.039926405668234,-6.936863585267022L21.349470856006818,-6.936863585267023L8.154772225169292,2.649646114250548L13.19469863083753,18.16094464155052L8.881784197001252e-16,8.574434942032948L-13.194698630837525,18.160944641550522L-8.154772225169292,2.649646114250549L-21.34947085600682,-6.936863585267019L-5.0399264056682345,-6.936863585267021Z" transform="translate(482.4579985390792,496.0582072892212)rotate(21.839731720474777)" fill="white" class="commune"><title>08105 Population : 46682</title></path></g><text class="text" y="40" x="427.5" text-anchor="middle" font-size="36" font-family="Helvetica" fill="#6baed6">08 - ARDENNES</text><line x1="491.8451424397366" y1="501.376930887305" x2="613.8780131482828" y2="570.5203376623942" stroke="yellow" opacity="0.35" stroke-width="2"/><line x1="612.9965911857797" y1="594.9973932651104" x2="479.50523496469447" y2="844.0557093253316" stroke="yellow" opacity="0.35" stroke-width="2"/><line x1="455.44241538836144" y1="856.5008350609802" x2="276.1171171171173" y2="769.229153564191" stroke="yellow" opacity="0.35" stroke-width="2"/><line x1="276.9985390796203" y1="744.7520979614749" x2="467.7823228634036" y2="513.8220566229536" stroke="yellow" opacity="0.35" stroke-width="2"/></svg>