<svg viewBox="0,0,600,600" width="600" height="600" style="width: 100%; height: auto;" xmlns="http://www.w3.org/2000/svg" xmlns:xlink="http://www.w3.org/1999/xlink"><rect width="752" height="902.4" fill="black"/><g stroke="#000" stroke-opacity="0.2"><path d="M0,-15.873247654971056L3.5637661381291506,-4.905103281308338L15.096355617026989,-4.905103281308339L5.766294739448918,1.873582735131148L9.330060877578072,12.841727108793865L8.881784197001252e-16,6.063041092354379L-9.330060877578068,12.841727108793867L-5.766294739448918,1.8735827351311491L-15.09635561702699,-4.905103281308335L-3.563766138129152,-4.905103281308337Z" transform="translate(220.26417525773195,302.8325771132404)rotate(5.50272298524839)" fill="white" class="commune"><title>11206 Population : 10098</title></path><path d="M0,-22.448162112566994L5.039926405668234,-6.936863585267022L21.349470856006818,-6.936863585267023L8.154772225169292,2.649646114250548L13.19469863083753,18.16094464155052L8.881784197001252e-16,8.574434942032948L-13.194698630837525,18.160944641550522L-8.154772225169292,2.649646114250549L-21.34947085600682,-6.936863585267019L-5.0399264056682345,-6.936863585267021Z" transform="translate(257.1198453608248,225.13904648740936)rotate(12.68774869826115)" fill="white" class="commune"><title>11069 Population : 45895</title></path><path d="M0,-22.448162112566994L5.039926405668234,-6.936863585267022L21.349470856006818,-6.936863585267023L8.154772225169292,2.649646114250548L13.19469863083753,18.16094464155052L8.881784197001252e-16,8.574434942032948L-13.194698630837525,18.160944641550522L-8.154772225169292,2.649646114250549L-21.34947085600682,-6.936863585267019L-5.0399264056682345,-6.936863585267021Z" transform="translate(497.03608247422665,247.01090682141876)rotate(0.8192426279639997)" fill="white" class="commune"><title>11262 Population : 53594</title></path></g><text class="text" y="25" x="326" text-anchor="middle" font-size="24" font-family="Helvetica" fill="#6baed6">11 - AUDE</text><line x1="254.66280068728528" y1="230.3186151957981" x2="222.72121993127146" y2="297.6530084048517" stroke="yellow" opacity="0.35" stroke-width="2"/><line x1="238.7156357388316" y1="299.11113242711895" x2="478.584621993127" y2="250.7323515075402" stroke="yellow" opacity="0.35" stroke-width="2"/><line x1="481.0416666666665" y1="245.55278279915146" x2="273.1142611683849" y2="226.59717050967666" stroke="yellow" opacity="0.35" stroke-width="2"/></svg>