<svg viewBox="0,0,954,1144.8" width="954" height="1144.8" style="width: 100%; height: auto;" xmlns="http://www.w3.org/2000/svg" xmlns:xlink="http://www.w3.org/1999/xlink"><rect width="954" height="1144.8" fill="black"/><g stroke="#000" stroke-opacity="0.2"><path d="M0,-13.34775705149959L2.9967581703553763,-4.1246837657014135L12.69447132175327,-4.124683765701414L4.848856575698947,1.5754890056530315L7.845614746054325,10.798562291451207L8.881784197001252e-16,5.098389520096762L-7.845614746054323,10.798562291451208L-4.848856575698946,1.5754890056530328L-12.694471321753271,-4.124683765701411L-2.9967581703553776,-4.124683765701413Z" transform="translate(449.7144842588675,466.917797617436)rotate(14.901172798100554)" fill="white" class="commune"><title>insee_com : 34142 
Population : 7441
 Nom : LODEVE</title></path><path d="M0,-22.448162112566994L5.039926405668234,-6.936863585267022L21.349470856006818,-6.936863585267023L8.154772225169292,2.649646114250548L13.19469863083753,18.16094464155052L8.881784197001252e-16,8.574434942032948L-13.194698630837525,18.160944641550522L-8.154772225169292,2.649646114250549L-21.34947085600682,-6.936863585267019L-5.0399264056682345,-6.936863585267021Z" transform="translate(393.3408060910026,760.3475288191657)rotate(2.583768936915413)" fill="white" class="commune"><title>insee_com : 34032 
Population : 77177
 Nom : BEZIERS</title></path><path d="M0,-31.746495309942112L7.127532276258301,-9.810206562616676L30.192711234053977,-9.810206562616678L11.532589478897837,3.747165470262296L18.660121755156144,25.68345421758773L1.7763568394002505e-15,12.126082184708759L-18.660121755156137,25.683454217587734L-11.532589478897837,3.7471654702622983L-30.19271123405398,-9.81020656261667L-7.127532276258304,-9.810206562616674Z" transform="translate(766.3794186959938,568.031230965611)rotate(13.110818385241084)" fill="white" class="commune"><title>insee_com : 34172 
Population : 285121
 Nom : MONTPELLIER</title></path></g><text class="text" y="40" x="427" text-anchor="middle" font-size="36" font-family="Helvetica" fill="#6baed6">34  - HERAULT</text><line x1="397.0990513021936" y1="740.7855467390505" x2="445.95623904767655" y2="486.47977969755135" stroke="yellow" opacity="0.35" stroke-width="2"/><line x1="470.8254798880093" y1="473.658693173981" x2="745.268423066852" y2="561.2903354090661" stroke="yellow" opacity="0.35" stroke-width="2"/><line x1="741.510177855661" y1="580.8523174891814" x2="418.21004693133534" y2="747.5264422955954" stroke="yellow" opacity="0.35" stroke-width="2"/></svg>