<svg viewBox="0,0,954,1144.8" width="954" height="1144.8" style="width: 100%; height: auto;" xmlns="http://www.w3.org/2000/svg" xmlns:xlink="http://www.w3.org/1999/xlink"><rect width="954" height="1144.8" fill="black"/><g stroke="#000" stroke-opacity="0.2"><path d="M0,-22.448162112566994L5.039926405668234,-6.936863585267022L21.349470856006818,-6.936863585267023L8.154772225169292,2.649646114250548L13.19469863083753,18.16094464155052L8.881784197001252e-16,8.574434942032948L-13.194698630837525,18.160944641550522L-8.154772225169292,2.649646114250549L-21.34947085600682,-6.936863585267019L-5.0399264056682345,-6.936863585267021Z" transform="translate(480.3199743278899,741.4617490588244)rotate(27.4024899898123)" fill="white" class="commune"><title>insee_com : 81065 
Population : 41636
 Nom : CASTRES</title></path><path d="M0,-22.448162112566994L5.039926405668234,-6.936863585267022L21.349470856006818,-6.936863585267023L8.154772225169292,2.649646114250548L13.19469863083753,18.16094464155052L8.881784197001252e-16,8.574434942032948L-13.194698630837525,18.160944641550522L-8.154772225169292,2.649646114250549L-21.34947085600682,-6.936863585267019L-5.0399264056682345,-6.936863585267021Z" transform="translate(419.0132639235542,452.5973138809313)rotate(12.519938423538377)" fill="white" class="commune"><title>insee_com : 81004 
Population : 48970
 Nom : ALBI</title></path></g><text class="text" y="40" x="427" text-anchor="middle" font-size="36" font-family="Helvetica" fill="#6baed6">81  - TARN</text><line x1="423.1003779505099" y1="471.85494289279086" x2="476.2328603009342" y2="722.2041200469648" stroke="yellow" opacity="0.35" stroke-width="2"/><line x1="476.2328603009342" y1="722.2041200469648" x2="423.1003779505099" y2="471.85494289279086" stroke="yellow" opacity="0.35" stroke-width="2"/></svg>