<svg viewBox="0,0,954,1144.8" width="954" height="1144.8" style="width: 100%; height: auto;" xmlns="http://www.w3.org/2000/svg" xmlns:xlink="http://www.w3.org/1999/xlink"><rect width="954" height="1144.8" fill="black"/><g stroke="#000" stroke-opacity="0.2"><path d="M0,-15.873247654971056L3.5637661381291506,-4.905103281308338L15.096355617026989,-4.905103281308339L5.766294739448918,1.873582735131148L9.330060877578072,12.841727108793865L8.881784197001252e-16,6.063041092354379L-9.330060877578068,12.841727108793867L-5.766294739448918,1.8735827351311491L-15.09635561702699,-4.905103281308335L-3.563766138129152,-4.905103281308337Z" transform="translate(536.6775724777438,469.70769173769077)rotate(7.3619543066401665)" fill="white" class="commune"><title>insee_com : 79202 
Population : 10267
 Nom : PARTHENAY</title></path><path d="M0,-15.873247654971056L3.5637661381291506,-4.905103281308338L15.096355617026989,-4.905103281308339L5.766294739448918,1.873582735131148L9.330060877578072,12.841727108793865L8.881784197001252e-16,6.063041092354379L-9.330060877578068,12.841727108793867L-5.766294739448918,1.8735827351311491L-15.09635561702699,-4.905103281308335L-3.563766138129152,-4.905103281308337Z" transform="translate(376.78796555122375,282.88572456040856)rotate(20.96280011333638)" fill="white" class="commune"><title>insee_com : 79049 
Population : 19519
 Nom : BRESSUIRE</title></path><path d="M0,-22.448162112566994L5.039926405668234,-6.936863585267022L21.349470856006818,-6.936863585267023L8.154772225169292,2.649646114250548L13.19469863083753,18.16094464155052L8.881784197001252e-16,8.574434942032948L-13.194698630837525,18.160944641550522L-8.154772225169292,2.649646114250549L-21.34947085600682,-6.936863585267019L-5.0399264056682345,-6.936863585267021Z" transform="translate(395.56739002067434,781.9277334869039)rotate(25.117328639214843)" fill="white" class="commune"><title>insee_com : 79191 
Population : 58707
 Nom : NIORT</title></path></g><text class="text" y="40" x="427" text-anchor="middle" font-size="36" font-family="Helvetica" fill="#6baed6">79  - DEUX SEVRES</text><line x1="378.03992718252044" y1="316.1551918221749" x2="394.31542838937764" y2="748.6582662251375" stroke="yellow" opacity="0.35" stroke-width="2"/><line x1="404.9747355178123" y1="761.1130640369563" x2="527.2702269806058" y2="490.5223611876383" stroke="yellow" opacity="0.35" stroke-width="2"/><line x1="526.0182653493091" y1="457.25289392587194" x2="387.4472726796584" y2="295.3405223722274" stroke="yellow" opacity="0.35" stroke-width="2"/></svg>