<svg viewBox="0,0,955,1146" width="955" height="1146" style="width: 100%; height: auto;" xmlns="http://www.w3.org/2000/svg" xmlns:xlink="http://www.w3.org/1999/xlink"><rect width="955" height="1146" fill="black"/><g stroke="#000" stroke-opacity="0.2"><path d="M0,-15.873247654971056L3.5637661381291506,-4.905103281308338L15.096355617026989,-4.905103281308339L5.766294739448918,1.873582735131148L9.330060877578072,12.841727108793865L8.881784197001252e-16,6.063041092354379L-9.330060877578068,12.841727108793867L-5.766294739448918,1.8735827351311491L-15.09635561702699,-4.905103281308335L-3.563766138129152,-4.905103281308337Z" transform="translate(465.44794188862124,543.7289969919511)rotate(3.3317006784485246)" fill="white" class="commune"><title>74042 Population : 12735</title></path><path d="M0,-15.873247654971056L3.5637661381291506,-4.905103281308338L15.096355617026989,-4.905103281308339L5.766294739448918,1.873582735131148L9.330060877578072,12.841727108793865L8.881784197001252e-16,6.063041092354379L-9.330060877578068,12.841727108793867L-5.766294739448918,1.8735827351311491L-15.09635561702699,-4.905103281308335L-3.563766138129152,-4.905103281308337Z" transform="translate(224.40677966101794,475.25007346751227)rotate(27.47043418856025)" fill="white" class="commune"><title>74243 Population : 14045</title></path><path d="M0,-18.876579049491834L4.238056047668955,-5.833183721955068L17.952693510379785,-5.833183721955069L6.857318731355415,2.2280779191642193L11.095374779024372,15.271473246700983L8.881784197001252e-16,7.210211605581696L-11.095374779024368,15.271473246700985L-6.857318731355414,2.2280779191642206L-17.952693510379788,-5.833183721955065L-4.238056047668956,-5.833183721955068Z" transform="translate(519.4995964487507,230.17146162597783)rotate(25.07072140379002)" fill="white" class="commune"><title>74281 Population : 35132</title></path><path d="M0,-26.69551410299918L5.993516340710753,-8.249367531402827L25.38894264350654,-8.249367531402829L9.697713151397894,3.150978011306063L15.69122949210865,21.597124582902413L1.7763568394002505e-15,10.196779040193524L-15.691229492108645,21.597124582902417L-9.697713151397892,3.1509780113060657L-25.388942643506542,-8.249367531402822L-5.993516340710755,-8.249367531402825Z" transform="translate(253.62389023406104,725.5962586844616)rotate(10.108007431540406)" fill="white" class="commune"><title>74010 Population : 126419</title></path></g><text class="text" y="40" x="427.5" text-anchor="middle" font-size="36" font-family="Helvetica" fill="#6baed6">74 - HAUTE SAVOIE</text><line x1="251.67608286252482" y1="708.9065130033317" x2="226.35458703255415" y2="491.93981914864224" stroke="yellow" opacity="0.35" stroke-width="2"/><line x1="244.07963411353344" y1="458.9114993447433" x2="499.82674199623517" y2="246.5100357487468" stroke="yellow" opacity="0.35" stroke-width="2"/><line x1="515.8961528114088" y1="251.07529731704273" x2="469.0513855259632" y2="522.8251613008863" stroke="yellow" opacity="0.35" stroke-width="2"/><line x1="451.3263384449839" y1="555.8534811047851" x2="267.7454936776984" y2="713.4717745716276" stroke="yellow" opacity="0.35" stroke-width="2"/></svg>