<svg viewBox="0,0,955,1146" width="955" height="1146" style="width: 100%; height: auto;" xmlns="http://www.w3.org/2000/svg" xmlns:xlink="http://www.w3.org/1999/xlink"><rect width="955" height="1146" fill="black"/><g stroke="#000" stroke-opacity="0.2"><path d="M0,-13.34775705149959L2.9967581703553763,-4.1246837657014135L12.69447132175327,-4.124683765701414L4.848856575698947,1.5754890056530315L7.845614746054325,10.798562291451207L8.881784197001252e-16,5.098389520096762L-7.845614746054323,10.798562291451208L-4.848856575698946,1.5754890056530328L-12.694471321753271,-4.124683765701411L-2.9967581703553776,-4.124683765701413Z" transform="translate(188.2606717818328,1091.8419083053814)rotate(21.514334698063553)" fill="white" class="commune"><title>35236 Population : 8889</title></path><path d="M0,-18.876579049491834L4.238056047668955,-5.833183721955068L17.952693510379785,-5.833183721955069L6.857318731355415,2.2280779191642193L11.095374779024372,15.271473246700983L8.881784197001252e-16,7.210211605581696L-11.095374779024368,15.271473246700985L-6.857318731355414,2.2280779191642206L-17.952693510379788,-5.833183721955065L-4.238056047668956,-5.833183721955068Z" transform="translate(788.4153434476317,391.2054079927839)rotate(23.936011309114285)" fill="white" class="commune"><title>35115 Population : 20194</title></path><path d="M0,-22.448162112566994L5.039926405668234,-6.936863585267022L21.349470856006818,-6.936863585267023L8.154772225169292,2.649646114250548L13.19469863083753,18.16094464155052L8.881784197001252e-16,8.574434942032948L-13.194698630837525,18.160944641550522L-8.154772225169292,2.649646114250549L-21.34947085600682,-6.936863585267019L-5.0399264056682345,-6.936863585267021Z" transform="translate(255.32084389798865,97.83356868846022)rotate(10.45886388967377)" fill="white" class="commune"><title>35288 Population : 46005</title></path><path d="M0,-31.746495309942112L7.127532276258301,-9.810206562616676L30.192711234053977,-9.810206562616678L11.532589478897837,3.747165470262296L18.660121755156144,25.68345421758773L1.7763568394002505e-15,12.126082184708759L-18.660121755156137,25.683454217587734L-11.532589478897837,3.7471654702622983L-30.19271123405398,-9.81020656261667L-7.127532276258304,-9.810206562616674Z" transform="translate(457.85611119829787,636.2820966387662)rotate(12.925214754691211)" fill="white" class="commune"><title>35238 Population : 216268</title></path></g><text class="text" y="40" x="427.5" text-anchor="middle" font-size="36" font-family="Helvetica" fill="#6baed6">35 - ILLE ET VILAINE</text><line x1="748.4050320032451" y1="437.91450801362373" x2="228.27098322621939" y2="1045.1328082845416" stroke="yellow" opacity="0.35" stroke-width="2"/><line x1="206.2337010762638" y1="1061.4712541942738" x2="439.88308190386687" y2="666.6527507498739" stroke="yellow" opacity="0.35" stroke-width="2"/><line x1="444.3537600449439" y1="600.3855281087458" x2="268.8231950513426" y2="133.73013721848062" stroke="yellow" opacity="0.35" stroke-width="2"/><line x1="290.8604772012982" y1="117.39169130874846" x2="752.8757101443222" y2="371.6472853724956" stroke="yellow" opacity="0.35" stroke-width="2"/></svg>