<svg viewBox="0,0,600,600" width="600" height="600" style="width: 100%; height: auto;" xmlns="http://www.w3.org/2000/svg" xmlns:xlink="http://www.w3.org/1999/xlink"><rect width="752" height="902.4" fill="black"/><g stroke="#000" stroke-opacity="0.2"><path d="M0,-15.873247654971056L3.5637661381291506,-4.905103281308338L15.096355617026989,-4.905103281308339L5.766294739448918,1.873582735131148L9.330060877578072,12.841727108793865L8.881784197001252e-16,6.063041092354379L-9.330060877578068,12.841727108793867L-5.766294739448918,1.8735827351311491L-15.09635561702699,-4.905103281308335L-3.563766138129152,-4.905103281308337Z" transform="translate(358.7579617834393,210.87653749237143)rotate(26.388740551856348)" fill="white" class="commune"><title>03190 Population : 19613</title></path><path d="M0,-18.876579049491834L4.238056047668955,-5.833183721955068L17.952693510379785,-5.833183721955069L6.857318731355415,2.2280779191642193L11.095374779024372,15.271473246700983L8.881784197001252e-16,7.210211605581696L-11.095374779024368,15.271473246700985L-6.857318731355414,2.2280779191642206L-17.952693510379788,-5.833183721955065L-4.238056047668956,-5.833183721955068Z" transform="translate(389.6496815286622,410.18163718015785)rotate(19.47627308733571)" fill="white" class="commune"><title>03310 Population : 24383</title></path><path d="M0,-18.876579049491834L4.238056047668955,-5.833183721955068L17.952693510379785,-5.833183721955069L6.857318731355415,2.2280779191642193L11.095374779024372,15.271473246700983L8.881784197001252e-16,7.210211605581696L-11.095374779024368,15.271473246700985L-6.857318731355414,2.2280779191642206L-17.952693510379788,-5.833183721955065L-4.238056047668956,-5.833183721955068Z" transform="translate(128.50318471337573,313.9552183353662)rotate(2.7407629654163266)" fill="white" class="commune"><title>03185 Population : 36147</title></path></g><text class="text" y="25" x="326" text-anchor="middle" font-size="24" font-family="Helvetica" fill="#6baed6">03 - ALLIER</text><line x1="143.8535031847133" y1="307.08330627916655" x2="343.40764331210175" y2="217.74844954857107" stroke="yellow" opacity="0.35" stroke-width="2"/><line x1="360.8174097664542" y1="224.16354413822384" x2="387.5902335456473" y2="396.8946305343054" stroke="yellow" opacity="0.35" stroke-width="2"/><line x1="372.23991507430975" y1="403.7665425905051" x2="145.91295116772815" y2="320.370312925019" stroke="yellow" opacity="0.35" stroke-width="2"/></svg>