<svg viewBox="0,0,954,1144.8" width="954" height="1144.8" style="width: 100%; height: auto;" xmlns="http://www.w3.org/2000/svg" xmlns:xlink="http://www.w3.org/1999/xlink"><rect width="954" height="1144.8" fill="black"/><g stroke="#000" stroke-opacity="0.2"><path d="M0,-13.34775705149959L2.9967581703553763,-4.1246837657014135L12.69447132175327,-4.124683765701414L4.848856575698947,1.5754890056530315L7.845614746054325,10.798562291451207L8.881784197001252e-16,5.098389520096762L-7.845614746054323,10.798562291451208L-4.848856575698946,1.5754890056530328L-12.694471321753271,-4.124683765701411L-2.9967581703553776,-4.124683765701413Z" transform="translate(686.2599371505896,756.7140091985857)rotate(16.76789849689681)" fill="white" class="commune"><title>insee_com : 86165 
Population : 5954
 Nom : MONTMORILLON</title></path><path d="M0,-18.876579049491834L4.238056047668955,-5.833183721955068L17.952693510379785,-5.833183721955069L6.857318731355415,2.2280779191642193L11.095374779024372,15.271473246700983L8.881784197001252e-16,7.210211605581696L-11.095374779024368,15.271473246700985L-6.857318731355414,2.2280779191642206L-17.952693510379788,-5.833183721955065L-4.238056047668956,-5.833183721955068Z" transform="translate(472.0652532348172,375.1319027495847)rotate(0.842749766030515)" fill="white" class="commune"><title>insee_com : 86066 
Population : 31840
 Nom : CHATELLERAULT</title></path><path d="M0,-26.69551410299918L5.993516340710753,-8.249367531402827L25.38894264350654,-8.249367531402829L9.697713151397894,3.150978011306063L15.69122949210865,21.597124582902413L1.7763568394002505e-15,10.196779040193524L-15.691229492108645,21.597124582902417L-9.697713151397892,3.1509780113060657L-25.388942643506542,-8.249367531402822L-5.993516340710755,-8.249367531402825Z" transform="translate(335.0260018503489,606.3537513026677)rotate(6.572199750970683)" fill="white" class="commune"><title>insee_com : 86194 
Population : 88291
 Nom : POITIERS</title></path></g><text class="text" y="40" x="427" text-anchor="middle" font-size="36" font-family="Helvetica" fill="#6baed6">86  - VIENNE</text><line x1="486.344898829202" y1="400.57070984618474" x2="671.9802915562047" y2="731.2752021019857" stroke="yellow" opacity="0.35" stroke-width="2"/><line x1="662.8443414639069" y1="746.6899920055245" x2="358.4415975370316" y2="616.3777684957289" stroke="yellow" opacity="0.35" stroke-width="2"/><line x1="344.1619519426468" y1="590.9389613991287" x2="462.9293031425193" y2="390.54669265312356" stroke="yellow" opacity="0.35" stroke-width="2"/></svg>