<svg viewBox="0,0,600,600" width="600" height="600" style="width: 100%; height: auto;" xmlns="http://www.w3.org/2000/svg" xmlns:xlink="http://www.w3.org/1999/xlink"><rect width="752" height="902.4" fill="black"/><path d="M116.83862847173623,283.4997168944283L116.83862847173623,283.4997168944283L118.35079665772832,282.33003899538744L118.35079665772832,281.7451819725029L117.59471256473262,281.7451819725029L117.21667051823442,281.7451819725029L117.21667051823442,281.1603128997813L117.21667051823442,281.1603128997813L117.21667051823442,277.0658919392008L117.59471256473262,275.3109592841902L118.35079665772832,272.9708802729547L118.72883870422652,272.3858303719644L119.10688075072403,272.3858303719644L119.48492279722223,271.21569438747247L120.24100689021816,270.6306083025993L120.99709098321387,270.0455101550906L121.75317507621025,269.4603999442552L123.64338530869986,268.8752776694091L125.15555349469173,267.7049969250511L125.53359554118947,267.7049969250511L125.53359554118947,267.1198384541822L125.91163758768744,267.1198384541822L125.53359554118947,266.53466791659594L124.39946940169557,265.3642906386267L124.02142735519783,264.7790838968831L123.26534326220167,263.6086342045164L121.75317507621025,260.6822987235064L119.10688075072403,258.3410130082593L117.59471256473262,257.1702976922643L115.70450233224255,257.1702976922643L115.32646028574459,257.1702976922643L114.94841823924662,257.1702976922643L114.19233414625069,257.75566138902286L113.81429209975249,257.75566138902286L113.43625005325475,257.75566138902286L112.68016596025905,258.3410130082593L111.92408186726288,256.58492191731784L111.16799777426672,255.41413413010014L110.78995572776898,254.2432980219928L110.78995572776898,252.4869532462435L111.16799777426672,251.9014808213251L111.92408186726288,251.3159963121252L114.19233414625069,250.1449910381598L115.70450233224255,248.97393741887572L116.08254437874052,248.38839247807482L116.46058642523872,247.80283544890335L117.59471256473262,245.46048643511676L117.59471256473262,244.8748689540189L117.21667051823442,244.8748689540189L115.70450233224255,242.53227809859527L114.94841823924662,241.3609101028087L115.32646028574459,239.60376738376362L115.70450233224255,238.4322784129181L112.68016596025905,237.84651577802288L114.94841823924662,233.15997902172603L115.32646028574459,229.05862380755207L115.32646028574459,226.71472583526702L116.08254437874052,223.78458081207646L116.46058642523872,221.44024669425198L117.59471256473262,220.26800692061443L118.72883870422652,220.26800692061443L118.72883870422652,219.6818688527528L118.72883870422652,217.923381916753L119.48492279722223,214.40608068782967L119.86296484371996,213.23354993023895L119.86296484371996,213.23354993023895L122.50925916920596,211.47466282398818L124.02142735519783,210.30201076525918L125.91163758768744,207.95656105243688L125.91163758768744,206.1973463503855L126.28967963418563,205.02447586385824L126.28967963418563,204.43802241298545L127.42380577367953,200.3325083182499L127.42380577367953,196.22639916382832L127.80184782017704,193.87978381595167L127.80184782017704,190.3594962332354L127.42380577367953,189.18596980091752L127.04576372718134,187.42558897302297L128.55793191317343,180.96992288122783L128.55793191317343,180.38297115971727L127.80184782017704,180.38297115971727L127.80184782017704,180.38297115971727L127.04576372718134,180.38297115971727L124.02142735519783,180.96992288122783L120.61904893671613,180.38297115971727L119.86296484371996,179.7960072709211L119.86296484371996,177.44803002932167L119.86296484371996,177.44803002932167L119.86296484371996,177.44803002932167L119.86296484371996,176.8610052939075L118.35079665772832,176.8610052939075L116.08254437874052,176.8610052939075L115.70450233224255,176.8610052939075L115.70450233224255,176.8610052939075L114.19233414625069,175.099858056652L113.81429209975249,173.33860125854335L114.19233414625069,170.40292974301337L114.94841823924662,168.64138069239198L114.94841823924662,166.87972201319644L114.94841823924662,165.1179536869713L115.32646028574459,161.59408801948666L115.32646028574459,160.41936862430885L116.46058642523872,158.0697835420542L117.59471256473262,156.8949178440016L119.10688075072403,153.9575401805996L119.48492279722223,151.01985756540307L119.48492279722223,149.84469911359702L119.86296484371996,148.6694918503199L120.24100689021816,148.6694918503199L120.61904893671613,148.6694918503199L120.99709098321387,148.6694918503199L121.75317507621025,148.0818699126503L122.50925916920596,147.49423577006382L125.15555349469173,146.3189308673318L128.17988986667524,145.14357713667778L129.31401600616937,145.14357713667778L131.20422623865898,145.14357713667778L133.85052056414474,144.55588195914243L138.00898307562238,145.14357713667778L141.0333194476059,145.14357713667778L141.41136149410409,145.14357713667778L141.78940354060205,145.14357713667778L144.43569786608782,144.55588195914243L145.19178195908353,144.55588195914243L145.19178195908353,143.9681745725611L145.56982400558172,143.9681745725611L146.70395014507562,142.79272316951392L147.83807628456952,142.20497915166925L147.83807628456952,142.20497915166925L148.21611833106726,142.20497915166925L148.59416037756546,141.61722292204286L149.35024447056117,142.20497915166925L149.35024447056117,142.20497915166925L150.1063285635571,143.38045497625353L151.24045470305123,143.9681745725611L153.13066493554084,145.14357713667778L155.77695926102683,145.73126010584747L156.53304335402277,145.73126010584747L157.66716949351667,145.14357713667778L158.04521154001418,145.14357713667778L158.04521154001418,145.14357713667778L158.42325358651237,145.14357713667778L158.80129563301057,145.73126010584747L159.17933767950808,146.3189308673318L159.55737972600627,146.3189308673318L162.20367405149204,149.25710158374204L162.20367405149204,149.25710158374204L164.09388428398188,151.60741848869293L164.09388428398188,151.60741848869293L164.09388428398188,151.60741848869293L166.74017860946788,151.60741848869293L168.2523467954593,151.60741848869293L169.76451498145138,151.60741848869293L170.14255702794912,152.19496721118412L170.8986411209455,152.19496721118412L172.41080930693693,152.78250373353512L173.54493544643083,152.19496721118412L174.301019539427,152.19496721118412L175.4351456789209,151.60741848869293L178.08144000440643,153.3700280564517L179.21556614390033,153.9575401805996L182.23990251588384,154.54504010668825L182.61794456238204,154.54504010668825L182.99598660888023,153.9575401805996L183.37402865537797,153.9575401805996L184.1301127483739,153.9575401805996L184.88619684137007,153.9575401805996L187.53249116685583,154.54504010668825L190.17878549234115,155.7200033673762L192.44703777132918,156.8949178440016L193.95920595732127,157.48235679000572L195.84941618981088,158.65719810081282L197.73962642230072,158.65719810081282L198.87375256179462,158.65719810081282L199.25179460829236,159.83199064125438L199.62983665479032,159.83199064125438L200.38592074778649,161.00673441683102L200.38592074778649,161.00673441683102L201.14200484078242,160.41936862430885L213.6173923752151,154.54504010668825L214.37347646821104,155.132527835387L214.37347646821104,155.132527835387L214.75151851470923,155.7200033673762L215.50760260770494,155.7200033673762L216.64172874719884,155.132527835387L218.15389693319094,154.54504010668825L218.90998102618664,153.9575401805996L219.66606511918258,153.9575401805996L222.69040149116609,154.54504010668825L224.95865377015411,155.7200033673762L225.33669581665185,155.132527835387L225.33669581665185,154.54504010668825L226.47082195614576,153.3700280564517L227.98299014213785,152.19496721118412L230.6292844676234,150.43228444059423L231.3853685606191,149.25710158374204L232.89753674661142,147.49423577006382L234.03166288610532,145.14357713667778L236.29991516509313,142.79272316951392L238.19012539758273,142.20497915166925L241.21446176956647,142.20497915166925L244.23879814155043,141.61722292204286L244.23879814155043,141.61722292204286L244.99488223454614,141.0294544799326L246.507050420538,139.85388095552844L246.88509246703597,139.85388095552844L247.26313451353417,139.2660758718739L247.26313451353417,139.2660758718739L248.7753026995258,135.73898882609865L248.7753026995258,135.73898882609865L249.53138679252174,135.15109822142404L250.66551293201564,134.5631953967204L252.1776811180075,133.9752803513038L253.68984930399915,133.3873530844685L254.44593339699531,133.3873530844685L255.580059536489,132.79941359554869L256.7141856759829,132.211461883835L257.8483118154768,132.211461883835L258.60439590847295,132.211461883835L258.9824379549707,132.211461883835L259.7385220479666,132.211461883835L260.4946061409628,132.79941359554869L260.4946061409628,132.79941359554869L262.76285841995036,132.211461883835L266.54327888493026,131.62349794866896L270.32369934990993,131.03552178931932L271.83586753590134,131.03552178931932L274.8602039078853,129.85953279543173L277.88454027986904,128.6834948966607L280.90887665185255,127.50740808749106L283.5551709773388,126.33127236246582L283.5551709773388,125.7431861547775L283.9332130238363,125.7431861547775L285.4453812098284,125.7431861547775L285.4453812098284,125.7431861547775L286.2014653028241,125.7431861547775L289.22580167480805,126.33127236246582L291.8720960002936,126.33127236246582L292.2501380467918,126.91934633981509L293.7623062327832,126.91934633981509L294.1403482792814,126.33127236246582L294.1403482792814,125.7431861547775L293.0062221397875,124.56697704559338L291.8720960002936,123.39071900678391L291.4940539537961,122.2144120328303L290.7379698607997,119.86165125746993L290.7379698607997,119.27343047055547L290.7379698607997,119.27343047055547L291.4940539537961,118.68519744503647L291.8720960002936,117.50869467545272L292.2501380467918,117.50869467545272L291.8720960002936,116.92042492999099L291.1160119072979,115.74384871431903L291.1160119072979,115.74384871431903L291.1160119072979,113.97889256857161L291.1160119072979,112.21382621962039L291.1160119072979,108.68336283761528L290.7379698607997,107.50644370960435L292.62818009328953,104.56393146080154L293.0062221397875,103.97539224630236L293.3842641862857,103.38684077529615L294.1403482792814,100.44389954826693L294.8964323722771,97.5006518047121L295.2744744187753,94.55709745841159L296.03055851177123,92.2020331693493L295.2744744187753,89.25792672050375L295.2744744187753,89.25792672050375L294.8964323722771,89.25792672050375L294.5183903257796,89.25792672050375L292.62818009328953,89.25792672050375L291.1160119072979,89.25792672050375L289.98188576780376,85.72459393953613L289.603843721306,84.54671812981178L290.35992781430195,83.36879320286607L290.7379698607997,82.77981231870581L291.1160119072979,82.77981231870581L291.1160119072979,82.19081915314746L291.4940539537961,81.60181370551072L291.8720960002936,80.42376596125177L292.2501380467918,78.06752305737609L293.0062221397875,75.7110835627791L293.3842641862857,74.5327900801276L294.1403482792814,73.94362490253116L294.8964323722771,72.76525767136991L295.2744744187753,72.17605561641903L296.4086005582694,69.81912445121634L297.16468465126513,67.46199654023803L297.92076874426107,67.46199654023803L299.8109789767509,66.87268381575632L300.9451051162448,66.87268381575632L300.9451051162448,66.87268381575632L301.32314716274277,66.87268381575632L301.32314716274277,66.87268381575632L301.32314716274277,66.87268381575632L303.96944148822854,63.925935678376845L310.0181142321958,60.978879952439456L316.06678697616326,58.03151655128022L316.44482902266145,55.08384538820246L314.5546187901714,52.135866376469494L317.57895516215535,52.135866376469494L320.2252494876409,45.059460206546646L319.8472074411427,43.879886650131084L322.4935017666287,42.110433860209014L324.00566995262056,41.52059160603676L326.65196427810633,40.93073702195761L328.1641324640982,39.750990861244645L332.70063702207403,36.80140963714075L336.85909953355144,33.85152002596442L342.90777227751914,25L343.66385637051485,25L343.28581432401666,25.590187754904036L343.28581432401666,27.95081529441086L343.28581432401666,28.54094131271995L343.28581432401666,29.13105498582445L343.66385637051485,29.72115631439374L344.41994046351056,30.3112452991154L346.3101506960004,32.67147781361564L347.8223188819925,33.85152002596442L348.9564450214864,33.26150508962019L349.7125291144821,33.26150508962019L351.9807813934701,33.85152002596442L352.35882343996786,33.85152002596442L352.73686548646583,33.85152002596442L355.00511776545363,33.85152002596442L357.6514120909394,33.85152002596442L360.29770641642517,33.85152002596442L361.80987460241704,33.26150508962019L362.56595869541275,33.26150508962019L363.3220427884089,33.26150508962019L364.0781268814046,34.44152262333591L364.0781268814046,35.03151288245863L364.4561689279028,36.80140963714075L365.2122530208985,40.34087010724761L365.9683371138947,40.93073702195761L367.10246325338835,41.52059160603676L367.48050529988654,41.52059160603676L368.23658939288225,41.52059160603676L368.61463143938045,41.52059160603676L369.37071553237615,41.52059160603676L369.74875757887435,41.52059160603676L370.12679962537186,41.52059160603676L370.12679962537186,41.52059160603676L370.50484167187005,42.110433860209014L370.50484167187005,43.29008138155041L370.12679962537186,43.879886650131084L369.74875757887435,44.46967959155518L367.10246325338835,46.828728099779255L366.7244212068906,46.828728099779255L366.3463791603924,46.828728099779255L364.0781268814046,48.59788507999474L361.05379050942133,50.956588554727205L359.91966436992743,52.725486810879374L359.54162232342924,53.90469073020722L359.54162232342924,54.494274216518534L361.05379050942133,56.85248502234026L361.80987460241704,59.21049883833257L361.80987460241704,59.799971517863014L362.187916648915,60.389431889012485L361.05379050942133,64.51530991016625L360.67574846292314,65.10467183911533L360.67574846292314,65.10467183911533L360.29770641642517,66.28335879121369L361.05379050942133,67.46199654023803L362.187916648915,69.22986092012798L361.43183255591885,72.17605561641903L361.05379050942133,72.17605561641903L360.29770641642517,71.58684126760636L359.54162232342924,71.58684126760636L358.0294541374376,69.81912445121634L357.2733700444412,68.64058509172173L357.2733700444412,68.05129696531367L357.6514120909394,66.87268381575632L357.2733700444412,66.28335879121369L357.2733700444412,66.28335879121369L356.5172859514455,65.10467183911533L355.00511776545363,64.51530991016625L354.6270757189559,64.51530991016625L354.2490336724577,64.51530991016625L353.11490753296357,64.51530991016625L353.11490753296357,64.51530991016625L352.73686548646583,64.51530991016625L352.73686548646583,64.51530991016625L353.11490753296357,65.10467183911533L350.846655253976,67.46199654023803L350.09057116098006,68.64058509172173L349.33448706798436,69.81912445121634L350.46861320747826,71.58684126760636L351.22469730047396,73.35444743318294L350.46861320747826,74.5327900801276L349.7125291144821,75.12194296664893L349.7125291144821,75.12194296664893L349.7125291144821,75.7110835627791L350.09057116098006,76.88932788668899L350.09057116098006,78.06752305737609L350.09057116098006,78.65660221200233L349.7125291144821,80.42376596125177L348.5784029749882,84.54671812981178L347.8223188819925,84.54671812981178L347.4442768354943,84.54671812981178L347.0662347889963,84.54671812981178L346.6881927424986,84.54671812981178L344.79798251000875,84.54671812981178L343.28581432401666,84.54671812981178L343.28581432401666,84.54671812981178L341.77364613802524,85.13566217398693L342.52973023102095,85.72459393953613L342.52973023102095,86.31351342714697L342.52973023102095,86.31351342714697L342.15168818452275,86.90242063752885L341.39560409152705,87.49131557135479L341.39560409152705,87.49131557135479L341.39560409152705,88.08019822934511L341.39560409152705,88.08019822934511L341.77364613802524,88.08019822934511L341.77364613802524,88.66906861216557L342.15168818452275,88.66906861216557L342.52973023102095,88.66906861216557L342.90777227751914,88.66906861216557L343.66385637051485,88.66906861216557L343.66385637051485,88.66906861216557L344.79798251000875,89.25792672050375L344.79798251000875,89.25792672050375L345.1760245565065,90.43560611654175L344.79798251000875,91.61323642298521L344.41994046351056,93.3795898517601L344.41994046351056,93.3795898517601L344.41994046351056,93.96834978921106L344.41994046351056,93.96834978921106L344.79798251000875,94.55709745841159L345.5540666030047,95.73455599479348L346.3101506960004,96.32326686337183L346.6881927424986,96.32326686337183L347.8223188819925,96.32326686337183L348.2003609284902,96.32326686337183L348.5784029749882,96.32326686337183L349.33448706798436,96.32326686337183L349.7125291144821,96.91196546644278L349.7125291144821,96.91196546644278L349.7125291144821,97.5006518047121L350.09057116098006,98.67798768964349L350.09057116098006,100.44389954826693L350.09057116098006,101.03251231222384L349.7125291144821,101.62111281622492L349.7125291144821,102.20970106095047L348.9564450214864,102.79827704706622L346.6881927424986,103.97539224630236L345.93210864950265,104.56393146080154L343.66385637051485,106.9179657673667L342.15168818452275,109.86023296161147L341.01756204502885,112.8021939152095L341.01756204502885,114.56722352770885L341.77364613802524,116.33214294318532L341.77364613802524,118.68519744503647L341.01756204502885,121.03805611821008L340.6395199985311,122.80257163703573L340.26147795203315,124.56697704559338L340.26147795203315,125.155087716048L340.6395199985311,125.155087716048L340.6395199985311,125.155087716048L340.6395199985311,125.7431861547775L341.01756204502885,125.7431861547775L341.39560409152705,126.91934633981509L341.39560409152705,127.50740808749106L341.01756204502885,127.50740808749106L339.5053938590372,129.85953279543173L338.7493097660413,130.4475334051349L337.6151836265474,132.211461883835L336.85909953355144,133.3873530844685L336.48105748705325,133.9752803513038L336.1030154405555,133.9752803513038L334.9688893010616,133.9752803513038L333.83476316156793,133.9752803513038L331.94455292907764,136.32686721141363L331.5665108825799,139.85388095552844L330.8104267895842,141.61722292204286L330.432384743086,142.20497915166925L330.432384743086,143.38045497625353L330.432384743086,143.9681745725611L330.8104267895842,145.73126010584747L330.8104267895842,148.0818699126503L330.8104267895842,148.6694918503199L331.1884688360817,148.6694918503199L334.59084725456364,149.84469911359702L336.48105748705325,150.43228444059423L336.85909953355144,150.43228444059423L339.127351812539,151.01985756540307L339.5053938590372,151.01985756540307L340.26147795203315,151.01985756540307L341.39560409152705,151.60741848869293L342.90777227751914,152.78250373353512L345.5540666030047,153.9575401805996L345.5540666030047,153.9575401805996L346.6881927424986,153.9575401805996L347.8223188819925,153.3700280564517L348.9564450214864,152.78250373353512L349.33448706798436,152.78250373353512L349.7125291144821,152.78250373353512L351.9807813934701,153.9575401805996L352.73686548646583,154.54504010668825L353.11490753296357,155.132527835387L353.11490753296357,155.7200033673762L354.2490336724577,158.65719810081282L354.6270757189559,160.41936862430885L355.00511776545363,161.00673441683102L355.7612018584498,163.35607569522836L356.5172859514455,163.94338054533364L358.0294541374376,165.1179536869713L359.16358027693127,165.70522197984974L360.67574846292314,166.29247808837317L362.187916648915,167.46695375501076L364.4561689279028,169.22857588930128L364.8342109744008,169.81575890595195L365.2122530208985,169.81575890595195L365.2122530208985,170.40292974301337L364.8342109744008,171.57723488114425L364.8342109744008,172.75149130913996L364.8342109744008,173.33860125854335L368.23658939288225,177.44803002932167L368.23658939288225,178.03504259405963L367.48050529988654,179.20903121416632L367.10246325338835,182.14378982514972L365.9683371138947,183.9044990035618L364.8342109744008,185.07824430547043L363.70008483490665,185.66509871337257L363.70008483490665,185.66509871337257L363.70008483490665,186.25194096014457L362.187916648915,189.18596980091752L361.43183255591885,189.7727390952532L360.29770641642517,192.11969471588964L359.16358027693127,195.63976355182967L358.4074961839351,197.39963394195365L357.6514120909394,198.57282013014628L357.2733700444412,199.74595773385954L357.2733700444412,200.3325083182499L357.6514120909394,200.91904675856495L358.0294541374376,201.5055730554668L358.0294541374376,202.0920872096758L358.0294541374376,202.0920872096758L357.2733700444412,202.67858922184314L356.5172859514455,203.26507909267093L355.7612018584498,203.26507909267093L355.7612018584498,203.26507909267093L354.6270757189559,203.26507909267093L354.2490336724577,203.26507909267093L353.87099162595973,206.1973463503855L353.49294957946177,208.54294168176057L353.49294957946177,209.7156665375005L353.87099162595973,210.30201076525918L353.87099162595973,210.88834286052952L353.87099162595973,210.88834286052952L354.6270757189559,212.06097065629365L355.00511776545363,212.64726635815532L355.00511776545363,213.23354993023895L355.7612018584498,213.23354993023895L355.7612018584498,213.81982137324303L356.1392439049473,213.81982137324303L356.5172859514455,215.57856293447549L357.6514120909394,216.750996675637L359.54162232342924,216.750996675637L360.29770641642517,221.44024669425198L360.29770641642517,224.37063404770743L360.29770641642517,227.88669904560084L360.67574846292314,227.88669904560084L361.05379050942133,228.47266748228503L361.80987460241704,229.05862380755207L361.80987460241704,230.8164201216241L361.05379050942133,231.9882237863494L359.91966436992743,233.15997902172603L359.16358027693127,233.7458384800775L359.16358027693127,234.91752108157743L358.7855382304333,236.0891552672474L358.7855382304333,237.2607410425553L358.0294541374376,239.01802894794673L357.2733700444412,240.77520796052704L355.3831598119516,244.2892393804832L355.00511776545363,246.0460918244862L356.8953279979437,247.21726633069193L357.6514120909394,247.80283544890335L358.0294541374376,247.80283544890335L358.4074961839351,247.80283544890335L359.91966436992743,247.80283544890335L361.05379050942133,247.21726633069193L360.67574846292314,244.8748689540189L362.94400074191094,245.46048643511676L364.4561689279028,245.46048643511676L364.8342109744008,245.46048643511676L364.8342109744008,246.0460918244862L365.9683371138947,246.63168512278935L367.10246325338835,247.80283544890335L367.48050529988654,248.38839247807482L367.48050529988654,248.38839247807482L370.12679962537186,247.80283544890335L372.01700985786215,248.97393741887572L372.3950519043599,249.55947027200455L372.3950519043599,249.55947027200455L373.5291780438538,249.55947027200455L374.2852621368497,249.55947027200455L375.4193882763436,249.55947027200455L375.7974303228416,249.55947027200455L377.30959850883346,248.97393741887572L379.57785078782126,247.80283544890335L380.33393488081697,247.80283544890335L381.09001897381336,248.38839247807482L383.7363132992989,248.97393741887572L383.7363132992989,248.97393741887572L383.7363132992989,248.97393741887572L384.1143553457971,247.21726633069193L386.76064967128264,245.46048643511676L387.89477581077654,245.46048643511676L388.2728178572743,246.0460918244862L388.2728178572743,246.63168512278935L388.65085990377247,246.0460918244862L389.7849860432664,242.53227809859527L389.7849860432664,242.53227809859527L390.16302808976434,241.94660014861074L391.297154229258,241.3609101028087L391.6751962757562,241.3609101028087L392.0532383222544,240.77520796052704L392.8093224152501,240.77520796052704L393.1873644617483,240.77520796052704L393.5654065082458,240.77520796052704L394.32149060124175,241.3609101028087L395.0775746942379,242.53227809859527L395.45561674073565,242.53227809859527L396.96778492672775,242.53227809859527L397.72386901972345,241.3609101028087L398.10191106622165,240.18949372106363L398.85799515921735,240.18949372106363L399.23603720571555,240.18949372106363L400.7482053917074,240.77520796052704L402.2603735776993,241.3609101028087L403.77254176369115,241.3609101028087L404.52862585668686,241.3609101028087L406.04079404267895,241.3609101028087L409.0651304146627,242.53227809859527L410.1992565541566,245.46048643511676L410.57729860065433,246.0460918244862L410.9553406471523,246.63168512278935L412.46750883314417,250.1449910381598L412.46750883314417,250.73049971796354L412.46750883314417,251.3159963121252L413.2235929261401,251.9014808213251L414.73576111213197,253.072413587528L415.11380315862993,253.072413587528L416.6259713446218,253.65786184588796L420.0283497631035,255.41413413010014L422.67464408858905,257.1702976922643L424.18681227458114,257.75566138902286L424.94289636757685,258.3410130082593L426.4550645535687,258.92635255064306L427.5891906930626,258.92635255064306L427.9672327395608,258.92635255064306L429.8574429720504,259.5116800168653L432.88177934403416,260.6822987235064L433.63786343702986,262.43813622911694L434.01590548352806,263.6086342045164L436.6621998090138,263.6086342045164L437.79632594850773,263.6086342045164L440.4426202739935,263.0233912525291L441.19870436698966,263.0233912525291L441.95478845998537,263.0233912525291L442.33283050648356,263.0233912525291L442.33283050648356,262.43813622911694L443.844998692475,261.2675899652895L444.9791248319691,262.43813622911694L445.7352089249648,263.0233912525291L446.113250971463,264.7790838968831L446.4912930179612,264.7790838968831L446.8693350644587,265.3642906386267L448.0034612039526,266.53466791659594L449.1375873434465,268.2901433299194L449.8936714364427,269.4603999442552L451.7838816689323,272.3858303719644L452.53996576192844,274.1409438957562L454.0521339479203,276.4809264436444L454.808218040916,278.82071609726336L454.808218040916,278.82071609726336L455.1862600874142,279.9905386022074L455.9423441804099,281.7451819725029L457.0764703199038,284.0845377719088L457.0764703199038,284.0845377719088L456.3203862269081,287.5932100709106L456.3203862269081,288.7626711521225L456.3203862269081,289.93208406643316L456.6984282734056,289.93208406643316L457.454512366402,290.51677246268446L458.5886385058957,291.1014488192195L459.7227646453896,291.68611313674774L461.23493283138146,292.2707654158985L462.7471010173733,292.85540565738484L463.8812271568672,293.44003386186523L463.8812271568672,294.6092541624712L464.2592692033652,294.6092541624712L464.2592692033652,294.6092541624712L464.2592692033652,294.0246500299909L464.63731124986293,294.0246500299909L465.0153532963611,293.44003386186523L465.3933953428591,292.85540565738484L466.527521482353,291.68611313674774L466.90556352885096,291.1014488192195L466.90556352885096,289.93208406643316L468.41773171484306,289.34738362980715L469.92989990083447,289.93208406643316L470.68598399383063,291.1014488192195L472.1981521798225,292.85540565738484L472.5761942263207,293.44003386186523L472.5761942263207,295.193846259961L472.5761942263207,295.7784263231297L472.5761942263207,296.36299435266847L472.1981521798225,298.116626246152L471.82011013332453,299.28565401930246L471.82011013332453,299.8701498611299L471.82011013332453,303.96128398170913L472.5761942263207,303.96128398170913L472.5761942263207,303.96128398170913L473.3322783193164,303.96128398170913L476.7346567377979,303.3768723282228L477.8687828772918,303.3768723282228L478.62486697028794,303.3768723282228L481.6492033422719,302.7924486498632L483.917455621259,303.96128398170913L484.2954976677572,304.54568361096244L485.4296238072511,304.54568361096244L485.8076658537491,303.96128398170913L486.18570790024705,303.96128398170913L486.18570790024705,303.3768723282228L486.56374994674525,303.3768723282228L486.941791993243,302.7924486498632L487.31983403974095,302.2080129459282L487.69787608623915,302.2080129459282L488.45396017923485,302.7924486498632L490.3441704117249,304.54568361096244L491.1002545047206,306.29881036018196L492.6124226907127,306.29881036018196L494.50263292320255,305.7144467995204L496.39284315569216,305.1300712166885L497.52696929518606,304.54568361096244L497.90501134168403,305.1300712166885L500.92934771366754,305.7144467995204L501.6854318066637,307.4675014175773L502.44151589965963,308.0518289156789L503.19759999265557,307.4675014175773L503.57564203915376,307.4675014175773L503.9536840856513,306.8831618993172L504.70976817864766,306.29881036018196L505.46585227164337,305.1300712166885L506.2219363646391,304.54568361096244L507.7341045506312,302.7924486498632L510.3803988761167,302.2080129459282L511.5145250156106,301.6235652157593L511.8925670621086,302.2080129459282L514.5388613875944,304.54568361096244L515.6729875270883,305.7144467995204L516.0510295735862,306.29881036018196L516.4290716200844,306.8831618993172L516.4290716200844,307.4675014175773L516.0510295735862,308.0518289156789L516.4290716200844,308.0518289156789L517.1851557130801,308.0518289156789L517.1851557130801,309.2204478540116L517.5631977595783,309.80473929560685L518.319281852574,310.38901871969574L518.6973238990722,310.38901871969574L519.4534079920679,310.9732861269804L519.4534079920679,310.9732861269804L520.2094920850636,312.14178489377446L520.5875341315618,312.7260162546372L523.2338284570476,314.47863825513195L525.5020807360352,315.64699286043106L525.5020807360352,315.64699286043106L526.2581648290313,316.23115214660356L526.6362068755293,316.81529942266206L528.5264171080191,318.56766919699294L530.416627340509,320.90399412881015L530.7946693870072,320.90399412881015L530.7946693870072,320.90399412881015L531.1727114335047,321.4880453482765L533.4409637124925,323.8241301923117L533.8190057589907,323.8241301923117L534.1970478054884,324.4081213982281L534.5750898519864,324.99210060343466L535.3311739449823,326.16002301446497L535.3311739449823,327.3278974307468L534.5750898519864,328.4957238576535L532.6848796194968,329.6635023005583L531.1727114335047,330.83123276483457L530.416627340509,331.9989152558519L528.9044591545171,334.3341363394902L527.3922909685252,336.6691655943978L525.1240386895374,340.1713498917452L525.1240386895374,340.75500533162995L525.1240386895374,341.33864878961685L525.1240386895374,341.9222802663353L525.1240386895374,343.67310281566097L525.8801227825334,344.84025795453636L527.014248922027,346.59090083524643L527.7703330150232,349.50839947407803L527.7703330150232,350.67531512173446L528.9044591545171,351.8421828872015L528.9044591545171,351.8421828872015L529.2825012010151,351.8421828872015L529.2825012010151,351.8421828872015L529.660543247513,350.67531512173446L530.416627340509,350.0918632835055L530.416627340509,350.0918632835055L530.416627340509,349.50839947407803L530.7946693870072,349.50839947407803L531.5507534800029,350.0918632835055L531.9287955265011,349.50839947407803L531.9287955265011,349.50839947407803L531.9287955265011,349.50839947407803L533.0629216659943,348.9249236927535L534.5750898519864,348.34143593886984L534.9531318984846,348.34143593886984L535.7092159914805,348.9249236927535L536.4653000844762,348.9249236927535L537.2213841774721,348.9249236927535L537.5994262239701,348.9249236927535L538.3555103169663,348.34143593886984L539.111594409962,346.0073651844614L539.4896364564602,344.2566863740467L539.4896364564602,343.67310281566097L539.4896364564602,343.0895072786843L539.8676785029579,341.9222802663353L540.6237625959541,340.1713498917452L542.1359307819455,340.1713498917452L542.5139728284437,340.1713498917452L542.8920148749419,340.1713498917452L543.2700569214396,340.1713498917452L543.6480989679378,340.75500533162995L545.5383092004274,342.5058997624619L547.0504773864195,344.2566863740467L548.1846035259132,344.84025795453636L549.6967717119051,344.84025795453636L552.3430660373908,345.42381755779206L556.1234865023703,347.1744245107875L557.2576126418642,347.1744245107875L557.2576126418642,347.7579362117831L558.0136967348606,347.7579362117831L558.7697808278563,348.34143593886984L558.7697808278563,348.34143593886984L558.7697808278563,348.34143593886984L558.3917387813581,348.34143593886984L556.8795705953664,351.2587549894197L554.6113183163786,354.17577479299143L554.2332762698804,354.7591428514388L554.2332762698804,355.34249894402456L553.8552342233829,355.34249894402456L553.4771921768847,357.6758036690444L553.4771921768847,359.42565660399123L553.4771921768847,360.592165423579L553.0991501303865,361.1754018942738L553.0991501303865,361.75862640643754L552.3430660373908,362.3418389607723L552.3430660373908,362.9250395579329L551.9650239908929,362.9250395579329L551.5869819443949,362.9250395579329L551.5869819443949,362.9250395579329L549.6967717119051,362.9250395579329L549.3187296654071,362.9250395579329L547.0504773864195,362.9250395579329L546.6724353399213,362.9250395579329L546.2943932934231,362.9250395579329L545.9163512469256,363.50822819856694L544.7822251074317,364.6745696130056L543.6480989679378,365.2577223881199L542.8920148749419,365.2577223881199L542.1359307819455,364.6745696130056L541.001804642452,364.09140488335834L540.6237625959541,364.09140488335834L540.6237625959541,363.50822819856694L540.2457205494559,363.50822819856694L539.8676785029579,362.9250395579329L539.8676785029579,362.3418389607723L539.8676785029579,361.75862640643754L539.8676785029579,361.1754018942738L539.4896364564602,361.1754018942738L539.111594409962,361.1754018942738L539.111594409962,361.1754018942738L538.733552363464,361.1754018942738L538.733552363464,361.1754018942738L538.733552363464,361.75862640643754L538.3555103169663,362.9250395579329L537.9774682704683,363.50822819856694L536.8433421309744,364.6745696130056L536.0872580379782,365.84086320939605L535.7092159914805,367.5902139568934L534.9531318984846,368.756388031612L534.1970478054884,369.9225143069889L533.8190057589907,370.5055595215854L533.4409637124925,370.5055595215854L531.9287955265011,371.67161410799235L530.416627340509,373.4206063905149L530.0385852940108,376.3353546470571L529.660543247513,376.9182684722218L529.2825012010151,377.50117035688163L528.5264171080191,378.66693830741497L527.3922909685252,379.24980437458726L526.6362068755293,379.832658503954L527.3922909685252,381.581149271733L528.1483750615209,382.16395565645144L526.6362068755293,382.7467501066676L525.1240386895374,383.32953262304727L522.8557864105499,383.91230320628165L522.0997023175537,383.91230320628165L520.5875341315618,384.49506185702194L517.5631977595783,385.6605433636614L516.8071136665822,386.2432662209103L516.4290716200844,387.4086761465587L516.0510295735862,388.57403835820514L515.6729875270883,389.73935286118285L515.2949454805903,390.3219922235912L514.1608193410964,391.4872351735394L513.7827772945986,392.0698387624325L514.1608193410964,390.3219922235912L511.1364829691129,390.3219922235912L510.7584409226149,390.90461966081057L510.00235682961875,391.4872351735394L509.624314783121,392.0698387624325L509.2462727366228,392.0698387624325L508.4901886436271,392.0698387624325L507.7341045506312,390.90461966081057L507.7341045506312,390.3219922235912L507.7341045506312,389.73935286118285L507.356062504133,387.99136321630795L506.2219363646391,385.0778085759157L505.46585227164337,383.91230320628165L505.0878102251452,383.32953262304727L504.33172613214947,383.32953262304727L502.8195579461576,382.7467501066676L500.17326362067183,380.9983309518502L499.03913748117793,380.4155006961555L498.66109543467996,380.4155006961555L498.66109543467996,379.832658503954L499.03913748117793,377.50117035688163L499.03913748117793,376.3353546470571L495.25871701619826,375.1694911725899L491.85633859771633,374.00357992815043L489.9661283652267,374.00357992815043L488.8320022257328,374.00357992815043L488.0759181327369,375.1694911725899L487.31983403974095,375.75242888074354L486.56374994674525,376.9182684722218L486.18570790024705,376.9182684722218L485.05158176075315,377.50117035688163L484.6735397142554,377.50117035688163L483.917455621259,376.9182684722218L482.7833294817651,376.3353546470571L482.0272453887694,375.75242888074354L481.2711612957737,375.75242888074354L479.3809510632839,376.3353546470571L477.8687828772918,376.9182684722218L477.1126987842961,377.50117035688163L476.3566146912999,378.0840603017241L475.97857264480217,378.66693830741497L474.0883624123121,379.24980437458726L472.9542362728182,379.832658503954L472.1981521798225,379.832658503954L471.44206808682657,379.24980437458726L470.68598399383063,378.0840603017241L470.30794194733267,377.50117035688163L471.0640260403284,377.50117035688163L470.30794194733267,375.1694911725899L468.03968966834486,372.2546234811016L467.66164762184667,371.67161410799235L467.66164762184667,370.5055595215854L467.66164762184667,369.3394571438803L466.90556352885096,367.00710899312617L466.90556352885096,366.4239920775108L464.2592692033652,364.6745696130056L462.36905897087536,363.50822819856694L460.47884873838575,363.50822819856694L459.34472259889185,363.50822819856694L458.21059645939795,363.50822819856694L456.6984282734056,362.9250395579329L455.1862600874142,362.3418389607723L454.808218040916,362.3418389607723L452.9180078084264,363.50822819856694L451.7838816689323,365.84086320939605L451.40583962243454,366.4239920775108L450.6497555294384,367.00710899312617L449.8936714364427,371.0885927883719L450.27171348294064,372.8376209083981L451.40583962243454,374.58654152195595L451.7838816689323,375.75242888074354L451.7838816689323,378.66693830741497L452.53996576192844,379.832658503954L452.53996576192844,380.4155006961555L452.53996576192844,380.9983309518502L451.0277975759366,383.32953262304727L451.0277975759366,384.49506185702194L450.27171348294064,383.91230320628165L447.2473771109569,382.7467501066676L446.8693350644587,382.7467501066676L446.113250971463,382.7467501066676L446.113250971463,382.7467501066676L446.113250971463,385.0778085759157L445.7352089249648,386.2432662209103L445.3571668784673,387.4086761465587L445.3571668784673,387.99136321630795L444.9791248319691,387.99136321630795L443.844998692475,389.15670157295244L443.844998692475,390.90461966081057L443.844998692475,393.8175779927042L444.6010827854709,396.14773007299664L446.4912930179612,394.9826778725437L448.0034612039526,394.9826778725437L448.0034612039526,394.9826778725437L448.0034612039526,395.5652099323561L446.8693350644587,397.89521898646854L445.3571668784673,400.22503737621446L444.22304073897317,403.1370423064909L443.844998692475,404.30176090017267L443.46695664597746,404.30176090017267L443.08891459947927,404.30176090017267L442.7108725529811,404.30176090017267L442.7108725529811,404.30176090017267L442.33283050648356,404.30176090017267L442.33283050648356,404.88410233287505L442.7108725529811,405.46643185703215L441.95478845998537,407.21334898486384L441.19870436698966,407.79563088146824L440.4426202739935,410.12463942232716L440.06457822749576,410.70686179947006L439.68653618099756,410.70686179947006L439.3084941344996,411.289072274707L438.93045208800163,411.289072274707L438.55241004150366,411.8712708486928L436.6621998090138,411.8712708486928L434.77198957652377,411.289072274707L432.50373729753596,413.61779516988827L432.50373729753596,413.61779516988827L432.50373729753596,414.1999461455707L432.50373729753596,414.78208522331624L433.25982139053235,416.52843107570516L434.01590548352806,417.692602166524L435.15003162302196,418.2746698707015L436.6621998090138,420.60282176124747L436.6621998090138,421.1848300056772L437.0402418555118,421.1848300056772L437.0402418555118,421.76682636013356L437.0402418555118,422.34881082530774L437.0402418555118,422.34881082530774L437.0402418555118,422.9307834018473L437.0402418555118,422.9307834018473L437.0402418555118,422.9307834018473L437.41828390201,424.09469289166736L437.79632594850773,424.09469289166736L437.79632594850773,424.09469289166736L440.06457822749576,424.676629806283L440.82066232049146,425.2585548349016L441.5767464134872,425.8404679782034L441.5767464134872,425.8404679782034L441.5767464134872,426.4223692368614L441.5767464134872,427.586136102851L441.5767464134872,428.7498554381782L441.19870436698966,429.91352724811077L441.19870436698966,430.4953453327289L441.19870436698966,432.82249888423394L441.19870436698966,433.40425757867706L441.95478845998537,433.9860043970948L443.08891459947927,435.7311736026677L444.22304073897317,436.8945603716238L444.6010827854709,438.05789965228905L445.3571668784673,439.22119144995304L447.62541915745487,439.22119144995304L448.0034612039526,439.22119144995304L448.3815032504508,439.22119144995304L448.7595452969488,439.8028195443221L449.5156293899447,438.63955148617606L451.0277975759366,440.3844357699236L451.40583962243454,440.96604012740863L451.7838816689323,441.5476326174721L451.40583962243454,442.1292132407325L451.0277975759366,443.8738839164798L450.6497555294384,444.45541707925076L451.0277975759366,445.61844781500986L451.0277975759366,446.7814311021648L450.27171348294064,448.52581707833815L449.8936714364427,448.52581707833815L449.5156293899447,449.1072553518061L447.62541915745487,448.52581707833815L447.62541915745487,449.6886817671257L447.62541915745487,450.8514990257827L448.0034612039526,450.8514990257827L448.7595452969488,453.1769912739801L448.7595452969488,453.75833470047655L449.5156293899447,454.9209859954135L449.8936714364427,456.0835898840305L449.8936714364427,457.24614637160994L449.8936714364427,458.4086554634232L449.8936714364427,458.4086554634232L449.8936714364427,458.4086554634232L449.5156293899447,459.57111716478175L449.8936714364427,460.15233024566623L450.27171348294064,460.15233024566623L451.7838816689323,460.7335314809279L453.6740919014221,461.89589841715497L453.2960498549246,463.6393599957046L451.7838816689323,465.382714999123L451.40583962243454,465.382714999123L450.6497555294384,465.96380965330536L449.8936714364427,465.96380965330536L448.3815032504508,466.5448924684606L446.113250971463,468.2880698862209L445.7352089249648,468.86910535179777L445.3571668784673,469.4501289816253L444.9791248319691,470.03114077635473L444.22304073897317,470.61214073666633L441.5767464134872,471.7741051566336L440.82066232049146,472.3550696176171L441.19870436698966,473.51696304485085L442.33283050648356,475.25971445880714L444.22304073897317,476.4214895911791L444.9791248319691,477.0023594162776L446.113250971463,477.58321741483087L447.62541915745487,478.7448979350447L449.1375873434465,480.48733003287634L449.1375873434465,480.48733003287634L449.1375873434465,481.0681170861426L448.7595452969488,481.64889231748384L448.0034612039526,485.1332954822283L448.0034612039526,485.7139879786155L448.0034612039526,485.7139879786155L448.0034612039526,486.2946686583309L448.3815032504508,487.4559945704641L446.113250971463,488.6172732239029L445.3571668784673,489.1978948302385L445.3571668784673,489.7785046238896L444.9791248319691,490.35910260548917L444.22304073897317,491.5202631351458L443.844998692475,492.10082568457074L443.46695664597746,492.10082568457074L443.46695664597746,491.5202631351458L443.46695664597746,491.5202631351458L441.19870436698966,490.93968877568113L439.3084941344996,491.5202631351458L435.9061157160179,492.10082568457074L432.88177934403416,490.93968877568113L432.50373729753596,490.93968877568113L431.74765320454026,492.10082568457074L430.2354850185486,493.84244247888637L429.8574429720504,494.4229577945662L429.8574429720504,495.00346130345133L430.61352706504636,496.1644329035007L430.99156911154455,496.7449009959637L431.3696111580425,497.32535728427683L430.99156911154455,498.4862344510366L430.2354850185486,499.6470644090441L427.9672327395608,502.54893280022225L427.5891906930626,503.12927108305666L425.32093841407504,506.030785556286L424.94289636757685,507.19130878539363L424.18681227458114,507.77155271111405L423.05268613508724,509.5122137407452L422.67464408858905,509.5122137407452L421.9185599955931,510.09241050365017L421.1624759025974,510.67259547747744L419.6503077166053,511.8329300605983L419.6503077166053,512.993217495321L419.6503077166053,513.5733435336806L419.6503077166053,513.5733435336806L420.4063918096015,514.1534577869024L420.4063918096015,514.1534577869024L420.7844338560992,514.7335602556632L420.7844338560992,515.3136509406031L420.0283497631035,517.0538522990464L421.1624759025974,517.633895855266L421.1624759025974,517.633895855266L421.9185599955931,518.2139276309317L423.05268613508724,520.5339369413305L423.80877022808295,522.273820260536L424.18681227458114,523.4336835957329L423.05268613508724,524.0135976020138L420.7844338560992,526.3331359003532L420.7844338560992,527.4928344225809L423.05268613508724,528.6524858671692L423.430728181585,528.6524858671692L425.32093841407504,532.1311577874694L425.698980460573,533.290620973843L425.698980460573,533.8703349223942L425.32093841407504,533.8703349223942L424.94289636757685,533.8703349223942L424.5648543210789,533.8703349223942L424.18681227458114,534.4500371087488L424.18681227458114,534.4500371087488L424.5648543210789,535.0297275335397L424.94289636757685,535.6094061974109L425.32093841407504,535.6094061974109L428.7233168325565,535.6094061974109L430.2354850185486,535.6094061974109L431.3696111580425,536.1890731010426L431.3696111580425,536.7687282450788L431.3696111580425,536.7687282450788L431.3696111580425,537.3483716301562L432.12569525103845,538.5076231261119L432.12569525103845,539.0872312382744L431.74765320454026,539.0872312382744L431.3696111580425,539.6668275941192L430.61352706504636,540.2464121942685L429.4794009255522,540.2464121942685L428.7233168325565,540.825985039417L428.3452747860588,540.825985039417L429.1013588790547,543.7236729626129L429.1013588790547,544.3031752913303L429.1013588790547,546.0416117773602L429.1013588790547,547.7799425269695L427.5891906930626,548.3593626162437L425.698980460573,548.9387709596194L423.430728181585,549.5181675577805L421.1624759025974,548.3593626162437L418.8942236236096,548.9387709596194L416.24792929812384,549.5181675577805L414.3577190656338,550.6769255210093L413.97967701913603,550.6769255210093L413.97967701913603,550.6769255210093L411.71142474014823,551.8356365111576L410.1992565541566,552.4149743929665L409.0651304146627,553.5736149332806L408.6870883681645,554.1529175931064L409.0651304146627,554.7322085135529L409.8212145076584,555.3114876953186L409.8212145076584,555.3114876953186L409.8212145076584,555.8907551390294L408.30904632166676,557.0492548148904L406.41883608917647,557.6284870483578L405.2847099496828,558.2077075463712L403.39449971719296,559.366113338685L402.638415624197,559.9452986342876L401.1262474382054,560.5244721970412L399.6140792522135,561.103634027626L398.10191106622165,561.6827841266786L397.3458269732255,562.2619224948357L396.21170083373204,563.9992672205663L395.83365878723384,565.1574383952502L395.0775746942379,566.8946072066319L394.32149060124175,567.4736400261936L393.943448554744,568.0526611213718L393.943448554744,568.0526611213718L392.4312803687519,568.6316704928504L391.297154229258,569.2106681412479L391.297154229258,568.0526611213718L390.16302808976434,565.7365063918223L388.2728178572743,565.1574383952502L385.24848148529077,563.9992672205663L381.8461030668093,561.6827841266786L381.09001897381336,561.103634027626L379.95589283431946,560.5244721970412L379.95589283431946,560.5244721970412L380.33393488081697,559.9452986342876L381.09001897381336,559.366113338685L381.4680610203111,558.7869163095893L382.2241451133068,558.2077075463712L382.9802292063032,558.2077075463712L383.7363132992989,557.6284870483578L384.1143553457971,557.6284870483578L384.1143553457971,557.0492548148904L385.24848148529077,555.8907551390294L384.8704394387928,554.7322085135529L384.8704394387928,554.7322085135529L384.4923973922946,554.7322085135529L382.9802292063032,554.7322085135529L382.602187159805,554.7322085135529L382.602187159805,554.7322085135529L381.8461030668093,554.7322085135529L381.4680610203111,555.3114876953186L380.71197692731516,555.3114876953186L378.82176669482556,555.8907551390294L378.44372464832736,555.8907551390294L378.0656826018294,555.3114876953186L378.44372464832736,554.7322085135529L378.44372464832736,554.7322085135529L378.82176669482556,554.1529175931064L379.19980874132307,554.1529175931064L379.19980874132307,552.9943005334462L378.44372464832736,552.9943005334462L377.68764055533165,552.9943005334462L376.9315564623355,552.9943005334462L375.7974303228416,553.5736149332806L374.6633041833477,554.1529175931064L373.1511359973558,554.1529175931064L372.3950519043599,554.1529175931064L372.01700985786215,554.7322085135529L371.63896781136395,554.7322085135529L370.12679962537186,555.8907551390294L369.74875757887435,556.4700108453253L369.37071553237615,557.0492548148904L368.99267348587864,557.0492548148904L368.99267348587864,557.0492548148904L367.8585473463845,556.4700108453253L367.48050529988654,556.4700108453253L366.7244212068906,556.4700108453253L365.9683371138947,555.8907551390294L365.5902950673967,555.8907551390294L365.2122530208985,555.3114876953186L365.2122530208985,555.3114876953186L364.8342109744008,554.7322085135529L364.0781268814046,554.1529175931064L363.70008483490665,554.1529175931064L362.94400074191094,554.1529175931064L362.94400074191094,554.1529175931064L363.3220427884089,554.1529175931064L363.70008483490665,554.7322085135529L364.8342109744008,556.4700108453253L365.2122530208985,557.0492548148904L365.5902950673967,557.6284870483578L365.5902950673967,557.6284870483578L363.70008483490665,560.5244721970412L362.187916648915,562.8410491327741L359.91966436992743,564.5783586717298L358.4074961839351,566.3155626620573L358.0294541374376,566.8946072066319L357.6514120909394,567.4736400261936L357.6514120909394,567.4736400261936L357.6514120909394,568.6316704928504L358.0294541374376,569.2106681412479L358.7855382304333,569.2106681412479L359.16358027693127,570.368628271488L359.54162232342924,572.1054805601016L359.91966436992743,573.8422273763063L359.91966436992743,574.4211195464304L359.91966436992743,574.4211195464304L359.16358027693127,574.9999999999964L358.7855382304333,574.4211195464304L358.4074961839351,574.4211195464304L356.1392439049473,573.2633234889872L354.2490336724577,572.6844078838003L351.60273934697216,572.1054805601016L349.33448706798436,570.368628271488L347.0662347889963,570.368628271488L345.1760245565065,570.368628271488L344.79798251000875,569.7896540672446L344.41994046351056,570.368628271488L344.41994046351056,569.7896540672446L344.04189841701236,569.2106681412479L344.04189841701236,569.2106681412479L345.1760245565065,566.3155626620573L345.5540666030047,565.7365063918223L343.66385637051485,566.3155626620573L341.77364613802524,566.3155626620573L341.01756204502885,566.3155626620573L341.01756204502885,565.7365063918223L341.01756204502885,564.5783586717298L341.01756204502885,563.9992672205663L341.01756204502885,563.4201640411411L340.6395199985311,562.8410491327741L339.8834359055352,561.6827841266786L339.5053938590372,561.6827841266786L339.127351812539,562.2619224948357L338.7493097660413,562.2619224948357L338.7493097660413,562.2619224948357L338.7493097660413,562.2619224948357L336.85909953355144,562.8410491327741L334.9688893010616,563.9992672205663L333.07867906857155,565.1574383952502L330.432384743086,566.8946072066319L330.0543426965878,566.8946072066319L329.6763006500903,566.8946072066319L328.5421745105964,566.8946072066319L328.5421745105964,566.8946072066319L328.1641324640982,566.8946072066319L326.27392223160837,565.7365063918223L325.13979609211447,565.1574383952502L322.1154597201305,565.1574383952502L320.6032915341391,565.1574383952502L317.57895516215535,566.3155626620573L314.93266083666936,565.7365063918223L313.7985346971757,565.7365063918223L313.4204926506775,566.8946072066319L312.6644085576818,565.7365063918223L312.6644085576818,564.5783586717298L311.5302824181879,563.9992672205663L310.0181142321958,562.8410491327741L307.37181990671024,561.103634027626L307.74986195320844,560.5244721970412L306.99377786021205,560.5244721970412L306.99377786021205,560.5244721970412L306.61573581371454,560.5244721970412L303.5913994417306,561.103634027626L303.2133573952326,561.103634027626L301.70118920924074,561.6827841266786L299.05489488375497,561.103634027626L297.92076874426107,561.103634027626L297.92076874426107,561.103634027626L297.92076874426107,560.5244721970412L298.29881079075903,559.9452986342876L298.29881079075903,559.366113338685L297.92076874426107,558.7869163095893L297.92076874426107,558.7869163095893L296.4086005582694,558.2077075463712L294.8964323722771,557.6284870483578L293.0062221397875,557.6284870483578L292.62818009328953,557.6284870483578L292.62818009328953,557.0492548148904L291.1160119072979,557.6284870483578L288.84775962830986,559.9452986342876L288.09167553531415,561.103634027626L287.71363348881596,562.8410491327741L286.5795073493223,563.9992672205663L285.0673391633302,566.3155626620573L285.0673391633302,566.8946072066319L283.9332130238363,566.8946072066319L282.42104483784465,567.4736400261936L281.28691869835075,567.4736400261936L279.77475051235865,568.0526611213718L278.64062437286475,568.6316704928504L277.88454027986904,569.7896540672446L277.5064982333711,569.7896540672446L277.1284561868731,570.368628271488L275.9943300473792,571.5265415172616L275.2382459543833,571.5265415172616L273.7260777683914,572.1054805601016L271.45782548940383,572.1054805601016L270.70174139640744,570.368628271488L269.18957321041603,569.7896540672446L268.81153116391783,569.7896540672446L268.4334891174201,569.7896540672446L268.0554470709219,569.7896540672446L267.2993629779262,569.7896540672446L265.7871947919341,568.6316704928504L265.7871947919341,567.4736400261936L265.7871947919341,566.8946072066319L265.7871947919341,566.3155626620573L265.7871947919341,566.3155626620573L266.1652368384323,566.3155626620573L266.1652368384323,565.7365063918223L266.1652368384323,563.4201640411411L266.1652368384323,563.4201640411411L265.40915274543613,562.2619224948357L264.27502660594223,561.103634027626L262.76285841995036,557.6284870483578L263.14090046644833,556.4700108453253L262.76285841995036,556.4700108453253L262.3848163734526,555.3114876953186L262.0067743269544,554.7322085135529L261.62873228045646,553.5736149332806L261.2506902339587,551.8356365111576L260.8726481874605,550.6769255210093L259.7385220479666,550.0975524113637L258.226353861975,550.0975524113637L257.0922277224811,549.5181675577805L256.3361436294854,548.9387709596194L255.580059536489,548.3593626162437L255.20201748999125,546.6210671081935L254.82397544349328,544.3031752913303L254.82397544349328,543.7236729626129L254.82397544349328,543.1441588827875L255.20201748999125,542.5646330512245L257.0922277224811,540.825985039417L257.0922277224811,540.825985039417L258.226353861975,539.6668275941192L258.9824379549707,538.5076231261119L258.9824379549707,538.5076231261119L257.8483118154768,537.9280032569513L257.8483118154768,537.9280032569513L256.7141856759829,537.9280032569513L254.44593339699531,538.5076231261119L252.55572316450525,537.9280032569513L251.42159702501158,536.1890731010426L249.53138679252174,535.0297275335397L249.15334474602378,535.0297275335397L247.6411765600319,535.6094061974109L245.37292428104433,535.6094061974109L242.34858790906037,535.6094061974109L242.34858790906037,535.6094061974109L241.59250381606444,535.6094061974109L240.8364197230685,536.1890731010426L240.4583776765703,536.1890731010426L238.9462094905789,537.3483716301562L238.5681674440807,537.3483716301562L237.05599925808883,539.0872312382744L237.05599925808883,540.2464121942685L236.29991516509313,540.825985039417L235.92187311859493,540.825985039417L235.16578902559922,541.4055461301759L233.2755787931094,541.4055461301759L232.89753674661142,541.4055461301759L231.7634106071173,541.4055461301759L229.8732003746277,541.9850954672329L228.3610321886356,542.5646330512245L226.84886400264395,543.1441588827875L226.47082195614576,543.1441588827875L223.82452763066,543.1441588827875L220.80019125867648,543.7236729626129L218.90998102618664,543.7236729626129L217.77585488669274,543.7236729626129L214.75151851470923,543.7236729626129L214.75151851470923,543.7236729626129L214.75151851470923,544.3031752913303L213.99543442171307,543.7236729626129L212.10522418922346,544.8826658695834L209.08088781723973,544.8826658695834L207.94676167774583,545.4621446980564L206.43459349175373,545.4621446980564L205.30046735225983,546.0416117773602L204.5443832592639,546.0416117773602L203.41025711977,546.6210671081935L202.6541730267743,547.2005106911711L201.89808893377813,547.7799425269695L200.76396279428423,548.3593626162437L200.76396279428423,548.3593626162437L199.62983665479032,546.0416117773602L198.1176684687989,544.3031752913303L191.69095367833324,544.3031752913303L189.42270139934544,539.6668275941192L186.3983650273617,540.2464121942685L186.3983650273617,540.2464121942685L186.3983650273617,540.2464121942685L186.02032298086397,539.0872312382744L186.02032298086397,537.9280032569513L184.1301127483739,536.1890731010426L181.48381842288813,537.3483716301562L180.72773432989243,534.4500371087488L179.97165023689672,533.290620973843L179.21556614390033,532.1311577874694L177.3253559114105,528.0726660292567L173.1668933999331,520.5339369413305L174.301019539427,519.9539522812629L173.92297749292902,518.7939476267275L170.52059907444732,519.9539522812629L169.00843088845568,521.1139098241292L168.2523467954593,521.1139098241292L167.1182206559654,521.6938709303031L166.74017860946788,522.273820260536L166.36213656296968,522.8537578154501L165.60605246997397,523.4336835957329L165.22801042347578,522.8537578154501L164.47192633047985,522.8537578154501L163.33780019098594,522.8537578154501L162.9597581444882,522.8537578154501L161.8256320049943,524.593499834973L160.69150586550018,524.0135976020138L161.4475899584961,521.6938709303031L161.8256320049943,521.1139098241292L162.58171609799,519.9539522812629L161.8256320049943,518.7939476267275L159.17933767950808,517.633895855266L157.66716949351667,517.0538522990464L154.26479107503474,516.4737969616253L153.50870698203903,516.4737969616253L151.24045470305123,516.4737969616253L150.48437061005507,516.4737969616253L149.72828651705936,517.0538522990464L148.59416037756546,517.0538522990464L148.21611833106726,517.0538522990464L147.46003423807133,515.3136509406031L146.70395014507562,514.1534577869024L145.19178195908353,511.8329300605983L142.545487633598,507.19130878539363L141.78940354060205,505.4505062515709L141.41136149410409,505.4505062515709L140.65527740110815,504.28991225856225L141.0333194476059,503.7095975689408L142.92352968009573,501.96858271980454L142.16744558710002,501.3882208411269L142.16744558710002,501.3882208411269L140.65527740110815,501.96858271980454L139.52115126161425,502.54893280022225L136.4968148896305,502.54893280022225L133.09443647114858,497.9058017690695L131.96031033165468,496.7449009959637L131.96031033165468,496.7449009959637L131.58226828515717,497.32535728427683L131.58226828515717,497.32535728427683L131.20422623865898,496.7449009959637L129.31401600616937,495.58395300621487L128.17988986667524,494.4229577945662L128.55793191317343,493.84244247888637L128.17988986667524,492.10082568457074L127.80184782017704,490.93968877568113L126.6677216806836,489.1978948302385L125.15555349469173,487.4559945704641L125.53359554118947,486.87533752206946L125.91163758768744,485.7139879786155L125.53359554118947,485.1332954822283L123.64338530869986,486.2946686583309L122.8873012157037,485.1332954822283L121.75317507621025,485.7139879786155L121.37513302971206,485.7139879786155L118.35079665772832,483.97187503690293L115.32646028574459,483.97187503690293L114.19233414625069,483.39114708662237L112.30212391376085,481.64889231748384L110.41191368127102,482.81040731707617L110.03387163477282,482.81040731707617L107.76561935578502,483.97187503690293L103.22911479780987,475.25971445880714L104.36324093730377,475.25971445880714L103.98519889080558,474.09789201242165L97.9365261468381,473.51696304485085L97.55848410034037,473.51696304485085L94.91218977485437,473.51696304485085L90.75372726337673,474.09789201242165L90.37568521687899,474.09789201242165L88.86351703088712,473.51696304485085L86.5952647518991,472.3550696176171L81.68071814742552,473.51696304485085L75.25400335696031,473.51696304485085L71.85162493847861,473.51696304485085L68.07120447349917,473.51696304485085L63.91274196202153,474.09789201242165L61.644489683033726,474.09789201242165L60.888405590037564,473.51696304485085L59.37623740404615,472.93602224680944L58.24211126455225,472.3550696176171L56.72994307855993,471.7741051566336L54.08364875307461,471.1931288632113L49.92518624159675,471.1931288632113L50.68127033459268,467.70702258425445L50.30322828809494,464.8016085052295L49.54714419509878,464.2204901709665L47.65693396260872,464.8016085052295L48.03497600910691,460.15233024566623L48.41301805560488,457.82740684166856L46.52280782311482,454.33966627405607L46.144765776617305,453.1769912739801L45.76672373011911,452.59563599392277L46.144765776617305,452.014268859657L46.52280782311482,451.432889870488L46.90084986961301,451.432889870488L49.54714419509878,449.1072553518061L53.32756466007845,447.9443669460197L54.08364875307461,447.3629049541778L54.461690799572125,447.3629049541778L54.461690799572125,447.3629049541778L54.83973284607032,447.3629049541778L54.83973284607032,447.3629049541778L55.595816939066026,447.3629049541778L55.97385898556422,447.3629049541778L55.217774892568514,445.61844781500986L53.70560670657642,445.03693837852916L52.94952261358071,442.1292132407325L52.19343852058455,440.96604012740863L50.68127033459268,438.05789965228905L49.92518624159675,436.8945603716238L48.41301805560488,436.31287292352135L48.03497600910691,435.1494624084189L47.65693396260872,433.9860043970948L47.65693396260872,433.40425757867706L47.65693396260872,427.586136102851L47.65693396260872,425.8404679782034L47.65693396260872,424.676629806283L47.278891916111206,418.85672568158407L46.90084986961301,413.0356322956213L46.90084986961301,413.0356322956213L47.278891916111206,411.289072274707L48.03497600910691,411.8712708486928L50.30322828809494,411.289072274707L53.32756466007845,410.70686179947006L55.217774892568514,408.96015895968594L54.83973284607032,408.37790087284884L54.461690799572125,407.79563088146824L53.32756466007845,405.46643185703215L53.32756466007845,404.88410233287505L54.461690799572125,403.71940755827745L55.595816939066026,403.1370423064909L56.351901032062415,402.5546651441655L57.48602717155586,404.30176090017267L58.99819535754796,407.21334898486384L60.510363543539825,406.04874947329154L60.510363543539825,404.30176090017267L60.13232149704186,403.71940755827745L60.13232149704186,403.71940755827745L60.888405590037564,401.97227607064633L61.26644763653576,400.22503737621446L60.888405590037564,399.06015201172704L60.888405590037564,398.4776914570175L60.510363543539825,396.14773007299664L60.510363543539825,394.9826778725437L60.13232149704186,392.0698387624325L58.99819535754796,392.0698387624325L57.48602717155586,391.4872351735394L54.461690799572125,390.90461966081057L52.19343852058455,390.3219922235912L51.437354427588616,390.3219922235912L50.30322828809494,390.3219922235912L50.68127033459268,386.82597714830627L51.05931238109065,386.82597714830627L51.81539647408658,386.82597714830627L53.32756466007845,386.2432662209103L54.08364875307461,385.6605433636614L55.217774892568514,383.91230320628165L55.595816939066026,382.7467501066676L55.217774892568514,382.7467501066676L56.351901032062415,380.4155006961555L58.24211126455225,378.66693830741497L60.13232149704186,378.0840603017241L60.510363543539825,375.75242888074354L60.13232149704186,375.75242888074354L60.888405590037564,375.1694911725899L60.888405590037564,375.1694911725899L58.62015331104976,374.58654152195595L56.351901032062415,374.58654152195595L55.217774892568514,373.4206063905149L54.461690799572125,372.2546234811016L54.461690799572125,371.0885927883719L54.83973284607032,369.9225143069889L55.217774892568514,368.756388031612L55.217774892568514,367.00710899312617L55.217774892568514,366.4239920775108L55.217774892568514,364.6745696130056L54.08364875307461,364.6745696130056L53.70560670657642,365.2577223881199L53.70560670657642,363.50822819856694L54.08364875307461,362.3418389607723L56.351901032062415,362.9250395579329L56.72994307855993,361.75862640643754L56.72994307855993,361.75862640643754L56.351901032062415,361.1754018942738L54.461690799572125,360.592165423579L54.08364875307461,361.1754018942738L52.19343852058455,361.1754018942738L51.437354427588616,358.25909994233007L49.54714419509878,358.25909994233007L46.144765776617305,353.0090027758415L45.388681683620916,351.8421828872015L43.8765134976295,350.0918632835055L41.98630326513967,347.7579362117831L41.230219172143734,346.59090083524643L41.230219172143734,345.42381755779206L41.230219172143734,344.84025795453636L42.36434531163718,344.84025795453636L43.8765134976295,344.84025795453636L46.144765776617305,344.84025795453636L46.90084986961301,343.0895072786843L47.65693396260872,340.75500533162995L47.65693396260872,339.0040030634882L47.278891916111206,339.0040030634882L46.90084986961301,338.42031167379173L46.90084986961301,337.83660829949804L47.278891916111206,336.08542626227063L48.41301805560488,336.08542626227063L49.16910214860104,336.08542626227063L49.92518624159675,336.08542626227063L49.92518624159675,336.08542626227063L49.92518624159675,336.6691655943978L49.92518624159675,336.6691655943978L50.30322828809494,337.25289293991955L51.437354427588616,337.83660829949804L51.437354427588616,337.83660829949804L52.57148056708252,337.83660829949804L54.461690799572125,337.25289293991955L56.351901032062415,336.6691655943978L57.10798512505812,336.08542626227063L57.864069218054055,336.08542626227063L60.510363543539825,337.83660829949804L63.91274196202153,340.1713498917452L66.93707833400526,340.75500533162995L68.44924651999736,340.75500533162995L69.58337265949058,340.75500533162995L70.33945675248697,339.0040030634882L72.60770903147454,338.42031167379173L74.11987721746641,338.42031167379173L75.63204540345828,339.0040030634882L75.25400335696031,337.83660829949804L76.01008744995647,334.3341363394902L76.01008744995647,334.3341363394902L76.38812949645421,334.3341363394902L76.38812949645421,333.7503490541858L77.14421358945037,333.16654977893995L77.14421358945037,333.16654977893995L79.03442382193998,329.07961907677964L78.65638177544179,327.9118166425251L78.27833972894427,326.74396622160566L77.90029768244608,324.99210060343466L77.90029768244608,324.4081213982281L77.90029768244608,323.8241301923117L78.27833972894427,322.072084563697L78.65638177544179,319.1517684393766L79.41246586843795,316.23115214660356L79.79050791493592,313.8944429346375L79.79050791493592,312.7260162546372L80.92463405442982,312.7260162546372L84.70505451940949,312.7260162546372L85.83918065890339,313.3102356013587L85.83918065890339,313.3102356013587L86.21722270540135,313.3102356013587L87.35134884489526,310.9732861269804L86.5952647518991,309.2204478540116L86.97330679839729,307.4675014175773L87.72939089139322,305.7144467995204L88.86351703088712,305.1300712166885L88.86351703088712,305.1300712166885L88.86351703088712,305.1300712166885L91.13176930987493,304.54568361096244L94.15610568185866,303.3768723282228L94.15610568185866,303.3768723282228L94.15610568185866,302.7924486498632L94.91218977485437,302.7924486498632L96.80240000734398,302.2080129459282L97.9365261468381,301.6235652157593L99.4486943328302,301.03910545869803L99.82673637932794,301.03910545869803L100.5828204723241,300.45463367403863L101.71694661181778,300.45463367403863L101.71694661181778,300.45463367403863L101.33890456531981,299.28565401930246L101.33890456531981,298.116626246152L101.33890456531981,297.5320943135048L102.47303070481371,296.36299435266847L102.85107275131168,295.7784263231297L103.60715684430761,294.0246500299909L104.36324093730377,291.68611313674774L104.36324093730377,291.68611313674774L103.98519889080558,290.51677246268446L103.98519889080558,290.51677246268446L105.11932503029948,290.51677246268446L106.63149321629157,289.34738362980715L107.00953526278931,289.34738362980715L107.38757730928751,289.34738362980715L108.14366140228321,287.5932100709106L108.89974549527892,287.00846146602635L109.27778754177712,287.00846146602635L109.27778754177712,286.4237008174059L110.03387163477282,285.8389281243435L110.41191368127102,285.8389281243435L111.16799777426672,285.8389281243435L111.54603982076492,285.8389281243435L111.54603982076492,285.8389281243435L111.92408186726288,285.8389281243435L113.05820800675679,285.8389281243435L114.94841823924662,284.6693466022771L115.32646028574459,284.6693466022771L116.08254437874052,284.0845377719088L116.83862847173623,283.4997168944283Z" style="fill: none; stroke: rgb(8, 48, 107);"><title>ARDENNES</title></path><g stroke="#000" stroke-opacity="0.2"><path d="M0,-13.34775705149959L2.9967581703553763,-4.1246837657014135L12.69447132175327,-4.124683765701414L4.848856575698947,1.5754890056530315L7.845614746054325,10.798562291451207L8.881784197001252e-16,5.098389520096762L-7.845614746054323,10.798562291451208L-4.848856575698946,1.5754890056530328L-12.694471321753271,-4.124683765701411L-2.9967581703553776,-4.124683765701413Z" transform="translate(295.2744744187753,465.96380965330536)rotate(0.4798814996117218)" fill="white" class="commune"><title>08490 Population : 4359</title></path><path d="M0,-13.34775705149959L2.9967581703553763,-4.1246837657014135L12.69447132175327,-4.124683765701414L4.848856575698947,1.5754890056530315L7.845614746054325,10.798562291451207L8.881784197001252e-16,5.098389520096762L-7.845614746054323,10.798562291451208L-4.848856575698946,1.5754890056530328L-12.694471321753271,-4.124683765701411L-2.9967581703553776,-4.124683765701413Z" transform="translate(176.94731386491276,408.37790087284884)rotate(27.59329800966901)" fill="white" class="commune"><title>08362 Population : 7662</title></path><path d="M0,-15.873247654971056L3.5637661381291506,-4.905103281308338L15.096355617026989,-4.905103281308339L5.766294739448918,1.873582735131148L9.330060877578072,12.841727108793865L8.881784197001252e-16,6.063041092354379L-9.330060877578068,12.841727108793867L-5.766294739448918,1.8735827351311491L-15.09635561702699,-4.905103281308335L-3.563766138129152,-4.905103281308337Z" transform="translate(383.3582712528007,301.6235652157593)rotate(18.444382408016068)" fill="white" class="commune"><title>08409 Population : 16846</title></path><path d="M0,-22.448162112566994L5.039926405668234,-6.936863585267022L21.349470856006818,-6.936863585267023L8.154772225169292,2.649646114250548L13.19469863083753,18.16094464155052L8.881784197001252e-16,8.574434942032948L-13.194698630837525,18.160944641550522L-8.154772225169292,2.649646114250549L-21.34947085600682,-6.936863585267019L-5.0399264056682345,-6.936863585267021Z" transform="translate(302.8353153487344,255.99953406348868)rotate(8.459844721761344)" fill="white" class="commune"><title>08105 Population : 46682</title></path></g><text class="text" y="25" x="326" text-anchor="middle" font-size="24" font-family="Helvetica" fill="#6baed6">08 - ARDENNES</text><line x1="308.2035124090055" y1="259.0411361403067" x2="377.9900741925296" y2="298.58196313894126" stroke="yellow" opacity="0.35" stroke-width="2"/><line x1="377.48601813053233" y1="312.5795815115957" x2="301.1467275410437" y2="455.007793357469" stroke="yellow" opacity="0.35" stroke-width="2"/><line x1="287.3859970485178" y1="462.1247490679416" x2="184.83579123517026" y2="412.2169614582126" stroke="yellow" opacity="0.35" stroke-width="2"/><line x1="185.33984729716752" y1="398.21934308555814" x2="294.44278191647965" y2="266.1580918507794" stroke="yellow" opacity="0.35" stroke-width="2"/></svg>