<svg viewBox="0,0,955,1146" width="955" height="1146" style="width: 100%; height: auto;" xmlns="http://www.w3.org/2000/svg" xmlns:xlink="http://www.w3.org/1999/xlink"><rect width="955" height="1146" fill="black"/><g stroke="#000" stroke-opacity="0.2"><path d="M0,-13.34775705149959L2.9967581703553763,-4.1246837657014135L12.69447132175327,-4.124683765701414L4.848856575698947,1.5754890056530315L7.845614746054325,10.798562291451207L8.881784197001252e-16,5.098389520096762L-7.845614746054323,10.798562291451208L-4.848856575698946,1.5754890056530328L-12.694471321753271,-4.124683765701411L-2.9967581703553776,-4.124683765701413Z" transform="translate(614.5911086717892,821.332129716895)rotate(0.876841316782041)" fill="white" class="commune"><title>80561 Population : 6274</title></path><path d="M0,-13.34775705149959L2.9967581703553763,-4.1246837657014135L12.69447132175327,-4.124683765701414L4.848856575698947,1.5754890056530315L7.845614746054325,10.798562291451207L8.881784197001252e-16,5.098389520096762L-7.845614746054323,10.798562291451208L-4.848856575698946,1.5754890056530328L-12.694471321753271,-4.124683765701411L-2.9967581703553776,-4.124683765701413Z" transform="translate(793.9023051591657,605.9128895913527)rotate(16.228337526479685)" fill="white" class="commune"><title>80620 Population : 7628</title></path><path d="M0,-18.876579049491834L4.238056047668955,-5.833183721955068L17.952693510379785,-5.833183721955069L6.857318731355415,2.2280779191642193L11.095374779024372,15.271473246700983L8.881784197001252e-16,7.210211605581696L-11.095374779024368,15.271473246700985L-6.857318731355414,2.2280779191642206L-17.952693510379788,-5.833183721955065L-4.238056047668956,-5.833183721955068Z" transform="translate(249.0148188803514,466.76758576959764)rotate(26.82488831013743)" fill="white" class="commune"><title>80001 Population : 23231</title></path><path d="M0,-26.69551410299918L5.993516340710753,-8.249367531402827L25.38894264350654,-8.249367531402829L9.697713151397894,3.150978011306063L15.69122949210865,21.597124582902413L1.7763568394002505e-15,10.196779040193524L-15.691229492108645,21.597124582902417L-9.697713151397892,3.1509780113060657L-25.388942643506542,-8.249367531402822L-5.993516340710755,-8.249367531402825Z" transform="translate(476.506586169045,627.5109660094204)rotate(16.383265372869715)" fill="white" class="commune"><title>80021 Population : 133755</title></path></g><text class="text" y="40" x="427.5" text-anchor="middle" font-size="36" font-family="Helvetica" fill="#6baed6">80 - SOMME</text><line x1="264.1809366995977" y1="477.48381111891916" x2="461.34046834979875" y2="616.7947406600989" stroke="yellow" opacity="0.35" stroke-width="2"/><line x1="485.7122210025613" y1="640.432376923252" x2="605.385473838273" y2="808.4107188030633" stroke="yellow" opacity="0.35" stroke-width="2"/><line x1="626.5451884376143" y1="806.9708470418589" x2="781.9482253933406" y2="620.2741722663889" stroke="yellow" opacity="0.35" stroke-width="2"/><line x1="757.5764727405781" y1="596.6365360032357" x2="285.34065129893906" y2="476.04393935771463" stroke="yellow" opacity="0.35" stroke-width="2"/></svg>