<svg viewBox="0,0,954,1144.8" width="954" height="1144.8" style="width: 100%; height: auto;" xmlns="http://www.w3.org/2000/svg" xmlns:xlink="http://www.w3.org/1999/xlink"><rect width="954" height="1144.8" fill="black"/><g stroke="#000" stroke-opacity="0.2"><path d="M0,-18.876579049491834L4.238056047668955,-5.833183721955068L17.952693510379785,-5.833183721955069L6.857318731355415,2.2280779191642193L11.095374779024372,15.271473246700983L8.881784197001252e-16,7.210211605581696L-11.095374779024368,15.271473246700985L-6.857318731355414,2.2280779191642206L-17.952693510379788,-5.833183721955065L-4.238056047668956,-5.833183721955068Z" transform="translate(456.91654218608096,771.7984982442285)rotate(14.587021686930127)" fill="white" class="commune"><title>insee_com : 78517 
Population : 26736
 Nom : RAMBOUILLET</title></path><path d="M0,-22.448162112566994L5.039926405668234,-6.936863585267022L21.349470856006818,-6.936863585267023L8.154772225169292,2.649646114250548L13.19469863083753,18.16094464155052L8.881784197001252e-16,8.574434942032948L-13.194698630837525,18.160944641550522L-8.154772225169292,2.649646114250549L-21.34947085600682,-6.936863585267019L-5.0399264056682345,-6.936863585267021Z" transform="translate(340.4324868653475,189.0683728244985)rotate(17.392481858521393)" fill="white" class="commune"><title>insee_com : 78361 
Population : 44299
 Nom : MANTES LA JOLIE</title></path><path d="M0,-22.448162112566994L5.039926405668234,-6.936863585267022L21.349470856006818,-6.936863585267023L8.154772225169292,2.649646114250548L13.19469863083753,18.16094464155052L8.881784197001252e-16,8.574434942032948L-13.194698630837525,18.160944641550522L-8.154772225169292,2.649646114250549L-21.34947085600682,-6.936863585267019L-5.0399264056682345,-6.936863585267021Z" transform="translate(762.7429747858223,341.9579641861201)rotate(29.391175485536664)" fill="white" class="commune"><title>insee_com : 78551 
Population : 44753
 Nom : SAINT GERMAIN EN LAYE</title></path><path d="M0,-22.448162112566994L5.039926405668234,-6.936863585267022L21.349470856006818,-6.936863585267023L8.154772225169292,2.649646114250548L13.19469863083753,18.16094464155052L8.881784197001252e-16,8.574434942032948L-13.194698630837525,18.160944641550522L-8.154772225169292,2.649646114250549L-21.34947085600682,-6.936863585267019L-5.0399264056682345,-6.936863585267021Z" transform="translate(762.7429747858223,341.9579641861201)rotate(28.62505886312478)" fill="white" class="commune"><title>insee_com : 78551 
Population : 44753
 Nom : SAINT GERMAIN EN LAYE</title></path><path d="M0,-26.69551410299918L5.993516340710753,-8.249367531402827L25.38894264350654,-8.249367531402829L9.697713151397894,3.150978011306063L15.69122949210865,21.597124582902413L1.7763568394002505e-15,10.196779040193524L-15.691229492108645,21.597124582902417L-9.697713151397892,3.1509780113060657L-25.388942643506542,-8.249367531402822L-5.993516340710755,-8.249367531402825Z" transform="translate(803.467764241826,507.78620138920087)rotate(20.372162031913554)" fill="white" class="commune"><title>insee_com : 78646 
Population : 85862
 Nom : VERSAILLES</title></path></g><text class="text" y="40" x="427" text-anchor="middle" font-size="36" font-family="Helvetica" fill="#6baed6">78  - YVELINES</text><line x1="368.5865193933792" y1="199.26101224860662" x2="734.5889422577907" y2="331.76532476201197" stroke="yellow" opacity="0.35" stroke-width="2"/><line x1="765.4579607495559" y1="353.0131799996588" x2="800.7527782780924" y2="496.73098557566215" stroke="yellow" opacity="0.35" stroke-width="2"/><line x1="780.3643494381097" y1="525.3870211795361" x2="480.0199569897973" y2="754.1976784538933" stroke="yellow" opacity="0.35" stroke-width="2"/><line x1="449.1509384980321" y1="732.9498232162465" x2="348.1980905533964" y2="227.91704785248052" stroke="yellow" opacity="0.35" stroke-width="2"/></svg>