<svg viewBox="0,0,955,1146" width="955" height="1146" style="width: 100%; height: auto;" xmlns="http://www.w3.org/2000/svg" xmlns:xlink="http://www.w3.org/1999/xlink"><rect width="955" height="1146" fill="black"/><g stroke="#000" stroke-opacity="0.2"><path d="M0,-13.34775705149959L2.9967581703553763,-4.1246837657014135L12.69447132175327,-4.124683765701414L4.848856575698947,1.5754890056530315L7.845614746054325,10.798562291451207L8.881784197001252e-16,5.098389520096762L-7.845614746054323,10.798562291451208L-4.848856575698946,1.5754890056530328L-12.694471321753271,-4.124683765701411L-2.9967581703553776,-4.124683765701413Z" transform="translate(672.815013404826,912.0012419643317)rotate(17.32284989689533)" fill="white" class="commune"><title>89025 Population : 6748</title></path><path d="M0,-18.876579049491834L4.238056047668955,-5.833183721955068L17.952693510379785,-5.833183721955069L6.857318731355415,2.2280779191642193L11.095374779024372,15.271473246700983L8.881784197001252e-16,7.210211605581696L-11.095374779024368,15.271473246700985L-6.857318731355414,2.2280779191642206L-17.952693510379788,-5.833183721955065L-4.238056047668956,-5.833183721955068Z" transform="translate(297.955764075067,266.75540197687224)rotate(4.9917641223126274)" fill="white" class="commune"><title>89387 Population : 25913</title></path><path d="M0,-18.876579049491834L4.238056047668955,-5.833183721955068L17.952693510379785,-5.833183721955069L6.857318731355415,2.2280779191642193L11.095374779024372,15.271473246700983L8.881784197001252e-16,7.210211605581696L-11.095374779024368,15.271473246700985L-6.857318731355414,2.2280779191642206L-17.952693510379788,-5.833183721955065L-4.238056047668956,-5.833183721955068Z" transform="translate(470.2211796246652,631.1365617260963)rotate(16.865216782038676)" fill="white" class="commune"><title>89024 Population : 34846</title></path></g><text class="text" y="40" x="427.5" text-anchor="middle" font-size="36" font-family="Helvetica" fill="#6baed6">89 - YONNE</text><line x1="483.7274352100092" y1="649.8608737419786" x2="659.3087578194819" y2="893.2769299484494" stroke="yellow" opacity="0.35" stroke-width="2"/><line x1="647.8243967828421" y1="868.9848526318344" x2="322.9463806970509" y2="309.7717913093695" stroke="yellow" opacity="0.35" stroke-width="2"/><line x1="309.4401251117069" y1="291.0474792934872" x2="458.7368185880253" y2="606.8444844094813" stroke="yellow" opacity="0.35" stroke-width="2"/></svg>