<svg viewBox="0,0,954,1144.8" width="954" height="1144.8" style="width: 100%; height: auto;" xmlns="http://www.w3.org/2000/svg" xmlns:xlink="http://www.w3.org/1999/xlink"><rect width="954" height="1144.8" fill="black"/><g stroke="#000" stroke-opacity="0.2"><path d="M0,-15.873247654971056L3.5637661381291506,-4.905103281308338L15.096355617026989,-4.905103281308339L5.766294739448918,1.873582735131148L9.330060877578072,12.841727108793865L8.881784197001252e-16,6.063041092354379L-9.330060877578068,12.841727108793867L-5.766294739448918,1.8735827351311491L-15.09635561702699,-4.905103281308335L-3.563766138129152,-4.905103281308337Z" transform="translate(681.3046599342983,771.8661979776953)rotate(16.718155933618334)" fill="white" class="commune"><title>insee_com : 51649 
Population : 12133
 Nom : VITRY LE FRANCOIS</title></path><path d="M0,-18.876579049491834L4.238056047668955,-5.833183721955068L17.952693510379785,-5.833183721955069L6.857318731355415,2.2280779191642193L11.095374779024372,15.271473246700983L8.881784197001252e-16,7.210211605581696L-11.095374779024368,15.271473246700985L-6.857318731355414,2.2280779191642206L-17.952693510379788,-5.833183721955065L-4.238056047668956,-5.833183721955068Z" transform="translate(334.5091860323637,505.0805603630979)rotate(10.69053873463066)" fill="white" class="commune"><title>insee_com : 51230 
Population : 22671
 Nom : EPERNAY</title></path><path d="M0,-22.448162112566994L5.039926405668234,-6.936863585267022L21.349470856006818,-6.936863585267023L8.154772225169292,2.649646114250548L13.19469863083753,18.16094464155052L8.881784197001252e-16,8.574434942032948L-13.194698630837525,18.160944641550522L-8.154772225169292,2.649646114250549L-21.34947085600682,-6.936863585267019L-5.0399264056682345,-6.936863585267021Z" transform="translate(557.0170337023969,578.260532936918)rotate(0.545628264255047)" fill="white" class="commune"><title>insee_com : 51108 
Population : 44753
 Nom : CHALONS EN CHAMPAGNE</title></path><path d="M0,-31.746495309942112L7.127532276258301,-9.810206562616676L30.192711234053977,-9.810206562616678L11.532589478897837,3.747165470262296L18.660121755156144,25.68345421758773L1.7763568394002505e-15,12.126082184708759L-18.660121755156137,25.683454217587734L-11.532589478897837,3.7471654702622983L-30.19271123405398,-9.81020656261667L-7.127532276258304,-9.810206562616674Z" transform="translate(374.5452001460035,324.8109887023602)rotate(11.69355078676418)" fill="white" class="commune"><title>insee_com : 51454 
Population : 182460
 Nom : REIMS</title></path></g><text class="text" y="40" x="427" text-anchor="middle" font-size="36" font-family="Helvetica" fill="#6baed6">51  - MARNE</text><line x1="371.8761325384275" y1="336.8289601464094" x2="337.17825363993967" y2="493.0625889190487" stroke="yellow" opacity="0.35" stroke-width="2"/><line x1="357.62888429249267" y1="522.8662695374044" x2="658.1849616741694" y2="754.0804888033888" stroke="yellow" opacity="0.35" stroke-width="2"/><line x1="673.0188181855049" y1="758.9591536416434" x2="565.3028754511904" y2="591.1675772729699" stroke="yellow" opacity="0.35" stroke-width="2"/><line x1="544.8522447986373" y1="561.3638966546142" x2="386.70998904976307" y2="341.70762498466405" stroke="yellow" opacity="0.35" stroke-width="2"/></svg>