<svg viewBox="0,0,600,600" width="600" height="600" style="width: 100%; height: auto;" xmlns="http://www.w3.org/2000/svg" xmlns:xlink="http://www.w3.org/1999/xlink"><rect width="752" height="902.4" fill="black"/><path d="M110.84459459459481,327.39473496823484L110.47297297297291,326.83638875709585L109.7297297297298,326.83638875709585L108.61486486486501,326.278031618298L108.24324324324334,326.278031618298L106.01351351351354,325.71966355125187L103.04054054054063,324.0444937747088L100.81081081081084,323.4860819887326L99.32432432432438,322.9276592715214L97.83783783783792,321.81078104098924L97.46621621621648,321.2523255264932L97.09459459459458,320.69385907835385L97.09459459459458,319.57689337883494L98.20945945945937,319.01839412623303L100.06756756756772,317.90136281239756L100.06756756756772,317.90136281239756L100.43918918918939,316.7842877496987L100.43918918918939,316.22573381102484L100.81081081081084,314.5500063585496L100.81081081081084,312.87418043881917L100.81081081081084,311.7569084469833L100.43918918918939,311.19825603567006L98.20945945945937,309.5222331329096L96.35135135135147,309.5222331329096L94.49324324324357,308.9635369403877L93.00675675675689,307.84611171437064L91.14864864864876,306.16989176388233L90.77702702702709,305.6111298816031L91.52027027027043,305.052357048924L92.26351351351354,305.052357048924L92.26351351351354,303.93477853000877L92.26351351351354,301.6994900610698L91.8918918918921,300.5817801014746L91.8918918918921,300.5817801014746L91.52027027027043,300.02290868829004L87.80405405405418,301.6994900610698L84.4594594594596,301.140640558875L84.4594594594596,301.140640558875L84.4594594594596,300.5817801014746L84.4594594594596,293.87459988968476L84.4594594594596,293.87459988968476L84.83108108108127,293.87459988968476L84.83108108108127,293.31559696024124L84.08783783783792,292.19755820999853L82.97297297297314,291.63852238800246L81.85810810810813,291.0794756005962L81.11486486486501,291.0794756005962L81.11486486486501,291.0794756005962L80.74324324324334,290.5204178472013L80.37162162162167,289.96134912722846L78.88513513513522,287.72496456937006L77.77027027027043,286.60670647528605L76.28378378378375,284.37005863275044L75.16891891891919,282.1332352190184L73.6824324324325,279.8962361956037L73.31081081081084,278.77767081825004L72.93918918918939,278.2183716610525L70.33783783783792,276.5404083081921L67.36486486486501,273.1841850825149L66.99324324324334,273.1841850825149L62.90540540540542,273.7435830796785L61.79054054054086,273.7435830796785L59.93243243243273,273.7435830796785L58.81756756756772,273.7435830796785L58.81756756756772,273.1841850825149L57.70270270270271,271.50592517721816L57.331081081081265,270.9464832355188L57.331081081081265,270.3870303061922L56.21621621621625,270.9464832355188L55.10135135135147,270.9464832355188L54.35810810810813,270.3870303061922L52.87162162162167,270.3870303061922L50.64189189189187,270.9464832355188L49.89864864864876,270.9464832355188L48.783783783783974,271.50592517721816L48.4121621621623,272.06535613187225L46.55405405405418,274.8623461207608L43.952702702702936,277.6590615240384L43.581081081081265,277.6590615240384L42.46621621621625,278.77767081825004L41.35135135135147,278.77767081825004L39.86486486486501,275.4217111658472L39.49324324324334,275.4217111658472L39.1216216216219,273.1841850825149L39.1216216216219,272.62477610011047L39.1216216216219,272.06535613187225L36.52027027027043,270.3870303061922L36.14864864864876,270.3870303061922L36.14864864864876,269.82756638861247L35.77702702702709,268.70860558635104L35.77702702702709,266.47055209645987L36.14864864864876,263.1131420759848L36.52027027027043,261.9939174403735L36.8918918918921,259.7553361970313L36.8918918918921,258.07628476995524L37.263513513513544,256.9568621454273L38.006756756756886,253.598330187775L38.37837837837856,251.91891563180252L38.75,251.3590887643477L38.75,250.23940200265133L39.1216216216219,249.1196712011988L39.1216216216219,247.43999241389974L39.1216216216219,247.43999241389974L38.37837837837856,246.88007745968935L38.37837837837856,246.88007745968935L36.8918918918921,247.43999241389974L35.77702702702709,248.5597892840451L35.033783783783974,248.5597892840451L34.29054054054063,248.5597892840451L32.06081081081106,247.9998963551625L31.689189189189392,247.9998963551625L31.689189189189392,247.9998963551625L31.689189189189392,247.9998963551625L31.689189189189392,247.43999241389974L31.689189189189392,246.3201514919274L33.91891891891896,247.43999241389974L34.6621621621623,246.3201514919274L35.405405405405645,245.76021450998087L35.405405405405645,244.6403075012022L33.91891891891896,243.5203564285075L32.80405405405395,243.5203564285075L29.831081081081038,242.40036128707652L29.087837837837924,242.96036436667782L28.71621621621648,241.84034718905968L28.71621621621648,240.7202859354511L29.087837837837924,239.60018060101356L29.831081081081038,237.35983767031212L29.831081081081038,236.79972437955803L29.831081081081038,236.79972437955803L30.574324324324607,236.2396000643821L32.06081081081106,234.55916096616056L32.432432432432506,232.87862262623094L33.54729729729752,229.5172481559348L33.54729729729752,228.95698046802136L33.17567567567585,226.71579938128343L33.17567567567585,226.71579938128343L32.80405405405395,226.15547652278474L31.317567567567494,223.91407472345236L29.831081081081038,222.23290747333522L29.459459459459595,220.5516408616786L29.459459459459595,219.43074124497798L28.344594594594582,216.62829893660455L26.858108108108127,213.26500363428568L25.74324324324357,212.70441574621145L25,212.70441574621145L25,212.70441574621145L25.37162162162167,212.70441574621145L27.601351351351468,211.02258577678367L29.831081081081038,209.3406563366916L31.689189189189392,208.21931477374892L32.432432432432506,208.21931477374892L32.432432432432506,208.21931477374892L34.29054054054063,208.21931477374892L34.29054054054063,208.21931477374892L34.29054054054063,208.21931477374892L34.6621621621623,208.21931477374892L36.14864864864876,207.09792898949308L37.635135135135215,205.97649897906376L39.1216216216219,205.4157673875343L41.72297297297314,205.4157673875343L43.209459459459595,205.97649897906376L43.952702702702936,205.97649897906376L43.209459459459595,204.85502473762608L43.209459459459595,204.29427102876798L43.952702702702936,202.05114559145295L43.952702702702936,202.05114559145295L43.581081081081265,201.4903365786413L43.209459459459595,200.3686853645704L41.72297297297314,198.12525016563086L40.23648648648668,194.19881249326136L39.49324324324334,191.954890285484L38.37837837837856,190.83286274638522L32.80405405405395,184.66091934861106L36.14864864864876,181.85504734616916L36.52027027027043,182.41624391200094L38.75,181.85504734616916L40.23648648648668,182.41624391200094L41.72297297297314,182.97742939456293L43.581081081081265,184.0997671122568L45.06756756756772,184.66091934861106L46.55405405405418,184.0997671122568L48.783783783783974,183.53860379443722L49.52702702702709,183.53860379443722L49.89864864864876,184.0997671122568L52.12837837837833,183.53860379443722L52.87162162162167,182.97742939456293L54.7297297297298,181.29383969643095L56.95945945945982,179.04889824640486L58.07432432432438,177.92636100219534L59.189189189189165,177.36507574817733L59.560810810810835,176.803779405378L61.41891891891919,177.36507574817733L61.04729729729729,176.803779405378L61.04729729729729,176.2424719732262L60.67567567567585,175.68115345107435L60.67567567567585,175.11982383832947L61.41891891891919,175.11982383832947L62.53378378378375,175.11982383832947L62.90540540540542,175.11982383832947L62.90540540540542,173.99713133864861L62.90540540540542,173.99713133864861L62.53378378378375,172.87439446928693L62.1621621621623,172.3130093944601L61.04729729729729,172.3130093944601L59.93243243243273,171.19020596142946L59.189189189189165,169.50591759437157L58.81756756756772,166.6985483619028L58.07432432432438,164.4524531733914L56.21621621621625,162.20618034030485L55.10135135135147,161.08297729485275L56.587837837837924,159.39808942681702L56.95945945945982,159.39808942681702L58.07432432432438,157.1514167506757L59.93243243243273,156.58972080636522L62.53378378378375,155.4662955831518L64.0202702702702,152.65753804477208L64.3918918918921,152.095753192727L65.50675675675689,149.8485026162234L68.4797297297298,149.8485026162234L68.85135135135124,149.8485026162234L69.96621621621625,150.41033193682233L72.19594594594605,150.41033193682233L73.6824324324325,150.41033193682233L74.05405405405418,149.8485026162234L73.6824324324325,149.2866621769681L73.31081081081084,148.16294794003988L73.31081081081084,147.60107414114827L72.93918918918939,147.03918922113007L72.56756756756772,146.47729317940684L70.7094594594596,144.2295977830654L69.59459459459481,142.54370942780588L69.22297297297314,141.4197282255991L71.45270270270271,140.8577209330506L72.56756756756772,140.2957025120486L77.77027027027043,139.1716322822649L81.11486486486501,138.6095804722463L81.11486486486501,138.6095804722463L82.97297297297314,136.361261917129L85.20270270270271,135.2370358419612L85.94594594594605,135.2370358419612L88.54729729729752,135.2370358419612L89.29054054054063,133.55061321841276L88.91891891891896,132.98845007189084L88.54729729729752,132.98845007189084L88.91891891891896,132.98845007189084L88.91891891891896,132.98845007189084L90.03378378378397,134.67490610282766L91.52027027027043,136.361261917129L91.52027027027043,136.92335825439295L91.8918918918921,137.48544345892878L91.8918918918921,138.6095804722463L91.8918918918921,139.1716322822649L91.8918918918921,140.2957025120486L91.52027027027043,140.2957025120486L91.52027027027043,140.2957025120486L91.14864864864876,140.8577209330506L90.77702702702709,141.98172439031987L91.14864864864876,142.54370942780588L91.8918918918921,142.54370942780588L94.49324324324357,141.98172439031987L96.72297297297291,141.98172439031987L97.83783783783792,141.4197282255991L98.20945945945937,141.4197282255991L98.58108108108127,143.10568333869378L98.58108108108127,144.2295977830654L98.20945945945937,147.03918922113007L98.20945945945937,148.16294794003988L98.58108108108127,150.41033193682233L98.95270270270294,152.65753804477208L98.95270270270294,152.65753804477208L102.29729729729752,151.53395722445202L102.66891891891919,151.53395722445202L103.41216216216253,152.095753192727L104.52702702702709,153.78107440267559L106.38513513513544,155.4662955831518L106.38513513513544,157.1514167506757L106.38513513513544,158.2747753077383L107.12837837837856,159.39808942681702L107.12837837837856,159.39808942681702L108.24324324324334,158.83643792172006L108.61486486486501,158.2747753077383L109.7297297297298,157.71310158426786L110.84459459459481,156.58972080636522L110.84459459459481,156.58972080636522L111.58783783783792,156.0280137507325L111.58783783783792,156.0280137507325L113.0743243243246,155.4662955831518L114.56081081081106,156.0280137507325L115.30405405405418,157.1514167506757L115.30405405405418,157.1514167506757L115.67567567567585,157.71310158426786L115.67567567567585,157.71310158426786L115.67567567567585,157.71310158426786L116.79054054054063,159.95972982361855L117.53378378378397,160.5213591127722L117.53378378378397,161.64458437050416L117.1621621621623,162.76776520489148L116.04729729729752,165.0139936231608L116.04729729729752,165.0139936231608L116.41891891891896,166.6985483619028L116.79054054054063,168.94446594491455L117.53378378378397,171.75161322536223L117.90540540540542,173.43576845047573L117.90540540540542,173.43576845047573L117.53378378378397,175.11982383832947L117.90540540540542,176.803779405378L117.90540540540542,177.36507574817733L118.27702702702709,177.36507574817733L119.39189189189187,178.4876351680723L120.50675675675689,179.04889824640486L121.25,179.610150237786L121.62162162162167,180.171391142856L121.99324324324334,179.610150237786L123.85135135135147,178.4876351680723L126.45270270270294,179.04889824640486L126.82432432432438,179.610150237786L126.82432432432438,179.610150237786L127.19594594594605,180.171391142856L127.19594594594605,180.171391142856L127.56756756756795,180.73262096218969L127.93918918918939,181.29383969643095L127.93918918918939,181.29383969643095L128.31081081081084,181.29383969643095L128.6824324324325,180.73262096218969L128.6824324324325,180.171391142856L128.6824324324325,180.171391142856L129.42567567567585,179.610150237786L129.42567567567585,179.610150237786L129.7972972972973,180.171391142856L129.7972972972973,179.610150237786L130.9121621621623,179.610150237786L133.14189189189187,179.04889824640486L134.62837837837833,179.04889824640486L136.85810810810813,178.4876351680723L137.97297297297314,177.92636100219534L137.97297297297314,177.92636100219534L138.71621621621648,178.4876351680723L140.20270270270294,179.04889824640486L141.31756756756772,180.171391142856L142.43243243243273,180.73262096218969L143.17567567567585,181.29383969643095L143.9189189189192,181.85504734616916L144.29054054054063,181.29383969643095L145.03378378378375,181.29383969643095L145.40540540540565,180.73262096218969L145.40540540540565,180.73262096218969L145.40540540540565,180.73262096218969L145.7770270270271,180.73262096218969L148.37837837837856,180.171391142856L151.35135135135147,179.610150237786L153.58108108108127,179.610150237786L154.3243243243246,179.04889824640486L154.3243243243246,179.610150237786L156.92567567567562,180.171391142856L160.27027027027043,181.29383969643095L161.7567567567569,181.85504734616916L162.87162162162167,181.85504734616916L163.98648648648668,182.41624391200094L165.1013513513517,182.97742939456293L165.84459459459458,183.53860379443722L166.9594594594596,184.66091934861106L166.9594594594596,184.66091934861106L167.33108108108104,184.66091934861106L169.9324324324325,183.53860379443722L170.30405405405395,183.53860379443722L170.67567567567562,183.53860379443722L171.04729729729752,183.53860379443722L174.02027027027043,184.0997671122568L174.39189189189187,184.0997671122568L174.39189189189187,184.0997671122568L176.99324324324357,184.0997671122568L178.10810810810813,184.66091934861106L178.85135135135147,185.2220605041257L181.45270270270294,187.46651432985163L183.31081081081084,188.02760009023405L185.9121621621623,189.71079091065985L187.77027027027043,190.83286274638522L188.88513513513544,191.954890285484L189.2567567567569,191.39388205271462L191.48648648648646,189.71079091065985L192.2297297297298,190.27183236589553L192.2297297297298,190.27183236589553L193.3445945945948,189.1497383800306L195.57432432432438,188.02760009023405L197.43243243243273,187.46651432985163L199.29054054054063,185.78319057939734L200.03378378378397,184.66091934861106L201.89189189189187,181.29383969643095L202.63513513513544,180.73262096218969L202.63513513513544,180.73262096218969L203.0067567567569,180.171391142856L204.1216216216219,179.04889824640486L204.1216216216219,177.92636100219534L204.1216216216219,177.36507574817733L204.49324324324334,176.2424719732262L204.1216216216219,176.2424719732262L204.1216216216219,175.68115345107435L201.89189189189187,175.68115345107435L201.148648648649,167.26004440665565L201.52027027027043,166.6985483619028L202.26351351351377,165.0139936231608L202.63513513513544,163.89090162081993L203.37837837837833,161.64458437050416L203.37837837837833,161.08297729485275L203.37837837837833,159.95972982361855L202.63513513513544,159.95972982361855L201.148648648649,159.39808942681702L200.03378378378397,159.39808942681702L200.03378378378397,159.39808942681702L200.03378378378397,158.83643792172006L199.66216216216208,156.58972080636522L199.29054054054063,156.0280137507325L199.66216216216208,155.4662955831518L200.7770270270271,155.4662955831518L202.26351351351377,156.0280137507325L204.1216216216219,155.4662955831518L205.9797297297298,155.4662955831518L207.8378378378377,155.4662955831518L209.69594594594605,156.58972080636522L209.69594594594605,157.1514167506757L209.69594594594605,157.1514167506757L209.69594594594605,157.1514167506757L209.69594594594605,157.1514167506757L210.06756756756772,157.1514167506757L210.43918918918916,156.58972080636522L210.81081081081106,156.58972080636522L210.81081081081106,156.58972080636522L211.1824324324325,156.58972080636522L211.1824324324325,156.58972080636522L213.78378378378397,158.2747753077383L214.15540540540542,158.2747753077383L215.27027027027043,158.2747753077383L216.38513513513522,158.2747753077383L216.7567567567569,157.71310158426786L217.12837837837833,156.58972080636522L217.50000000000023,153.78107440267559L217.87162162162167,153.2193117812203L218.61486486486478,151.53395722445202L219.35810810810813,149.8485026162234L219.35810810810813,149.2866621769681L219.35810810810813,147.03918922113007L219.35810810810813,145.91538601534194L219.7297297297298,144.2295977830654L220.10135135135124,143.10568333869378L220.47297297297314,143.10568333869378L220.84459459459458,143.10568333869378L222.33108108108104,143.10568333869378L222.70270270270294,143.10568333869378L222.70270270270294,142.54370942780588L222.70270270270294,142.54370942780588L223.44594594594605,140.8577209330506L224.9324324324325,140.8577209330506L228.2770270270271,140.8577209330506L232.73648648648646,141.98172439031987L233.47972972972957,141.98172439031987L234.96621621621648,142.54370942780588L235.33783783783792,141.4197282255991L235.70945945945937,139.73367296198194L236.4527027027027,137.48544345892878L237.19594594594628,135.2370358419612L237.56756756756772,134.67490610282766L237.56756756756772,132.98845007189084L237.93918918918916,132.98845007189084L238.31081081081106,131.8640903672058L238.68243243243273,131.30189380781303L238.68243243243273,130.73968610953307L239.79729729729752,130.17746727181293L240.1689189189192,129.61523729401597L240.91216216216208,128.49074391569593L241.65540540540565,127.36620596971261L242.0270270270271,126.24162345114746L242.39864864864853,126.24162345114746L242.39864864864853,126.80392028230199L242.77027027027043,129.05299617550918L244.2567567567569,129.61523729401597L245.74324324324334,129.61523729401597L245.74324324324334,129.61523729401597L246.114864864865,129.05299617550918L246.48648648648646,127.9284805139796L246.48648648648646,127.9284805139796L245.37162162162144,127.9284805139796L245.37162162162144,126.80392028230199L245.74324324324334,124.55466608897405L246.48648648648646,121.18045040039578L246.85810810810835,118.93075028504973L247.60135135135147,116.68087173220192L248.3445945945948,114.43081470255493L248.71621621621625,113.86827255353637L249.08783783783815,113.30571924666583L249.83108108108127,112.18057915685131L250.94594594594605,111.61799237267405L252.80405405405418,111.05539442818917L254.29054054054086,108.80489103467698L254.29054054054086,108.24223727934077L255.03378378378397,108.24223727934077L255.7770270270271,108.80489103467698L257.6351351351352,108.80489103467698L259.12162162162167,108.80489103467698L260.2364864864867,108.80489103467698L262.0945945945946,109.36753362661693L262.46621621621625,109.36753362661693L262.0945945945946,109.36753362661693L263.95270270270294,110.49278532275275L265.06756756756795,110.49278532275275L265.81081081081084,110.49278532275275L267.29729729729706,109.93016505575724L268.78378378378375,109.36753362661693L270.2702702702702,109.93016505575724L270.2702702702702,109.93016505575724L270.6418918918919,109.36753362661693L270.6418918918919,109.36753362661693L271.3851351351352,109.36753362661693L273.2432432432431,106.55420902684273L273.2432432432431,105.9915106117769L273.98648648648646,105.42880103025891L273.98648648648646,105.42880103025891L273.98648648648646,105.9915106117769L275.4729729729729,105.9915106117769L276.5878378378379,104.86608028164483L278.4459459459458,101.48952124681091L279.56081081081084,99.80109092399289L279.56081081081084,98.67541484363028L279.56081081081084,98.67541484363028L278.0743243243246,98.11256004207462L277.33108108108104,98.11256004207462L277.70270270270294,96.9868169131114L277.70270270270294,95.86102907890381L278.0743243243246,95.29811839581089L278.8175675675677,94.17226349453995L279.56081081081084,93.046363875721L280.67567567567585,91.92041953445005L280.67567567567585,91.3574305913462L280.67567567567585,90.79443046579036L280.67567567567585,89.66839666481246L280.67567567567585,89.10536298817533L281.0472972972975,89.10536298817533L281.0472972972975,88.54231812661601L282.53378378378375,87.41619484622788L282.90540540540565,87.41619484622788L285.87837837837856,87.9792620795015L286.25,88.54231812661601L286.6216216216219,88.54231812661601L287.364864864865,89.10536298817533L288.4797297297298,89.66839666481246L291.8243243243246,90.79443046579036L294.4256756756756,91.92041953445005L298.1418918918919,93.60931927512866L299.6283783783788,94.17226349453995L302.6013513513517,95.29811839581089L302.6013513513517,95.86102907890381L305.94594594594605,91.3574305913462L307.4324324324325,89.66839666481246L308.91891891891896,87.9792620795015L309.6621621621623,87.41619484622788L311.52027027027043,86.29002681875863L312.6351351351352,85.72692602331881L313.00675675675666,85.72692602331881L315.60810810810835,83.47441094919486L318.58108108108127,83.47441094919486L321.92567567567585,83.47441094919486L324.5270270270271,84.03755650282619L326.75675675675666,85.16381403926789L329.72972972972957,85.16381403926789L331.21621621621625,85.16381403926789L334.18918918918916,86.29002681875863L336.79054054054063,86.29002681875863L339.02027027027043,86.29002681875863L339.76351351351354,86.29002681875863L340.13513513513544,86.29002681875863L340.50675675675666,86.85311642619126L340.87837837837833,86.29002681875863L341.2500000000002,85.16381403926789L341.62162162162144,83.47441094919486L341.99324324324334,82.91125420448589L342.73648648648646,81.78490713934661L343.4797297297298,80.09530259307212L344.22297297297314,78.40559729373854L346.08108108108127,79.53207868890604L346.08108108108127,79.53207868890604L346.4527027027027,81.78490713934661L347.9391891891894,82.91125420448589L349.0540540540544,83.47441094919486L349.4256756756756,84.03755650282619L352.0270270270273,84.60069086596559L352.39864864864853,84.60069086596559L353.8851351351352,83.47441094919486L355.0000000000002,82.3480862680808L355.37162162162167,82.3480862680808L355.74324324324334,81.78490713934661L357.97297297297314,81.78490713934661L359.83108108108104,82.3480862680808L359.83108108108104,82.3480862680808L361.3175675675675,81.78490713934661L362.4324324324325,81.22171681769032L363.9189189189192,80.65851530246437L366.5202702702702,81.22171681769032L370.23648648648646,82.3480862680808L371.35135135135147,83.47441094919486L373.20945945945937,85.72692602331881L374.3243243243244,86.85311642619126L374.6959459459463,87.41619484622788L375.0675675675675,88.54231812661601L375.43918918918916,89.66839666481246L375.43918918918916,89.66839666481246L375.0675675675675,93.046363875721L374.6959459459463,94.17226349453995L374.3243243243244,95.86102907890381L373.9527027027027,96.9868169131114L374.6959459459463,99.23825847073749L376.9256756756761,98.67541484363028L377.6689189189192,100.36391220400765L378.0405405405404,100.92672231141478L378.0405405405404,101.48952124681091L378.0405405405404,102.05230901083269L378.0405405405404,102.6150856040731L377.6689189189192,104.30334836533075L376.5540540540542,105.9915106117769L374.6959459459463,107.67957236000802L374.6959459459463,107.67957236000802L373.9527027027027,108.24223727934077L374.6959459459463,109.36753362661693L375.43918918918916,109.93016505575724L375.43918918918916,110.49278532275275L376.1824324324323,112.74315478131393L375.81081081081106,112.74315478131393L373.20945945945937,113.86827255353637L372.8378378378379,114.43081470255493L372.0945945945946,115.55586552942259L372.46621621621625,116.11837420852316L372.8378378378379,117.24335810107004L373.58108108108127,118.3682973768955L374.3243243243244,119.49319204087442L374.6959459459463,120.61804209793263L376.1824324324323,123.4299721175048L376.5540540540542,123.99232467664478L376.1824324324323,123.99232467664478L376.5540540540542,124.55466608897405L378.4121621621621,126.24162345114746L377.6689189189192,126.80392028230199L375.43918918918916,129.61523729401597L373.58108108108127,132.4262757883589L370.9797297297298,134.67490610282766L370.9797297297298,135.2370358419612L370.9797297297298,135.2370358419612L371.7229729729729,135.79915444651851L372.8378378378379,136.92335825439295L374.3243243243244,139.1716322822649L375.43918918918916,140.2957025120486L376.5540540540542,142.54370942780588L376.9256756756761,143.10568333869378L377.2972972972973,143.10568333869378L378.783783783784,144.2295977830654L381.01351351351354,144.7915383177933L382.5,145.3534677283351L383.614864864865,145.3534677283351L383.98648648648646,145.3534677283351L383.24324324324334,146.47729317940684L383.614864864865,146.47729317940684L383.98648648648646,147.03918922113007L385.8445945945948,148.16294794003988L387.33108108108127,149.8485026162234L388.81756756756795,151.53395722445202L391.41891891891896,153.78107440267559L392.1621621621621,154.90456630301924L394.02027027027043,156.58972080636522L395.87837837837833,157.71310158426786L396.99324324324334,158.83643792172006L397.364864864865,159.95972982361855L397.73648648648646,159.95972982361855L397.73648648648646,160.5213591127722L399.59459459459504,162.20618034030485L402.19594594594605,164.4524531733914L404.05405405405395,166.13704121682167L404.7972972972973,166.6985483619028L405.54054054054086,167.26004440665565L407.0270270270273,167.82152935165504L409.25675675675666,168.94446594491455L410.7432432432431,169.50591759437157L411.114864864865,170.0673581465453L411.48648648648646,170.0673581465453L412.9729729729729,170.6287876020324L413.716216216216,170.6287876020324L417.06081081081084,172.3130093944601L417.43243243243273,172.3130093944601L418.5472972972973,172.3130093944601L419.6621621621623,172.87439446928693L423.0067567567569,172.87439446928693L425.9797297297298,173.43576845047573L426.3513513513517,173.43576845047573L427.0945945945948,173.99713133864861L429.3243243243246,174.5584831344022L430.81081081081084,175.11982383832947L432.66891891891896,175.68115345107435L434.1554054054054,176.803779405378L436.0135135135138,177.92636100219534L437.1283783783788,178.4876351680723L437.87162162162167,178.4876351680723L438.24324324324357,178.4876351680723L441.21621621621625,176.2424719732262L443.0743243243246,173.99713133864861L443.8175675675675,173.43576845047573L443.8175675675675,173.43576845047573L444.18918918918916,173.99713133864861L444.9324324324325,175.11982383832947L444.9324324324325,175.11982383832947L445.30405405405395,175.11982383832947L445.30405405405395,175.11982383832947L446.0472972972975,175.11982383832947L447.53378378378375,175.11982383832947L447.90540540540565,175.11982383832947L447.53378378378375,176.803779405378L447.53378378378375,177.36507574817733L447.90540540540565,177.92636100219534L448.27702702702686,178.4876351680723L448.27702702702686,178.4876351680723L449.3918918918919,177.92636100219534L449.7635135135138,177.92636100219534L449.7635135135138,177.92636100219534L450.135135135135,177.36507574817733L450.50675675675666,177.36507574817733L450.135135135135,179.04889824640486L450.135135135135,180.171391142856L449.02027027027066,181.29383969643095L449.02027027027066,181.85504734616916L449.02027027027066,182.41624391200094L449.02027027027066,184.0997671122568L449.02027027027066,184.66091934861106L451.2499999999998,183.53860379443722L452.7364864864867,184.0997671122568L452.7364864864867,184.0997671122568L453.85135135135147,185.2220605041257L455.3378378378379,185.78319057939734L456.45270270270294,186.34430957502627L457.19594594594605,184.66091934861106L457.19594594594605,184.0997671122568L457.19594594594605,183.53860379443722L456.8243243243244,183.53860379443722L456.8243243243244,183.53860379443722L456.8243243243244,182.41624391200094L457.19594594594605,181.29383969643095L457.5675675675677,180.171391142856L457.5675675675677,180.171391142856L459.7972972972973,177.92636100219534L460.54054054054063,176.803779405378L461.65540540540565,176.2424719732262L462.02702702702686,175.68115345107435L465,173.43576845047573L465.37162162162167,172.87439446928693L467.2297297297298,172.3130093944601L467.60135135135147,172.3130093944601L467.9729729729729,172.3130093944601L468.3445945945946,172.87439446928693L468.71621621621625,173.43576845047573L469.0878378378379,173.43576845047573L469.83108108108127,173.43576845047573L469.83108108108127,173.43576845047573L470.2027027027027,173.43576845047573L472.4324324324325,172.87439446928693L474.66216216216253,171.19020596142946L475.4054054054054,171.19020596142946L477.63513513513544,170.6287876020324L478.7500000000002,170.6287876020324L479.8648648648648,170.6287876020324L481.35135135135124,170.0673581465453L482.0945945945948,170.0673581465453L482.46621621621625,170.0673581465453L484.3243243243246,171.19020596142946L484.69594594594605,171.19020596142946L485.0675675675675,171.19020596142946L485.4391891891894,171.19020596142946L485.8108108108106,171.19020596142946L486.1824324324325,170.6287876020324L486.5540540540544,170.0673581465453L486.5540540540544,169.50591759437157L487.2972972972975,169.50591759437157L488.0405405405404,169.50591759437157L489.89864864864853,170.0673581465453L489.89864864864853,170.0673581465453L489.89864864864853,170.0673581465453L491.3851351351352,170.0673581465453L492.12837837837833,170.0673581465453L492.87162162162167,170.0673581465453L492.87162162162167,170.0673581465453L492.5000000000002,171.19020596142946L491.3851351351352,172.3130093944601L490.6418918918919,173.43576845047573L490.27027027027043,174.5584831344022L490.27027027027043,174.5584831344022L489.89864864864853,175.68115345107435L490.27027027027043,175.68115345107435L492.12837837837833,177.36507574817733L494.3581081081081,177.36507574817733L495.10135135135147,177.92636100219534L495.47297297297314,177.92636100219534L495.47297297297314,178.4876351680723L495.8445945945946,179.610150237786L496.5878378378377,179.610150237786L498.0743243243244,179.04889824640486L501.0472972972973,179.04889824640486L501.4189189189192,179.04889824640486L502.53378378378375,180.171391142856L502.9054054054054,180.73262096218969L502.53378378378375,181.85504734616916L502.9054054054054,182.41624391200094L503.64864864864876,184.0997671122568L504.76351351351354,186.34430957502627L505.1351351351352,188.02760009023405L505.1351351351352,189.1497383800306L504.76351351351354,190.83286274638522L503.64864864864876,192.51588744532637L501.4189189189192,194.19881249326136L501.4189189189192,194.19881249326136L500.6756756756756,194.19881249326136L499.9324324324325,194.75976536741655L499.5608108108106,194.75976536741655L498.4459459459463,197.00346617106334L498.0743243243244,197.56436370177107L498.0743243243244,199.24698989517856L498.0743243243244,199.80784316208883L498.0743243243244,200.92951650320902L498.4459459459463,201.4903365786413L498.4459459459463,202.05114559145295L498.0743243243244,205.4157673875343L497.33108108108127,207.65862740958255L496.5878378378377,209.9013105367012L496.2162162162165,211.02258577678367L495.8445945945946,212.1438168076893L496.2162162162165,214.38614626138224L496.5878378378377,216.06777733865601L496.5878378378377,216.62829893660455L496.5878378378377,216.62829893660455L494.3581081081081,216.62829893660455L491.7567567567569,218.30979745545847L491.3851351351352,218.30979745545847L490.6418918918919,218.8702748721189L490.6418918918919,218.8702748721189L489.89864864864853,218.8702748721189L489.1554054054054,218.8702748721189L488.7837837837835,218.30979745545847L487.66891891891873,217.74930899440005L487.2972972972975,217.74930899440005L486.9256756756756,218.30979745545847L486.9256756756756,218.8702748721189L488.4121621621623,220.5516408616786L489.89864864864853,223.35369667923442L490.27027027027043,224.47444172929318L490.27027027027043,224.47444172929318L490.27027027027043,225.03479769740443L492.12837837837833,225.59514262835728L495.10135135135147,226.71579938128343L497.33108108108127,227.83641199288468L498.8175675675675,229.5172481559348L501.4189189189192,230.07750481153198L502.53378378378375,230.63775043544956L504.0202702702702,231.19798502826234L504.3918918918921,231.75820859059968L505.50675675675666,233.43881310074357L505.50675675675666,235.1193183582909L505.50675675675666,235.67946472416952L505.50675675675666,236.2396000643821L505.50675675675666,236.2396000643821L505.50675675675666,237.35983767031212L507.364864864865,239.60018060101356L509.96621621621625,241.84034718905968L510.3378378378379,242.40036128707652L509.5945945945946,242.96036436667782L508.10810810810835,245.2002665132859L507.73648648648646,245.76021450998087L507.364864864865,246.3201514919274L506.62162162162167,246.88007745968935L506.99324324324334,246.88007745968935L508.10810810810835,246.88007745968935L509.22297297297337,246.88007745968935L509.5945945945946,246.88007745968935L509.96621621621625,246.88007745968935L510.3378378378379,246.88007745968935L511.8243243243244,247.9998963551625L512.5675675675675,249.1196712011988L513.3108108108111,249.67954210719108L515.5405405405406,254.15811302633665L517.0270270270271,255.27764568689236L517.0270270270271,255.83739551011604L515.1689189189192,256.39713432943245L514.0540540540542,258.6359795796707L514.4256756756756,258.6359795796707L514.7972972972973,259.19566338848745L515.1689189189192,260.31499800589154L515.5405405405406,260.31499800589154L515.5405405405406,260.31499800589154L515.9121621621621,260.8746488156539L515.9121621621621,261.43428862695146L516.6554054054056,261.43428862695146L517.3986486486485,261.43428862695146L519.2567567567569,260.8746488156539L519.2567567567569,260.8746488156539L519.6283783783786,260.31499800589154L520,259.19566338848745L520.3716216216214,258.6359795796707L524.4594594594594,260.31499800589154L525.2027027027029,260.8746488156539L527.0608108108111,260.31499800589154L529.2905405405406,260.8746488156539L531.8918918918919,261.43428862695146L534.4932432432433,262.55353525650935L536.3513513513512,263.1131420759848L536.3513513513512,263.1131420759848L535.97972972973,264.791896560404L535.97972972973,265.3514593992113L535.97972972973,267.03008195611255L535.97972972973,268.70860558635104L535.6081081081081,269.82756638861247L535.2364864864865,270.9464832355188L535.2364864864865,271.50592517721816L535.2364864864865,272.06535613187225L535.2364864864865,273.1841850825149L535.2364864864865,273.7435830796785L534.864864864865,274.3029700922343L534.864864864865,274.8623461207608L534.4932432432433,274.8623461207608L534.4932432432433,275.4217111658472L535.2364864864865,275.4217111658472L536.3513513513512,275.9810652281303L537.4662162162163,276.5404083081921L538.9527027027029,277.09974040662564L539.695945945946,277.6590615240384L540.0675675675675,278.2183716610525L540.4391891891892,278.77767081825004L540.8108108108108,279.3369589962276L541.554054054054,280.45550241696765L542.668918918919,280.45550241696765L543.0405405405404,281.0147576609161L543.4121621621623,281.0147576609161L546.0135135135133,279.3369589962276L546.3851351351352,280.45550241696765L546.7567567567571,281.5740019280711L546.7567567567571,281.5740019280711L547.1283783783783,281.5740019280711L548.2432432432431,281.0147576609161L548.614864864865,281.0147576609161L548.614864864865,281.0147576609161L550.8445945945948,282.1332352190184L553.0743243243244,283.2516688746873L553.4459459459458,283.8108692406131L553.8175675675677,284.37005863275044L554.1891891891894,284.37005863275044L554.9324324324323,286.0475609723544L556.7905405405406,286.60670647528605L558.2770270270271,287.1658410074306L559.7635135135138,287.72496456937006L561.6216216216219,287.1658410074306L562.7364864864867,286.60670647528605L563.1081081081079,286.60670647528605L563.8513513513515,287.1658410074306L564.9662162162163,287.72496456937006L565.7094594594596,288.28407716173024L566.0810810810813,289.40226944004826L566.4527027027027,289.96134912722846L566.4527027027027,290.5204178472013L566.4527027027027,290.5204178472013L564.2229729729729,291.63852238800246L562.364864864865,292.7565830672211L560.5067567567569,294.4335918561301L559.3918918918921,296.1105019835559L559.3918918918921,296.6694501040547L559.0202702702702,297.22838726457485L557.1621621621623,298.9051329921749L556.7905405405406,298.9051329921749L556.4189189189192,299.4640263187248L556.4189189189192,299.4640263187248L557.533783783784,301.140640558875L559.3918918918921,303.3759728425539L560.8783783783781,306.16989176388233L561.25,307.84611171437064L561.25,308.9635369403877L561.25,308.9635369403877L560.8783783783781,311.19825603567006L561.6216216216219,311.19825603567006L563.1081081081079,310.63959267994505L564.5945945945948,311.19825603567006L565.7094594594596,311.7569084469833L565.7094594594596,312.87418043881917L566.0810810810813,312.87418043881917L566.0810810810813,312.87418043881917L566.8243243243244,313.4328000205387L567.195945945946,313.4328000205387L568.3108108108111,313.99140866025846L570.168918918919,314.5500063585496L569.7972972972973,315.108593116056L569.7972972972973,315.6671689333525L568.6824324324325,317.34283074996347L568.3108108108111,317.90136281239756L567.5675675675677,318.45988393761945L567.5675675675677,319.57689337883494L566.8243243243244,321.2523255264932L567.195945945946,321.81078104098924L567.195945945946,322.3692256224713L568.6824324324325,325.16128455539L569.0540540540542,325.71966355125187L571.283783783784,329.06970804179946L571.6554054054054,329.06970804179946L572.7702702702702,330.7445827880729L573.5135135135138,331.86111133395025L572.3986486486488,334.6522415694453L570.5405405405406,335.2104348563116L569.7972972972973,335.7686172245121L568.3108108108111,339.1174821747736L567.9391891891892,340.23368316913184L567.9391891891892,340.79176729604296L567.5675675675677,341.3498405102582L567.195945945946,341.9079028123524L568.3108108108111,341.9079028123524L568.3108108108111,342.4659542029185L567.5675675675677,344.69805066196204L568.6824324324325,346.3720084645247L569.0540540540542,346.3720084645247L569.4256756756756,346.92997258441756L569.7972972972973,347.4879257981702L570.168918918919,349.1617200084802L570.9121621621621,350.83541608490486L570.9121621621621,351.9511589583017L570.168918918919,353.066858228558L570.168918918919,353.066858228558L569.0540540540542,353.6246915139891L567.195945945946,354.18251390044315L564.9662162162163,355.2981259787193L564.9662162162163,355.8559156717529L564.5945945945948,355.8559156717529L564.2229729729729,356.41369446817043L564.5945945945948,356.9714623685577L564.5945945945948,356.9714623685577L565.3378378378379,358.6447006995877L565.7094594594596,359.2024250218492L565.7094594594596,359.2024250218492L566.4527027027027,360.31784098788194L566.8243243243244,360.31784098788194L568.6824324324325,360.31784098788194L570.9121621621621,361.4332133864955L573.1418918918919,361.4332133864955L573.885135135135,361.9908832495239L574.2567567567569,362.54854222247013L574.6283783783788,363.106190305949L575,363.6638275005789L575,363.6638275005789L574.6283783783788,367.0094220352039L573.5135135135138,369.79711814575785L572.7702702702702,370.91212041365725L572.0270270270271,372.0270791593721L572.0270270270271,372.0270791593721L569.7972972972973,377.0438550555373L569.0540540540542,378.71591793402695L568.6824324324325,379.2732504816013L569.4256756756756,379.8305721575525L569.4256756756756,380.38788296247003L569.7972972972973,381.5024719615285L568.6824324324325,382.0597501568882L567.5675675675677,383.17427394218976L565.3378378378379,385.40319110782366L564.9662162162163,386.5175844976475L564.5945945945948,389.8605039521135L564.9662162162163,390.9747235477553L565.3378378378379,393.76008251174426L565.7094594594596,395.43116761092824L567.195945945946,397.10215502024585L569.0540540540542,398.2160923622432L569.7972972972973,399.3299862983695L569.7972972972973,400.4438368333722L569.7972972972973,400.4438368333722L569.7972972972973,401.0007458269465L569.7972972972973,401.0007458269465L568.6824324324325,401.5576439719989L567.5675675675677,403.2282733221L566.4527027027027,404.34197199050686L566.4527027027027,404.8988050570006L566.0810810810813,405.45562727911965L564.2229729729729,406.01243865748256L561.9932432432431,407.12602888527545L561.9932432432431,407.6828077359023L561.9932432432431,407.6828077359023L562.7364864864867,410.4665393798532L562.7364864864867,412.13664830022026L563.1081081081079,413.250000062817L563.4797297297298,413.8066596906028L563.8513513513515,414.91994644208535L564.2229729729729,416.58979531797013L564.2229729729729,417.70297374125585L564.5945945945948,418.81610884151814L564.2229729729729,419.92920062350095L563.8513513513515,421.04224909194454L563.1081081081079,421.04224909194454L560.5067567567569,421.5987570850484L558.2770270270271,422.1552542515383L557.9054054054052,422.1552542515383L555.6756756756758,421.5987570850484L552.7027027027029,421.04224909194454L549.72972972973,419.92920062350095L548.9864864864862,419.92920062350095L547.5,419.372660147008L547.1283783783783,419.372660147008L546.3851351351352,418.81610884151814L546.3851351351352,418.81610884151814L544.1554054054054,417.70297374125585L543.0405405405404,417.14638994528286L540.4391891891892,416.58979531797013L539.695945945946,416.03318985873557L538.9527027027029,416.03318985873557L537.8378378378379,415.47657356696436L536.7229729729731,414.91994644208535L535.2364864864865,415.47657356696436L533.3783783783783,415.47657356696436L532.2635135135135,415.47657356696436L531.1486486486488,415.47657356696436L530.033783783784,415.47657356696436L528.918918918919,414.91994644208535L527.0608108108111,413.8066596906028L525.945945945946,413.250000062817L525.945945945946,413.250000062817L525.5743243243242,413.250000062817L525.5743243243242,413.8066596906028L524.8310810810813,415.47657356696436L524.8310810810813,416.58979531797013L524.4594594594594,417.14638994528286L524.4594594594594,417.70297374125585L523.7162162162163,419.92920062350095L522.9729729729731,420.48573027162274L520.3716216216214,422.71174059201076L520.3716216216214,422.71174059201076L519.6283783783786,423.26821610705883L519.2567567567569,423.26821610705883L517.3986486486485,423.82468079724276L517.0270270270271,423.82468079724276L516.6554054054056,423.82468079724276L515.5405405405406,423.82468079724276L515.5405405405406,424.9375777054738L515.5405405405406,425.49400992467054L515.5405405405406,425.49400992467054L515.9121621621621,426.0504313214042L516.283783783784,426.0504313214042L516.6554054054056,426.6068418962459L516.6554054054056,427.7196305825928L516.283783783784,429.3887324627103L515.9121621621621,429.94507811860603L512.5675675675675,430.50141295674257L511.8243243243244,431.05773697769837L511.08108108108127,431.05773697769837L510.70945945945937,431.6140501820846L509.22297297297337,432.170352570487L508.47972972972957,432.72664414348037L506.62162162162167,433.83919484563376L505.50675675675666,434.3954539759834L505.50675675675666,434.3954539759834L504.3918918918921,433.83919484563376L502.9054054054054,433.28292490167223L502.53378378378375,433.28292490167223L502.1621621621623,433.28292490167223L500.6756756756756,433.83919484563376L499.5608108108106,433.83919484563376L498.8175675675675,434.3954539759834L498.8175675675675,434.9517022932778L498.4459459459463,435.507939798139L498.4459459459463,435.507939798139L499.5608108108106,436.6203823728647L499.5608108108106,436.6203823728647L500.3040540540542,436.6203823728647L502.53378378378375,437.1765874439152L503.64864864864876,437.1765874439152L506.25,437.73278170486446L508.10810810810835,438.28896515633096L509.96621621621625,438.8451377988822L511.4527027027025,440.51359087894525L512.9391891891892,442.18194670004596L514.4256756756756,444.4062698639318L515.5405405405406,446.0743988092945L516.6554054054056,447.7424305487075L517.3986486486485,449.41036509807236L517.3986486486485,449.9663216861627L517.7702702702704,451.07820247329073L518.1418918918921,451.63412667351076L519.2567567567569,452.1900400789709L519.6283783783786,452.74594269024965L520.3716216216214,453.3018345079108L521.4864864864865,453.3018345079108L522.6013513513515,453.8577155325838L522.2297297297298,456.08113171293735L522.2297297297298,457.1927750603609L520.7432432432433,456.63695878139333L520,457.74858055045115L517.7702702702704,459.4159322932537L517.0270270270271,460.5274461881163L517.0270270270271,461.0831869572212L516.6554054054056,461.6389169415488L516.6554054054056,462.1946361416776L515.9121621621621,463.8617290428556L515.9121621621621,464.41740511212265L515.9121621621621,464.9730704001522L516.283783783784,465.5287249075227L517.3986486486485,466.0843686348053L518.5135135135135,466.0843686348053L519.6283783783786,467.7512351421392L519.6283783783786,467.7512351421392L518.885135135135,467.7512351421392L515.9121621621621,467.7512351421392L515.5405405405406,468.306835755011L515.1689189189192,467.1956237515442L514.7972972972973,467.1956237515442L514.4256756756756,466.64000158262206L514.0540540540542,466.0843686348053L513.6824324324323,466.0843686348053L513.6824324324323,466.0843686348053L509.96621621621625,467.1956237515442L509.22297297297337,467.7512351421392L508.10810810810835,468.306835755011L507.364864864865,469.41800464996777L506.25,469.97357293319874L504.3918918918921,470.52913044106754L504.0202702702702,471.08467717415624L504.0202702702702,471.08467717415624L503.64864864864876,471.08467717415624L503.2770270270271,471.08467717415624L501.0472972972973,467.7512351421392L499.1891891891894,468.86242559076345L497.7027027027027,469.97357293319874L497.7027027027027,469.41800464996777L497.7027027027027,468.306835755011L497.33108108108127,467.7512351421392L497.33108108108127,467.1956237515442L496.9594594594596,466.64000158262206L495.10135135135147,465.5287249075227L494.7297297297298,464.9730704001522L493.9864864864867,464.9730704001522L492.87162162162167,464.9730704001522L491.0135135135133,465.5287249075227L490.27027027027043,465.5287249075227L489.89864864864853,466.0843686348053L489.89864864864853,466.0843686348053L486.9256756756756,465.5287249075227L486.1824324324325,465.5287249075227L485.8108108108106,465.5287249075227L485.4391891891894,465.5287249075227L485.0675675675675,466.0843686348053L484.69594594594605,465.5287249075227L483.9527027027027,464.9730704001522L483.2094594594596,463.8617290428556L483.2094594594596,462.7503445582115L483.2094594594596,462.1946361416776L482.46621621621625,462.1946361416776L482.0945945945948,462.1946361416776L481.72297297297314,462.7503445582115L479.8648648648648,462.7503445582115L478.37837837837833,463.3060421917471L475.03378378378375,462.7503445582115L472.8040540540542,462.7503445582115L470.9459459459458,462.7503445582115L469.45945945945937,463.3060421917471L466.48648648648646,465.5287249075227L466.114864864865,465.5287249075227L466.114864864865,465.5287249075227L465.37162162162167,467.1956237515442L464.62837837837856,468.86242559076345L463.51351351351354,470.52913044106754L462.77027027027043,470.52913044106754L462.39864864864876,470.52913044106754L462.02702702702686,471.08467717415624L460.54054054054063,471.64021313302874L460.16891891891896,472.7512527305589L458.68243243243273,475.52866321695547L458.31081081081084,476.63955202090074L457.19594594594605,476.63955202090074L456.08108108108104,476.63955202090074L453.47972972972957,476.08411300338776L453.1081081081081,475.52866321695547L452.7364864864867,477.1949802700765L453.1081081081081,478.30580446579916L453.1081081081081,478.8612004135175L453.47972972972957,479.97196001158227L453.85135135135147,480.527323663111L454.5945945945946,481.63801867408256L454.5945945945946,483.3039804691289L454.9662162162165,483.85927954411454L456.45270270270294,486.08036824285955L456.8243243243244,486.08036824285955L459.05405405405395,486.6356135201713L460.16891891891896,487.19084803972146L460.9121621621623,490.5220292765407L461.65540540540565,492.1874747124384L462.02702702702686,494.9630020751065L462.02702702702686,494.9630020751065L460.9121621621623,496.07313777314266L459.7972972972973,497.18323047990634L459.42567567567585,497.18323047990634L457.5675675675677,497.18323047990634L455.7094594594596,496.6281895001375L454.5945945945946,496.07313777314266L453.85135135135147,496.07313777314266L451.99324324324357,496.07313777314266L451.62162162162167,496.07313777314266L450.50675675675666,496.07313777314266L449.02027027027066,496.6281895001375L446.41891891891896,497.73826071301664L445.67567567567585,498.2932802000796L445.30405405405395,498.2932802000796L443.44594594594605,498.2932802000796L443.0743243243246,497.73826071301664L440.8445945945946,497.18323047990634L439.3581081081079,497.18323047990634L438.9864864864867,497.18323047990634L437.1283783783788,497.18323047990634L436.7567567567569,497.18323047990634L436.385135135135,497.73826071301664L435.6418918918919,498.2932802000796L434.89864864864876,498.84828894166276L434.1554054054054,499.40328693833726L433.783783783784,499.40328693833726L433.04054054054063,499.9582741907252L431.1824324324325,499.9582741907252L430.43918918918916,499.9582741907252L429.6959459459458,500.51325069938684L429.3243243243246,500.51325069938684L429.3243243243246,500.51325069938684L428.5810810810808,501.6231714878668L427.0945945945948,502.17811576886015L425.9797297297298,502.17811576886015L424.4932432432431,502.17811576886015L423.37837837837856,501.6231714878668L422.26351351351354,502.17811576886015L421.5202702702702,502.7330493084846L420.7770270270271,502.7330493084846L420.03378378378375,503.84288416590425L419.6621621621623,503.28797210729317L419.6621621621623,502.7330493084846L416.6891891891894,502.17811576886015L416.6891891891894,501.6231714878668L415.9459459459458,501.6231714878668L415.5743243243244,501.6231714878668L414.0878378378379,499.9582741907252L413.3445945945948,498.2932802000796L412.9729729729729,498.2932802000796L412.22972972973,497.73826071301664L410.37162162162167,497.18323047990634L408.8851351351352,496.6281895001375L407.7702702702702,497.18323047990634L406.28378378378375,497.18323047990634L404.05405405405395,498.2932802000796L401.82432432432415,499.9582741907252L401.08108108108104,500.51325069938684L398.47972972973,500.51325069938684L395.87837837837833,501.068216464897L395.1351351351352,501.068216464897L393.64864864864876,500.51325069938684L392.1621621621621,501.068216464897L391.41891891891896,501.6231714878668L391.04729729729706,501.6231714878668L390.67567567567585,502.17811576886015L389.9324324324323,502.7330493084846L388.0743243243244,503.28797210729317L386.95945945945937,503.28797210729317L383.98648648648646,503.28797210729317L381.01351351351354,503.28797210729317L380.6418918918921,502.7330493084846L380.2702702702702,502.7330493084846L379.1554054054052,502.17811576886015L378.0405405405404,502.17811576886015L374.6959459459463,501.6231714878668L373.20945945945937,502.17811576886015L372.8378378378379,501.6231714878668L372.8378378378379,501.6231714878668L370.6081081081081,501.068216464897L370.23648648648646,499.9582741907252L369.12162162162167,500.51325069938684L368.75,501.068216464897L368.37837837837833,502.7330493084846L368.0067567567571,504.3977854848854L367.6351351351352,504.952676064815L366.8918918918921,505.50755590629706L365.0337837837842,507.17213100582376L364.6621621621623,507.17213100582376L365.0337837837842,507.72696789931433L365.4054054054054,508.28179405725314L365.4054054054054,508.8366094802477L365.4054054054054,509.3914141688874L366.14864864864876,512.7200169117059L366.5202702702702,513.2747464761196L366.5202702702702,513.8294653108569L366.14864864864876,514.3841734164816L365.7770270270271,514.9388707935723L364.2905405405404,516.6028985595476L363.9189189189192,517.7121967716048L363.1756756756756,519.3760636534935L362.8040540540542,520.4852546240872L362.06081081081084,520.4852546240872L361.6891891891894,519.9306645001234L360.94594594594605,519.9306645001234L359.83108108108104,520.4852546240872L357.2297297297298,521.5944027062615L356.4864864864867,521.5944027062615L356.114864864865,521.5944027062615L354.2567567567569,521.5944027062615L352.77027027027043,521.5944027062615L350.9121621621623,520.4852546240872L349.7972972972975,520.4852546240872L349.4256756756756,519.9306645001234L346.08108108108127,518.8214520835754L344.96621621621625,518.2668297898163L344.22297297297314,517.1575530283844L343.4797297297298,516.0482333645159L343.10810810810835,514.9388707935723L342.36486486486524,513.2747464761196L340.87837837837833,511.61052559144446L338.64864864864853,508.8366094802477L337.53378378378375,508.28179405725314L337.16216216216253,508.28179405725314L337.16216216216253,507.72696789931433L336.79054054054063,507.72696789931433L336.41891891891896,507.17213100582376L336.79054054054063,506.6172833762066L336.79054054054063,506.06242500990265L337.53378378378375,503.84288416590425L338.2770270270273,501.6231714878668L338.64864864864853,499.9582741907252L338.2770270270273,496.6281895001375L337.9054054054054,494.9630020751065L337.9054054054054,494.9630020751065L337.53378378378375,494.9630020751065L336.79054054054063,495.5180752983215L336.0472972972975,495.5180752983215L333.0743243243244,494.9630020751065L330.47297297297337,494.40791810289375L328.6148648648648,495.5180752983215L327.87162162162167,496.07313777314266L326.75675675675666,497.18323047990634L326.01351351351354,497.73826071301664L326.01351351351354,497.73826071301664L325.6418918918919,498.84828894166276L326.01351351351354,498.84828894166276L326.38513513513544,498.84828894166276L327.87162162162167,499.40328693833726L328.98648648648646,500.51325069938684L329.35810810810835,502.17811576886015L330.10135135135147,504.3977854848854L330.47297297297337,506.6172833762066L330.8445945945946,508.28179405725314L331.21621621621625,508.28179405725314L331.21621621621625,508.8366094802477L330.8445945945946,509.9462081237434L330.47297297297337,510.5009913453905L330.10135135135147,511.05576383442894L329.35810810810835,511.61052559144446L328.98648648648646,512.1652766169973L326.01351351351354,512.7200169117059L323.78378378378375,512.7200169117059L322.66891891891896,512.7200169117059L322.66891891891896,512.1652766169973L323.04054054054063,510.5009913453905L323.04054054054063,508.8366094802477L323.04054054054063,507.72696789931433L322.66891891891896,505.50755590629706L322.66891891891896,504.952676064815L322.66891891891896,504.3977854848854L322.2972972972973,503.84288416590425L321.1824324324325,503.28797210729317L318.2094594594596,502.17811576886015L316.35135135135147,501.6231714878668L315.97972972972957,501.6231714878668L315.60810810810835,501.6231714878668L313.37837837837856,502.7330493084846L311.8918918918919,503.84288416590425L310.033783783784,506.6172833762066L308.5472972972975,508.28179405725314L307.4324324324325,509.9462081237434L307.06081081081106,510.5009913453905L306.6891891891894,512.7200169117059L306.6891891891894,513.2747464761196L306.6891891891894,513.8294653108569L306.6891891891894,514.3841734164816L306.3175675675675,514.3841734164816L305.94594594594605,514.3841734164816L305.2027027027027,513.8294653108569L303.7162162162165,513.8294653108569L303.3445945945946,513.8294653108569L303.3445945945946,513.8294653108569L302.2297297297298,514.3841734164816L301.8581081081079,514.9388707935723L300,516.6028985595476L299.2567567567569,517.1575530283844L298.8851351351352,517.1575530283844L298.5135135135138,517.1575530283844L297.0270270270271,518.8214520835754L295.54054054054063,519.9306645001234L294.4256756756756,518.8214520835754L294.4256756756756,518.8214520835754L293.6824324324325,518.2668297898163L293.6824324324325,518.2668297898163L292.1959459459458,518.2668297898163L291.4527027027027,518.2668297898163L290.3378378378379,518.2668297898163L289.5945945945948,519.3760636534935L289.2229729729729,519.9306645001234L288.8513513513517,519.9306645001234L288.8513513513517,519.9306645001234L288.1081081081081,519.3760636534935L288.1081081081081,518.8214520835754L287.7364864864867,518.2668297898163L287.7364864864867,514.9388707935723L288.1081081081081,513.8294653108569L288.4797297297298,512.7200169117059L288.4797297297298,512.1652766169973L288.4797297297298,511.61052559144446L287.364864864865,509.9462081237434L286.6216216216219,509.9462081237434L285.5067567567569,509.9462081237434L285.1351351351352,509.9462081237434L284.02027027027043,510.5009913453905L283.2770270270271,511.05576383442894L282.90540540540565,511.05576383442894L282.1621621621623,511.05576383442894L281.41891891891873,511.05576383442894L279.93243243243273,510.5009913453905L276.9594594594598,509.9462081237434L276.5878378378379,509.3914141688874L276.216216216216,509.3914141688874L275.10135135135147,511.05576383442894L274.72972972973,511.61052559144446L274.72972972973,512.1652766169973L275.10135135135147,514.3841734164816L275.8445945945948,517.1575530283844L274.72972972973,518.2668297898163L271.3851351351352,519.9306645001234L268.04054054054086,518.2668297898163L265.81081081081084,516.6028985595476L265.43918918918916,516.6028985595476L264.32432432432415,517.7121967716048L263.95270270270294,518.2668297898163L263.58108108108104,519.3760636534935L263.2094594594596,518.8214520835754L263.2094594594596,518.8214520835754L262.8378378378379,518.8214520835754L262.46621621621625,518.8214520835754L262.46621621621625,518.8214520835754L259.8648648648648,518.2668297898163L258.75,517.1575530283844L258.75,515.4935574427291L258.0067567567569,513.8294653108569L257.2635135135138,513.2747464761196L256.14864864864876,511.61052559144446L255.7770270270271,511.05576383442894L255.40540540540542,511.61052559144446L255.03378378378397,511.61052559144446L252.80405405405418,513.2747464761196L252.06081081081106,514.3841734164816L251.6891891891894,514.3841734164816L250.94594594594605,515.4935574427291L249.4594594594596,517.1575530283844L248.71621621621625,517.7121967716048L247.97297297297314,517.7121967716048L246.85810810810835,518.2668297898163L246.85810810810835,518.2668297898163L246.48648648648646,517.7121967716048L243.51351351351354,516.6028985595476L240.1689189189192,514.9388707935723L237.19594594594628,516.0482333645159L235.70945945945937,517.1575530283844L234.59459459459458,517.7121967716048L233.47972972972957,516.6028985595476L231.9932432432431,516.6028985595476L229.76351351351354,517.1575530283844L229.3918918918921,517.1575530283844L228.64864864864876,517.1575530283844L226.79054054054063,515.4935574427291L226.4189189189192,515.4935574427291L226.0472972972973,516.0482333645159L225.67567567567585,516.6028985595476L224.1891891891894,518.8214520835754L223.81756756756772,519.3760636534935L223.44594594594605,519.3760636534935L223.07432432432438,518.8214520835754L222.33108108108104,518.2668297898163L221.9594594594596,518.2668297898163L221.21621621621625,518.2668297898163L219.35810810810813,519.3760636534935L216.38513513513522,519.3760636534935L215.64189189189187,519.3760636534935L215.27027027027043,518.8214520835754L214.52702702702732,518.8214520835754L216.7567567567569,514.9388707935723L217.12837837837833,513.8294653108569L217.87162162162167,511.05576383442894L218.24324324324334,509.3914141688874L218.61486486486478,506.06242500990265L218.98648648648668,502.17811576886015L218.98648648648668,501.068216464897L219.7297297297298,498.84828894166276L220.84459459459458,497.73826071301664L221.21621621621625,497.18323047990634L221.58783783783792,496.6281895001375L221.58783783783792,496.07313777314266L222.33108108108104,492.74260168647015L220.84459459459458,489.96685929133673L220.84459459459458,489.4116785518854L219.7297297297298,488.3012848078288L219.35810810810813,487.74607180208477L218.61486486486478,485.52511220717133L218.24324324324334,484.96984541253914L218.24324324324334,483.85927954411454L217.87162162162167,483.85927954411454L216.7567567567569,480.527323663111L215.27027027027043,479.4165855952415L213.78378378378397,478.8612004135175L212.66891891891896,479.4165855952415L211.55405405405418,479.4165855952415L211.55405405405418,479.4165855952415L210.81081081081106,478.8612004135175L210.81081081081106,478.8612004135175L210.06756756756772,478.8612004135175L210.06756756756772,479.4165855952415L209.69594594594605,480.527323663111L210.43918918918916,482.19335003470405L210.43918918918916,483.85927954411454L210.06756756756772,484.96984541253914L209.32432432432415,486.08036824285955L209.32432432432415,487.19084803972146L209.69594594594605,488.85648705757194L208.9527027027027,489.96685929133673L206.72297297297314,491.6323369865095L205.60810810810835,492.1874747124384L203.0067567567569,492.1874747124384L202.63513513513544,492.1874747124384L202.63513513513544,491.07718850806486L203.0067567567569,491.07718850806486L204.1216216216219,488.3012848078288L203.75000000000023,487.74607180208477L198.91891891891896,488.3012848078288L198.91891891891896,488.85648705757194L198.17567567567562,488.3012848078288L198.17567567567562,487.74607180208477L197.43243243243273,485.52511220717133L197.06081081081084,483.85927954411454L197.06081081081084,483.3039804691289L196.31756756756772,481.63801867408256L194.83108108108127,480.527323663111L194.08783783783792,479.97196001158227L194.45945945945937,477.7503977515189L194.45945945945937,477.1949802700765L194.83108108108127,477.1949802700765L196.68918918918916,477.7503977515189L198.54729729729752,477.1949802700765L201.148648648649,476.08411300338776L202.63513513513544,476.08411300338776L204.1216216216219,476.08411300338776L204.86486486486478,477.1949802700765L204.86486486486478,477.7503977515189L205.60810810810835,477.7503977515189L205.60810810810835,477.7503977515189L205.9797297297298,477.7503977515189L205.60810810810835,477.1949802700765L205.9797297297298,475.52866321695547L205.9797297297298,472.7512527305589L205.9797297297298,470.52913044106754L205.9797297297298,469.97357293319874L204.86486486486478,468.86242559076345L204.1216216216219,468.86242559076345L204.1216216216219,468.86242559076345L203.37837837837833,468.86242559076345L203.0067567567569,468.86242559076345L203.0067567567569,468.306835755011L201.52027027027043,467.1956237515442L200.40540540540542,466.0843686348053L198.54729729729752,464.41740511212265L196.31756756756772,461.6389169415488L196.31756756756772,460.5274461881163L195.57432432432438,459.4159322932537L195.57432432432438,459.4159322932537L192.60135135135147,458.3043752522426L191.48648648648646,459.4159322932537L191.114864864865,458.86015916630276L190.74324324324334,458.3043752522426L188.88513513513544,456.08113171293735L188.51351351351354,455.52529385442176L188.51351351351354,455.52529385442176L188.1418918918921,455.52529385442176L187.77027027027043,454.9694452052463L188.51351351351354,454.4135857648398L189.62837837837856,451.63412667351076L189.2567567567569,448.85439771287565L189.62837837837856,447.1864307685937L189.62837837837856,446.0743988092945L188.88513513513544,444.4062698639318L189.2567567567569,443.8502052780823L187.77027027027043,442.18194670004596L185.9121621621623,439.9574506596L184.05405405405395,437.1765874439152L183.6824324324325,436.06416649114544L182.9391891891894,434.9517022932778L181.82432432432438,433.28292490167223L179.96621621621648,431.6140501820846L179.22297297297314,431.6140501820846L178.85135135135147,431.6140501820846L178.85135135135147,431.05773697769837L178.85135135135147,428.2760086952985L179.59459459459458,425.49400992467054L181.45270270270294,423.82468079724276L181.82432432432438,423.82468079724276L181.82432432432438,423.26821610705883L181.45270270270294,423.26821610705883L181.45270270270294,422.1552542515383L181.08108108108104,421.5987570850484L180.7094594594596,421.5987570850484L179.96621621621648,420.48573027162274L180.33783783783792,419.92920062350095L179.59459459459458,419.372660147008L179.22297297297314,419.372660147008L178.10810810810813,417.70297374125585L176.99324324324357,414.91994644208535L174.76351351351377,413.250000062817L174.02027027027043,412.69332959955136L172.90540540540542,412.69332959955136L172.53378378378397,412.69332959955136L172.1621621621623,412.13664830022026L171.41891891891896,409.90981473030115L170.30405405405395,407.6828077359023L169.56081081081106,407.12602888527545L168.44594594594605,406.01243865748256L168.0743243243246,405.45562727911965L168.0743243243246,405.45562727911965L167.7027027027027,404.8988050570006L167.7027027027027,404.8988050570006L165.47297297297314,406.01243865748256L165.47297297297314,406.56923919267865L165.1013513513517,406.56923919267865L163.98648648648668,408.7963329135273L163.61486486486524,409.90981473030115L162.87162162162167,409.90981473030115L161.38513513513522,409.3530792417296L160.64189189189187,408.7963329135273L158.04054054054063,406.56923919267865L157.29729729729752,406.01243865748256L157.29729729729752,406.01243865748256L156.92567567567562,403.78512807906736L156.92567567567562,402.67140771900085L157.29729729729752,402.11453126915876L157.66891891891896,401.5576439719989L158.41216216216208,399.8869169907048L159.5270270270271,398.7730447557333L159.5270270270271,398.2160923622432L160.27027027027043,398.2160923622432L161.01351351351354,397.65912911727355L161.38513513513522,397.10215502024585L162.12837837837833,396.5451700705853L162.87162162162167,395.43116761092824L162.50000000000023,393.76008251174426L161.7567567567569,390.4176191798106L161.7567567567569,389.8605039521135L161.7567567567569,389.3033778640529L160.64189189189187,387.6319344317999L159.89864864864853,387.0747648963952L159.5270270270271,386.5175844976475L159.15540540540542,385.9603932350037L159.15540540540542,385.9603932350037L157.29729729729752,384.8459781155507L156.55405405405418,384.8459781155507L154.69594594594605,384.28875425759543L153.9527027027027,383.7315195333322L152.83783783783815,383.7315195333322L151.72297297297314,382.6170174835788L150.60810810810835,382.0597501568882L149.864864864865,382.0597501568882L149.12162162162167,382.0597501568882L147.63513513513522,382.0597501568882L147.63513513513522,382.6170174835788L147.63513513513522,382.6170174835788L147.63513513513522,383.7315195333322L147.63513513513522,384.28875425759543L147.63513513513522,384.8459781155507L148.37837837837856,385.40319110782366L149.864864864865,388.18909310449453L150.23648648648646,389.3033778640529L150.60810810810835,390.4176191798106L150.60810810810835,390.9747235477553L150.60810810810835,392.0888997067086L150.60810810810835,392.6459714989178L150.60810810810835,393.20303243372473L149.864864864865,393.76008251174426L149.12162162162167,394.3171217335439L148.75,394.8741500997494L147.63513513513522,394.8741500997494L147.26351351351354,395.43116761092824L147.26351351351354,395.43116761092824L146.8918918918921,395.98817426766254L145.7770270270271,397.10215502024585L145.03378378378375,398.2160923622432L143.5472972972973,397.65912911727355L142.06081081081084,397.10215502024585L140.57432432432438,394.8741500997494L140.57432432432438,393.20303243372473L140.20270270270294,393.20303243372473L139.83108108108127,393.20303243372473L139.83108108108127,393.20303243372473L139.83108108108127,393.20303243372473L139.83108108108127,393.76008251174426L140.20270270270294,394.8741500997494L140.20270270270294,395.98817426766254L140.20270270270294,397.10215502024585L139.83108108108127,397.65912911727355L139.83108108108127,397.65912911727355L139.45945945945982,398.2160923622432L139.08783783783792,398.7730447557333L138.3445945945948,399.3299862983695L137.97297297297314,399.3299862983695L136.114864864865,399.8869169907048L134.25675675675666,400.4438368333722L133.14189189189187,401.0007458269465L132.02702702702732,401.5576439719989L130.9121621621623,401.5576439719989L130.54054054054086,402.11453126915876L130.16891891891896,399.8869169907048L129.7972972972973,399.3299862983695L129.42567567567585,397.65912911727355L128.6824324324325,395.43116761092824L128.31081081081084,393.76008251174426L127.93918918918939,391.5318170565297L126.45270270270294,388.746240915043L124.96621621621625,387.6319344317999L124.22297297297314,385.9603932350037L123.4797297297298,384.8459781155507L123.10810810810813,383.7315195333322L122.73648648648668,383.17427394218976L122.73648648648668,382.0597501568882L122.73648648648668,381.5024719615285L122.73648648648668,380.94518289692496L122.36486486486478,380.38788296247003L121.99324324324334,379.2732504816013L120.50675675675689,377.0438550555373L120.50675675675689,376.4864790154752L120.13513513513522,376.4864790154752L119.39189189189187,376.4864790154752L119.02027027027043,375.9290921008069L118.27702702702709,374.8142856453014L117.53378378378397,374.25686610327466L117.1621621621623,374.25686610327466L114.9324324324325,373.14199438767173L113.81756756756772,373.14199438767173L112.70270270270271,373.14199438767173L109.7297297297298,375.3716943109612L106.75675675675689,377.0438550555373L104.15540540540565,379.2732504816013L103.04054054054063,379.8305721575525L102.29729729729752,379.2732504816013L101.18243243243273,378.71591793402695L100.43918918918939,378.1585745142147L98.20945945945937,377.0438550555373L97.46621621621648,376.4864790154752L97.09459459459458,375.9290921008069L97.09459459459458,375.3716943109612L95.97972972973002,374.25686610327466L96.35135135135147,374.25686610327466L97.83783783783792,373.14199438767173L99.69594594594582,371.46960522649897L100.43918918918939,370.91212041365725L101.55405405405418,369.79711814575785L104.15540540540565,367.5669830243605L106.01351351351354,365.33667375710866L108.24324324324334,363.106190305949L108.61486486486501,363.106190305949L108.98648648648646,361.9908832495239L109.7297297297298,360.87553263281006L110.47297297297291,358.6447006995877L110.47297297297291,356.9714623685577L111.21621621621625,355.8559156717529L111.58783783783792,355.2981259787193L113.0743243243246,353.6246915139891L113.44594594594605,353.6246915139891L113.44594594594605,353.6246915139891L112.70270270270271,352.5090140435168L112.33108108108127,351.9511589583017L110.84459459459481,350.83541608490486L110.10135135135147,350.2775282955299L108.61486486486501,350.2775282955299L107.5,351.39329297228323L107.12837837837856,351.39329297228323L106.01351351351354,350.2775282955299L105.6418918918921,350.2775282955299L105.6418918918921,349.7196296035836L105.27027027027043,347.4879257981702L105.27027027027043,347.4879257981702L107.12837837837856,345.2560475038954L109.35810810810835,341.9079028123524L110.84459459459481,339.67558812891L111.9594594594596,339.1174821747736L112.33108108108127,338.5593653061296L114.18918918918939,338.00123752240324L114.18918918918939,337.4430988229615L114.56081081081106,336.8849492072295L114.18918918918939,335.7686172245121L114.18918918918939,335.2104348563116L113.0743243243246,331.86111133395025L111.9594594594596,329.06970804179946L111.58783783783792,328.5113946099882L111.21621621621625,327.95307025234797L110.84459459459481,327.39473496823484Z" style="fill: none; stroke: rgb(8, 48, 107);"><title>AUBE</title></path><g stroke="#000" stroke-opacity="0.2"><path d="M0,-13.34775705149959L2.9967581703553763,-4.1246837657014135L12.69447132175327,-4.124683765701414L4.848856575698947,1.5754890056530315L7.845614746054325,10.798562291451207L8.881784197001252e-16,5.098389520096762L-7.845614746054323,10.798562291451208L-4.848856575698946,1.5754890056530328L-12.694471321753271,-4.124683765701411L-2.9967581703553776,-4.124683765701413Z" transform="translate(519.6283783783786,349.1617200084802)rotate(14.698633753398633)" fill="white" class="commune"><title>10033 Population : 4950</title></path><path d="M0,-13.34775705149959L2.9967581703553763,-4.1246837657014135L12.69447132175327,-4.124683765701414L4.848856575698947,1.5754890056530315L7.845614746054325,10.798562291451207L8.881784197001252e-16,5.098389520096762L-7.845614746054323,10.798562291451208L-4.848856575698946,1.5754890056530328L-12.694471321753271,-4.124683765701411L-2.9967581703553776,-4.124683765701413Z" transform="translate(68.10810810810835,202.61194354227337)rotate(20.810225917630294)" fill="white" class="commune"><title>10268 Population : 5973</title></path><path d="M0,-22.448162112566994L5.039926405668234,-6.936863585267022L21.349470856006818,-6.936863585267023L8.154772225169292,2.649646114250548L13.19469863083753,18.16094464155052L8.881784197001252e-16,8.574434942032948L-13.194698630837525,18.160944641550522L-8.154772225169292,2.649646114250549L-21.34947085600682,-6.936863585267019L-5.0399264056682345,-6.936863585267021Z" transform="translate(282.90540540540565,313.99140866025846)rotate(24.93848499109622)" fill="white" class="commune"><title>10387 Population : 60640</title></path></g><text class="text" y="25" x="326" text-anchor="middle" font-size="24" font-family="Helvetica" fill="#6baed6">10 - AUBE</text><line x1="489.5270270270272" y1="339.3917349107331" x2="98.20945945945971" y2="212.38192864002048" stroke="yellow" opacity="0.35" stroke-width="2"/><line x1="82.42792792792818" y1="210.0372412168057" x2="268.5855855855858" y2="306.56611098572614" stroke="yellow" opacity="0.35" stroke-width="2"/><line x1="298.6869369369372" y1="316.33609608347325" x2="503.84684684684703" y2="346.8170325852654" stroke="yellow" opacity="0.35" stroke-width="2"/></svg>