<svg viewBox="0,0,600,600" width="600" height="600" style="width: 100%; height: auto;" xmlns="http://www.w3.org/2000/svg" xmlns:xlink="http://www.w3.org/1999/xlink"><rect width="752" height="902.4" fill="black"/><path d="M101.11583388934082,408.4775354823214L100.78709973048035,408.4775354823214L100.45836557161942,407.9932899450323L100.12963141275895,407.5090352659681L97.49975814187428,406.0562163731702L94.54115071212868,406.0562163731702L93.55494823554704,406.54049848053546L91.91127744124401,407.5090352659681L91.58254328238354,407.9932899450323L89.28140417035934,409.44599913349157L88.2952016937777,409.9302172484022L86.3227967406142,410.89862605923554L85.00786010517163,411.3828167561842L84.35039178745046,411.86699831479564L84.02165762858976,412.3511707355574L84.02165762858976,411.3828167561842L84.02165762858976,410.89862605923554L83.36418931086882,409.44599913349157L83.0354551520079,409.44599913349157L82.04925267542603,408.4775354823214L81.06305019884462,407.5090352659681L80.73431603998415,407.0247714446414L80.73431603998415,406.54049848053546L80.73431603998415,406.0562163731702L80.73431603998415,405.0876247267079L81.06305019884462,404.11899650129635L81.06305019884462,403.63466867024545L81.06305019884462,401.6972658789746L81.06305019884462,401.2128923119162L80.73431603998415,400.24411773126485L80.07684772226298,399.2753065519428L79.41937940454181,398.30645877001007L79.09064524568112,397.8220211518201L79.09064524568112,397.33757438151224L79.09064524568112,396.85311845855904L78.10444276909948,393.9461906880824L77.77570861023855,392.49260320239046L77.77570861023855,391.52349909158875L77.44697445137808,389.5851809634587L77.77570861023855,386.67742894557523L77.44697445137808,385.7081049702974L77.44697445137808,385.7081049702974L77.44697445137808,385.2234292361791L77.44697445137808,385.2234292361791L78.10444276909948,384.7387443371008L78.76191108682042,383.7693470420345L80.07684772226298,382.31518234977193L81.39178435770509,381.3456933827292L82.37798683428696,380.3761677399707L83.69292346972952,378.921810500211L83.69292346972952,378.43700641147734L83.36418931086882,378.43700641147734L83.36418931086882,378.43700641147734L83.0354551520079,378.43700641147734L80.40558188112323,379.89139116395745L80.07684772226298,379.89139116395745L78.10444276909948,379.40660541753095L77.44697445137808,378.43700641147734L77.11824029251761,377.95219315085706L77.77570861023855,376.9825391119339L78.10444276909948,376.497698332656L78.43317692795995,376.497698332656L79.41937940454181,376.01284837949424L80.40558188112323,375.5279892519611L81.06305019884462,374.55824347183443L82.04925267542603,373.5884609882596L82.37798683428696,372.61864179731856L82.37798683428696,372.13371843533605L82.37798683428696,371.6487858950386L82.37798683428696,371.6487858950386L80.73431603998415,369.22398550121216L80.40558188112323,367.2839799256835L80.73431603998415,364.3736960539936L81.06305019884462,363.8886165930271L82.04925267542603,361.9482068767102L82.70672099314766,361.4630814770244L82.70672099314766,361.4630814770244L84.67912594631116,359.03731663022336L85.6653284228928,356.6113219906256L86.65153089947466,355.6408597789123L86.65153089947466,355.6408597789123L86.65153089947466,355.15561488051753L86.65153089947466,355.15561488051753L86.65153089947466,355.15561488051753L86.3227967406142,354.6703607864438L85.9940625817535,354.18509749620716L85.6653284228928,354.18509749620716L85.00786010517163,353.6998250092947L83.69292346972952,354.18509749620716L83.0354551520079,354.6703607864438L82.37798683428696,355.6408597789123L82.37798683428696,355.6408597789123L82.04925267542603,356.1260954821082L81.72051851656579,357.09653930494824L81.06305019884462,358.552136087721L80.40558188112323,360.0076501406038L79.09064524568112,361.9482068767102L77.77570861023855,363.8886165930271L77.77570861023855,364.3736960539936L77.11824029251761,364.85876632868167L75.14583533935388,364.85876632868167L74.48836702163248,364.85876632868167L74.15963286277224,363.8886165930271L74.15963286277224,362.918430110356L74.48836702163248,362.918430110356L74.48836702163248,362.918430110356L74.81710118049341,362.4333230876473L75.14583533935388,362.4333230876473L75.47456949821435,361.9482068767102L75.47456949821435,361.4630814770244L75.14583533935388,360.49280310947506L75.14583533935388,358.552136087721L74.81710118049341,356.6113219906256L74.81710118049341,356.1260954821082L74.48836702163248,356.1260954821082L74.15963286277224,355.6408597789123L73.83089870391154,355.6408597789123L73.1734303861906,355.6408597789123L73.1734303861906,355.6408597789123L72.51596206846898,355.6408597789123L72.18722790960874,355.6408597789123L71.85849375074781,355.15561488051753L71.85849375074781,354.6703607864438L71.85849375074781,353.6998250092947L71.85849375074781,353.21454332519716L71.85849375074781,352.2439523635221L72.84469622732968,351.7586430849333L73.50216454505085,351.27332460719117L74.15963286277224,350.7879969298083L74.48836702163248,349.33195869474L74.48836702163248,347.3904455560514L74.81710118049341,345.44878515931487L74.48836702163248,344.96334704734545L74.81710118049341,344.4778997292524L72.84469622732968,345.44878515931487L70.214822956445,346.41963376692L68.5711521621422,346.41963376692L68.5711521621422,346.41963376692L65.9412788912573,344.96334704734545L65.61254473239683,344.4778997292524L64.95507641467543,343.02150253333457L64.62634225581496,341.5650224645142L64.62634225581496,341.5650224645142L64.95507641467543,341.0795106897276L66.59874720897847,338.6518136544546L67.58494968556033,337.6806703558141L69.22862047986314,337.1950848863671L69.22862047986314,337.1950848863671L69.22862047986314,336.70949020285843L69.22862047986314,336.22388630478963L69.22862047986314,335.73827319164775L68.89988632100267,335.252650862938L68.5711521621422,334.76701931819116L65.61254473239683,333.7957285784978L62.65393730265146,333.31006938256905L61.66773482606959,332.3387233360663L61.33900066720889,330.8816351222122L61.01026650834865,329.91019687777225L62.65393730265146,329.91019687777225L63.311405620372625,328.93872174718126L63.64013977923332,328.45297034833493L63.968873938093566,326.50987251765764L64.95507641467543,325.5382682541567L66.270013050118,324.08079266252025L66.270013050118,323.5949490109306L66.59874720897847,323.5949490109306L67.25621552669963,323.5949490109306L67.25621552669963,323.5949490109306L67.25621552669963,323.10909613133845L66.92748136783916,322.13736268609136L67.25621552669963,319.70786754782966L67.58494968556033,318.73600487198564L67.25621552669963,316.79216872028337L67.25621552669963,316.79216872028337L66.92748136783916,316.30618659610263L66.59874720897847,316.30618659610263L66.59874720897847,316.30618659610263L65.9412788912573,315.3341946407636L65.61254473239683,314.84818480859394L65.61254473239683,314.84818480859394L65.61254473239683,314.36216573942875L65.9412788912573,313.3900998881363L65.9412788912573,313.3900998881363L68.2424180032815,313.87613743278416L70.214822956445,316.30618659610263L71.52975959188757,317.76410526413747L71.85849375074781,318.25005968481855L72.18722790960874,318.73600487198564L72.84469622732968,317.76410526413747L75.14583533935388,315.3341946407636L74.48836702163248,314.36216573942875L73.50216454505085,312.90405310500864L72.84469622732968,311.93193182125833L72.84469622732968,311.93193182125833L74.48836702163248,310.959773577546L76.13203781593575,311.4458573196498L76.46077197479622,312.4179970828736L76.46077197479622,312.90405310500864L76.46077197479622,312.90405310500864L76.78950613365691,313.3900998881363L77.11824029251761,313.3900998881363L77.77570861023855,312.90405310500864L78.43317692795995,312.4179970828736L78.76191108682042,311.93193182125833L78.76191108682042,311.93193182125833L79.74811356340228,309.98757836988443L80.07684772226298,308.04307704671373L80.07684772226298,307.5569286072023L80.07684772226298,307.0707709232156L80.40558188112323,305.6122423993147L80.73431603998415,304.63984381844784L80.73431603998415,304.63984381844784L81.72051851656579,303.66740824767476L81.72051851656579,302.69493568293547L81.39178435770509,301.2361574634597L82.04925267542603,299.7772959851245L82.37798683428696,299.29099032138765L82.37798683428696,298.8046754046627L82.37798683428696,298.8046754046627L82.37798683428696,298.31835123444034L82.70672099314766,297.3456751315571L82.37798683428696,297.3456751315571L82.37798683428696,296.85932319787753L81.06305019884462,296.3729620087106L79.41937940454181,295.40021186192826L79.41937940454181,295.40021186192826L79.09064524568112,295.40021186192826L78.76191108682042,295.40021186192826L78.43317692795995,294.9138229033015L78.10444276909948,294.9138229033015L77.44697445137808,293.94101721308834L77.44697445137808,293.4546004805052L77.44697445137808,293.4546004805052L77.77570861023855,292.96817448892034L77.77570861023855,291.9952947267884L78.10444276909948,291.0223779226835L79.09064524568112,290.0494240725893L79.09064524568112,289.5629332540593L79.74811356340228,289.5629332540593L80.07684772226298,289.5629332540593L80.07684772226298,289.07643317252223L79.41937940454181,288.1034052184659L78.76191108682042,287.1303402064077L78.10444276909948,286.1572381323458L77.77570861023855,285.67067319580383L77.77570861023855,285.67067319580383L77.11824029251761,284.2109227821493L76.46077197479622,282.7510889519217L77.11824029251761,282.26445913581847L78.43317692795995,279.83117098754883L78.76191108682042,278.857790820588L79.09064524568112,277.39765101372177L80.40558188112323,276.91091919436803L83.36418931086882,275.937427727069L85.00786010517163,274.9638991516222L85.00786010517163,274.47712094708186L85.33659426403233,273.50353670188997L85.6653284228928,272.5299153385131L86.3227967406142,272.04309073624245L89.28140417035934,268.6350586227891L88.95267001149887,267.6612516082241L88.62393585263817,267.6612516082241L88.2952016937777,266.68740745136165L87.63773337605653,265.22657156546484L87.63773337605653,265.22657156546484L87.966467534917,264.739607694657L88.62393585263817,264.739607694657L90.2676066469412,263.27866034872204L90.2676066469412,261.33060049040796L90.59634080580167,260.84356229681L91.25380912352307,259.38239195835195L91.25380912352307,259.38239195835195L92.24001160010494,258.89531659130444L93.2262140766868,258.89531659130444L93.88368239440774,258.40823192962125L94.54115071212868,258.89531659130444L95.19861902985008,259.8694580312913L96.18482150643172,260.3565148106172L96.84228982415311,259.38239195835195L97.17102398301358,259.38239195835195L98.48596061845615,255.9726691842552L98.81469477731662,255.4855287442697L99.14342893617709,254.51121996933944L99.14342893617709,253.5368739978112L100.45836557161942,251.5880704488045L100.78709973048035,250.61361286326428L101.11583388934082,250.61361286326428L101.11583388934082,250.12637011596962L101.11583388934082,249.639118064988L101.44456804820129,248.66458604997388L101.77330220706199,247.6900168141692L101.11583388934082,245.7407666640829L100.78709973048035,245.25343085726126L101.11583388934082,244.76608574172133L101.44456804820129,244.27873131696106L102.10203636592269,243.3039945377168L102.75950468364385,242.32922051552669L103.0882388425041,241.3544092463344L103.74570716022572,239.40467495082703L104.40317547794666,237.45479161890034L105.71811211338877,235.0172278223581L109.00545370199507,235.50475921828547L109.33418786085554,235.50475921828547L109.66292201971623,235.50475921828547L110.64912449629787,235.50475921828547L110.64912449629787,235.50475921828547L109.99165617857693,234.52968710712594L109.99165617857693,232.09184372349773L109.99165617857693,231.11664111715436L109.99165617857693,230.6290258291956L109.99165617857693,229.16612402014653L109.66292201971623,227.21545771710953L109.66292201971623,226.7277678241153L109.99165617857693,225.75236005391343L109.99165617857693,225.26464217569082L110.64912449629787,224.2891784304884L110.3203903374374,223.31367736356697L109.33418786085554,222.33813897087384L109.66292201971623,221.36256324836359L109.99165617857693,221.36256324836359L110.3203903374374,220.8747613871601L110.64912449629787,220.8747613871601L110.64912449629787,220.8747613871601L110.97785865515857,220.8747613871601L111.63532697287974,220.8747613871601L111.63532697287974,221.36256324836359L111.96406113174021,220.8747613871601L112.29279529060113,220.8747613871601L112.6215294494616,220.8747613871601L112.6215294494616,220.8747613871601L112.95026360832208,220.38695019198713L112.95026360832208,220.38695019198713L113.278997767183,219.89912966234988L113.60773192604324,218.43561206149025L113.93646608490394,216.48412454699064L114.26520024376464,216.48412454699064L114.26520024376464,215.99622932331476L114.26520024376464,215.99622932331476L114.26520024376464,215.99622932331476L114.59393440262488,215.02041085837482L114.59393440262488,214.5324876160921L115.58013687920675,213.55661310938012L116.56633935578861,213.06866184392493L117.88127599123118,212.5807012364021L118.21001015009142,211.11676335640004L118.86747846781282,210.62876537554257L120.18241510325515,208.67668000108097L120.83988342097655,207.70058123610943L120.83988342097655,206.23636298010388L119.85368094439468,205.26017073114053L117.55254183237048,203.79581223011337L117.55254183237048,203.79581223011337L116.56633935578861,203.30767402705533L115.58013687920675,202.81952647180515L115.58013687920675,202.81952647180515L114.9226685614858,202.33136956383532L113.93646608490394,201.3550276877504L113.93646608490394,201.3550276877504L113.93646608490394,200.37864839474787L113.93646608490394,198.91400928963049L113.93646608490394,198.4257775417318L114.26520024376464,197.44928597361286L114.26520024376464,197.44928597361286L114.59393440262488,197.44928597361286L117.22380767350978,197.44928597361286L120.18241510325515,197.93753643656964L121.49735173869749,197.44928597361286L122.15482005641888,196.47275697233636L122.48355421527936,195.49619053384959L122.48355421527936,195.00789327437087L123.1410225330003,195.00789327437087L124.12722500958216,195.00789327437087L124.45595916844286,195.00789327437087L125.77089580388497,195.49619053384959L126.42836412160659,195.98447843299073L127.08583243932753,195.98447843299073L128.0720349159094,196.47275697233636L129.05823739249126,196.47275697233636L129.71570571021243,196.47275697233636L130.70190818679407,196.47275697233636L132.0168448222364,196.47275697233636L132.6743131399578,195.98447843299073L133.00304729881827,195.49619053384959L133.00304729881827,195.49619053384959L132.6743131399578,195.49619053384959L131.35937650451547,194.03127067244714L129.71570571021243,194.03127067244714L129.05823739249126,194.03127067244714L128.72950323363057,193.5429453289653L128.4007690747701,193.0546106231377L127.08583243932753,192.07791312241898L126.42836412160659,191.1011781661873L126.0996299627459,190.6127966410022L126.0996299627459,190.12440575041182L125.77089580388497,190.12440575041182L126.0996299627459,189.14759587101435L126.75709828046683,188.17074852392398L127.41456659818846,186.70540724250895L127.41456659818846,186.21694141045373L127.41456659818846,186.21694141045373L127.7433007570487,184.75148769243242L127.7433007570487,184.75148769243242L126.42836412160659,184.26298437745936L125.11342748616403,183.77447169046718L124.12722500958216,182.79741819845003L123.79849085072192,182.30887739239915L123.1410225330003,179.86603274142908L121.16861757983702,179.86603274142908L118.86747846781282,178.40021343595072L118.53874430895235,178.40021343595072L118.21001015009142,178.40021343595072L117.88127599123118,177.42295367594488L117.88127599123118,177.42295367594488L118.21001015009142,174.9796401323474L120.18241510325515,174.49094928066188L120.83988342097655,174.49094928066188L122.15482005641888,174.49094928066188L123.79849085072192,174.00224904678907L124.45595916844286,172.5360920470266L124.78469332730356,170.0923093562924L124.78469332730356,168.62592710478566L125.11342748616403,167.15946035868183L125.44216164502473,166.67061933101286L126.0996299627459,166.67061933101286L129.38697155135173,167.6482919965165L130.3731740279336,167.6482919965165L130.70190818679407,167.6482919965165L131.68811066337594,168.1371142450589L132.34557898109733,168.62592710478566L132.6743131399578,169.1147305762388L133.98924977540014,170.0923093562924L134.64671809312108,171.06985058930877L135.30418641084248,171.06985058930877L135.63292056970295,171.06985058930877L135.96165472856387,171.06985058930877L135.96165472856387,170.58108466592967L136.29038888742411,170.58108466592967L136.6191230462848,169.60352465990582L136.9478572051455,169.1147305762388L137.93405968172738,168.1371142450589L138.59152799944854,167.15946035868183L138.92026215830901,166.67061933101286L139.5777304760304,165.6929091041893L140.56393295261205,163.73737595027706L140.8926671114723,163.24846917961258L141.22140127033322,162.27062745607327L141.22140127033322,161.29274815286044L141.87886958805416,162.27062745607327L143.19380622349672,162.27062745607327L144.50874285893906,162.27062745607327L147.13861612982373,160.80379440759862L147.46735028868466,160.80379440759862L148.1248186064056,160.31483126588864L148.78228692412677,159.3368767910979L149.11102108298746,157.86987459279771L148.78228692412677,155.42468293198908L148.45355276526652,154.44654045681455L148.1248186064056,153.46836036931927L148.1248186064056,153.46836036931927L148.1248186064056,153.46836036931927L148.1248186064056,152.49014266539962L148.1248186064056,151.51188734099196L148.1248186064056,151.51188734099196L149.76848940070863,151.02274556982957L149.76848940070863,150.53359439199994L149.4397552418477,148.57689560393555L149.4397552418477,148.08769738516276L149.11102108298746,147.59848975666682L148.45355276526652,146.6200462684792L147.46735028868466,145.64156513527269L147.13861612982373,145.15231045051405L147.13861612982373,145.15231045051405L147.46735028868466,144.6630463529582L148.78228692412677,142.70589582464163L149.4397552418477,141.7272640704432L150.42595771842957,140.74859465079135L150.75469187729027,139.76988756157516L151.41216019501144,138.79114279869827L151.41216019501144,138.30175628835786L151.0834260361512,138.30175628835786L150.42595771842957,137.8123603580607L150.42595771842957,137.32295500732653L150.09722355956933,136.8335402356097L149.4397552418477,136.3441160423863L148.78228692412677,135.85468242719435L148.78228692412677,135.85468242719435L148.1248186064056,135.3652393894954L145.8236794943814,133.40737300333421L145.16621117666023,132.91788284540598L144.83747701779976,132.42838326190395L145.16621117666023,132.42838326190395L145.8236794943814,130.47029066183313L146.4811478121028,129.00162221809296L146.4811478121028,128.51204721150134L146.80988197096303,128.02246277471932L146.4811478121028,127.53286890724848L146.1524136532421,124.59510762890568L145.16621117666023,122.14671379199717L144.50874285893906,120.67756425170955L144.50874285893906,120.1878288621665L145.49494533552092,120.1878288621665L146.80988197096303,119.69808403372008L147.7960844475449,118.7185660580617L147.7960844475449,116.75941681728364L147.7960844475449,115.77978554398214L147.13861612982373,115.77978554398214L146.4811478121028,115.28995574228247L146.4811478121028,115.28995574228247L146.1524136532421,115.28995574228247L143.52254038235742,115.28995574228247L141.22140127033322,114.80011649654261L139.5777304760304,114.80011649654261L138.26279384058762,114.80011649654261L136.6191230462848,115.28995574228247L136.6191230462848,115.28995574228247L136.29038888742411,115.28995574228247L135.96165472856387,115.28995574228247L134.64671809312108,115.77978554398214L134.3179839342606,115.77978554398214L132.6743131399578,116.75941681728364L131.68811066337594,117.24921828994775L130.70190818679407,118.22879290981655L129.71570571021243,118.7185660580617L128.72950323363057,119.20832976586462L126.75709828046683,117.24921828994775L126.0996299627459,116.26960590213639L125.77089580388497,114.80011649654261L126.42836412160659,113.33054208998146L126.42836412160659,109.90120450414906L126.0996299627459,108.431346660891L125.77089580388497,106.9614037565807L125.77089580388497,106.4714038836064L125.77089580388497,106.4714038836064L126.0996299627459,105.98139455735509L126.75709828046683,105.4913757773138L127.41456659818846,105.00134754295141L127.41456659818846,104.02126270923327L127.08583243932753,103.53120610884434L126.42836412160659,102.55106453845292L126.0996299627459,102.06097956740996L125.77089580388497,101.57088513846611L124.78469332730356,101.57088513846611L124.12722500958216,101.57088513846611L123.1410225330003,102.55106453845292L123.1410225330003,102.55106453845292L122.48355421527936,102.55106453845292L121.82608589755819,102.55106453845292L121.16861757983702,102.06097956740996L120.51114926211585,102.06097956740996L120.51114926211585,102.06097956740996L120.51114926211585,100.59066790477664L121.82608589755819,99.61041283326267L122.81228837414005,99.12027110702911L125.11342748616403,97.64978916028485L126.0996299627459,97.15960958696814L126.42836412160659,96.66942055060281L128.0720349159094,95.19879665799817L128.0720349159094,94.21833340487137L128.4007690747701,93.23783228715911L128.4007690747701,92.74756752778922L129.05823739249126,91.76700960547532L129.71570571021243,90.78641380827321L130.04443986907313,90.2961017052985L130.70190818679407,89.80578013206468L131.35937650451547,89.31544908804062L131.68811066337594,89.31544908804062L133.66051561653944,88.825108572717L133.98924977540014,88.825108572717L134.64671809312108,88.825108572717L136.29038888742411,89.31544908804062L136.6191230462848,89.31544908804062L137.27659136400598,89.31544908804062L137.60532552286668,89.31544908804062L138.26279384058762,88.825108572717L138.92026215830901,88.825108572717L139.5777304760304,88.33475858559541L141.87886958805416,87.35403019382647L142.53633790577555,86.86365178817141L141.87886958805416,86.86365178817141L141.87886958805416,86.37326390863018L140.56393295261205,85.39245972588469L140.56393295261205,84.90204342164361L140.23519879375135,83.43073765121517L140.23519879375135,81.95934658343685L140.23519879375135,79.99735911758762L139.90646463489088,79.01630850014772L139.90646463489088,78.52576896851315L137.93405968172738,78.03521995422125L136.29038888742411,76.5635160103484L135.96165472856387,76.5635160103484L136.29038888742411,75.58233262510475L136.9478572051455,74.11048640289664L137.27659136400598,73.12920815252437L138.59152799944854,71.65721961325835L138.92026215830901,71.16653778779437L139.24899631716949,70.67584647193507L139.24899631716949,70.18514566516751L138.92026215830901,69.69443536699691L138.26279384058762,66.74997422916931L138.26279384058762,66.25919747657827L138.26279384058762,65.7684112284478L137.93405968172738,65.27761548424678L137.60532552286668,64.78681024344769L137.93405968172738,64.78681024344769L139.5777304760304,63.31433753635429L140.23519879375135,62.82349430402974L140.56393295261205,62.33264157254598L140.8926671114723,60.86002637785714L141.22140127033322,59.38732567198167L141.5501354291937,58.89640643179882L142.53633790577555,58.40547768829492L142.86507206463602,59.38732567198167L144.83747701779976,59.87823540938189L144.83747701779976,59.87823540938189L145.16621117666023,60.3691356444906L146.4811478121028,59.87823540938189L149.4397552418477,60.3691356444906L150.42595771842957,60.3691356444906L151.41216019501144,60.86002637785714L151.74089435387214,60.86002637785714L152.0696285127326,61.35090760996536L154.69950178361728,61.35090760996536L157.32937505450195,61.35090760996536L158.31557753108382,61.35090760996536L159.95924832538685,60.86002637785714L160.61671664310825,60.3691356444906L160.9454508019685,59.87823540938189L161.27418496082942,59.87823540938189L161.93165327855036,59.38732567198167L163.24658991399292,58.89640643179882L164.56152654943526,59.38732567198167L165.21899486715643,59.38732567198167L167.52013397918086,58.89640643179882L169.82127309120483,58.89640643179882L170.47874140892577,58.40547768829492L172.4511463620895,56.93263443274191L174.423551315253,55.95069140299893L175.73848795069534,55.95069140299893L176.7246904272772,55.459705628753L178.03962706271955,55.95069140299893L179.68329785702258,56.44166767081333L180.34076617474375,56.93263443274191L180.66950033360445,56.93263443274191L181.32696865132561,58.40547768829492L182.64190528676795,59.87823540938189L182.97063944562842,59.87823540938189L183.62810776334982,59.87823540938189L183.62810776334982,60.3691356444906L186.2579810342345,60.86002637785714L186.2579810342345,61.35090760996536L186.58671519309496,61.841779341357324L187.24418351081613,60.86002637785714L187.9016518285373,60.86002637785714L188.55912014625846,60.3691356444906L189.54532262284033,59.87823540938189L190.53152509942197,60.3691356444906L191.84646173486453,60.3691356444906L192.8326642114464,60.3691356444906L194.1476008468885,59.87823540938189L194.80506916461013,58.89640643179882L194.80506916461013,58.89640643179882L195.13380332347037,58.89640643179882L195.79127164119154,58.40547768829492L196.44873995891294,58.40547768829492L198.09241075321574,58.40547768829492L198.74987907093714,57.914539440957014L199.0786132297976,57.914539440957014L199.73608154751878,57.42359168929033L200.39354986523995,56.93263443274191L201.0510181829609,56.44166767081333L201.3797523418218,55.95069140299893L201.7084865006825,55.95069140299893L203.35215729498532,55.95069140299893L203.68089145384556,55.95069140299893L204.99582808928835,55.95069140299893L206.96823304245186,56.44166767081333L207.29696720131233,56.93263443274191L208.94063799561536,56.93263443274191L209.26937215447606,56.93263443274191L209.926840472197,56.44166767081333L212.22797958422143,55.459705628753L213.54291621966354,54.96871034758442L214.5291186962454,54.96871034758442L214.85785285510633,54.96871034758442L216.50152364940914,54.96871034758442L217.15899196713008,54.96871034758442L218.14519444371194,55.459705628753L219.78886523801498,55.95069140299893L221.432536032318,55.95069140299893L221.76127019117848,55.95069140299893L222.74747266776035,54.96871034758442L223.73367514434176,53.986691262354725L223.73367514434176,53.986691262354725L223.40494098548152,51.53147714165971L222.74747266776035,50.05823454046549L222.09000435003895,47.111492482996255L221.1038018734571,46.62033550467095L219.1313969202938,46.12916901010249L218.80266276143334,46.12916901010249L217.487726125991,44.16440785882514L217.15899196713008,43.67319377517197L217.15899196713008,42.1994944059079L216.50152364940914,41.21698055596062L216.1727894905482,40.72570934829855L215.84405533168774,39.74313836501824L215.84405533168774,39.25183858834862L215.51532117282727,38.269210462382034L215.84405533168774,36.79519683404942L216.1727894905482,37.28654423610715L218.4739286025724,37.777882112048246L219.46013107915428,37.777882112048246L220.44633355573615,37.777882112048246L220.77506771459684,36.79519683404942L222.09000435003895,34.33831691389787L222.41873850889965,33.35549824484042L223.73367514434176,32.8640746151832L224.06240930320268,32.37264145472L224.39114346206338,32.37264145472L225.04861177978455,32.37264145472L226.0348142563662,30.898284783430427L226.69228257408736,29.42384231635515L227.34975089180853,27.949314039437013L227.34975089180853,27.949314039437013L227.67848505066922,27.949314039437013L230.3083583215539,25.983142830678844L231.62329495699623,25.491576184624137L233.26696575129927,25.491576184624137L235.23937070446277,25.491576184624137L238.19797813420814,25.983142830678844L239.51291476965048,25.491576184624137L241.1565855639535,25.491576184624137L241.4853197228142,25L241.81405388167468,25L242.47152219939585,25L242.47152219939585,25.491576184624137L242.47152219939585,26.474699938662525L243.12899051711702,27.45778554251956L243.7864588348384,27.949314039437013L244.11519299369888,28.440833000357088L244.44392715255958,27.949314039437013L244.77266131141982,27.949314039437013L245.10139547028075,27.949314039437013L245.7588637880017,27.949314039437013L248.38873705888636,28.440833000357088L248.38873705888636,28.440833000357088L248.71747121774706,27.949314039437013L249.37493953546823,27.949314039437013L251.01861032977126,27.45778554251956L252.00481280635313,27.45778554251956L252.6622811240743,27.45778554251956L252.991015282935,27.949314039437013L254.6346860772378,28.93234242582548L254.9634202360985,29.42384231635515L254.9634202360985,29.915332672440854L255.29215439495897,30.406813494624657L255.29215439495897,31.389746539374755L255.29215439495897,31.881198762956046L256.60709103040153,30.898284783430427L258.25076182470434,29.915332672440854L260.2231667778681,32.8640746151832L260.55190093672854,32.8640746151832L260.880635095589,32.8640746151832L260.880635095589,32.8640746151832L261.2093692544497,32.37264145472L262.85304004875275,31.881198762956046L263.8392425253344,31.389746539374755L264.4967108430558,30.406813494624657L265.48291331963765,29.915332672440854L266.1403816373586,29.42384231635515L269.4277232259644,28.440833000357088L269.4277232259644,28.440833000357088L269.7564573848251,28.440833000357088L270.0851915436856,28.93234242582548L270.4139257025463,29.42384231635515L270.742659861407,29.42384231635515L271.07139402026746,30.406813494624657L272.0575964968493,31.389746539374755L274.03000145001283,33.35549824484042L275.67367224431587,34.82971195430582L277.3173430386187,35.32109746601782L276.65987472089773,35.81247344952135L276.3311405620368,35.81247344952135L276.65987472089773,35.81247344952135L277.97481135633984,36.30383990536939L278.63227967406124,36.30383990536939L279.6184821506431,36.79519683404942L280.60468462722474,36.79519683404942L281.2621529449459,37.28654423610715L281.9196212626671,37.777882112048246L283.5632920569699,37.777882112048246L285.20696285127315,38.269210462382034L285.8644311689941,38.269210462382034L288.82303859873946,37.777882112048246L290.4667093930425,37.777882112048246L291.78164602848506,37.28654423610715L292.76784850506647,37.28654423610715L296.05519009367254,36.79519683404942L299.0137975234177,36.30383990536939L299.0137975234177,36.30383990536939L299.0137975234177,36.30383990536939L299.0137975234177,36.30383990536939L299.0137975234177,36.79519683404942L299.3425316822786,36.79519683404942L299.3425316822786,36.79519683404942L299.99999999999955,37.777882112048246L300.32873415886047,38.76052928764693L300.32873415886047,39.74313836501824L300.32873415886047,40.72570934829855L300.6574683177207,41.708242241649714L301.64367079430235,42.690737049233576L303.2873415886056,43.67319377517197L303.9448099063268,44.16440785882514L305.5884807006298,45.14680747008242L305.9172148594903,45.6379929987379L305.9172148594903,46.12916901010249L305.2597465417691,46.62033550467095L304.60227822404795,47.111492482996255L302.95860742974514,47.60263994557317L302.6298732708842,47.60263994557317L300.6574683177207,48.584906325570046L299.99999999999955,50.549324919469655L298.68506336455744,53.49566745726406L298.35632920569674,54.47770555895113L298.02759504683604,53.986691262354725L298.02759504683604,54.47770555895113L297.6988608879758,55.95069140299893L298.35632920569674,57.914539440957014L298.35632920569674,57.914539440957014L299.99999999999955,57.914539440957014L302.6298732708842,58.40547768829492L303.2873415886056,58.40547768829492L304.93101238290865,58.89640643179882L305.5884807006298,58.89640643179882L305.5884807006298,59.38732567198167L305.5884807006298,59.87823540938189L305.5884807006298,59.87823540938189L305.9172148594903,59.87823540938189L306.245949018351,60.3691356444906L306.245949018351,60.3691356444906L307.889619812654,60.3691356444906L308.87582228923566,59.87823540938189L310.19075892467845,59.38732567198167L311.17696140125963,59.38732567198167L312.4918980367022,59.38732567198167L314.7930371487264,59.87823540938189L315.12177130758687,59.87823540938189L317.42291041961107,59.38732567198167L318.40911289619294,59.87823540938189L319.0665812139139,60.86002637785714L319.7240495316353,61.841779341357324L320.71025200821714,62.82349430402974L321.0389861670776,63.31433753635429L321.0389861670776,63.31433753635429L321.69645448479855,63.805171270021674L322.0251886436595,65.27761548424678L323.34012527910204,67.73149924974496L323.997593596823,68.71298629431476L324.3263277556837,69.20371557687395L323.6688594379623,70.18514566516751L322.0251886436595,72.14789194886544L321.0389861670776,73.61985202161668L319.7240495316353,74.60111129690267L318.08037873733247,77.05409347566092L317.42291041961107,78.03521995422125L316.10797378416873,78.52576896851315L314.7930371487264,79.50683854967065L312.8206321955631,80.97837181062278L312.1631638778415,81.95934658343685L312.1631638778415,81.95934658343685L312.1631638778415,83.43073765121517L312.4918980367022,83.92118238480907L312.8206321955631,84.90204342164361L313.47810051328406,85.88286655471893L313.80683467214453,85.88286655471893L316.10797378416873,87.35403019382647L316.76544210189013,87.84439912613016L317.42291041961107,88.825108572717L320.71025200821714,90.78641380827321L321.3677203259383,91.27671644148722L321.3677203259383,91.27671644148722L321.69645448479855,91.27671644148722L321.69645448479855,91.27671644148722L322.3539228025202,90.78641380827321L322.6826569613804,89.80578013206468L322.6826569613804,89.31544908804062L322.3539228025202,87.84439912613016L323.34012527910204,86.37326390863018L323.997593596823,84.90204342164361L325.3125302322653,82.94028344012258L325.9699985499867,81.95934658343685L325.9699985499867,81.46886393680688L325.3125302322653,80.48787020438976L325.9699985499867,80.48787020438976L326.95620102656835,79.50683854967065L327.6136693442895,79.50683854967065L327.9424035031502,79.01630850014772L330.5722767740349,79.01630850014772L332.2159475683377,78.52576896851315L333.53088420378026,78.03521995422125L334.5170866803621,78.03521995422125L334.84582083922237,78.52576896851315L336.4894916335254,79.01630850014772L336.8182257923861,79.50683854967065L336.8182257923861,79.50683854967065L336.8182257923861,79.99735911758762L336.8182257923861,79.99735911758762L336.8182257923861,80.48787020438976L337.1469599512468,80.97837181062278L337.1469599512468,80.97837181062278L337.47569411010727,81.46886393680688L337.47569411010727,81.95934658343685L337.47569411010727,82.44981975103292L338.13316242782867,83.43073765121517L338.46189658668914,83.92118238480907L339.448099063271,85.39245972588469L340.10556738099194,86.37326390863018L340.10556738099194,86.86365178817141L340.10556738099194,87.84439912613016L340.10556738099194,88.33475858559541L340.10556738099194,89.31544908804062L340.43430153985287,90.2961017052985L340.76303569871334,90.78641380827321L341.0917698575738,90.78641380827321L341.4205040164345,91.27671644148722L341.4205040164345,91.27671644148722L341.74923817529475,92.25729330072863L342.4067064930164,92.25729330072863L342.7354406518766,92.74756752778922L343.39290896959824,93.23783228715911L343.7216431284585,93.23783228715911L344.0503772873192,93.72808757934035L344.0503772873192,94.21833340487137L344.3791114461794,94.70856976425785L344.70784560504035,95.68901408663442L344.70784560504035,96.66942055060281L344.70784560504035,100.10054509899783L344.70784560504035,102.55106453845292L344.3791114461794,103.04114005209703L344.70784560504035,103.53120610884434L345.3653139227613,103.53120610884434L347.9951871936464,105.00134754295141L348.3239213525069,105.00134754295141L348.6526555113676,105.4913757773138L348.6526555113676,105.4913757773138L350.2963263056704,105.98139455735509L350.9537946233918,105.98139455735509L352.5974654176946,105.4913757773138L353.25493373541576,105.4913757773138L353.58366789427646,105.98139455735509L354.5698703708583,108.92130872585767L355.22733868857927,109.90120450414906L356.21354116516113,111.8608826685886L356.21354116516113,112.35077858934164L356.21354116516113,112.84066506296949L356.21354116516113,113.82040967091234L356.21354116516113,114.80011649654261L355.5560728474402,116.26960590213639L355.22733868857927,119.20832976586462L355.5560728474402,119.20832976586462L355.5560728474402,119.20832976586462L355.88480700630043,119.20832976586462L356.21354116516113,119.20832976586462L356.54227532402183,119.20832976586462L357.199743641743,119.20832976586462L357.199743641743,119.20832976586462L358.18594611832486,120.1878288621665L358.18594611832486,121.16729020284401L357.85721195946394,122.14671379199717L357.85721195946394,122.63641143104542L359.5008827537672,123.12609963373325L360.15835107148814,123.12609963373325L361.14455354807,123.12609963373325L361.8020218657914,123.61577840061L362.45949018351257,123.61577840061L363.4456926600942,124.1054477321668L363.4456926600942,124.1054477321668L363.11695850123374,126.06403071546447L363.11695850123374,126.55365287813402L363.4456926600942,126.06403071546447L363.4456926600942,126.06403071546447L365.7468317721184,128.02246277471932L366.40430008983935,128.51204721150134L366.40430008983935,129.00162221809296L365.7468317721184,129.98074394274227L365.4180976132575,132.91788284540598L365.08936345439724,135.3652393894954L364.76062929553655,135.85468242719435L364.4318951366761,136.3441160423863L363.7744268189547,136.8335402356097L363.4456926600942,137.32295500732653L362.45949018351257,137.8123603580607L361.8020218657914,138.30175628835786L360.81581938920954,138.79114279869827L359.5008827537672,139.28051988959487L356.8710094828823,140.74859465079135L355.88480700630043,141.23793406906407L355.22733868857927,141.7272640704432L355.22733868857927,142.2165846554708L354.2411362119974,143.1951975784541L353.91240205313716,143.1951975784541L353.58366789427646,143.1951975784541L352.5974654176946,144.17377284209942L349.6388579879492,145.15231045051405L349.6388579879492,145.15231045051405L347.6664530347857,146.6200462684792L345.6940480816222,147.10927271794935L343.39290896959824,148.08769738516276L342.4067064930164,148.57689560393555L341.4205040164345,149.55526381434538L341.4205040164345,149.55526381434538L342.7354406518766,152.49014266539962L341.74923817529475,154.44654045681455L341.0917698575738,154.44654045681455L341.0917698575738,154.44654045681455L344.0503772873192,156.40278779893197L345.6940480816222,157.38085506168864L347.00898471706455,156.8918261305771L348.6526555113676,156.8918261305771L349.31012382908875,156.8918261305771L349.31012382908875,156.40278779893197L349.9675921468099,155.913740066233L350.9537946233918,155.42468293198908L351.93999709997365,155.42468293198908L354.2411362119974,156.40278779893197L354.89860452971857,156.8918261305771L354.89860452971857,157.38085506168864L354.89860452971857,157.86987459279771L354.89860452971857,158.84788545698757L355.22733868857927,160.80379440759862L355.88480700630043,162.75955301503927L356.54227532402183,165.20403990400882L356.8710094828823,165.6929091041893L357.199743641743,166.67061933101286L357.199743641743,167.15946035868183L357.199743641743,167.6482919965165L356.21354116516113,169.1147305762388L355.5560728474402,169.60352465990582L354.89860452971857,170.0923093562924L354.89860452971857,170.0923093562924L354.2411362119974,171.06985058930877L354.89860452971857,171.06985058930877L355.22733868857927,171.06985058930877L355.5560728474402,170.58108466592967L356.21354116516113,170.58108466592967L356.8710094828823,170.0923093562924L358.18594611832486,170.0923093562924L358.51468027718533,171.06985058930877L358.51468027718533,171.55860712693539L358.8434144360458,171.55860712693539L359.17214859490673,172.04735427932974L359.17214859490673,172.5360920470266L359.17214859490673,173.02482043048076L358.8434144360458,173.51353943022696L358.18594611832486,174.49094928066188L357.52847780060347,174.9796401323474L356.8710094828823,175.46832160237682L356.21354116516113,176.4456563994463L356.21354116516113,177.42295367594488L356.21354116516113,177.91158824526065L356.54227532402183,177.91158824526065L356.8710094828823,178.8888292485426L357.199743641743,178.8888292485426L357.199743641743,179.37743568353835L357.199743641743,179.86603274142908L357.199743641743,179.86603274142908L356.8710094828823,180.35462042275685L356.54227532402183,180.84319872800916L356.21354116516113,181.3317676576844L355.22733868857927,181.820327212321L354.2411362119974,182.30887739239915L354.2411362119974,182.79741819845003L354.2411362119974,182.79741819845003L353.91240205313716,183.28594963096475L353.25493373541576,183.77447169046718L353.25493373541576,183.77447169046718L353.25493373541576,185.72846620843484L353.25493373541576,186.21694141045373L353.58366789427646,186.70540724250895L355.22733868857927,188.65917688118498L358.51468027718533,191.1011781661873L359.17214859490673,191.1011781661873L359.17214859490673,191.58955032649465L359.17214859490673,192.07791312241898L359.17214859490673,192.07791312241898L358.18594611832486,193.0546106231377L358.18594611832486,193.5429453289653L358.18594611832486,193.5429453289653L358.18594611832486,194.03127067244714L358.18594611832486,194.03127067244714L358.51468027718533,194.03127067244714L360.48708523034907,193.5429453289653L362.45949018351257,193.0546106231377L365.4180976132575,193.0546106231377L367.3905025664212,191.58955032649465L369.03417336072425,190.12440575041182L369.03417336072425,189.14759587101435L369.6916416784454,187.19386370509528L369.6916416784454,187.19386370509528L369.6916416784454,186.70540724250895L370.0203758373061,186.70540724250895L371.33531247274846,185.72846620843484L372.3215149493301,185.72846620843484L373.30771742591196,185.23998163592842L374.6226540613545,184.75148769243242L375.28012237907546,184.26298437745936L376.9237931733783,182.79741819845003L377.90999564996014,182.30887739239915L378.23872980882106,182.79741819845003L379.2249322854027,185.23998163592842L377.90999564996014,188.65917688118498L377.90999564996014,188.65917688118498L377.90999564996014,189.63600549391413L377.90999564996014,190.6127966410022L379.2249322854027,191.1011781661873L379.88240060312387,191.1011781661873L380.5398689208448,191.1011781661873L381.1973372385662,190.6127966410022L382.1835397151481,190.6127966410022L383.16974219172994,190.12440575041182L384.1559446683116,190.12440575041182L386.45708378033555,189.14759587101435L387.1145520980572,188.65917688118498L387.7720204157781,189.14759587101435L387.7720204157781,189.14759587101435L388.4294887334993,189.63600549391413L388.10075457463836,190.12440575041182L387.4432862569174,191.58955032649465L387.1145520980572,191.58955032649465L386.1283496214753,192.5662665544587L385.7996154626146,193.5429453289653L385.4708813037537,195.00789327437087L384.1559446683116,197.44928597361286L383.8272105094509,199.40223168075318L385.14214714489344,200.86684271861304L387.4432862569174,202.81952647180515L388.10075457463836,202.81952647180515L388.75822289236,203.30767402705533L388.75822289236,203.30767402705533L390.7306278455235,204.28394108146676L391.05936200438396,204.77206058163938L391.7168303221051,204.28394108146676L392.703032798687,204.28394108146676L394.3467035929898,205.7482715304468L395.0041719107112,206.72444508059561L396.31910854615353,207.70058123610943L396.6478427050142,207.70058123610943L397.6340451815961,207.70058123610943L399.2777159758989,207.70058123610943L400.26391845248077,207.21251783242406L400.92138677020193,207.21251783242406L401.9075892467838,206.72444508059561L402.56505756450474,207.21251783242406L402.56505756450474,207.70058123610943L402.23632340564427,208.67668000108097L402.23632340564427,209.16471536336394L402.23632340564427,209.16471536336394L404.2087283588078,211.60475199315988L404.5374625176685,211.60475199315988L405.19493083538964,211.60475199315988L405.8523991531108,211.11676335640004L406.83860162969245,210.62876537554257L406.83860162969245,212.09273128632412L407.16733578855315,211.60475199315988L408.4822724239955,212.09273128632412L409.4684749005771,212.5807012364021L410.7834115360197,212.09273128632412L412.098348171462,211.11676335640004L413.74201896576506,210.14075805009998L414.7282214423469,208.67668000108097L415.71442391892833,207.70058123610943L416.7006263955102,206.72444508059561L417.02936055437067,205.7482715304468L418.34429718981346,204.28394108146676L419.3304996663951,203.30767402705533L419.3304996663951,203.30767402705533L419.65923382525557,202.81952647180515L419.65923382525557,202.81952647180515L420.6454363018372,200.37864839474787L420.97417046069813,199.40223168075318L421.3029046195586,198.4257775417318L420.97417046069813,197.93753643656964L420.97417046069813,197.93753643656964L421.3029046195586,197.44928597361286L421.3029046195586,197.44928597361286L421.6316387784191,196.9610261523776L424.5902462081647,196.47275697233636L426.89138532018865,196.47275697233636L427.22011947904934,197.44928597361286L427.22011947904934,197.44928597361286L426.89138532018865,197.93753643656964L426.89138532018865,198.4257775417318L426.2339170024675,202.33136956383532L425.2477145258856,203.79581223011337L425.5764486847463,206.23636298010388L425.5764486847463,209.16471536336394L425.5764486847463,209.6527413795411L425.2477145258856,209.6527413795411L425.2477145258856,210.14075805009998L425.2477145258856,210.14075805009998L425.5764486847463,210.62876537554257L425.5764486847463,210.62876537554257L425.905182843607,211.11676335640004L427.5488536379098,211.60475199315988L428.5350561144917,211.60475199315988L429.1925244322126,211.60475199315988L430.1787269087945,211.60475199315988L430.1787269087945,211.60475199315988L430.5074610676552,211.60475199315988L431.16492938537635,212.5807012364021L433.13733433853986,214.04455503325516L434.7810051328429,214.5324876160921L434.7810051328429,214.5324876160921L437.73961256258826,215.50832476060532L438.06834672144873,215.99622932331476L439.0545491980306,216.97201043212772L439.3832833568913,217.4598869792644L440.04075167461247,218.92346059759439L441.02695415119433,220.38695019198713L441.6844224689153,220.38695019198713L442.34189078663644,220.8747613871601L443.9855615809397,222.33813897087384L445.3004982163818,224.2891784304884L446.2867006929637,227.21545771710953L446.2867006929637,227.70313828271173L446.94416901068485,228.19080952140212L446.94416901068485,228.19080952140212L447.601637328406,227.70313828271173L448.2591056461272,227.21545771710953L450.2315105992907,225.26464217569082L450.8889789170123,225.26464217569082L452.2039155524544,224.77691496806074L452.5326497113151,224.77691496806074L452.86138387017536,224.77691496806074L453.518852187897,225.26464217569082L452.2039155524544,227.21545771710953L449.24530812270905,233.0670090404492L446.6154348518244,237.45479161890034L448.5878398049879,239.40467495082703L449.90277644043044,240.86698964286188L450.2315105992907,241.3544092463344L450.2315105992907,241.84181953706502L451.21771307587255,245.25343085726126L451.54644723473325,247.2027182372185L451.54644723473325,247.2027182372185L452.5326497113151,247.2027182372185L452.5326497113151,247.2027182372185L452.86138387017536,247.2027182372185L453.8475863467572,246.22809316266648L455.81999129992073,245.25343085726126L457.463662094224,245.25343085726126L459.43606704738727,244.76608574172133L459.76480120624774,244.76608574172133L459.76480120624774,244.76608574172133L459.76480120624774,244.27873131696106L459.76480120624774,243.7913675824566L459.76480120624774,241.84181953706502L460.09353536510866,240.86698964286188L462.06594031827217,238.42975191643927L462.39467447713264,238.42975191643927L462.72340863599334,237.94227642581245L463.3808769537143,237.94227642581245L464.69581358915707,236.9672974952082L465.353281906878,236.47979405419755L466.0107502245994,235.50475921828547L466.6682185423206,234.0421370720578L466.99695270118104,233.55457771667716L467.32568686004174,233.55457771667716L467.6544210189022,233.0670090404492L468.3118893366234,233.0670090404492L468.96935765434455,232.57943104290098L469.9555601309264,232.57943104290098L470.2842942897869,232.57943104290098L470.94176260750805,233.0670090404492L471.59923092522945,233.0670090404492L471.9279650840899,232.57943104290098L472.2566992429506,232.57943104290098L472.5854334018113,231.6042470817447L472.91416756067156,231.11664111715436L473.24290171953226,231.11664111715436L473.24290171953226,230.6290258291956L473.5716358783932,230.6290258291956L474.2291041961141,230.14140121737728L475.215306672696,230.14140121737728L477.51644578471996,230.6290258291956L479.48885073788347,231.11664111715436L481.4612556910472,233.0670090404492L481.78998984990767,234.0421370720578L481.4612556910472,235.50475921828547L480.8037873733258,236.9672974952082L482.77619232648954,238.42975191643927L485.07733143851397,240.37956072611632L485.4060655973742,240.37956072611632L485.4060655973742,239.89212249559932L485.4060655973742,239.89212249559932L485.4060655973742,239.40467495082703L485.7347997562349,238.91721809126466L485.7347997562349,238.91721809126466L485.7347997562349,238.91721809126466L487.049736391677,237.94227642581245L487.70720470939864,236.47979405419755L488.6934071859803,234.52968710712594L489.02214134484075,233.55457771667716L490.3370779802833,233.55457771667716L490.99454629800425,234.0421370720578L491.32328045686495,234.0421370720578L491.32328045686495,234.0421370720578L491.32328045686495,234.0421370720578L493.9531537277496,235.0172278223581L495.59682452205243,237.45479161890034L495.59682452205243,237.45479161890034L495.59682452205243,237.94227642581245L495.9255586809131,237.94227642581245L496.25429283977405,238.42975191643927L496.5830269986343,238.91721809126466L496.5830269986343,238.91721809126466L496.911761157495,238.91721809126466L498.5554319517978,238.42975191643927L499.8703685872406,237.45479161890034L499.8703685872406,237.45479161890034L500.19910274610106,236.9672974952082L500.52783690496153,235.9922812954028L501.1853052226829,235.0172278223581L501.5140393815434,234.0421370720578L501.84277354040387,233.55457771667716L501.84277354040387,233.0670090404492L502.82897601698573,230.6290258291956L503.8151784935676,229.16612402014653L505.13011512900994,227.21545771710953L505.4588492878704,225.26464217569082L505.7875834467311,224.2891784304884L505.7875834467311,223.80143256248994L506.11631760559135,223.31367736356697L507.1025200821732,221.85035577609233L507.75998839989484,220.8747613871601L508.4174567176158,220.38695019198713L508.4174567176158,220.38695019198713L508.7461908764765,220.38695019198713L509.7323933530581,220.8747613871601L510.3898616707795,220.8747613871601L512.0335324650823,221.36256324836359L513.0197349416642,221.36256324836359L513.3484691005247,221.36256324836359L513.6772032593854,221.36256324836359L514.0059374182458,221.85035577609233L514.663405735967,222.82591283318834L514.9921398948277,223.31367736356697L516.3070765302703,225.26464217569082L517.6220131657124,226.7277678241153L518.9369498011549,227.70313828271173L519.2656839600154,228.19080952140212L520.251886436597,228.67847143370818L521.5668230720396,229.65376728120464L521.5668230720396,229.65376728120464L522.2242913897605,230.6290258291956L522.8817597074819,231.11664111715436L522.8817597074819,231.6042470817447L523.2104938663424,232.09184372349773L523.2104938663424,232.09184372349773L523.2104938663424,231.6042470817447L525.5116329783666,231.6042470817447L525.5116329783666,232.57943104290098L525.8403671372273,234.0421370720578L526.169101296088,235.50475921828547L526.169101296088,236.47979405419755L526.169101296088,236.9672974952082L526.8265696138092,238.91721809126466L526.8265696138092,239.89212249559932L527.1553037726694,240.86698964286188L527.4840379315303,242.32922051552669L527.4840379315303,243.3039945377168L527.4840379315303,244.27873131696106L527.4840379315303,244.76608574172133L528.1415062492513,245.7407666640829L528.470240408112,248.66458604997388L528.1415062492513,250.61361286326428L526.4978354549485,252.56249082563954L526.169101296088,252.56249082563954L526.169101296088,253.04968706206273L526.169101296088,253.5368739978112L527.4840379315303,254.02405163340882L528.470240408112,254.02405163340882L528.7989745669729,254.02405163340882L529.1277087258331,254.02405163340882L529.7851770435541,254.02405163340882L529.7851770435541,254.51121996933944L530.113911202415,255.4855287442697L530.771379520136,256.45980032660736L531.4288478378576,256.9469221718173L531.4288478378576,256.9469221718173L531.7575819967178,257.9211379728222L531.7575819967178,258.40823192962125L531.7575819967178,260.84356229681L531.7575819967178,261.817629391895L531.7575819967178,262.3046490017623L531.7575819967178,263.27866034872204L531.1001136789966,264.739607694657L529.7851770435541,267.17433417282155L529.7851770435541,267.6612516082241L529.1277087258331,268.6350586227891L528.1415062492513,271.5562568529349L528.1415062492513,271.5562568529349L527.4840379315303,271.5562568529349L527.1553037726694,272.04309073624245L526.4978354549485,271.5562568529349L524.8541646606454,271.5562568529349L523.5392280252031,271.5562568529349L523.5392280252031,271.5562568529349L523.2104938663424,272.04309073624245L522.2242913897605,274.9638991516222L521.5668230720396,275.937427727069L520.251886436597,278.3710868263297L519.9231522777368,278.857790820588L518.9369498011549,279.83117098754883L517.6220131657124,281.291171691566L517.6220131657124,281.291171691566L517.6220131657124,281.7778200491957L516.9645448479912,282.7510889519217L515.9783423714093,285.67067319580383L515.6496082125489,286.6437938023737L515.3208740536884,286.6437938023737L514.663405735967,286.6437938023737L514.0059374182458,287.1303402064077L513.3484691005247,287.61687734494626L512.6910007828035,288.5899238275015L511.7047983062216,289.5629332540593L511.7047983062216,288.5899238275015L510.0611275119188,286.1572381323458L508.7461908764765,286.1572381323458L507.1025200821732,286.1572381323458L505.7875834467311,286.1572381323458L504.80138097014947,286.1572381323458L502.17150769926457,286.1572381323458L501.1853052226829,286.1572381323458L499.54163442837967,285.184098992253L499.54163442837967,285.184098992253L498.8841661106587,286.6437938023737L497.56922947521616,289.5629332540593L496.911761157495,290.0494240725893L496.911761157495,290.53590562863246L496.5830269986343,291.0223779226835L496.25429283977405,291.9952947267884L495.9255586809131,292.96817448892034L495.9255586809131,293.4546004805052L495.59682452205243,293.94101721308834L495.9255586809131,293.94101721308834L496.911761157495,293.94101721308834L498.22669779293733,294.42742468719734L499.8703685872406,295.40021186192826L500.52783690496153,295.40021186192826L501.5140393815434,295.8865915635688L502.50024185812526,295.8865915635688L500.856571063822,296.85932319787753L499.8703685872406,297.8320178102367L498.22669779293733,298.8046754046627L496.5830269986343,299.7772959851245L494.9393562043315,300.2635923963935L493.29568541002845,301.2361574634597L493.29568541002845,301.2361574634597L493.29568541002845,301.2361574634597L492.96695125116776,301.7224261202755L492.3094829334466,302.20868552660613L491.9807487745861,301.7224261202755L490.99454629800425,301.2361574634597L490.3370779802833,301.2361574634597L490.0083438214226,300.74987955567485L489.6796096625619,300.74987955567485L489.6796096625619,300.74987955567485L489.35087550370145,300.74987955567485L489.35087550370145,300.74987955567485L489.02214134484075,301.7224261202755L489.35087550370145,302.20868552660613L490.0083438214226,302.69493568293547L491.65201461572565,304.15363065705606L492.6382170923075,304.63984381844784L493.9531537277496,304.15363065705606L494.610622045471,304.15363065705606L494.610622045471,304.15363065705606L494.9393562043315,304.15363065705606L495.2680903631922,304.63984381844784L495.2680903631922,304.63984381844784L494.610622045471,306.0984278197575L493.29568541002845,307.5569286072023L492.96695125116776,308.04307704671373L493.29568541002845,308.5292162422338L493.29568541002845,308.5292162422338L493.6244195688894,308.5292162422338L493.9531537277496,308.5292162422338L494.9393562043315,308.04307704671373L496.25429283977405,307.5569286072023L497.2404953163559,306.58460399422984L499.2129002695192,305.126047732374L501.1853052226829,303.66740824767476L502.17150769926457,303.1811765897837L503.15771017584643,303.1811765897837L503.15771017584643,303.1811765897837L503.8151784935676,303.66740824767476L504.14391265242807,304.15363065705606L504.47264681128854,304.15363065705606L505.13011512900994,305.126047732374L504.80138097014947,306.0984278197575L504.80138097014947,307.0707709232156L505.7875834467311,309.0153461942755L508.4174567176158,309.50146690332986L510.0611275119188,309.50146690332986L511.04732998850045,309.0153461942755L511.7047983062216,309.0153461942755L511.7047983062216,308.5292162422338L512.0335324650823,308.5292162422338L512.6910007828035,308.5292162422338L512.6910007828035,309.0153461942755L513.0197349416642,309.50146690332986L513.3484691005247,310.4736805944631L513.3484691005247,310.4736805944631L513.3484691005247,310.959773577546L513.3484691005247,310.959773577546L513.0197349416642,311.4458573196498L512.6910007828035,311.93193182125833L512.3622666239428,311.93193182125833L512.3622666239428,311.93193182125833L512.0335324650823,311.93193182125833L511.37606414736115,312.90405310500864L511.04732998850045,313.3900998881363L510.71859582964,313.87613743278416L510.3898616707795,315.3341946407636L510.0611275119188,315.82019523642157L510.0611275119188,316.30618659610263L510.0611275119188,317.27814160945127L510.0611275119188,320.6796932956531L510.0611275119188,322.13736268609136L509.7323933530581,323.10909613133845L510.0611275119188,323.10909613133845L511.04732998850045,325.5382682541567L511.37606414736115,326.50987251765764L513.3484691005247,329.4244639234894L513.6772032593854,329.4244639234894L514.3346715771065,329.91019687777225L514.3346715771065,329.91019687777225L514.663405735967,330.8816351222122L514.3346715771065,331.36734041337695L514.3346715771065,331.36734041337695L514.3346715771065,331.36734041337695L514.3346715771065,331.36734041337695L514.0059374182458,331.36734041337695L514.0059374182458,331.36734041337695L513.3484691005247,330.8816351222122L512.0335324650823,331.85303648448826L511.7047983062216,331.85303648448826L511.7047983062216,331.85303648448826L511.37606414736115,332.8244009685877L511.37606414736115,333.7957285784978L510.3898616707795,336.70949020285843L510.71859582964,336.70949020285843L511.04732998850045,336.70949020285843L511.37606414736115,336.70949020285843L512.6910007828035,336.70949020285843L514.663405735967,339.13737148468863L516.6358106891305,340.5939897048411L516.9645448479912,341.0795106897276L516.9645448479912,341.0795106897276L517.2932790068521,341.0795106897276L518.608215642294,340.10845950936346L519.9231522777368,339.62292010281817L520.9093547543184,339.13737148468863L521.8955572309001,338.16624661167225L522.8817597074819,337.1950848863671L523.5392280252031,336.22388630478963L523.5392280252031,336.22388630478963L523.8679621840638,336.22388630478963L524.1966963429243,336.22388630478963L524.8541646606454,335.73827319164775L526.8265696138092,336.22388630478963L528.1415062492513,337.1950848863671L528.470240408112,337.6806703558141L529.1277087258331,337.6806703558141L530.113911202415,337.6806703558141L530.771379520136,338.16624661167225L531.7575819967178,338.6518136544546L532.0863161555785,338.6518136544546L531.4288478378576,339.13737148468863L531.4288478378576,339.13737148468863L531.1001136789966,339.62292010281817L530.4426453612757,341.0795106897276L530.4426453612757,341.5650224645142L530.4426453612757,342.536018385832L531.1001136789966,344.4778997292524L531.1001136789966,344.4778997292524L531.1001136789966,344.96334704734545L530.771379520136,345.44878515931487L530.113911202415,345.9342140656845L530.113911202415,345.9342140656845L530.113911202415,346.41963376692L530.113911202415,346.9050442635489L529.1277087258331,349.33195869474L528.7989745669729,351.7586430849333L528.7989745669729,352.72925244343423L529.1277087258331,354.6703607864438L529.4564428846938,355.6408597789123L529.7851770435541,356.1260954821082L530.771379520136,359.5224879810303L531.1001136789966,360.0076501406038L531.1001136789966,360.49280310947506L531.1001136789966,361.4630814770244L531.1001136789966,361.9482068767102L531.1001136789966,362.918430110356L530.4426453612757,365.828879321296L530.113911202415,366.7989555748427L529.4564428846938,368.2540010780285L529.1277087258331,368.73899788051494L528.7989745669729,368.73899788051494L528.1415062492513,368.73899788051494L527.812772090391,368.73899788051494L527.4840379315303,368.73899788051494L527.1553037726694,368.2540010780285L526.8265696138092,368.2540010780285L525.8403671372273,367.2839799256835L524.8541646606454,367.2839799256835L524.1966963429243,370.193933199178L524.1966963429243,370.193933199178L524.5254305017847,370.193933199178L524.5254305017847,371.1638441758987L523.8679621840638,372.61864179731856L523.5392280252031,373.10355598146634L523.5392280252031,373.5884609882596L524.5254305017847,374.55824347183443L525.1828988195061,375.04312094958004L526.169101296088,375.5279892519611L526.169101296088,375.5279892519611L526.4978354549485,375.5279892519611L526.4978354549485,375.04312094958004L526.4978354549485,374.55824347183443L527.4840379315303,374.0733568182077L528.470240408112,374.0733568182077L530.4426453612757,374.55824347183443L532.415050314439,375.04312094958004L533.4012527910209,375.5279892519611L534.3874552676027,376.497698332656L534.058721108742,376.9825391119339L534.3874552676027,377.4673707178372L534.3874552676027,377.95219315085706L534.7161894264632,377.95219315085706L535.0449235853239,377.95219315085706L535.3736577441846,377.95219315085706L535.702391903045,377.95219315085706L535.702391903045,377.95219315085706L536.0311260619055,377.4673707178372L536.3598602207664,377.4673707178372L536.3598602207664,377.4673707178372L536.6885943796267,377.95219315085706L537.0173285384874,377.95219315085706L537.3460626973483,377.95219315085706L538.0035310150693,378.921810500211L538.0035310150693,378.921810500211L538.0035310150693,379.40660541753095L538.0035310150693,379.40660541753095L538.33226517393,379.89139116395745L538.33226517393,379.89139116395745L538.6609993327902,379.89139116395745L538.6609993327902,379.89139116395745L538.9897334916511,379.89139116395745L538.9897334916511,379.89139116395745L538.9897334916511,380.3761677399707L538.6609993327902,380.86093514605454L537.3460626973483,382.79991308114404L535.702391903045,384.7387443371008L535.3736577441846,385.7081049702974L535.0449235853239,387.16207718773876L534.3874552676027,388.6159669382141L534.3874552676027,389.1005785313537L534.3874552676027,389.5851809634587L534.3874552676027,389.5851809634587L534.3874552676027,389.5851809634587L534.3874552676027,389.5851809634587L532.7437844732997,388.6159669382141L531.7575819967178,388.13134618355616L530.113911202415,387.6467162669069L528.7989745669729,387.16207718773876L529.1277087258331,389.1005785313537L528.7989745669729,391.52349909158875L528.7989745669729,393.9461906880824L528.7989745669729,395.3996957690215L528.7989745669729,395.8841791528175L528.7989745669729,397.8220211518201L528.470240408112,398.7908872365588L528.470240408112,399.2753065519428L527.4840379315303,400.72850959618154L527.1553037726694,401.2128923119162L526.8265696138092,401.6972658789746L526.169101296088,403.1503316929884L526.169101296088,403.63466867024545L526.8265696138092,404.11899650129635L527.812772090391,405.0876247267079L528.1415062492513,405.57192512206893L528.1415062492513,406.0562163731702L528.1415062492513,406.54049848053546L528.1415062492513,406.54049848053546L527.4840379315303,408.4775354823214L527.1553037726694,411.3828167561842L527.812772090391,411.86699831479564L527.4840379315303,411.86699831479564L527.4840379315303,412.3511707355574L527.1553037726694,412.3511707355574L526.169101296088,412.3511707355574L525.5116329783666,413.803633175743L524.1966963429243,415.2560133930856L524.1966963429243,416.22422119852126L524.8541646606454,417.19239247031874L525.5116329783666,418.64458088604806L525.8403671372273,420.096687123234L526.169101296088,421.06471229982344L526.4978354549485,421.5487111951479L526.169101296088,422.03270096245615L525.5116329783666,422.03270096245615L525.1828988195061,422.516681602272L524.8541646606454,422.516681602272L524.1966963429243,422.516681602272L524.1966963429243,422.516681602272L523.8679621840638,422.516681602272L523.8679621840638,423.0006531150684L523.8679621840638,423.0006531150684L523.8679621840638,423.4846155013329L524.1966963429243,423.9685687615747L524.1966963429243,423.9685687615747L522.5530255486215,424.936447905915L521.8955572309001,426.38819818948105L520.9093547543184,426.87209670384254L517.6220131657124,428.323737513354L515.9783423714093,428.8075995403051L514.9921398948277,430.25913089933965L514.9921398948277,430.7429564467311L515.6496082125489,431.7105801860089L516.6358106891305,432.6781674545782L516.9645448479912,433.16194741355866L517.2932790068521,433.64571825634266L517.2932790068521,433.64571825634266L518.608215642294,434.61323259524215L519.2656839600154,436.0644357443234L519.2656839600154,436.54815190016234L519.2656839600154,438.4829254007491L518.608215642294,440.90118728696325L518.2794814834338,442.35203511449436L517.6220131657124,444.2863713904226L517.2932790068521,446.22056198756763L516.9645448479912,446.70408687822055L516.6358106891305,447.6711093525919L516.3070765302703,448.6380954209999L515.9783423714093,449.60504508734084L514.9921398948277,450.08850627096035L514.663405735967,450.08850627096035L513.6772032593854,451.05540134156035L513.0197349416642,451.5388352295231L512.3622666239428,452.98908230991583L512.3622666239428,453.4724798105126L512.6910007828035,453.9558682154893L512.6910007828035,454.4392475253444L512.6910007828035,456.8560076648246L512.0335324650823,458.3059546383083L510.71859582964,458.7892521140275L509.40365919419764,460.2390900017672L509.40365919419764,460.7223511194861L509.07492503533695,460.7223511194861L508.7461908764765,461.205603148941L507.75998839989484,461.205603148941L506.77378592331297,461.6888460906048L504.80138097014947,462.6553047125162L504.47264681128854,462.6553047125162L504.47264681128854,462.6553047125162L503.8151784935676,465.0712922652201L503.4864443347067,465.55446252216643L502.82897601698573,467.00391879465315L502.82897601698573,468.93640001332824L503.4864443347067,468.93640001332824L503.8151784935676,468.93640001332824L503.8151784935676,469.4194976168583L503.4864443347067,469.90258614089544L503.4864443347067,471.35179724103364L503.15771017584643,472.31789258600475L502.17150769926457,473.28395162478046L500.52783690496153,474.7329721173628L500.19910274610106,474.7329721173628L499.8703685872406,475.21596079936353L499.54163442837967,475.6989404077249L499.2129002695192,475.6989404077249L499.2129002695192,477.14782479598944L499.2129002695192,479.07954364591933L499.54163442837967,480.04534865061214L499.54163442837967,480.5282375496099L499.54163442837967,480.5282375496099L499.2129002695192,481.0111173803598L499.2129002695192,481.0111173803598L498.22669779293733,481.9768498390222L497.2404953163559,482.4597024679242L496.911761157495,482.9425460305174L496.911761157495,483.4253805273038L497.2404953163559,483.90820595875994L496.911761157495,483.90820595875994L496.5830269986343,484.87382962760967L495.59682452205243,486.80496820285043L495.2680903631922,487.2877301906519L495.2680903631922,487.2877301906519L494.610622045471,487.77048311700855L494.610622045471,487.77048311700855L492.6382170923075,488.25322698243326L492.6382170923075,488.25322698243326L492.3094829334466,488.73596178740627L491.9807487745861,488.73596178740627L490.0083438214226,489.21868753239687L489.35087550370145,489.21868753239687L488.6934071859803,489.21868753239687L488.3646730271196,489.21868753239687L488.0359388682589,489.21868753239687L487.70720470939864,489.21868753239687L487.70720470939864,489.21868753239687L487.37847055053794,489.21868753239687L487.049736391677,488.73596178740627L486.7210022328168,488.73596178740627L486.3922680739561,487.77048311700855L486.3922680739561,487.77048311700855L486.06353391509515,488.25322698243326L485.4060655973742,488.73596178740627L484.41986312079234,489.21868753239687L483.10492648535023,489.21868753239687L482.11872400876837,489.7014042179144L482.11872400876837,489.7014042179144L481.78998984990767,489.7014042179144L480.47505321446533,489.7014042179144L478.17391410244113,490.1841118444281L477.51644578471996,489.7014042179144L476.8589774669988,490.1841118444281L476.20150914927785,490.6668104124474L475.87277499041693,490.6668104124474L475.215306672696,491.1494999224342L474.5578383549748,491.63218037489787L473.9003700372534,492.11485177031864L472.91416756067156,493.5628116191474L472.5854334018113,494.04544679123865L471.9279650840899,495.4932979818004L471.27049676636875,496.9410676939915L470.2842942897869,497.9062022428443L469.6268259720657,498.38875594095225L468.6406234954841,497.9062022428443L467.9831551777627,497.42363949401624L467.6544210189022,497.42363949401624L466.99695270118104,497.9062022428443L466.6682185423206,498.38875594095225L466.6682185423206,498.38875594095225L465.6820160657387,499.3538361869505L466.0107502245994,499.83636273582306L466.0107502245994,500.3188802359073L465.6820160657387,500.80138868770155L465.6820160657387,500.80138868770155L465.353281906878,501.28388809171156L465.02454774801754,501.28388809171156L463.3808769537143,502.2488597582633L462.06594031827217,503.21379523945143L461.73720615941147,503.6962494117397L461.408472000551,505.1435576612639L461.408472000551,505.62597565694523L461.408472000551,506.59078451996174L461.408472000551,507.5555572151061L461.07973784169053,508.0379300009481L460.7510036828296,508.0379300009481L459.76480120624774,509.4849941173343L459.43606704738727,510.931976882257L459.1073328885268,512.3788783088166L458.7785987296663,513.3434340783497L458.7785987296663,513.8256984101245L459.1073328885268,513.8256984101245L460.42226952396913,514.7901999701062L462.72340863599334,515.7546653952377L465.353281906878,516.7190946894079L466.6682185423206,517.2012957885963L468.6406234954841,517.6834878565023L469.6268259720657,517.6834878565023L469.9555601309264,518.1656708935952L470.2842942897869,518.1656708935952L470.6130284486476,518.1656708935952L471.59923092522945,518.647844900388L472.91416756067156,519.6121658249467L472.91416756067156,520.5764506340711L472.91416756067156,520.5764506340711L472.5854334018113,521.0585794965591L471.9279650840899,521.5406993316319L470.94176260750805,521.5406993316319L470.6130284486476,522.0228101397988L470.2842942897869,522.0228101397988L469.9555601309264,522.0228101397988L469.29809181320525,521.5406993316319L468.6406234954841,522.0228101397988L468.3118893366234,522.9870046772958L468.3118893366234,524.4332287937614L467.6544210189022,525.3973330838708L467.32568686004174,525.8793716941291L466.3394843834599,525.8793716941291L464.69581358915707,526.361401281818L463.3808769537143,526.361401281818L462.72340863599334,526.361401281818L461.73720615941147,526.8434218474431L461.408472000551,526.8434218474431L460.7510036828296,527.325433391481L460.42226952396913,527.325433391481L460.09353536510866,527.325433391481L460.09353536510866,527.325433391481L460.09353536510866,527.325433391481L460.09353536510866,527.325433391481L458.7785987296663,528.2894294167163L457.79239625308446,529.7353558047726L457.79239625308446,530.2173132294447L457.79239625308446,531.663131396228L457.79239625308446,531.663131396228L457.13492793536307,531.663131396228L456.14872545878166,532.1450527510278L455.81999129992073,532.6269650895483L454.8337888233391,533.5907627197812L453.8475863467572,534.5545242907647L452.5326497113151,536.4819392705249L452.2039155524544,536.4819392705249L452.2039155524544,536.000099044646L451.21771307587255,535.5182498063914L450.2315105992907,535.5182498063914L448.5878398049879,535.5182498063914L447.601637328406,535.5182498063914L447.27290316954554,535.5182498063914L447.601637328406,534.5545242907647L447.601637328406,534.5545242907647L442.67062494549714,532.6269650895483L441.35568831005503,532.1450527510278L441.02695415119433,533.5907627197812L440.6982199923334,533.5907627197812L438.72581503917013,535.5182498063914L438.06834672144873,536.4819392705249L437.4108784037278,535.5182498063914L436.09594176828546,534.0726480124249L435.76720760942453,534.0726480124249L435.43847345056406,534.0726480124249L435.43847345056406,534.0726480124249L434.7810051328429,534.5545242907647L434.7810051328429,535.0363915552589L434.4522709739822,535.5182498063914L433.794802656261,536.000099044646L433.13733433853986,538.8910052310166L432.4798660208189,539.854568545441L431.49366354423705,540.3363366896228L430.5074610676552,539.854568545441L429.84999274993424,539.3727913927323L428.206321955631,538.8910052310166L428.206321955631,538.8910052310166L427.8775877967705,539.3727913927323L427.5488536379098,540.3363366896228L426.56265116132795,541.7815870759187L423.9327778904433,543.2267564029644L423.6040437315828,543.7084615010608L423.2753095727219,544.1901575945194L422.94657541386164,544.1901575945194L422.28910709614047,544.1901575945194L421.6316387784191,544.1901575945194L420.6454363018372,543.7084615010608L419.0017655075344,542.7450422997244L418.01556303095253,543.2267564029644L416.7006263955102,543.2267564029644L416.7006263955102,543.2267564029644L416.04315807778903,544.1901575945194L416.04315807778903,544.6718446838022L415.38568976006786,545.1535227694076L414.7282214423469,545.1535227694076L414.399487283486,545.1535227694076L413.08455064804366,544.6718446838022L411.7696140126013,544.6718446838022L411.44087985374085,544.6718446838022L409.1397407417164,544.6718446838022L408.1535382651348,544.6718446838022L407.8248041062743,544.6718446838022L407.8248041062743,545.1535227694076L407.8248041062743,545.6351918518085L407.8248041062743,545.6351918518085L407.4960699474136,546.1168519314997L407.16733578855315,546.1168519314997L406.50986747083175,546.1168519314997L405.5236649942501,546.5985030089614L404.2087283588078,546.5985030089614L403.8799941999471,546.5985030089614L403.5512600410866,547.0801450846593L403.22252588222614,547.0801450846593L403.22252588222614,547.5617781591027L403.22252588222614,547.5617781591027L403.22252588222614,548.0434022327609L403.5512600410866,549.0066233796533L403.5512600410866,549.488220453848L403.5512600410866,549.9698085292075L403.22252588222614,550.4513876061828L403.22252588222614,550.4513876061828L402.89379172336544,550.932957685287L402.23632340564427,551.4145187669856L400.92138677020193,552.8591480324867L400.92138677020193,553.3406731293944L400.592652611341,553.3406731293944L400.26391845248077,553.3406731293944L400.26391845248077,552.3776139400943L400.26391845248077,551.8960708517552L400.26391845248077,550.932957685287L400.592652611341,550.4513876061828L400.592652611341,550.4513876061828L401.2501209290624,549.488220453848L401.5788550879229,549.0066233796533L401.9075892467838,548.5250173061104L402.23632340564427,548.0434022327609L402.23632340564427,547.5617781591027L401.9075892467838,547.0801450846593L401.5788550879229,546.5985030089614L398.6202476581775,546.1168519314997L395.6616402284326,546.1168519314997L393.68923527526886,546.5985030089614L393.03176695754746,546.5985030089614L392.3742986398265,546.1168519314997L392.3742986398265,546.1168519314997L392.3742986398265,545.6351918518085L392.3742986398265,545.6351918518085L392.3742986398265,544.6718446838022L392.3742986398265,543.7084615010608L392.3742986398265,543.2267564029644L392.703032798687,542.7450422997244L392.0455644809658,542.2633191908644L391.05936200438396,541.7815870759187L390.0731595278021,542.7450422997244L389.74442536894185,542.2633191908644L387.7720204157781,539.854568545441L387.4432862569174,539.3727913927323L387.1145520980572,538.8910052310166L387.1145520980572,538.8910052310166L385.14214714489344,536.000099044646L384.4846788271723,535.5182498063914L384.4846788271723,535.5182498063914L384.1559446683116,536.000099044646L383.4984763505904,536.000099044646L383.16974219172994,536.000099044646L382.51227387400854,536.000099044646L380.86860307970574,536.4819392705249L378.5674639676813,536.000099044646L378.23872980882106,536.4819392705249L377.2525273322392,536.9637704845009L376.9237931733783,536.9637704845009L375.93759069679663,537.927405878665L374.95138822021477,539.3727913927323L372.97898326705126,540.3363366896228L370.6778441550273,540.8180958257835L369.6916416784454,540.3363366896228L369.36290751958495,540.3363366896228L369.36290751958495,540.3363366896228L368.0479708841424,542.7450422997244L367.3905025664212,543.7084615010608L366.73303424870005,545.1535227694076L366.73303424870005,545.6351918518085L367.061768407561,545.6351918518085L367.3905025664212,546.1168519314997L367.7192367252819,546.1168519314997L368.7054392018638,546.1168519314997L370.0203758373061,546.5985030089614L370.0203758373061,546.5985030089614L370.0203758373061,547.0801450846593L370.0203758373061,547.0801450846593L369.6916416784454,547.0801450846593L369.36290751958495,547.0801450846593L368.0479708841424,546.5985030089614L365.7468317721184,546.1168519314997L365.08936345439724,546.1168519314997L364.4318951366761,546.1168519314997L361.8020218657914,545.6351918518085L359.5008827537672,545.1535227694076L357.52847780060347,543.7084615010608L354.89860452971857,544.1901575945194L353.91240205313716,544.6718446838022L353.58366789427646,544.6718446838022L353.58366789427646,544.6718446838022L353.58366789427646,544.1901575945194L353.25493373541576,544.1901575945194L352.9261995765555,543.7084615010608L352.5974654176946,543.7084615010608L352.5974654176946,543.7084615010608L352.5974654176946,543.7084615010608L352.5974654176946,543.7084615010608L351.93999709997365,543.2267564029644L351.28252878225226,543.2267564029644L350.6250604645311,543.2267564029644L348.6526555113676,543.2267564029644L347.6664530347857,542.7450422997244L346.35151639934315,542.7450422997244L345.3653139227613,542.2633191908644L344.3791114461794,542.2633191908644L343.06417481073754,542.2633191908644L342.4067064930164,542.2633191908644L341.74923817529475,542.2633191908644L341.4205040164345,542.2633191908644L340.76303569871334,542.2633191908644L340.43430153985287,542.2633191908644L340.10556738099194,542.2633191908644L337.47569411010727,542.2633191908644L336.4894916335254,542.7450422997244L334.1883525215012,543.2267564029644L333.20215004491956,544.1901575945194L332.5446817271984,547.0801450846593L332.8734158860593,547.5617781591027L333.20215004491956,548.0434022327609L333.20215004491956,548.5250173061104L333.53088420378026,549.488220453848L332.8734158860593,550.4513876061828L332.2159475683377,550.932957685287L330.2435426151742,550.932957685287L329.9148084563137,550.932957685287L329.25734013859255,550.932957685287L328.92860597973186,550.932957685287L328.59987182087116,550.4513876061828L328.2711376620107,550.4513876061828L328.2711376620107,550.4513876061828L327.9424035031502,550.4513876061828L327.6136693442895,550.4513876061828L326.29873270884696,551.4145187669856L325.9699985499867,551.4145187669856L325.9699985499867,551.4145187669856L325.9699985499867,551.8960708517552L324.98379607340485,552.3776139400943L323.997593596823,552.3776139400943L321.3677203259383,552.8591480324867L319.0665812139139,553.8221892313231L317.42291041961107,554.3036963387494L317.0941762607506,554.3036963387494L316.10797378416873,554.785194452139L315.77923962530826,554.785194452139L314.7930371487264,555.2666835719901L312.8206321955631,555.7481636987977L310.8482272423994,556.7110969751484L308.2183539715147,557.6739942850727L307.889619812654,557.6739942850727L308.54708813037496,558.1554294538146L308.2183539715147,558.6368556324087L308.2183539715147,559.1182728213171L307.5608856537933,559.5996810210163L306.90341733607215,559.5996810210163L306.245949018351,560.0810802320157L305.5884807006298,560.0810802320157L305.2597465417691,559.5996810210163L305.2597465417691,559.1182728213171L304.93101238290865,559.1182728213171L301.9724049531633,559.5996810210163L299.6712658411393,560.0810802320157L299.0137975234177,559.5996810210163L299.0137975234177,559.5996810210163L298.68506336455744,559.5996810210163L299.0137975234177,559.5996810210163L299.3425316822786,560.5624704547699L299.6712658411393,561.525223937515L299.99999999999955,562.4879414731258L299.99999999999955,562.9692867619488L299.0137975234177,563.4506230654406L296.71265841139393,565.3758784356214L296.05519009367254,565.8571698196465L296.05519009367254,565.8571698196465L295.72645593481207,565.8571698196465L295.39772177595137,565.8571698196465L295.06898761709067,566.3384522212073L294.41151929936973,566.3384522212073L293.42531682278786,566.3384522212073L292.76784850506647,566.3384522212073L292.76784850506647,566.3384522212073L291.78164602848506,566.3384522212073L291.12417771076343,566.3384522212073L290.13797523418157,566.3384522212073L289.8092410753213,566.819725640813L289.1517727576004,566.819725640813L288.1655702810185,566.819725640813L287.5081019632969,566.3384522212073L285.20696285127315,564.4132687183192L285.20696285127315,564.4132687183192L284.2207603746913,562.9692867619488L283.2345578981094,564.4132687183192L282.577089580388,564.4132687183192L281.59088710380615,564.4132687183192L280.60468462722474,564.8945780686845L279.94721630950335,565.3758784356214L279.2897479917824,565.3758784356214L278.9610138329215,565.8571698196465L278.63227967406124,565.3758784356214L277.3173430386187,564.8945780686845L276.00240640317634,565.3758784356214L276.00240640317634,565.3758784356214L276.00240640317634,565.8571698196465L276.3311405620368,566.3384522212073L276.3311405620368,566.819725640813L276.9886088797582,568.2634920126438L276.9886088797582,568.7447295092061L276.9886088797582,568.7447295092061L275.67367224431587,571.1507823082466L275.01620392659447,571.6319659346846L274.35873560887353,571.6319659346846L274.03000145001283,572.1131405844608L273.70126729115213,572.1131405844608L273.0437989734312,572.1131405844608L270.0851915436856,573.075462955916L267.7840524316616,573.5566106785773L265.8116474784979,574.5188792001245L265.8116474784979,575L265.8116474784979,575L264.825445001916,574.5188792001245L264.825445001916,574.5188792001245L264.1679766841951,573.075462955916L263.5105083664739,572.5943062580336L263.5105083664739,572.5943062580336L262.85304004875275,573.075462955916L261.8668375721709,572.5943062580336L260.55190093672854,571.6319659346846L260.55190093672854,570.6695897046666L260.55190093672854,569.7071775641234L260.55190093672854,569.7071775641234L259.2369643012862,568.7447295092061L258.57949598356504,569.2259580261962L258.57949598356504,569.2259580261962L257.92202766584364,568.7447295092061L257.92202766584364,568.7447295092061L258.57949598356504,567.3009900789366L259.89443261900715,565.3758784356214L260.880635095589,563.9319503840743L261.8668375721709,562.4879414731258L262.19557173103135,562.4879414731258L262.19557173103135,562.0065871984734L262.85304004875275,562.0065871984734L262.85304004875275,562.0065871984734L262.85304004875275,561.525223937515L262.85304004875275,561.0438516897811L263.1817742076132,560.5624704547699L263.1817742076132,560.5624704547699L262.85304004875275,560.0810802320157L262.19557173103135,560.0810802320157L261.5381034133104,559.5996810210163L260.55190093672854,559.5996810210163L258.25076182470434,559.1182728213171L256.9358251892618,558.6368556324087L254.3059519183771,556.7110969751484L253.97721775951686,556.2296348330237L253.64848360065594,555.2666835719901L253.31974944179547,555.2666835719901L252.6622811240743,555.2666835719901L252.00481280635313,555.2666835719901L251.01861032977126,555.7481636987977L250.0324078531894,555.7481636987977L247.07380042344425,555.7481636987977L244.44392715255958,555.2666835719901L242.14278804053515,555.2666835719901L241.81405388167468,554.785194452139L241.81405388167468,554.785194452139L242.14278804053515,554.785194452139L242.47152219939585,554.785194452139L242.47152219939585,554.3036963387494L242.80025635825655,554.3036963387494L242.80025635825655,553.8221892313231L242.80025635825655,552.8591480324867L242.47152219939585,551.8960708517552L242.14278804053515,551.8960708517552L241.4853197228142,551.4145187669856L241.1565855639535,550.932957685287L239.51291476965048,551.4145187669856L236.55430733990534,550.4513876061828L235.56810486332347,549.9698085292075L235.56810486332347,549.9698085292075L234.91063654560253,549.488220453848L234.2531682278809,549.0066233796533L233.92443406902066,547.5617781591027L233.92443406902066,546.1168519314997L234.2531682278809,545.1535227694076L234.5819023867416,544.1901575945194L234.5819023867416,543.7084615010608L234.5819023867416,543.7084615010608L234.91063654560253,542.7450422997244L234.5819023867416,542.2633191908644L234.5819023867416,542.2633191908644L234.2531682278809,542.2633191908644L233.26696575129927,541.7815870759187L232.6094974335781,541.7815870759187L228.3359533683904,539.854568545441L226.69228257408736,536.4819392705249L226.3635484152269,535.5182498063914L226.0348142563662,535.0363915552589L225.7060800975055,534.0726480124249L227.02101673294806,534.0726480124249L226.69228257408736,531.663131396228L225.7060800975055,530.6992616359312L225.37734593864525,530.6992616359312L225.37734593864525,530.6992616359312L225.04861177978455,530.6992616359312L224.71987762092363,530.6992616359312L224.39114346206338,530.6992616359312L221.76127019117848,531.1812010246867L219.78886523801498,530.6992616359312L219.78886523801498,530.6992616359312L219.46013107915428,530.2173132294447L219.1313969202938,529.2533893614127L219.46013107915428,528.7714138988958L219.78886523801498,527.8074359144011L219.78886523801498,527.8074359144011L220.11759939687568,527.325433391481L220.44633355573615,527.325433391481L221.1038018734571,527.325433391481L221.76127019117848,527.325433391481L222.74747266776035,524.4332287937614L222.74747266776035,521.5406993316319L223.07620682662082,519.6121658249467L222.41873850889965,518.1656708935952L222.09000435003895,517.2012957885963L221.432536032318,517.6834878565023L221.1038018734571,517.6834878565023L220.44633355573615,518.1656708935952L220.11759939687568,518.647844900388L219.46013107915428,519.1300098773463L218.4739286025724,519.1300098773463L215.51532117282727,520.5764506340711L212.8854479019426,521.0585794965591L211.57051126650003,520.5764506340711L209.926840472197,520.5764506340711L208.61190383675466,521.0585794965591L207.62570136017303,521.0585794965591L206.63949888359116,521.0585794965591L206.3107647247307,520.5764506340711L205.98203056587,520.0943127436913L205.6532964070093,519.6121658249467L205.6532964070093,519.1300098773463L205.32456224814882,518.1656708935952L204.66709393042743,518.1656708935952L204.0096256127065,517.6834878565023L203.35215729498532,517.2012957885963L203.35215729498532,516.236884558457L203.68089145384556,514.7901999701062L203.68089145384556,514.3079537072081L203.02342313612462,514.3079537072081L200.72228402410065,511.8965868700798L199.73608154751878,511.41428639472724L198.42114491207622,511.8965868700798L197.4349424354948,512.3788783088166L195.46253748233107,512.3788783088166L194.4763350057492,511.8965868700798L194.80506916461013,511.41428639472724L193.49013252916734,509.96733074405347L191.51772757600384,509.4849941173343L190.86025925828267,508.5202937462709L190.53152509942197,507.0731753882683L189.54532262284033,507.0731753882683L188.88785430511916,506.59078451996174L186.91544935195566,507.0731753882683L185.6005127165131,507.5555572151061L182.64190528676795,508.5202937462709L179.35456369816188,507.0731753882683L178.69709538044094,505.62597565694523L177.38215874499815,504.17869453915773L174.09481715639254,503.21379523945143L173.76608299753207,503.21379523945143L173.10861467981067,502.7313320217836L173.43734883867114,502.7313320217836L172.7798805209502,501.28388809171156L172.4511463620895,500.3188802359073L172.4511463620895,497.9062022428443L173.43734883867114,495.97589693835835L173.43734883867114,494.5280729087244L173.76608299753207,492.5975141091658L174.423551315253,491.1494999224342L175.40975379183487,490.1841118444281L175.73848795069534,490.1841118444281L176.06722210955627,490.1841118444281L176.39595626841674,490.1841118444281L176.39595626841674,489.7014042179144L176.39595626841674,489.7014042179144L176.39595626841674,489.7014042179144L176.39595626841674,489.21868753239687L176.39595626841674,489.21868753239687L174.75228547411348,488.73596178740627L172.1224122032288,487.2877301906519L171.46494388550764,486.80496820285043L171.1362097266474,486.80496820285043L170.80747556778647,486.80496820285043L169.16380477348366,487.2877301906519L168.1776022969018,487.77048311700855L166.86266566145923,487.2877301906519L163.9040582317141,487.2877301906519L161.6029191196901,488.25322698243326L161.27418496082942,489.7014042179144L160.28798248424755,492.11485177031864L159.95924832538685,494.5280729087244L157.98684337222357,496.45848684226803L157.65810921336288,496.9410676939915L156.34317257792054,496.45848684226803L155.68570426019915,495.97589693835835L155.0282359424782,494.5280729087244L154.69950178361728,494.04544679123865L154.04203346589634,492.5975141091658L153.05583098931447,492.11485177031864L153.05583098931447,492.11485177031864L152.727096830454,491.63218037489787L152.727096830454,491.63218037489787L152.727096830454,491.1494999224342L153.05583098931447,490.1841118444281L153.38456514817494,488.73596178740627L153.71329930703587,485.8394170410211L154.04203346589634,482.4597024679242L154.04203346589634,481.0111173803598L154.04203346589634,480.5282375496099L154.3707676247568,480.5282375496099L154.3707676247568,480.04534865061214L153.71329930703587,478.5966275392311L152.727096830454,477.6307681147591L151.74089435387214,477.14782479598944L151.41216019501144,477.14782479598944L149.11102108298746,477.6307681147591L146.80988197096303,477.14782479598944L144.50874285893906,476.6648724055485L142.20760374691508,476.6648724055485L139.90646463489088,476.6648724055485L138.92026215830901,475.21596079936353L138.92026215830901,474.7329721173628L138.92026215830901,474.7329721173628L138.59152799944854,473.76696753056603L137.93405968172738,473.28395162478046L137.93405968172738,472.8009266434274L137.93405968172738,472.8009266434274L137.93405968172738,472.8009266434274L137.60532552286668,472.31789258600475L135.30418641084248,473.28395162478046L133.00304729881827,474.7329721173628L132.0168448222364,474.7329721173628L130.3731740279336,474.7329721173628L129.38697155135173,474.2499743612607L128.4007690747701,473.76696753056603L127.08583243932753,473.28395162478046L126.42836412160659,472.8009266434274L125.77089580388497,472.31789258600475L125.77089580388497,472.31789258600475L125.44216164502473,471.83484945203236L125.11342748616403,471.83484945203236L124.78469332730356,470.868735952492L124.78469332730356,470.868735952492L124.45595916844286,470.868735952492L123.79849085072192,470.38566558595267L123.46975669186122,470.38566558595267L123.1410225330003,469.90258614089544L123.46975669186122,468.4532933298324L124.12722500958216,466.52077578640456L123.79849085072192,465.55446252216643L123.79849085072192,465.55446252216643L123.1410225330003,465.0712922652201L122.81228837414005,465.0712922652201L122.48355421527936,465.0712922652201L122.48355421527936,464.58811292439714L122.15482005641888,463.62172698913855L122.48355421527936,463.1385203937498L122.15482005641888,463.1385203937498L120.83988342097655,462.6553047125162L120.51114926211585,462.6553047125162L120.51114926211585,462.6553047125162L119.19621262667329,462.6553047125162L119.19621262667329,461.6888460906048L119.19621262667329,460.7223511194861L119.52494678553421,460.7223511194861L119.85368094439468,460.2390900017672L119.85368094439468,458.7892521140275L119.52494678553421,458.3059546383083L119.52494678553421,458.3059546383083L119.52494678553421,458.7892521140275L119.52494678553421,458.7892521140275L119.52494678553421,458.7892521140275L119.52494678553421,459.27254049952535L119.19621262667329,459.27254049952535L118.21001015009142,458.7892521140275L117.55254183237048,457.8226480718513L117.88127599123118,457.33933241418345L118.21001015009142,456.8560076648246L119.52494678553421,455.8893308890183L119.19621262667329,455.40597886161777L118.86747846781282,455.40597886161777L118.21001015009142,455.8893308890183L117.55254183237048,456.3726738232617L117.22380767350978,456.3726738232617L115.90887103806767,456.8560076648246L114.9226685614858,456.8560076648246L113.93646608490394,456.3726738232617L112.95026360832208,456.3726738232617L111.63532697287974,456.8560076648246L109.66292201971623,457.33933241418345L109.66292201971623,456.3726738232617L109.99165617857693,455.8893308890183L110.64912449629787,455.40597886161777L110.64912449629787,454.9226177405508L110.3203903374374,453.9558682154893L109.99165617857693,452.5056757132079L108.67671954313437,452.02226001991585L108.67671954313437,451.05540134156035L108.67671954313437,449.60504508734084L108.67671954313437,448.6380954209999L108.0192512254132,447.6711093525919L108.3479853842739,446.22056198756763L108.3479853842739,445.7370279939569L108.3479853842739,445.7370279939569L108.67671954313437,445.25348489689713L109.33418786085554,444.2863713904226L109.66292201971623,442.8356328425725L109.66292201971623,442.35203511449436L109.66292201971623,441.8684282795184L109.66292201971623,441.8684282795184L108.67671954313437,440.90118728696325L108.67671954313437,440.90118728696325L108.67671954313437,439.93390986098166L108.67671954313437,439.93390986098166L109.00545370199507,439.4502574842227L110.3203903374374,437.99924569303766L110.97785865515857,437.0318589432427L111.63532697287974,437.0318589432427L112.6215294494616,436.0644357443234L113.60773192604324,435.09697609235445L115.2514027203465,432.6781674545782L115.58013687920675,431.7105801860089L115.58013687920675,430.25913089933965L115.2514027203465,429.2914524466287L114.9226685614858,428.323737513354L114.9226685614858,428.323737513354L114.59393440262488,428.323737513354L114.26520024376464,427.8398663652988L114.26520024376464,427.3559860956193L113.93646608490394,426.87209670384254L113.93646608490394,426.38819818948105L113.93646608490394,426.38819818948105L114.26520024376464,426.38819818948105L113.278997767183,424.4525128962632L111.96406113174021,423.0006531150684L111.30659281401927,420.096687123234L109.00545370199507,418.64458088604806L108.0192512254132,417.6764644073337L105.06064379566783,414.28776905007544L104.73190963680759,414.28776905007544L102.10203636592269,411.86699831479564L101.44456804820129,408.4775354823214L101.44456804820129,408.4775354823214ZM77.77570861023855,467.48705272098596L77.44697445137808,467.00391879465315L76.78950613365691,466.52077578640456L75.80330365707528,466.0376236957345L75.47456949821435,465.55446252216643L75.14583533935388,464.58811292439714L75.14583533935388,463.62172698913855L75.47456949821435,463.1385203937498L76.13203781593575,463.1385203937498L77.11824029251761,463.1385203937498L77.77570861023855,462.17207994495766L77.77570861023855,461.6888460906048L77.77570861023855,460.2390900017672L76.46077197479622,458.7892521140275L75.80330365707528,457.8226480718513L77.11824029251761,456.8560076648246L77.44697445137808,456.3726738232617L78.43317692795995,456.3726738232617L81.06305019884462,457.33933241418345L83.0354551520079,457.8226480718513L84.67912594631116,457.8226480718513L85.6653284228928,457.8226480718513L86.98026505833536,457.33933241418345L88.2952016937777,456.8560076648246L88.95267001149887,456.3726738232617L89.28140417035934,456.3726738232617L90.59634080580167,456.3726738232617L92.56874575896518,455.8893308890183L93.88368239440774,455.8893308890183L96.18482150643172,454.9226177405508L98.48596061845615,453.4724798105126L98.81469477731662,453.4724798105126L99.14342893617709,453.4724798105126L99.14342893617709,453.9558682154893L99.47216309503801,453.9558682154893L99.47216309503801,454.4392475253444L100.12963141275895,455.40597886161777L101.44456804820129,456.3726738232617L102.43077052478316,456.8560076648246L101.44456804820129,460.2390900017672L101.11583388934082,462.17207994495766L100.45836557161942,464.1049244991955L99.80089725389848,464.58811292439714L97.49975814187428,466.52077578640456L96.84228982415311,467.00391879465315L95.52735318871055,467.00391879465315L95.19861902985008,467.00391879465315L94.86988487098961,467.00391879465315L95.19861902985008,467.48705272098596L95.85608734757147,468.93640001332824L96.18482150643172,469.4194976168583L96.84228982415311,469.90258614089544L97.49975814187428,470.38566558595267L98.15722645959522,470.868735952492L98.48596061845615,470.868735952492L98.81469477731662,471.35179724103364L97.82849230073475,472.31789258600475L97.82849230073475,472.31789258600475L97.17102398301358,471.83484945203236L95.19861902985008,470.868735952492L94.86988487098961,470.38566558595267L94.21241655326844,469.90258614089544L94.21241655326844,469.4194976168583L93.88368239440774,469.4194976168583L94.21241655326844,468.93640001332824L93.55494823554704,468.93640001332824L92.89747991782588,468.4532933298324L92.56874575896518,467.97017756588684L92.56874575896518,467.97017756588684L91.58254328238354,468.4532933298324L91.25380912352307,469.90258614089544L90.2676066469412,471.35179724103364L89.28140417035934,472.31789258600475L88.95267001149887,472.31789258600475L88.62393585263817,472.31789258600475L88.2952016937777,471.83484945203236L88.2952016937777,471.83484945203236L85.6653284228928,469.90258614089544L85.33659426403233,469.4194976168583L84.02165762858976,468.4532933298324L83.69292346972952,467.48705272098596L83.36418931086882,465.55446252216643L82.70672099314766,464.58811292439714L82.37798683428696,464.1049244991955L81.72051851656579,464.1049244991955L81.39178435770509,463.62172698913855L80.40558188112323,464.1049244991955L79.41937940454181,465.0712922652201L78.43317692795995,466.52077578640456L78.10444276909948,467.00391879465315Z" style="fill: none; stroke: rgb(8, 48, 107);"><title>COTE D OR</title></path><g stroke="#000" stroke-opacity="0.2"><path d="M0,-13.34775705149959L2.9967581703553763,-4.1246837657014135L12.69447132175327,-4.124683765701414L4.848856575698947,1.5754890056530315L7.845614746054325,10.798562291451207L8.881784197001252e-16,5.098389520096762L-7.845614746054323,10.798562291451208L-4.848856575698946,1.5754890056530328L-12.694471321753271,-4.124683765701411L-2.9967581703553776,-4.124683765701413Z" transform="translate(154.69950178361728,208.18863529217197)rotate(22.219875978597738)" fill="white" class="commune"><title>21425 Population : 5334</title></path><path d="M0,-18.876579049491834L4.238056047668955,-5.833183721955068L17.952693510379785,-5.833183721955069L6.857318731355415,2.2280779191642193L11.095374779024372,15.271473246700983L8.881784197001252e-16,7.210211605581696L-11.095374779024368,15.271473246700985L-6.857318731355414,2.2280779191642206L-17.952693510379788,-5.833183721955065L-4.238056047668956,-5.833183721955068Z" transform="translate(314.7930371487264,514.7901999701062)rotate(17.397547777524956)" fill="white" class="commune"><title>21054 Population : 21644</title></path><path d="M0,-26.69551410299918L5.993516340710753,-8.249367531402827L25.38894264350654,-8.249367531402829L9.697713151397894,3.150978011306063L15.69122949210865,21.597124582902413L1.7763568394002505e-15,10.196779040193524L-15.691229492108645,21.597124582902417L-9.697713151397892,3.1509780113060657L-25.388942643506542,-8.249367531402822L-5.993516340710755,-8.249367531402825Z" transform="translate(380.5398689208448,370.6788932774398)rotate(7.210864867479046)" fill="white" class="commune"><title>21231 Population : 155090</title></path></g><text class="text" y="25" x="326" text-anchor="middle" font-size="24" font-family="Helvetica" fill="#6baed6">21 - COTE D OR</text><line x1="319.1761592668676" y1="505.18277952392845" x2="376.1567468027036" y2="380.2863137236175" stroke="yellow" opacity="0.35" stroke-width="2"/><line x1="365.48384444502966" y1="359.84620941175524" x2="169.75552625943246" y2="219.02131915785648" stroke="yellow" opacity="0.35" stroke-width="2"/><line x1="165.3724041412912" y1="228.62873960403425" x2="304.12013479105246" y2="494.3500956582439" stroke="yellow" opacity="0.35" stroke-width="2"/></svg>