<svg viewBox="0,0,954,1144.8" width="954" height="1144.8" style="width: 100%; height: auto;" xmlns="http://www.w3.org/2000/svg" xmlns:xlink="http://www.w3.org/1999/xlink"><rect width="954" height="1144.8" fill="black"/><g stroke="#000" stroke-opacity="0.2"><path d="M0,-13.34775705149959L2.9967581703553763,-4.1246837657014135L12.69447132175327,-4.124683765701414L4.848856575698947,1.5754890056530315L7.845614746054325,10.798562291451207L8.881784197001252e-16,5.098389520096762L-7.845614746054323,10.798562291451208L-4.848856575698946,1.5754890056530328L-12.694471321753271,-4.124683765701411L-2.9967581703553776,-4.124683765701413Z" transform="translate(380.74142739950787,815.5985591999124)rotate(27.035984460671184)" fill="white" class="commune"><title>insee_com : 47195 
Population : 6827
 Nom : NERAC</title></path><path d="M0,-15.873247654971056L3.5637661381291506,-4.905103281308338L15.096355617026989,-4.905103281308339L5.766294739448918,1.873582735131148L9.330060877578072,12.841727108793865L8.881784197001252e-16,6.063041092354379L-9.330060877578068,12.841727108793867L-5.766294739448918,1.8735827351311491L-15.09635561702699,-4.905103281308335L-3.563766138129152,-4.905103281308337Z" transform="translate(252.89105824446267,438.727442264375)rotate(21.774713451064006)" fill="white" class="commune"><title>insee_com : 47157 
Population : 17691
 Nom : MARMANDE</title></path><path d="M0,-18.876579049491834L4.238056047668955,-5.833183721955068L17.952693510379785,-5.833183721955069L6.857318731355415,2.2280779191642193L11.095374779024372,15.271473246700983L8.881784197001252e-16,7.210211605581696L-11.095374779024368,15.271473246700985L-6.857318731355414,2.2280779191642206L-17.952693510379788,-5.833183721955065L-4.238056047668956,-5.833183721955068Z" transform="translate(652.9054963084495,531.0882603742866)rotate(4.260896272821791)" fill="white" class="commune"><title>insee_com : 47323 
Population : 22064
 Nom : VILLENEUVE SUR LOT</title></path><path d="M0,-18.876579049491834L4.238056047668955,-5.833183721955068L17.952693510379785,-5.833183721955069L6.857318731355415,2.2280779191642193L11.095374779024372,15.271473246700983L8.881784197001252e-16,7.210211605581696L-11.095374779024368,15.271473246700985L-6.857318731355414,2.2280779191642206L-17.952693510379788,-5.833183721955065L-4.238056047668956,-5.833183721955068Z" transform="translate(586.3105824446268,745.8110399835059)rotate(6.556947989319156)" fill="white" class="commune"><title>insee_com : 47001 
Population : 33576
 Nom : AGEN</title></path></g><text class="text" y="40" x="427" text-anchor="middle" font-size="36" font-family="Helvetica" fill="#6baed6">47  - LOT ET GARONNE</text><line x1="648.4658353841946" y1="545.4031123482346" x2="590.7502433688817" y2="731.496188009558" stroke="yellow" opacity="0.35" stroke-width="2"/><line x1="572.6059721082855" y1="750.4635412645997" x2="394.44603773584913" y2="810.9460579188186" stroke="yellow" opacity="0.35" stroke-width="2"/><line x1="372.2180694558382" y1="790.4738180708766" x2="261.41441618813235" y2="463.8521833934108" stroke="yellow" opacity="0.35" stroke-width="2"/><line x1="279.55868744872845" y1="444.88483013836907" x2="626.2378671041837" y2="524.9308725002925" stroke="yellow" opacity="0.35" stroke-width="2"/></svg>