<svg viewBox="0,0,955,1146" width="955" height="1146" style="width: 100%; height: auto;" xmlns="http://www.w3.org/2000/svg" xmlns:xlink="http://www.w3.org/1999/xlink"><rect width="955" height="1146" fill="black"/><g stroke="#000" stroke-opacity="0.2"><path d="M0,-13.34775705149959L2.9967581703553763,-4.1246837657014135L12.69447132175327,-4.124683765701414L4.848856575698947,1.5754890056530315L7.845614746054325,10.798562291451207L8.881784197001252e-16,5.098389520096762L-7.845614746054323,10.798562291451208L-4.848856575698946,1.5754890056530328L-12.694471321753271,-4.124683765701411L-2.9967581703553776,-4.124683765701413Z" transform="translate(785.2541106128551,809.6824531406528)rotate(26.737210789381656)" fill="white" class="commune"><title>36046 Population : 4178</title></path><path d="M0,-13.34775705149959L2.9967581703553763,-4.1246837657014135L12.69447132175327,-4.124683765701414L4.848856575698947,1.5754890056530315L7.845614746054325,10.798562291451207L8.881784197001252e-16,5.098389520096762L-7.845614746054323,10.798562291451208L-4.848856575698946,1.5754890056530328L-12.694471321753271,-4.124683765701411L-2.9967581703553776,-4.124683765701413Z" transform="translate(182.5971599402094,749.6278383973331)rotate(13.736296174125181)" fill="white" class="commune"><title>36018 Population : 6521</title></path><path d="M0,-15.873247654971056L3.5637661381291506,-4.905103281308338L15.096355617026989,-4.905103281308339L5.766294739448918,1.873582735131148L9.330060877578072,12.841727108793865L8.881784197001252e-16,6.063041092354379L-9.330060877578068,12.841727108793867L-5.766294739448918,1.8735827351311491L-15.09635561702699,-4.905103281308335L-3.563766138129152,-4.905103281308337Z" transform="translate(791.3415545590435,439.41770129992074)rotate(16.770180959146597)" fill="white" class="commune"><title>36088 Population : 11888</title></path><path d="M0,-22.448162112566994L5.039926405668234,-6.936863585267022L21.349470856006818,-6.936863585267023L8.154772225169292,2.649646114250548L13.19469863083753,18.16094464155052L8.881784197001252e-16,8.574434942032948L-13.194698630837525,18.160944641550522L-8.154772225169292,2.649646114250549L-21.34947085600682,-6.936863585267019L-5.0399264056682345,-6.936863585267021Z" transform="translate(584.3684603886397,583.8807036846338)rotate(12.562704278827736)" fill="white" class="commune"><title>36044 Population : 44088</title></path></g><text class="text" y="40" x="427.5" text-anchor="middle" font-size="36" font-family="Helvetica" fill="#6baed6">36 - INDRE</text><line x1="209.38191330343807" y1="738.5780294164865" x2="557.5837070254111" y2="594.9305126654804" stroke="yellow" opacity="0.35" stroke-width="2"/><line x1="597.7608370702541" y1="598.9341536483684" x2="771.8617339312408" y2="794.6290031769182" stroke="yellow" opacity="0.35" stroke-width="2"/><line x1="785.6599402092677" y1="784.9981363512707" x2="790.935724962631" y2="464.1020180893029" stroke="yellow" opacity="0.35" stroke-width="2"/><line x1="750.758594917788" y1="460.0983771064149" x2="223.180119581465" y2="728.947162590839" stroke="yellow" opacity="0.35" stroke-width="2"/></svg>