<svg viewBox="0,0,954,1144.8" width="954" height="1144.8" style="width: 100%; height: auto;" xmlns="http://www.w3.org/2000/svg" xmlns:xlink="http://www.w3.org/1999/xlink"><rect width="954" height="1144.8" fill="black"/><g stroke="#000" stroke-opacity="0.2"><path d="M0,-13.34775705149959L2.9967581703553763,-4.1246837657014135L12.69447132175327,-4.124683765701414L4.848856575698947,1.5754890056530315L7.845614746054325,10.798562291451207L8.881784197001252e-16,5.098389520096762L-7.845614746054323,10.798562291451208L-4.848856575698946,1.5754890056530328L-12.694471321753271,-4.124683765701411L-2.9967581703553776,-4.124683765701413Z" transform="translate(573.7532963702106,986.4439915019757)rotate(12.467271888740491)" fill="white" class="commune"><title>insee_com : 39478 
Population : 9279
 Nom : SAINT CLAUDE</title></path><path d="M0,-15.873247654971056L3.5637661381291506,-4.905103281308338L15.096355617026989,-4.905103281308339L5.766294739448918,1.873582735131148L9.330060877578072,12.841727108793865L8.881784197001252e-16,6.063041092354379L-9.330060877578068,12.841727108793867L-5.766294739448918,1.8735827351311491L-15.09635561702699,-4.905103281308335L-3.563766138129152,-4.905103281308337Z" transform="translate(354.4266986681314,691.7222357265346)rotate(14.131339869689608)" fill="white" class="commune"><title>insee_com : 39300 
Population : 17291
 Nom : LONS LE SAUNIER</title></path><path d="M0,-18.876579049491834L4.238056047668955,-5.833183721955068L17.952693510379785,-5.833183721955069L6.857318731355415,2.2280779191642193L11.095374779024372,15.271473246700983L8.881784197001252e-16,7.210211605581696L-11.095374779024368,15.271473246700985L-6.857318731355414,2.2280779191642206L-17.952693510379788,-5.833183721955065L-4.238056047668956,-5.833183721955068Z" transform="translate(304.65146688093637,251.94890327251778)rotate(6.027218308092789)" fill="white" class="commune"><title>insee_com : 39198 
Population : 23708
 Nom : DOLE</title></path></g><text class="text" y="40" x="427" text-anchor="middle" font-size="36" font-family="Helvetica" fill="#6baed6">39  - JURA</text><line x1="307.96981566674935" y1="281.2671254361189" x2="351.1083498823184" y2="662.4040135629334" stroke="yellow" opacity="0.35" stroke-width="2"/><line x1="369.04847184827" y1="711.3703527782307" x2="559.131523190072" y2="966.7958744502796" stroke="yellow" opacity="0.35" stroke-width="2"/><line x1="555.813174404259" y1="937.4776522866784" x2="322.591588846888" y2="300.91524248781496" stroke="yellow" opacity="0.35" stroke-width="2"/></svg>