<svg viewBox="0,0,900,600" width="900" height="600" style="width: 100%; height: auto;" xmlns="http://www.w3.org/2000/svg" xmlns:xlink="http://www.w3.org/1999/xlink"><rect width="954" height="1144.8" fill="black"/><g stroke="#000" stroke-opacity="0.2"><path d="M0,-20.67825630787221L4.642557794558953,-6.3899326131734675L19.66619040722323,-6.389932613173468L7.511816306332137,2.4407370724108297L12.154374100891093,16.729060767109573L8.881784197001252e-16,7.898391081525274L-12.15437410089109,16.729060767109573L-7.511816306332137,2.4407370724108315L-19.66619040722323,-6.389932613173464L-4.642557794558955,-6.389932613173467Z" transform="translate(880.0000000000036,231.18201500587747)" fill="white" class="commune"><title>06</title></path><path d="M0,-12.295364763585766L2.760481380550424,-3.7994766639869093L11.693586778634064,-3.7994766639869098L4.466552699041819,1.4512709461809354L7.227034079592245,9.947159045779792L8.881784197001252e-16,4.696411435611947L-7.227034079592243,9.947159045779793L-4.466552699041818,1.4512709461809363L-11.693586778634064,-3.799476663986907L-2.760481380550425,-3.7994766639869084Z" transform="translate(20,448.8179849941225)" fill="white" class="commune"><title>06</title></path></g><text class="text" y="25" x="477" text-anchor="middle" font-size="16" font-family="Helvetica" fill="#878787">06 - ALPES MARITIMES</text><line x1="822.66666666667" y1="245.6910796717605" x2="77.33333333333357" y2="434.30892032823954" stroke="yellow" stroke-width="0.3"/><line x1="77.33333333333357" y1="434.30892032823954" x2="822.66666666667" y2="245.6910796717605" stroke="yellow" stroke-width="0.3"/></svg>