<svg viewBox="0,0,900,600" width="900" height="600" style="width: 100%; height: auto;" xmlns="http://www.w3.org/2000/svg" xmlns:xlink="http://www.w3.org/1999/xlink"><rect width="954" height="1144.8" fill="black"/><g stroke="#000" stroke-opacity="0.2"><path d="M0,-8.694135801493626L1.951955103526407,-2.6866357140651846L8.2686145075655,-2.686635714065185L3.1583297020195467,1.0262035273835566L5.110284805545955,7.033703614811998L4.440892098500626e-16,3.320864373363256L-5.1102848055459535,7.033703614811999L-3.158329702019546,1.026203527383557L-8.268614507565502,-2.6866357140651833L-1.9519551035264078,-2.686635714065184Z" transform="translate(761.1138099606123,100)" fill="white" class="commune"><title>05</title></path><path d="M0,-12.295364763585766L2.760481380550424,-3.7994766639869093L11.693586778634064,-3.7994766639869098L4.466552699041819,1.4512709461809354L7.227034079592245,9.947159045779792L8.881784197001252e-16,4.696411435611947L-7.227034079592243,9.947159045779793L-4.466552699041818,1.4512709461809363L-11.693586778634064,-3.799476663986907L-2.760481380550425,-3.7994766639869084Z" transform="translate(138.88619003938584,580)" fill="white" class="commune"><title>05</title></path></g><text class="text" y="25" x="477" text-anchor="middle" font-size="16" font-family="Helvetica" fill="#878787">05 - HAUTES ALPES</text><line x1="719.6319686325306" y1="132" x2="180.3680313674676" y2="548" stroke="yellow" stroke-width="0.3"/><line x1="180.3680313674676" y1="548" x2="719.6319686325306" y2="132" stroke="yellow" stroke-width="0.3"/></svg>