<svg viewBox="0,0,955,1146" width="955" height="1146" style="width: 100%; height: auto;" xmlns="http://www.w3.org/2000/svg" xmlns:xlink="http://www.w3.org/1999/xlink"><rect width="955" height="1146" fill="black"/><g stroke="#000" stroke-opacity="0.2"><path d="M0,-13.34775705149959L2.9967581703553763,-4.1246837657014135L12.69447132175327,-4.124683765701414L4.848856575698947,1.5754890056530315L7.845614746054325,10.798562291451207L8.881784197001252e-16,5.098389520096762L-7.845614746054323,10.798562291451208L-4.848856575698946,1.5754890056530328L-12.694471321753271,-4.124683765701411L-2.9967581703553776,-4.124683765701413Z" transform="translate(202.38995873452495,399.16557655710494)rotate(29.184254632334802)" fill="white" class="commune"><title>21425 Population : 5334</title></path><path d="M0,-18.876579049491834L4.238056047668955,-5.833183721955068L17.952693510379785,-5.833183721955069L6.857318731355415,2.2280779191642193L11.095374779024372,15.271473246700983L8.881784197001252e-16,7.210211605581696L-11.095374779024368,15.271473246700985L-6.857318731355414,2.2280779191642206L-17.952693510379788,-5.833183721955065L-4.238056047668956,-5.833183721955068Z" transform="translate(505.5089408528197,979.6809233454769)rotate(6.298965317212957)" fill="white" class="commune"><title>21054 Population : 21644</title></path><path d="M0,-26.69551410299918L5.993516340710753,-8.249367531402827L25.38894264350654,-8.249367531402829L9.697713151397894,3.150978011306063L15.69122949210865,21.597124582902413L1.7763568394002505e-15,10.196779040193524L-15.691229492108645,21.597124582902417L-9.697713151397892,3.1509780113060657L-25.388942643506542,-8.249367531402822L-5.993516340710755,-8.249367531402825Z" transform="translate(629.9931224209072,706.822481580195)rotate(8.601818378070918)" fill="white" class="commune"><title>21231 Population : 155090</title></path></g><text class="text" y="40" x="427.5" text-anchor="middle" font-size="36" font-family="Helvetica" fill="#6baed6">21 - COTE D OR</text><line x1="513.8078862906922" y1="961.4903605611248" x2="621.6941769830347" y2="725.0130443645471" stroke="yellow" opacity="0.35" stroke-width="2"/><line x1="601.486244841815" y1="686.3120212453224" x2="230.8968363136171" y2="419.6760368919776" stroke="yellow" opacity="0.35" stroke-width="2"/><line x1="222.5978908757446" y1="437.86659967632977" x2="485.30100871160005" y2="940.9799002262521" stroke="yellow" opacity="0.35" stroke-width="2"/></svg>