<svg viewBox="0,0,955,1146" width="955" height="1146" style="width: 100%; height: auto;" xmlns="http://www.w3.org/2000/svg" xmlns:xlink="http://www.w3.org/1999/xlink"><rect width="955" height="1146" fill="black"/><g stroke="#000" stroke-opacity="0.2"><path d="M0,-13.34775705149959L2.9967581703553763,-4.1246837657014135L12.69447132175327,-4.124683765701414L4.848856575698947,1.5754890056530315L7.845614746054325,10.798562291451207L8.881784197001252e-16,5.098389520096762L-7.845614746054323,10.798562291451208L-4.848856575698946,1.5754890056530328L-12.694471321753271,-4.124683765701411L-2.9967581703553776,-4.124683765701413Z" transform="translate(565.2423947652574,559.4115164437135)rotate(24.98018756580159)" fill="white" class="commune"><title>26113 Population : 4585</title></path><path d="M0,-13.34775705149959L2.9967581703553763,-4.1246837657014135L12.69447132175327,-4.124683765701414L4.848856575698947,1.5754890056530315L7.845614746054325,10.798562291451207L8.881784197001252e-16,5.098389520096762L-7.845614746054323,10.798562291451208L-4.848856575698946,1.5754890056530328L-12.694471321753271,-4.124683765701411L-2.9967581703553776,-4.124683765701413Z" transform="translate(408.1296590123052,907.0183504714478)rotate(0.32936225304431854)" fill="white" class="commune"><title>26220 Population : 6742</title></path><path d="M0,-22.448162112566994L5.039926405668234,-6.936863585267022L21.349470856006818,-6.936863585267023L8.154772225169292,2.649646114250548L13.19469863083753,18.16094464155052L8.881784197001252e-16,8.574434942032948L-13.194698630837525,18.160944641550522L-8.154772225169292,2.649646114250549L-21.34947085600682,-6.936863585267019L-5.0399264056682345,-6.936863585267021Z" transform="translate(271.2895343242503,403.9662972812548)rotate(14.057905790084648)" fill="white" class="commune"><title>26362 Population : 62477</title></path></g><text class="text" y="40" x="427.5" text-anchor="middle" font-size="36" font-family="Helvetica" fill="#6baed6">26 - DROME</text><line x1="554.7682123817273" y1="582.5853053788958" x2="418.60384139583533" y2="883.8445615362655" stroke="yellow" opacity="0.35" stroke-width="2"/><line x1="399.0069840331015" y1="873.4815469254349" x2="280.412209303454" y2="437.50310082726764" stroke="yellow" opacity="0.35" stroke-width="2"/><line x1="290.88639168698415" y1="414.3293118920854" x2="545.6455374025236" y2="549.048501832883" stroke="yellow" opacity="0.35" stroke-width="2"/></svg>