<svg viewBox="0,0,600,600" width="600" height="600" style="width: 100%; height: auto;" xmlns="http://www.w3.org/2000/svg" xmlns:xlink="http://www.w3.org/1999/xlink"><rect width="752" height="902.4" fill="black"/><path d="M205.2547770700637,134.33455700308332L205.57324840764318,134.33455700308332L205.57324840764318,133.86995342157024L205.57324840764318,132.94072041781692L205.2547770700637,132.01145295665992L205.2547770700637,130.617487149284L204.9363057324839,128.75874543748796L204.9363057324839,128.29403846445712L204.9363057324839,127.82932287245785L205.2547770700637,127.36459866103905L207.80254777070058,124.11128779865248L210.35031847133757,121.78723564143002L210.98726114649662,121.32239933557139L211.9426751592356,120.8575544038431L212.89808917197445,120.3927008457722L214.49044585987258,119.4629678487363L215.4458598726112,118.53320034080025L215.4458598726112,118.53320034080025L215.4458598726112,117.13848436284752L215.12738853503163,115.27874223624167L215.4458598726112,114.81378512602896L215.76433121019102,114.34881938347826L216.40127388535007,114.34881938347826L217.03821656050945,114.34881938347826L219.26751592356663,113.41886199945657L221.17834394904446,112.0238611692912L221.49681528662404,112.0238611692912L222.4522292993629,111.55884362293727L223.08917197452217,111.55884362293727L224.3630573248406,111.09381744100392L226.27388535031832,110.16373916852172L226.5923566878979,109.69868707707064L226.5923566878979,109.69868707707064L226.5923566878979,109.23362634817022L226.5923566878979,109.23362634817022L226.27388535031832,108.30347897623142L225.63694267515905,107.37329704900912L225.31847133757947,106.90819312600433L225.31847133757947,106.44308056280352L225.31847133757947,105.97795935891554L225.31847133757947,105.97795935891554L226.9108280254776,105.04769102729188L227.54777070063676,104.58254389861395L229.77707006369417,103.18705065560425L230.7324840764329,103.18705065560425L231.68789808917177,102.7218689540532L232.32484076433116,102.7218689540532L232.96178343949032,102.25667860814428L234.87261146496803,102.25667860814428L234.87261146496803,102.25667860814428L235.5095541401273,103.65222371323762L235.82802547770677,102.7218689540532L235.82802547770677,102.7218689540532L236.46496815286616,103.18705065560425L237.7388535031846,104.58254389861395L239.6496815286623,104.58254389861395L239.6496815286623,104.11738812741169L239.9681528662419,102.7218689540532L240.60509554140117,101.79147961739727L241.56050955414003,100.39583077147836L241.8789808917196,99.00010410534742L241.8789808917196,98.5348445877571L242.1974522292992,98.5348445877571L242.1974522292992,98.5348445877571L242.83439490445846,98.5348445877571L244.4267515923566,98.5348445877571L246.6560509554139,98.5348445877571L247.61146496815286,98.5348445877571L247.92993630573244,98.5348445877571L249.20382165605088,99.00010410534742L250.15923566878973,99.46535497484365L250.7961783439489,99.93059719673693L251.11464968152848,100.39583077147836L251.43312101910817,100.86105569951542L252.07006369426733,101.79147961739727L253.34394904458588,101.79147961739727L254.61783439490443,101.79147961739727L255.57324840764318,101.32627198133923L257.4840764331208,100.86105569951542L259.7133757961782,100.39583077147836L260.0318471337579,100.39583077147836L260.35031847133735,100.39583077147836L261.3057324840763,100.86105569951542L261.6242038216558,101.32627198133923L262.57961783439475,102.7218689540532L262.57961783439475,102.7218689540532L264.1719745222929,103.18705065560425L264.80891719745205,102.7218689540532L264.80891719745205,103.65222371323762L265.12738853503174,103.65222371323762L265.4458598726113,104.11738812741169L266.0828025477706,105.51282951389658L266.4012738853502,107.37329704900912L266.4012738853502,108.76855698137297L266.0828025477706,111.55884362293727L266.4012738853502,112.48887008051315L266.71974522292976,112.95387035709064L266.71974522292976,113.41886199945657L267.6751592356686,115.27874223624167L269.26751592356675,118.53320034080025L270.2229299363056,119.92783866088939L270.5414012738852,119.92783866088939L271.8152866242036,120.8575544038431L273.08917197452206,122.25206332187008L274.9999999999999,124.57607235892647L275.63694267515905,125.50561561197173L275.95541401273874,125.97037430567798L277.5477707006369,126.43512437811296L277.86624203821646,126.43512437811296L279.4585987261146,127.82932287245785L281.3694267515922,129.2234437920306L281.3694267515922,129.6881335285434L281.6878980891719,129.6881335285434L282.00636942675146,129.6881335285434L283.5987261146497,130.15281464746658L285.5095541401272,130.617487149284L285.8280254777069,130.617487149284L287.1019108280253,131.08215103444672L288.0573248407642,131.5468063034241L288.69426751592357,132.01145295665992L290.2866242038216,132.4760909946417L291.56050955414,132.94072041781692L292.5159235668789,132.94072041781692L293.78980891719743,132.94072041781692L294.74522292993606,133.4053412266294L295.70063694267503,133.86995342157024L296.0191082802546,134.33455700308332L296.3375796178342,134.33455700308332L296.9745222929936,135.26373832767422L297.29299363057316,135.72831607167973L297.61146496815263,136.19288520408736L297.61146496815263,136.65744572538097L297.9299363057323,137.58654093647056L298.248407643312,138.05107562716148L299.84076433121004,140.37361995071842L300.1592356687896,140.8381029926495L300.4777070063693,140.8381029926495L301.1146496815286,141.76704325744504L301.43312101910806,142.23150048122625L301.75159235668775,142.23150048122625L301.75159235668775,142.69594909986336L302.07006369426733,142.69594909986336L302.7070063694266,144.08924332959577L303.66242038216546,145.48246012969685L304.6178343949043,146.875599512583L306.21019108280234,149.1973264795597L306.52866242038203,150.12595707550645L307.4840764331209,151.05455328219978L309.0764331210189,151.51883849073056L309.3949044585987,151.51883849073056L311.9426751592356,152.44738312044865L313.5350318471337,153.84013560357562L315.12738853503174,154.76859429005344L316.4012738853502,155.6970186056642L318.94904458598717,156.62540855408588L319.58598726114633,156.62540855408588L319.904458598726,155.6970186056642L320.2229299363056,155.6970186056642L320.5414012738852,155.23281074397892L321.17834394904446,155.23281074397892L322.1337579617833,155.23281074397892L323.40764331210187,154.76859429005344L324.3630573248405,153.84013560357562L324.9999999999999,153.37589337011377L326.27388535031844,151.98311510332496L327.2292993630573,151.51883849073056L327.2292993630573,150.12595707550645L327.2292993630573,148.73299828446397L329.140127388535,147.80431609774678L329.77707006369417,147.80431609774678L330.41401273885333,147.33996210519763L332.32484076433127,145.94684852529463L332.9617834394902,145.48246012969685L334.23566878980876,144.55365753231308L335.1910828025476,144.08924332959577L336.46496815286616,143.62482052360065L337.420382165605,143.16038911383657L337.7388535031847,142.69594909986336L338.0573248407642,142.23150048122625L338.3757961783439,141.76704325744504L339.01273885350304,140.8381029926495L339.33121019108273,140.37361995071842L339.9681528662419,139.90912830179514L340.2866242038216,139.44462804543946L340.92356687898075,138.98011918120028L343.15286624203816,138.98011918120028L343.4713375796176,139.44462804543946L344.4267515923567,139.44462804543946L344.7452229299362,139.90912830179514L345.06369426751564,139.90912830179514L345.70063694267503,140.37361995071842L346.3375796178342,140.37361995071842L346.6560509554139,140.37361995071842L347.61146496815275,140.37361995071842L348.2484076433119,139.90912830179514L348.2484076433119,139.90912830179514L348.88535031847107,139.44462804543946L349.52229299363046,138.98011918120028L350.4777070063693,138.98011918120028L350.796178343949,142.69594909986336L350.796178343949,144.55365753231308L351.75159235668787,145.94684852529463L352.388535031847,146.875599512583L353.3439490445859,148.26866149068883L353.66242038216535,150.12595707550645L353.98089171974505,150.5902594772706L354.6178343949042,151.98311510332496L356.5286624203819,152.44738312044865L357.80254777070047,152.44738312044865L358.7579617834393,152.44738312044865L359.7133757961782,152.44738312044865L360.0318471337579,152.44738312044865L361.3057324840762,153.84013560357562L361.9426751592356,153.84013560357562L363.8535031847131,153.84013560357562L366.4012738853502,153.37589337011377L366.71974522292965,152.91164254256364L367.35668789808904,152.44738312044865L367.67515923566873,152.44738312044865L368.3121019108279,151.98311510332496L368.94904458598705,151.51883849073056L371.17834394904446,151.51883849073056L372.1337579617833,149.1973264795597L373.40764331210187,147.80431609774678L374.3630573248405,146.41122831942994L374.9999999999999,144.55365753231308L375.31847133757935,143.62482052360065L375.31847133757935,142.23150048122625L375.95541401273874,141.30257742807225L376.5923566878979,140.8381029926495L377.86624203821646,139.90912830179514L378.1847133757959,139.90912830179514L378.8216560509553,139.90912830179514L379.1401273885348,139.90912830179514L379.77707006369417,139.90912830179514L380.732484076433,139.90912830179514L381.0509554140125,139.90912830179514L383.9171974522293,141.30257742807225L384.8726114649679,141.76704325744504L387.4203821656048,142.23150048122625L387.4203821656048,142.23150048122625L387.7388535031845,141.76704325744504L388.0573248407642,141.30257742807225L389.6496815286622,140.8381029926495L391.5605095541399,141.30257742807225L392.83439490445846,141.30257742807225L392.83439490445846,141.30257742807225L392.51592356687877,142.69594909986336L391.5605095541399,145.48246012969685L391.5605095541399,146.41122831942994L391.5605095541399,147.33996210519763L392.51592356687877,149.66164607641258L395.06369426751587,150.12595707550645L396.6560509554139,150.12595707550645L397.29299363057305,150.5902594772706L398.24840764331213,151.51883849073056L398.88535031847107,152.91164254256364L399.203821656051,155.23281074397892L399.203821656051,156.62540855408588L398.24840764331213,158.9462330928436L397.29299363057305,160.33862474942725L396.97452229299336,161.26684291703714L397.29299363057305,163.12317622051705L396.97452229299336,163.58723808411742L395.38216560509557,164.5153360597942L396.97452229299336,164.97937217279105L397.92993630573244,165.90741865140444L398.5668789808916,166.37142901794869L399.203821656051,167.76340863197038L399.52229299363046,169.15531102723617L400.1592356687896,169.15531102723617L402.388535031847,168.6913521412389L405.5732484076433,168.2273846763128L407.1656050955413,168.6913521412389L408.12101910828017,169.61926133473753L409.3949044585985,168.6913521412389L409.7133757961782,168.2273846763128L409.7133757961782,167.76340863197038L410.0318471337579,166.83543080325035L409.7133757961782,165.90741865140444L410.98726114649673,164.5153360597942L412.26114649681506,163.58723808411742L413.21656050955414,162.19502673951865L414.49044585987247,160.33862474942725L416.4012738853502,158.9462330928436L416.71974522292965,158.48208536408856L417.9936305732482,157.55376413901467L417.6751592356685,156.16121787554948L418.3121019108279,154.30436924340756L420.54140127388507,153.37589337011377L422.7707006369425,152.44738312044865L423.40764331210164,151.98311510332496L424.04458598726103,151.98311510332496L424.04458598726103,151.98311510332496L424.9999999999999,152.91164254256364L425.9554140127385,154.30436924340756L425.9554140127385,154.30436924340756L425.9554140127385,154.76859429005344L426.27388535031844,155.6970186056642L426.5923566878979,156.16121787554948L427.22929936305707,156.62540855408588L428.8216560509553,157.08959064176088L429.140127388535,156.62540855408588L430.732484076433,154.30436924340756L431.0509554140125,153.84013560357562L432.00636942675135,153.37589337011377L432.64331210191074,152.44738312044865L433.2802547770699,151.98311510332496L432.9617834394902,151.51883849073056L432.64331210191074,151.05455328219978L432.32484076433104,151.05455328219978L431.0509554140125,147.80431609774678L429.140127388535,144.08924332959577L429.140127388535,143.16038911383657L429.140127388535,142.69594909986336L429.140127388535,142.69594909986336L429.4585987261145,141.76704325744504L429.77707006369394,141.30257742807225L429.77707006369394,139.90912830179514L429.140127388535,138.5156017085901L429.140127388535,138.05107562716148L428.8216560509553,138.05107562716148L428.8216560509553,137.1219976360262L429.140127388535,136.19288520408736L429.140127388535,136.65744572538097L431.0509554140125,136.65744572538097L432.32484076433104,137.58654093647056L432.64331210191074,138.05107562716148L432.64331210191074,138.5156017085901L432.9617834394902,138.98011918120028L434.23566878980876,139.44462804543946L435.1910828025476,139.44462804543946L436.46496815286616,139.44462804543946L437.420382165605,139.44462804543946L436.78343949044563,138.05107562716148L436.78343949044563,137.1219976360262L437.7388535031847,136.19288520408736L438.0573248407642,136.19288520408736L438.37579617834365,136.19288520408736L438.37579617834365,136.19288520408736L438.69426751592334,136.65744572538097L438.69426751592334,136.65744572538097L438.69426751592334,137.1219976360262L438.69426751592334,138.05107562716148L438.37579617834365,139.44462804543946L438.0573248407642,139.44462804543946L438.37579617834365,139.90912830179514L438.37579617834365,139.90912830179514L440.2866242038216,138.98011918120028L441.8789808917196,137.58654093647056L444.7452229299362,135.72831607167973L445.06369426751564,135.72831607167973L445.06369426751564,134.33455700308332L444.7452229299362,133.4053412266294L444.108280254777,132.94072041781692L444.108280254777,132.4760909946417L443.47133757961785,132.01145295665992L442.51592356687877,130.617487149284L441.8789808917196,130.15281464746658L441.24203821656045,128.75874543748796L440.60509554140106,127.82932287245785L440.2866242038216,126.89986582975325L440.60509554140106,126.43512437811296L440.60509554140106,125.97037430567798L439.01273885350304,125.04084829654676L438.0573248407642,124.57607235892647L438.0573248407642,123.64649461528461L438.69426751592334,123.18169280833172L439.6496815286622,122.25206332187008L440.2866242038216,122.25206332187008L440.60509554140106,121.78723564143002L440.9235668789805,121.78723564143002L441.24203821656045,120.8575544038431L441.5605095541399,120.8575544038431L441.5605095541399,119.4629678487363L442.1974522292993,118.53320034080025L442.1974522292993,118.0683036440787L443.15286624203816,117.60339831826059L443.7898089171973,117.60339831826059L445.06369426751564,118.0683036440787L444.7452229299362,120.3927008457722L444.7452229299362,120.3927008457722L444.7452229299362,120.8575544038431L445.06369426751564,121.78723564143002L445.38216560509557,121.78723564143002L446.3375796178342,123.18169280833172L447.6114649681525,122.7168823773427L451.75159235668764,121.78723564143002L452.07006369426733,121.78723564143002L452.388535031847,121.78723564143002L452.7070063694267,121.78723564143002L453.0254777070062,121.78723564143002L453.3439490445859,121.78723564143002L453.98089171974505,122.25206332187008L454.61783439490443,122.7168823773427L454.61783439490443,123.18169280833172L454.9363057324839,123.64649461528461L455.2547770700636,124.57607235892647L454.9363057324839,125.04084829654676L454.9363057324839,125.50561561197173L454.29936305732474,126.43512437811296L453.3439490445859,126.89986582975325L453.0254777070062,127.36459866103905L453.0254777070062,127.82932287245785L453.0254777070062,128.29403846445712L453.0254777070062,128.75874543748796L453.0254777070062,129.2234437920306L453.6624203821656,130.15281464746658L453.98089171974505,130.617487149284L454.61783439490443,131.08215103444672L455.57324840764306,132.01145295665992L456.5286624203819,132.94072041781692L456.8471337579616,133.86995342157024L457.4840764331208,134.799151971627L457.80254777070047,136.19288520408736L457.80254777070047,137.58654093647056L457.80254777070047,143.16038911383657L457.80254777070047,143.62482052360065L457.80254777070047,143.62482052360065L458.12101910827994,143.62482052360065L459.3949044585985,144.08924332959577L460.66878980891704,144.08924332959577L461.3057324840762,144.08924332959577L461.6242038216559,144.08924332959577L461.9426751592356,144.55365753231308L461.9426751592356,144.55365753231308L461.9426751592356,145.0180631321855L461.9426751592356,145.48246012969685L462.26114649681506,147.80431609774678L462.89808917197445,150.12595707550645L463.2165605095539,152.44738312044865L463.5350318471336,152.91164254256364L464.17197452229277,153.84013560357562L464.17197452229277,153.84013560357562L464.49044585987247,153.84013560357562L467.35668789808904,154.30436924340756L467.9936305732482,154.30436924340756L467.9936305732482,154.30436924340756L468.31210191082766,154.30436924340756L468.94904458598705,155.23281074397892L468.94904458598705,155.23281074397892L468.94904458598705,156.16121787554948L468.6305732484076,156.16121787554948L467.9936305732482,157.08959064176088L467.67515923566873,158.01792904629474L467.67515923566873,158.48208536408856L467.67515923566873,158.9462330928436L467.67515923566873,158.9462330928436L467.9936305732482,159.41037223300373L468.31210191082766,160.33862474942725L468.94904458598705,160.33862474942725L470.2229299363056,160.80273812661108L470.54140127388507,161.26684291703714L472.1337579617833,161.7309391211893L474.04458598726103,162.6591057724654L475.0000000000001,163.58723808411742L475.63694267515905,164.0512913637176L476.27388535031844,164.97937217279105L476.5923566878979,164.97937217279105L476.9108280254776,165.90741865140444L477.22929936305707,166.83543080325035L477.22929936305707,167.76340863197038L477.547770700637,169.15531102723617L477.547770700637,169.15531102723617L478.5031847133756,171.01106079093006L478.8216560509553,171.47497678908258L478.8216560509553,172.40278305725224L479.140127388535,172.86667332820434L480.09554140127386,175.64983489872247L481.0509554140125,177.50510449825742L482.32484076433104,178.43268787477064L482.64331210191074,178.8964667088112L483.2802547770697,179.36023697400014L484.8726114649679,180.2877517996094L485.1910828025476,181.21523235526547L485.1910828025476,181.21523235526547L485.1910828025476,182.60638894059593L484.8726114649679,183.07009067136823L483.5987261146496,184.9248119515796L482.64331210191074,185.85212121237782L482.32484076433104,185.85212121237782L481.6878980891719,187.24302088974582L481.6878980891719,188.63384352149296L481.6878980891719,189.09743394628094L482.00636942675135,189.56101581228722L482.9617834394902,190.48815386973365L483.2802547770697,190.48815386973365L483.91719745222906,190.9517100620942L485.1910828025476,190.9517100620942L487.4203821656048,190.9517100620942L488.0573248407642,190.9517100620942L488.69426751592334,191.41525769749205L489.01273885350304,191.87879677636374L489.33121019108273,192.34232729919677L489.33121019108273,192.80584926643132L489.33121019108273,193.26936267851852L489.33121019108273,193.73286753593857L488.69426751592334,194.659851588538L488.69426751592334,194.659851588538L488.3757961783439,195.1233307846378L488.3757961783439,195.58680142789308L488.3757961783439,196.05026351875495L489.33121019108273,198.36744570305746L489.9681528662419,200.22103755392527L489.9681528662419,200.68441414592962L489.9681528662419,201.14778219055006L490.2866242038216,203.92781098901105L490.2866242038216,204.39111921478616L490.60509554140106,205.78099263163313L491.2420382165602,207.6340375965774L491.2420382165602,208.56050883404896L491.2420382165602,209.02373164312303L490.92356687898075,210.87653749237143L490.60509554140106,211.33971761020075L490.60509554140106,211.80288919113082L490.60509554140106,212.26605223565275L490.2866242038216,212.72920674418492L489.9681528662419,213.19235271721482L488.69426751592334,214.11861905853948L488.3757961783439,214.58173942775102L488.3757961783439,214.58173942775102L488.3757961783439,214.58173942775102L488.3757961783439,214.58173942775102L487.7388535031847,215.50795456554624L487.7388535031847,216.43413557220993L487.7388535031847,216.89721327751613L488.3757961783439,218.28639520672368L488.69426751592334,218.7494387890947L489.9681528662419,220.13851836044705L490.92356687898075,221.52752117774435L492.51592356687877,222.4534804208597L493.15286624203793,222.4534804208597L494.7452229299362,222.91644725325386L495.38216560509534,222.91644725325386L496.9745222929936,222.4534804208597L498.88535031847107,221.52752117774435L499.20382165605076,221.52752117774435L499.52229299363046,221.52752117774435L499.8407643312099,221.52752117774435L500.4777070063691,221.52752117774435L500.4777070063691,221.52752117774435L502.3885350318468,222.91644725325386L502.3885350318468,223.37940556016474L502.07006369426733,224.3052965992938L502.3885350318468,224.76822933243602L502.3885350318468,225.2311535418994L502.7070063694265,225.6940692281314L503.0254777070062,226.15697639160499L503.3439490445859,226.61987503276396L503.3439490445859,226.61987503276396L504.29936305732474,226.61987503276396L504.6178343949042,226.61987503276396L505.57324840764306,226.61987503276396L506.21019108280245,226.61987503276396L507.1656050955413,226.61987503276396L507.484076433121,226.61987503276396L507.484076433121,227.08276515205216L507.80254777070047,227.08276515205216L508.12101910827994,227.54564674993526L509.076433121019,228.9342404197305L509.076433121019,228.9342404197305L509.3949044585985,229.85992693425578L509.7133757961782,230.3227574132652L510.0318471337579,230.3227574132652L510.35031847133735,230.3227574132652L510.98726114649673,230.78557937406003L511.6242038216559,230.78557937406003L512.5796178343948,230.3227574132652L512.8980891719742,229.85992693425578L513.2165605095537,229.85992693425578L513.8535031847131,229.39708793655882L514.4904458598725,228.47138438333423L515.1273885350316,228.00851982688255L516.0828025477705,227.54564674993526L517.3566878980893,226.61987503276396L520.2229299363056,225.2311535418994L520.8598726114648,224.76822933243602L521.4968152866242,224.76822933243602L521.8152866242036,225.2311535418994L522.7707006369425,225.6940692281314L523.089171974522,226.15697639160499L523.7261146496813,227.08276515205216L524.044585987261,228.00851982688255L524.044585987261,228.47138438333423L524.044585987261,228.47138438333423L524.044585987261,228.9342404197305L523.4076433121016,229.85992693425578L522.452229299363,230.3227574132652L522.452229299363,230.78557937406003L522.1337579617831,231.24839281708773L522.1337579617831,231.24839281708773L522.1337579617831,231.71119774279214L522.1337579617831,232.63678204409734L522.452229299363,232.63678204409734L522.7707006369425,233.09956142060037L523.4076433121016,233.56233228159908L523.7261146496813,233.56233228159908L524.044585987261,233.56233228159908L524.3630573248405,233.56233228159908L524.6815286624202,233.56233228159908L524.9999999999999,233.56233228159908L525.6369426751593,233.09956142060037L526.9108280254776,232.63678204409734L527.5477707006368,232.17399415165346L527.8662420382165,232.17399415165346L528.5031847133756,232.63678204409734L529.140127388535,233.09956142060037L529.7770700636942,233.56233228159908L529.7770700636942,234.02509462757007L529.7770700636942,234.02509462757007L529.7770700636942,235.41333057976226L529.4585987261145,236.3387786476851L529.4585987261145,236.80148991294845L529.140127388535,237.7268869083382L528.5031847133756,239.57757877130643L528.5031847133756,241.8907521478577L528.8216560509553,242.81596194720987L528.8216560509553,243.2785540877303L529.4585987261145,243.7411377227436L530.4140127388533,244.66627947805318L531.0509554140125,245.1288375992699L532.324840764331,245.59138721677664L534.2356687898088,245.59138721677664L534.8726114649679,246.05392833106453L536.1464968152865,246.97898505171906L537.1019108280253,247.44150065900976L538.0573248407644,248.366506369759L538.3757961783439,248.366506369759L539.012738853503,248.366506369759L539.6496815286622,248.366506369759L539.9681528662419,248.366506369759L540.2866242038214,248.366506369759L540.2866242038214,248.366506369759L540.6050955414013,246.97898505171906L540.6050955414013,246.51646094255193L540.6050955414013,245.59138721677664L541.2420382165602,244.66627947805318L541.5605095541399,243.7411377227436L542.1974522292993,243.2785540877303L543.7898089171971,241.8907521478577L544.4267515923565,241.8907521478577L546.3375796178344,241.42813448808374L546.6560509554139,241.42813448808374L546.9745222929934,241.42813448808374L547.2929936305733,241.42813448808374L547.6114649681527,241.42813448808374L548.8853503184713,242.3533613007421L549.2038216560508,242.81596194720987L550.1592356687896,243.2785540877303L551.7515923566876,243.7411377227436L552.0700636942673,243.7411377227436L552.7070063694265,243.7411377227436L553.0254777070062,243.7411377227436L553.980891719745,243.7411377227436L557.1656050955413,243.2785540877303L558.7579617834396,243.2785540877303L559.3949044585985,243.7411377227436L559.7133757961784,243.7411377227436L559.3949044585985,244.66627947805318L559.076433121019,246.05392833106453L559.076433121019,246.51646094255193L558.4394904458596,246.97898505171906L558.1210191082802,247.90400776486422L557.8025477707005,248.366506369759L557.8025477707005,249.29147807843765L557.8025477707005,249.75395118313827L558.1210191082802,249.75395118313827L558.4394904458596,250.2164157886691L558.7579617834396,250.2164157886691L559.3949044585985,250.2164157886691L559.7133757961784,250.2164157886691L560.0318471337579,249.75395118313827L560.668789808917,249.75395118313827L561.9426751592354,249.75395118313827L562.2611464968153,249.75395118313827L562.8980891719742,249.29147807843765L563.5350318471336,249.29147807843765L564.4904458598722,248.82899647412341L565.1273885350316,248.82899647412341L565.4458598726113,249.29147807843765L565.7643312101908,249.29147807843765L565.7643312101908,249.29147807843765L565.7643312101908,250.67887189550675L566.0828025477705,251.1413195040841L566.0828025477705,251.1413195040841L568.3121019108279,252.52861134485283L568.9490445859873,252.99102496496926L569.5859872611464,253.45343008908458L569.9044585987259,253.45343008908458L570.8598726114648,254.3782148511964L571.4968152866242,254.84059449007327L572.452229299363,255.30296563478623L572.7707006369425,255.76532828577183L572.7707006369425,255.76532828577183L573.4076433121019,257.15236528094465L573.7261146496811,258.0770141507528L573.7261146496811,258.5393258489312L573.7261146496811,258.5393258489312L573.0891719745222,259.92621000195504L572.452229299363,260.85075699058507L572.1337579617833,261.3130177522362L572.1337579617833,261.77527002606075L572.452229299363,262.6997491120019L572.7707006369425,263.1619759250352L573.4076433121019,264.0864040934648L574.044585987261,264.5486054497778L574.3630573248405,265.01079832142204L574.6815286624202,265.47298270883766L574.9999999999999,265.93515861250125L574.9999999999999,265.93515861250125L574.3630573248405,266.85948497033314L573.7261146496811,267.3216354254073L573.0891719745222,267.78377739853386L572.7707006369425,267.78377739853386L571.8152866242036,267.3216354254073L571.1783439490447,267.3216354254073L569.9044585987259,268.2459108901603L569.5859872611464,268.2459108901603L569.2675159235667,269.17015243069545L569.2675159235667,269.63226048051365L569.2675159235667,269.63226048051365L569.5859872611464,270.55645114153594L569.9044585987259,271.48060788738076L571.4968152866242,272.4047307216715L571.4968152866242,272.4047307216715L571.8152866242036,272.4047307216715L571.8152866242036,273.32881964803164L571.8152866242036,273.7908513968687L571.8152866242036,273.7908513968687L571.4968152866242,274.25287467008457L571.1783439490447,274.71488946810496L570.8598726114648,275.17689579139915L570.2229299363056,275.17689579139915L568.9490445859873,275.6388936404437L568.6305732484074,276.1008830156461L568.3121019108279,276.5628639174756L567.9936305732484,276.5628639174756L567.9936305732484,277.02483634639793L567.9936305732484,277.94875578727806L568.3121019108279,278.41070280015265L569.2675159235667,280.2584061450143L569.5859872611464,281.1822069997979L569.5859872611464,281.1822069997979L569.5859872611464,281.64409472434636L569.2675159235667,282.56784477004476L567.6751592356685,283.95340633683736L566.7197452229296,284.87707171878355L566.0828025477705,285.3388917123448L565.7643312101908,285.8007032415444L565.7643312101908,286.26250630686263L566.0828025477705,286.7243009087397L566.0828025477705,287.1860870476121L566.4012738853502,289.0331469822195L566.7197452229296,289.49489081288993L567.0382165605093,290.88007154499064L567.356687898089,292.72686076480386L567.6751592356685,294.57351467045373L567.9936305732484,295.49679088947596L567.9936305732484,295.95841631712756L568.6305732484074,296.42003329078216L569.2675159235667,296.88164181091634L569.5859872611464,297.34324187796665L569.9044585987259,298.26641665462375L570.2229299363056,298.72799136513277L570.5414012738853,299.1895576243551L570.5414012738853,299.6511154327527L570.2229299363056,300.1126647907622L569.9044585987259,301.9587777280285L569.5859872611464,303.8047554951954L569.5859872611464,304.2662288200372L569.2675159235667,307.03489142129547L568.9490445859873,307.9577114047934L568.9490445859873,308.4191087328836L569.2675159235667,310.2646136313924L569.2675159235667,310.7259687548067L569.2675159235667,313.0326177870229L568.6305732484074,314.8777851379382L568.3121019108279,316.26157207632787L568.3121019108279,317.1840545301857L568.3121019108279,318.10650325083043L568.6305732484074,318.56771496231886L568.6305732484074,319.0289182418601L568.9490445859873,319.0289182418601L569.2675159235667,319.490113089887L569.5859872611464,319.490113089887L570.2229299363056,319.490113089887L570.5414012738853,319.490113089887L571.1783439490447,319.0289182418601L571.8152866242036,319.0289182418601L573.0891719745222,319.0289182418601L573.7261146496811,319.0289182418601L574.044585987261,319.0289182418601L574.6815286624202,319.0289182418601L573.4076433121019,320.4124774932425L573.0891719745222,320.4124774932425L572.1337579617833,321.33480817595046L571.4968152866242,321.7959608731908L569.5859872611464,323.1793683938049L568.3121019108279,323.6404873784886L566.0828025477705,322.71824098167053L564.4904458598722,322.2571051416053L563.2165605095539,321.7959608731908L562.5796178343948,322.2571051416053L561.6242038216559,322.71824098167053L560.3503184713373,323.1793683938049L559.7133757961784,323.1793683938049L559.076433121019,323.1793683938049L557.8025477707005,322.71824098167053L556.5286624203819,322.71824098167053L556.2101910828022,323.6404873784886L556.8471337579616,324.5627000672248L556.8471337579616,325.02379377219404L556.8471337579616,325.4848790514734L556.8471337579616,325.94595590553945L556.8471337579616,328.25121381315694L556.5286624203819,329.1732580153148L556.5286624203819,330.5562611573732L556.2101910828022,331.01724536354595L553.980891719745,332.8610979942059L552.388535031847,333.3220401056169L551.1146496815285,333.78297379940705L550.796178343949,333.78297379940705L548.5668789808916,333.78297379940705L546.3375796178344,333.3220401056169L545.700636942675,333.3220401056169L545.0636942675156,333.3220401056169L545.0636942675156,333.78297379940705L544.7452229299362,333.78297379940705L541.5605095541399,335.62662440749045L539.3312101910827,337.9309983251369L538.6942675159233,338.39184786747865L538.3757961783439,338.8526889971472L539.3312101910827,341.1567684708789L540.6050955414013,342.539115231546L540.9235668789808,342.99988066720107L541.2420382165602,342.99988066720107L540.9235668789808,343.4606376946431L540.6050955414013,343.4606376946431L539.6496815286622,343.4606376946431L537.420382165605,343.9213863143159L537.1019108280253,343.9213863143159L536.7834394904456,343.9213863143159L536.7834394904456,343.9213863143159L536.7834394904456,343.9213863143159L534.2356687898088,342.99988066720107L531.3694267515924,348.52841018253093L531.3694267515924,348.9890663463375L531.0509554140125,348.9890663463375L530.732484076433,348.9890663463375L530.0955414012739,348.9890663463375L529.7770700636942,348.9890663463375L528.5031847133756,348.9890663463375L527.5477707006368,348.9890663463375L526.9108280254776,349.44971410774815L526.5923566878979,349.44971410774815L525.9554140127387,349.44971410774815L525.3184713375794,349.44971410774815L524.9999999999999,349.44971410774815L524.9999999999999,349.44971410774815L523.7261146496813,349.44971410774815L522.7707006369425,349.91035346718854L521.1783439490445,350.3709844251389L520.5414012738851,350.83160698203574L518.6305732484076,350.83160698203574L516.7197452229299,350.3709844251389L513.8535031847131,351.29222113830474L510.98726114649673,352.21342425081457L510.98726114649673,353.59516592617365L510.98726114649673,354.51628505266854L511.3057324840762,356.81893592857887L510.6687898089168,359.58183995598665L510.35031847133735,359.58183995598665L510.35031847133735,360.04229458550253L510.0318471337579,360.04229458550253L509.3949044585985,360.04229458550253L508.43949044585986,359.58183995598665L507.80254777070047,359.58183995598665L505.2547770700636,358.20042571288286L504.29936305732474,357.7399375121713L503.0254777070062,358.20042571288286L502.7070063694265,358.20042571288286L502.3885350318468,358.20042571288286L502.3885350318468,358.20042571288286L501.1146496815285,358.6609055201261L499.8407643312099,359.1213769343376L499.52229299363046,359.1213769343376L499.20382165605076,360.04229458550253L499.20382165605076,360.5027408233291L499.52229299363046,360.96317866993195L499.8407643312099,362.80484615287423L500.4777070063691,364.64637941173714L500.796178343949,365.10674175727036L500.796178343949,365.5670957160437L501.1146496815285,365.5670957160437L501.75159235668764,365.5670957160437L501.75159235668764,365.5670957160437L501.75159235668764,365.5670957160437L503.3439490445859,367.4084276922549L504.6178343949042,368.32904337129L504.6178343949042,368.78933863510974L504.9363057324839,368.78933863510974L505.2547770700636,370.1701741290635L505.2547770700636,370.6304358626985L505.2547770700636,371.0906892149178L505.57324840764306,371.5509341861507L506.21019108280245,372.93161881838387L506.52866242038215,373.3918302701386L507.80254777070047,373.852033343137L508.43949044585986,374.77241435463293L507.484076433121,375.69276185644776L507.1656050955413,376.1529230423257L506.21019108280245,376.6130758521358L505.89171974522276,377.5333563452623L505.57324840764306,378.913714275448L505.89171974522276,379.83391102776295L506.21019108280245,380.75407428995095L506.21019108280245,382.1342563970975L506.21019108280245,383.0543359496223L507.1656050955413,385.8143737554892L508.43949044585986,388.1141751708383L509.3949044585985,389.49395564221777L510.35031847133735,391.7934225033132L510.98726114649673,393.1730022847951L511.94267515923536,395.47213473377997L511.94267515923536,395.47213473377997L511.94267515923536,395.9319361495436L511.6242038216559,395.9319361495436L511.3057324840762,395.9319361495436L510.6687898089168,395.9319361495436L510.6687898089168,395.9319361495436L509.3949044585985,396.85151391061663L508.7579617834393,397.77105824733735L508.43949044585986,397.77105824733735L508.12101910827994,398.23081788268973L507.484076433121,398.23081788268973L507.1656050955413,398.23081788268973L506.52866242038215,397.77105824733735L506.52866242038215,398.23081788268973L506.21019108280245,398.690569163271L506.21019108280245,398.690569163271L506.21019108280245,399.61004666197186L506.52866242038215,400.52949074695425L507.1656050955413,402.8279547978418L507.80254777070047,405.1262100907479L508.43949044585986,405.5858361032442L509.076433121019,406.9646640565734L510.0318471337579,409.72209462429964L510.0318471337579,409.72209462429964L510.0318471337579,410.18163718015785L509.7133757961782,410.6411713927919L509.3949044585985,411.100697262631L509.076433121019,411.5602147901336L508.7579617834393,412.0197239757399L508.43949044585986,412.47922481987916L508.43949044585986,413.39820148558283L508.43949044585986,414.317144790748L508.43949044585986,415.23605473896896L508.43949044585986,415.69549720530995L508.12101910827994,416.1549313337491L507.80254777070047,417.0737745786355L507.1656050955413,418.451976922679L507.1656050955413,418.451976922679L507.484076433121,418.451976922679L508.12101910827994,418.451976922679L509.3949044585985,418.91136103291865L510.35031847133735,419.3707368083342L510.6687898089168,419.3707368083342L510.98726114649673,420.2894633564865L511.3057324840762,420.7488141301146L511.3057324840762,420.7488141301146L512.2611464968151,423.5047437933172L513.2165605095537,424.88259615860443L513.8535031847131,426.260373562287L514.1719745222928,426.260373562287L515.1273885350316,427.1788501919509L516.0828025477705,428.0972935141908L516.0828025477705,428.556502686115L516.4012738853502,428.556502686115L516.4012738853502,429.01570353251736L516.4012738853502,429.47489605381634L516.4012738853502,429.47489605381634L516.0828025477705,429.9340802504703L515.764331210191,429.9340802504703L514.8089171974519,430.8524236715966L514.4904458598725,431.7707337994325L515.764331210191,432.689010637474L515.764331210191,433.1481365739601L515.764331210191,433.6072541893009L515.1273885350316,434.06636348397296L514.4904458598725,434.9845571130645L514.1719745222928,435.90271746474536L513.8535031847131,436.820844542548L514.1719745222928,437.7389383500049L514.1719745222928,437.7389383500049L514.1719745222928,438.1979727784601L512.5796178343948,440.03402733404437L512.2611464968151,440.03402733404437L511.6242038216559,441.41098094695917L511.3057324840762,443.7057373775133L511.3057324840762,445.5413929218412L510.98726114649673,445.5413929218412L511.6242038216559,448.753470236843L511.6242038216559,449.2123051966737L512.2611464968151,450.1299501997528L513.2165605095537,451.5063554194312L513.5350318471336,452.4239173810747L513.8535031847131,453.34144613231547L513.8535031847131,453.34144613231547L513.8535031847131,453.8001980551271L513.8535031847131,454.2589416766714L513.8535031847131,457.4699146285675L514.1719745222928,460.2218535404136L515.4458598726113,462.9734938278998L516.4012738853502,463.4320715162321L516.7197452229299,463.89064091252294L517.0382165605093,465.26629935351957L517.3566878980893,466.18336352867846L517.3566878980893,466.6418831819501L517.3566878980893,467.10039454623256L517.3566878980893,467.10039454623256L517.3566878980893,467.5588976219915L517.6751592356687,469.3928270485594L517.6751592356687,469.8512886882818L517.6751592356687,469.8512886882818L518.6305732484076,470.30974204209633L518.6305732484076,470.30974204209633L518.9490445859873,470.30974204209633L519.2675159235667,469.8512886882818L519.5859872611462,469.8512886882818L519.5859872611462,469.8512886882818L519.5859872611462,470.30974204209633L519.5859872611462,470.30974204209633L517.3566878980893,471.6850523926114L517.3566878980893,471.6850523926114L517.0382165605093,472.1434726072621L516.7197452229299,473.06028818590494L516.4012738853502,473.5186835507702L516.4012738853502,473.97707063327107L516.4012738853502,474.4354494338295L516.7197452229299,474.4354494338295L517.3566878980893,474.89381995287476L517.3566878980893,474.89381995287476L517.0382165605093,475.8105361482267L516.7197452229299,475.8105361482267L515.764331210191,476.2688818254137L515.1273885350316,476.2688818254137L514.4904458598725,476.2688818254137L514.1719745222928,476.2688818254137L513.8535031847131,476.2688818254137L513.2165605095537,476.2688818254137L512.8980891719742,476.2688818254137L512.5796178343948,476.7272192228411L512.5796178343948,476.7272192228411L512.5796178343948,476.7272192228411L512.2611464968151,476.7272192228411L512.2611464968151,477.18554834097085L512.2611464968151,477.18554834097085L510.98726114649673,477.6438691802323L509.3949044585985,477.18554834097085L509.3949044585985,477.18554834097085L509.076433121019,477.18554834097085L509.076433121019,477.18554834097085L508.43949044585986,477.6438691802323L508.12101910827994,478.10218174105466L508.12101910827994,478.56048602389274L507.484076433121,479.47706975734036L507.1656050955413,480.3936203840967L505.89171974522276,481.7683842568149L504.9363057324839,482.22662233150913L503.0254777070062,482.6848521321481L502.7070063694265,482.6848521321481L502.3885350318468,482.22662233150913L502.07006369426733,481.7683842568149L501.43312101910794,480.85188328354707L499.52229299363046,480.85188328354707L498.5668789808916,480.3936203840967L497.9299363057322,479.9353492088376L497.29299363057305,479.01878202918306L496.6560509554139,478.56048602389274L496.3375796178342,478.10218174105466L495.38216560509534,478.10218174105466L495.06369426751587,478.10218174105466L494.7452229299362,478.10218174105466L494.7452229299362,478.10218174105466L494.7452229299362,479.9353492088376L494.7452229299362,480.85188328354707L494.7452229299362,481.3101379076361L494.7452229299362,482.22662233150913L494.7452229299362,482.22662233150913L494.7452229299362,482.6848521321481L494.108280254777,483.6012869130682L493.7898089171973,484.0594918942006L492.83439490445846,484.5176886030531L490.92356687898075,485.4340572056244L490.92356687898075,485.4340572056244L490.2866242038216,485.4340572056244L489.01273885350304,484.9758770400549L489.01273885350304,484.9758770400549L487.1019108280253,483.6012869130682L485.1910828025476,482.6848521321481L484.55414012738845,482.22662233150913L483.91719745222906,482.22662233150913L482.9617834394902,481.7683842568149L482.00636942675135,481.7683842568149L480.7324840764328,481.7683842568149L480.09554140127386,482.22662233150913L478.1847133757959,484.0594918942006L478.1847133757959,485.89222910022363L478.1847133757959,486.8085480782611L478.5031847133756,487.2666951625579L478.5031847133756,487.72483397763426L478.8216560509553,488.1829645239304L479.140127388535,488.64108680186473L479.4585987261145,488.64108680186473L479.4585987261145,489.09920081190285L479.4585987261145,489.5573065544668L479.4585987261145,489.5573065544668L479.140127388535,490.47349323891467L478.8216560509553,490.47349323891467L478.1847133757959,491.38964685872634L477.86624203821646,491.8477112704859L477.547770700637,492.3057674174088L477.22929936305707,492.3057674174088L476.9108280254776,492.3057674174088L476.27388535031844,492.3057674174088L475.3184713375796,495.05393076169275L475.3184713375796,497.8017966818261L475.63694267515905,501.4651554122356L474.04458598726103,499.63354210628313L473.72611464968134,499.1756181373785L473.40764331210187,498.2597454255847L473.40764331210187,497.8017966818261L473.0891719745222,497.8017966818261L472.1337579617833,496.88587441640266L470.2229299363056,492.7638152999243L471.8152866242036,492.3057674174088L470.2229299363056,489.09920081190285L467.9936305732482,487.72483397763426L467.03821656050934,487.72483397763426L465.12738853503186,487.72483397763426L462.89808917197445,487.2666951625579L461.6242038216559,486.8085480782611L460.35031847133735,486.35039272429276L458.7579617834393,484.9758770400549L458.43949044585986,485.4340572056244L457.4840764331208,486.35039272429276L457.1656050955413,486.8085480782611L456.5286624203819,487.2666951625579L455.891719745223,487.72483397763426L455.891719745223,487.72483397763426L455.891719745223,486.8085480782611L455.2547770700636,485.4340572056244L454.9363057324839,483.6012869130682L455.2547770700636,482.22662233150913L454.9363057324839,479.9353492088376L453.98089171974505,477.18554834097085L453.6624203821656,476.2688818254137L453.0254777070062,474.89381995287476L453.0254777070062,474.4354494338295L452.388535031847,473.97707063327107L452.07006369426733,473.5186835507702L451.43312101910817,473.06028818590494L450.1592356687894,471.22662389382094L449.8407643312099,471.22662389382094L449.8407643312099,470.76818711047235L449.8407643312099,470.30974204209633L449.8407643312099,469.8512886882818L448.88535031847107,468.0173924096707L447.92993630573244,467.10039454623256L446.6560509554139,464.8077548307192L446.0191082802547,462.9734938278998L446.0191082802547,462.05631357336097L445.70063694267503,461.5977110062704L443.7898089171973,460.2218535404136L442.1974522292993,458.84592141847315L441.8789808917196,458.84592141847315L441.24203821656045,458.84592141847315L439.6496815286622,460.68048099022417L437.7388535031847,461.1391001453667L435.8280254777068,461.5977110062704L435.1910828025476,461.5977110062704L433.91719745222906,461.5977110062704L431.6878980891719,461.1391001453667L431.0509554140125,461.5977110062704L430.732484076433,461.5977110062704L430.732484076433,462.51490784709677L430.732484076433,462.9734938278998L430.41401273885333,462.51490784709677L429.77707006369394,462.51490784709677L429.4585987261145,462.51490784709677L429.140127388535,462.51490784709677L427.86624203821646,463.89064091252294L426.27388535031844,462.05631357336097L425.9554140127385,461.5977110062704L425.9554140127385,461.1391001453667L426.27388535031844,461.1391001453667L426.27388535031844,460.2218535404136L425.3184713375796,459.76321779546925L424.9999999999999,459.30457375497645L424.6815286624202,459.30457375497645L422.452229299363,460.2218535404136L420.85987261146477,460.2218535404136L420.54140127388507,460.68048099022417L420.54140127388507,460.68048099022417L420.54140127388507,460.68048099022417L421.4968152866239,462.9734938278998L421.4968152866239,463.89064091252294L421.17834394904446,463.89064091252294L418.3121019108279,462.51490784709677L415.764331210191,462.51490784709677L412.57961783439475,462.9734938278998L412.26114649681506,462.9734938278998L412.26114649681506,462.9734938278998L409.3949044585985,462.9734938278998L408.12101910828017,463.4320715162321L405.25477707006337,464.8077548307192L404.61783439490443,465.26629935351957L404.29936305732474,465.26629935351957L403.6624203821656,465.26629935351957L403.0254777070062,465.7248355860211L402.388535031847,466.18336352867846L402.07006369426733,465.7248355860211L402.07006369426733,465.26629935351957L402.388535031847,462.51490784709677L402.388535031847,461.1391001453667L403.0254777070062,459.76321779546925L403.0254777070062,459.30457375497645L403.6624203821656,458.38726078552645L403.3439490445859,455.6351227380146L402.07006369426733,453.8001980551271L401.75159235668787,451.96514055176885L401.75159235668787,451.5063554194312L403.0254777070062,451.96514055176885L403.3439490445859,451.96514055176885L403.6624203821656,451.96514055176885L404.9363057324839,451.96514055176885L404.9363057324839,451.5063554194312L404.9363057324839,451.5063554194312L404.61783439490443,450.58876024385245L403.98089171974505,449.6711318508387L403.6624203821656,449.2123051966737L403.3439490445859,448.753470236843L402.7070063694265,448.2946269708773L402.07006369426733,447.8357753983473L401.75159235668787,447.3769155188238L401.43312101910817,446.918047331852L401.1146496815285,446.0002860337918L400.796178343949,443.24680271510806L400.1592356687896,442.7878597412964L400.1592356687896,442.32890845561997L400.796178343949,441.869948857664L400.796178343949,441.869948857664L400.796178343949,441.41098094695917L400.1592356687896,440.9520047230908L399.8407643312099,440.9520047230908L398.88535031847107,440.49302018559683L397.61146496815275,441.41098094695917L395.70063694267503,442.32890845561997L394.7452229299362,442.7878597412964L393.15286624203816,442.32890845561997L392.1974522292993,440.9520047230908L390.92356687898075,439.5750261680041L389.9681528662419,439.11601668701405L389.33121019108273,438.6569988906522L388.3757961783439,436.3617851626659L388.3757961783439,435.90271746474536L388.3757961783439,435.90271746474536L388.0573248407642,435.90271746474536L386.78343949044586,436.3617851626659L385.828025477707,437.27989560485366L384.8726114649679,438.1979727784601L384.23566878980876,438.6569988906522L382.32484076433104,439.5750261680041L382.00636942675135,439.5750261680041L379.77707006369417,440.49302018559683L378.1847133757959,440.03402733404437L376.2738853503182,439.5750261680041L375.63694267515905,440.9520047230908L374.6815286624202,442.32890845561997L373.40764331210187,443.7057373775133L372.452229299363,444.62358176985435L370.85987261146477,445.5413929218412L369.26751592356675,445.5413929218412L366.71974522292965,446.0002860337918L365.12738853503186,446.918047331852L363.21656050955414,447.8357753983473L361.6242038216559,448.753470236843L360.35031847133735,449.6711318508387L360.0318471337579,449.6711318508387L360.0318471337579,448.753470236843L360.0318471337579,447.8357753983473L360.0318471337579,447.8357753983473L360.35031847133735,446.918047331852L360.66878980891704,445.5413929218412L360.0318471337579,444.62358176985435L357.1656050955413,443.7057373775133L356.5286624203819,443.7057373775133L355.89171974522276,443.7057373775133L355.5732484076433,443.7057373775133L355.2547770700636,443.7057373775133L354.9363057324839,443.7057373775133L354.6178343949042,443.7057373775133L354.6178343949042,443.7057373775133L354.9363057324839,443.24680271510806L355.5732484076433,442.7878597412964L356.21019108280245,441.869948857664L355.89171974522276,441.41098094695917L355.5732484076433,441.41098094695917L355.2547770700636,441.41098094695917L355.2547770700636,441.41098094695917L353.3439490445859,441.869948857664L352.07006369426733,441.869948857664L350.4777070063693,441.869948857664L350.4777070063693,441.41098094695917L350.4777070063693,440.9520047230908L350.796178343949,440.03402733404437L350.796178343949,439.5750261680041L350.1592356687896,439.5750261680041L348.88535031847107,440.03402733404437L347.61146496815275,440.49302018559683L346.0191082802545,440.03402733404437L344.7452229299362,439.11601668701405L344.108280254777,439.5750261680041L343.4713375796176,440.49302018559683L342.1974522292991,440.9520047230908L339.01273885350304,440.03402733404437L337.420382165605,440.03402733404437L336.46496815286616,439.5750261680041L336.14649681528647,439.5750261680041L335.5095541401273,440.03402733404437L334.55414012738845,440.9520047230908L333.2802547770699,440.49302018559683L332.00636942675135,440.9520047230908L331.6878980891719,440.9520047230908L331.6878980891719,440.9520047230908L329.140127388535,440.9520047230908L328.8216560509553,440.49302018559683L328.5031847133756,440.49302018559683L327.54777070063676,439.5750261680041L328.18471337579615,438.6569988906522L328.5031847133756,437.7389383500049L327.54777070063676,437.7389383500049L326.9108280254774,437.27989560485366L326.27388535031844,437.27989560485366L326.27388535031844,437.27989560485366L325.63694267515905,438.1979727784601L325.63694267515905,438.6569988906522L325.3184713375796,439.11601668701405L325.3184713375796,439.11601668701405L324.6815286624202,438.6569988906522L323.72611464968134,437.27989560485366L323.0891719745222,435.90271746474536L323.0891719745222,435.44364144835345L322.7707006369426,435.44364144835345L321.81528662420374,435.90271746474536L320.5414012738852,436.3617851626659L320.2229299363056,436.3617851626659L319.26751592356663,436.3617851626659L318.3121019108279,436.3617851626659L316.0828025477706,435.90271746474536L314.80891719745216,435.90271746474536L313.8535031847132,435.44364144835345L312.57961783439475,435.90271746474536L312.2611464968152,435.90271746474536L311.9426751592356,435.90271746474536L311.9426751592356,436.820844542548L311.9426751592356,436.820844542548L311.9426751592356,438.1979727784601L311.6242038216559,439.11601668701405L311.6242038216559,439.5750261680041L311.6242038216559,439.5750261680041L309.7133757961783,439.5750261680041L308.43949044585975,439.5750261680041L306.8471337579617,439.5750261680041L305.89171974522276,439.5750261680041L305.2547770700636,439.11601668701405L304.6178343949043,439.11601668701405L301.1146496815286,438.1979727784601L297.61146496815263,437.7389383500049L295.70063694267503,437.27989560485366L295.38216560509545,436.820844542548L295.06369426751576,436.3617851626659L294.108280254777,435.44364144835345L293.4713375796176,434.9845571130645L292.8343949044586,434.06636348397296L292.8343949044586,434.06636348397296L292.1974522292992,433.6072541893009L291.8789808917197,433.1481365739601L291.56050955414,433.1481365739601L290.92356687898075,432.689010637474L289.6496815286622,432.689010637474L288.37579617834376,432.689010637474L288.0573248407642,432.689010637474L287.420382165605,432.689010637474L287.1019108280253,432.22987637945334L286.78343949044574,432.22987637945334L286.46496815286605,432.22987637945334L286.46496815286605,431.7707337994325L285.8280254777069,430.3932561229267L285.8280254777069,429.9340802504703L285.8280254777069,429.47489605381634L286.1464968152866,428.556502686115L286.78343949044574,427.6380760162756L286.78343949044574,427.1788501919509L286.1464968152866,424.88259615860443L285.8280254777069,424.42332036650623L284.87261146496814,423.0454430113459L284.23566878980876,422.5861338985487L283.9171974522292,419.8301042493804L283.9171974522292,418.451976922679L283.9171974522292,418.451976922679L283.5987261146497,417.5331836959849L283.5987261146497,417.5331836959849L281.3694267515922,418.451976922679L280.41401273885333,419.3707368083342L277.86624203821646,420.7488141301146L276.9108280254775,421.66749067865385L274.3630573248406,422.5861338985487L271.8152866242036,423.0454430113459L270.5414012738852,423.0454430113459L269.58598726114644,423.0454430113459L268.94904458598705,422.1268164544599L267.6751592356686,420.7488141301146L267.35668789808904,420.2894633564865L267.03821656050957,420.2894633564865L266.71974522292976,420.7488141301146L266.0828025477706,421.20815657069033L265.764331210191,421.20815657069033L262.8980891719742,422.5861338985487L262.8980891719742,422.5861338985487L262.57961783439475,422.5861338985487L262.2611464968152,423.0454430113459L261.9426751592356,423.0454430113459L261.6242038216558,423.0454430113459L261.3057324840763,423.0454430113459L259.7133757961782,423.0454430113459L259.0764331210189,422.5861338985487L259.0764331210189,422.5861338985487L259.0764331210189,422.1268164544599L259.0764331210189,422.1268164544599L259.0764331210189,419.8301042493804L258.12101910828017,417.992584477186L257.80254777070047,417.0737745786355L257.4840764331208,417.0737745786355L254.9363057324839,415.23605473896896L253.0254777070063,413.39820148558283L252.3885350318469,412.9387173230134L252.07006369426733,412.9387173230134L250.47770700636943,412.47922481987916L247.92993630573244,412.47922481987916L246.97452229299347,412.9387173230134L246.33757961783442,413.39820148558283L246.0191082802546,413.39820148558283L246.0191082802546,413.85767730800944L245.38216560509545,413.85767730800944L245.38216560509545,413.39820148558283L243.78980891719743,411.100697262631L243.47133757961774,410.6411713927919L243.15286624203804,410.6411713927919L242.83439490445846,410.18163718015785L242.515923566879,409.2625437247807L242.1974522292992,408.3434168929416L241.8789808917196,407.88384095974106L241.56050955414003,406.50506308571494L241.24203821656045,405.1262100907479L240.92356687898075,404.20693302098516L240.60509554140117,402.8279547978418L240.2866242038216,401.90859423154325L240.2866242038216,400.52949074695425L240.2866242038216,399.61004666197186L240.60509554140117,396.39172920834244L239.9681528662419,393.6328454920913L239.6496815286623,391.33354585480265L239.6496815286623,391.33354585480265L239.6496815286623,391.33354585480265L239.6496815286623,391.33354585480265L239.33121019108273,391.33354585480265L238.05732484076418,392.2532907908535L237.1019108280252,392.2532907908535L236.46496815286616,392.2532907908535L235.82802547770677,392.2532907908535L235.5095541401273,392.2532907908535L234.87261146496803,391.7934225033132L232.32484076433116,390.8736608448926L230.7324840764329,389.953865739044L229.1401273885349,389.49395564221777L227.86624203821646,389.49395564221777L227.86624203821646,389.49395564221777L227.86624203821646,389.953865739044L227.54777070063676,389.49395564221777L227.2292993630573,389.0340371822167L226.5923566878979,388.5741103585642L226.27388535031832,388.1141751708383L225.95541401273886,387.6542316185987L225.95541401273886,387.6542316185987L226.27388535031832,387.6542316185987L227.86624203821646,386.7343194187488L228.82165605095543,385.35438837397305L229.45859872611447,383.97438202448393L229.45859872611447,383.0543359496223L229.45859872611447,382.59430035828336L229.1401273885349,382.1342563970975L227.86624203821646,379.3738168380878L227.2292993630573,378.45360333940334L227.2292993630573,377.9934840294882L226.5923566878979,377.5333563452623L225.95541401273886,376.6130758521358L225.95541401273886,376.1529230423257L225.95541401273886,375.69276185644776L227.2292993630573,372.93161881838387L228.50318471337573,371.5509341861507L229.45859872611447,371.0906892149178L230.09554140127386,370.6304358626985L230.09554140127386,370.6304358626985L230.41401273885333,370.6304358626985L230.41401273885333,370.1701741290635L230.41401273885333,370.1701741290635L230.41401273885333,370.1701741290635L230.41401273885333,369.70990401354356L230.41401273885333,369.70990401354356L231.05095541401272,369.2496255157166L231.05095541401272,369.2496255157166L232.00636942675146,369.70990401354356L233.2802547770699,369.2496255157166L233.91719745222917,368.78933863510974L234.23566878980887,368.32904337129L234.23566878980887,368.32904337129L234.23566878980887,368.32904337129L234.23566878980887,367.8687397238318L234.23566878980887,366.94810727614095L233.91719745222917,366.0274412884828L233.2802547770699,364.64637941173714L232.96178343949032,364.18600867896384L232.96178343949032,363.72562955852845L233.2802547770699,362.3444418667568L234.23566878980887,360.96317866993195L234.55414012738834,360.5027408233291L235.82802547770677,360.04229458550253L236.78343949044574,359.58183995598665L237.42038216560502,359.1213769343376L237.42038216560502,358.6609055201261L237.42038216560502,358.6609055201261L235.5095541401273,358.6609055201261L234.55414012738834,358.20042571288286L233.91719745222917,357.7399375121713L233.2802547770699,356.81893592857887L232.32484076433116,356.35842254480303L231.05095541401272,355.43737059103296L231.05095541401272,355.43737059103296L231.05095541401272,354.9768320201474L229.77707006369417,354.9768320201474L229.45859872611447,354.9768320201474L229.1401273885349,354.9768320201474L228.50318471337573,354.9768320201474L228.18471337579604,354.9768320201474L227.2292993630573,355.43737059103296L225.31847133757947,355.43737059103296L223.72611464968145,355.43737059103296L222.13375796178332,354.9768320201474L221.17834394904446,354.51628505266854L220.54140127388507,353.59516592617365L219.58598726114644,353.13459376624087L218.3121019108279,353.59516592617365L215.12738853503163,354.05572968816705L212.89808917197445,354.51628505266854L211.30573248407632,354.51628505266854L210.03184713375776,352.6740132079467L209.71337579617818,352.21342425081457L210.03184713375776,352.21342425081457L210.03184713375776,351.7528268944261L209.39490445859872,352.21342425081457L208.75796178343933,352.21342425081457L208.43949044585975,352.6740132079467L207.1656050955413,353.59516592617365L206.52866242038215,354.05572968816705L205.57324840764318,354.9768320201474L203.34394904458588,354.51628505266854L203.0254777070063,354.51628505266854L202.38853503184703,354.9768320201474L202.07006369426745,355.43737059103296L201.1146496815286,355.89790076576173L200.47770700636931,357.27944091755853L200.15923566878973,357.7399375121713L199.84076433120993,358.20042571288286L199.52229299363046,358.6609055201261L199.52229299363046,358.6609055201261L197.29299363057305,359.1213769343376L197.29299363057305,359.1213769343376L196.97452229299358,358.6609055201261L196.97452229299358,359.1213769343376L196.97452229299358,359.58183995598665L196.97452229299358,362.80484615287423L197.61146496815275,365.10674175727036L198.24840764331202,366.0274412884828L198.5668789808915,368.32904337129L198.24840764331202,368.78933863510974L198.24840764331202,368.78933863510974L198.24840764331202,368.78933863510974L197.61146496815275,368.78933863510974L197.29299363057305,369.2496255157166L196.97452229299358,369.2496255157166L196.6560509554139,370.1701741290635L196.3375796178343,370.1701741290635L196.6560509554139,372.4713989874399L196.3375796178343,375.23259229402174L195.38216560509545,377.9934840294882L194.10828025477701,379.83391102776295L194.10828025477701,380.2939968448918L193.78980891719743,380.2939968448918L193.47133757961763,380.2939968448918L193.15286624203804,379.83391102776295L192.83439490445858,379.3738168380878L191.8789808917196,379.3738168380878L190.60509554140106,379.3738168380878L190.2866242038216,379.3738168380878L189.968152866242,379.3738168380878L189.33121019108262,378.913714275448L189.01273885350304,378.913714275448L188.69426751592357,378.45360333940334L188.05732484076418,378.45360333940334L187.10191082802532,378.45360333940334L186.78343949044574,378.45360333940334L186.78343949044574,378.45360333940334L185.5095541401273,377.0732202863037L184.87261146496814,376.1529230423257L184.55414012738845,375.69276185644776L182.32484076433116,373.3918302701386L181.3694267515923,372.93161881838387L181.0509554140126,372.4713989874399L179.77707006369417,372.93161881838387L179.1401273885349,373.3918302701386L178.8216560509553,373.3918302701386L178.18471337579592,373.3918302701386L177.2292993630573,372.4713989874399L175.95541401273874,371.5509341861507L175.31847133757947,370.1701741290635L174.6815286624203,369.2496255157166L174.6815286624203,369.2496255157166L174.36305732484072,368.78933863510974L173.0891719745223,368.32904337129L172.13375796178343,368.32904337129L171.17834394904446,367.8687397238318L170.5414012738853,367.8687397238318L169.58598726114644,367.4084276922549L169.26751592356686,367.4084276922549L168.63057324840747,368.32904337129L167.03821656050957,371.0906892149178L166.40127388535018,371.5509341861507L165.7643312101909,372.4713989874399L165.7643312101909,372.93161881838387L166.0828025477706,374.312228037812L166.40127388535018,375.69276185644776L167.35668789808904,377.9934840294882L169.26751592356686,380.2939968448918L169.26751592356686,380.2939968448918L168.94904458598705,381.21414336337693L167.99363057324842,381.6742040656136L166.71974522292987,382.59430035828336L166.40127388535018,383.0543359496223L165.7643312101909,384.4343925089124L165.7643312101909,384.4343925089124L166.0828025477706,385.8143737554892L166.40127388535018,386.2743507702762L166.40127388535018,386.7343194187488L166.0828025477706,386.7343194187488L165.7643312101909,387.1942797013762L165.12738853503174,387.1942797013762L165.12738853503174,387.1942797013762L163.21656050955403,387.6542316185987L162.89808917197456,387.6542316185987L161.30573248407632,387.1942797013762L160.35031847133746,386.7343194187488L160.03184713375788,386.7343194187488L159.3949044585986,387.1942797013762L157.80254777070058,388.5741103585642L156.52866242038215,389.0340371822167L156.52866242038215,389.0340371822167L155.2547770700636,389.0340371822167L154.61783439490443,389.0340371822167L153.66242038216546,389.49395564221777L151.75159235668787,390.4137674731137L151.11464968152848,391.33354585480265L151.11464968152848,392.2532907908535L151.11464968152848,395.0123249606004L151.11464968152848,395.9319361495436L151.43312101910828,396.39172920834244L150.7961783439489,398.23081788268973L149.20382165605076,400.52949074695425L149.20382165605076,400.98920026043197L149.20382165605076,402.36827869007175L149.20382165605076,403.2876225552827L148.8853503184713,403.74728196285287L148.8853503184713,403.74728196285287L148.8853503184713,403.74728196285287L148.2484076433119,403.74728196285287L148.2484076433119,403.74728196285287L147.29299363057305,404.20693302098516L146.6560509554139,404.20693302098516L146.97452229299347,404.66657573014163L147.61146496815286,405.1262100907479L147.61146496815286,405.5858361032442L147.29299363057305,406.04545376809256L147.29299363057305,406.9646640565734L146.97452229299347,406.9646640565734L146.97452229299347,406.9646640565734L145.38216560509545,408.3434168929416L145.06369426751576,408.8029844811317L145.06369426751576,409.72209462429964L145.06369426751576,410.18163718015785L145.06369426751576,410.6411713927919L145.06369426751576,411.5602147901336L144.74522292993618,412.47922481987916L144.4267515923566,412.9387173230134L143.47133757961774,413.39820148558283L141.56050955414003,414.77660393425685L140.2866242038216,415.69549720530995L138.37579617834376,415.23605473896896L137.10191082802532,414.317144790748L136.78343949044563,413.85767730800944L135.82802547770677,412.9387173230134L135.82802547770677,412.9387173230134L135.5095541401272,412.9387173230134L135.5095541401272,412.9387173230134L135.19108280254773,413.39820148558283L134.87261146496814,413.39820148558283L134.23566878980876,413.39820148558283L134.23566878980876,413.39820148558283L132.96178343949032,412.9387173230134L132.32484076433116,412.0197239757399L131.68789808917177,411.5602147901336L131.68789808917177,411.5602147901336L131.68789808917177,411.100697262631L131.3694267515922,411.100697262631L131.05095541401272,410.6411713927919L130.73248407643314,410.6411713927919L130.09554140127375,410.18163718015785L128.8216560509553,410.18163718015785L128.50318471337573,410.18163718015785L128.18471337579615,409.72209462429964L127.86624203821646,409.72209462429964L127.86624203821646,409.72209462429964L127.86624203821646,409.72209462429964L127.54777070063676,409.72209462429964L124.99999999999989,411.100697262631L124.36305732484072,411.5602147901336L124.36305732484072,411.5602147901336L124.04458598726103,411.100697262631L123.40764331210175,410.6411713927919L123.08917197452229,410.18163718015785L121.17834394904446,407.88384095974106L119.90445859872602,406.9646640565734L118.94904458598705,406.04545376809256L118.94904458598705,406.04545376809256L118.63057324840759,405.5858361032442L117.35668789808915,404.66657573014163L116.40127388535018,404.20693302098516L116.71974522292987,403.74728196285287L116.71974522292987,403.74728196285287L115.76433121019102,400.52949074695425L115.12738853503163,397.77105824733735L114.80891719745216,396.85151391061663L114.80891719745216,395.47213473377997L114.80891719745216,393.1730022847951L114.49044585987258,390.4137674731137L114.49044585987258,390.4137674731137L114.17197452229289,389.953865739044L114.17197452229289,389.49395564221777L113.85350318471319,389.49395564221777L113.85350318471319,389.49395564221777L112.57961783439475,389.0340371822167L110.03184713375776,389.0340371822167L109.39490445859872,389.0340371822167L109.07643312101914,389.0340371822167L108.75796178343933,389.0340371822167L108.43949044585975,388.5741103585642L107.16560509554131,387.6542316185987L105.89171974522276,386.2743507702762L104.61783439490432,385.35438837397305L104.61783439490432,384.8943946252548L104.29936305732474,384.8943946252548L104.29936305732474,384.4343925089124L104.29936305732474,382.1342563970975L104.61783439490432,381.21414336337693L104.29936305732474,380.75407428995095L104.29936305732474,380.2939968448918L104.29936305732474,379.83391102776295L103.66242038216546,378.45360333940334L102.70700636942661,377.5333563452623L102.38853503184703,377.0732202863037L102.38853503184703,376.6130758521358L102.38853503184703,376.6130758521358L102.38853503184703,376.1529230423257L102.70700636942661,375.23259229402174L103.34394904458588,373.852033343137L102.70700636942661,372.01117077683375L101.75159235668775,370.6304358626985L100.7961783439489,368.32904337129L100.47770700636931,367.4084276922549L100.47770700636931,366.0274412884828L100.47770700636931,365.10674175727036L100.47770700636931,363.26524204998714L100.47770700636931,360.96317866993195L100.15923566878973,360.04229458550253L100.15923566878973,360.04229458550253L100.47770700636931,359.58183995598665L100.15923566878973,359.58183995598665L100.15923566878973,359.58183995598665L98.8853503184713,360.04229458550253L98.56687898089149,360.04229458550253L97.61146496815275,358.6609055201261L97.29299363057305,357.7399375121713L97.29299363057305,357.27944091755853L96.65605095541389,356.81893592857887L96.01910828025461,356.35842254480303L93.78980891719743,355.89790076576173L92.515923566879,355.89790076576173L92.1974522292993,356.35842254480303L91.8789808917196,355.43737059103296L91.8789808917196,354.9768320201474L91.8789808917196,354.51628505266854L91.56050955414014,353.59516592617365L91.56050955414014,353.13459376624087L91.24203821656045,352.6740132079467L90.60509554140117,352.21342425081457L89.96815286624201,350.3709844251389L89.64968152866243,349.44971410774815L89.01273885350304,348.06774561589555L88.37579617834399,346.685701494418L88.37579617834399,346.685701494418L88.05732484076418,346.22500331192714L88.05732484076418,345.7642967243519L88.37579617834399,344.8428583321802L88.69426751592357,343.4606376946431L88.69426751592357,342.99988066720107L89.01273885350304,342.539115231546L89.33121019108262,340.6959693979152L89.01273885350304,340.6959693979152L88.69426751592357,340.6959693979152L88.37579617834399,340.6959693979152L88.05732484076418,340.6959693979152L87.7388535031846,340.6959693979152L87.10191082802544,340.23516191451927L86.14649681528647,339.3135217145682L85.19108280254761,337.9309983251369L84.23566878980876,337.4701403696563L82.32484076433116,336.54839921752136L80.41401273885344,336.0875160199612L78.50318471337573,334.7048159359729L77.2292993630573,334.2438990760529L77.2292993630573,334.2438990760529L74.04458598726103,334.2438990760529L73.40764331210187,335.62662440749045L72.4522292993629,337.4701403696563L71.81528662420374,339.3135217145682L71.81528662420374,338.8526889971472L71.81528662420374,338.8526889971472L71.49681528662404,338.8526889971472L71.49681528662404,338.8526889971472L71.17834394904446,338.8526889971472L70.859872611465,339.3135217145682L70.859872611465,339.3135217145682L70.5414012738853,339.3135217145682L70.2229299363056,338.8526889971472L69.90445859872602,338.39184786747865L69.90445859872602,337.9309983251369L68.94904458598717,334.7048159359729L68.63057324840747,331.9391885167752L69.90445859872602,331.01724536354595L69.90445859872602,328.71224012527455L69.90445859872602,328.25121381315694L69.90445859872602,327.3291359208597L69.90445859872602,327.3291359208597L69.90445859872602,327.3291359208597L69.58598726114633,327.79017907850357L68.94904458598717,326.86808433977785L67.67515923566862,325.94595590553945L66.0828025477706,324.10159793613275L64.80891719745216,322.71824098167053L62.89808917197445,320.4124774932425L62.57961783439475,319.95129950686896L61.62420382165601,318.56771496231886L60.987261146496735,318.10650325083043L60.987261146496735,318.10650325083043L60.35031847133746,318.10650325083043L60.031847133757765,318.10650325083043L59.7133757961783,318.10650325083043L59.3949044585986,317.6452831069255L59.3949044585986,317.6452831069255L59.7133757961783,317.1840545301857L59.7133757961783,317.1840545301857L59.07643312101902,317.1840545301857L59.07643312101902,317.6452831069255L58.75796178343933,318.10650325083043L58.43949044585975,318.56771496231886L57.48407643312078,319.490113089887L56.84713375796173,320.4124774932425L56.21019108280234,322.2571051416053L55.89171974522276,323.6404873784886L55.2547770700636,325.02379377219404L54.29936305732474,325.4848790514734L54.29936305732474,325.94595590553945L54.29936305732474,325.94595590553945L53.98089171974516,326.40702433482875L52.70700636942672,326.86808433977785L52.38853503184714,326.86808433977785L51.75159235668775,326.40702433482875L51.75159235668775,325.4848790514734L51.75159235668775,325.02379377219404L51.433121019108285,324.10159793613275L51.433121019108285,323.1793683938049L51.433121019108285,322.71824098167053L50.159235668789734,320.8736470494441L49.20382165605088,319.95129950686896L49.20382165605088,319.95129950686896L47.29299363057328,319.95129950686896L45.38216560509545,320.4124774932425L43.78980891719732,320.4124774932425L42.51592356687888,319.95129950686896L39.96815286624201,318.56771496231886L37.7388535031846,317.1840545301857L36.46496815286616,315.8003181983331L35.50955414012719,313.0326177870229L35.50955414012719,312.57130485706875L33.598726114649594,312.57130485706875L32.643312101910624,312.10998348931025L32.32484076433116,312.57130485706875L32.006369426751576,312.57130485706875L32.006369426751576,311.64865368331084L32.96178343949032,311.64865368331084L33.91719745222929,311.1873154386303L34.235668789808756,310.7259687548067L34.55414012738845,309.3418780640204L33.91719745222929,308.4191087328836L33.598726114649594,308.4191087328836L33.28025477707001,308.4191087328836L32.643312101910624,307.49630563441315L32.643312101910624,307.03489142129547L32.643312101910624,306.5734687650074L33.28025477707001,306.1120376650724L33.91719745222929,306.1120376650724L34.55414012738845,306.1120376650724L35.50955414012719,305.65059812105756L36.78343949044563,305.1891501325226L37.42038216560502,303.8047554951954L38.05732484076418,302.8817835060727L39.01273885350315,301.4972621670313L39.64968152866231,301.0357381574504L40.60509554140117,301.0357381574504L40.60509554140117,301.0357381574504L41.242038216560445,301.4972621670313L42.197452229299415,301.9587777280285L43.47133757961785,301.9587777280285L43.78980891719732,302.42028484088587L43.15286624203816,300.1126647907622L42.83439490445846,298.26641665462375L41.87898089171961,295.95841631712756L40.923566878980864,295.95841631712756L40.28662420382159,295.95841631712756L38.69426751592346,296.42003329078216L37.42038216560502,296.88164181091634L37.10191082802544,297.34324187796665L36.46496815286616,297.34324187796665L34.55414012738845,296.42003329078216L32.96178343949032,295.49679088947596L32.006369426751576,294.11186387816633L31.05095541401272,293.1885369257834L30.09554140127375,293.65020463009205L28.821656050955312,294.11186387816633L28.18471337579615,294.11186387816633L27.866242038216456,294.11186387816633L27.866242038216456,294.11186387816633L27.547770700636875,294.11186387816633L26.910828025477713,292.2651761466732L26.910828025477713,292.2651761466732L26.910828025477713,291.8034830709621L26.910828025477713,291.3417815372304L26.910828025477713,290.88007154499064L26.910828025477713,290.4183530938244L26.592356687898018,287.1860870476121L26.592356687898018,286.7243009087397L26.592356687898018,286.26250630686263L26.592356687898018,285.8007032415444L25.955414012738743,284.87707171878355L25.318471337579467,283.02970709209694L24.999999999999886,282.1059739809534L25.636942675159275,281.1822069997979L25.955414012738743,280.72031080683155L25.636942675159275,280.2584061450143L25.318471337579467,279.79649301389145L24.999999999999886,278.8726413419172L24.999999999999886,278.41070280015265L24.999999999999886,277.4868003028532L24.999999999999886,277.02483634639793L25.318471337579467,276.5628639174756L25.636942675159275,276.5628639174756L25.636942675159275,276.5628639174756L25.955414012738743,276.1008830156461L25.955414012738743,276.1008830156461L25.955414012738743,275.6388936404437L24.999999999999886,275.17689579139915L24.999999999999886,274.25287467008457L24.999999999999886,272.866779423126L25.636942675159275,271.01853375362407L26.273885350318324,269.17015243069545L26.592356687898018,268.2459108901603L26.910828025477713,266.85948497033314L26.910828025477713,266.39732603283846L26.592356687898018,265.93515861250125L26.592356687898018,265.01079832142204L26.592356687898018,263.62419425203916L26.592356687898018,263.1619759250352L26.592356687898018,262.6997491120019L26.910828025477713,261.3130177522362L27.22929936305718,260.85075699058507L27.547770700636875,260.388487740649L28.18471337579615,259.46392377407756L29.458598726114587,257.6146939615828L30.73248407643314,255.30296563478623L31.05095541401272,254.3782148511964L31.05095541401272,253.915826717679L31.68789808917188,252.99102496496926L32.643312101910624,252.06618922830603L32.96178343949032,251.1413195040841L33.28025477707001,251.1413195040841L35.50955414012719,252.99102496496926L37.10191082802544,253.915826717679L37.7388535031846,253.915826717679L39.01273885350315,252.99102496496926L40.60509554140117,251.1413195040841L41.242038216560445,248.82899647412341L41.242038216560445,247.90400776486422L41.242038216560445,247.44150065900976L40.60509554140117,246.51646094255193L40.28662420382159,246.05392833106453L40.28662420382159,246.05392833106453L39.96815286624201,245.59138721677664L40.28662420382159,243.7411377227436L41.242038216560445,241.42813448808374L42.197452229299415,240.04023046307702L43.47133757961785,238.65224985991154L45.06369426751587,237.7268869083382L46.65605095541389,235.87605887010068L47.29299363057328,234.95059377619327L48.24840764331202,234.02509462757007L50.477707006369315,232.17399415165346L51.11464968152859,232.17399415165346L52.38853503184714,231.24839281708773L53.34394904458577,231.24839281708773L53.34394904458577,231.24839281708773L58.43949044585975,231.24839281708773L59.7133757961783,231.24839281708773L67.35668789808904,230.3227574132652L68.94904458598717,229.85992693425578L69.26751592356686,229.39708793655882L69.90445859872602,228.00851982688255L70.2229299363056,228.00851982688255L70.5414012738853,227.54564674993526L70.859872611465,227.54564674993526L72.77070063694248,227.54564674993526L74.36305732484072,227.54564674993526L76.27388535031844,227.54564674993526L76.9108280254776,228.47138438333423L76.9108280254776,228.9342404197305L77.2292993630573,229.85992693425578L77.2292993630573,229.85992693425578L77.54777070063687,230.3227574132652L77.54777070063687,230.3227574132652L78.18471337579615,230.3227574132652L79.14012738853478,229.85992693425578L79.45859872611459,229.85992693425578L79.77707006369417,229.39708793655882L80.73248407643302,228.47138438333423L82.00636942675146,228.00851982688255L83.28025477707013,228.00851982688255L83.91719745222917,228.00851982688255L85.5095541401273,227.54564674993526L86.14649681528647,227.08276515205216L86.78343949044574,226.61987503276396L89.64968152866243,224.3052965992938L89.96815286624201,224.3052965992938L93.78980891719743,223.84235534202526L94.42675159235648,223.84235534202526L94.10828025477701,226.61987503276396L94.10828025477701,228.9342404197305L94.10828025477701,228.9342404197305L94.10828025477701,229.39708793655882L94.42675159235648,229.85992693425578L94.74522292993629,229.85992693425578L96.33757961783431,229.85992693425578L97.92993630573244,228.9342404197305L99.20382165605088,228.47138438333423L99.84076433121004,227.54564674993526L99.52229299363046,227.54564674993526L99.20382165605088,226.61987503276396L99.52229299363046,226.15697639160499L99.84076433121004,226.15697639160499L101.11464968152848,225.6940692281314L101.75159235668775,225.2311535418994L104.61783439490432,225.6940692281314L104.61783439490432,228.9342404197305L104.9363057324839,229.39708793655882L105.89171974522276,229.39708793655882L107.16560509554131,230.3227574132652L107.16560509554131,230.3227574132652L107.48407643312089,229.85992693425578L108.43949044585975,229.39708793655882L109.39490445859872,228.47138438333423L109.39490445859872,228.00851982688255L110.66878980891715,227.08276515205216L112.89808917197445,225.6940692281314L113.85350318471319,225.6940692281314L116.0828025477706,224.76822933243602L117.03821656050945,224.3052965992938L117.67515923566862,223.84235534202526L118.63057324840759,223.84235534202526L118.94904458598705,222.91644725325386L119.26751592356675,221.99050506250933L119.26751592356675,221.99050506250933L120.2229299363056,221.06452876611365L122.77070063694259,219.21247384187154L124.99999999999989,218.28639520672368L126.91082802547771,217.36028245138732L128.50318471337573,216.89721327751613L129.77707006369428,216.43413557220993L129.77707006369428,216.43413557220993L130.41401273885333,216.43413557220993L132.00636942675158,215.04485126326108L132.00636942675158,214.11861905853948L132.00636942675158,214.11861905853948L132.00636942675158,213.65549015518263L131.68789808917177,213.65549015518263L131.68789808917177,213.65549015518263L130.09554140127375,211.33971761020075L129.4585987261146,209.02373164312303L129.77707006369428,208.56050883404896L130.09554140127375,208.56050883404896L130.09554140127375,208.0972774853617L130.09554140127375,207.1707891672777L130.09554140127375,207.1707891672777L130.09554140127375,206.2442666852694L129.77707006369428,205.78099263163313L129.77707006369428,205.78099263163313L129.4585987261146,204.39111921478616L127.86624203821646,202.07449263950184L128.18471337579615,200.22103755392527L127.54777070063676,197.90402636733415L126.91082802547771,195.58680142789308L124.36305732484072,196.05026351875495L121.49681528662416,196.5137170576636L120.85987261146488,194.659851588538L120.5414012738853,193.26936267851852L120.2229299363056,192.80584926643132L120.2229299363056,191.41525769749205L118.94904458598705,190.02458911995564L118.63057324840759,190.02458911995564L117.99363057324831,189.56101581228722L117.35668789808915,189.09743394628094L119.58598726114644,188.1702445374467L122.4522292993629,186.7793962251999L122.77070063694259,186.7793962251999L123.08917197452229,186.3157629995585L123.40764331210175,186.3157629995585L123.40764331210175,185.85212121237782L123.72611464968145,185.3884708632104L123.08917197452229,184.9248119515796L122.77070063694259,184.46114447703076L122.77070063694259,183.9974684391309L122.4522292993629,181.67895978301385L124.04458598726103,179.82399867078493L124.6815286624203,179.36023697400014L124.99999999999989,178.8964667088112L125.31847133757947,177.96890047139823L126.27388535031832,175.64983489872247L126.27388535031832,175.64983489872247L126.27388535031832,175.18599606980933L125.63694267515928,174.25829269396127L125.31847133757947,173.33055502432398L124.99999999999989,171.9388842110311L124.99999999999989,171.47497678908258L124.99999999999989,171.47497678908258L124.6815286624203,171.47497678908258L124.04458598726103,171.01106079093006L121.81528662420374,170.54713621612245L119.26751592356675,170.08320306421956L118.94904458598705,170.08320306421956L117.35668789808915,169.61926133473753L117.35668789808915,169.61926133473753L116.71974522292987,169.15531102723617L116.71974522292987,168.6913521412389L116.71974522292987,168.6913521412389L116.71974522292987,168.2273846763128L117.03821656050945,168.2273846763128L117.67515923566862,167.76340863197038L117.67515923566862,167.76340863197038L117.99363057324831,166.37142901794869L117.99363057324831,165.90741865140444L117.99363057324831,165.90741865140444L117.99363057324831,165.90741865140444L120.2229299363056,164.5153360597942L122.4522292993629,163.58723808411742L124.99999999999989,162.6591057724654L127.54777070063676,162.19502673951865L128.8216560509553,162.19502673951865L129.4585987261146,162.6591057724654L129.4585987261146,163.58723808411742L129.4585987261146,164.5153360597942L129.4585987261146,164.97937217279105L130.09554140127375,164.97937217279105L131.05095541401272,164.97937217279105L132.32484076433116,164.97937217279105L133.28025477707,165.90741865140444L133.5987261146496,166.37142901794869L134.55414012738845,166.83543080325035L134.87261146496814,166.83543080325035L134.87261146496814,166.83543080325035L136.46496815286616,164.0512913637176L137.10191082802532,161.26684291703714L137.7388535031846,159.41037223300373L137.42038216560502,158.9462330928436L136.14649681528658,158.9462330928436L134.87261146496814,158.01792904629474L134.23566878980876,157.08959064176088L133.9171974522293,155.6970186056642L133.5987261146496,154.30436924340756L133.9171974522293,154.30436924340756L134.55414012738845,151.98311510332496L135.19108280254773,151.51883849073056L135.82802547770677,151.51883849073056L136.14649681528658,151.51883849073056L137.10191082802532,151.05455328219978L138.37579617834376,150.5902594772706L138.69426751592346,150.5902594772706L139.01273885350315,150.5902594772706L139.6496815286622,151.05455328219978L140.60509554140117,151.51883849073056L141.56050955414003,152.44738312044865L141.8789808917196,152.44738312044865L142.51592356687888,151.98311510332496L143.15286624203816,151.51883849073056L144.1082802547769,150.12595707550645L144.4267515923566,150.12595707550645L144.4267515923566,149.66164607641258L144.4267515923566,148.73299828446397L144.4267515923566,148.73299828446397L144.74522292993618,148.26866149068883L145.70063694267503,147.80431609774678L147.92993630573233,146.41122831942994L149.20382165605076,145.94684852529463L151.11464968152848,145.48246012969685L151.43312101910828,145.0180631321855L151.75159235668787,144.55365753231308L152.07006369426733,144.55365753231308L152.07006369426733,144.55365753231308L151.75159235668787,144.08924332959577L151.43312101910828,143.62482052360065L150.47770700636943,143.16038911383657L151.11464968152848,142.23150048122625L151.43312101910828,141.76704325744504L152.3885350318469,140.8381029926495L153.34394904458577,140.8381029926495L153.98089171974516,140.8381029926495L154.29936305732474,140.37361995071842L154.61783439490443,140.37361995071842L154.61783439490443,138.98011918120028L154.29936305732474,137.58654093647056L155.2547770700636,136.65744572538097L157.48407643312078,136.19288520408736L157.80254777070058,136.19288520408736L158.75796178343944,136.65744572538097L159.7133757961783,136.65744572538097L160.98726114649673,135.26373832767422L161.30573248407632,135.26373832767422L160.35031847133746,134.33455700308332L159.7133757961783,133.4053412266294L160.03184713375788,132.01145295665992L160.66878980891715,130.617487149284L160.66878980891715,130.15281464746658L160.66878980891715,129.2234437920306L160.66878980891715,128.75874543748796L160.66878980891715,128.75874543748796L161.9426751592356,127.82932287245785L163.5350318471336,126.43512437811296L164.171974522293,125.97037430567798L164.49044585987247,125.97037430567798L164.49044585987247,126.43512437811296L164.80891719745205,126.89986582975325L165.7643312101909,126.89986582975325L166.71974522292987,126.43512437811296L167.03821656050957,125.97037430567798L167.99363057324842,125.04084829654676L168.312101910828,124.57607235892647L168.63057324840747,124.57607235892647L169.26751592356686,124.57607235892647L170.2229299363056,125.50561561197173L170.2229299363056,125.50561561197173L171.81528662420374,127.82932287245785L171.17834394904446,129.6881335285434L172.452229299363,131.08215103444672L173.0891719745223,132.94072041781692L173.0891719745223,133.4053412266294L173.40764331210187,133.4053412266294L174.36305732484072,134.33455700308332L174.9999999999999,134.799151971627L176.27388535031844,135.72831607167973L176.91082802547749,136.65744572538097L177.86624203821646,138.5156017085901L177.86624203821646,138.5156017085901L177.86624203821646,138.5156017085901L177.86624203821646,138.5156017085901L179.1401273885349,137.58654093647056L180.09554140127375,137.1219976360262L180.7324840764329,137.1219976360262L181.68789808917188,136.65744572538097L182.32484076433116,137.1219976360262L182.64331210191074,138.05107562716148L182.96178343949032,138.05107562716148L182.96178343949032,138.05107562716148L183.2802547770699,137.1219976360262L183.5987261146496,137.1219976360262L183.91719745222917,136.65744572538097L184.23566878980876,136.65744572538097L184.87261146496814,136.65744572538097L186.14649681528658,134.799151971627L186.78343949044574,133.4053412266294L188.05732484076418,131.5468063034241L188.37579617834376,131.08215103444672L188.69426751592357,131.08215103444672L189.33121019108262,131.08215103444672L189.968152866242,131.08215103444672L190.92356687898075,131.08215103444672L192.83439490445858,131.5468063034241L193.15286624203804,131.5468063034241L194.10828025477701,131.5468063034241L194.74522292993606,131.08215103444672L196.3375796178343,130.617487149284L197.92993630573244,130.617487149284L199.84076433120993,130.617487149284L199.84076433120993,131.08215103444672L200.15923566878973,131.08215103444672L201.43312101910817,132.94072041781692L202.7070063694266,133.86995342157024L204.9363057324839,134.33455700308332Z" style="fill: none; stroke: rgb(8, 48, 107);"><title>ALLIER</title></path><g stroke="#000" stroke-opacity="0.2"><path d="M0,-15.873247654971056L3.5637661381291506,-4.905103281308338L15.096355617026989,-4.905103281308339L5.766294739448918,1.873582735131148L9.330060877578072,12.841727108793865L8.881784197001252e-16,6.063041092354379L-9.330060877578068,12.841727108793867L-5.766294739448918,1.8735827351311491L-15.09635561702699,-4.905103281308335L-3.563766138129152,-4.905103281308337Z" transform="translate(358.7579617834393,210.87653749237143)rotate(9.431017195009053)" fill="white" class="commune"><title>03190 Population : 19613</title></path><path d="M0,-18.876579049491834L4.238056047668955,-5.833183721955068L17.952693510379785,-5.833183721955069L6.857318731355415,2.2280779191642193L11.095374779024372,15.271473246700983L8.881784197001252e-16,7.210211605581696L-11.095374779024368,15.271473246700985L-6.857318731355414,2.2280779191642206L-17.952693510379788,-5.833183721955065L-4.238056047668956,-5.833183721955068Z" transform="translate(389.6496815286622,410.18163718015785)rotate(11.918744924418545)" fill="white" class="commune"><title>03310 Population : 24383</title></path><path d="M0,-18.876579049491834L4.238056047668955,-5.833183721955068L17.952693510379785,-5.833183721955069L6.857318731355415,2.2280779191642193L11.095374779024372,15.271473246700983L8.881784197001252e-16,7.210211605581696L-11.095374779024368,15.271473246700985L-6.857318731355414,2.2280779191642206L-17.952693510379788,-5.833183721955065L-4.238056047668956,-5.833183721955068Z" transform="translate(128.50318471337573,313.9552183353662)rotate(15.053199780495184)" fill="white" class="commune"><title>03185 Population : 36147</title></path></g><text class="text" y="25" x="326" text-anchor="middle" font-size="24" font-family="Helvetica" fill="#6baed6">03 - ALLIER</text><line x1="143.8535031847133" y1="307.08330627916655" x2="343.40764331210175" y2="217.74844954857107" stroke="yellow" opacity="0.35" stroke-width="2"/><line x1="360.8174097664542" y1="224.16354413822384" x2="387.5902335456473" y2="396.8946305343054" stroke="yellow" opacity="0.35" stroke-width="2"/><line x1="372.23991507430975" y1="403.7665425905051" x2="145.91295116772815" y2="320.370312925019" stroke="yellow" opacity="0.35" stroke-width="2"/></svg>