<svg viewBox="0,0,955,1146" width="955" height="1146" style="width: 100%; height: auto;" xmlns="http://www.w3.org/2000/svg" xmlns:xlink="http://www.w3.org/1999/xlink"><rect width="955" height="1146" fill="black"/><g stroke="#000" stroke-opacity="0.2"><path d="M0,-22.448162112566994L5.039926405668234,-6.936863585267022L21.349470856006818,-6.936863585267023L8.154772225169292,2.649646114250548L13.19469863083753,18.16094464155052L8.881784197001252e-16,8.574434942032948L-13.194698630837525,18.160944641550522L-8.154772225169292,2.649646114250549L-21.34947085600682,-6.936863585267019L-5.0399264056682345,-6.936863585267021Z" transform="translate(273.0370370370356,881.9218120056539)rotate(29.397080664512316)" fill="white" class="commune"><title>06069 Population : 50677</title></path><path d="M0,-37.75315809898367L8.47611209533791,-11.666367443910136L35.90538702075957,-11.666367443910138L13.71463746271083,4.4561558383284385L22.190749558048743,30.542946493401967L1.7763568394002505e-15,14.420423211163392L-22.190749558048736,30.54294649340197L-13.714637462710828,4.456155838328441L-35.905387020759576,-11.66636744391013L-8.476112095337912,-11.666367443910136Z" transform="translate(529.4537037037026,817.0317073880433)rotate(2.445874236081541)" fill="white" class="commune"><title>06088 Population : 342637</title></path></g><text class="text" y="40" x="427.5" text-anchor="middle" font-size="36" font-family="Helvetica" fill="#6baed6">06 - ALPES MARITIMES</text><line x1="290.1314814814801" y1="877.5958050311466" x2="512.3592592592581" y2="821.3577143625506" stroke="yellow" opacity="0.35" stroke-width="2"/><line x1="512.3592592592581" y1="821.3577143625506" x2="290.1314814814801" y2="877.5958050311466" stroke="yellow" opacity="0.35" stroke-width="2"/></svg>