<svg viewBox="0,0,954,1144.8" width="954" height="1144.8" style="width: 100%; height: auto;" xmlns="http://www.w3.org/2000/svg" xmlns:xlink="http://www.w3.org/1999/xlink"><rect width="954" height="1144.8" fill="black"/><g stroke="#000" stroke-opacity="0.2"><path d="M0,-13.34775705149959L2.9967581703553763,-4.1246837657014135L12.69447132175327,-4.124683765701414L4.848856575698947,1.5754890056530315L7.845614746054325,10.798562291451207L8.881784197001252e-16,5.098389520096762L-7.845614746054323,10.798562291451208L-4.848856575698946,1.5754890056530328L-12.694471321753271,-4.124683765701411L-2.9967581703553776,-4.124683765701413Z" transform="translate(649.2167889160551,845.6669362468383)rotate(15.720129353566122)" fill="white" class="commune"><title>insee_com : 04039 
Population : 1524
 Nom : CASTELLANE</title></path><path d="M0,-13.34775705149959L2.9967581703553763,-4.1246837657014135L12.69447132175327,-4.124683765701414L4.848856575698947,1.5754890056530315L7.845614746054325,10.798562291451207L8.881784197001252e-16,5.098389520096762L-7.845614746054323,10.798562291451208L-4.848856575698946,1.5754890056530328L-12.694471321753271,-4.124683765701411L-2.9967581703553776,-4.124683765701413Z" transform="translate(733.2070089649551,383.69027790840846)rotate(16.43876274104952)" fill="white" class="commune"><title>insee_com : 04019 
Population : 2598
 Nom : BARCELONNETTE</title></path><path d="M0,-13.34775705149959L2.9967581703553763,-4.1246837657014135L12.69447132175327,-4.124683765701414L4.848856575698947,1.5754890056530315L7.845614746054325,10.798562291451207L8.881784197001252e-16,5.098389520096762L-7.845614746054323,10.798562291451208L-4.848856575698946,1.5754890056530328L-12.694471321753271,-4.124683765701411L-2.9967581703553776,-4.124683765701413Z" transform="translate(199.2428687856559,748.525281240105)rotate(8.682601656507325)" fill="white" class="commune"><title>insee_com : 04088 
Population : 5018
 Nom : FORCALQUIER</title></path><path d="M0,-15.873247654971056L3.5637661381291506,-4.905103281308338L15.096355617026989,-4.905103281308339L5.766294739448918,1.873582735131148L9.330060877578072,12.841727108793865L8.881784197001252e-16,6.063041092354379L-9.330060877578068,12.841727108793867L-5.766294739448918,1.8735827351311491L-15.09635561702699,-4.905103281308335L-3.563766138129152,-4.905103281308337Z" transform="translate(478.412116272752,634.6155296001998)rotate(21.411005404276892)" fill="white" class="commune"><title>insee_com : 04070 
Population : 16460
 Nom : DIGNE LES BAINS</title></path></g><text class="text" y="40" x="427" text-anchor="middle" font-size="36" font-family="Helvetica" fill="#6baed6">04  - ALPES DE HAUTE PROVENCE</text><line x1="727.607660961695" y1="414.48872179763714" x2="654.8161369193151" y2="814.8684923576096" stroke="yellow" opacity="0.35" stroke-width="2"/><line x1="637.8298107398349" y1="831.5968424703957" x2="489.7990944489722" y2="648.6856233766424" stroke="yellow" opacity="0.35" stroke-width="2"/><line x1="459.80083310694556" y1="642.2095130428602" x2="217.8541519514623" y2="740.9312977974446" stroke="yellow" opacity="0.35" stroke-width="2"/><line x1="234.84047813094253" y1="724.2029476846585" x2="697.6093996196685" y2="408.0126114638549" stroke="yellow" opacity="0.35" stroke-width="2"/></svg>