<svg viewBox="0,0,954,1144.8" width="954" height="1144.8" style="width: 100%; height: auto;" xmlns="http://www.w3.org/2000/svg" xmlns:xlink="http://www.w3.org/1999/xlink"><rect width="954" height="1144.8" fill="black"/><g stroke="#000" stroke-opacity="0.2"><path d="M0,-22.448162112566994L5.039926405668234,-6.936863585267022L21.349470856006818,-6.936863585267023L8.154772225169292,2.649646114250548L13.19469863083753,18.16094464155052L8.881784197001252e-16,8.574434942032948L-13.194698630837525,18.160944641550522L-8.154772225169292,2.649646114250549L-21.34947085600682,-6.936863585267019L-5.0399264056682345,-6.936863585267021Z" transform="translate(458.7281455280445,592.064353646485)rotate(22.330893109110278)" fill="white" class="commune"><title>insee_com : 13047 
Population : 43133
 Nom : ISTRES</title></path><path d="M0,-22.448162112566994L5.039926405668234,-6.936863585267022L21.349470856006818,-6.936863585267023L8.154772225169292,2.649646114250548L13.19469863083753,18.16094464155052L8.881784197001252e-16,8.574434942032948L-13.194698630837525,18.160944641550522L-8.154772225169292,2.649646114250549L-21.34947085600682,-6.936863585267019L-5.0399264056682345,-6.936863585267021Z" transform="translate(251.79939363314816,466.0715328582519)rotate(0.3991582433746399)" fill="white" class="commune"><title>insee_com : 13004 
Population : 52548
 Nom : ARLES</title></path><path d="M0,-26.69551410299918L5.993516340710753,-8.249367531402827L25.38894264350654,-8.249367531402829L9.697713151397894,3.150978011306063L15.69122949210865,21.597124582902413L1.7763568394002505e-15,10.196779040193524L-15.691229492108645,21.597124582902417L-9.697713151397892,3.1509780113060657L-25.388942643506542,-8.249367531402822L-5.993516340710755,-8.249367531402825Z" transform="translate(720.0156644770091,581.905869649232)rotate(29.64657038302136)" fill="white" class="commune"><title>insee_com : 13001 
Population : 142482
 Nom : AIX EN PROVENCE</title></path><path d="M0,-44.54138473356747L10.000163930483316,-13.764044835665187L42.36137419566881,-13.764044835665189L16.180605132592746,5.257397304546639L26.18076906307607,36.034737202448916L1.7763568394002505e-15,17.01329506223709L-26.18076906307606,36.03473720244892L-16.180605132592746,5.257397304546643L-42.361374195668816,-13.764044835665178L-10.000163930483321,-13.764044835665185Z" transform="translate(675.7635169277419,765.2905143988137)rotate(10.045978780673344)" fill="white" class="commune"><title>insee_com : 13055 
Population : 863310
 Nom : MARSEILLE</title></path></g><text class="text" y="40" x="427" text-anchor="middle" font-size="36" font-family="Helvetica" fill="#6baed6">13  - BOUCHES DU RHONE</text><line x1="678.713660097693" y1="753.0648714155083" x2="717.0655213070579" y2="594.1315126325375" stroke="yellow" opacity="0.35" stroke-width="2"/><line x1="702.5964965470781" y1="582.5831019157156" x2="476.14731345797543" y2="591.3871213800014" stroke="yellow" opacity="0.35" stroke-width="2"/><line x1="444.93289540171804" y1="583.6648322606028" x2="265.5946437594746" y2="474.4710542441341" stroke="yellow" opacity="0.35" stroke-width="2"/><line x1="280.0636685194544" y1="486.019464960956" x2="647.4992420414357" y2="745.3425822961095" stroke="yellow" opacity="0.35" stroke-width="2"/></svg>