<svg viewBox="0,0,955,1146" width="955" height="1146" style="width: 100%; height: auto;" xmlns="http://www.w3.org/2000/svg" xmlns:xlink="http://www.w3.org/1999/xlink"><rect width="955" height="1146" fill="black"/><g stroke="#000" stroke-opacity="0.2"><path d="M0,-13.34775705149959L2.9967581703553763,-4.1246837657014135L12.69447132175327,-4.124683765701414L4.848856575698947,1.5754890056530315L7.845614746054325,10.798562291451207L8.881784197001252e-16,5.098389520096762L-7.845614746054323,10.798562291451208L-4.848856575698946,1.5754890056530328L-12.694471321753271,-4.124683765701411L-2.9967581703553776,-4.124683765701413Z" transform="translate(635.721088435374,847.8271938356593)rotate(29.983603412780692)" fill="white" class="commune"><title>04039 Population : 1547</title></path><path d="M0,-13.34775705149959L2.9967581703553763,-4.1246837657014135L12.69447132175327,-4.124683765701414L4.848856575698947,1.5754890056530315L7.845614746054325,10.798562291451207L8.881784197001252e-16,5.098389520096762L-7.845614746054323,10.798562291451208L-4.848856575698946,1.5754890056530328L-12.694471321753271,-4.124683765701411L-2.9967581703553776,-4.124683765701413Z" transform="translate(735.4557823129248,389.93381827959456)rotate(27.057585088876607)" fill="white" class="commune"><title>04019 Population : 2610</title></path><path d="M0,-13.34775705149959L2.9967581703553763,-4.1246837657014135L12.69447132175327,-4.124683765701414L4.848856575698947,1.5754890056530315L7.845614746054325,10.798562291451207L8.881784197001252e-16,5.098389520096762L-7.845614746054323,10.798562291451208L-4.848856575698946,1.5754890056530328L-12.694471321753271,-4.124683765701411L-2.9967581703553776,-4.124683765701413Z" transform="translate(203.5374149659865,749.565841546606)rotate(17.770863024060546)" fill="white" class="commune"><title>04088 Population : 4966</title></path><path d="M0,-15.873247654971056L3.5637661381291506,-4.905103281308338L15.096355617026989,-4.905103281308339L5.766294739448918,1.873582735131148L9.330060877578072,12.841727108793865L8.881784197001252e-16,6.063041092354379L-9.330060877578068,12.841727108793867L-5.766294739448918,1.8735827351311491L-15.09635561702699,-4.905103281308335L-3.563766138129152,-4.905103281308337Z" transform="translate(479.3469387755099,637.4013326107124)rotate(28.930248341332458)" fill="white" class="commune"><title>04070 Population : 16186</title></path></g><text class="text" y="40" x="427.5" text-anchor="middle" font-size="36" font-family="Helvetica" fill="#6baed6">04 - ALPES DE HAUTE PROVENCE</text><line x1="728.8068027210882" y1="420.4600433166655" x2="642.3700680272107" y2="817.3009687985883" stroke="yellow" opacity="0.35" stroke-width="2"/><line x1="625.2961451247164" y1="833.7988030873295" x2="489.7718820861675" y2="651.4297233590422" stroke="yellow" opacity="0.35" stroke-width="2"/><line x1="460.9596371882083" y1="644.878966539772" x2="221.92471655328805" y2="742.0882076175463" stroke="yellow" opacity="0.35" stroke-width="2"/><line x1="238.99863945578238" y1="725.5903733288052" x2="699.994557823129" y2="413.9092864973953" stroke="yellow" opacity="0.35" stroke-width="2"/></svg>