<svg viewBox="0,0,955,1146" width="955" height="1146" style="width: 100%; height: auto;" xmlns="http://www.w3.org/2000/svg" xmlns:xlink="http://www.w3.org/1999/xlink"><rect width="955" height="1146" fill="black"/><g stroke="#000" stroke-opacity="0.2"><path d="M0,-15.873247654971056L3.5637661381291506,-4.905103281308338L15.096355617026989,-4.905103281308339L5.766294739448918,1.873582735131148L9.330060877578072,12.841727108793865L8.881784197001252e-16,6.063041092354379L-9.330060877578068,12.841727108793867L-5.766294739448918,1.8735827351311491L-15.09635561702699,-4.905103281308335L-3.563766138129152,-4.905103281308337Z" transform="translate(346.29832474226805,577.6608768863334)rotate(20.09688714879913)" fill="white" class="commune"><title>11206 Population : 10098</title></path><path d="M0,-22.448162112566994L5.039926405668234,-6.936863585267022L21.349470856006818,-6.936863585267023L8.154772225169292,2.649646114250548L13.19469863083753,18.16094464155052L8.881784197001252e-16,8.574434942032948L-13.194698630837525,18.160944641550522L-8.154772225169292,2.649646114250549L-21.34947085600682,-6.936863585267019L-5.0399264056682345,-6.936863585267021Z" transform="translate(406.9426546391753,449.8197037656464)rotate(28.07135539956386)" fill="white" class="commune"><title>11069 Population : 45895</title></path><path d="M0,-22.448162112566994L5.039926405668234,-6.936863585267022L21.349470856006818,-6.936863585267023L8.154772225169292,2.649646114250548L13.19469863083753,18.16094464155052L8.881784197001252e-16,8.574434942032948L-13.194698630837525,18.160944641550522L-8.154772225169292,2.649646114250549L-21.34947085600682,-6.936863585267019L-5.0399264056682345,-6.936863585267021Z" transform="translate(801.7139175257732,485.80885576978835)rotate(6.738337833277347)" fill="white" class="commune"><title>11262 Population : 53594</title></path></g><text class="text" y="40" x="427.5" text-anchor="middle" font-size="36" font-family="Helvetica" fill="#6baed6">11 - AUDE</text><line x1="402.89969931271486" y1="458.3424486403589" x2="350.3412800687285" y2="569.138132011621" stroke="yellow" opacity="0.35" stroke-width="2"/><line x1="376.6593642611684" y1="571.5374088118971" x2="771.3528780068729" y2="491.9323238442247" stroke="yellow" opacity="0.35" stroke-width="2"/><line x1="775.3958333333334" y1="483.4095789695122" x2="433.2607388316152" y2="452.21898056592255" stroke="yellow" opacity="0.35" stroke-width="2"/></svg>