<svg viewBox="0,0,954,1144.8" width="954" height="1144.8" style="width: 100%; height: auto;" xmlns="http://www.w3.org/2000/svg" xmlns:xlink="http://www.w3.org/1999/xlink"><rect width="954" height="1144.8" fill="black"/><path d="M176.82952130244848,521.1638022514526L175.88795769298486,518.088978873202L173.4398923083736,514.7345522377291L173.25157958648015,513.8959335359978L171.5567650894427,511.93913783131575L171.36845236754925,510.54141055552464L170.8035142018707,508.02546773561335L170.05026331430054,506.3481484332442L168.92038698293982,505.2299248583731L166.66063432022383,503.832133344491L164.02425621372095,501.31607489175803L160.82293994153952,500.47737910404976L159.50475088828716,499.6386784977949L158.9398127226068,498.7999730728334L158.75150000071517,497.68169167719316L158.9398127226068,496.56340171478223L158.56318727882172,496.56340171478223L157.80993639124972,497.12254776692134L156.4917473379992,496.56340171478223L157.24499822557118,494.6063736662618L158.9398127226068,492.3697380549129L159.50475088828716,491.25140739785274L160.25800177585916,487.33718262526963L161.38787810721624,486.218813411484L160.4463144977526,484.5412435245089L160.4463144977526,482.0248525435745L160.82293994153952,480.90644262703427L160.25800177585916,480.0676295658632L157.80993639124972,478.38998898194404L152.16055473445704,473.0773332530516L149.90080207173924,464.6885357392166L149.90080207173924,463.2903559429251L150.4657402374196,462.4514416357706L153.66705650960284,452.9434091251751L154.60862011906647,449.5874850459513L154.42030739717484,448.46882653686043L154.60862011906647,442.8754053639568L154.79693284095993,436.1630169506825L157.0566855036759,431.40822167617443L158.37487455692826,427.77209721940744L160.4463144977526,419.6604161378491L161.01125266343115,415.74427076565917L160.63462721964424,414.9050830825581L160.4463144977526,413.5064262184751L161.01125266343115,411.828020283705L161.01125266343115,410.98881007614546L160.63462721964424,409.0306341535761L159.88137633207225,407.3521767312486L158.1865618350348,405.1142034650402L157.62162366935627,403.9952039588097L156.86837278178427,402.5964425071288L155.73849645042537,395.042898929285L154.98524556285338,393.08450897654984L154.98524556285338,391.9654172004084L155.92680917231883,390.2867634405993L156.3034346161039,389.1676502032642L156.11512189421046,388.6080903653201L155.17355828474683,386.64961403084453L153.66705650960284,381.61341129579523L153.10211834392248,380.4942315213557L150.4657402374196,379.0952447288146L145.75792219009236,377.69624452000426L141.80335503033893,374.33858927778783L140.29685325519313,372.3799213625607L139.3552896457295,370.98085675004404L138.79035148004914,366.22393669496523L138.6020387581575,365.9441130372725L138.6020387581575,363.70550445064146L138.2254133143706,361.46686150782625L138.2254133143706,359.5080207489518L139.16697692383605,356.98947254780796L138.41372603626223,353.9111879110569L139.92022781140804,352.2320961811638L142.36829319601748,348.8738547319372L142.93323136169602,346.9148448449705L142.74491863980438,344.67594418337103L143.12154408358947,343.55648096431105L143.3098568054811,342.99674613264506L141.42672958655385,340.19803975199466L140.8617914208735,339.91816616020515L139.3552896457295,336.83952120311733L136.3422860954397,334.6004658698803L136.15397337354625,333.76081125758355L135.77734792976116,329.28257167986885L135.02409704218917,326.76350148621714L133.89422071082845,325.08409718320763L132.57603165757791,322.0051390641893L129.93965355107503,321.4453215129615L128.6214644978245,320.0457682328124L127.30327544457214,319.48594315988885L125.60846094753651,319.2060298175493L124.1019591723907,318.08637107527466L121.465581065886,315.00726520700846L118.45257751559802,312.7678746483143L116.3811375747755,310.24851916285115L113.17982130259225,307.1692477916804L113.3681340244857,305.2096776084072L112.42657041501843,304.0899113946507L113.17982130259225,302.4102459509013L113.93307219016424,301.8503531700553L115.25126124341477,301.5704059734853L116.75776301856058,298.77090444647183L120.71233017831582,293.73166624813166L121.465581065886,291.2119818384381L120.33570473452892,284.4926105290069L120.52401745642237,273.57297164232295L119.77076656885038,271.6129498841474L120.33570473452892,269.09288318941253L118.82920295938311,265.7327264999476L115.43957396530823,242.76958270699834L115.62788668720168,241.3692739972903L117.88763934991948,239.68888578860788L119.39414112506347,238.568616220713L121.08895562209909,234.64760492893402L121.27726834399436,231.84681799888494L121.8422065096729,231.00657142537239L125.23183550374961,228.48580264170596L127.67990088835904,225.96499026188394L128.05652633214413,225.1247097801679L127.86821361025068,211.67956319048244L130.3162789948601,209.15846011521353L133.3292825451499,205.51678978880227L137.28384970490333,198.79346702662588L139.92022781140804,195.71184042863024L142.93323136169602,191.78967596344592L143.686482249268,190.94919841519732L147.0761112433447,188.70790125403437L147.0761112433447,184.50537616055226L147.45273668713162,183.66485659766477L149.52417662795415,181.14326881947636L154.23199467528138,177.78108390299894L156.3034346161039,166.29303338567843L157.0566855036759,165.1721994740219L158.1865618350348,162.08986175827158L163.8359434918275,154.80407702240336L164.77750710129112,152.28198972492828L165.34244526697148,149.19937929137086L166.0956961545453,147.51792792705237L167.79051065158092,145.55621014103235L180.97240118409536,137.1485489935294L187.5633464503535,137.42881218271214L189.06984822549748,133.7853486661479L191.14128816632365,131.2628974653344L197.9205461544716,125.9375792677456L201.87511331422684,121.45294978392485L206.39461863966062,119.21058326591447L208.08943313669988,116.96818222862203L209.97256035562896,113.8848244358378L211.47906213077295,113.04389734647702L213.73881479348893,112.48327658975904L216.186880178102,111.36202860309277L216.75181834378054,109.68014043969742L215.8102547343151,106.03598279417201L216.186880178102,104.35403312953713L216.94013106567218,101.83107221483078L220.32976005974888,100.70974222461518L222.21288727867795,99.58840360147587L224.84926538518084,92.57984160524211L233.1350251484746,80.24395328492392L233.8882760360484,78.84208167654288L233.5116505922615,76.03829797533399L233.69996331415496,75.75791663624113L241.7974103555589,69.86978381300287L241.7974103555589,69.0286025460664L239.91428313662618,64.26181691628881L239.34934497094764,60.05570001085289L239.34934497094764,58.09280387686158L239.72597041473455,55.28862064193527L244.43378846205997,52.764809557731496L245.18703934963196,52.203956709534395L246.12860295909923,51.92352947538893L246.69354112477777,50.52138520334847L251.58967189399664,48.27792628356838L252.53123550346209,47.71705615261453L255.73255177564351,46.034432796921465L257.9923044383613,43.790904741952545L258.93386804782676,43.23001732672856L259.4988062135071,41.547342117191874L259.68711893539876,39.864647461188724L260.44036982297257,38.181933358180686L260.6286825448642,38.181933358180686L261.7585588762213,35.096906992359436L262.888435207582,33.975063015837804L264.394936982726,32.85321039517294L266.2780642016569,30.889947508607293L267.40794053301397,29.20712967745203L268.16119142058596,26.963342312024906L269.10275503005323,26.121913134658826L270.6092568051972,25.841435661452124L271.7391331365561,25.56095764793281L274.56382396495064,24.999999999985448L279.2716420122779,28.085240317333955L281.3430819531022,31.170415256157867L279.83658017795824,32.57274588938162L279.83658017795824,32.85321039517294L276.635263905775,37.06011315205251L276.07032574009463,37.62102433551627L272.115758580343,42.10823601440643L273.2456349116983,44.35178999663913L274.3755112430572,47.71705615261453L274.7521366868441,52.764809557731496L275.882013018203,59.49487524396682L275.31707485252446,61.17734306489001L277.7651402371339,62.29897747936775L280.58983106553023,64.82262332450773L282.0963328406742,65.66382888727821L282.4729582844593,65.94422966173443L284.356085503392,65.10302571875218L285.4859618347491,70.1501764889399L286.05090000042765,70.71096022108395L286.615838166108,71.27174179376743L286.9924636098949,72.1129101037368L287.7457144974669,72.3932984607236L288.31065266314545,73.23446029242768L290.19377988207634,76.31867877455079L287.55740177557345,80.24395328492392L285.67427455664256,83.32802332403662L286.42752544421455,86.1316666866478L286.42752544421455,87.81382679796661L286.9924636098949,90.33703053576755L287.93402721936036,93.14053897613485L289.06390355071744,95.10296277589805L292.07690710100724,100.99007553147385L297.53797603590647,106.87695034312492L302.05748136134025,109.11950673619867L307.89517574002457,111.36202860309277L311.849742899778,117.52878572423651L312.03805562167145,118.36968692226219L311.849742899778,120.612066384856L309.2133647932751,124.53614738526812L312.03805562167145,129.02068195190805L311.849742899778,133.50507846740948L312.2263683435649,134.9064240690932L312.9796192311387,136.02749084483366L318.0640627222492,137.7090748327173L319.1939390536081,140.51167167923995L319.75887721928666,141.07218457874842L323.7134443790419,143.5944659395318L324.8433207104008,143.8747167285037L325.9731970417597,144.9957144931832L330.49270236719167,146.39694956949097L334.63558224884036,146.11670363238954L341.03821479320504,144.7154658606596L346.6875964499977,145.55621014103235L348.9473491127137,145.55621014103235L356.1032325446504,148.35865603493585L361.5643014795478,152.00175510798L366.4604322487685,154.52384725645243L367.9669340239125,155.08430624929315L369.0968103552714,157.32612066135334L370.0383739647368,158.16679217280762L372.4864393493481,158.44701493201137L373.61631568070516,159.00745883371565L377.75919556235385,159.84812064400467L379.8306355031764,159.84812064400467L381.3371372783222,159.56790057948092L382.0903881658942,159.56790057948092L387.5514571007934,160.96899551260867L389.24627159782904,159.56790057948092L390.75277337297484,159.00745883371565L391.88264970433374,159.00745883371565L392.63590059190574,158.44701493201137L395.2722786984068,158.44701493201137L397.72034408301806,157.88656887464458L399.22684585816205,158.16679217280762L404.3112893492744,156.76567029219586L408.83079467471,158.7272371523286L414.85680177528775,163.21071938134264L418.62305621314954,167.9742680870113L421.4477470415459,169.37528218624357L425.0256887575142,171.61687672547123L425.21400147940585,172.73766106336552L426.1555650888695,174.13862936261285L429.35688136105273,179.74236786550318L431.24000857998544,180.58291005405772L434.4413248521669,180.86308970616665L438.96083017759884,180.86308970616665L442.9153973373541,180.3027298632078L447.9998408284664,175.25939430376457L449.8829680473973,174.97920387669L452.33103343200855,174.97920387669L456.6622260355489,174.69901291074348L458.92197869826487,174.97920387669L459.67522958583686,175.81977354166156L463.2531713018052,183.38468233270396L465.1362985207379,188.98806528442947L467.01942573966517,190.10871601951658L469.6558038461699,192.34999163578323L472.1038692307793,193.1904611049249L476.6233745562131,193.47061651742843L480.20131627218143,194.87138550121745L481.33119260354033,195.15153768229357L485.66238520707884,204.11612312508805L488.4870760354752,206.35718332551187L490.93514142008826,207.75782845087815L491.8767050295519,208.03795586057822L496.01958491119876,208.59820906475943L499.5975266271689,211.67956319048244L502.04559201177653,216.72163851209916L504.1170319526009,218.68239847538644L506.7534100591056,219.5227160989307L516.1690461537582,223.72423154552234L516.1690461537582,224.84461520980403L517.6755479289022,228.7658902149269L519.1820497040462,231.00657142537239L522.3833659762295,231.84681799888494L524.2664931951604,232.68705972879252L525.3963695265193,232.9671392290038L526.7145585797698,232.68705972879252L527.2794967454483,232.40697969032044L528.5976857987007,231.84681799888494L531.422376627097,231.56673634593608L534.435380177385,231.56673634593608L537.0717582838897,231.84681799888494L538.9548855028188,232.68705972879252L539.7081363903908,233.24721819111437L541.9678890531086,236.32805125508457L543.662703550146,238.00847820812487L544.2276417158246,238.00847820812487L545.5458307690769,239.12875208086916L547.9938961536864,240.24901734390005L549.5003979288304,241.08921064104652L553.266652366694,241.92939909544657L556.2796559169819,243.04964283473964L559.4809721891634,244.72999230152345L562.6822884613466,246.13026872741466L569.649859171388,246.69037553145608L578.877182544149,251.4511964754929L580.7603097630818,253.69152900284098L583.2083751476894,254.81168235531368L591.3058221890933,256.49189624564315L595.8253275145253,259.5722380816733L601.2863964494227,252.85140833989135L602.7928982245703,256.2118619420653L605.2409636091797,262.9325367636193L605.8059017748583,265.45270994657767L608.0656544375743,273.0129681145045L609.7604689346117,276.6529525964579L610.702032544079,277.77292953876895L611.0786579878641,278.6129065996356L612.0202215973295,281.4127951854898L613.715036094367,283.65266734169563L614.2799742600455,284.21263000425824L615.7864760351913,285.05256996558455L617.8579159760156,286.732435372498L618.9877923073727,287.01241105858935L620.8709195263036,290.09210812409583L622.0007958576607,292.6118118860468L623.8839230765934,293.73166624813166L625.578737573629,293.73166624813166L627.4618647925618,295.1314721059898L627.8384902363468,296.2513071167632L629.1566792895974,297.09117773086473L629.5333047333843,297.9310435074585L629.3449920114926,297.9310435074585L630.6631810647432,299.8907115070033L632.5463082836741,301.5704059734853L632.7346210055657,302.4102459509013L633.2995591712461,301.8503531700553L637.8190644966799,306.6093732835143L641.9619443783267,313.6076501378848L642.7151952659005,315.00726520700846L639.1372535499304,315.56710747338366L639.5138789937173,317.5265384803788L639.7021917156108,322.5649544663611L640.8320680469697,324.80419458582764L642.7151952659005,324.52429145124916L642.5268825440071,325.64390076644486L642.1502571002202,326.2037022006989L640.6437553250762,327.60319638543297L638.0073772185733,329.28257167986885L636.5008754434293,329.8423591472965L636.3125627215359,330.9619276360754L635.182686390177,333.48092531251314L632.5463082836741,340.19803975199466L628.2151156801337,349.1537111392681L627.6501775144534,349.7134223431203L627.0852393487748,351.1126909559389L624.6371739641654,358.10883267260215L623.3189849109131,360.6273615465616L623.5072976328065,365.38446411141194L622.7540467452327,367.9028673688881L622.7540467452327,369.8615953987319L622.0007958576607,370.70104221736256L621.6241704138774,372.3799213625607L621.435857691984,372.6597326749179L623.3189849109131,374.0587811857258L626.1436757393094,374.33858927778783L628.9683665677057,376.2972308944445L629.7216174552777,376.5770346928766L630.4748683428497,376.5770346928766L633.4878718931395,376.2972308944445L635.182686390177,376.2972308944445L633.8644973369264,383.29216485857614L633.676184615033,386.9293979740323L633.4878718931395,388.3283096414816L641.7736316564333,390.2867634405993L641.9619443783267,390.8463168400194L642.7151952659005,391.9654172004084L642.5268825440071,392.524964161581L643.4684461534725,396.16196709945507L641.5853189345416,396.4417328007403L641.5853189345416,397.2810266858869L640.0788171593977,397.2810266858869L640.2671298812911,400.9179110634723L640.8320680469697,400.9179110634723L644.2216970410427,409.5901156703185L643.0918207096875,410.7090722676512L643.2801334315791,410.98881007614546L644.0333843191511,412.3874910738523L645.3515733724016,412.9469597187708L647.0463878694391,414.6253527823719L648.9295150883718,415.18481284656445L649.4944532540503,414.9050830825581L650.2477041416223,414.9050830825581L652.6957695262317,414.9050830825581L654.3905840232692,416.02399892074754L654.3905840232692,416.86318016856967L659.0984020705964,418.5415281850728L660.9815292895273,417.98208099121985L661.1698420114208,418.5415281850728L662.1114056208862,418.821250977664L660.9815292895273,423.8561695490207L661.9230928989928,424.6953057537612L662.6763437865648,425.25472720939433L662.6763437865648,425.5344371329702L656.2737112422001,426.93297870816605L651.9425186386597,428.33150687938905L653.0723949700186,429.730021647134L651.9425186386597,430.848823810913L652.3191440824467,432.80670695724257L649.3061405321569,433.64579169268836L649.3061405321569,435.3239466893574L644.7866352067231,435.6036373125098L644.7866352067231,436.7223944445868L645.16326065051,438.12082879843365L644.5983224848296,438.40051406109706L644.5983224848296,441.75669540250965L642.1502571002202,441.4770165721711L642.1502571002202,444.2737807559606L642.7151952659005,447.3501594529662L643.4684461534725,448.46882653686043L645.5398860942951,449.30782122255187L646.8580751475474,450.42647330048203L647.6113260351194,450.98579612396134L649.4944532540503,452.6637517326453L651.9425186386597,453.7823780872859L652.6957695262317,453.5027223024954L658.7217766268095,455.18064897332806L658.3451511830244,455.4603015429602L655.3321476327365,461.3328817252768L653.8256458575906,463.5699929737166L649.4944532540503,466.645964951982L649.1178278102634,469.1626210806862L648.3645769226914,472.7977144370525L646.8580751475474,473.0773332530516L642.7151952659005,475.3142644971085L637.8190644966799,477.5511614592542L638.1956899404668,479.22881168416643L638.1956899404668,480.0676295658632L637.0658136091079,483.42285288870335L635.559311833962,483.70245135105506L637.0658136091079,486.77799908937595L637.6307517747864,488.17595391247596L639.3255662718238,494.32679608899343L639.8905044375042,495.4451031854842L641.0203807688631,500.47737910404976L641.5853189345416,501.59563908360724L642.9035079877922,506.0685933424975L643.2801334315791,506.9072570086428L643.4684461534725,508.5845698870835L645.5398860942951,513.8959335359978L642.7151952659005,514.4550132057047L639.1372535499304,516.691310474911L637.0658136091079,516.691310474911L637.0658136091079,516.1322393690207L629.9099301771712,515.2936286959739L629.3449920114926,516.1322393690207L628.5917411239207,517.5299131195206L623.6956103547,515.8527030131954L619.5527304730513,516.4117751895392L617.8579159760156,516.1322393690207L614.2799742600455,515.2936286959739L609.3838434908266,513.8959335359978L607.1240908281106,512.7777677734557L606.7474653843237,513.057310017015L607.5007162718957,514.1754736385192L606.3708399405386,514.4550132057047L606.9357781062154,515.0140907344612L606.5591526624303,515.0140907344612L605.9942144967517,515.0140907344612L605.4292763310714,515.5731661221944L604.6760254434994,515.2936286959739L604.4877127216059,515.8527030131954L604.6760254434994,516.4117751895392L604.111087277819,516.691310474911L603.9227745559274,518.9275734896801L604.111087277819,519.2071039580478L604.8643381653928,519.4866338912107L605.0526508872863,520.0456921520381L604.6760254434994,520.3252204797027L603.9227745559274,520.6047482721187L603.7344618340339,520.8842755293153L603.7344618340339,522.0023792066349L604.111087277819,522.2819037879672L604.111087277819,522.8409513452207L603.7344618340339,523.1204743210692L602.6045855026769,523.6795186673407L602.9812109464619,524.238560873011L602.7928982245703,525.0771201679745L603.7344618340339,526.1951917359547L602.9812109464619,527.5927691555407L602.6045855026769,527.8722830340848L602.7928982245703,528.1517963775113L602.9812109464619,528.4313091859076L602.7928982245703,528.9903331973183L603.7344618340339,529.5493550683459L603.5461491121423,529.8288652012561L602.9812109464619,530.1083747990051L602.7928982245703,530.1083747990051L603.1695236683554,531.2264078393055L603.5461491121423,531.5059147616557L603.1695236683554,531.7854211489321L603.5461491121423,532.3444323184231L604.2993999997143,532.6239371004922L604.6760254434994,533.4624482364452L604.6760254434994,533.7419508783787L605.2409636091797,534.3009545570094L605.0526508872863,534.8599560954754L605.8059017748583,535.139456062112L605.8059017748583,535.6984543903818L605.9942144967517,535.9779527520004L605.8059017748583,536.5369478700159L605.9942144967517,537.0959408480412L605.6175890529648,537.3754365345667L605.8059017748583,537.6549316860037L606.7474653843237,538.7729069418565L606.9357781062154,539.331891359805L607.6890289937874,539.331891359805L607.8773417156826,539.6113827663066L606.3708399405386,539.890873637778L606.3708399405386,540.4498537758191L603.357836390247,541.2883199704956L599.968207396174,542.4062674072193L599.7798946742805,541.8472947588016L596.5785784020991,542.965237915836L596.7668911239907,543.5242062846082L596.0136402364187,543.8036896665581L596.0136402364187,544.6421366028662L594.6954511831664,545.2010985523375L595.0720766269533,548.8342990694509L595.6370147926318,549.1137722879357L597.1435165677776,549.3932449716231L598.6500183429216,550.2316598132165L599.4032692304954,551.0700698409055L601.6630218932096,554.703124335676L597.8967674553496,556.3798882321571L597.8967674553496,557.4977201334841L596.9552038458842,557.7771767718368L598.6500183429216,563.6456426423392L595.4487020707384,561.410064404321L595.4487020707384,561.1306147181167L593.1889494080224,561.6895135556697L598.2733928991347,564.763418927585L594.8837639050616,567.2783842881036L595.2603893488449,567.2783842881036L599.4032692304954,572.0287562464509L600.5331455618507,574.8230205136933L603.1695236683554,579.293732140999L602.7928982245703,580.4113886643463L601.474709171318,581.8084472908085L600.9097710056376,582.3672669995431L598.4617056210282,582.9260845700774L596.2019529583122,576.7789736905543L594.6954511831664,573.7053212224127L592.0590730766653,570.0727394478163L591.3058221890933,570.3521720230056L585.8447532541923,572.5876133770216L582.643436982009,574.2641719372623L583.5850005914763,576.4995534119225L583.9616260352614,581.2496254438593L583.5850005914763,582.3672669995431L583.9616260352614,582.9260845700774L583.0200624257959,583.2054925535049L583.2083751476894,583.4849000024697L583.9616260352614,584.043713296749L584.1499387571566,584.602524452901L585.2798150885137,584.8819292291737L584.5265642009417,586.2789450928831L584.7148769228334,587.1171481971251L585.2798150885137,587.3965481628256L585.0915023666203,588.7935399741546L585.4681278104053,588.7935399741546L585.8447532541923,589.0729367330205L586.2213786979792,589.0729367330205L586.5980041417661,589.6317286472622L586.5980041417661,590.4699125100742L586.4096914198726,590.7493060621491L585.4681278104053,591.028699079674L585.0915023666203,591.3080915628234L585.0915023666203,592.1462658054224L585.8447532541923,592.4256561507209L586.0330659760857,593.2638239800872L584.9031896447286,593.5432121876511L584.5265642009417,594.1019869995362L584.9031896447286,594.3813736038719L585.6564405323006,594.6607596737449L586.2213786979792,595.4989146769367L586.2213786979792,596.05768200694L585.6564405323006,596.3370648703858L585.6564405323006,596.6164471994562L586.7863168636577,596.8958289940638L586.0330659760857,598.0133508286817L585.6564405323006,597.4545909801527L585.0915023666203,598.0133508286817L585.6564405323006,598.5721085396945L585.6564405323006,598.8514865936013L586.5980041417661,599.4102410983469L586.0330659760857,599.968993465649L586.0330659760857,600.8071180088446L583.3966878695828,601.365865032567L583.3966878695828,600.5277436955075L583.0200624257959,599.6896175491565L582.2668115382239,599.6896175491565L581.890186094437,600.2483688477805L581.5135606506519,600.5277436955075L580.9486224849734,600.2483688477805L580.9486224849734,601.365865032567L581.890186094437,606.3944920663052L582.4551242601174,607.2325797411468L582.4551242601174,608.0706626073952L582.643436982009,609.746813914564L583.9616260352614,611.4229459883354L584.3382514790483,611.4229459883354L584.7148769228334,611.9816524056223L584.5265642009417,612.2610048128845L584.9031896447286,613.3784090997215L585.4681278104053,613.937108037775L585.2798150885137,614.7751524382184L586.0330659760857,615.8925374933024L585.8447532541923,616.4512268156541L584.1499387571566,617.0099140012171L583.7733133133697,617.5685990500642L583.5850005914763,617.5685990500642L583.5850005914763,616.4512268156541L583.0200624257959,617.0099140012171L583.2083751476894,618.1272819621663L583.0200624257959,618.6859627376107L583.5850005914763,618.9653023240244L583.9616260352614,619.5239798944676L583.5850005914763,620.6413286254246L583.9616260352614,621.4793345650687L584.3382514790483,621.4793345650687L584.5265642009417,621.7586688100273L584.9031896447286,622.0380025208142L585.0915023666203,624.2726529787033L585.2798150885137,624.8313102520333L586.0330659760857,625.110638087499L586.7863168636577,624.2726529787033L587.1629423074446,624.5519818824541L587.3512550293381,625.110638087499L586.974629585553,625.3899653889384L586.7863168636577,625.9486183894332L586.4096914198726,626.2279440885177L586.4096914198726,626.5072692535759L588.2928186388017,628.462530454417L588.10450591691,628.7418513468001L587.3512550293381,628.7418513468001L586.7863168636577,629.3004915294296L586.7863168636577,629.8591295758379L587.3512550293381,630.417765486025L587.9161931950166,633.2109129946766L587.9161931950166,634.3281570455001L587.5395677512297,634.6074667231296L585.4681278104053,634.6074667231296L585.6564405323006,637.1212297924794L586.0330659760857,637.9591412039299L586.7863168636577,638.5177461416315L586.974629585553,638.2384439397574L588.481131360697,637.6798379340471L589.611007692054,637.6798379340471L589.7993204139475,637.9591412039299L590.364258579626,638.5177461416315L591.117509467198,641.0314419308561L590.9291967453064,641.8693309162481L590.1759458577344,641.8693309162481L587.727880473125,643.5450944711629L586.974629585553,643.824386528242L586.5980041417661,644.3829690407292L585.4681278104053,645.2208388052823L582.2668115382239,649.1308341742406L583.7733133133697,651.3650702627201L584.5265642009417,651.9236239464371L586.0330659760857,653.3199988140404L586.0330659760857,653.5992721861548L586.974629585553,654.4370890995197L587.5395677512297,654.9956310394482L587.727880473125,654.7163603363442L588.6694440825886,656.3919765479513L590.9291967453064,655.8334399458836L594.1305130174878,653.8785450243886L595.8253275145253,657.2297774476901L596.2019529583122,656.9505110149184L598.0850801772413,659.1846275320277L599.0266437867085,658.6261016053613L600.721458283746,660.3016729805822L605.2409636091797,663.6527580882102L608.2539671594677,666.4452703037095L610.3254071002921,669.7962145178026L612.208534319223,672.5886093290901L611.455283431651,673.9847867241479L609.7604689346117,676.218642809501L605.4292763310714,675.3809507793194L603.5461491121423,675.6601819896459L602.6045855026769,675.3809507793194L601.6630218932096,676.497872419015L601.2863964494227,677.6147855216259L601.474709171318,678.4524647461658L602.22796005889,678.7316900872247L602.4162727807834,679.2901391688356L603.7344618340339,680.1278087895917L605.0526508872863,681.8031336258719L605.8059017748583,682.0823525645683L606.5591526624303,682.0823525645683L608.0656544375743,682.3615709697478L608.4422798813612,682.6407888414979L609.1955307689332,684.316084868231L609.0072180470397,685.4329382162687L608.4422798813612,686.8289928980521L609.0072180470397,686.8289928980521L609.948781656507,685.9913616893318L615.2215378695128,685.9913616893318L618.2345414198007,685.1537256795127L617.8579159760156,681.523914153644L618.0462286979091,679.0109148948104L618.7994795854811,675.9394126663246L619.1761050292644,675.3809507793194L619.5527304730513,675.3809507793194L625.202112129844,673.9847867241479L627.8384902363468,672.5886093290901L629.7216174552777,672.0301346357883L636.3125627215359,671.4716578080261L636.1242499996424,670.633938564235L635.7476245558555,670.0754564001982L636.1242499996424,669.7962145178026L636.1242499996424,668.958485668627L636.6891881653228,668.6792416515673L636.5008754434293,668.1207520165772L637.0658136091079,667.0037663426629L638.0073772185733,666.4452703037095L638.57231538425,665.6075222427899L638.1956899404668,665.3282718217961L638.7606281061453,664.490517356593L638.57231538425,664.2112648008479L639.3255662718238,663.932011711353L640.0788171593977,663.932011711353L640.2671298812911,662.814994016444L641.0203807688631,661.1394514627755L642.7151952659005,658.0675735435943L643.6567588753642,657.2297774476901L644.2216970410427,656.6712440482806L644.410009762938,655.8334399458836L644.5983224848296,655.5541708441597L645.16326065051,654.4370890995197L645.5398860942951,654.1578173288144L645.3515733724016,653.5992721861548L645.5398860942951,653.0407249081181L646.4814497037605,651.9236239464371L647.799638757011,652.482175494908L647.9879514789063,652.2028999876202L649.3061405321569,653.3199988140404L654.5788967451626,652.482175494908L655.5204603546281,653.5992721861548L659.2867147924899,652.2028999876202L659.4750275143833,652.482175494908L661.3581547333142,652.7614504684607L661.3581547333142,653.5992721861548L660.6049038457404,653.8785450243886L660.9815292895273,654.9956310394482L660.416591123847,656.3919765479513L661.1698420114208,658.6261016053613L664.1828455617087,656.9505110149184L669.2672890528211,653.5992721861548L670.0205399403931,654.7163603363442L671.5270417155389,654.7163603363442L671.7153544374323,654.9956310394482L671.9036671593258,654.7163603363442L673.4101689344698,657.7883087120281L673.9751071001501,658.9053648355766L675.8582343190792,658.9053648355766L676.4231724847577,660.0224124191009L676.9881106504381,659.7431513237971L676.6114852066512,658.9053648355766L678.117986981797,658.346837841309L677.9296742599035,658.0675735435943L679.8128014788344,656.3919765479513L680.9426778101915,657.5090433467849L682.0725541415504,656.6712440482806L682.637492307229,657.5090433467849L683.3907431948028,656.9505110149184L683.2024304729093,656.3919765479513L685.2738704137319,654.7163603363442L692.6180665675638,651.6443473714899L695.8193828397452,651.0857926200697L697.3258846148892,655.8334399458836L700.3388881651772,654.1578173288144L704.105142603039,653.0407249081181L704.6700807687193,653.5992721861548L704.8583934906128,653.3199988140404L705.7999571000782,654.1578173288144L703.7285171592521,656.9505110149184L704.105142603039,658.346837841309L703.1635789935735,659.4638896948309L703.1635789935735,661.4187098893308L702.5986408278968,661.6979677822237L702.5986408278968,661.9772251413378L703.7285171592521,665.3282718217961L706.3648952657568,664.769769378705L707.3064588752204,663.6527580882102L710.1311497036168,661.4187098893308L710.6960878692971,659.7431513237971L711.072713313084,658.0675735435943L711.2610260349775,658.0675735435943L711.8259642006542,658.346837841309L712.579215088228,657.7883087120281L712.579215088228,658.346837841309L712.9558405320131,658.6261016053613L713.8974041414785,658.6261016053613L714.2740295852655,659.4638896948309L714.085716863372,659.7431513237971L714.2740295852655,659.7431513237971L714.4623423071589,659.7431513237971L715.0272804728374,659.4638896948309L716.1571568041963,660.5809330084012L716.9104076917683,660.3016729805822L717.4753458574469,660.5809330084012L717.4753458574469,661.1394514627755L717.8519713012338,660.8601925024122L717.8519713012338,660.8601925024122L717.8519713012338,661.6979677822237L718.4169094669141,662.814994016444L718.2285967450189,663.094249240763L718.7935349106992,663.6527580882102L719.1701603544861,664.490517356593L719.5467857982712,664.769769378705L719.9234112420581,664.2112648008479L720.8649748515236,664.2112648008479L721.4299130172021,664.769769378705L721.8065384609872,664.769769378705L721.9948511828825,665.3282718217961L722.3714766266676,665.3282718217961L722.5597893485592,665.3282718217961L723.313040236133,665.3282718217961L723.8779784018116,665.6075222427899L723.6896656799199,667.2830135616532L724.0662911237068,669.237729151966L723.6896656799199,670.0754564001982L723.6896656799199,670.3546977490769L724.8195420112788,670.633938564235L725.0078547331705,671.1924185937096L725.0078547331705,671.4716578080261L725.5727928988508,672.0301346357883L726.326043786421,672.0301346357883L726.7026692302079,672.5886093290901L727.2676073958883,672.3093722492195L727.4559201177799,672.5886093290901L727.6442328396752,672.5886093290901L728.2091710053519,673.4263173669024L728.3974837272453,673.4263173669024L728.7741091710304,672.8678458752838L729.1507346148173,672.5886093290901L729.7156727804977,673.7055523122835L730.2806109461762,673.9847867241479L730.0922982242846,673.1470818879461L730.4689236680697,672.8678458752838L731.0338618337482,673.1470818879461L731.4104872775351,673.9847867241479L731.9754254432137,673.7055523122835L732.1637381651071,673.9847867241479L732.3520508869988,674.5432539469912L732.5403636088922,674.2640206023352L732.9169890526791,674.5432539469912L732.9169890526791,675.101719035476L733.1053017745726,675.101719035476L733.293614496466,674.8224867579847L733.6702399402511,674.8224867579847L733.1053017745726,675.9394126663246L734.0468653840362,675.9394126663246L733.6702399402511,676.218642809501L733.6702399402511,676.218642809501L734.0468653840362,676.218642809501L734.2351781059315,677.0563300374488L734.0468653840362,678.4524647461658L733.6702399402511,678.7316900872247L734.2351781059315,679.2901391688356L734.2351781059315,679.8485861162335L734.6118035497166,679.8485861162335L734.9884289935035,680.9654736085649L734.80011627161,681.2446941478702L734.0468653840362,681.8031336258719L734.4234908278231,682.6407888414979L734.9884289935035,682.3615709697478L734.9884289935035,683.199222984389L735.3650544372886,683.7576549933001L735.9299926029689,684.0368701975385L735.9299926029689,684.5952990054357L736.1183053248606,685.1537256795127L735.9299926029689,685.7121502195369L736.3066180467558,686.2705726257263L734.80011627161,688.7834470473026L734.9884289935035,689.3418577174161L734.80011627161,689.9002662538551L735.3650544372886,690.4586726565612L734.9884289935035,690.4586726565612L734.80011627161,690.7378750577482L734.80011627161,691.5754790609208L734.2351781059315,691.0170769255928L734.0468653840362,691.5754790609208L733.4819272183595,691.2962782599352L733.293614496466,691.8546793284622L733.6702399402511,691.8546793284622L734.0468653840362,692.4130782633729L733.293614496466,692.4130782633729L733.1053017745726,692.9714750645653L731.9754254432137,693.5298697322287L731.7871127213202,693.8090662659961L731.9754254432137,694.0882622663194L732.9169890526791,694.0882622663194L732.7286763307857,694.9258470670175L732.9169890526791,695.2050409338553L733.6702399402511,695.2050409338553L734.2351781059315,694.6466526668373L734.4234908278231,694.9258470670175L734.0468653840362,695.2050409338553L734.4234908278231,695.4842342672491L734.80011627161,695.4842342672491L734.6118035497166,695.7634270673734L734.80011627161,696.0426193341118L735.1767417153951,696.0426193341118L735.1767417153951,696.3218110674061L735.3650544372886,696.8801929339097L734.9884289935035,697.4385726671317L735.553367159182,698.8345126663189L735.9299926029689,698.5553257331194L736.3066180467558,697.9969502667809L736.6832434905409,697.9969502667809L736.8715562124326,698.5553257331194L736.4949307686475,699.1136990660889L736.8715562124326,699.392884932633L738.5663707094718,699.9512550655927L738.9429961532569,700.2304393320665L740.4494979284009,701.9055337313475L740.8261233721878,702.463894264627L740.4494979284009,703.0222526647267L741.0144360940812,704.1389630652848L740.8261233721878,704.4181393322651L741.3910615378682,705.8140126678045L741.3910615378682,706.37235826916L741.2027488159729,706.37235826916L741.0144360940812,706.37235826916L741.5793742597598,707.2098726717959L741.3910615378682,707.2098726717959L741.0144360940812,707.2098726717959L740.8261233721878,707.4890430727683L740.8261233721878,707.7682129405148L741.2027488159729,708.0473822750791L741.0144360940812,708.3265510763886L741.9559997035467,711.9556969692785L741.9559997035467,712.514019108392L741.9559997035467,712.7931793782336L742.3326251473336,712.7931793782336L742.3326251473336,713.0723391147767L743.2741887567972,713.6306569884036L744.5923778100478,714.1889727292873L745.533941419515,715.5847527509613L745.533941419515,716.1430610273674L746.6638177508739,718.0971232007287L746.2871923070888,719.2137184277817L748.1703195260179,723.1217345496261L748.7352576916983,728.9835628254805L749.6768213011619,729.5418199249834L751.1833230763059,729.8209476752818L753.8197011828088,728.9835628254805L755.137890236063,728.9835628254805L757.3976428987771,730.100074892558L758.9041446739229,730.9374533461669L760.0340210052818,732.8913177495706L761.3522100585324,734.0077999686473L762.8587118336782,735.4033907505363L764.1769008869287,737.0780821012158L765.4950899401792,738.1945323427935L766.8132789934298,739.0318644281215L768.884718934256,739.5900831537583L769.4496570999345,739.86919171724L769.6379698218261,740.7065142100764L770.014595265613,741.2647265407722L769.4496570999345,743.7766556507704L769.2613443780428,745.7303484508302L770.2029079875065,745.1721531722578L770.5795334312934,745.1721531722578L771.3327843188654,749.6376557226031L774.3457878691552,752.9866931221186L775.4756642005123,755.7774990159669L775.6639769224039,761.3589509816666L774.7224133129403,770.2888309370173L773.5925369815832,777.5439568164293L775.0990387567272,782.0084707338392L775.2873514786188,788.7049860241386L770.5795334312934,790.1000547752628L771.5210970407588,790.6580785489641L772.2743479283308,791.7741197076684L773.0275988159028,792.6111449867167L773.5925369815832,792.8901523483655L773.9691624253683,792.6111449867167L774.5341005910468,792.6111449867167L774.5341005910468,792.8901523483655L775.2873514786188,793.1691591776471L775.0990387567272,793.727171238992L775.8522896442992,794.2851811709843L776.6055405318712,794.0061764711863L776.9821659756562,794.0061764711863L777.1704786975515,794.2851811709843L778.1120423070151,794.8431889735512L777.9237295851235,795.4011946467654L778.4886677508002,795.6801966848725L778.4886677508002,796.5171996050922L778.8652931945871,797.0751988902775L780.371794969733,797.9121938255994L780.7484204135199,797.9121938255994L780.9367331354115,797.3541977343411L781.3133585791966,797.3541977343411L781.6899840229835,797.6331960461685L781.6899840229835,798.1911910727795L782.6315476324489,798.1911910727795L785.2679257389518,799.3071747383365L787.7159911235613,800.1441568982991L789.2224928987071,799.5861693239422L789.7874310643856,800.1441568982991L790.352369230066,800.1441568982991L791.8588710052081,801.2601256595663L793.9303109460325,801.539116519154L795.2484999992848,801.2601256595663L795.4368127211783,801.2601256595663L796.7550017744288,803.2130504991364L797.1316272182139,803.2130504991364L797.6965653838943,802.097096641548L798.6381289933597,802.3760859043832L798.4498162714681,802.9340628331556L797.8848781057859,803.7710242343455L798.826441715255,804.8869653177535L799.0147544371466,806.281879696573L799.3913798809335,806.5608609756746L800.1446307685055,806.5608609756746L800.5212562122906,807.1188219371106L801.462819821756,808.2347374734527L801.839445265543,808.7926920483733L801.6511325436495,809.0716685375519L802.0277579874346,809.6296199192147L801.839445265543,810.4665430003806L802.216070709328,811.3034612919L802.7810088750066,811.5824329913157L802.9693215969,812.1403747937438L804.2875106501506,812.4193448966689L804.8524488158309,812.6983144675032L805.4173869815113,812.6983144675032L805.9823251471898,813.2562520125502L808.6187032536927,813.2562520125502L811.4433940820891,814.6510865626915L815.3979612418425,817.440715752673L816.7161502950948,818.8355103932408L817.8460266264537,819.1144677250268L818.0343393483454,819.3934245247801L817.8460266264537,819.67238079237L817.8460266264537,820.23029173135L818.4109647921323,820.788200541996L818.7875902359192,820.788200541996L819.3525284015959,821.6250597673788L820.8590301767417,821.6250597673788L821.0473428986352,822.1829632572917L820.6707174548483,822.461914204192L820.8590301767417,822.7408646189724L821.4239683424203,822.7408646189724L821.4239683424203,823.0198145017348L821.6122810643137,822.7408646189724L822.1772192299923,822.7408646189724L821.9889065081006,823.8566609576083L822.7421573956726,824.1356087121239L822.7421573956726,824.6935026251449L822.9304701175643,824.6935026251449L823.307095561353,824.9724487835483L823.1187828394595,825.25139440989L823.4954082832446,825.25139440989L824.060346448925,825.8092840665631L823.8720337270315,826.3671715951496L823.1187828394595,826.6461145614157L823.307095561353,827.4829402680916L823.4954082832446,827.7618811062275L823.6837210051381,827.4829402680916L824.2486591708166,827.7618811062275L824.6252846146035,827.4829402680916L825.0019100583886,827.7618811062275L824.813597336497,828.0408214124764L825.3785355021755,828.0408214124764L825.190222780282,828.8776391390275L826.1317863897475,829.156577317277L826.320099111641,829.7144520777074L827.073349999213,829.7144520777074L827.2616627211064,830.2723247101821L827.826600886785,830.2723247101821L827.2616627211064,831.1091296690574L826.8850372773213,832.5037939611211L826.8850372773213,833.3405861529172L827.073349999213,833.6195158195624L827.4499754429999,833.6195158195624L827.6382881648933,833.3405861529172L828.0149136086784,833.6195158195624L827.6382881648933,833.8984449543495L827.6382881648933,834.1773735571041L827.2616627211064,834.4563016280008L827.2616627211064,835.5720085921057L827.6382881648933,836.1298588825157L828.0149136086784,835.8509340032615L828.2032263305719,836.1298588825157L828.7681644962486,836.4087832299119L828.7681644962486,836.4087832299119L828.2032263305719,836.9666303288832L828.5798517743569,837.5244753002189L828.5798517743569,837.8033969879762L828.9564772181438,838.0823181439191L829.5214153838224,837.8033969879762L829.8980408276093,838.0823181439191L829.8980408276093,838.0823181439191L829.3331026619289,838.6401588599547L830.0863535495027,839.197997448573L829.7097281057177,839.4769159449788L829.8980408276093,840.3136682429613L829.3331026619289,840.0347513421148L829.3331026619289,840.5925846118917L828.5798517743569,840.5925846118917L827.6382881648933,841.1504157541058L828.0149136086784,841.7082447688445L828.0149136086784,842.8238964160118L828.2032263305719,843.3817190484115L828.3915390524653,843.3817190484115L828.5798517743569,843.6606295668316L828.2032263305719,843.9395395534812L828.7681644962486,844.2184490082873L828.3915390524653,844.4973579312064L828.7681644962486,844.4973579312064L828.5798517743569,844.7762663223548L828.9564772181438,845.0551741816016L828.7681644962486,845.612988304696L829.1447899400355,845.8918945684709L829.1447899400355,846.1708003004896L829.7097281057177,846.4497055007087L829.8980408276093,847.0075143055583L830.4629789932897,847.5653209832526L831.5928553246449,848.6809279570298L831.7811680465402,848.6809279570298L832.1577934903253,848.6809279570298L832.3461062122187,849.2387282531417L832.1577934903253,850.3543224640307L832.3461062122187,850.9121163788368L832.3461062122187,851.4699081665603L832.1577934903253,851.4699081665603L831.5928553246449,852.3065918599314L831.7811680465402,853.1432707675121L832.1577934903253,853.1432707675121L831.9694807684318,856.7688240667485L834.9824843187216,861.2309201568132L838.9370514784769,863.7407893948257L841.5734295849779,865.4140116298659L839.3136769222638,869.0392608184775L834.040920709258,880.1933102591574L831.0279171589682,904.450431963327L830.2746662713962,908.0747140086751L828.9564772181438,910.304996801904L827.4499754429999,914.7654604080744L825.9434736678559,917.831950266991L824.2486591708166,920.06208434781L822.1772192299923,922.2921844410885L819.3525284015959,924.5222505484562L816.9044630169865,925.9160246077372L812.573270413448,923.1284632140305L809.9368923069433,926.7522826713102L804.2875106501506,931.2122449692979L802.7810088750066,932.8846957884525L795.8134381649652,938.4593938160542L789.4108056206005,944.3125982083147L783.3847985200209,947.6571813315095L778.8652931945871,948.2146044211404L776.6055405318712,947.9358931417373L769.2613443780428,948.7720253877342L764.7418390526072,949.6081528569339L759.8457082833866,949.8868609517958L754.0080139047022,947.3784689905879L748.9235704135899,946.821042716314L743.6508142005841,948.7720253877342L738.7546834313634,952.6739127101173L731.5987999994268,957.4117789009033L724.8195420112788,962.7068596259924L718.7935349106992,965.493667277784L712.579215088228,966.887051206475L708.0597097627942,962.7068596259924L707.3064588752204,955.182213916094L689.7933757391675,949.0507350748958L686.0271213013057,946.821042716314L681.1309905320868,946.821042716314L676.4231724847577,947.9358931417373L670.2088526622865,947.6571813315095L664.3711582836022,944.8700340367941L657.5919002954506,939.5743079393578L655.3321476327365,938.4593938160542L652.8840822481252,939.0168519394065L641.0203807688631,940.9679386492935L640.4554426031827,936.2295400878356L635.935937277749,936.2295400878356L629.5333047333843,932.8846957884525L626.331988461201,929.8185213525721L624.6371739641654,929.5397750363481L623.5072976328065,930.3760123921238L621.2475449700905,927.3097853921208L618.4228541416942,922.0134237880848L612.0202215973295,921.4559008889337L608.6305926032546,922.0134237880848L607.5007162718957,922.2921844410885L604.8643381653928,923.6859797408833L602.9812109464619,923.6859797408833L599.214956508602,924.8010064222763L591.117509467198,927.8672859890212L578.500557100364,932.0484727680159L572.2862372778927,934.835864253866L572.0979245559993,936.5082736619079L570.40311005896,937.9019335692283L563.8121647927037,941.5253872173926L554.2082159761576,945.7061837984365L549.5003979288304,948.4933151698351L545.16920532529,952.6739127101173L539.5198236684973,949.0507350748958L539.3315109466039,949.8868609517958L538.7665727809253,951.5590983755683L543.0977653844657,953.7887185530999L545.922456212862,956.0183047654864L544.7925798815049,957.1330851351813L546.8640198223293,961.3134359022661L548.5588343193649,966.6083754819265L550.0653360945107,970.5097873451741L549.8770233726173,981.0988096859655L550.0653360945107,986.9503092130035L547.2406452661144,995.5878096197703L546.1107689347555,998.6526066207007L545.922456212862,1000.0456749565346L547.0523325442209,1001.9959483571292L548.5588343193649,1003.9461957774765L549.6887106507256,1007.0108178065566L549.5003979288304,1008.9609984249255L553.0783396447987,1010.9111530664086L555.7147177513034,1011.7469256752374L557.409532248339,1013.1398694210511L558.3510958578045,1014.5327999145666L558.7277213015914,1015.6471347678744L555.3380923075165,1020.9401095039357L554.2082159761576,1024.2829423320072L554.7731541418361,1026.2328929043288L555.903030473195,1027.6256988428067L567.2017937867786,1025.954330126784L572.4745499997844,1025.3972029817523L571.5329863903207,1029.5756048990734L571.1563609465338,1031.525484988888L572.2862372778927,1035.7037120337482L573.9810517749302,1040.1603561422962L572.4745499997844,1040.995961812543L570.5914227808535,1042.388627333392L567.5784192305655,1046.0094957024994L568.143357396244,1046.2880203302484L567.7667319524589,1051.3013730435778L566.8251683429917,1055.4790358690516L574.1693644968236,1056.5930591617362L575.6758662719676,1061.6060591109272L569.8381718932833,1066.340401507332L563.8121647927037,1074.4162794530275L558.5394085796979,1076.922495859777L553.0783396447987,1078.8717456385057L548.5588343193649,1079.4286693819013L541.5912636093217,1078.314819777428L535.7535692306355,1075.5301587061404L527.0911840235549,1078.5932829727244L525.0197440827324,1079.4286693819013L522.3833659762295,1079.7071304595156L521.441802366764,1081.099427906258L515.6041079880797,1081.3778858073638L512.7794171596834,1090.5666995722713L511.0846026626441,1097.8059650454525L508.0715991123561,1107.5505651666317L503.17546834313725,1112.840219497637L491.68839230765843,1118.4080703508807L486.79226153843956,1114.232202050276L477.18831272189345,1116.7377373145864L471.9155565088877,1117.8512947882555L466.83111301777353,1118.1296828340855L462.1232949704481,1118.1296828340855L459.1102914201583,1119.7999999999884L456.8505387574405,1118.9648437975993L455.9089751479769,1117.0161274764978L453.46090976336563,1114.232202050276L452.70765887579364,1112.2834227731364L451.0128443787562,1109.2210029587586L448.56477899414676,1105.8801083260623L446.68165177521587,1102.5391374967876L445.3634627219635,1099.4765139626106L450.44790621307584,1090.2882591396628L450.44790621307584,1088.0607166232803L450.2595934911842,1087.2253794458666L449.1297171598253,1081.6563431791583L449.1297171598253,1081.099427906258L448.3764662722515,1076.6440294879721L448.7530917160384,1074.137808316067L447.81152810657477,1070.7961133735662L447.24658994089623,1069.9606777242734L445.55177544385515,1068.8467561121506L444.4218991124999,1066.0619150146958L444.4218991124999,1061.3275636154285L444.6102118343915,1059.3780803183763L444.4218991124999,1057.1500676301657L441.0322701184232,1049.9087922837498L439.71408106517083,1048.5161982808786L438.20757929002684,1047.4021135434741L435.5712011835258,1047.123591034746L432.74651035512943,1046.5665444281476L430.48675769241163,1044.3383368112554L429.9218195267331,1042.388627333392L429.35688136105273,1039.60328304641L425.7789396450862,1039.60328304641L425.0256887575142,1039.3247457037796L424.6490633137273,1038.4891304967314L425.21400147940585,1034.5895298125106L424.2724378699404,1031.2469322800462L425.4023142012993,1027.9042584406998L427.47375414212365,1026.2328929043288L427.47375414212365,1025.954330126784L423.1425615385815,1025.3972029817523L422.0126852072244,1021.4972536085697L420.31787071018516,1021.4972536085697L418.8113689350412,1021.2186818212504L418.0581180474692,1020.9401095039357L417.6814926036841,1020.9401095039357L413.1619872782485,1020.1043893716997L410.71392189363905,1019.5472399667924L409.3957328403885,1019.5472399667924L409.01910739660343,1019.2686644693313L407.7009183433511,1017.0400414079486L406.5710420119922,1014.5327999145666L400.9216603551995,1011.4683353357541L400.35672218952095,1010.0753756865015L398.09696952680315,1009.5181881159515L397.1554059173395,1009.5181881159515L397.5320313611264,1008.6824027841358L399.0385331362686,1007.5680149197578L398.85022041437514,1005.3392137433257L401.86322396466494,1003.1103786356398L402.61647485223875,1002.8317718613689L402.99310029602384,1003.3889848797407L403.36972573981075,1003.6675905937009L403.93466390548747,1003.6675905937009L405.2528529587398,1001.7173394620186L407.1359801776707,1000.6028985792509L407.32429289956417,1000.0456749565346L406.38272929010054,998.3739913627651L406.5710420119922,997.538142407604L408.83079467471,997.2595250286686L409.3957328403885,996.7022886801569L410.1489837279605,996.1450502104417L412.4087363906765,996.4236697104352L413.1619872782485,995.5878096197703L412.7853618344634,994.7519447565574L411.2788600593194,992.5229484553565L411.09054733742414,990.2939182145201L410.1489837279605,987.5075826834363L409.3957328403885,986.3930336211197L407.7009183433511,982.4920450750797L409.2074201184969,981.9347525106714L409.3957328403885,981.6561054328195L406.38272929010054,981.3774578245939L406.00610384631364,980.2628620873584L405.4411656806333,979.1482578631694L403.93466390548747,974.4110952236806L402.99310029602384,968.5590944121504L402.23984940845,968.0017487991572L402.0515366865584,964.3789505842578L401.2982857989864,962.9855427789298L401.2982857989864,957.6904721360042L400.9216603551995,956.5756960117142L399.98009674573586,955.4609113965707L399.22684585816205,953.5100178884459L398.2852822486984,953.5100178884459L398.09696952680315,953.2313166930544L398.2852822486984,951.0016880239273L399.60347130194896,950.444275549351L400.73334763330786,950.444275549351L401.10997307709476,949.6081528569339L400.35672218952095,948.2146044211404L399.4151585800555,947.9358931417373L398.47359497059006,947.9358931417373L397.34371863923116,948.4933151698351L399.22684585816205,946.5423287829908L405.8177911244202,944.0338794978597L407.32429289956417,943.4764404846501L414.10355088771576,939.5743079393578L415.23342721907284,939.29558020478L415.23342721907284,939.8530351430818L420.8828088758637,939.5743079393578L420.8828088758637,940.4104879578226L420.1295579882935,940.6892135690141L420.50618343208043,942.0828336621198L421.071121597759,942.0828336621198L427.47375414212365,939.5743079393578L427.2854414202302,938.7381231432082L425.96725236697785,933.7209140305058L426.5321905326564,933.4421751474438L430.1101322486247,935.3933361801464L431.24000857998544,935.6720713468821L434.06469940837997,934.2783902040246L440.09070650895956,932.8846957884525L441.0322701184232,935.9508059827931L441.59720828410354,939.0168519394065L443.10371005924753,944.5913163879013L446.49333905332423,945.1487511547748L446.68165177521587,946.821042716314L446.68165177521587,951.5590983755683L447.43490266278786,951.837802755239L449.31802988171876,960.4773753004993L449.1297171598253,961.8708069836284L447.9998408284664,965.2149889003194L447.9998408284664,967.1657264004753L448.94140443793185,972.1817891683604L449.5063426036122,974.1324338235427L458.73366597637323,970.231118517826L459.1102914201583,970.5097873451741L460.42848047340885,973.0177829179011L463.6297967455921,976.0830524843914L464.0064221893772,975.5257355194335L464.7596730769492,972.4604542821035L464.7596730769492,969.6737792714412L470.7856801775288,968.5590944121504L471.3506183432073,968.5590944121504L474.3636218934971,971.9031235240982L475.30518550296256,973.8537718929292L475.68181094674765,973.8537718929292L475.4934982248542,972.7391188652546L474.740247337284,971.9031235240982L472.2921819526746,963.8215890539141L472.4804946745662,963.2642254011589L473.04543284024476,962.7068596259924L473.04543284024476,960.1986873719288L473.04543284024476,953.2313166930544L471.3506183432073,944.0338794978597L470.2207420118484,942.3615560883045L469.8441165680615,940.9679386492935L467.3960511834521,939.5743079393578L467.20773846156044,938.1806639581191L467.5843639053455,937.3444711989141L467.96098934913243,936.7870067050972L468.525927514811,935.1146004824695L468.9025529585979,922.2921844410885L469.09086568049133,922.2921844410885L468.71424023670625,920.6196125573915L468.9025529585979,919.7833194463747L472.1038692307793,918.1107188858587L474.17530917160366,915.8805550648249L475.4934982248542,913.650357253573L476.81168727810655,910.304996801904L476.81168727810655,909.7474292905681L471.9155565088877,905.0080196596828L470.2207420118484,902.4988582927617L467.96098934913243,896.9227900827827L463.81810946748556,896.0863615223643L455.1557242604031,886.3276749806682L454.21416065093945,886.0488458005129L454.0258479290442,885.4911858461273L451.9544079882198,884.0970266602817L450.2595934911842,883.8181932287989L448.3764662722515,884.3758595602412L444.79852455628316,880.750990408138L443.6686482249279,880.4721505994094L439.1491428994941,881.8663443286205L435.94782662731086,882.4240181000932L434.06469940837997,881.5875066456501L432.18157218944907,880.4721505994094L431.80494674566216,879.9144693874987L430.6750704143051,879.3567860497133L426.1555650888695,878.24141299646L422.3893106510095,877.9625684043858L418.9996816569346,874.8952428133634L418.0581180474692,870.7124224511936L418.0581180474692,869.0392608184775L413.9152381658205,868.2026728257624L414.85680177528775,865.1351425863832L404.87622751495473,862.6252972721559L397.1554059173395,861.7886725979042L396.7787804735526,858.4421260510862L399.60347130194896,858.7210078542557L402.61647485223875,858.7210078542557L406.9476674557791,857.6054774515942L407.32429289956417,857.0477090600907L408.07754378713616,855.3743911246274L408.83079467471,854.8166142257105L410.5256091717474,853.1432707675121L412.97367455635685,851.7488032627443L413.35030000014376,851.1910125385475L413.5386127220354,849.2387282531417L414.10355088771576,848.4020270112378L413.72692544392885,843.6606295668316L412.22042366878486,840.3136682429613L411.09054733742414,836.9666303288832L409.96067100606706,834.4563016280008L409.3957328403885,833.8984449543495L407.1359801776707,831.9459298402508L406.00610384631364,828.3197611866926L404.4996020711678,825.530339504272L402.61647485223875,823.0198145017348L398.47359497059006,820.23029173135L396.96709319544607,816.8827941716008L396.7787804735526,815.7669446242071L396.2138423078741,812.4193448966689L396.4021550297675,811.0244890602189L396.4021550297675,809.0716685375519L394.1424023670497,802.097096641548L393.9540896451581,800.1441568982991L388.49302071025704,797.9121938255994L386.98651893511305,794.5641853384877L375.6877556215295,795.4011946467654L364.76561775173104,794.2851811709843L360.4344251481907,788.7049860241386L358.9279233730467,785.3567667148891L356.1032325446504,781.4504139490891L351.9603526630017,779.2181655105232L346.4992837281043,783.124577913637L341.2265275150985,785.9148085907946L340.28496390563305,786.7518674112653L338.5901494085938,784.798722709369L338.02521124291707,785.3567667148891L337.8368985210218,785.0777449783636L334.8238949707338,790.9370896372566L334.44726952694873,790.6580785489641L332.75245502990947,791.7741197076684L331.057640532872,792.3321370927733L329.3628260358346,792.6111449867167L326.91476065122333,792.3321370927733L325.2199461541877,791.7741197076684L322.9601934914699,792.3321370927733L322.77188076957646,792.8901523483655L319.75887721928666,792.3321370927733L319.9471899411801,793.4481654744886L309.9666156808489,796.7961995138903L309.77830295895546,800.9811342676403L308.27180118380966,800.9811342676403L306.76529940866567,800.9811342676403L300.17435414240936,800.1441568982991L289.628841716396,799.5861693239422L284.16777278149857,799.8651633772242L277.388514793347,801.8181068465346L271.7391331365561,800.1441568982991L266.84300236733543,799.5861693239422L263.07674792947364,799.5861693239422L259.68711893539876,801.8181068465346L254.7909881661799,804.0500103036029L252.53123550346209,804.6079808452341L249.1416065093872,804.3289958405367L248.20004289992175,804.0500103036029L242.5506612431309,803.4920376328228L226.54407988221828,800.7021423435071L226.35576716032665,799.5861693239422L224.6609526632874,797.6331960461685L221.45963639110596,788.7049860241386L221.2713236692125,788.4259706767189L218.63494556270962,780.0552626687568L217.88169467513762,779.4971984291333L216.37519289999364,776.7068452802632L214.3037529591693,775.0326078296348L213.36218934970566,773.6373953089205L212.4206257402384,769.7307294187485L208.27774585859152,758.0101053729595L210.34918579941586,753.544858563022L211.2907494088795,748.2422008284921L213.5505020715973,741.8229367398744L214.49206568106092,740.4274072453409L226.9207053260052,734.566037880315L234.07658875794186,730.6583277279133L235.7714032549793,729.5418199249834L234.82983964551568,726.4713794922427L233.1350251484746,723.400874560044L230.31033432008007,720.0511592502153L228.80383254493609,716.9805194434302L222.02457455678632,712.7931793782336L214.49206568106092,707.4890430727683L213.73881479348893,707.4890430727683L212.4206257402384,708.3265510763886L206.58293136155407,704.697315065976L205.26474230830354,704.9764902663301L198.48548432015195,698.8345126663189L200.9335497047632,695.4842342672491L199.23873520772395,692.9714750645653L197.9205461544716,692.1338790626178L197.73223343257996,691.5754790609208L199.42704792961558,689.6210622523213L201.3101751485483,688.5042409120215L201.6868005923352,687.3874110365141L200.1802988171894,685.1537256795127L199.42704792961558,683.4784392556321L199.8036733734025,680.9654736085649L199.23873520772395,680.6862525357865L199.0504224858305,680.9654736085649L196.97898254500797,677.6147855216259L196.4140443793276,677.6147855216259L192.64778994146582,680.4070309294912L192.45947721957418,680.4070309294912L191.14128816632365,678.4524647461658L179.08927396516629,665.6075222427899L178.52433579948593,665.3282718217961L178.52433579948593,663.3735039313033L178.90096124327283,661.9772251413378L179.84252485273828,660.8601925024122L181.91396479356263,659.1846275320277L182.29059023734953,658.6261016053613L182.29059023734953,656.9505110149184L177.58277219002048,648.0137033176434L176.26458313676994,643.5450944711629L176.26458313676994,641.8693309162481L174.75808136162414,641.8693309162481L172.87495414269324,641.8693309162481L172.6866414208016,641.310738793225L172.87495414269324,640.7521445344755L173.0632668645885,639.9142491418024L172.87495414269324,637.4005341302836L171.1801396456558,634.3281570455001L170.8035142018707,632.0936603996088L170.61520147997726,626.786593884477L169.86195059240526,625.6692921561917L168.35544881725946,623.7139935689629L165.90738343265184,621.4793345650687L162.7060671604686,619.8033178784681L159.3164381663937,618.6859627376107L157.24499822557118,617.2892567927775L154.23199467528138,613.6577588358778L154.42030739717484,611.702299464072L152.91380562202903,611.1435919783689L153.29043106581594,607.7913021862769L155.55018372853192,599.1308641132055L155.55018372853192,598.2927299513394L154.42030739717484,596.8958289940638L154.23199467528138,594.3813736038719L154.79693284095993,592.7050459616439L157.62162366935627,589.3523329574236L157.99824911314317,588.5141426808841L158.37487455692826,585.9995429892006L158.1865618350348,584.3231191420637L164.40088165750785,582.646676052027L167.79051065158092,582.646676052027L174.9463940835176,583.4849000024697L174.75808136162414,580.1319753353455L174.75808136162414,578.7349006718723L176.26458313676994,579.0143166736962L177.77108491191393,578.455484135513L179.08927396516629,576.4995534119225L179.08927396516629,575.9407112509361L178.52433579948593,574.2641719372623L178.52433579948593,573.7053212224127L180.59577574030845,570.6316040635284L181.1607139059888,570.0727394478163L184.1737174562786,568.6755685515818L187.9399718941404,565.3223038618453L189.25816094739093,563.3661972341506L191.89453905389382,561.410064404321L195.47248076986216,558.0566328753339L196.4140443793276,556.1004289198172L196.7906698231145,554.4236618144059L196.4140443793276,552.1879423897335L195.09585532607525,549.9521887341834L190.76466272253674,540.7293430423306L190.9529754444302,539.890873637778L191.7062263320022,537.3754365345667L193.58935355093126,535.9779527520004L193.96597899471817,535.6984543903818L192.83610266335927,533.1829450595542L191.32960088821528,530.9469003818085L189.82309911306947,529.5493550683459L187.9399718941404,528.9903331973183L186.99840828467313,528.1517963775113L185.3035937876375,525.0771201679745L183.4204665687048,522.2819037879672L182.66721568113462,521.4433284383704L181.72565207166917,521.4433284383704L180.0308375746299,522.0023792066349Z" style="fill: none; stroke: rgb(8, 48, 107);"><title>TERRITOIRE DE BELFORT</title></path><g stroke="#000" stroke-opacity="0.2"><path d="M0,-22.448162112566994L5.039926405668234,-6.936863585267022L21.349470856006818,-6.936863585267023L8.154772225169292,2.649646114250548L13.19469863083753,18.16094464155052L8.881784197001252e-16,8.574434942032948L-13.194698630837525,18.160944641550522L-8.154772225169292,2.649646114250549L-21.34947085600682,-6.936863585267019L-5.0399264056682345,-6.936863585267021Z" transform="translate(313.16793195303035,549.6727171203529)rotate(22.83650227185213)" fill="white" class="commune"><title>insee_com : 90010 
Population : 47656
 Nom : BELFORT</title></path></g><text class="text" y="40" x="427" text-anchor="middle" font-size="36" font-family="Helvetica" fill="#6baed6">90  - TERRITOIRE DE BELFORT</text><line x1="313.16793195303035" y1="549.6727171203529" x2="313.16793195303035" y2="549.6727171203529" stroke="yellow" opacity="0.35" stroke-width="2"/></svg>