<svg viewBox="0,0,600,600" width="600" height="600" style="width: 100%; height: auto;" xmlns="http://www.w3.org/2000/svg" xmlns:xlink="http://www.w3.org/1999/xlink"><rect width="752" height="902.4" fill="black"/><path d="M118.20231958762895,273.2358830184967L118.20231958762895,272.7504456909737L118.5567010309278,272.2650004316638L117.84793814432987,269.83765514382685L117.13917525773195,268.8666614918402L116.43041237113403,267.89563609961624L113.94974226804129,266.9245789639135L112.88659793814429,266.9245789639135L111.46907216494844,266.9245789639135L110.0515463917526,266.9245789639135L110.0515463917526,266.439038491244L110.0515463917526,264.4967972255072L110.0515463917526,264.4967972255072L109.34278350515467,264.0112170632783L107.92525773195871,263.5256289619356L106.50773195876286,262.5544289401878L106.50773195876286,262.5544289401878L106.15335051546401,262.5544289401878L104.73582474226816,262.5544289401878L102.60953608247428,263.0400329210461L102.2551546391752,263.0400329210461L101.54639175257728,263.5256289619356L101.19201030927843,263.5256289619356L100.83762886597935,264.0112170632783L100.83762886597935,265.95349008146513L100.4832474226805,265.95349008146513L99.77448453608258,267.89563609961624L98.71134020618558,270.3231400682416L98.35695876288673,270.8086170588358L97.6481958762887,270.8086170588358L96.93943298969077,269.83765514382685L96.58505154639181,268.3811527634607L96.23067010309285,266.9245789639135L95.87628865979377,265.95349008146513L93.75,265.4679337341877L93.39561855670115,264.4967972255072L93.04123711340208,264.0112170632783L93.04123711340208,263.5256289619356L93.04123711340208,263.5256289619356L93.04123711340208,263.0400329210461L93.39561855670115,262.5544289401878L93.75,260.61193360921607L93.39561855670115,258.6693112064859L93.04123711340208,257.2122609978942L93.04123711340208,256.24085446865865L93.39561855670115,255.7551392857531L93.39561855670115,255.2694161567997L93.39561855670115,255.2694161567997L93.04123711340208,255.7551392857531L92.33247422680415,256.7265617058911L91.9780927835053,257.6979523450609L91.9780927835053,257.6979523450609L91.62371134020623,257.6979523450609L91.26932989690727,257.6979523450609L88.78865979381453,257.6979523450609L87.01675257731972,257.2122609978942L85.59922680412376,256.24085446865865L84.53608247422687,255.2694161567997L84.18170103092791,252.35491049285338L83.82731958762895,250.41174774395768L83.47293814432999,249.4401186678151L83.11855670103103,248.95429220291044L82.76417525773206,249.4401186678151L81.70103092783518,250.41174774395768L80.63788659793829,250.89755035598137L81.34664948453621,251.86913173003268L82.05541237113414,253.32644417215124L83.11855670103103,254.78368508135827L83.11855670103103,255.2694161567997L83.11855670103103,255.2694161567997L83.11855670103103,255.7551392857531L82.76417525773206,256.24085446865865L81.70103092783518,256.24085446865865L81.34664948453621,256.24085446865865L78.15721649484544,256.24085446865865L76.38530927835063,256.24085446865865L75.67654639175271,255.7551392857531L74.96778350515478,256.24085446865865L74.61340206185571,256.24085446865865L74.25902061855686,256.7265617058911L73.90463917525778,256.7265617058911L73.90463917525778,256.7265617058911L73.55025773195894,256.24085446865865L73.19587628865986,256.24085446865865L73.19587628865986,255.7551392857531L72.84149484536078,255.2694161567997L72.48711340206194,254.78368508135827L72.13273195876286,254.78368508135827L71.77835051546401,254.78368508135827L71.06958762886609,254.29794605904317L69.65206185567024,253.32644417215124L67.88015463917543,252.35491049285338L67.52577319587635,252.35491049285338L65.0451030927835,250.89755035598137L62.21005154639181,249.92593718136777L61.501288659793886,249.92593718136777L61.146907216494924,250.41174774395768L58.666237113402076,251.3833450178754L58.31185567010323,250.89755035598137L57.95747422680415,249.4401186678151L57.60309278350519,249.4401186678151L57.60309278350519,249.4401186678151L56.894329896907266,248.95429220291044L55.122422680412456,247.98261541734973L51.93298969072168,246.52504059353305L50.8698453608248,246.0391664118324L50.8698453608248,245.55328427591667L49.45231958762895,245.06739418534926L48.743556701031025,243.60967618177528L46.26288659793829,242.15188657178805L44.84536082474233,240.6940253443354L44.84536082474233,238.2640974520291L44.49097938144337,238.2640974520291L43.78221649484544,237.77808799291597L42.71907216494856,237.29207057262465L41.65592783505167,236.80604519075132L41.30154639175271,236.80604519075132L38.4664948453609,236.32001184688488L36.69458762886609,236.32001184688488L35.6314432989692,236.80604519075132L34.568298969072316,236.80604519075132L34.213917525773354,236.80604519075132L33.15077319587647,236.32001184688488L33.505154639175316,235.83397054062516L33.15077319587647,235.83397054062516L33.15077319587647,235.34792127154287L32.79639175257739,234.86186403924148L32.79639175257739,234.86186403924148L32.79639175257739,233.88972568336249L32.79639175257739,231.9453533949818L33.505154639175316,229.0285559717595L35.27706185567024,226.59767232137892L37.04896907216505,225.62526307000735L38.11211340206194,224.16658940638808L37.757731958762975,223.68034890712443L37.757731958762975,222.70784398908654L37.04896907216505,221.7353071756006L36.69458762886609,221.24902680705054L36.69458762886609,220.7627384633961L36.69458762886609,218.81750532970545L36.69458762886609,218.81750532970545L37.04896907216505,218.33117710446822L37.757731958762975,218.33117710446822L37.04896907216505,217.84484090167098L35.6314432989692,215.8994163068237L33.505154639175316,213.95386403839802L31.378865979381544,211.52174412195018L29.606958762886734,209.08942462325285L28.543814432989848,206.65690549106512L28.543814432989848,207.14342529064015L28.89819587628881,206.1703777040857L29.252577319587772,206.1703777040857L29.961340206185696,204.22418667404418L29.961340206185696,201.79126812090908L29.606958762886734,200.33142109434266L28.543814432989848,198.8715021331882L27.48067010309296,197.41151122636802L27.126288659793886,196.43814397986353L26.063144329897,194.9780331389411L25.354381443299076,194.49131353134362L25,194.00458592609357L25.708762886598038,194.00458592609357L26.417525773195962,194.00458592609357L27.126288659793886,194.00458592609357L28.189432989690886,193.03110672094408L28.89819587628881,192.54435512024065L28.89819587628881,192.54435512024065L28.89819587628881,191.08405232062796L28.89819587628881,190.59726872023748L29.606958762886734,190.11047711888023L29.606958762886734,190.11047711888023L29.606958762886734,189.62367751615602L29.606958762886734,189.62367751615602L30.315721649484658,189.13686991167924L30.670103092783506,188.65005430499878L31.024484536082582,188.65005430499878L31.378865979381544,188.65005430499878L31.733247422680506,188.16323069571808L31.733247422680506,187.6763990834479L32.08762886597947,185.72899259602127L32.44201030927843,185.2421209625245L32.79639175257739,184.75524132354985L33.85953608247439,184.26835367869717L34.568298969072316,183.78145802753352L34.92268041237128,183.78145802753352L33.85953608247439,181.83379535166023L33.15077319587647,181.3468596628154L32.79639175257739,180.8599159652149L32.44201030927843,180.8599159652149L31.733247422680506,180.8599159652149L31.378865979381544,180.37296425842214L30.670103092783506,179.88600454203697L31.024484536082582,179.39903681565193L31.733247422680506,178.91206107884136L32.44201030927843,178.42507733119783L34.568298969072316,176.9640780191985L35.6314432989692,176.4770622241158L36.69458762886609,176.4770622241158L37.757731958762975,175.50300659488494L38.4664948453609,174.52891891080435L38.820876288659974,174.52891891080435L39.17525773195882,174.52891891080435L39.5296391752579,174.52891891080435L42.01030927835063,174.52891891080435L42.01030927835063,173.06772727460702L41.65592783505167,171.60646349643866L41.30154639175271,170.1451275651707L39.5296391752579,169.17086352044134L37.757731958762975,166.73506306762283L38.4664948453609,165.27348654561138L38.820876288659974,165.27348654561138L38.820876288659974,164.78627832741768L39.88402061855675,163.81183782224252L38.820876288659974,162.8373652226328L37.757731958762975,161.86286052528158L37.40335051546401,161.37559613892154L37.40335051546401,161.37559613892154L37.40335051546401,160.8883237268783L37.757731958762975,161.37559613892154L38.11211340206194,161.37559613892154L40.592783505154785,162.8373652226328L41.65592783505167,163.32460553445344L42.71907216494856,162.35011688638406L44.136597938144405,161.37559613892154L46.26288659793829,159.9137548241306L46.61726804123725,159.42645833258575L46.971649484536215,159.42645833258575L46.971649484536215,158.93915381371698L46.971649484536215,157.96452069235966L46.61726804123725,157.47719208904527L46.61726804123725,156.98985545674077L46.971649484536215,156.98985545674077L48.38917525773206,157.47719208904527L49.09793814432999,157.96452069235966L49.45231958762895,158.45184126712047L50.16108247422687,158.93915381371698L51.57860824742272,160.40104328874804L53.704896907216494,162.35011688638406L54.76804123711349,163.32460553445344L55.122422680412456,163.32460553445344L55.47680412371142,162.8373652226328L55.47680412371142,161.86286052528158L56.539948453608304,160.8883237268783L58.31185567010323,158.93915381371698L60.79252577319596,159.9137548241306L62.56443298969077,160.8883237268783L62.918814432989734,160.8883237268783L63.62757731958766,161.86286052528158L63.981958762886734,161.86286052528158L64.33634020618558,161.37559613892154L66.1082474226805,161.37559613892154L69.29768041237116,161.37559613892154L69.65206185567024,161.37559613892154L69.29768041237116,160.8883237268783L69.29768041237116,160.40104328874804L69.29768041237116,159.9137548241306L69.29768041237116,159.9137548241306L69.65206185567024,158.45184126712047L70.00644329896909,156.98985545674077L66.81701030927843,153.57827418457964L66.46262886597935,151.14118945853625L66.1082474226805,148.70390387376028L67.17139175257728,146.75393075292232L67.17139175257728,146.26641737858154L67.17139175257728,145.7788959657446L66.46262886597935,144.80382902297424L65.75386597938143,143.3411683098493L67.88015463917543,141.87843522802723L67.88015463917543,140.90323962980983L67.17139175257728,139.928011859447L66.1082474226805,139.44038590867422L65.75386597938143,138.95275191363908L65.75386597938143,136.0267789903737L66.46262886597935,136.0267789903737L67.88015463917543,135.53908867381324L69.29768041237116,135.05139030964347L69.65206185567024,135.53908867381324L70.36082474226816,136.0267789903737L71.77835051546401,136.51446125976508L73.90463917525778,135.05139030964347L73.55025773195894,134.07596943690078L73.55025773195894,134.07596943690078L72.48711340206194,133.10051636882054L72.48711340206194,133.10051636882054L72.13273195876286,133.10051636882054L71.42396907216494,132.12503110210673L70.71520618556701,129.68617704452845L70.71520618556701,129.19838207699286L70.71520618556701,127.73494885486434L70.71520618556701,127.24712167292819L70.71520618556701,127.24712167292819L72.48711340206194,124.80786493550477L72.84149484536078,124.31998941956408L73.19587628865986,124.31998941956408L73.55025773195894,123.8321058464935L73.90463917525778,123.8321058464935L73.90463917525778,123.8321058464935L74.61340206185571,123.34421421588922L74.96778350515478,123.34421421588922L76.38530927835063,123.8321058464935L77.80283505154637,124.31998941956408L79.57474226804129,124.80786493550477L80.63788659793829,122.36840678041699L80.63788659793829,121.88049097472685L80.63788659793829,121.3925671098259L80.63788659793829,121.3925671098259L80.99226804123725,120.41669520079449L81.34664948453621,119.44079105000492L81.34664948453621,117.97687436325577L79.92912371134037,116.51288511387247L80.28350515463922,116.02487257045141L80.99226804123725,115.04882329064276L83.47293814432999,114.56078655345118L84.53608247422687,113.09662794766336L84.53608247422687,111.63239674187571L84.53608247422687,111.14430353800344L85.2448453608248,111.14430353800344L85.59922680412376,111.14430353800344L87.01675257731972,112.1204818778242L88.43427835051557,113.09662794766336L90.20618556701038,114.0727417508242L90.56056701030934,114.56078655345118L91.26932989690727,115.04882329064276L91.26932989690727,116.51288511387247L91.62371134020623,117.97687436325577L91.9780927835053,118.952826882909L93.04123711340208,119.44079105000492L94.813144329897,120.90463518533215L95.87628865979377,122.36840678041699L96.58505154639181,122.85631452734015L96.93943298969077,122.85631452734015L97.29381443298973,123.34421421588922L97.6481958762887,123.34421421588922L98.00257731958766,123.8321058464935L98.00257731958766,123.34421421588922L98.35695876288673,123.34421421588922L98.35695876288673,123.34421421588922L98.71134020618558,123.8321058464935L99.06572164948466,123.8321058464935L99.06572164948466,124.80786493550477L99.06572164948466,125.78359179770268L99.06572164948466,126.75928643637963L99.4201030927835,126.75928643637963L99.4201030927835,127.24712167292819L100.4832474226805,127.73494885486434L101.54639175257728,128.2227679825628L101.54639175257728,128.2227679825628L101.90077319587635,128.71057905647103L101.90077319587635,128.71057905647103L101.19201030927843,129.68617704452845L100.4832474226805,130.17396395951073L99.77448453608258,130.66174282233987L99.4201030927835,131.14951363344153L99.4201030927835,131.63727639323406L98.71134020618558,134.07596943690078L98.71134020618558,134.07596943690078L98.71134020618558,134.07596943690078L100.83762886597935,135.53908867381324L102.2551546391752,135.05139030964347L103.3182989690722,134.56368389747513L103.3182989690722,134.07596943690078L104.02706185567024,133.5882469274802L104.38144329896909,133.10051636882054L105.44458762886609,132.12503110210673L104.02706185567024,131.14951363344153L103.67268041237116,130.66174282233987L103.67268041237116,129.68617704452845L104.02706185567024,129.68617704452845L104.02706185567024,129.19838207699286L104.38144329896909,129.19838207699286L104.73582474226816,129.19838207699286L105.79896907216494,128.71057905647103L106.50773195876286,127.73494885486434L107.21649484536078,126.27144314476391L106.86211340206194,123.34421421588922L107.57087628865986,122.85631452734015L108.27963917525778,122.36840678041699L111.46907216494844,120.90463518533215L112.17783505154637,120.41669520079449L112.53221649484544,120.41669520079449L114.65850515463922,121.88049097472685L116.07603092783518,122.85631452734015L117.13917525773195,122.85631452734015L117.49355670103103,123.34421421588922L117.49355670103103,123.34421421588922L119.6198453608248,120.90463518533215L119.97422680412365,120.41669520079449L120.6829896907218,119.92874715582366L121.03737113402065,120.41669520079449L121.39175257731972,120.90463518533215L121.74613402061857,121.3925671098259L122.80927835051557,121.3925671098259L122.45489690721661,122.85631452734015L123.5180412371135,125.29573239474848L123.5180412371135,125.29573239474848L124.22680412371142,124.31998941956408L124.22680412371142,124.31998941956408L127.06185567010323,123.8321058464935L129.188144329897,126.27144314476391L129.54252577319596,126.75928643637963L129.89690721649492,127.24712167292819L130.9600515463918,128.71057905647103L131.31443298969077,129.19838207699286L131.66881443298973,128.71057905647103L132.37757731958766,128.2227679825628L132.73195876288673,128.2227679825628L133.44072164948466,127.24712167292819L134.50386597938154,126.27144314476391L134.8582474226805,126.27144314476391L135.92139175257728,125.78359179770268L137.6932989690722,125.78359179770268L139.465206185567,125.29573239474848L140.5283505154639,124.80786493550477L141.59149484536078,123.34421421588922L141.59149484536078,122.85631452734015L141.94587628865975,122.36840678041699L142.65463917525778,121.3925671098259L143.00902061855663,121.3925671098259L143.3634020618557,121.3925671098259L143.3634020618557,121.3925671098259L143.71778350515467,121.88049097472685L144.78092783505156,122.36840678041699L145.13530927835052,122.36840678041699L145.13530927835052,122.85631452734015L145.13530927835052,122.85631452734015L145.84407216494844,122.85631452734015L146.55283505154648,123.34421421588922L148.3247422680413,121.88049097472685L149.03350515463922,121.3925671098259L149.74226804123714,120.90463518533215L149.38788659793818,120.41669520079449L149.03350515463922,119.92874715582366L148.67912371134014,119.44079105000492L148.3247422680413,118.952826882909L146.55283505154648,116.51288511387247L146.55283505154648,116.02487257045141L145.84407216494844,114.56078655345118L147.61597938144325,115.04882329064276L148.3247422680413,115.04882329064276L149.74226804123714,115.53685196283914L150.80541237113403,116.02487257045141L152.9317010309278,117.00088959352797L153.64046391752595,117.48888600985447L153.9948453608248,117.48888600985447L154.34922680412365,117.48888600985447L154.34922680412365,117.97687436325577L155.05798969072168,118.952826882909L155.05798969072168,118.952826882909L155.7667525773196,121.88049097472685L157.18427835051546,124.80786493550477L158.95618556701027,126.75928643637963L160.37371134020623,129.68617704452845L159.6649484536083,129.68617704452845L159.6649484536083,129.68617704452845L158.95618556701027,130.17396395951073L159.6649484536083,131.63727639323406L160.7280927835053,133.5882469274802L161.08247422680415,133.5882469274802L161.08247422680415,134.07596943690078L161.43685567010323,134.56368389747513L161.08247422680415,134.56368389747513L161.43685567010323,134.56368389747513L162.14561855670115,135.05139030964347L163.20876288659792,134.56368389747513L163.91752577319596,134.56368389747513L164.62628865979377,133.5882469274802L164.62628865979377,133.5882469274802L165.68943298969066,133.5882469274802L166.3981958762888,133.5882469274802L167.1069587628865,134.07596943690078L167.81572164948466,134.56368389747513L167.81572164948466,135.53908867381324L167.81572164948466,135.53908867381324L168.52448453608258,135.53908867381324L169.58762886597947,134.56368389747513L171.35953608247428,134.56368389747513L172.42268041237116,134.56368389747513L173.48582474226816,135.05139030964347L173.840206185567,135.05139030964347L174.1945876288661,135.53908867381324L174.1945876288661,135.53908867381324L174.54896907216494,134.56368389747513L174.903350515464,134.07596943690078L175.25773195876297,134.56368389747513L175.25773195876297,134.56368389747513L175.25773195876297,134.07596943690078L175.61211340206194,134.07596943690078L175.61211340206194,134.07596943690078L176.32087628865997,133.10051636882054L177.38402061855663,133.10051636882054L177.73840206185582,133.10051636882054L179.51030927835052,133.10051636882054L180.92783505154648,133.10051636882054L180.92783505154648,133.10051636882054L181.6365979381443,132.61277776050702L181.6365979381443,132.61277776050702L181.6365979381443,132.12503110210673L181.99097938144314,131.63727639323406L182.34536082474233,131.14951363344153L182.6997422680413,130.66174282233987L182.6997422680413,130.66174282233987L182.6997422680413,131.14951363344153L183.05412371134014,131.14951363344153L183.40850515463922,131.14951363344153L183.76288659793818,131.14951363344153L184.82603092783506,130.66174282233987L185.18041237113403,130.66174282233987L185.5347938144331,130.66174282233987L185.88917525773195,130.17396395951073L185.88917525773195,130.17396395951073L187.66108247422676,128.2227679825628L189.07860824742272,127.24712167292819L191.2048969072165,125.29573239474848L191.91365979381442,124.80786493550477L195.1030927835052,124.80786493550477L196.52061855670104,125.29573239474848L197.22938144329896,126.27144314476391L197.22938144329896,126.75928643637963L198.29252577319596,128.71057905647103L199.00128865979377,130.17396395951073L199.35567010309296,131.63727639323406L199.7100515463918,132.12503110210673L200.06443298969066,133.10051636882054L201.4819587628865,135.05139030964347L201.83634020618558,135.53908867381324L202.19072164948466,135.53908867381324L202.5451030927835,136.0267789903737L204.67139175257728,137.48980165869943L206.44329896907232,138.46510987389775L208.215206185567,139.928011859447L208.92396907216494,139.928011859447L210.69587628865986,139.928011859447L211.75902061855663,141.39084145023662L211.75902061855663,140.90323962980983L211.75902061855663,140.90323962980983L212.11340206185582,139.928011859447L212.46778350515467,139.44038590867422L212.82216494845352,138.95275191363908L213.1765463917526,138.46510987389775L213.88530927835052,137.00213548240936L214.23969072164937,136.51446125976508L215.30283505154637,135.05139030964347L215.65721649484544,135.05139030964347L215.65721649484544,132.61277776050702L216.0115979381443,131.63727639323406L216.36597938144337,130.66174282233987L216.72036082474233,129.19838207699286L217.0747422680413,127.73494885486434L216.0115979381443,126.27144314476391L215.30283505154637,125.78359179770268L215.30283505154637,125.78359179770268L214.59407216494844,124.80786493550477L214.59407216494844,124.31998941956408L214.59407216494844,123.34421421588922L214.59407216494844,121.88049097472685L214.94845360824752,118.46485465412479L218.13788659793818,115.53685196283914L219.90979381443287,113.5846888823653L220.26417525773195,113.5846888823653L220.26417525773195,113.5846888823653L220.97293814432987,111.63239674187571L221.32731958762895,111.63239674187571L221.32731958762895,111.63239674187571L222.03608247422687,110.6562022658145L223.80798969072168,108.70371648543733L225.22551546391753,108.21557486537858L226.28865979381442,106.75110157857853L226.64304123711338,106.75110157857853L226.64304123711338,106.75110157857853L226.64304123711338,105.28655564316432L226.99742268041246,103.82193704791644L226.99742268041246,103.33371470093334L227.3518041237113,103.33371470093334L229.123711340206,105.28655564316432L229.4780927835052,106.26292767272389L229.83247422680415,106.75110157857853L230.186855670103,107.23926741234754L230.89561855670104,108.21557486537858L233.0219072164948,110.16809292487596L234.43943298969066,111.14430353800344L235.50257731958766,112.60855894628548L237.9832474226804,111.14430353800344L238.69201030927832,111.14430353800344L239.04639175257728,111.14430353800344L239.40077319587624,111.14430353800344L239.75515463917532,111.14430353800344L240.81829896907232,110.6562022658145L241.52706185567,110.16809292487596L241.8814432989691,110.16809292487596L242.590206185567,109.67997551478402L243.29896907216494,109.19185003510574L244.00773195876286,109.67997551478402L245.07087628865975,111.14430353800344L245.42525773195882,111.63239674187571L245.77963917525767,112.1204818778242L247.19716494845352,113.09662794766336L250.03221649484533,113.5846888823653L251.09536082474233,113.5846888823653L252.51288659793818,114.0727417508242L253.221649484536,114.0727417508242L254.28479381443287,114.56078655345118L254.99355670103103,115.53685196283914L255.34793814432987,116.02487257045141L256.4110824742269,117.00088959352797L258.53737113402065,116.51288511387247L258.8917525773195,116.51288511387247L259.2461340206187,116.51288511387247L259.60051546391753,117.00088959352797L260.30927835051546,117.48888600985447L261.37242268041246,117.97687436325577L261.7268041237113,118.46485465412479L262.7899484536083,119.44079105000492L263.8530927835052,120.41669520079449L264.561855670103,120.90463518533215L264.561855670103,120.90463518533215L265.625,121.3925671098259L266.33376288659804,121.3925671098259L268.4600515463918,121.3925671098259L268.4600515463918,121.3925671098259L268.4600515463918,121.3925671098259L270.94072164948454,121.88049097472685L273.0670103092783,122.85631452734015L275.90206185567,124.31998941956408L278.38273195876286,123.8321058464935L279.44587628865975,123.34421421588922L279.8002577319588,123.34421421588922L279.8002577319588,122.85631452734015L279.44587628865975,122.36840678041699L280.15463917525767,121.3925671098259L281.21778350515467,120.41669520079449L282.28092783505156,119.44079105000492L283.6984536082474,118.952826882909L285.11597938144325,117.97687436325577L286.5335051546391,116.02487257045141L286.8878865979382,115.53685196283914L287.242268041237,115.53685196283914L287.596649484536,115.53685196283914L288.305412371134,115.04882329064276L289.3685567010309,115.53685196283914L292.2036082474226,116.02487257045141L292.91237113402053,116.02487257045141L293.6211340206187,116.51288511387247L295.03865979381453,116.51288511387247L295.7474226804122,117.00088959352797L296.4561855670104,117.00088959352797L296.4561855670104,117.00088959352797L297.8737113402061,116.51288511387247L298.936855670103,116.02487257045141L301.41752577319573,115.53685196283914L302.1262886597939,115.53685196283914L302.1262886597939,115.53685196283914L302.8350515463918,115.04882329064276L303.54381443298973,115.04882329064276L303.54381443298973,114.56078655345118L303.54381443298973,114.56078655345118L303.54381443298973,114.56078655345118L305.6701030927835,114.56078655345118L307.7963917525774,114.56078655345118L310.27706185567,114.56078655345118L310.98582474226805,114.56078655345118L311.69458762886586,114.56078655345118L311.69458762886586,116.51288511387247L312.04896907216505,117.00088959352797L312.04896907216505,117.00088959352797L313.1121134020618,117.97687436325577L314.1752577319587,118.46485465412479L315.59278350515467,118.46485465412479L316.65592783505156,118.46485465412479L317.71907216494844,118.952826882909L319.1365979381443,120.41669520079449L319.49097938144325,120.90463518533215L321.2628865979382,121.3925671098259L323.0347938144329,121.3925671098259L323.38917525773184,120.90463518533215L323.7435567010309,120.90463518533215L324.4523195876287,120.90463518533215L325.8698453608247,120.90463518533215L327.28737113402053,120.41669520079449L327.6417525773195,120.41669520079449L330.83118556701027,120.41669520079449L331.5399484536082,120.41669520079449L331.89432989690715,120.90463518533215L332.6030927835052,121.3925671098259L333.66623711340196,122.36840678041699L334.3749999999999,122.85631452734015L334.3749999999999,122.85631452734015L334.3749999999999,122.85631452734015L334.3749999999999,122.36840678041699L335.79252577319573,121.88049097472685L335.79252577319573,121.3925671098259L336.1469072164948,121.3925671098259L336.1469072164948,121.3925671098259L336.1469072164948,121.3925671098259L337.9188144329896,122.36840678041699L338.9819587628865,122.85631452734015L340.39948453608235,124.31998941956408L340.75386597938154,124.80786493550477L340.75386597938154,125.29573239474848L340.75386597938154,125.78359179770268L340.75386597938154,126.27144314476391L341.1082474226804,126.75928643637963L342.1713917525774,126.75928643637963L343.58891752577324,126.75928643637963L345.7152061855669,126.27144314476391L346.06958762886586,127.24712167292819L346.42396907216505,127.73494885486434L346.42396907216505,128.2227679825628L345.7152061855669,130.66174282233987L343.58891752577324,132.61277776050702L343.23453608247416,133.10051636882054L342.52577319587624,133.10051636882054L341.1082474226804,133.5882469274802L340.0451030927834,133.5882469274802L339.69072164948454,133.10051636882054L339.33634020618547,133.10051636882054L339.33634020618547,133.10051636882054L338.62757731958754,132.61277776050702L338.62757731958754,132.61277776050702L338.2731958762886,132.61277776050702L336.85567010309273,133.10051636882054L336.5012886597938,133.5882469274802L336.1469072164948,133.5882469274802L335.4381443298969,134.07596943690078L334.02061855670104,136.0267789903737L332.95747422680404,137.48980165869943L332.2487113402061,139.928011859447L331.5399484536082,142.85359865742066L331.1855670103092,144.80382902297424L332.2487113402061,146.26641737858154L332.6030927835052,147.7289333878216L332.95747422680404,148.70390387376028L332.95747422680404,149.1913770618885L332.95747422680404,149.1913770618885L332.6030927835052,149.1913770618885L331.89432989690715,149.67884221401982L331.5399484536082,150.16629933056538L330.83118556701027,151.14118945853625L330.1224226804122,152.60346439389468L328.7048969072164,155.0404286295161L328.7048969072164,156.98985545674077L328.35051546391753,157.47719208904527L326.9329896907217,158.93915381371698L326.9329896907217,158.93915381371698L326.9329896907217,158.93915381371698L328.7048969072164,159.42645833258575L329.4136597938144,160.8883237268783L329.4136597938144,161.86286052528158L329.7680412371134,162.35011688638406L330.1224226804122,163.81183782224252L331.1855670103092,164.78627832741768L331.1855670103092,164.29906208642933L331.5399484536082,163.81183782224252L331.5399484536082,163.32460553445344L332.6030927835052,162.8373652226328L332.6030927835052,162.8373652226328L337.9188144329896,164.29906208642933L339.33634020618547,164.78627832741768L339.69072164948454,164.29906208642933L341.46262886597924,164.29906208642933L341.46262886597924,164.29906208642933L343.23453608247416,165.27348654561138L343.9432989690721,167.2222391987998L344.29768041237116,168.19656739942002L345.006443298969,170.6322475599627L345.36082474226805,172.5806473648663L345.36082474226805,172.5806473648663L345.36082474226805,172.5806473648663L346.7783505154639,174.52891891080435L347.13273195876275,174.52891891080435L347.4871134020617,174.52891891080435L348.19587628865975,174.52891891080435L347.8414948453609,175.50300659488494L348.5502577319586,177.93808557232478L348.90463917525767,179.88600454203697L348.5502577319586,182.32072303213135L348.5502577319586,182.32072303213135L348.90463917525767,182.32072303213135L349.6134020618556,182.80764270466534L351.73969072164937,184.26835367869717L354.2203608247421,186.70271184822195L354.2203608247421,186.70271184822195L354.5747422680412,187.18955946775532L354.5747422680412,187.6763990834479L354.5747422680412,187.6763990834479L354.2203608247421,188.65005430499878L354.2203608247421,189.13686991167924L356.3466494845361,187.6763990834479L357.7641752577317,187.18955946775532L358.4729381443299,184.75524132354985L358.8273195876287,183.78145802753352L359.53608247422676,182.32072303213135L360.59922680412365,183.2945543696551L363.7886597938144,184.26835367869717L363.7886597938144,184.26835367869717L365.20618556701027,184.26835367869717L366.9780927835051,184.26835367869717L368.04123711340196,184.26835367869717L369.10438144329885,184.75524132354985L369.10438144329885,184.75524132354985L369.8131443298969,183.2945543696551L371.23067010309273,182.32072303213135L373.3569587628865,180.8599159652149L374.4201030927834,179.88600454203697L375.83762886597924,178.42507733119783L375.83762886597924,178.42507733119783L375.83762886597924,177.93808557232478L375.4832474226804,176.9640780191985L375.4832474226804,175.50300659488494L376.1920103092782,174.04186304715404L377.2551546391751,174.04186304715404L379.381443298969,173.06772727460702L379.381443298969,170.1451275651707L379.381443298969,170.1451275651707L379.73582474226805,170.1451275651707L380.44458762886586,171.119359536915L381.1533505154639,171.119359536915L381.50773195876275,171.60646349643866L381.50773195876275,171.60646349643866L381.8621134020617,171.60646349643866L382.2164948453609,172.5806473648663L382.9252577319586,173.5547991685562L383.27963917525767,175.01596675990368L383.27963917525767,176.9640780191985L383.27963917525767,176.9640780191985L383.27963917525767,177.45108580178567L383.27963917525767,178.42507733119783L383.63402061855663,179.39903681565193L383.9884020618556,180.37296425842214L385.0515463917525,182.32072303213135L386.11469072164937,184.26835367869717L385.40592783505156,185.72899259602127L384.34278350515456,188.65005430499878L383.63402061855663,190.11047711888023L383.27963917525767,190.59726872023748L383.27963917525767,191.08405232062796L383.27963917525767,191.08405232062796L383.63402061855663,191.5708279204955L383.9884020618556,191.5708279204955L384.34278350515456,192.057595520233L384.6971649484535,192.54435512024065L385.40592783505156,193.51785032275802L385.40592783505156,193.51785032275802L386.11469072164937,194.49131353134362L386.8234536082474,194.00458592609357L387.17783505154625,193.51785032275802L388.9497422680412,192.54435512024065L390.367268041237,193.51785032275802L391.7847938144329,194.00458592609357L392.84793814432976,194.49131353134362L394.2654639175256,195.46474474928982L395.68298969072146,196.43814397986353L396.3917525773196,196.92483160091433L397.10051546391753,197.41151122636802L397.4548969072164,197.8981828566284L398.1636597938144,198.3848464920884L398.5180412371134,198.8715021331882L398.8724226804122,198.8715021331882L399.2268041237114,199.3581497803134L400.9987113402061,201.79126812090908L401.35309278350496,201.79126812090908L401.70747422680404,202.76445951378264L402.0618556701029,203.25104322400148L403.47938144329873,203.25104322400148L405.60567010309273,203.25104322400148L405.9600515463916,203.25104322400148L407.37757731958754,202.76445951378264L408.7951030927834,202.2778678128925L409.14948453608235,201.79126812090908L409.14948453608235,201.30466043743945L409.14948453608235,200.81804476204343L409.50386597938143,200.33142109434266L410.21262886597924,198.8715021331882L411.98453608247416,198.3848464920884L413.04768041237105,197.41151122636802L413.40206185567,196.92483160091433L413.756443298969,195.95144836278268L414.4652061855669,194.49131353134362L414.4652061855669,194.00458592609357L414.4652061855669,193.51785032275802L414.11082474226794,191.08405232062796L414.4652061855669,188.65005430499878L414.4652061855669,187.6763990834479L415.1739690721648,186.21585622444036L415.88273195876275,185.2421209625245L415.88273195876275,184.75524132354985L417.3002577319586,183.78145802753352L419.4265463917525,181.3468596628154L419.78092783505144,180.8599159652149L420.48969072164937,180.37296425842214L422.2615979381443,179.39903681565193L423.67912371134014,178.42507733119783L424.742268041237,177.93808557232478L425.45103092783495,176.9640780191985L425.45103092783495,176.9640780191985L425.45103092783495,176.4770622241158L425.45103092783495,176.4770622241158L425.45103092783495,176.4770622241158L425.096649484536,176.4770622241158L424.0335051546391,175.99003841615922L422.61597938144325,175.01596675990368L421.55283505154625,174.04186304715404L421.1984536082474,173.5547991685562L420.84407216494833,172.5806473648663L420.84407216494833,172.5806473648663L421.1984536082474,172.0935594389448L421.9072164948452,171.119359536915L423.67912371134014,170.1451275651707L425.096649484536,169.65799955214243L425.45103092783495,169.65799955214243L425.45103092783495,169.65799955214243L426.51417525773184,170.1451275651707L427.22293814432976,170.1451275651707L428.99484536082457,170.1451275651707L430.7667525773195,170.6322475599627L432.89304123711327,170.6322475599627L433.2474226804122,170.1451275651707L435.3737113402061,168.68371946966727L436.08247422680404,168.68371946966727L439.2719072164948,168.19656739942002L440.6894329896908,168.19656739942002L441.75257731958754,167.70940730926304L443.52448453608247,166.73506306762283L443.8788659793813,165.27348654561138L444.58762886597924,163.81183782224252L444.9420103092783,161.37559613892154L444.58762886597924,158.93915381371698L444.58762886597924,157.96452069235966L444.2332474226804,156.50251079506052L443.8788659793813,154.06566703128556L442.8157216494843,152.11604744910437L441.39819587628847,149.67884221401982L440.3350515463916,148.21642264920592L439.2719072164948,147.2414360892035L438.91752577319573,146.26641737858154L438.91752577319573,146.26641737858154L438.5631443298969,145.7788959657446L438.91752577319573,145.7788959657446L438.91752577319573,145.29136651402223L438.91752577319573,144.80382902297424L438.91752577319573,144.80382902297424L439.2719072164948,143.82872992130797L439.6262886597938,143.3411683098493L439.9806701030926,143.3411683098493L441.39819587628847,142.3660209636255L441.75257731958754,141.87843522802723L442.1069587628866,141.87843522802723L443.1701030927834,141.39084145023662L443.52448453608247,140.90323962980983L443.8788659793813,140.90323962980983L443.52448453608247,140.90323962980983L443.52448453608247,140.90323962980983L443.1701030927834,141.39084145023662L443.1701030927834,141.39084145023662L443.52448453608247,141.39084145023662L443.8788659793813,141.87843522802723L444.2332474226804,142.3660209636255L444.58762886597924,142.3660209636255L444.9420103092783,142.85359865742066L444.9420103092783,143.3411683098493L444.9420103092783,143.3411683098493L444.58762886597924,143.82872992130797L444.58762886597924,144.80382902297424L444.9420103092783,145.7788959657446L446.35953608247394,146.26641737858154L450.9664948453609,149.1913770618885L450.6121134020616,152.11604744910437L450.9664948453609,153.57827418457964L450.25773195876275,155.0404286295161L450.6121134020616,156.01515810356068L451.32087628865963,157.47719208904527L451.6752577319586,159.9137548241306L450.6121134020616,161.37559613892154L449.9033505154639,161.86286052528158L449.5489690721648,162.35011688638406L448.8402061855669,164.29906208642933L449.5489690721648,166.24787891529922L452.02963917525756,168.19656739942002L452.7384020618555,168.68371946966727L453.09278350515444,168.68371946966727L454.86469072164925,169.17086352044134L456.2822164948451,170.1451275651707L456.99097938144325,170.6322475599627L457.69974226804095,171.119359536915L458.4085051546391,171.60646349643866L459.471649484536,171.60646349643866L460.1804123711339,170.6322475599627L461.2435567010308,169.65799955214243L461.9523195876287,168.68371946966727L462.66108247422665,169.17086352044134L463.0154639175256,169.65799955214243L463.72422680412376,169.65799955214243L464.7873711340204,170.1451275651707L465.1417525773196,170.1451275651707L465.49613402061834,170.1451275651707L466.55927835051546,171.119359536915L466.9136597938142,172.0935594389448L466.9136597938142,172.5806473648663L467.2680412371134,173.06772727460702L467.2680412371134,173.5547991685562L470.811855670103,175.50300659488494L471.16623711340196,175.50300659488494L471.16623711340196,175.50300659488494L475.0644329896908,175.50300659488494L475.4188144329895,175.50300659488494L475.77319587628847,175.01596675990368L478.9626288659791,174.52891891080435L480.02577319587624,174.04186304715404L481.4432989690721,173.5547991685562L482.86082474226794,173.06772727460702L486.75902061855675,172.0935594389448L486.75902061855675,172.0935594389448L486.75902061855675,172.0935594389448L489.9484536082474,171.60646349643866L491.36597938144325,171.60646349643866L491.36597938144325,171.60646349643866L491.720360824742,172.0935594389448L491.720360824742,172.5806473648663L491.720360824742,173.06772727460702L491.36597938144325,173.5547991685562L491.0115979381443,175.01596675990368L491.0115979381443,176.9640780191985L491.720360824742,179.39903681565193L492.07474226804095,181.3468596628154L492.07474226804095,181.3468596628154L491.36597938144325,183.2945543696551L491.720360824742,183.78145802753352L491.720360824742,184.75524132354985L491.720360824742,188.65005430499878L494.5554123711337,190.11047711888023L494.5554123711337,190.59726872023748L494.20103092783495,190.59726872023748L494.20103092783495,191.08405232062796L494.20103092783495,191.08405232062796L494.20103092783495,192.057595520233L493.846649484536,192.057595520233L494.20103092783495,193.03110672094408L495.6185567010308,193.03110672094408L496.6817010309277,192.54435512024065L497.3904639175256,192.057595520233L497.74484536082457,190.59726872023748L499.87113402061834,190.11047711888023L502.70618556701027,189.62367751615602L509.0850515463916,191.08405232062796L511.9201030927833,193.51785032275802L513.6920103092783,195.95144836278268L515.1095360824742,196.92483160091433L517.5902061855669,199.8447894339006L517.9445876288659,199.8447894339006L520.7796391752576,199.3581497803134L522.5515463917524,200.33142109434266L524.3234536082472,201.79126812090908L525.7409793814433,202.76445951378264L526.095360824742,202.76445951378264L529.2847938144329,204.22418667404418L529.9935567010308,203.73761894396011L530.3479381443298,203.73761894396011L530.7023195876287,203.73761894396011L531.0567010309277,203.25104322400148L531.0567010309277,203.25104322400148L531.0567010309277,202.76445951378264L531.0567010309277,202.2778678128925L530.7023195876287,201.79126812090908L531.0567010309277,201.79126812090908L531.0567010309277,201.30466043743945L531.0567010309277,200.81804476204343L531.7654639175256,200.33142109434266L531.7654639175256,200.33142109434266L532.4742268041238,200.33142109434266L532.4742268041238,199.8447894339006L533.1829896907215,199.8447894339006L533.5373711340206,200.33142109434266L536.3724226804121,200.81804476204343L538.4987113402061,200.81804476204343L538.8530927835048,201.30466043743945L539.2074742268038,201.30466043743945L539.916237113402,201.30466043743945L539.916237113402,201.30466043743945L540.6249999999999,201.30466043743945L540.9793814432988,201.30466043743945L541.3337628865978,202.2778678128925L541.6881443298968,202.76445951378264L542.0425257731957,204.22418667404418L542.0425257731957,204.22418667404418L542.0425257731957,204.7107464146975L542.0425257731957,204.7107464146975L542.0425257731957,205.1972981663166L542.0425257731957,206.1703777040857L542.3969072164947,207.14342529064015L544.5231958762885,209.08942462325285L544.8775773195874,209.08942462325285L545.2319587628866,209.57590449203417L545.5863402061854,209.57590449203417L545.9407216494843,209.57590449203417L546.2951030927833,209.08942462325285L546.6494845360825,209.08942462325285L548.7757731958762,209.08942462325285L549.8389175257731,209.08942462325285L550.90206185567,209.08942462325285L551.9652061855667,209.08942462325285L552.3195876288659,208.11644092926508L553.0283505154638,207.14342529064015L553.3827319587627,206.65690549106512L554.0914948453607,206.1703777040857L555.5090206185565,205.1972981663166L556.2177835051544,205.1972981663166L556.5721649484536,205.1972981663166L557.9896907216495,205.68384192930534L558.3440721649482,205.68384192930534L559.0528350515461,205.68384192930534L560.1159793814433,206.1703777040857L561.1791237113401,207.14342529064015L562.242268041237,210.06237637588492L564.3685567010308,212.49461603552845L565.4317010309277,213.95386403839802L567.9123711340204,216.38578442391372L568.2667525773196,216.872144561803L569.3298969072165,217.84484090167098L570.3930412371132,219.30382557781195L572.8737113402061,221.7353071756006L573.582474226804,222.2215795694865L574.291237113402,223.1941004348373L574.9999999999999,223.68034890712443L574.6456185567007,224.16658940638808L574.9999999999999,224.16658940638808L574.9999999999999,224.65282193301755L574.9999999999999,224.65282193301755L574.9999999999999,224.65282193301755L574.9999999999999,224.65282193301755L574.9999999999999,224.16658940638808L574.6456185567007,224.16658940638808L574.6456185567007,224.16658940638808L573.936855670103,224.65282193301755L572.8737113402061,225.13904648740936L572.1649484536082,225.62526307000735L571.810567010309,226.1114716811935L569.6842783505152,228.05622642008893L568.9755154639173,229.0285559717595L567.5579896907215,230.48699053626115L566.1404639175256,232.43145841517617L564.0141752577318,234.37579884332445L562.951030927835,235.34792127154287L561.1791237113401,237.77808799291597L559.0528350515461,239.722078066432L559.0528350515461,240.20805568495052L557.6353092783503,241.17998704498677L556.9265463917524,242.15188657178805L556.5721649484536,242.63782439873103L555.8634020618555,243.60967618177528L555.5090206185565,244.58149613974456L555.1546391752576,245.06739418534926L555.1546391752576,245.06739418534926L554.4458762886596,244.09559013869512L554.0914948453607,244.09559013869512L554.0914948453607,244.09559013869512L553.7371134020617,244.09559013869512L552.6739690721648,246.52504059353305L550.90206185567,248.95429220291044L549.4845360824742,250.41174774395768L548.7757731958762,251.3833450178754L547.7126288659791,253.32644417215124L546.6494845360825,254.29794605904317L545.5863402061854,256.24085446865865L544.1688144329895,258.18363574777686L543.4600515463916,259.1549787215663L543.4600515463916,259.1549787215663L543.4600515463916,259.64063829345105L543.8144329896905,260.12628992253667L543.8144329896905,260.12628992253667L543.8144329896905,260.12628992253667L543.1056701030926,260.12628992253667L543.1056701030926,259.64063829345105L542.0425257731957,261.09756935392215L541.3337628865978,262.5544289401878L539.916237113402,264.4967972255072L538.4987113402061,266.439038491244L537.789948453608,267.89563609961624L536.3724226804121,270.8086170588358L536.7268041237113,273.2358830184967L533.8917525773196,273.721312414611L533.8917525773196,273.721312414611L533.5373711340206,274.2067338797533L531.7654639175256,277.1190961426764L531.7654639175256,277.1190961426764L531.4110824742266,278.08982013420973L530.7023195876287,279.06051241643945L528.9304123711337,281.97239903992886L527.5128865979378,284.88400039687986L526.4497422680412,286.33969412785154L526.095360824742,287.3101170124428L525.3865979381441,288.7656919433284L524.6778350515461,290.2211956088031L522.9059278350513,293.61709374653583L522.9059278350513,293.61709374653583L521.8427835051544,296.042497835806L521.1340206185567,297.0126040826617L520.7796391752576,298.46770411786565L520.0708762886596,299.4377312560064L520.0708762886596,299.9227329607129L519.0077319587627,302.34762285670513L517.5902061855669,305.2572298048799L516.1726804123708,308.16655218810047L515.8182989690721,309.13626309432584L514.755154639175,312.045206193834L514.046391752577,314.4691082197278L513.3376288659791,316.40808769412615L512.9832474226804,318.34694084429793L512.9832474226804,320.7703296780601L512.2744845360825,321.7396299673819L511.5657216494843,323.1935212212993L511.5657216494843,323.1935212212993L510.8569587628866,325.1319324406941L510.50257731958743,326.58565803004603L509.7938144329895,329.00837628233785L509.4394329896908,329.9774083871962L508.7306701030926,331.9153779929329L508.37628865979366,333.8532214815277L507.66752577319573,335.79093887883937L507.66752577319573,336.275348529427L507.3131443298968,336.75975030134214L507.3131443298968,337.7285302107266L506.9587628865978,340.1503421354573L506.60438144329885,341.1190117743354L506.2499999999999,343.05625655956464L505.8956185567009,344.5091074802003L505.54123711340196,345.96188755443654L505.54123711340196,346.44613183742695L505.54123711340196,346.93036825019954L505.186855670103,348.38303027128495L504.8324742268038,350.319802807604L504.1237113402061,352.7405914738847L503.76932989690715,356.12936528928185L503.76932989690715,356.61344438252854L503.76932989690715,358.0656344933923L503.76932989690715,358.54968214206747L503.76932989690715,360.00177792890463L504.1237113402061,360.9698024914942L504.1237113402061,360.9698024914942L504.4780927835051,360.9698024914942L505.54123711340196,361.4538029854157L507.66752577319573,362.4217804004875L509.0850515463916,362.9057573224454L510.8569587628866,365.8094538816149L511.21134020618535,365.8094538816149L511.21134020618535,365.8094538816149L511.5657216494843,366.7772898976036L511.5657216494843,366.7772898976036L511.5657216494843,367.2611961254661L510.50257731958743,370.6483198621063L509.7938144329895,373.55126262112026L509.4394329896908,375.48640083521605L509.4394329896908,376.9376721108165L509.0850515463916,378.3888727827798L508.37628865979366,380.3236972029299L508.37628865979366,382.2583961505079L508.0219072164947,385.6438174676623L507.3131443298968,386.61101015653185L506.2499999999999,386.61101015653185L504.1237113402061,389.02885474143477L503.0605670103092,390.96298938035034L501.2886597938142,393.8639563505567L500.93427835051546,394.3474234354544L501.2886597938142,395.3143341144387L501.9974226804121,396.2812134750384L502.70618556701027,396.76464141195174L502.70618556701027,396.76464141195174L503.0605670103092,396.2812134750384L503.0605670103092,395.3143341144387L503.0605670103092,393.3804814348696L503.41494845360796,392.4135081094646L504.4780927835051,390.4794674714394L504.4780927835051,390.4794674714394L505.8956185567009,389.99593772890876L506.9587628865978,390.4794674714394L507.3131443298968,390.96298938035034L506.9587628865978,393.3804814348696L506.60438144329885,395.3143341144387L506.60438144329885,396.76464141195174L506.2499999999999,399.1816636785625L505.8956185567009,402.5651661546035L505.54123711340196,404.9817189218629L505.54123711340196,405.46500600894797L505.186855670103,404.9817189218629L504.1237113402061,404.498424013178L494.5554123711337,398.6982748796254L487.46778350515444,393.8639563505567L484.9871134020617,391.93000969897184L484.63273195876275,391.4465034560635L481.7976804123708,389.99593772890876L476.12757731958743,388.5453014956911L471.5206185567009,387.0945947455475L468.6855670103092,386.1274177307023L465.85051546391753,385.1602093669935L463.36984536082457,383.70933803525986L460.5347938144329,382.74205128531685L459.117268041237,380.8073837018783L456.99097938144325,377.421413512453L452.02963917525756,376.4539228643298L450.9664948453609,376.4539228643298L450.25773195876275,376.4539228643298L449.5489690721648,375.97016577260365L448.131443298969,375.48640083521605L447.42268041237094,374.5188474218885L446.7139175257731,372.5836464297281L445.65077319587624,370.6483198621063L444.58762886597924,369.6806094794738L442.1069587628866,366.2933758164618L441.75257731958754,366.7772898976036L438.91752577319573,368.2289850229172L437.14561855670104,368.2289850229172L434.6649484536081,368.7128676933062L431.4755154639174,369.6806094794738L429.7036082474226,371.61599884444877L427.22293814432976,372.5836464297281L426.8685567010309,373.06745844945544L426.51417525773184,373.06745844945544L426.51417525773184,373.55126262112026L426.51417525773184,374.03505894513364L425.45103092783495,375.48640083521605L424.0335051546391,375.48640083521605L422.61597938144325,375.97016577260365L422.61597938144325,375.97016577260365L415.1739690721648,377.421413512453L405.9600515463916,387.5781714981349L405.60567010309273,388.0617404147197L405.60567010309273,388.5453014956911L403.1249999999999,396.2812134750384L403.1249999999999,397.2480615204513L402.77061855670104,398.6982748796254L400.9987113402061,402.0818321319857L399.9355670103092,403.5318107294588L399.2268041237114,404.498424013178L398.8724226804122,404.9817189218629L397.80927835051546,405.46500600894797L396.3917525773196,406.43155671999557L394.2654639175256,406.9148203447294L393.2023195876287,407.3980761494895L391.7847938144329,407.3980761494895L388.9497422680412,407.3980761494895L386.11469072164937,407.88132413466883L384.6971649484535,408.36456430065664L383.9884020618556,408.84779664785674L383.27963917525767,408.84779664785674L382.2164948453609,409.3310211766875L379.73582474226805,408.84779664785674L376.90077319587624,408.84779664785674L375.4832474226804,408.36456430065664L373.71134020618547,407.3980761494895L371.23067010309273,405.9482852748624L361.66237113402053,407.3980761494895L360.9536082474226,407.3980761494895L360.59922680412365,406.9148203447294L359.8904639175257,406.43155671999557L358.1185567010309,405.9482852748624L357.055412371134,405.9482852748624L355.6378865979382,405.9482852748624L353.5115979381444,406.43155671999557L351.3853092783505,406.43155671999557L350.3221649484535,406.43155671999557L349.25902061855675,405.9482852748624L347.13273195876275,405.9482852748624L343.9432989690721,404.498424013178L341.8170103092783,404.0151212825076L338.9819587628865,403.04849235362053L338.2731958762886,403.04849235362053L336.1469072164948,402.5651661546035L334.72938144329885,402.0818321319857L333.66623711340196,401.5984902853961L332.95747422680404,401.5984902853961L331.89432989690715,401.5984902853961L330.1224226804122,402.0818321319857L328.7048969072164,402.0818321319857L325.5154639175257,402.0818321319857L323.38917525773184,403.04849235362053L321.617268041237,402.5651661546035L319.8453608247422,402.5651661546035L318.42783505154637,402.0818321319857L318.42783505154637,402.0818321319857L315.9471649484535,399.66504465110484L315.2384020618556,399.1816636785625L314.8840206185565,399.1816636785625L313.82087628865975,399.1816636785625L313.1121134020618,399.1816636785625L312.75773195876286,399.1816636785625L310.6314432989691,401.11514061440175L310.27706185567,401.11514061440175L308.85953608247416,401.5984902853961L306.37886597938154,402.0818321319857L306.37886597938154,402.0818321319857L304.25257731958766,403.5318107294588L303.8981958762887,404.498424013178L303.8981958762887,404.9817189218629L299.2912371134022,405.46500600894797L298.2280927835052,405.46500600894797L297.51932989690715,405.9482852748624L295.7474226804122,405.9482852748624L293.2667525773195,405.9482852748624L292.5579896907217,405.9482852748624L291.84922680412365,405.46500600894797L290.78608247422676,404.9817189218629L290.0773195876287,404.9817189218629L287.596649484536,404.498424013178L284.40721649484533,404.0151212825076L282.98969072164937,404.0151212825076L281.21778350515467,403.5318107294588L279.0914948453608,403.04849235362053L277.67396907216494,402.5651661546035L277.31958762886586,402.5651661546035L276.965206185567,402.5651661546035L276.61082474226805,402.0818321319857L276.25644329896886,401.5984902853961L275.1932989690722,401.5984902853961L272.3582474226804,400.63178311862066L271.64948453608235,400.63178311862066L270.94072164948454,400.14841779766357L270.58634020618535,400.63178311862066L269.5231958762887,401.11514061440175L268.10567010309273,401.11514061440175L267.3969072164948,401.5984902853961L267.04252577319585,401.5984902853961L265.625,401.5984902853961L263.4987113402062,402.0818321319857L262.7899484536083,402.5651661546035L262.4355670103092,402.5651661546035L260.30927835051546,403.04849235362053L258.53737113402065,403.5318107294588L257.8286082474227,404.0151212825076L255.70231958762895,404.0151212825076L254.63917525773195,404.498424013178L253.57603092783518,404.9817189218629L252.51288659793818,405.46500600894797L251.44974226804118,405.9482852748624L250.74097938144325,406.9148203447294L250.3865979381443,406.9148203447294L250.3865979381443,407.3980761494895L249.32345360824752,410.2974467807908L248.61469072164937,412.23020418602755L248.61469072164937,412.23020418602755L249.67783505154637,412.23020418602755L252.15850515463933,412.7133739973833L253.221649484536,414.16283654193467L253.221649484536,414.16283654193467L253.221649484536,414.16283654193467L253.57603092783518,416.0953438741453L253.93041237113403,418.0277262082236L253.57603092783518,422.8581353445479L254.63917525773195,422.8581353445479L257.47422680412365,423.3411333142649L257.47422680412365,423.824123477596L257.1198453608248,424.79008038666143L257.1198453608248,426.72190054575185L257.1198453608248,427.20483607554706L257.1198453608248,428.1706837259517L257.47422680412365,430.58516631705425L257.47422680412365,432.9994538981955L257.47422680412365,433.48228801761434L257.47422680412365,434.93074358945523L257.1198453608248,435.41354651926304L258.53737113402065,437.8274442301081L258.8917525773195,437.8274442301081L259.60051546391753,438.79294875075357L259.60051546391753,438.79294875075357L259.9548969072164,439.27568932044596L259.9548969072164,439.27568932044596L260.30927835051546,441.2065736710538L260.30927835051546,441.6892752786516L260.66365979381453,443.13733335567304L259.60051546391753,444.10266645619777L259.9548969072164,444.58532132241817L260.30927835051546,447.48108696816416L260.66365979381453,447.9636873209165L261.0180412371134,448.4462798876084L261.37242268041246,449.41144166445883L261.7268041237113,451.8242098786541L262.0811855670104,454.2367835213299L262.4355670103092,455.684234333301L262.4355670103092,456.1667023774098L262.0811855670104,457.6140598356433L261.7268041237113,458.09649676500703L261.7268041237113,458.5789259166959L261.0180412371134,459.0613472910991L260.66365979381453,459.54376088859135L259.60051546391753,460.0261667095947L259.2461340206187,460.0261667095947L259.2461340206187,460.0261667095947L258.53737113402065,460.0261667095947L258.1829896907217,460.0261667095947L254.63917525773195,462.9204383515098L253.93041237113403,464.3674692219829L253.221649484536,465.3321176057034L253.221649484536,465.3321176057034L252.15850515463933,465.81443013978424L249.32345360824752,467.7436025667812L250.03221649484533,468.2258762481979L248.96907216494844,468.7081421602561L246.84278350515467,469.1904003033851L245.77963917525767,469.1904003033851L243.6533505154639,469.1904003033851L242.94458762886586,470.15489328439435L242.23582474226805,470.63712812307494L242.23582474226805,470.63712812307494L240.81829896907232,471.6015744987599L239.04639175257728,472.0837860365682L238.69201030927832,472.0837860365682L235.50257731958766,471.11935519439066L233.73067010309273,470.63712812307494L231.95876288659792,470.15489328439435L230.89561855670104,469.1904003033851L229.4780927835052,467.7436025667812L229.4780927835052,469.1904003033851L229.4780927835052,471.11935519439066L225.93427835051546,473.04818581407744L226.28865979381442,474.9768921878349L224.87113402061857,477.38760047291L224.16237113402065,477.8697188429469L224.16237113402065,477.8697188429469L223.80798969072168,478.83393229920694L223.09922680412365,480.7622660876077L222.7448453608248,481.2443301361709L220.26417525773195,483.17250874812817L220.26417525773195,483.6545340075245L219.20103092783518,483.6545340075245L218.13788659793818,483.6545340075245L216.36597938144337,484.1365515102916L214.94845360824752,484.61856125679697L214.23969072164937,485.10056324746256L212.11340206185582,486.0645439628315L209.63273195876286,487.9924123408309L207.15206185567,489.9201566696247L205.38015463917532,490.88398232349937L204.67139175257728,491.3658835241986L203.96262886597947,491.8477769745805L203.6082474226804,491.8477769745805L203.25386597938143,492.32966267507436L203.25386597938143,492.32966267507436L203.25386597938143,494.25712798588575L203.6082474226804,494.73897494279663L203.6082474226804,495.22081415216235L203.6082474226804,495.22081415216235L201.83634020618558,495.22081415216235L200.41881443298962,495.22081415216235L200.41881443298962,495.22081415216235L199.35567010309296,495.7026456144049L198.6469072164948,496.1844693299099L198.29252577319596,496.666285299063L197.9381443298969,496.666285299063L198.29252577319596,496.1844693299099L198.29252577319596,496.1844693299099L197.9381443298969,494.73897494279663L197.9381443298969,494.25712798588575L196.875,493.29341082791507L195.45747422680415,490.88398232349937L195.1030927835052,490.40207337210086L194.39432989690715,489.43823221564526L194.0399484536083,488.4743600516449L194.7487113402061,486.0645439628315L195.1030927835052,484.61856125679697L196.16623711340208,484.1365515102916L196.875,483.17250874812817L197.58376288659792,481.2443301361709L197.9381443298969,480.7622660876077L197.9381443298969,480.2801942800397L197.22938144329896,479.31602738622314L196.16623711340208,476.4233404470506L195.1030927835052,474.0125545301089L193.68556701030934,472.56598980820127L192.26804123711338,471.6015744987599L190.49613402061857,471.6015744987599L188.72422680412365,471.6015744987599L187.66108247422676,470.63712812307494L186.59793814432987,470.15489328439435L186.59793814432987,469.6726506779705L186.2435567010309,469.6726506779705L185.88917525773195,469.1904003033851L185.5347938144331,469.1904003033851L185.5347938144331,469.1904003033851L185.5347938144331,469.1904003033851L185.5347938144331,468.2258762481979L185.5347938144331,467.7436025667812L185.5347938144331,467.2613211156349L185.18041237113403,466.779031894348L185.18041237113403,466.2967349025239L184.82603092783506,466.2967349025239L183.40850515463922,465.3321176057034L183.05412371134014,464.84979729989936L182.6997422680413,464.84979729989936L180.92783505154648,463.8851333715502L179.51030927835052,462.9204383515098L178.44716494845363,461.95571223662773L177.38402061855663,460.99095502372074L176.67525773195882,460.50856475450564L176.32087628865997,460.0261667095947L175.96649484536078,460.0261667095947L175.61211340206194,459.54376088859135L174.54896907216494,459.0613472910991L173.1314432989691,458.09649676500703L171.35953608247428,456.6491626422285L171.35953608247428,456.6491626422285L171.00515463917532,456.1667023774098L170.65077319587647,456.1667023774098L170.29639175257728,456.1667023774098L168.87886597938143,455.684234333301L168.1701030927835,455.20175850951273L167.46134020618558,454.71927490566304L167.1069587628865,454.2367835213299L166.75257731958766,453.27177740966L166.3981958762888,452.3067401713233L166.3981958762888,452.3067401713233L166.3981958762888,450.8591259443492L166.04381443298962,449.41144166445883L165.68943298969066,448.4462798876084L166.04381443298962,447.48108696816416L166.04381443298962,446.998478828973L166.04381443298962,446.998478828973L165.68943298969066,446.998478828973L165.68943298969066,446.998478828973L165.3350515463918,446.998478828973L164.98067010309296,446.998478828973L163.91752577319596,446.998478828973L163.563144329897,446.5158629029502L160.7280927835053,446.0332391896736L159.31056701030946,446.0332391896736L157.53865979381442,445.5506076887541L157.18427835051546,445.06796839981325L156.8298969072166,445.06796839981325L155.41237113402065,445.06796839981325L154.70360824742272,445.5506076887541L154.34922680412365,446.0332391896736L153.64046391752595,446.998478828973L152.9317010309278,447.9636873209165L152.57731958762895,448.4462798876084L151.8685567010309,448.9288646686655L150.45103092783506,449.41144166445883L150.0966494845361,449.8940108754141L149.74226804123714,449.8940108754141L149.74226804123714,449.8940108754141L147.97036082474233,448.9288646686655L146.55283505154648,449.41144166445883L146.55283505154648,452.3067401713233L145.84407216494844,452.3067401713233L145.13530927835052,452.7892626815301L144.4265463917526,453.27177740966L144.07216494845363,453.27177740966L143.3634020618557,453.27177740966L142.65463917525778,452.7892626815301L142.30025773195882,452.7892626815301L141.59149484536078,452.7892626815301L140.5283505154639,453.27177740966L140.17396907216494,453.75428435613503L139.11082474226805,454.71927490566304L138.40206185567013,455.684234333301L136.98453608247428,456.1667023774098L136.63015463917532,455.20175850951273L136.63015463917532,455.20175850951273L135.56701030927843,454.71927490566304L135.21262886597947,454.71927490566304L134.50386597938154,454.71927490566304L132.73195876288673,455.20175850951273L132.37757731958766,455.20175850951273L131.31443298969077,455.20175850951273L130.9600515463918,455.20175850951273L130.9600515463918,455.20175850951273L128.47938144329908,454.71927490566304L126.70747422680415,454.71927490566304L124.93556701030934,454.71927490566304L122.80927835051557,454.2367835213299L121.03737113402065,454.2367835213299L118.91108247422687,454.2367835213299L118.20231958762895,454.2367835213299L118.20231958762895,454.2367835213299L117.84793814432987,454.2367835213299L117.49355670103103,453.75428435613503L117.13917525773195,453.27177740966L116.7847938144331,452.7892626815301L116.7847938144331,452.7892626815301L116.7847938144331,451.8242098786541L116.07603092783518,450.8591259443492L115.72164948453621,449.8940108754141L113.24097938144337,448.4462798876084L111.46907216494844,447.48108696816416L111.46907216494844,447.48108696816416L111.1146907216496,446.998478828973L111.1146907216496,446.998478828973L111.1146907216496,446.5158629029502L111.46907216494844,446.5158629029502L110.76030927835052,445.5506076887541L107.92525773195871,445.5506076887541L105.09020618556701,444.10266645619777L104.73582474226816,444.10266645619777L104.38144329896909,442.17196909500854L104.02706185567024,441.6892752786516L103.3182989690722,440.72386427182937L102.96391752577324,439.27568932044596L103.3182989690722,438.79294875075357L104.38144329896909,438.79294875075357L104.73582474226816,438.79294875075357L106.50773195876286,438.3102003874337L108.63402061855675,437.3446802783583L110.0515463917526,435.89634165264215L110.40592783505167,435.89634165264215L108.27963917525778,434.44793286285494L107.57087628865986,433.48228801761434L106.15335051546401,431.55090474790995L105.09020618556701,429.1365001667764L104.73582474226816,429.1365001667764L104.02706185567024,428.1706837259517L103.3182989690722,427.20483607554706L102.96391752577324,426.72190054575185L102.60953608247428,425.7560060749929L102.60953608247428,425.27304713322155L102.60953608247428,425.27304713322155L102.60953608247428,425.27304713322155L102.2551546391752,424.79008038666143L102.2551546391752,424.79008038666143L101.90077319587635,424.30710583491964L101.54639175257728,424.30710583491964L101.19201030927843,423.824123477596L100.83762886597935,423.824123477596L100.4832474226805,423.3411333142649L100.12886597938143,423.3411333142649L99.77448453608258,422.8581353445479L99.77448453608258,422.3751295680595L99.77448453608258,422.3751295680595L99.77448453608258,421.8921159843703L99.77448453608258,421.8921159843703L99.06572164948466,420.44302838620206L98.71134020618558,419.95998356977L98.00257731958766,418.9938705089626L96.58505154639181,418.5108022637942L95.52190721649492,418.0277262082236L92.68685567010323,417.54464234188345L90.9149484536083,416.57845117523175L88.78865979381453,415.61222876066313L87.01675257731972,415.1291058343995L86.66237113402065,415.1291058343995L86.3079896907218,414.6459750949616L85.95360824742272,414.16283654193467L85.95360824742272,413.6796901749367L85.95360824742272,413.6796901749367L85.59922680412376,413.19653599354206L85.59922680412376,413.19653599354206L85.59922680412376,412.23020418602755L85.59922680412376,411.7470265590855L85.95360824742272,410.7806478568782L86.3079896907218,410.2974467807908L87.37113402061868,409.3310211766875L88.43427835051557,408.36456430065664L88.78865979381453,407.3980761494895L89.85180412371142,406.9148203447294L90.20618556701038,406.9148203447294L90.56056701030934,406.43155671999557L90.9149484536083,405.9482852748624L91.62371134020623,404.498424013178L91.9780927835053,404.0151212825076L91.9780927835053,403.04849235362053L91.9780927835053,402.5651661546035L91.9780927835053,402.5651661546035L91.62371134020623,402.5651661546035L91.62371134020623,402.5651661546035L91.26932989690727,402.0818321319857L91.26932989690727,402.0818321319857L91.26932989690727,401.5984902853961L91.26932989690727,401.5984902853961L91.26932989690727,401.11514061440175L91.26932989690727,400.63178311862066L91.26932989690727,400.14841779766357L91.62371134020623,398.6982748796254L91.62371134020623,398.21487825388976L95.52190721649492,398.6982748796254L96.23067010309285,398.21487825388976L105.79896907216494,397.73147380097L110.76030927835052,397.2480615204513L113.24097938144337,396.76464141195174L114.65850515463922,396.76464141195174L117.13917525773195,396.2812134750384L121.39175257731972,394.3474234354544L121.39175257731972,394.3474234354544L124.22680412371142,392.8969986879674L127.77061855670115,390.96298938035034L129.54252577319596,389.99593772890876L130.9600515463918,389.5124001523727L130.60567010309285,389.02885474143477L129.188144329897,386.61101015653185L128.83376288659804,386.1274177307023L128.83376288659804,385.6438174676623L129.188144329897,383.70933803525986L129.54252577319596,381.2910623591779L130.60567010309285,378.87259065227045L130.9600515463918,378.3888727827798L130.9600515463918,377.421413512453L130.9600515463918,377.421413512453L130.2512886597939,374.03505894513364L132.0231958762887,373.55126262112026L132.37757731958766,373.06745844945544L132.73195876288673,373.06745844945544L132.0231958762887,370.6483198621063L131.66881443298973,370.6483198621063L131.31443298969077,368.7128676933062L130.9600515463918,366.2933758164618L129.54252577319596,365.8094538816149L128.83376288659804,364.3576409508896L128.83376288659804,364.3576409508896L128.83376288659804,362.9057573224454L128.83376288659804,362.4217804004875L128.83376288659804,360.9698024914942L127.77061855670115,360.9698024914942L125.2899484536083,360.48579413945845L117.13917525773195,357.5815789841763L114.30412371134014,357.09751561401936L112.17783505154637,356.61344438252854L112.53221649484544,354.19297029079826L112.88659793814429,351.7722996051052L113.24097938144337,349.3514322750161L113.94974226804129,349.3514322750161L114.30412371134014,348.86723520725354L115.72164948453621,348.86723520725354L116.07603092783518,348.86723520725354L116.7847938144331,348.86723520725354L118.5567010309278,348.86723520725354L118.5567010309278,347.89881746672836L118.5567010309278,346.93036825019954L118.5567010309278,346.93036825019954L120.32860824742272,345.96188755443654L121.39175257731972,345.47763540084634L121.74613402061857,345.47763540084634L122.45489690721661,345.96188755443654L122.80927835051557,345.96188755443654L123.5180412371135,345.96188755443654L125.2899484536083,345.96188755443654L127.06185567010323,346.44613183742695L128.83376288659804,347.4145967931581L131.31443298969077,349.3514322750161L131.31443298969077,349.3514322750161L131.66881443298973,349.8356214750056L132.0231958762887,349.8356214750056L134.14948453608258,349.3514322750161L135.21262886597947,348.86723520725354L135.92139175257728,348.38303027128495L135.92139175257728,347.89881746672836L135.92139175257728,347.89881746672836L135.92139175257728,347.4145967931581L136.27577319587635,347.4145967931581L136.98453608247428,345.96188755443654L137.33891752577324,345.47763540084634L137.6932989690722,345.47763540084634L137.6932989690722,345.47763540084634L137.6932989690722,344.9933753762343L137.6932989690722,344.9933753762343L137.6932989690722,344.9933753762343L136.27577319587635,344.5091074802003L136.27577319587635,344.9933753762343L136.27577319587635,345.47763540084634L135.21262886597947,345.96188755443654L133.7951030927835,345.47763540084634L133.44072164948466,345.47763540084634L133.08634020618558,344.9933753762343L131.66881443298973,344.02483171235144L130.9600515463918,342.5719571738118L130.60567010309285,341.6033347816083L130.9600515463918,341.1190117743354L130.9600515463918,341.1190117743354L130.9600515463918,340.63468089242815L130.9600515463918,340.1503421354573L130.9600515463918,339.1816409947605L130.2512886597939,336.275348529427L129.54252577319596,333.8532214815277L130.60567010309285,331.4308974159867L131.31443298969077,329.9774083871962L131.31443298969077,329.9774083871962L130.9600515463918,329.4928962769409L130.60567010309285,329.4928962769409L130.2512886597939,328.5238484029942L130.60567010309285,328.5238484029942L130.9600515463918,328.03931263848426L130.9600515463918,328.03931263848426L131.31443298969077,327.5547689884297L131.31443298969077,327.5547689884297L130.9600515463918,327.0702174524231L130.9600515463918,326.10109072090927L130.60567010309285,325.1319324406941L130.60567010309285,325.1319324406941L130.2512886597939,324.6473414688371L129.188144329897,324.6473414688371L127.77061855670115,323.6781358595399L127.06185567010323,323.1935212212993L126.70747422680415,323.1935212212993L124.93556701030934,323.1935212212993L124.93556701030934,323.1935212212993L125.64432989690715,321.7396299673819L127.06185567010323,319.80099782225443L128.1250000000001,318.34694084429793L129.54252577319596,317.3775300581219L129.89690721649492,316.40808769412615L130.2512886597939,316.40808769412615L130.60567010309285,315.4386137490692L130.60567010309285,314.95386493264596L130.2512886597939,313.49957110285686L130.2512886597939,312.530002395215L130.60567010309285,312.530002395215L130.60567010309285,312.045206193834L129.54252577319596,310.5907701946344L128.47938144329908,309.13626309432584L128.47938144329908,308.6514115920945L128.47938144329908,308.6514115920945L126.70747422680415,307.6816848819799L126.70747422680415,306.71192656164203L127.06185567010323,306.71192656164203L127.06185567010323,306.22703554662075L126.70747422680415,306.22703554662075L125.99871134020623,304.7723150773345L125.99871134020623,304.2873924448104L125.2899484536083,304.2873924448104L122.45489690721661,303.3175234631599L121.74613402061857,302.8325771132404L121.03737113402065,302.8325771132404L119.97422680412365,302.8325771132404L119.26546391752572,302.8325771132404L119.26546391752572,303.3175234631599L119.6198453608248,304.2873924448104L119.6198453608248,304.2873924448104L117.13917525773195,303.8024619068856L115.36726804123714,302.34762285670513L114.65850515463922,301.37769062219377L114.65850515463922,300.89271264339914L115.01288659793829,300.40772675638436L115.01288659793829,299.9227329607129L115.01288659793829,298.46770411786565L115.01288659793829,298.46770411786565L115.01288659793829,297.49764533865164L114.65850515463922,297.0126040826617L114.30412371134014,297.0126040826617L114.30412371134014,297.0126040826617L114.30412371134014,297.0126040826617L114.30412371134014,296.52755491517746L114.30412371134014,296.042497835806L115.36726804123714,294.58727912235554L115.36726804123714,294.58727912235554L115.72164948453621,294.58727912235554L118.91108247422687,295.07235993980794L121.39175257731972,294.58727912235554L121.74613402061857,294.58727912235554L122.45489690721661,293.61709374653583L122.45489690721661,293.13198918735725L122.10051546391765,292.64687671343927L121.39175257731972,292.16175632439626L121.03737113402065,291.19149179929445L120.6829896907218,290.2211956088031L119.97422680412365,288.7656919433284L118.5567010309278,287.79531657512416L117.84793814432987,287.79531657512416L117.84793814432987,287.3101170124428L117.84793814432987,286.82490953015076L118.20231958762895,286.82490953015076L118.5567010309278,286.33969412785154L119.26546391752572,286.33969412785154L119.97422680412365,285.85447080515587L119.6198453608248,284.88400039687986L119.6198453608248,284.39875331050644L119.6198453608248,283.91349830208856L119.6198453608248,283.42823537122604L119.6198453608248,282.942964517526L119.26546391752572,281.97239903992886L119.26546391752572,281.00180186605576L118.5567010309278,279.5458466675991L118.20231958762895,278.08982013420973L118.20231958762895,277.6044621023102L118.20231958762895,277.1190961426764L117.84793814432987,274.69214741432006L117.84793814432987,273.2358830184967L117.84793814432987,273.2358830184967Z" style="fill: none; stroke: rgb(8, 48, 107);"><title>AUDE</title></path><g stroke="#000" stroke-opacity="0.2"><path d="M0,-15.873247654971056L3.5637661381291506,-4.905103281308338L15.096355617026989,-4.905103281308339L5.766294739448918,1.873582735131148L9.330060877578072,12.841727108793865L8.881784197001252e-16,6.063041092354379L-9.330060877578068,12.841727108793867L-5.766294739448918,1.8735827351311491L-15.09635561702699,-4.905103281308335L-3.563766138129152,-4.905103281308337Z" transform="translate(220.26417525773195,302.8325771132404)rotate(15.645059637269348)" fill="white" class="commune"><title>11206 Population : 10098</title></path><path d="M0,-22.448162112566994L5.039926405668234,-6.936863585267022L21.349470856006818,-6.936863585267023L8.154772225169292,2.649646114250548L13.19469863083753,18.16094464155052L8.881784197001252e-16,8.574434942032948L-13.194698630837525,18.160944641550522L-8.154772225169292,2.649646114250549L-21.34947085600682,-6.936863585267019L-5.0399264056682345,-6.936863585267021Z" transform="translate(257.1198453608248,225.13904648740936)rotate(25.454519221074133)" fill="white" class="commune"><title>11069 Population : 45895</title></path><path d="M0,-22.448162112566994L5.039926405668234,-6.936863585267022L21.349470856006818,-6.936863585267023L8.154772225169292,2.649646114250548L13.19469863083753,18.16094464155052L8.881784197001252e-16,8.574434942032948L-13.194698630837525,18.160944641550522L-8.154772225169292,2.649646114250549L-21.34947085600682,-6.936863585267019L-5.0399264056682345,-6.936863585267021Z" transform="translate(497.03608247422665,247.01090682141876)rotate(2.1883467092313005)" fill="white" class="commune"><title>11262 Population : 53594</title></path></g><text class="text" y="25" x="326" text-anchor="middle" font-size="24" font-family="Helvetica" fill="#6baed6">11 - AUDE</text><line x1="254.66280068728528" y1="230.3186151957981" x2="222.72121993127146" y2="297.6530084048517" stroke="yellow" opacity="0.35" stroke-width="2"/><line x1="238.7156357388316" y1="299.11113242711895" x2="478.584621993127" y2="250.7323515075402" stroke="yellow" opacity="0.35" stroke-width="2"/><line x1="481.0416666666665" y1="245.55278279915146" x2="273.1142611683849" y2="226.59717050967666" stroke="yellow" opacity="0.35" stroke-width="2"/></svg>