<svg viewBox="0,0,955,1146" width="955" height="1146" style="width: 100%; height: auto;" xmlns="http://www.w3.org/2000/svg" xmlns:xlink="http://www.w3.org/1999/xlink"><rect width="955" height="1146" fill="black"/><g stroke="#000" stroke-opacity="0.2"><path d="M0,-13.34775705149959L2.9967581703553763,-4.1246837657014135L12.69447132175327,-4.124683765701414L4.848856575698947,1.5754890056530315L7.845614746054325,10.798562291451207L8.881784197001252e-16,5.098389520096762L-7.845614746054323,10.798562291451208L-4.848856575698946,1.5754890056530328L-12.694471321753271,-4.124683765701411L-2.9967581703553776,-4.124683765701413Z" transform="translate(530.1211829756926,845.2928187398647)rotate(14.098350656925621)" fill="white" class="commune"><title>52269 Population : 7761</title></path><path d="M0,-18.876579049491834L4.238056047668955,-5.833183721955068L17.952693510379785,-5.833183721955069L6.857318731355415,2.2280779191642193L11.095374779024372,15.271473246700983L8.881784197001252e-16,7.210211605581696L-11.095374779024368,15.271473246700985L-6.857318731355414,2.2280779191642206L-17.952693510379788,-5.833183721955065L-4.238056047668956,-5.833183721955068Z" transform="translate(399.22599032365724,610.4497258917327)rotate(12.731798066964)" fill="white" class="commune"><title>52121 Population : 22367</title></path><path d="M0,-18.876579049491834L4.238056047668955,-5.833183721955068L17.952693510379785,-5.833183721955069L6.857318731355415,2.2280779191642193L11.095374779024372,15.271473246700983L8.881784197001252e-16,7.210211605581696L-11.095374779024368,15.271473246700985L-6.857318731355414,2.2280779191642206L-17.952693510379788,-5.833183721955065L-4.238056047668956,-5.833183721955068Z" transform="translate(273.5929159691914,85.74320399499265)rotate(15.544377698301785)" fill="white" class="commune"><title>52448 Population : 24932</title></path></g><text class="text" y="40" x="427.5" text-anchor="middle" font-size="36" font-family="Helvetica" fill="#6baed6">52 - HAUTE MARNE</text><line x1="407.9523365004596" y1="626.1059320816081" x2="521.3948367988902" y2="829.6366125499893" stroke="yellow" opacity="0.35" stroke-width="2"/><line x1="513.0192985085926" y1="794.6561777568733" x2="290.6948004362915" y2="136.37984497798413" stroke="yellow" opacity="0.35" stroke-width="2"/><line x1="281.9684542594891" y1="120.72363878810866" x2="390.85045203335955" y2="575.4692910986166" stroke="yellow" opacity="0.35" stroke-width="2"/></svg>