<svg viewBox="0,0,955,1146" width="955" height="1146" style="width: 100%; height: auto;" xmlns="http://www.w3.org/2000/svg" xmlns:xlink="http://www.w3.org/1999/xlink"><rect width="955" height="1146" fill="black"/><g stroke="#000" stroke-opacity="0.2"><path d="M0,-13.34775705149959L2.9967581703553763,-4.1246837657014135L12.69447132175327,-4.124683765701414L4.848856575698947,1.5754890056530315L7.845614746054325,10.798562291451207L8.881784197001252e-16,5.098389520096762L-7.845614746054323,10.798562291451208L-4.848856575698946,1.5754890056530328L-12.694471321753271,-4.124683765701411L-2.9967581703553776,-4.124683765701413Z" transform="translate(60.08885298869143,719.2801488203695)rotate(29.788560271267563)" fill="white" class="commune"><title>28280 Population : 9940</title></path><path d="M0,-15.873247654971056L3.5637661381291506,-4.905103281308338L15.096355617026989,-4.905103281308339L5.766294739448918,1.873582735131148L9.330060877578072,12.841727108793865L8.881784197001252e-16,6.063041092354379L-9.330060877578068,12.841727108793867L-5.766294739448918,1.8735827351311491L-15.09635561702699,-4.905103281308335L-3.563766138129152,-4.905103281308337Z" transform="translate(441.6801292407108,982.484791400515)rotate(3.318120378277424)" fill="white" class="commune"><title>28088 Population : 13077</title></path><path d="M0,-18.876579049491834L4.238056047668955,-5.833183721955068L17.952693510379785,-5.833183721955069L6.857318731355415,2.2280779191642193L11.095374779024372,15.271473246700983L8.881784197001252e-16,7.210211605581696L-11.095374779024368,15.271473246700985L-6.857318731355414,2.2280779191642206L-17.952693510379788,-5.833183721955065L-4.238056047668956,-5.833183721955068Z" transform="translate(466.53473344103395,242.3731850455806)rotate(29.32374444797111)" fill="white" class="commune"><title>28134 Population : 30977</title></path><path d="M0,-18.876579049491834L4.238056047668955,-5.833183721955068L17.952693510379785,-5.833183721955069L6.857318731355415,2.2280779191642193L11.095374779024372,15.271473246700983L8.881784197001252e-16,7.210211605581696L-11.095374779024368,15.271473246700985L-6.857318731355414,2.2280779191642206L-17.952693510379788,-5.833183721955065L-4.238056047668956,-5.833183721955068Z" transform="translate(572.532310177706,576.1938085753573)rotate(16.115594227805737)" fill="white" class="commune"><title>28085 Population : 38752</title></path></g><text class="text" y="40" x="427.5" text-anchor="middle" font-size="36" font-family="Helvetica" fill="#6baed6">28 - EURE ET LOIR</text><line x1="439.4383414108778" y1="274.16698263056657" x2="87.1852450188476" y2="687.4863512353836" stroke="yellow" opacity="0.35" stroke-width="2"/><line x1="85.52827140549272" y1="736.8271249923793" x2="416.2407108239095" y2="964.9378152285052" stroke="yellow" opacity="0.35" stroke-width="2"/><line x1="450.40360796984385" y1="955.3987258788378" x2="563.808831448573" y2="603.2798740970344" stroke="yellow" opacity="0.35" stroke-width="2"/><line x1="565.4658050619279" y1="553.9391003400389" x2="473.60123855681206" y2="264.62789328089906" stroke="yellow" opacity="0.35" stroke-width="2"/></svg>