<svg viewBox="0,0,955,1146" width="955" height="1146" style="width: 100%; height: auto;" xmlns="http://www.w3.org/2000/svg" xmlns:xlink="http://www.w3.org/1999/xlink"><rect width="955" height="1146" fill="black"/><g stroke="#000" stroke-opacity="0.2"><path d="M0,-13.34775705149959L2.9967581703553763,-4.1246837657014135L12.69447132175327,-4.124683765701414L4.848856575698947,1.5754890056530315L7.845614746054325,10.798562291451207L8.881784197001252e-16,5.098389520096762L-7.845614746054323,10.798562291451208L-4.848856575698946,1.5754890056530328L-12.694471321753271,-4.124683765701411L-2.9967581703553776,-4.124683765701413Z" transform="translate(306.0459634649387,327.11407367582433)rotate(22.96324464571)" fill="white" class="commune"><title>54099 Population : 8358</title></path><path d="M0,-15.873247654971056L3.5637661381291506,-4.905103281308338L15.096355617026989,-4.905103281308339L5.766294739448918,1.873582735131148L9.330060877578072,12.841727108793865L8.881784197001252e-16,6.063041092354379L-9.330060877578068,12.841727108793867L-5.766294739448918,1.8735827351311491L-15.09635561702699,-4.905103281308335L-3.563766138129152,-4.905103281308337Z" transform="translate(275.11490866234544,794.2852624922998)rotate(11.611373266947687)" fill="white" class="commune"><title>54528 Population : 15707</title></path><path d="M0,-15.873247654971056L3.5637661381291506,-4.905103281308338L15.096355617026989,-4.905103281308339L5.766294739448918,1.873582735131148L9.330060877578072,12.841727108793865L8.881784197001252e-16,6.063041092354379L-9.330060877578068,12.841727108793867L-5.766294739448918,1.8735827351311491L-15.09635561702699,-4.905103281308335L-3.563766138129152,-4.905103281308337Z" transform="translate(597.2245138479675,870.9550129214113)rotate(8.078514795599968)" fill="white" class="commune"><title>54329 Population : 18566</title></path><path d="M0,-26.69551410299918L5.993516340710753,-8.249367531402827L25.38894264350654,-8.249367531402829L9.697713151397894,3.150978011306063L15.69122949210865,21.597124582902413L1.7763568394002505e-15,10.196779040193524L-15.691229492108645,21.597124582902417L-9.697713151397892,3.1509780113060657L-25.388942643506542,-8.249367531402822L-5.993516340710755,-8.249367531402825Z" transform="translate(424.4372421921039,791.8617584024723)rotate(4.895231600736119)" fill="white" class="commune"><title>54395 Population : 104592</title></path></g><text class="text" y="40" x="427.5" text-anchor="middle" font-size="36" font-family="Helvetica" fill="#6baed6">54 - MEURTHE ET MOSELLE</text><line x1="325.4578668238073" y1="363.3701362921968" x2="577.8126104890989" y2="834.6989503050388" stroke="yellow" opacity="0.35" stroke-width="2"/><line x1="585.7053624042433" y1="865.6821292868153" x2="435.95639363582814" y2="797.1346420370683" stroke="yellow" opacity="0.35" stroke-width="2"/><line x1="414.48241995678666" y1="792.0233253417941" x2="285.0697308976627" y2="794.123695552978" stroke="yellow" opacity="0.35" stroke-width="2"/><line x1="277.17697898251834" y1="763.1405165712015" x2="303.98389314476583" y2="358.2588195969227" stroke="yellow" opacity="0.35" stroke-width="2"/></svg>