<svg viewBox="0,0,954,1144.8" width="954" height="1144.8" style="width: 100%; height: auto;" xmlns="http://www.w3.org/2000/svg" xmlns:xlink="http://www.w3.org/1999/xlink"><rect width="954" height="1144.8" fill="black"/><g stroke="#000" stroke-opacity="0.2"><path d="M0,-13.34775705149959L2.9967581703553763,-4.1246837657014135L12.69447132175327,-4.124683765701414L4.848856575698947,1.5754890056530315L7.845614746054325,10.798562291451207L8.881784197001252e-16,5.098389520096762L-7.845614746054323,10.798562291451208L-4.848856575698946,1.5754890056530328L-12.694471321753271,-4.124683765701411L-2.9967581703553776,-4.124683765701413Z" transform="translate(452.39950338903424,241.0861642719865)rotate(29.759378164621996)" fill="white" class="commune"><title>insee_com : 24311 
Population : 3050
 Nom : NONTRON</title></path><path d="M0,-13.34775705149959L2.9967581703553763,-4.1246837657014135L12.69447132175327,-4.124683765701414L4.848856575698947,1.5754890056530315L7.845614746054325,10.798562291451207L8.881784197001252e-16,5.098389520096762L-7.845614746054323,10.798562291451208L-4.848856575698946,1.5754890056530328L-12.694471321753271,-4.124683765701411L-2.9967581703553776,-4.124683765701413Z" transform="translate(788.798402791759,791.781126917107)rotate(6.9341345085307395)" fill="white" class="commune"><title>insee_com : 24520 
Population : 8869
 Nom : SARLAT LA CANEDA</title></path><path d="M0,-18.876579049491834L4.238056047668955,-5.833183721955068L17.952693510379785,-5.833183721955069L6.857318731355415,2.2280779191642193L11.095374779024372,15.271473246700983L8.881784197001252e-16,7.210211605581696L-11.095374779024368,15.271473246700985L-6.857318731355414,2.2280779191642206L-17.952693510379788,-5.833183721955065L-4.238056047668956,-5.833183721955068Z" transform="translate(344.6547882692436,826.1075763872141)rotate(14.817567162721428)" fill="white" class="commune"><title>insee_com : 24037 
Population : 26833
 Nom : BERGERAC</title></path><path d="M0,-18.876579049491834L4.238056047668955,-5.833183721955068L17.952693510379785,-5.833183721955069L6.857318731355415,2.2280779191642193L11.095374779024372,15.271473246700983L8.881784197001252e-16,7.210211605581696L-11.095374779024368,15.271473246700985L-6.857318731355414,2.2280779191642206L-17.952693510379788,-5.833183721955065L-4.238056047668956,-5.833183721955068Z" transform="translate(484.6137172001879,539.6346601675687)rotate(21.39970345859997)" fill="white" class="commune"><title>insee_com : 24322 
Population : 29966
 Nom : PERIGUEUX</title></path></g><text class="text" y="40" x="427" text-anchor="middle" font-size="36" font-family="Helvetica" fill="#6baed6">24  - DORDOGNE</text><line x1="351.83776927722965" y1="787.1061489128656" x2="445.2165223810482" y2="280.08759174633497" stroke="yellow" opacity="0.35" stroke-width="2"/><line x1="454.54711764311116" y1="260.989397331692" x2="482.466102946111" y2="519.7314271078632" stroke="yellow" opacity="0.35" stroke-width="2"/><line x1="504.892696239626" y1="556.4444246175378" x2="768.5194237523209" y2="774.9713624671379" stroke="yellow" opacity="0.35" stroke-width="2"/><line x1="759.188828490258" y1="794.0695568817808" x2="374.26436257074465" y2="823.8191464225403" stroke="yellow" opacity="0.35" stroke-width="2"/></svg>