<svg viewBox="0,0,954,1144.8" width="954" height="1144.8" style="width: 100%; height: auto;" xmlns="http://www.w3.org/2000/svg" xmlns:xlink="http://www.w3.org/1999/xlink"><rect width="954" height="1144.8" fill="black"/><g stroke="#000" stroke-opacity="0.2"><path d="M0,-18.876579049491834L4.238056047668955,-5.833183721955068L17.952693510379785,-5.833183721955069L6.857318731355415,2.2280779191642193L11.095374779024372,15.271473246700983L8.881784197001252e-16,7.210211605581696L-11.095374779024368,15.271473246700985L-6.857318731355414,2.2280779191642206L-17.952693510379788,-5.833183721955065L-4.238056047668956,-5.833183721955068Z" transform="translate(281.8701517706578,801.6491717638528)rotate(20.89096363621402)" fill="white" class="commune"><title>insee_com : 40088 
Population : 20681
 Nom : DAX</title></path><path d="M0,-18.876579049491834L4.238056047668955,-5.833183721955068L17.952693510379785,-5.833183721955069L6.857318731355415,2.2280779191642193L11.095374779024372,15.271473246700983L8.881784197001252e-16,7.210211605581696L-11.095374779024368,15.271473246700985L-6.857318731355414,2.2280779191642206L-17.952693510379788,-5.833183721955065L-4.238056047668956,-5.833183721955068Z" transform="translate(581.806070826307,664.2103351504811)rotate(18.060699161972614)" fill="white" class="commune"><title>insee_com : 40192 
Population : 29554
 Nom : MONT DE MARSAN</title></path></g><text class="text" y="40" x="427" text-anchor="middle" font-size="36" font-family="Helvetica" fill="#6baed6">40  - LANDES</text><line x1="301.8658797077011" y1="792.4865826562947" x2="561.8103428892637" y2="673.3729242580392" stroke="yellow" opacity="0.35" stroke-width="2"/><line x1="561.8103428892637" y1="673.3729242580392" x2="301.8658797077011" y2="792.4865826562947" stroke="yellow" opacity="0.35" stroke-width="2"/></svg>