<svg viewBox="0,0,900,600" width="900" height="600" style="width: 100%; height: auto;" xmlns="http://www.w3.org/2000/svg" xmlns:xlink="http://www.w3.org/1999/xlink"><rect width="954" height="1144.8" fill="black"/><g stroke="#000" stroke-opacity="0.2"><path d="M0,-14.621735258409942L3.282784098583098,-4.518364682100035L13.906096597053375,-4.518364682100036L5.3116562492351385,1.725861734995099L8.594440347818239,11.829232311305004L8.881784197001252e-16,5.58500589420987L-8.594440347818235,11.829232311305006L-5.3116562492351385,1.7258617349951004L-13.906096597053377,-4.5183646821000325L-3.2827840985830994,-4.518364682100034Z" transform="translate(506.3033767254501,454.79244175839267)" fill="white" class="commune"><title>68</title></path><path d="M0,-12.295364763585766L2.760481380550424,-3.7994766639869093L11.693586778634064,-3.7994766639869098L4.466552699041819,1.4512709461809354L7.227034079592245,9.947159045779792L8.881784197001252e-16,4.696411435611947L-7.227034079592243,9.947159045779793L-4.466552699041818,1.4512709461809363L-11.693586778634064,-3.799476663986907L-2.760481380550425,-3.7994766639869084Z" transform="translate(545.8145182871685,100.00000000000728)" fill="white" class="commune"><title>68</title></path><path d="M0,-7.310867629204971L1.641392049291549,-2.2591823410500176L6.953048298526688,-2.259182341050018L2.6558281246175692,0.8629308674975495L4.297220173909119,5.914616155652502L4.440892098500626e-16,2.792502947104935L-4.297220173909118,5.914616155652503L-2.6558281246175692,0.8629308674975502L-6.953048298526689,-2.2591823410500163L-1.6413920492915497,-2.259182341050017Z" transform="translate(354.18548171283055,391.09257791310665)" fill="white" class="commune"><title>68</title></path><path d="M0,-7.310867629204971L1.641392049291549,-2.2591823410500176L6.953048298526688,-2.259182341050018L2.6558281246175692,0.8629308674975495L4.297220173909119,5.914616155652502L4.440892098500626e-16,2.792502947104935L-4.297220173909118,5.914616155652503L-2.6558281246175692,0.8629308674975502L-6.953048298526689,-2.2591823410500163L-1.6413920492915497,-2.259182341050017Z" transform="translate(452.9633356171289,580.0000000000073)" fill="white" class="commune"><title>68</title></path></g><text class="text" y="25" x="477" text-anchor="middle" font-size="16" font-family="Helvetica" fill="#878787">68 - HAUT RHIN</text><line x1="508.9374528295647" y1="431.13961230783366" x2="543.180442183054" y2="123.6528294505663" stroke="yellow" stroke-width="0.3"/><line x1="533.0392491822126" y1="119.40617186088056" x2="366.9607508177864" y2="371.68640605223334" stroke="yellow" stroke-width="0.3"/><line x1="360.7706719731171" y1="403.68640605223334" x2="446.37814535684237" y2="567.4061718608806" stroke="yellow" stroke-width="0.3"/><line x1="456.51933835768364" y1="571.6528294505663" x2="502.7473739848954" y2="463.13961230783366" stroke="yellow" stroke-width="0.3"/></svg>