<svg viewBox="0,0,600,600" width="600" height="600" style="width: 100%; height: auto;" xmlns="http://www.w3.org/2000/svg" xmlns:xlink="http://www.w3.org/1999/xlink"><rect width="752" height="902.4" fill="black"/><g stroke="#000" stroke-opacity="0.2"><path d="M0,-15.873247654971056L3.5637661381291506,-4.905103281308338L15.096355617026989,-4.905103281308339L5.766294739448918,1.873582735131148L9.330060877578072,12.841727108793865L8.881784197001252e-16,6.063041092354379L-9.330060877578068,12.841727108793867L-5.766294739448918,1.8735827351311491L-15.09635561702699,-4.905103281308335L-3.563766138129152,-4.905103281308337Z" transform="translate(106.39749171584947,286.50109895406604)rotate(29.621872448071677)" fill="white" class="commune"><title>12300 Population : 11894</title></path><path d="M0,-18.876579049491834L4.238056047668955,-5.833183721955068L17.952693510379785,-5.833183721955069L6.857318731355415,2.2280779191642193L11.095374779024372,15.271473246700983L8.881784197001252e-16,7.210211605581696L-11.095374779024368,15.271473246700985L-6.857318731355414,2.2280779191642206L-17.952693510379788,-5.833183721955065L-4.238056047668956,-5.833183721955068Z" transform="translate(448.27118927127606,397.63989603837217)rotate(3.6350752004982914)" fill="white" class="commune"><title>12145 Population : 22200</title></path><path d="M0,-18.876579049491834L4.238056047668955,-5.833183721955068L17.952693510379785,-5.833183721955069L6.857318731355415,2.2280779191642193L11.095374779024372,15.271473246700983L8.881784197001252e-16,7.210211605581696L-11.095374779024368,15.271473246700985L-6.857318731355414,2.2280779191642206L-17.952693510379788,-5.833183721955065L-4.238056047668956,-5.833183721955068Z" transform="translate(275.13073470821473,282.5387266380676)rotate(29.981196924461507)" fill="white" class="commune"><title>12202 Population : 23739</title></path></g><text class="text" y="25" x="326" text-anchor="middle" font-size="24" font-family="Helvetica" fill="#6baed6">12 - AVEYRON</text><line x1="436.7284923004053" y1="389.96648474501853" x2="286.67343167908547" y2="290.21213793142124" stroke="yellow" opacity="0.35" stroke-width="2"/><line x1="263.8818518420571" y1="282.8028847924675" x2="117.64637458200716" y2="286.2369407996661" stroke="yellow" opacity="0.35" stroke-width="2"/><line x1="129.18907155287792" y1="293.91035209301975" x2="425.4796094342476" y2="390.23064289941846" stroke="yellow" opacity="0.35" stroke-width="2"/></svg>