<svg viewBox="0,0,600,600" width="600" height="600" style="width: 100%; height: auto;" xmlns="http://www.w3.org/2000/svg" xmlns:xlink="http://www.w3.org/1999/xlink"><rect width="752" height="902.4" fill="black"/><g stroke="#000" stroke-opacity="0.2"><path d="M0,-13.34775705149959L2.9967581703553763,-4.1246837657014135L12.69447132175327,-4.124683765701414L4.848856575698947,1.5754890056530315L7.845614746054325,10.798562291451207L8.881784197001252e-16,5.098389520096762L-7.845614746054323,10.798562291451208L-4.848856575698946,1.5754890056530328L-12.694471321753271,-4.124683765701411L-2.9967581703553776,-4.124683765701413Z" transform="translate(362.55201109570044,252.33937825930116)rotate(16.79881619427755)" fill="white" class="commune"><title>01269 Population : 3482</title></path><path d="M0,-13.34775705149959L2.9967581703553763,-4.1246837657014135L12.69447132175327,-4.124683765701414L4.848856575698947,1.5754890056530315L7.845614746054325,10.798562291451207L8.881784197001252e-16,5.098389520096762L-7.845614746054323,10.798562291451208L-4.848856575698946,1.5754890056530328L-12.694471321753271,-4.124683765701411L-2.9967581703553776,-4.124683765701413Z" transform="translate(389.632454923717,473.97210958410506)rotate(5.804548692055771)" fill="white" class="commune"><title>01034 Population : 9133</title></path><path d="M0,-15.873247654971056L3.5637661381291506,-4.905103281308338L15.096355617026989,-4.905103281308339L5.766294739448918,1.873582735131148L9.330060877578072,12.841727108793865L8.881784197001252e-16,6.063041092354379L-9.330060877578068,12.841727108793867L-5.766294739448918,1.8735827351311491L-15.09635561702699,-4.905103281308335L-3.563766138129152,-4.905103281308337Z" transform="translate(527.7045769764218,145.88611803931053)rotate(5.133498559404125)" fill="white" class="commune"><title>01173 Population : 12652</title></path><path d="M0,-22.448162112566994L5.039926405668234,-6.936863585267022L21.349470856006818,-6.936863585267023L8.154772225169292,2.649646114250548L13.19469863083753,18.16094464155052L8.881784197001252e-16,8.574434942032948L-13.194698630837525,18.160944641550522L-8.154772225169292,2.649646114250549L-21.34947085600682,-6.936863585267019L-5.0399264056682345,-6.936863585267021Z" transform="translate(222.1914008321778,224.2456270439361)rotate(13.16634606005713)" fill="white" class="commune"><title>01053 Population : 41365</title></path></g><text class="text" y="25" x="326" text-anchor="middle" font-size="24" font-family="Helvetica" fill="#6baed6">01 - AIN</text><line x1="378.46971798428103" y1="457.3236774147605" x2="233.35413777161375" y2="240.8940592132807" stroke="yellow" opacity="0.35" stroke-width="2"/><line x1="242.55894590846074" y1="219.02165977696106" x2="507.33703190013887" y2="151.11008530628558" stroke="yellow" opacity="0.35" stroke-width="2"/><line x1="516.6944059177071" y1="152.98300205397658" x2="373.5621821544152" y2="245.2424942446351" stroke="yellow" opacity="0.35" stroke-width="2"/><line x1="364.3573740175682" y1="267.11489368095476" x2="387.8270920018492" y2="459.19659416245145" stroke="yellow" opacity="0.35" stroke-width="2"/></svg>