<svg viewBox="0,0,955,1146" width="955" height="1146" style="width: 100%; height: auto;" xmlns="http://www.w3.org/2000/svg" xmlns:xlink="http://www.w3.org/1999/xlink"><rect width="955" height="1146" fill="black"/><g stroke="#000" stroke-opacity="0.2"><path d="M0,-13.34775705149959L2.9967581703553763,-4.1246837657014135L12.69447132175327,-4.124683765701414L4.848856575698947,1.5754890056530315L7.845614746054325,10.798562291451207L8.881784197001252e-16,5.098389520096762L-7.845614746054323,10.798562291451208L-4.848856575698946,1.5754890056530328L-12.694471321753271,-4.124683765701411L-2.9967581703553776,-4.124683765701413Z" transform="translate(374.3780230069542,381.01692834586356)rotate(9.291117837796989)" fill="white" class="commune"><title>33058 Population : 4856</title></path><path d="M0,-13.34775705149959L2.9967581703553763,-4.1246837657014135L12.69447132175327,-4.124683765701414L4.848856575698947,1.5754890056530315L7.845614746054325,10.798562291451207L8.881784197001252e-16,5.098389520096762L-7.845614746054323,10.798562291451208L-4.848856575698946,1.5754890056530328L-12.694471321753271,-4.124683765701411L-2.9967581703553776,-4.124683765701413Z" transform="translate(217.15927119788455,257.84954888372886)rotate(2.1986070169456697)" fill="white" class="commune"><title>33240 Population : 5794</title></path><path d="M0,-13.34775705149959L2.9967581703553763,-4.1246837657014135L12.69447132175327,-4.124683765701414L4.848856575698947,1.5754890056530315L7.845614746054325,10.798562291451207L8.881784197001252e-16,5.098389520096762L-7.845614746054323,10.798562291451208L-4.848856575698946,1.5754890056530328L-12.694471321753271,-4.124683765701411L-2.9967581703553776,-4.124683765701413Z" transform="translate(608.2338724720579,850.6324332285803)rotate(27.774748931039937)" fill="white" class="commune"><title>33227 Population : 7377</title></path><path d="M0,-15.873247654971056L3.5637661381291506,-4.905103281308338L15.096355617026989,-4.905103281308339L5.766294739448918,1.873582735131148L9.330060877578072,12.841727108793865L8.881784197001252e-16,6.063041092354379L-9.330060877578068,12.841727108793867L-5.766294739448918,1.8735827351311491L-15.09635561702699,-4.905103281308335L-3.563766138129152,-4.905103281308337Z" transform="translate(81.9173341578246,758.8361499901803)rotate(1.3290053999019291)" fill="white" class="commune"><title>33009 Population : 11121</title></path><path d="M0,-18.876579049491834L4.238056047668955,-5.833183721955068L17.952693510379785,-5.833183721955069L6.857318731355415,2.2280779191642193L11.095374779024372,15.271473246700983L8.881784197001252e-16,7.210211605581696L-11.095374779024368,15.271473246700985L-6.857318731355414,2.2280779191642206L-17.952693510379788,-5.833183721955065L-4.238056047668956,-5.833183721955068Z" transform="translate(611.6149208980594,552.4165293212864)rotate(13.615514219644751)" fill="white" class="commune"><title>33243 Population : 24880</title></path><path d="M0,-31.746495309942112L7.127532276258301,-9.810206562616676L30.192711234053977,-9.810206562616678L11.532589478897837,3.747165470262296L18.660121755156144,25.68345421758773L1.7763568394002505e-15,12.126082184708759L-18.660121755156137,25.683454217587734L-11.532589478897837,3.7471654702622983L-30.19271123405398,-9.81020656261667L-7.127532276258304,-9.810206562616674Z" transform="translate(421.149192899975,596.159846623952)rotate(9.422199257244358)" fill="white" class="commune"><title>33063 Population : 252040</title></path></g><text class="text" y="40" x="427.5" text-anchor="middle" font-size="36" font-family="Helvetica" fill="#6baed6">33 - GIRONDE</text><line x1="433.84690809984727" y1="593.243625470441" x2="598.9172056981871" y2="555.3327504747974" stroke="yellow" opacity="0.35" stroke-width="2"/><line x1="611.3895176696593" y1="572.2975895817726" x2="608.459275700458" y2="830.7513729680941" stroke="yellow" opacity="0.35" stroke-width="2"/><line x1="573.146103251109" y1="844.512681012687" x2="117.00510337877348" y2="764.9559022060736" stroke="yellow" opacity="0.35" stroke-width="2"/><line x1="90.9334632938286" y1="725.4370432497502" x2="208.14314206188055" y2="291.24865562415897" stroke="yellow" opacity="0.35" stroke-width="2"/><line x1="227.6405213184892" y1="266.06070751453785" x2="363.89677288634954" y2="372.80576971505457" stroke="yellow" opacity="0.35" stroke-width="2"/><line x1="377.49610099982226" y1="395.3597895644028" x2="418.03111490710694" y2="581.8169854054128" stroke="yellow" opacity="0.35" stroke-width="2"/></svg>