<svg viewBox="0,0,954,1144.8" width="954" height="1144.8" style="width: 100%; height: auto;" xmlns="http://www.w3.org/2000/svg" xmlns:xlink="http://www.w3.org/1999/xlink"><rect width="954" height="1144.8" fill="black"/><g stroke="#000" stroke-opacity="0.2"><path d="M0,-18.876579049491834L4.238056047668955,-5.833183721955068L17.952693510379785,-5.833183721955069L6.857318731355415,2.2280779191642193L11.095374779024372,15.271473246700983L8.881784197001252e-16,7.210211605581696L-11.095374779024368,15.271473246700985L-6.857318731355414,2.2280779191642206L-17.952693510379788,-5.833183721955065L-4.238056047668956,-5.833183721955068Z" transform="translate(748.2291565876512,420.96157120271164)rotate(13.448659673025576)" fill="white" class="commune"><title>insee_com : 97410 
Population : 37759
 Nom : SAINT BENOIT</title></path><path d="M0,-26.69551410299918L5.993516340710753,-8.249367531402827L25.38894264350654,-8.249367531402829L9.697713151397894,3.150978011306063L15.69122949210865,21.597124582902413L1.7763568394002505e-15,10.196779040193524L-15.691229492108645,21.597124582902417L-9.697713151397892,3.1509780113060657L-25.388942643506542,-8.249367531402822L-5.993516340710755,-8.249367531402825Z" transform="translate(405.9308176100458,902.2148030901299)rotate(27.87024974652461)" fill="white" class="commune"><title>insee_com : 97416 
Population : 84212
 Nom : SAINT PIERRE</title></path><path d="M0,-26.69551410299918L5.993516340710753,-8.249367531402827L25.38894264350654,-8.249367531402829L9.697713151397894,3.150978011306063L15.69122949210865,21.597124582902413L1.7763568394002505e-15,10.196779040193524L-15.691229492108645,21.597124582902417L-9.697713151397892,3.1509780113060657L-25.388942643506542,-8.249367531402822L-5.993516340710755,-8.249367531402825Z" transform="translate(102.41074020318047,383.0104290122472)rotate(15.997815275228271)" fill="white" class="commune"><title>insee_com : 97415 
Population : 104519
 Nom : SAINT PAUL</title></path><path d="M0,-26.69551410299918L5.993516340710753,-8.249367531402827L25.38894264350654,-8.249367531402829L9.697713151397894,3.150978011306063L15.69122949210865,21.597124582902413L1.7763568394002505e-15,10.196779040193524L-15.691229492108645,21.597124582902417L-9.697713151397892,3.1509780113060657L-25.388942643506542,-8.249367531402822L-5.993516340710755,-8.249367531402825Z" transform="translate(362.19593613932375,179.61630976456217)rotate(22.924735236366985)" fill="white" class="commune"><title>insee_com : 97411 
Population : 147931
 Nom : SAINT DENIS</title></path></g><text class="text" y="40" x="427" text-anchor="middle" font-size="36" font-family="Helvetica" fill="#6baed6">974  - LA REUNION</text><line x1="722.4936085577627" y1="404.871887106835" x2="387.93148416921224" y2="195.7059938604388" stroke="yellow" opacity="0.35" stroke-width="2"/><line x1="344.8769230769142" y1="193.17591771440783" x2="119.72975326559002" y2="369.45082106240153" stroke="yellow" opacity="0.35" stroke-width="2"/><line x1="122.64541203030483" y1="417.6240539507727" x2="385.6961457829214" y2="867.6011781516044" stroke="yellow" opacity="0.35" stroke-width="2"/><line x1="428.75070687521946" y1="870.1312542976353" x2="725.4092673224775" y2="453.04511999520616" stroke="yellow" opacity="0.35" stroke-width="2"/></svg>