<svg viewBox="0,0,955,1146" width="955" height="1146" style="width: 100%; height: auto;" xmlns="http://www.w3.org/2000/svg" xmlns:xlink="http://www.w3.org/1999/xlink"><rect width="955" height="1146" fill="black"/><g stroke="#000" stroke-opacity="0.2"><path d="M0,-18.876579049491834L4.238056047668955,-5.833183721955068L17.952693510379785,-5.833183721955069L6.857318731355415,2.2280779191642193L11.095374779024372,15.271473246700983L8.881784197001252e-16,7.210211605581696L-11.095374779024368,15.271473246700985L-6.857318731355414,2.2280779191642206L-17.952693510379788,-5.833183721955065L-4.238056047668956,-5.833183721955068Z" transform="translate(276.63148371531963,808.2698099386616)rotate(19.154260655875618)" fill="white" class="commune"><title>40088 Population : 20891</title></path><path d="M0,-18.876579049491834L4.238056047668955,-5.833183721955068L17.952693510379785,-5.833183721955069L6.857318731355415,2.2280779191642193L11.095374779024372,15.271473246700983L8.881784197001252e-16,7.210211605581696L-11.095374779024368,15.271473246700985L-6.857318731355414,2.2280779191642206L-17.952693510379788,-5.833183721955065L-4.238056047668956,-5.833183721955068Z" transform="translate(587.7593486127864,658.530126792597)rotate(19.450663448705022)" fill="white" class="commune"><title>40192 Population : 29885</title></path></g><text class="text" y="40" x="427.5" text-anchor="middle" font-size="36" font-family="Helvetica" fill="#6baed6">40 - LANDES</text><line x1="297.37334137515074" y1="798.2871643955907" x2="567.0174909529553" y2="668.5127723356679" stroke="yellow" opacity="0.35" stroke-width="2"/><line x1="567.0174909529553" y1="668.5127723356679" x2="297.37334137515074" y2="798.2871643955907" stroke="yellow" opacity="0.35" stroke-width="2"/></svg>