<svg viewBox="0,0,955,1146" width="955" height="1146" style="width: 100%; height: auto;" xmlns="http://www.w3.org/2000/svg" xmlns:xlink="http://www.w3.org/1999/xlink"><rect width="955" height="1146" fill="black"/><g stroke="#000" stroke-opacity="0.2"><path d="M0,-13.34775705149959L2.9967581703553763,-4.1246837657014135L12.69447132175327,-4.124683765701414L4.848856575698947,1.5754890056530315L7.845614746054325,10.798562291451207L8.881784197001252e-16,5.098389520096762L-7.845614746054323,10.798562291451208L-4.848856575698946,1.5754890056530328L-12.694471321753271,-4.124683765701411L-2.9967581703553776,-4.124683765701413Z" transform="translate(726.8874399450929,531.4265587236514)rotate(1.2704448467461127)" fill="white" class="commune"><title>70310 Population : 8247</title></path><path d="M0,-15.873247654971056L3.5637661381291506,-4.905103281308338L15.096355617026989,-4.905103281308339L5.766294739448918,1.873582735131148L9.330060877578072,12.841727108793865L8.881784197001252e-16,6.063041092354379L-9.330060877578068,12.841727108793867L-5.766294739448918,1.8735827351311491L-15.09635561702699,-4.905103281308335L-3.563766138129152,-4.905103281308337Z" transform="translate(514.4577899794103,580.3026379387156)rotate(19.244075819141543)" fill="white" class="commune"><title>70550 Population : 14998</title></path></g><text class="text" y="40" x="427.5" text-anchor="middle" font-size="36" font-family="Helvetica" fill="#6baed6">70 - HAUTE SAONE</text><line x1="712.725463280714" y1="534.6849640046556" x2="528.6197666437891" y2="577.0442326577114" stroke="yellow" opacity="0.35" stroke-width="2"/><line x1="528.6197666437891" y1="577.0442326577114" x2="712.725463280714" y2="534.6849640046556" stroke="yellow" opacity="0.35" stroke-width="2"/></svg>