<svg viewBox="0,0,954,1144.8" width="954" height="1144.8" style="width: 100%; height: auto;" xmlns="http://www.w3.org/2000/svg" xmlns:xlink="http://www.w3.org/1999/xlink"><rect width="954" height="1144.8" fill="black"/><g stroke="#000" stroke-opacity="0.2"><path d="M0,-15.873247654971056L3.5637661381291506,-4.905103281308338L15.096355617026989,-4.905103281308339L5.766294739448918,1.873582735131148L9.330060877578072,12.841727108793865L8.881784197001252e-16,6.063041092354379L-9.330060877578068,12.841727108793867L-5.766294739448918,1.8735827351311491L-15.09635561702699,-4.905103281308335L-3.563766138129152,-4.905103281308337Z" transform="translate(311.92235441452794,563.0122784940904)rotate(20.912959242876003)" fill="white" class="commune"><title>insee_com : 83023 
Population : 17179
 Nom : BRIGNOLES</title></path><path d="M0,-18.876579049491834L4.238056047668955,-5.833183721955068L17.952693510379785,-5.833183721955069L6.857318731355415,2.2280779191642193L11.095374779024372,15.271473246700983L8.881784197001252e-16,7.210211605581696L-11.095374779024368,15.271473246700985L-6.857318731355414,2.2280779191642206L-17.952693510379788,-5.833183721955065L-4.238056047668956,-5.833183721955068Z" transform="translate(596.2266750156541,434.69996770661237)rotate(6.567405568059615)" fill="white" class="commune"><title>insee_com : 83050 
Population : 39340
 Nom : DRAGUIGNAN</title></path><path d="M0,-31.746495309942112L7.127532276258301,-9.810206562616676L30.192711234053977,-9.810206562616678L11.532589478897837,3.747165470262296L18.660121755156144,25.68345421758773L1.7763568394002505e-15,12.126082184708759L-18.660121755156137,25.683454217587734L-11.532589478897837,3.7471654702622983L-30.19271123405398,-9.81020656261667L-7.127532276258304,-9.810206562616674Z" transform="translate(220.71571696931824,841.0066060914105)rotate(23.16607002046513)" fill="white" class="commune"><title>insee_com : 83137 
Population : 171953
 Nom : TOULON</title></path></g><text class="text" y="40" x="427" text-anchor="middle" font-size="36" font-family="Helvetica" fill="#6baed6">83  - VAR</text><line x1="330.87597578793634" y1="554.4581244415918" x2="577.2730536422457" y2="443.2541217591109" stroke="yellow" opacity="0.35" stroke-width="2"/><line x1="571.1926111458984" y1="461.78707693226556" x2="245.74978083907396" y2="813.9194968657573" stroke="yellow" opacity="0.35" stroke-width="2"/><line x1="226.79615946566554" y1="822.4736509182559" x2="305.84191191818064" y2="581.545233667245" stroke="yellow" opacity="0.35" stroke-width="2"/></svg>