<svg viewBox="0,0,954,1144.8" width="954" height="1144.8" style="width: 100%; height: auto;" xmlns="http://www.w3.org/2000/svg" xmlns:xlink="http://www.w3.org/1999/xlink"><rect width="954" height="1144.8" fill="black"/><g stroke="#000" stroke-opacity="0.2"><path d="M0,-13.34775705149959L2.9967581703553763,-4.1246837657014135L12.69447132175327,-4.124683765701414L4.848856575698947,1.5754890056530315L7.845614746054325,10.798562291451207L8.881784197001252e-16,5.098389520096762L-7.845614746054323,10.798562291451208L-4.848856575698946,1.5754890056530328L-12.694471321753271,-4.124683765701411L-2.9967581703553776,-4.124683765701413Z" transform="translate(211.1887657623231,409.3358800985661)rotate(4.100782927222565)" fill="white" class="commune"><title>insee_com : 15120 
Population : 3603
 Nom : MAURIAC</title></path><path d="M0,-13.34775705149959L2.9967581703553763,-4.1246837657014135L12.69447132175327,-4.124683765701414L4.848856575698947,1.5754890056530315L7.845614746054325,10.798562291451207L8.881784197001252e-16,5.098389520096762L-7.845614746054323,10.798562291451208L-4.848856575698946,1.5754890056530328L-12.694471321753271,-4.124683765701411L-2.9967581703553776,-4.124683765701413Z" transform="translate(737.9060756591518,590.2884832539421)rotate(15.617172600028372)" fill="white" class="commune"><title>insee_com : 15187 
Population : 6435
 Nom : SAINT FLOUR</title></path><path d="M0,-18.876579049491834L4.238056047668955,-5.833183721955068L17.952693510379785,-5.833183721955069L6.857318731355415,2.2280779191642193L11.095374779024372,15.271473246700983L8.881784197001252e-16,7.210211605581696L-11.095374779024368,15.271473246700985L-6.857318731355414,2.2280779191642206L-17.952693510379788,-5.833183721955065L-4.238056047668956,-5.833183721955068Z" transform="translate(289.32586931601077,690.8905537440223)rotate(11.747560377629032)" fill="white" class="commune"><title>insee_com : 15014 
Population : 25499
 Nom : AURILLAC</title></path></g><text class="text" y="40" x="427" text-anchor="middle" font-size="36" font-family="Helvetica" fill="#6baed6">15  - CANTAL</text><line x1="284.11672907909826" y1="672.1202421676586" x2="216.3979059992356" y2="428.10619167492985" stroke="yellow" opacity="0.35" stroke-width="2"/><line x1="246.30325308877835" y1="421.3993869755912" x2="702.7915883326966" y2="578.2249763769171" stroke="yellow" opacity="0.35" stroke-width="2"/><line x1="708.0007285696091" y1="596.9952879532808" x2="319.2312164055535" y2="684.1837490446836" stroke="yellow" opacity="0.35" stroke-width="2"/></svg>