<svg viewBox="0,0,955,1146" width="955" height="1146" style="width: 100%; height: auto;" xmlns="http://www.w3.org/2000/svg" xmlns:xlink="http://www.w3.org/1999/xlink"><rect width="955" height="1146" fill="black"/><g stroke="#000" stroke-opacity="0.2"><path d="M0,-15.873247654971056L3.5637661381291506,-4.905103281308338L15.096355617026989,-4.905103281308339L5.766294739448918,1.873582735131148L9.330060877578072,12.841727108793865L8.881784197001252e-16,6.063041092354379L-9.330060877578068,12.841727108793867L-5.766294739448918,1.8735827351311491L-15.09635561702699,-4.905103281308335L-3.563766138129152,-4.905103281308337Z" transform="translate(691.5396825396829,628.0935663788405)rotate(24.524086210365034)" fill="white" class="commune"><title>93062 Population : 14501</title></path><path d="M0,-22.448162112566994L5.039926405668234,-6.936863585267022L21.349470856006818,-6.936863585267023L8.154772225169292,2.649646114250548L13.19469863083753,18.16094464155052L8.881784197001252e-16,8.574434942032948L-13.194698630837525,18.160944641550522L-8.154772225169292,2.649646114250549L-21.34947085600682,-6.936863585267019L-5.0399264056682345,-6.936863585267021Z" transform="translate(461.69841269841436,584.3874659084831)rotate(25.950629753201316)" fill="white" class="commune"><title>93008 Population : 52337</title></path><path d="M0,-26.69551410299918L5.993516340710753,-8.249367531402827L25.38894264350654,-8.249367531402829L9.697713151397894,3.150978011306063L15.69122949210865,21.597124582902413L1.7763568394002505e-15,10.196779040193524L-15.691229492108645,21.597124582902417L-9.697713151397892,3.1509780113060657L-25.388942643506542,-8.249367531402822L-5.993516340710755,-8.249367531402825Z" transform="translate(228.98412698412903,488.2032473986328)rotate(15.68974671356165)" fill="white" class="commune"><title>93066 Population : 111354</title></path></g><text class="text" y="40" x="427.5" text-anchor="middle" font-size="36" font-family="Helvetica" fill="#6baed6">93 - SEINE SAINT DENIS</text><line x1="477.0211640211656" y1="587.3012059398403" x2="676.2169312169316" y2="625.1798263474833" stroke="yellow" opacity="0.35" stroke-width="2"/><line x1="660.702645502646" y1="618.7675451134933" x2="259.82116402116594" y2="497.52926866397996" stroke="yellow" opacity="0.35" stroke-width="2"/><line x1="244.4984126984147" y1="494.61552863262284" x2="446.1841269841287" y2="577.9751846744931" stroke="yellow" opacity="0.35" stroke-width="2"/></svg>