<svg viewBox="0,0,954,1144.8" width="954" height="1144.8" style="width: 100%; height: auto;" xmlns="http://www.w3.org/2000/svg" xmlns:xlink="http://www.w3.org/1999/xlink"><rect width="954" height="1144.8" fill="black"/><g stroke="#000" stroke-opacity="0.2"><path d="M0,-13.34775705149959L2.9967581703553763,-4.1246837657014135L12.69447132175327,-4.124683765701414L4.848856575698947,1.5754890056530315L7.845614746054325,10.798562291451207L8.881784197001252e-16,5.098389520096762L-7.845614746054323,10.798562291451208L-4.848856575698946,1.5754890056530328L-12.694471321753271,-4.124683765701411L-2.9967581703553776,-4.124683765701413Z" transform="translate(372.55465820552115,398.98110978474506)rotate(25.22057861160581)" fill="white" class="commune"><title>insee_com : 33058 
Population : 4835
 Nom : BLAYE</title></path><path d="M0,-13.34775705149959L2.9967581703553763,-4.1246837657014135L12.69447132175327,-4.124683765701414L4.848856575698947,1.5754890056530315L7.845614746054325,10.798562291451207L8.881784197001252e-16,5.098389520096762L-7.845614746054323,10.798562291451208L-4.848856575698946,1.5754890056530328L-12.694471321753271,-4.124683765701411L-2.9967581703553776,-4.124683765701413Z" transform="translate(222.6875458279659,259.25472143166553)rotate(19.657802853761183)" fill="white" class="commune"><title>insee_com : 33240 
Population : 5801
 Nom : LESPARRE MEDOC</title></path><path d="M0,-13.34775705149959L2.9967581703553763,-4.1246837657014135L12.69447132175327,-4.124683765701414L4.848856575698947,1.5754890056530315L7.845614746054325,10.798562291451207L8.881784197001252e-16,5.098389520096762L-7.845614746054323,10.798562291451208L-4.848856575698946,1.5754890056530328L-12.694471321753271,-4.124683765701411L-2.9967581703553776,-4.124683765701413Z" transform="translate(602.3838712465686,843.7065721814761)rotate(18.445877831141658)" fill="white" class="commune"><title>insee_com : 33227 
Population : 7375
 Nom : LANGON</title></path><path d="M0,-15.873247654971056L3.5637661381291506,-4.905103281308338L15.096355617026989,-4.905103281308339L5.766294739448918,1.873582735131148L9.330060877578072,12.841727108793865L8.881784197001252e-16,6.063041092354379L-9.330060877578068,12.841727108793867L-5.766294739448918,1.8735827351311491L-15.09635561702699,-4.905103281308335L-3.563766138129152,-4.905103281308337Z" transform="translate(93.64904936206926,760.1063523631674)rotate(3.1474984050644297)" fill="white" class="commune"><title>insee_com : 33009 
Population : 11284
 Nom : ARCACHON</title></path><path d="M0,-18.876579049491834L4.238056047668955,-5.833183721955068L17.952693510379785,-5.833183721955069L6.857318731355415,2.2280779191642193L11.095374779024372,15.271473246700983L8.881784197001252e-16,7.210211605581696L-11.095374779024368,15.271473246700985L-6.857318731355414,2.2280779191642206L-17.952693510379788,-5.833183721955065L-4.238056047668956,-5.833183721955068Z" transform="translate(602.1640441657066,564.0417481042605)rotate(29.112711813569874)" fill="white" class="commune"><title>insee_com : 33243 
Population : 24845
 Nom : LIBOURNE</title></path><path d="M0,-31.746495309942112L7.127532276258301,-9.810206562616676L30.192711234053977,-9.810206562616678L11.532589478897837,3.747165470262296L18.660121755156144,25.68345421758773L1.7763568394002505e-15,12.126082184708759L-18.660121755156137,25.683454217587734L-11.532589478897837,3.7471654702622983L-30.19271123405398,-9.81020656261667L-7.127532276258304,-9.810206562616674Z" transform="translate(418.49851810564445,623.4475280813167)rotate(6.371888962910664)" fill="white" class="commune"><title>insee_com : 33063 
Population : 254436
 Nom : BORDEAUX</title></path></g><text class="text" y="40" x="427" text-anchor="middle" font-size="36" font-family="Helvetica" fill="#6baed6">33  - GIRONDE</text><line x1="430.7428865096486" y1="619.4871427495129" x2="589.9196757617025" y2="568.0021334360642" stroke="yellow" opacity="0.35" stroke-width="2"/><line x1="602.1786993044308" y1="582.6860697094082" x2="602.3692161078444" y2="825.0622505763283" stroke="yellow" opacity="0.35" stroke-width="2"/><line x1="568.4682164542686" y1="838.1332241935888" x2="127.56470415436922" y2="765.6797003510546" stroke="yellow" opacity="0.35" stroke-width="2"/><line x1="102.25161579312903" y1="726.7162436344006" x2="214.0849793969061" y2="292.6448301604323" stroke="yellow" opacity="0.35" stroke-width="2"/><line x1="232.67868665313625" y1="268.5698139885375" x2="362.5635173803508" y2="389.6660172278731" stroke="yellow" opacity="0.35" stroke-width="2"/><line x1="375.6175821988627" y1="413.94553767118316" x2="415.4355941123029" y2="608.4831001948786" stroke="yellow" opacity="0.35" stroke-width="2"/></svg>