<svg viewBox="0,0,954,1144.8" width="954" height="1144.8" style="width: 100%; height: auto;" xmlns="http://www.w3.org/2000/svg" xmlns:xlink="http://www.w3.org/1999/xlink"><rect width="954" height="1144.8" fill="black"/><g stroke="#000" stroke-opacity="0.2"><path d="M0,-13.34775705149959L2.9967581703553763,-4.1246837657014135L12.69447132175327,-4.124683765701414L4.848856575698947,1.5754890056530315L7.845614746054325,10.798562291451207L8.881784197001252e-16,5.098389520096762L-7.845614746054323,10.798562291451208L-4.848856575698946,1.5754890056530328L-12.694471321753271,-4.124683765701411L-2.9967581703553776,-4.124683765701413Z" transform="translate(482.06995694805846,871.8652991245181)rotate(25.71351343342619)" fill="white" class="commune"><title>insee_com : 68004 
Population : 5737
 Nom : ALTKIRCH</title></path><path d="M0,-13.34775705149959L2.9967581703553763,-4.1246837657014135L12.69447132175327,-4.124683765701414L4.848856575698947,1.5754890056530315L7.845614746054325,10.798562291451207L8.881784197001252e-16,5.098389520096762L-7.845614746054323,10.798562291451208L-4.848856575698946,1.5754890056530328L-12.694471321753271,-4.124683765701411L-2.9967581703553776,-4.124683765701413Z" transform="translate(370.5309040907541,642.4860238438923)rotate(19.103222059597677)" fill="white" class="commune"><title>insee_com : 68334 
Population : 7780
 Nom : THANN</title></path><path d="M0,-22.448162112566994L5.039926405668234,-6.936863585267022L21.349470856006818,-6.936863585267023L8.154772225169292,2.649646114250548L13.19469863083753,18.16094464155052L8.881784197001252e-16,8.574434942032948L-13.194698630837525,18.160944641550522L-8.154772225169292,2.649646114250549L-21.34947085600682,-6.936863585267019L-5.0399264056682345,-6.936863585267021Z" transform="translate(581.4081378002784,311.79354077784956)rotate(8.112105063882076)" fill="white" class="commune"><title>insee_com : 68066 
Population : 69105
 Nom : COLMAR</title></path><path d="M0,-26.69551410299918L5.993516340710753,-8.249367531402827L25.38894264350654,-8.249367531402829L9.697713151397894,3.150978011306063L15.69122949210865,21.597124582902413L1.7763568394002505e-15,10.196779040193524L-15.691229492108645,21.597124582902417L-9.697713151397892,3.1509780113060657L-25.388942643506542,-8.249367531402822L-5.993516340710755,-8.249367531402825Z" transform="translate(563.1892681170084,716.217427223055)rotate(20.279642500882783)" fill="white" class="commune"><title>insee_com : 68224 
Population : 109443
 Nom : MULHOUSE</title></path></g><text class="text" y="40" x="427" text-anchor="middle" font-size="36" font-family="Helvetica" fill="#6baed6">68  - HAUT RHIN</text><line x1="580.1935464880604" y1="338.7551332075299" x2="564.4038594292264" y2="689.2558347933747" stroke="yellow" opacity="0.35" stroke-width="2"/><line x1="557.7813140390784" y1="726.5939520164859" x2="487.4779110259885" y2="861.4887743310871" stroke="yellow" opacity="0.35" stroke-width="2"/><line x1="474.6340200909048" y1="856.573347439143" x2="377.96684094790777" y2="657.7779755292673" stroke="yellow" opacity="0.35" stroke-width="2"/><line x1="384.58938633805576" y1="620.4398583061561" x2="567.3496555529767" y2="333.8397063155857" stroke="yellow" opacity="0.35" stroke-width="2"/></svg>