<svg viewBox="0,0,955,1146" width="955" height="1146" style="width: 100%; height: auto;" xmlns="http://www.w3.org/2000/svg" xmlns:xlink="http://www.w3.org/1999/xlink"><rect width="955" height="1146" fill="black"/><g stroke="#000" stroke-opacity="0.2"><path d="M0,-13.34775705149959L2.9967581703553763,-4.1246837657014135L12.69447132175327,-4.124683765701414L4.848856575698947,1.5754890056530315L7.845614746054325,10.798562291451207L8.881784197001252e-16,5.098389520096762L-7.845614746054323,10.798562291451208L-4.848856575698946,1.5754890056530328L-12.694471321753271,-4.124683765701411L-2.9967581703553776,-4.124683765701413Z" transform="translate(731.5007215007213,630.1247209782669)rotate(15.993829371575321)" fill="white" class="commune"><title>58062 Population : 2001</title></path><path d="M0,-13.34775705149959L2.9967581703553763,-4.1246837657014135L12.69447132175327,-4.124683765701414L4.848856575698947,1.5754890056530315L7.845614746054325,10.798562291451207L8.881784197001252e-16,5.098389520096762L-7.845614746054323,10.798562291451208L-4.848856575698946,1.5754890056530328L-12.694471321753271,-4.124683765701411L-2.9967581703553776,-4.124683765701413Z" transform="translate(459.8701298701294,246.22907677461626)rotate(0.635400120835321)" fill="white" class="commune"><title>58079 Population : 3823</title></path><path d="M0,-15.873247654971056L3.5637661381291506,-4.905103281308338L15.096355617026989,-4.905103281308339L5.766294739448918,1.873582735131148L9.330060877578072,12.841727108793865L8.881784197001252e-16,6.063041092354379L-9.330060877578068,12.841727108793867L-5.766294739448918,1.8735827351311491L-15.09635561702699,-4.905103281308335L-3.563766138129152,-4.905103281308337Z" transform="translate(88.98989898989839,302.21363225027744)rotate(18.96930565698244)" fill="white" class="commune"><title>58086 Population : 10102</title></path><path d="M0,-18.876579049491834L4.238056047668955,-5.833183721955068L17.952693510379785,-5.833183721955069L6.857318731355415,2.2280779191642193L11.095374779024372,15.271473246700983L8.881784197001252e-16,7.210211605581696L-11.095374779024368,15.271473246700985L-6.857318731355414,2.2280779191642206L-17.952693510379788,-5.833183721955065L-4.238056047668956,-5.833183721955068Z" transform="translate(228.722943722943,701.0069126276503)rotate(11.026868980350368)" fill="white" class="commune"><title>58194 Population : 33235</title></path></g><text class="text" y="40" x="427.5" text-anchor="middle" font-size="36" font-family="Helvetica" fill="#6baed6">58 - NIEVRE</text><line x1="713.3920153920152" y1="604.5316780313568" x2="477.97883597883555" y2="271.8221197215263" stroke="yellow" opacity="0.35" stroke-width="2"/><line x1="435.14478114478067" y1="249.96138047299368" x2="113.71524771524713" y2="298.48132855190005" stroke="yellow" opacity="0.35" stroke-width="2"/><line x1="98.3054353054347" y1="328.7998509421023" x2="219.40740740740668" y2="674.4206939358254" stroke="yellow" opacity="0.35" stroke-width="2"/><line x1="262.24146224146153" y1="696.2814331843581" x2="697.9822029822027" y2="634.8502004215591" stroke="yellow" opacity="0.35" stroke-width="2"/></svg>