<svg viewBox="0,0,954,1144.8" width="954" height="1144.8" style="width: 100%; height: auto;" xmlns="http://www.w3.org/2000/svg" xmlns:xlink="http://www.w3.org/1999/xlink"><rect width="954" height="1144.8" fill="black"/><g stroke="#000" stroke-opacity="0.2"><path d="M0,-13.34775705149959L2.9967581703553763,-4.1246837657014135L12.69447132175327,-4.124683765701414L4.848856575698947,1.5754890056530315L7.845614746054325,10.798562291451207L8.881784197001252e-16,5.098389520096762L-7.845614746054323,10.798562291451208L-4.848856575698946,1.5754890056530328L-12.694471321753271,-4.124683765701411L-2.9967581703553776,-4.124683765701413Z" transform="translate(297.1428318896951,337.8666919774223)rotate(26.7705855213276)" fill="white" class="commune"><title>insee_com : 54099 
Population : 8228
 Nom : VAL DE BRIEY</title></path><path d="M0,-15.873247654971056L3.5637661381291506,-4.905103281308338L15.096355617026989,-4.905103281308339L5.766294739448918,1.873582735131148L9.330060877578072,12.841727108793865L8.881784197001252e-16,6.063041092354379L-9.330060877578068,12.841727108793867L-5.766294739448918,1.8735827351311491L-15.09635561702699,-4.905103281308335L-3.563766138129152,-4.905103281308337Z" transform="translate(274.45094573095366,801.9440921411078)rotate(26.122244443434823)" fill="white" class="commune"><title>insee_com : 54528 
Population : 15832
 Nom : TOUL</title></path><path d="M0,-15.873247654971056L3.5637661381291506,-4.905103281308338L15.096355617026989,-4.905103281308339L5.766294739448918,1.873582735131148L9.330060877578072,12.841727108793865L8.881784197001252e-16,6.063041092354379L-9.330060877578068,12.841727108793867L-5.766294739448918,1.8735827351311491L-15.09635561702699,-4.905103281308335L-3.563766138129152,-4.905103281308337Z" transform="translate(592.9896293677457,869.5696045456352)rotate(21.248958922095873)" fill="white" class="commune"><title>insee_com : 54329 
Population : 18287
 Nom : LUNEVILLE</title></path><path d="M0,-26.69551410299918L5.993516340710753,-8.249367531402827L25.38894264350654,-8.249367531402829L9.697713151397894,3.150978011306063L15.69122949210865,21.597124582902413L1.7763568394002505e-15,10.196779040193524L-15.691229492108645,21.597124582902417L-9.697713151397892,3.1509780113060657L-25.388942643506542,-8.249367531402822L-5.993516340710755,-8.249367531402825Z" transform="translate(428.55335572447166,788.3893408310105)rotate(26.335737654717118)" fill="white" class="commune"><title>insee_com : 54395 
Population : 104286
 Nom : NANCY</title></path></g><text class="text" y="40" x="427" text-anchor="middle" font-size="36" font-family="Helvetica" fill="#6baed6">54  - MEURTHE ET MOSELLE</text><line x1="316.8659517215652" y1="373.3135528153032" x2="573.2665095358757" y2="834.1227437077544" stroke="yellow" opacity="0.35" stroke-width="2"/><line x1="582.0272111248607" y1="864.1575869646603" x2="439.5157739673566" y2="793.8013584119855" stroke="yellow" opacity="0.35" stroke-width="2"/><line x1="418.2798617249038" y1="789.2929909183503" x2="284.7244397305215" y2="801.0404420537681" stroke="yellow" opacity="0.35" stroke-width="2"/><line x1="275.96373814153645" y1="771.0055987968622" x2="295.6300394791123" y2="368.80518532166803" stroke="yellow" opacity="0.35" stroke-width="2"/></svg>