<svg viewBox="0,0,955,1146" width="955" height="1146" style="width: 100%; height: auto;" xmlns="http://www.w3.org/2000/svg" xmlns:xlink="http://www.w3.org/1999/xlink"><rect width="955" height="1146" fill="black"/><g stroke="#000" stroke-opacity="0.2"><path d="M0,-15.873247654971056L3.5637661381291506,-4.905103281308338L15.096355617026989,-4.905103281308339L5.766294739448918,1.873582735131148L9.330060877578072,12.841727108793865L8.881784197001252e-16,6.063041092354379L-9.330060877578068,12.841727108793867L-5.766294739448918,1.8735827351311491L-15.09635561702699,-4.905103281308335L-3.563766138129152,-4.905103281308337Z" transform="translate(132.2301488833748,548.9261199884459)rotate(26.977054982739503)" fill="white" class="commune"><title>12300 Population : 11894</title></path><path d="M0,-18.876579049491834L4.238056047668955,-5.833183721955068L17.952693510379785,-5.833183721955069L6.857318731355415,2.2280779191642193L11.095374779024372,15.271473246700983L8.881784197001252e-16,7.210211605581696L-11.095374779024368,15.271473246700985L-6.857318731355414,2.2280779191642206L-17.952693510379788,-5.833183721955065L-4.238056047668956,-5.833183721955068Z" transform="translate(741.9261786600496,747.1305557814958)rotate(29.19299118365862)" fill="white" class="commune"><title>12145 Population : 22200</title></path><path d="M0,-18.876579049491834L4.238056047668955,-5.833183721955068L17.952693510379785,-5.833183721955069L6.857318731355415,2.2280779191642193L11.095374779024372,15.271473246700983L8.881784197001252e-16,7.210211605581696L-11.095374779024368,15.271473246700985L-6.857318731355414,2.2280779191642206L-17.952693510379788,-5.833183721955065L-4.238056047668956,-5.833183721955068Z" transform="translate(433.14826302729534,541.8596428454694)rotate(22.596671204418616)" fill="white" class="commune"><title>12202 Population : 23739</title></path></g><text class="text" y="40" x="427.5" text-anchor="middle" font-size="36" font-family="Helvetica" fill="#6baed6">12 - AVEYRON</text><line x1="721.3409842845326" y1="733.4458282524273" x2="453.7334574028123" y2="555.5443703745378" stroke="yellow" opacity="0.35" stroke-width="2"/><line x1="413.08705541770064" y1="542.3307413216678" x2="152.2913564929695" y2="548.4550215122474" stroke="yellow" opacity="0.35" stroke-width="2"/><line x1="172.87655086848645" y1="562.1397490413159" x2="701.2797766749379" y2="733.9169267286258" stroke="yellow" opacity="0.35" stroke-width="2"/></svg>