<svg viewBox="0,0,954,1144.8" width="954" height="1144.8" style="width: 100%; height: auto;" xmlns="http://www.w3.org/2000/svg" xmlns:xlink="http://www.w3.org/1999/xlink"><rect width="954" height="1144.8" fill="black"/><g stroke="#000" stroke-opacity="0.2"><path d="M0,-13.34775705149959L2.9967581703553763,-4.1246837657014135L12.69447132175327,-4.124683765701414L4.848856575698947,1.5754890056530315L7.845614746054325,10.798562291451207L8.881784197001252e-16,5.098389520096762L-7.845614746054323,10.798562291451208L-4.848856575698946,1.5754890056530328L-12.694471321753271,-4.124683765701411L-2.9967581703553776,-4.124683765701413Z" transform="translate(416.6047733877449,357.4036770307648)rotate(26.235840208847186)" fill="white" class="commune"><title>insee_com : 38509 
Population : 8080
 Nom : TOUR DU PIN</title></path><path d="M0,-18.876579049491834L4.238056047668955,-5.833183721955068L17.952693510379785,-5.833183721955069L6.857318731355415,2.2280779191642193L11.095374779024372,15.271473246700983L8.881784197001252e-16,7.210211605581696L-11.095374779024368,15.271473246700985L-6.857318731355414,2.2280779191642206L-17.952693510379788,-5.833183721955065L-4.238056047668956,-5.833183721955068Z" transform="translate(99.45297718419624,386.61423744630156)rotate(7.73068468212598)" fill="white" class="commune"><title>insee_com : 38544 
Population : 29306
 Nom : VIENNE</title></path><path d="M0,-26.69551410299918L5.993516340710753,-8.249367531402827L25.38894264350654,-8.249367531402829L9.697713151397894,3.150978011306063L15.69122949210865,21.597124582902413L1.7763568394002505e-15,10.196779040193524L-15.691229492108645,21.597124582902417L-9.697713151397892,3.1509780113060657L-25.388942643506542,-8.249367531402822L-5.993516340710755,-8.249367531402825Z" transform="translate(580.8261299697028,656.8280325600826)rotate(7.763086562544567)" fill="white" class="commune"><title>insee_com : 38185 
Population : 158454
 Nom : GRENOBLE</title></path></g><text class="text" y="40" x="427" text-anchor="middle" font-size="36" font-family="Helvetica" fill="#6baed6">38  - ISERE</text><line x1="569.8780395309057" y1="636.8664088581281" x2="427.5528638265421" y2="377.36530073271933" stroke="yellow" opacity="0.35" stroke-width="2"/><line x1="395.46132030750834" y1="359.3510477251339" x2="120.59643026443283" y2="384.66686675193245" stroke="yellow" opacity="0.35" stroke-width="2"/><line x1="131.54452070323" y1="404.62849045388697" x2="548.7345864506691" y2="638.8137795524973" stroke="yellow" opacity="0.35" stroke-width="2"/></svg>