<svg viewBox="0,0,954,1144.8" width="954" height="1144.8" style="width: 100%; height: auto;" xmlns="http://www.w3.org/2000/svg" xmlns:xlink="http://www.w3.org/1999/xlink"><rect width="954" height="1144.8" fill="black"/><g stroke="#000" stroke-opacity="0.2"><path d="M0,-13.34775705149959L2.9967581703553763,-4.1246837657014135L12.69447132175327,-4.124683765701414L4.848856575698947,1.5754890056530315L7.845614746054325,10.798562291451207L8.881784197001252e-16,5.098389520096762L-7.845614746054323,10.798562291451208L-4.848856575698946,1.5754890056530328L-12.694471321753271,-4.124683765701411L-2.9967581703553776,-4.124683765701413Z" transform="translate(194.34452394056234,428.9407899953949)rotate(15.505292700328908)" fill="white" class="commune"><title>insee_com : 21425 
Population : 5160
 Nom : MONTBARD</title></path><path d="M0,-18.876579049491834L4.238056047668955,-5.833183721955068L17.952693510379785,-5.833183721955069L6.857318731355415,2.2280779191642193L11.095374779024372,15.271473246700983L8.881784197001252e-16,7.210211605581696L-11.095374779024368,15.271473246700985L-6.857318731355414,2.2280779191642206L-17.952693510379788,-5.833183721955065L-4.238056047668956,-5.833183721955068Z" transform="translate(506.6648321408916,977.8794970522431)rotate(29.83032114611324)" fill="white" class="commune"><title>insee_com : 21054 
Population : 21031
 Nom : BEAUNE</title></path><path d="M0,-26.69551410299918L5.993516340710753,-8.249367531402827L25.38894264350654,-8.249367531402829L9.697713151397894,3.150978011306063L15.69122949210865,21.597124582902413L1.7763568394002505e-15,10.196779040193524L-15.691229492108645,21.597124582902417L-9.697713151397892,3.1509780113060657L-25.388942643506542,-8.249367531402822L-5.993516340710755,-8.249367531402825Z" transform="translate(632.6626307099618,707.2607979893146)rotate(12.806264703618446)" fill="white" class="commune"><title>insee_com : 21231 
Population : 156920
 Nom : DIJON</title></path></g><text class="text" y="40" x="427" text-anchor="middle" font-size="36" font-family="Helvetica" fill="#6baed6">21  - COTE D OR</text><line x1="515.0646853788296" y1="959.8382504480479" x2="624.2627774720238" y2="725.3020445935098" stroke="yellow" opacity="0.35" stroke-width="2"/><line x1="603.4414235920019" y1="688.70613078972" x2="223.56573105852232" y2="447.4954571949895" stroke="yellow" opacity="0.35" stroke-width="2"/><line x1="215.16587782058429" y1="465.53670379918475" x2="485.84347826086963" y2="941.2835832484532" stroke="yellow" opacity="0.35" stroke-width="2"/></svg>