<svg viewBox="0,0,600,600" width="600" height="600" style="width: 100%; height: auto;" xmlns="http://www.w3.org/2000/svg" xmlns:xlink="http://www.w3.org/1999/xlink"><rect width="752" height="902.4" fill="black"/><path d="M289.8148148148149,148.07168399086368L289.8148148148149,147.51264167086993L290.2222222222223,146.39452952518332L291.85185185185196,144.15819519797515L293.4814814814815,143.0399730088975L295.9259259259261,143.59908868927596L296.7407407407409,144.71729253543162L299.18518518518533,145.27638070214743L301.2222222222223,145.83545969858096L301.2222222222223,145.83545969858096L301.6296296296297,145.83545969858096L302.85185185185185,145.83545969858096L303.25925925925924,145.27638070214743L303.25925925925924,145.27638070214743L302.44444444444446,144.71729253543162L302.03703703703707,144.71729253543162L301.6296296296297,144.71729253543162L301.2222222222223,144.15819519797515L301.2222222222223,144.15819519797515L301.2222222222223,143.59908868927596L301.2222222222223,143.59908868927596L300.8148148148148,143.59908868927596L300.8148148148148,143.0399730088975L301.2222222222223,141.92171413114193L301.2222222222223,139.6850862945248L301.2222222222223,139.1259063990583L300,138.56671732812902L297.96296296296305,138.00751908124948L297.14814814814827,137.4483116579795L296.7407407407409,136.88909505780612L296.7407407407409,136.88909505780612L296.7407407407409,136.32986928029277L297.14814814814827,136.32986928029277L297.55555555555566,135.77063432494106L298.7777777777778,134.65213687889263L299.5925925925927,132.97432186432707L299.5925925925927,132.4150318321117L299.5925925925927,131.85573261878017L299.5925925925927,131.85573261878017L300.4074074074075,130.73710664686223L301.2222222222223,130.17777988731177L301.6296296296297,130.17777988731177L301.2222222222223,129.05909881870684L300.4074074074075,128.49974450869922L299.5925925925927,127.94038101425758L299.18518518518533,127.38100833492717L298.7777777777778,127.38100833492717L298.7777777777778,126.8216264702096L297.55555555555566,126.8216264702096L295.9259259259261,126.26223541964646L295.5185185185186,124.58400714817617L295.9259259259261,123.46514236262738L296.7407407407409,122.34624082235314L296.7407407407409,122.34624082235314L295.1111111111112,118.98931563546648L294.7037037037038,118.42979593346172L295.5185185185186,117.87026703853917L297.14814814814827,116.19162519142628L297.14814814814827,113.95330733224546L297.14814814814827,110.59555463263314L297.55555555555566,107.23747074923085L297.96296296296305,105.55830458168566L297.96296296296305,105.55830458168566L297.96296296296305,105.55830458168566L298.37037037037055,106.11803584071458L300.8148148148148,108.91655409528903L301.2222222222223,108.91655409528903L302.03703703703707,109.47623014139754L302.85185185185185,108.91655409528903L303.25925925925924,108.35686884821189L303.25925925925924,107.79717439968226L303.25925925925924,107.23747074923085L303.25925925925924,106.11803584071458L304.4814814814815,105.55830458168566L304.8888888888889,105.55830458168566L306.1111111111112,106.67775789641382L306.9259259259261,107.79717439968226L306.9259259259261,107.79717439968226L306.9259259259261,107.79717439968226L306.9259259259261,108.35686884821189L305.7037037037038,110.0358969870249L306.1111111111112,110.59555463263314L306.5185185185186,110.59555463263314L306.5185185185186,111.15520307867337L306.5185185185186,111.7148423256549L306.1111111111112,112.83409322425723L306.1111111111112,114.51290059092207L306.5185185185186,117.87026703853917L306.9259259259261,118.42979593346172L307.33333333333337,118.98931563546648L307.33333333333337,118.98931563546648L308.14814814814815,118.42979593346172L309.7777777777778,117.31072895019679L309.7777777777778,117.31072895019679L310.18518518518533,116.75118166797984L312.6296296296297,115.63205952003773L316.2962962962964,113.95330733224546L316.2962962962964,114.51290059092207L316.7037037037038,115.07248465335942L316.7037037037038,115.63205952003773L316.7037037037038,115.63205952003773L317.925925925926,115.07248465335942L317.5185185185186,115.07248465335942L318.3333333333335,114.51290059092207L322.8148148148149,122.34624082235314L326.07407407407413,127.94038101425758L326.8888888888889,127.38100833492717L327.7037037037038,125.7028351827721L329.3333333333335,123.46514236262738L329.3333333333335,122.90569618707013L329.7407407407409,121.78677626802892L329.7407407407409,120.6678195886052L329.3333333333335,120.10832746255983L328.925925925926,120.10832746255983L328.925925925926,119.54882614499729L328.5185185185186,119.54882614499729L328.1111111111112,119.54882614499729L327.2962962962963,119.54882614499729L327.2962962962963,118.98931563546648L327.2962962962963,118.42979593346172L327.2962962962963,117.87026703853917L327.2962962962963,117.31072895019679L327.7037037037038,116.19162519142628L328.1111111111112,115.63205952003773L328.5185185185186,115.07248465335942L328.925925925926,116.19162519142628L329.7407407407409,116.75118166797984L330.96296296296305,116.75118166797984L331.37037037037055,116.19162519142628L331.7777777777778,115.63205952003773L331.7777777777778,115.63205952003773L333.4074074074075,118.98931563546648L334.6296296296298,119.54882614499729L335.85185185185185,119.54882614499729L338.2962962962963,120.10832746255983L339.925925925926,120.10832746255983L341.14814814814827,120.6678195886052L341.14814814814827,120.6678195886052L341.55555555555566,121.22730252359543L341.96296296296305,122.34624082235314L342.37037037037044,122.90569618707013L343.18518518518533,124.0245793494978L346.44444444444446,124.58400714817617L347.66666666666674,124.58400714817617L350.925925925926,125.14342575909541L352.14814814814827,125.7028351827721L355.4074074074075,126.8216264702096L355,130.17777988731177L354.5925925925927,133.53360271586644L354.5925925925927,136.88909505780612L354.5925925925927,136.88909505780612L355,136.88909505780612L357.0370370370372,136.88909505780612L357.85185185185196,136.88909505780612L358.25925925925924,136.88909505780612L360.7037037037037,134.65213687889263L362.33333333333337,133.53360271586644L362.7407407407409,132.97432186432707L362.7407407407409,132.97432186432707L363.14814814814827,131.85573261878017L363.14814814814827,131.85573261878017L363.14814814814827,129.61844394474974L362.33333333333337,128.49974450869922L361.1111111111112,127.38100833492717L360.7037037037037,125.14342575909541L360.7037037037037,124.58400714817617L361.1111111111112,124.0245793494978L361.1111111111112,123.46514236262738L363.55555555555566,120.6678195886052L365.5925925925926,118.42979593346172L366.0000000000001,117.87026703853917L367.2222222222223,116.19162519142628L368.03703703703707,115.07248465335942L370.07407407407413,113.39370487684573L370.07407407407413,113.39370487684573L370.4814814814815,112.27447237402885L370.4814814814815,112.27447237402885L370.4814814814815,112.27447237402885L370.8888888888889,112.27447237402885L372.5185185185186,113.39370487684573L373.33333333333337,113.95330733224546L374.14814814814827,114.51290059092207L375.37037037037044,115.63205952003773L376.1851851851852,116.19162519142628L376.5925925925927,116.75118166797984L377.4074074074075,117.31072895019679L378.6296296296297,118.98931563546648L379.0370370370372,120.10832746255983L380.25925925925935,121.78677626802892L381.48148148148164,123.46514236262738L381.8888888888889,125.14342575909541L381.8888888888889,127.94038101425758L381.07407407407413,130.17777988731177L380.66666666666674,130.17777988731177L380.25925925925935,131.29642422385587L380.25925925925935,130.73710664686223L381.48148148148164,133.53360271586644L383.5185185185186,136.32986928029277L385.96296296296305,139.1259063990583L388.4074074074075,141.36257093283348L390.03703703703707,143.59908868927596L390.85185185185196,144.15819519797515L390.03703703703707,144.15819519797515L389.6296296296298,144.71729253543162L389.6296296296298,144.71729253543162L389.6296296296298,146.95359018246018L389.6296296296298,147.51264167086993L390.03703703703707,148.07168399086368L390.85185185185196,149.1897411275495L390.85185185185196,150.30776159629022L391.25925925925935,150.86675808136715L390.03703703703707,152.54369254502308L388.0000000000001,153.661603032524L385.96296296296305,156.4562189031858L385.14814814814827,159.80945564455033L385.14814814814827,162.04476363830327L385.14814814814827,163.16236269632282L385.14814814814827,163.16236269632282L385.55555555555566,163.72114849227L385.55555555555566,164.27992513346544L385.96296296296305,164.27992513346544L385.55555555555566,164.8386926203675L386.77777777777794,165.3974509534637L387.18518518518533,165.3974509534637L388.4074074074075,165.3974509534637L389.6296296296298,164.8386926203675L391.66666666666674,164.8386926203675L394.925925925926,165.3974509534637L395.3333333333335,165.3974509534637L396.55555555555566,165.95620013321604L397.7777777777778,166.5149401601011L398.5925925925927,167.07367103457727L399.0000000000001,167.07367103457727L399.0000000000001,169.86718813743573L400.6296296296298,171.5431886004044L403.4814814814815,173.21910672981176L404.2962962962963,174.89494253836529L405.925925925926,175.45353618322406L405.925925925926,176.0121206831791L407.14814814814815,176.57069603873606L410.8148148148149,178.2463672435988L412.85185185185196,179.36343566670257L413.66666666666674,179.92195616561366L413.66666666666674,179.92195616561366L414.07407407407413,179.92195616561366L414.48148148148164,181.59746281749176L414.8888888888889,182.15594675471948L417.74074074074076,181.03896974055897L418.14814814814827,180.48046752341543L418.96296296296305,180.48046752341543L422.2222222222223,181.59746281749176L425.07407407407413,183.2728872118787L425.48148148148164,183.2728872118787L427.5185185185187,184.38979111578374L429.14814814814827,185.50665847019627L429.96296296296305,186.0650784425161L430.37037037037044,186.0650784425161L430.7777777777778,186.0650784425161L431.1851851851852,186.62348927887433L431.5925925925927,187.18189097971845L431.5925925925927,187.74028354554684L432.0000000000001,187.74028354554684L432.4074074074075,188.29866697679608L432.4074074074075,188.29866697679608L432.8148148148149,188.29866697679608L433.2222222222223,187.74028354554684L433.6296296296298,187.74028354554684L434.44444444444457,187.18189097971845L435.25925925925935,187.74028354554684L437.2962962962964,187.74028354554684L440.96296296296305,187.74028354554684L441.37037037037055,187.74028354554684L442.5925925925926,187.74028354554684L443.0000000000001,187.18189097971845L443.0000000000001,186.62348927887433L443.0000000000001,186.62348927887433L443.0000000000001,186.0650784425161L441.7777777777778,184.38979111578374L440.96296296296305,182.71442155269688L440.14814814814827,181.59746281749176L441.37037037037055,181.03896974055897L442.5925925925926,179.92195616561366L443.0000000000001,179.36343566670257L443.4074074074075,179.92195616561366L443.8148148148149,181.03896974055897L444.2222222222223,183.2728872118787L444.6296296296298,186.62348927887433L445.85185185185185,187.74028354554684L447.48148148148164,188.85704127397184L449.5185185185187,189.41540643752887L452.37037037037044,189.41540643752887L452.7777777777778,189.41540643752887L453.18518518518533,189.41540643752887L453.18518518518533,189.41540643752887L453.5925925925926,188.29866697679608L454.4074074074075,187.18189097971845L454.8148148148149,186.62348927887433L454.8148148148149,186.62348927887433L454.8148148148149,187.18189097971845L454.4074074074075,187.74028354554684L454.4074074074075,188.85704127397184L454.8148148148149,190.53210936562755L455.2222222222223,192.76540563898743L454.8148148148149,194.9985558268927L454.4074074074075,195.55682055155194L454.4074074074075,196.11507614818765L454.4074074074075,196.11507614818765L454.4074074074075,196.67332261728734L454.8148148148149,197.23155995934576L455.2222222222223,198.34800726414323L457.66666666666663,198.90621722782817L458.07407407407413,200.02260978009144L458.48148148148164,201.69713017779577L458.8888888888889,203.37156846988728L459.7037037037037,204.4878150566219L460.5185185185187,204.4878150566219L460.925925925926,203.9296963237357L462.14814814814827,201.1389658353619L462.96296296296305,198.90621722782817L463.37037037037044,198.90621722782817L463.37037037037044,196.67332261728734L463.7777777777778,196.11507614818765L464.1851851851852,196.11507614818765L465,195.55682055155194L465.4074074074075,195.55682055155194L467.85185185185196,194.9985558268927L469.48148148148164,194.9985558268927L469.8888888888889,194.9985558268927L469.8888888888889,194.9985558268927L471.5185185185185,196.11507614818765L473.14814814814827,196.67332261728734L473.96296296296305,197.23155995934576L473.96296296296305,197.23155995934576L473.96296296296305,199.4644180663272L473.96296296296305,200.02260978009144L475.5925925925926,200.02260978009144L477.2222222222223,200.02260978009144L478.44444444444457,200.02260978009144L481.2962962962964,201.1389658353619L482.1111111111112,202.25528539738298L482.925925925926,203.37156846988728L483.74074074074076,206.16211653412756L483.3333333333335,206.72019878779247L483.3333333333335,207.27827192284167L482.925925925926,207.27827192284167L482.925925925926,207.27827192284167L482.925925925926,208.9524366208534L483.3333333333335,211.74252878856714L483.3333333333335,212.30051987697516L483.3333333333335,212.85850185142408L483.74074074074076,214.53239309573473L484.55555555555554,216.2062023312974L484.55555555555554,217.32202960081486L484.96296296296305,218.43782043135434L484.96296296296305,218.99570218316512L484.96296296296305,219.55357482664476L484.96296296296305,220.111438362248L484.96296296296305,220.66929279043688L485.3703703703703,221.7849743264669L484.55555555555554,222.34280143522847L483.74074074074076,222.34280143522847L483.3333333333335,222.90061943846376L482.925925925926,222.90061943846376L482.925925925926,223.4584283366239L482.925925925926,224.01622813016365L483.74074074074076,224.01622813016365L485.3703703703703,225.1318004053137L486.18518518518533,226.80509054517825L486.5925925925926,227.92057179528638L487.0000000000001,229.03601664191956L487.8148148148149,229.5937254151031L488.2222222222224,230.15142508882127L488.2222222222224,230.70911566352152L487.4074074074075,231.82446951780003L487.0000000000001,231.82446951780003L484.14814814814827,232.38213279830597L480.48148148148164,231.82446951780003L480.07407407407413,231.82446951780003L480.07407407407413,231.82446951780003L478.85185185185185,233.4974320683723L478.85185185185185,234.05506805887853L478.85185185185185,234.61269495364468L478.85185185185185,234.61269495364468L478.85185185185185,234.61269495364468L479.25925925925935,234.61269495364468L479.66666666666674,235.17031275312547L479.66666666666674,236.28552106819188L479.66666666666674,236.28552106819188L479.66666666666674,237.95826533789295L479.66666666666674,238.51582857558242L479.25925925925935,239.0733827212498L479.25925925925935,239.63092777538986L480.07407407407413,240.74599061091794L482.1111111111112,242.41851668934396L484.96296296296305,242.97600720405535L484.96296296296305,242.97600720405535L484.55555555555554,241.86101708589194L484.55555555555554,241.30350839324456L485.3703703703703,241.30350839324456L486.5925925925926,241.30350839324456L487.4074074074075,241.30350839324456L488.2222222222224,241.86101708589194L491.48148148148164,242.97600720405535L492.2962962962964,242.97600720405535L492.2962962962964,243.5334886304845L493.1111111111112,245.20587838480424L493.5185185185187,245.20587838480424L493.5185185185187,245.7633234628156L493.1111111111112,245.7633234628156L493.1111111111112,246.87818636145312L495.14814814814827,247.99301292004384L495.14814814814827,247.99301292004384L495.14814814814827,248.55041257298217L496.37037037037055,250.22255703200062L497.5925925925926,251.89461975108134L497.5925925925926,252.45195582852102L497.18518518518533,252.45195582852102L497.18518518518533,253.5666007427899L497.5925925925926,255.23850001970277L497.5925925925926,255.7957816219896L497.18518518518533,256.9103175943819L496.7777777777778,256.9103175943819L496.37037037037055,258.0248172602478L494.740740740741,259.1392806233198L493.5185185185187,260.8109076083456L491.8888888888889,263.0396165633392L491.07407407407413,264.711053027102L491.07407407407413,264.711053027102L493.1111111111112,264.711053027102L493.5185185185187,264.711053027102L494.3333333333335,265.2681803741725L495.96296296296305,266.38240785982634L497.18518518518533,266.38240785982634L497.5925925925926,266.93950799932645L497.5925925925926,266.93950799932645L498.0000000000001,268.05368107405957L498.0000000000001,269.1678178794755L498.4074074074074,269.7248726823491L498.4074074074074,269.7248726823491L498.0000000000001,270.2819184193031L498.0000000000001,270.2819184193031L497.5925925925926,270.83895509079593L497.18518518518533,270.83895509079593L497.5925925925926,271.953001239217L498.0000000000001,271.953001239217L498.4074074074074,272.5100107170838L498.4074074074074,272.5100107170838L497.5925925925926,274.18098477091917L496.37037037037055,276.96576028922937L497.18518518518533,279.7503093102241L498.0000000000001,283.09146924073866L498.0000000000001,284.20511677434115L498.0000000000001,284.7619269601346L498.0000000000001,285.3187280925158L498.0000000000001,285.3187280925158L497.5925925925926,285.8755201719905L498.0000000000001,286.989077173992L498.8148148148149,288.6593447916275L500.44444444444457,289.7728112852201L500.85185185185196,290.3295309579589L501.25925925925935,290.3295309579589L502.888888888889,290.8862415819349L504.1111111111112,290.3295309579589L504.1111111111112,289.7728112852201L504.1111111111112,289.21608256326L505.74074074074076,289.7728112852201L505.74074074074076,289.7728112852201L505.74074074074076,289.7728112852201L505.74074074074076,290.3295309579589L505.74074074074076,290.3295309579589L505.3333333333335,290.3295309579589L504.925925925926,290.8862415819349L504.1111111111112,292.55631916601124L503.7037037037037,292.55631916601124L503.7037037037037,293.1129935996214L503.7037037037037,293.1129935996214L503.7037037037037,293.6696589867861L502.888888888889,294.2263153279928L501.66666666666674,294.7829626236671L499.2222222222223,295.3396008743257L498.8148148148149,295.3396008743257L498.4074074074074,294.7829626236671L498.4074074074074,294.7829626236671L495.55555555555577,292.55631916601124L493.5185185185187,291.4429431576391L491.48148148148164,290.8862415819349L489.44444444444457,290.8862415819349L488.6296296296297,290.8862415819349L488.2222222222224,290.8862415819349L487.4074074074075,290.3295309579589L487.0000000000001,290.3295309579589L485.7777777777778,290.8862415819349L483.74074074074076,291.99963568551175L483.74074074074076,291.99963568551175L483.74074074074076,293.1129935996214L483.74074074074076,294.2263153279928L481.7037037037039,294.2263153279928L480.888888888889,294.2263153279928L480.48148148148164,294.2263153279928L478.85185185185185,294.2263153279928L478.44444444444457,294.7829626236671L477.6296296296297,294.7829626236671L477.2222222222223,297.56606343574094L476.8148148148149,300.34893817959164L476.4074074074075,303.13158691319404L478.85185185185185,303.688089543768L482.1111111111112,304.2445831367186L491.48148148148164,307.5833549300514L494.3333333333335,308.1397852725422L495.55555555555577,308.1397852725422L495.55555555555577,309.8090220982849L495.55555555555577,310.3654163078281L495.55555555555577,312.03454474586033L495.55555555555577,312.03454474586033L496.37037037037055,313.70359190769886L498.0000000000001,314.2599229024272L498.4074074074074,317.0414424527007L498.8148148148149,319.2664956126828L499.2222222222223,319.2664956126828L500.0370370370372,322.04760901087866L499.6296296296297,322.04760901087866L499.2222222222223,322.60380462156536L497.18518518518533,323.15999121035566L498.0000000000001,327.0530447573765L498.0000000000001,327.0530447573765L498.0000000000001,328.16526460000387L497.5925925925926,328.7213609951541L496.37037037037055,331.5017077278317L495.96296296296305,334.2818290976684L495.55555555555577,336.5057639710685L495.55555555555577,337.0617251623553L495.96296296296305,337.6176773437546L497.5925925925926,340.3973031183996L498.0000000000001,340.9532012500822L496.37037037037055,341.5090903751079L494.3333333333335,342.6208416069858L490.25925925925935,344.8442360110057L487.0000000000001,346.5116872762628L487.0000000000001,346.5116872762628L482.1111111111112,348.73482960325055L479.25925925925935,349.2905926833155L477.6296296296297,349.2905926833155L474.7777777777778,349.84634676360656L469.07407407407413,350.40209184461855L458.07407407407413,350.957827926788L457.25925925925935,351.5135550105988L452.7777777777778,350.957827926788L452.7777777777778,351.5135550105988L452.37037037037044,353.1806822763756L452.37037037037044,353.73637337128457L452.37037037037044,354.2920554701341L452.37037037037044,354.84772857337884L452.37037037037044,354.84772857337884L452.37037037037044,355.4033926814591L452.37037037037044,355.4033926814591L452.7777777777778,355.95904779486955L452.7777777777778,355.95904779486955L453.18518518518533,355.95904779486955L453.18518518518533,355.95904779486955L453.18518518518533,356.5146939140359L453.18518518518533,357.6259591715425L452.7777777777778,358.18157831080316L451.96296296296305,359.84838177608617L451.55555555555554,360.40396494856395L451.14814814814827,360.95953913047924L450.74074074074076,360.95953913047924L449.5185185185187,361.5151043223268L449.1111111111112,362.62620773759045L447.88888888888914,363.73727519804015L446.66666666666686,364.8483067073503L446.25925925925935,365.4038089814858L445.85185185185185,366.5147865709878L445.85185185185185,367.0702618872929L445.85185185185185,368.18118556526315L445.85185185185185,368.18118556526315L446.25925925925935,368.73663392787785L446.25925925925935,368.73663392787785L446.25925925925935,369.292073306824L446.66666666666686,369.8475037026037L447.07407407407413,370.4029251156426L447.48148148148164,370.4029251156426L449.5185185185187,370.9583375464317L451.96296296296305,372.0691354630326L454.0000000000001,373.17989745609884L457.25925925925935,373.7352649824388L458.48148148148164,374.2906235292867L460.1111111111112,374.8459730970644L460.925925925926,375.9566452973413L461.3333333333335,376.5119679307536L462.14814814814827,378.1778819695355L462.14814814814827,378.1778819695355L462.14814814814827,378.7331686968573L462.14814814814827,378.7331686968573L462.14814814814827,379.28844644879064L462.55555555555554,379.84371522583024L462.96296296296305,379.84371522583024L463.37037037037044,380.3989750284127L463.7777777777778,380.3989750284127L464.1851851851852,380.95422585698543L464.5925925925926,380.95422585698543L465,381.5094677120178L465,381.5094677120178L465.4074074074075,382.06470059399L465.4074074074075,382.06470059399L465.4074074074075,382.06470059399L465.4074074074075,382.6199245033458L465.8148148148149,383.7303454060275L466.2222222222223,384.285542400281L467.0370370370372,385.3959094768943L467.85185185185196,386.5062406740508L468.25925925925935,386.5062406740508L469.48148148148164,389.28191171843355L471.1111111111112,391.5022871514557L471.925925925926,392.61242107724684L474.37037037037055,394.27755473780053L473.96296296296305,394.27755473780053L472.3333333333335,395.942607735662L469.8888888888889,397.0525982610561L467.85185185185196,397.6075800831859L467.44444444444457,397.6075800831859L466.2222222222223,397.6075800831859L465.8148148148149,398.16255294552684L466.2222222222223,399.8274177785279L467.0370370370372,400.93728287674094L467.44444444444457,401.4922019900623L467.85185185185196,403.71178888233044L468.25925925925935,403.71178888233044L471.5185185185185,405.3763850252435L474.7777777777778,405.3763850252435L475.5925925925926,406.48607101963717L475.18518518518533,406.48607101963717L475.18518518518533,407.0409005879228L475.18518518518533,407.0409005879228L475.5925925925926,407.59572120423763L475.5925925925926,407.59572120423763L477.6296296296297,408.7053355827411L480.48148148148164,410.36969002205296L480.888888888889,411.47921490130466L481.7037037037039,412.5887039872614L481.7037037037039,413.6981572836012L481.7037037037039,413.6981572836012L482.1111111111112,414.25287051179475L482.5185185185187,414.807574793962L482.925925925926,415.3622701305467L483.3333333333335,415.3622701305467L483.3333333333335,415.3622701305467L484.14814814814827,415.3622701305467L486.5925925925926,415.3622701305467L488.6296296296297,415.3622701305467L491.07407407407413,415.9169565220145L493.1111111111112,415.9169565220145L495.14814814814827,415.9169565220145L498.0000000000001,416.47163396880933L498.0000000000001,416.47163396880933L498.4074074074074,416.47163396880933L499.6296296296297,416.47163396880933L500.0370370370372,416.47163396880933L502.07407407407425,415.9169565220145L502.888888888889,415.9169565220145L503.2962962962964,415.9169565220145L504.5185185185187,416.47163396880933L504.5185185185187,416.47163396880933L504.925925925926,417.58096203027526L506.55555555555554,417.0263024714186L507.3703703703703,415.9169565220145L508.5925925925926,414.807574793962L509,414.25287051179475L510.2222222222223,413.6981572836012L511.0370370370372,413.6981572836012L511.44444444444446,413.6981572836012L512.2592592592594,414.25287051179475L513.0740740740741,414.25287051179475L513.4814814814816,414.25287051179475L514.2962962962964,413.6981572836012L515.1111111111112,413.1434351089083L515.9259259259261,413.1434351089083L515.9259259259261,409.8149141587928L517.5555555555558,409.26012934585015L519.5925925925926,410.36969002205296L519.5925925925926,410.36969002205296L520.0000000000001,410.36969002205296L520.4074074074074,409.8149141587928L522.0370370370371,409.26012934585015L522.851851851852,408.7053355827411L523.2592592592594,408.15053286903276L524.0740740740742,407.0409005879228L524.8888888888889,405.9312324988896L525.2962962962964,405.3763850252435L526.1111111111112,404.82152859825146L527.7407407407409,404.82152859825146L528.1481481481483,404.82152859825146L528.5555555555555,405.3763850252435L530.5925925925928,405.9312324988896L532.2222222222224,405.9312324988896L535.4814814814815,406.48607101963717L535.888888888889,407.0409005879228L537.1111111111113,407.0409005879228L537.5185185185187,407.0409005879228L537.925925925926,407.0409005879228L537.925925925926,407.0409005879228L538.3333333333333,407.0409005879228L538.3333333333333,407.0409005879228L538.3333333333333,407.59572120423763L537.925925925926,408.7053355827411L538.3333333333333,409.8149141587928L538.7407407407409,411.47921490130466L538.7407407407409,413.1434351089083L538.7407407407409,413.1434351089083L539.1481481481483,414.25287051179475L539.5555555555555,415.3622701305467L539.962962962963,415.9169565220145L540.7777777777778,416.47163396880933L541.5925925925926,417.0263024714186L543.2222222222222,417.58096203027526L543.6296296296299,417.58096203027526L544.0370370370372,417.58096203027526L544.4444444444445,418.1356126458304L544.4444444444445,418.1356126458304L546.4814814814815,419.7995108373507L548.1111111111112,420.9087315903089L549.3333333333335,421.4633285557211L549.7407407407408,422.0179165810514L550.1481481481484,422.0179165810514L550.5555555555558,422.5724956667582L551.3703703703703,423.1270658132926L552.5925925925926,424.2361792906486L553.8148148148149,425.34525701679377L555.4444444444447,426.45429899538794L557.4814814814815,427.56330523005454L557.8888888888889,427.56330523005454L558.2962962962964,428.11779494458096L559.925925925926,429.22674757025743L560.3333333333335,429.22674757025743L560.3333333333335,429.7812104823388L560.7407407407409,430.33566446118493L560.7407407407409,430.8901095072397L560.7407407407409,431.4445456209869L560.7407407407409,432.55339105332314L560.7407407407409,432.55339105332314L560.7407407407409,432.55339105332314L561.1481481481483,432.55339105332314L561.5555555555555,433.1078003728471L561.962962962963,433.1078003728471L561.962962962963,433.66220076186073L563.1851851851851,434.2165922208478L564.4074074074074,435.3253483505214L566.4444444444445,435.3253483505214L568.4814814814815,435.3253483505214L570.1111111111113,436.4340687655276L571.7407407407409,438.09708243100613L572.962962962963,440.86859335181725L574.1851851851853,444.19411196633155L575.0000000000001,445.3025467953703L575.0000000000001,445.8567508289598L574.5925925925926,446.4109459425672L573.7777777777778,448.62763720609655L572.962962962963,449.73592932970496L571.7407407407409,450.2900620160581L571.3333333333333,451.9524065788464L570.5185185185186,454.7228025565055L570.925925925926,455.830898555414L568.4814814814815,455.830898555414L567.6666666666667,455.830898555414L566.851851851852,456.3849331869533L566.4444444444445,456.3849331869533L566.0370370370371,456.9389589071325L565.2222222222224,456.9389589071325L564.8148148148149,456.9389589071325L564.4074074074074,456.9389589071325L561.5555555555555,455.830898555414L560.3333333333335,455.2768550120927L557.4814814814815,453.61467090675796L557.0740740740742,453.06059171167726L556.6666666666666,452.5065036025371L556.2592592592594,451.9524065788464L555.851851851852,451.39830064017224L555.4444444444447,451.39830064017224L553.8148148148149,451.39830064017224L550.962962962963,453.61467090675796L548.9259259259261,454.16874118822307L547.2962962962964,455.2768550120927L544.4444444444445,455.830898555414L541.5925925925926,455.2768550120927L540.3703703703706,454.7228025565055L538.3333333333333,454.7228025565055L537.1111111111113,454.7228025565055L536.2962962962964,455.2768550120927L534.2592592592594,455.2768550120927L531.0000000000001,455.2768550120927L528.5555555555555,456.9389589071325L525.2962962962964,456.3849331869533L522.4444444444447,455.830898555414L521.2222222222224,458.04698361532064L520.8148148148149,459.15497268359104L515.5185185185185,461.9247894535911L513.8888888888889,461.9247894535911L511.85185185185185,461.9247894535911L511.0370370370372,461.370843914985L511.0370370370372,461.370843914985L510.2222222222223,460.816889469148L507.7777777777778,458.60098260420637L504.5185185185187,457.49297571644274L504.1111111111112,457.49297571644274L503.7037037037037,457.49297571644274L502.07407407407425,458.60098260420637L500.85185185185196,461.9247894535911L500.44444444444457,463.0326538108784L499.6296296296297,465.2482756585596L499.2222222222223,465.80215885918733L498.8148148148149,465.80215885918733L498.4074074074074,466.35603315620756L498.0000000000001,468.0176026302288L498.0000000000001,468.5714413173955L497.5925925925926,469.1252711032357L497.5925925925926,470.2329039727374L497.5925925925926,470.78670705732293L496.7777777777778,471.89428652839706L496.37037037037055,472.4480629157988L495.14814814814827,474.10933869097425L494.3333333333335,475.2168113897569L493.5185185185187,476.32424850505413L493.5185185185187,476.32424850505413L493.5185185185187,476.87795372001347L493.5185185185187,479.092685639338L493.925925925926,479.092685639338L493.5185185185187,479.6463463863074L492.2962962962964,481.3072752755943L491.8888888888889,481.8609004563368L491.8888888888889,481.8609004563368L490.66666666666674,482.4145167466522L489.0370370370372,482.4145167466522L486.5925925925926,481.8609004563368L486.18518518518533,481.8609004563368L485.7777777777778,481.3072752755943L485.3703703703703,480.75364120397717L484.96296296296305,480.75364120397717L484.55555555555554,480.75364120397717L483.3333333333335,481.3072752755943L482.1111111111112,482.96812414700617L480.888888888889,485.73602781515365L480.48148148148164,485.73602781515365L480.48148148148164,486.28958188523393L480.07407407407413,486.84312706853234L479.66666666666674,486.84312706853234L477.2222222222223,487.9501907765771L476.4074074074075,488.50370930223653L476.0000000000001,488.50370930223653L475.5925925925926,488.50370930223653L475.18518518518533,487.9501907765771L474.7777777777778,487.9501907765771L473.96296296296305,486.84312706853234L473.14814814814827,486.28958188523393L471.5185185185185,486.28958188523393L471.1111111111112,486.28958188523393L469.48148148148164,486.84312706853234L468.66666666666686,486.84312706853234L467.85185185185196,487.3966633655L467.0370370370372,486.84312706853234L467.0370370370372,486.84312706853234L465.4074074074075,486.28958188523393L465.4074074074075,486.28958188523393L462.96296296296305,483.5217226578534L462.55555555555554,482.96812414700617L461.3333333333335,486.28958188523393L460.5185185185187,489.6107196990815L460.5185185185187,489.6107196990815L460.5185185185187,490.16421157118384L460.1111111111112,491.8246338876197L459.7037037037037,492.9315376865816L459.2962962962964,494.03840596016016L458.8888888888889,495.1452387120007L457.66666666666663,496.25203594572304L456.85185185185185,496.80542124442945L456.03703703703707,496.80542124442945L454.8148148148149,496.80542124442945L454.4074074074075,496.80542124442945L453.5925925925926,496.80542124442945L451.96296296296305,496.80542124442945L451.55555555555554,497.35879766496146L451.55555555555554,498.4655238733503L451.55555555555554,499.57221457449486L451.96296296296305,500.12554661098693L451.96296296296305,501.23218405809894L450.3333333333335,501.23218405809894L448.7037037037039,501.78548946959563L447.07407407407413,501.78548946959563L444.2222222222223,500.67886977204034L440.96296296296305,500.67886977204034L437.2962962962964,500.12554661098693L436.07407407407413,500.12554661098693L432.4074074074075,501.23218405809894L432.0000000000001,501.78548946959563L432.0000000000001,501.78548946959563L431.5925925925927,501.78548946959563L429.55555555555554,502.8920736708096L426.7037037037039,503.99862237930574L424.25925925925935,505.10513559868195L423.03703703703707,505.65837890109833L421.4074074074075,506.7648388935995L420.5925925925927,506.7648388935995L420.18518518518533,507.31805558464475L416.5185185185186,506.2116133325835L416.1111111111112,506.2116133325835L416.1111111111112,505.65837890109833L416.1111111111112,505.65837890109833L414.8888888888889,502.33878600702883L414.07407407407413,500.67886977204034L412.85185185185196,501.23218405809894L412.44444444444446,501.23218405809894L411.6296296296297,501.78548946959563L411.2222222222224,501.78548946959563L410.4074074074075,501.78548946959563L409.5925925925927,502.33878600702883L408.7777777777778,502.33878600702883L406.74074074074076,501.78548946959563L403.07407407407413,500.67886977204034L401.85185185185185,500.67886977204034L399.8148148148149,499.01887366209485L397.37037037037044,497.91216520778835L394.925925925926,497.91216520778835L394.5185185185186,497.91216520778835L394.1111111111112,497.91216520778835L393.7037037037038,497.91216520778835L392.888888888889,497.91216520778835L392.4814814814815,497.91216520778835L392.07407407407425,497.35879766496146L391.66666666666674,496.80542124442945L391.66666666666674,496.80542124442945L391.66666666666674,496.25203594572304L391.66666666666674,494.59182677607896L391.66666666666674,491.8246338876197L392.07407407407425,490.7176945596657L394.1111111111112,488.50370930223653L394.925925925926,486.84312706853234L395.74074074074076,485.1824648578222L396.14814814814827,485.1824648578222L396.55555555555566,484.62889301278847L396.55555555555566,484.62889301278847L396.55555555555566,484.62889301278847L396.55555555555566,484.62889301278847L396.55555555555566,484.07531227961954L396.14814814814827,484.07531227961954L395.74074074074076,482.96812414700617L395.74074074074076,482.96812414700617L395.74074074074076,482.96812414700617L395.3333333333335,482.4145167466522L394.925925925926,482.96812414700617L394.5185185185186,482.96812414700617L392.888888888889,482.96812414700617L389.2222222222223,482.96812414700617L388.4074074074075,482.96812414700617L387.5925925925927,482.96812414700617L386.77777777777794,482.96812414700617L386.37037037037044,482.96812414700617L384.74074074074076,481.8609004563368L383.5185185185186,480.75364120397717L381.07407407407413,479.092685639338L379.44444444444446,479.092685639338L376.1851851851852,477.9853374668746L374.96296296296305,477.9853374668746L372.5185185185186,477.9853374668746L369.25925925925935,479.6463463863074L366.8148148148149,480.199998241038L365.18518518518533,480.199998241038L363.96296296296305,479.6463463863074L363.14814814814827,479.092685639338L362.7407407407409,477.9853374668746L362.7407407407409,477.4316500404784L362.33333333333337,476.87795372001347L362.33333333333337,476.87795372001347L361.925925925926,476.87795372001347L361.1111111111112,476.32424850505413L360.2962962962963,476.32424850505413L358.66666666666674,475.7705343951093L357.44444444444446,475.7705343951093L355.8148148148149,474.663079488535L354.5925925925927,475.2168113897569L353.77777777777794,475.2168113897569L352.55555555555566,475.7705343951093L350.5185185185186,476.32424850505413L348.48148148148164,476.87795372001347L347.25925925925935,476.87795372001347L346.0370370370372,476.32424850505413L344.4074074074075,475.7705343951093L343.5925925925927,476.32424850505413L342.37037037037044,476.87795372001347L340.7407407407409,476.32424850505413L339.5185185185186,475.7705343951093L338.7037037037038,474.10933869097425L338.2962962962963,473.555588996649L337.888888888889,473.0018304050718L337.4814814814815,473.0018304050718L336.66666666666674,473.0018304050718L336.25925925925935,473.0018304050718L335.44444444444457,472.4480629157988L334.6296296296298,473.0018304050718L333.8148148148149,471.89428652839706L332.5925925925926,471.3405012423791L332.18518518518533,469.6790919881896L330.55555555555566,466.35603315620756L330.14814814814827,464.6943835538623L330.14814814814827,464.6943835538623L329.3333333333335,464.6943835538623L326.8888888888889,463.0326538108784L325.25925925925924,462.47872608539546L323.6296296296297,461.9247894535911L321.5925925925927,461.370843914985L321.1851851851852,461.370843914985L321.1851851851852,461.370843914985L320.37037037037044,460.816889469148L319.96296296296305,460.816889469148L319.14814814814827,460.816889469148L318.74074074074076,460.816889469148L317.5185185185186,461.370843914985L315.8888888888889,461.9247894535911L314.66666666666674,463.0326538108784L312.6296296296297,463.5865726304801L311.4074074074074,463.5865726304801L308.96296296296305,464.1404825446516L308.55555555555566,464.1404825446516L308.55555555555566,464.1404825446516L308.55555555555566,464.6943835538623L308.55555555555566,465.2482756585596L308.14814814814815,465.2482756585596L307.7407407407409,465.80215885918733L307.33333333333337,465.80215885918733L306.9259259259261,465.80215885918733L303.66666666666674,465.80215885918733L301.6296296296297,466.35603315620756L301.2222222222223,466.35603315620756L300,466.35603315620756L299.5925925925927,466.35603315620756L299.5925925925927,465.80215885918733L297.55555555555566,463.0326538108784L297.55555555555566,462.47872608539546L297.14814814814827,461.9247894535911L297.14814814814827,461.9247894535911L295.9259259259261,461.9247894535911L293.4814814814815,462.47872608539546L291.44444444444446,463.0326538108784L291.0370370370372,464.6943835538623L290.6296296296297,465.80215885918733L290.6296296296297,467.4637550412881L290.6296296296297,467.4637550412881L290.2222222222223,468.5714413173955L289.8148148148149,469.1252711032357L289.4074074074075,469.6790919881896L288.5925925925927,470.2329039727374L287.77777777777794,471.3405012423791L287.37037037037044,471.3405012423791L286.96296296296305,473.0018304050718L286.96296296296305,474.663079488535L287.77777777777794,476.32424850505413L289,480.199998241038L289.8148148148149,482.4145167466522L289.8148148148149,483.5217226578534L289,484.62889301278847L288.1851851851852,486.28958188523393L287.37037037037044,486.84312706853234L285.7407407407409,487.9501907765771L282.4814814814815,489.6107196990815L282.07407407407413,490.16421157118384L281.66666666666674,490.16421157118384L281.66666666666674,490.16421157118384L280.03703703703707,489.6107196990815L279.2222222222223,489.6107196990815L277.5925925925926,489.05721894292583L276.37037037037044,489.05721894292583L274.7407407407409,489.6107196990815L273.5185185185186,489.05721894292583L272.7037037037038,487.9501907765771L272.2962962962964,486.84312706853234L271.48148148148164,485.1824648578222L271.07407407407413,482.96812414700617L270.66666666666674,481.3072752755943L270.25925925925935,480.199998241038L269.44444444444446,479.6463463863074L269.03703703703707,479.092685639338L268.2222222222223,478.53901599968594L268.2222222222223,478.53901599968594L267.4074074074075,477.4316500404784L267,476.32424850505413L266.5925925925927,474.663079488535L265.7777777777778,471.89428652839706L265.7777777777778,469.6790919881896L265.37037037037044,468.5714413173955L264.96296296296305,467.4637550412881L264.96296296296305,466.90989855010775L264.96296296296305,466.90989855010775L264.55555555555554,465.80215885918733L264.55555555555554,465.2482756585596L264.55555555555554,464.6943835538623L264.55555555555554,463.0326538108784L264.55555555555554,461.370843914985L264.55555555555554,460.816889469148L263.74074074074076,460.2629261155962L262.925925925926,459.70895385390395L262.1111111111112,459.70895385390395L261.7037037037038,459.70895385390395L261.2962962962963,459.70895385390395L260.4814814814815,459.15497268359104L260.07407407407413,458.60098260420637L259.66666666666674,456.9389589071325L259.66666666666674,455.830898555414L258.85185185185196,455.2768550120927L257.6296296296297,453.61467090675796L257.6296296296297,453.61467090675796L257.2222222222223,453.61467090675796L256.8148148148149,453.06059171167726L256,453.06059171167726L255.5925925925926,453.06059171167726L255.5925925925926,453.06059171167726L254.37037037037044,452.5065036025371L253.96296296296293,451.39830064017224L253.96296296296293,448.0734777679354L253.96296296296293,446.4109459425672L254.37037037037044,445.3025467953703L254.77777777777783,444.7483338413076L254.77777777777783,444.19411196633155L254.77777777777783,443.6398811700019L254.37037037037044,443.08564145184573L254.37037037037044,443.08564145184573L253.55555555555566,441.977135248213L253.14814814814815,441.42286876184517L252.74074074074088,440.86859335181725L252.33333333333337,440.86859335181725L249.48148148148164,439.2057135752948L246.62962962962968,438.09708243100613L244.18518518518533,438.09708243100613L240.9259259259261,436.4340687655276L240.1111111111112,435.87971302213555L240.1111111111112,435.87971302213555L239.7037037037038,435.3253483505214L239.29629629629642,434.7709747502413L238.88888888888903,433.66220076186073L238.88888888888903,433.1078003728471L239.29629629629642,430.33566446118493L240.5185185185186,428.11779494458096L241.33333333333337,425.34525701679377L241.33333333333337,424.79072262240516L241.33333333333337,425.34525701679377L241.33333333333337,425.34525701679377L240.9259259259261,425.34525701679377L240.5185185185186,424.79072262240516L240.1111111111112,424.79072262240516L239.29629629629642,424.79072262240516L237.66666666666674,424.79072262240516L236.03703703703707,425.34525701679377L233.59259259259272,425.89978247429826L233.18518518518522,425.34525701679377L233.18518518518522,425.34525701679377L232.77777777777783,423.6816270210984L232.37037037037044,423.1270658132926L232.37037037037044,422.5724956667582L232.37037037037044,422.5724956667582L232.37037037037044,422.5724956667582L231.55555555555554,422.0179165810514L231.14814814814827,422.0179165810514L229.5185185185186,422.5724956667582L227.48148148148152,423.1270658132926L225.44444444444457,424.79072262240516L225.44444444444457,424.79072262240516L225.03703703703718,425.34525701679377L224.62962962962968,425.34525701679377L223.0000000000001,425.34525701679377L221.77777777777783,425.89978247429826L219.33333333333337,425.89978247429826L218.1111111111112,425.34525701679377L216.48148148148164,425.34525701679377L216.07407407407413,425.34525701679377L215.66666666666674,425.34525701679377L214.85185185185196,425.34525701679377L214.85185185185196,425.34525701679377L212.4074074074075,426.45429899538794L210.77777777777783,427.56330523005454L209.96296296296305,428.11779494458096L209.55555555555554,428.11779494458096L209.14814814814827,428.11779494458096L208.74074074074076,427.56330523005454L207.5185185185186,425.34525701679377L206.2962962962963,425.89978247429826L205.48148148148152,426.45429899538794L204.66666666666674,427.0088065804812L204.25925925925935,427.0088065804812L204.25925925925935,427.0088065804812L203.85185185185185,427.56330523005454L202.6296296296298,427.56330523005454L200.18518518518528,427.56330523005454L198.5555555555556,426.45429899538794L197.74074074074082,424.79072262240516L196.5185185185186,423.1270658132926L196.5185185185186,423.1270658132926L193.66666666666674,422.5724956667582L191.22222222222229,421.4633285557211L189.59259259259267,420.35412568433094L189.18518518518528,420.35412568433094L189.18518518518528,420.35412568433094L189.18518518518528,420.35412568433094L188.77777777777789,420.9087315903089L188.3703703703705,421.4633285557211L188.3703703703705,421.4633285557211L187.1481481481482,422.5724956667582L187.1481481481482,422.5724956667582L185.1111111111112,423.6816270210984L182.66666666666674,424.79072262240516L179.40740740740756,425.34525701679377L179.00000000000006,425.34525701679377L178.18518518518528,425.89978247429826L177.77777777777789,425.89978247429826L177.37037037037038,425.89978247429826L174.5185185185186,426.45429899538794L172.48148148148152,426.45429899538794L170.4444444444445,428.11779494458096L168.00000000000006,430.33566446118493L167.59259259259267,430.8901095072397L167.59259259259267,430.8901095072397L167.18518518518528,430.8901095072397L166.3703703703705,431.4445456209869L165.55555555555566,431.4445456209869L163.92592592592598,430.8901095072397L162.70370370370375,430.33566446118493L161.48148148148152,429.22674757025743L158.62962962962968,427.0088065804812L157.8148148148149,425.34525701679377L157.40740740740745,424.79072262240516L156.59259259259267,424.2361792906486L156.59259259259267,424.2361792906486L156.18518518518522,423.6816270210984L155.37037037037038,423.6816270210984L155.37037037037038,423.6816270210984L154.1481481481482,423.1270658132926L152.92592592592592,422.0179165810514L152.11111111111114,421.4633285557211L150.48148148148152,420.35412568433094L150.07407407407413,419.7995108373507L150.07407407407413,418.69025431856426L150.07407407407413,418.1356126458304L150.48148148148152,417.58096203027526L150.48148148148152,415.9169565220145L150.07407407407413,414.807574793962L148.85185185185185,413.1434351089083L148.85185185185185,410.92445693605987L149.25925925925935,407.59572120423763L148.85185185185185,407.0409005879228L148.44444444444457,405.9312324988896L148.44444444444457,405.3763850252435L148.03703703703707,405.3763850252435L147.62962962962968,404.82152859825146L146.8148148148149,403.71178888233044L144.77777777777789,401.4922019900623L143.5555555555556,400.38235480637377L142.33333333333343,399.8274177785279L140.29629629629636,397.6075800831859L137.85185185185196,395.3875990314773L136.62962962962973,395.3875990314773L135.00000000000006,394.8325813656702L134.18518518518528,394.27755473780053L133.3703703703705,393.7225191474281L132.962962962963,393.16747459404723L131.33333333333343,392.05735859653214L130.1111111111112,390.94720674157725L130.1111111111112,390.392117366413L130.1111111111112,390.392117366413L129.70370370370375,389.8370190255264L129.70370370370375,389.28191171843355L129.70370370370375,388.72679544469065L129.70370370370375,388.72679544469065L129.29629629629642,388.1716702038502L128.48148148148152,387.0613928189923L128.07407407407413,387.0613928189923L128.07407407407413,387.0613928189923L127.66666666666674,387.0613928189923L127.2592592592593,387.0613928189923L127.2592592592593,387.0613928189923L126.44444444444446,388.72679544469065L126.44444444444446,389.28191171843355L126.03703703703718,389.8370190255264L125.62962962962968,389.8370190255264L124.00000000000006,389.8370190255264L122.77777777777789,389.8370190255264L119.11111111111114,389.8370190255264L115.85185185185185,390.392117366413L114.62962962962968,390.392117366413L113.8148148148149,389.28191171843355L113.8148148148149,388.72679544469065L113.8148148148149,388.72679544469065L113.40740740740739,388.72679544469065L113.00000000000011,388.1716702038502L112.59259259259261,388.1716702038502L111.77777777777783,387.61653599543206L110.96296296296299,387.61653599543206L109.74074074074082,387.61653599543206L109.33333333333331,388.1716702038502L107.70370370370375,388.1716702038502L106.07407407407408,387.61653599543206L104.03703703703707,387.61653599543206L100.77777777777783,387.0613928189923L98.74074074074076,385.95107956018546L98.33333333333343,385.3959094768943L97.92592592592592,385.3959094768943L97.51851851851853,385.3959094768943L96.70370370370375,385.95107956018546L95.48148148148158,386.5062406740508L95.07407407407413,387.0613928189923L94.25925925925935,387.0613928189923L93.44444444444446,387.61653599543206L92.22222222222229,387.61653599543206L89.37037037037044,387.61653599543206L88.96296296296305,387.61653599543206L88.96296296296305,387.61653599543206L88.5555555555556,387.0613928189923L87.33333333333343,385.95107956018546L86.92592592592592,384.8407304237444L86.92592592592592,384.8407304237444L87.33333333333343,384.285542400281L87.33333333333343,384.285542400281L87.33333333333343,383.7303454060275L86.92592592592592,383.7303454060275L86.92592592592592,383.7303454060275L86.51851851851853,383.17513944052916L85.70370370370375,382.06470059399L84.48148148148158,381.5094677120178L84.48148148148158,381.5094677120178L83.66666666666669,380.95422585698543L83.2592592592593,380.95422585698543L82.8518518518519,380.95422585698543L82.8518518518519,380.3989750284127L82.8518518518519,380.3989750284127L82.44444444444451,379.28844644879064L82.03703703703707,378.1778819695355L80.8148148148149,377.62258626638504L80.4074074074075,377.62258626638504L80,377.0672815869475L79.59259259259261,377.0672815869475L79.18518518518522,377.62258626638504L77.14814814814821,378.7331686968573L75.11111111111114,379.28844644879064L74.29629629629636,379.84371522583024L72.2592592592593,381.5094677120178L70.62962962962968,382.6199245033458L69.8148148148149,384.285542400281L69.00000000000011,385.3959094768943L69.00000000000011,385.95107956018546L67.77777777777783,386.5062406740508L66.14814814814821,386.5062406740508L65.74074074074082,386.5062406740508L65.33333333333343,385.95107956018546L64.92592592592604,385.95107956018546L64.11111111111114,385.3959094768943L63.29629629629636,384.285542400281L62.07407407407419,382.6199245033458L61.66666666666674,382.6199245033458L61.25925925925935,382.6199245033458L61.25925925925935,382.6199245033458L60.444444444444514,382.06470059399L60.03703703703712,382.06470059399L58.000000000000114,380.95422585698543L55.96296296296305,378.7331686968573L53.51851851851853,376.5119679307536L51.48148148148158,375.4013136862777L50.25925925925935,373.7352649824388L48.629629629629676,372.62452094977925L47.40740740740745,372.0691354630326L44.96296296296305,372.0691354630326L43.33333333333343,371.5137409954077L42.92592592592598,371.5137409954077L42.11111111111114,370.4029251156426L39.259259259259295,368.73663392787785L38.851851851851904,367.62572821856884L38.444444444444514,367.62572821856884L38.03703703703712,367.0702618872929L38.03703703703712,366.5147865709878L38.03703703703712,365.959302269217L38.03703703703712,365.959302269217L38.444444444444514,365.959302269217L38.851851851851904,362.07066052454684L39.259259259259295,361.5151043223268L38.851851851851904,359.84838177608617L38.851851851851904,359.2927896126057L38.03703703703712,358.7371884576751L37.62962962962973,358.7371884576751L37.62962962962973,358.18157831080316L37.62962962962973,358.18157831080316L36.814814814814895,354.84772857337884L36.40740740740745,353.1806822763756L35.59259259259261,352.06927309648745L34.37037037037044,349.2905926833155L34.37037037037044,346.5116872762628L34.37037037037044,344.8442360110057L33.96296296296299,343.73255681772935L32.74074074074082,343.73255681772935L30.703703703703752,342.6208416069858L29.074074074074133,340.9532012500822L28.666666666666686,340.3973031183996L28.666666666666686,338.7295546786918L29.074074074074133,338.17362051572127L29.074074074074133,338.17362051572127L29.888888888888914,335.39381455693L29.888888888888914,334.83782633317605L30.703703703703752,334.2818290976684L31.111111111111143,333.16980758958744L31.51851851851859,332.6137833160901L31.92592592592598,330.94565641218287L31.92592592592598,330.3895960815389L31.111111111111143,327.0530447573765L30.703703703703752,326.4969213089753L29.888888888888914,325.38464735571324L29.888888888888914,325.38464735571324L29.074074074074133,324.8284968499174L28.666666666666686,324.27233732406603L27.851851851851904,323.7161687777043L27.851851851851904,323.7161687777043L27.851851851851904,323.15999121035566L27.851851851851904,322.60380462156536L27.851851851851904,321.49140437782626L27.851851851851904,320.93519072193885L27.037037037037067,318.71024586085696L26.222222222222285,317.59771928134796L25.814814814814895,317.0414424527007L25.000000000000057,317.0414424527007L25.000000000000057,317.0414424527007L25.407407407407447,315.9288617154234L25.814814814814895,315.37255780581836L27.037037037037067,314.2599229024272L27.851851851851904,313.70359190769886L28.259259259259295,313.70359190769886L28.259259259259295,313.70359190769886L28.666666666666686,313.70359190769886L29.481481481481524,313.70359190769886L29.481481481481524,313.1472518836672L30.703703703703752,312.5909028298847L31.111111111111143,312.03454474586033L31.51851851851859,311.47817763116836L31.92592592592598,310.92180148530315L32.74074074074082,310.3654163078281L32.74074074074082,310.3654163078281L33.96296296296299,310.92180148530315L35.18518518518522,310.92180148530315L37.222222222222285,311.47817763116836L38.851851851851904,311.47817763116836L40.07407407407413,309.8090220982849L41.70370370370375,308.6962065811058L42.11111111111114,308.6962065811058L43.33333333333343,309.252618856186L44.55555555555566,309.8090220982849L45.37037037037044,309.8090220982849L46.18518518518522,309.252618856186L46.592592592592666,309.252618856186L48.629629629629676,307.5833549300514L48.629629629629676,307.0269155531787L49.03703703703712,306.47046714144017L49.444444444444514,305.9140096943993L49.444444444444514,305.35754321156855L49.444444444444514,305.35754321156855L49.03703703703712,304.8010676925005L47.40740740740745,302.0185545372733L47.00000000000006,301.46202479102794L46.592592592592666,300.34893817959164L46.18518518518522,298.6792404582193L45.37037037037044,295.3396008743257L45.37037037037044,293.6696589867861L44.96296296296305,292.55631916601124L46.18518518518522,292.55631916601124L48.629629629629676,291.99963568551175L49.03703703703712,291.99963568551175L49.03703703703712,291.99963568551175L49.444444444444514,291.99963568551175L49.85185185185196,291.99963568551175L51.07407407407413,292.55631916601124L52.70370370370375,292.55631916601124L54.33333333333343,292.55631916601124L56.77777777777783,292.55631916601124L58.000000000000114,292.55631916601124L59.222222222222285,291.99963568551175L60.03703703703712,291.99963568551175L61.25925925925935,291.4429431576391L63.70370370370375,289.7728112852201L64.51851851851865,289.7728112852201L65.74074074074082,288.6593447916275L66.55555555555566,287.545842097461L67.37037037037044,288.10259796984246L69.4074074074075,288.10259796984246L70.62962962962968,288.10259796984246L72.2592592592593,288.10259796984246L73.07407407407408,288.10259796984246L75.51851851851853,288.10259796984246L75.92592592592598,288.10259796984246L76.33333333333337,288.10259796984246L77.5555555555556,287.545842097461L79.59259259259261,286.989077173992L80.8148148148149,286.43230319899885L81.62962962962968,285.3187280925158L81.62962962962968,285.3187280925158L82.44444444444451,284.7619269601346L82.44444444444451,284.7619269601346L84.07407407407413,284.7619269601346L85.70370370370375,284.20511677434115L87.33333333333343,283.6482975347062L88.14814814814821,280.3071919398644L90.59259259259261,278.0796070740398L93.03703703703707,275.85187726482764L93.8518518518519,274.18098477091917L94.25925925925935,274.18098477091917L94.66666666666674,273.0670111313593L94.66666666666674,271.953001239217L95.07407407407413,270.83895509079593L96.70370370370375,268.05368107405957L97.11111111111114,266.93950799932645L98.74074074074076,264.711053027102L99.55555555555554,264.711053027102L100.37037037037044,264.711053027102L103.62962962962968,264.711053027102L104.44444444444446,264.1539166099283L104.85185185185196,263.5967711221565L103.62962962962968,263.5967711221565L102.81481481481478,263.5967711221565L101.59259259259267,262.482452933029L100.37037037037044,261.3680984559833L99.96296296296299,259.6964986924686L99.55555555555554,259.1392806233198L98.74074074074076,258.0248172602478L98.33333333333343,258.0248172602478L96.29629629629636,256.3530541467335L94.66666666666674,255.7957816219896L93.44444444444446,256.3530541467335L91.8148148148149,256.3530541467335L91.4074074074075,256.3530541467335L91.00000000000011,255.7957816219896L90.18518518518522,253.5666007427899L90.18518518518522,251.33727459283546L90.18518518518522,249.10780314232034L89.37037037037044,244.09096096911526L90.18518518518522,244.64842422039146L93.03703703703707,246.87818636145312L93.03703703703707,246.87818636145312L93.8518518518519,246.87818636145312L93.44444444444446,245.7633234628156L93.03703703703707,245.20587838480424L93.44444444444446,244.09096096911526L93.44444444444446,243.5334886304845L93.8518518518519,243.5334886304845L93.44444444444446,242.97600720405535L93.44444444444446,242.41851668934396L92.22222222222229,242.41851668934396L91.4074074074075,242.97600720405535L91.00000000000011,242.41851668934396L89.77777777777783,241.30350839324456L89.37037037037044,240.74599061091794L88.96296296296305,239.63092777538986L88.96296296296305,239.0733827212498L89.37037037037044,237.4006930077412L90.18518518518522,234.61269495364468L90.18518518518522,234.61269495364468L90.18518518518522,233.4974320683723L90.18518518518522,232.93978698167848L89.77777777777783,231.82446951780003L89.77777777777783,231.26679713970225L89.77777777777783,231.26679713970225L89.37037037037044,230.70911566352152L87.74074074074082,229.5937254151031L87.33333333333343,228.4782987688086L87.33333333333343,228.4782987688086L88.14814814814821,227.92057179528638L88.96296296296305,227.92057179528638L88.96296296296305,227.92057179528638L90.59259259259261,228.4782987688086L92.62962962962968,229.03601664191956L93.03703703703707,229.03601664191956L94.25925925925935,229.03601664191956L94.66666666666674,229.03601664191956L94.66666666666674,228.4782987688086L95.48148148148158,227.36283572090906L95.88888888888897,226.24733626764282L95.88888888888897,226.24733626764282L96.29629629629636,226.24733626764282L96.29629629629636,226.24733626764282L97.92592592592592,224.5740188195814L98.33333333333343,222.90061943846376L96.29629629629636,222.34280143522847L94.66666666666674,221.2271381116916L94.25925925925935,221.2271381116916L94.25925925925935,221.2271381116916L93.8518518518519,220.66929279043688L93.03703703703707,219.55357482664476L93.03703703703707,218.99570218316512L92.62962962962968,218.99570218316512L92.62962962962968,218.99570218316512L92.22222222222229,217.32202960081486L92.62962962962968,216.76412052115847L92.62962962962968,216.76412052115847L92.62962962962968,215.64827503074048L92.62962962962968,214.53239309573473L92.62962962962968,214.53239309573473L93.03703703703707,214.53239309573473L94.25925925925935,213.9744384603291L95.48148148148158,212.85850185142408L97.51851851851853,211.18452858573437L97.51851851851853,211.18452858573437L97.92592592592592,210.06850083494282L97.51851851851853,207.27827192284167L97.11111111111114,206.72019878779247L96.29629629629636,205.6040251613449L96.29629629629636,205.6040251613449L96.29629629629636,205.6040251613449L96.29629629629636,205.6040251613449L99.55555555555554,205.6040251613449L99.55555555555554,206.16211653412756L99.96296296296299,206.16211653412756L99.96296296296299,206.16211653412756L100.37037037037044,206.72019878779247L100.77777777777783,207.83633593971172L101.18518518518522,208.39439083889374L101.59259259259267,208.39439083889374L102,208.9524366208534L102.4074074074075,208.39439083889374L104.44444444444446,210.62651926802573L106.07407407407408,212.30051987697516L107.70370370370375,212.85850185142408L109.33333333333331,213.9744384603291L110.5555555555556,213.41647471237593L110.96296296296299,213.41647471237593L110.96296296296299,213.41647471237593L111.37037037037044,212.85850185142408L111.77777777777783,213.41647471237593L111.77777777777783,213.41647471237593L111.77777777777783,213.41647471237593L112.18518518518528,212.30051987697516L112.59259259259261,211.18452858573437L112.59259259259261,210.62651926802573L112.59259259259261,209.51047328603818L113.40740740740739,208.9524366208534L114.22222222222229,207.27827192284167L114.22222222222229,206.72019878779247L114.62962962962968,205.04592466900795L115.03703703703707,203.9296963237357L115.85185185185185,203.37156846988728L116.25925925925935,202.8134314945819L116.66666666666669,202.8134314945819L116.66666666666669,202.25528539738298L116.66666666666669,202.25528539738298L117.07407407407413,200.02260978009144L117.48148148148152,198.90621722782817L117.48148148148152,198.90621722782817L117.48148148148152,198.90621722782817L117.07407407407413,196.67332261728734L116.25925925925935,195.55682055155194L115.44444444444457,193.88199899175743L115.85185185185185,192.20709526733845L116.66666666666669,191.09044713111507L117.07407407407413,191.09044713111507L117.07407407407413,190.53210936562755L117.07407407407413,188.85704127397184L117.07407407407413,188.85704127397184L117.48148148148152,188.29866697679608L117.48148148148152,188.29866697679608L117.88888888888897,188.29866697679608L119.11111111111114,189.41540643752887L119.92592592592592,189.973762467911L119.92592592592592,190.53210936562755L123.18518518518522,191.6487757648647L124.8148148148149,191.6487757648647L125.22222222222229,191.6487757648647L126.03703703703718,192.20709526733845L126.85185185185196,192.20709526733845L128.88888888888897,193.32370688031006L131.33333333333343,194.4402819737952L131.74074074074082,194.4402819737952L131.74074074074082,194.4402819737952L131.33333333333343,193.88199899175743L131.33333333333343,193.32370688031006L131.33333333333343,192.76540563898743L131.33333333333343,192.20709526733845L131.74074074074082,191.09044713111507L132.5555555555557,189.973762467911L132.5555555555557,189.973762467911L133.3703703703705,189.973762467911L137.03703703703707,188.85704127397184L138.25925925925935,188.85704127397184L140.29629629629636,188.85704127397184L140.29629629629636,188.85704127397184L141.11111111111114,188.85704127397184L141.92592592592604,188.29866697679608L141.92592592592604,188.29866697679608L141.5185185185186,187.18189097971845L141.5185185185186,187.18189097971845L141.5185185185186,186.62348927887433L141.5185185185186,186.62348927887433L141.5185185185186,186.0650784425161L141.5185185185186,186.0650784425161L141.92592592592604,186.0650784425161L141.92592592592604,186.0650784425161L142.33333333333343,185.50665847019627L143.5555555555556,185.50665847019627L144.37037037037038,184.94822936145283L145.59259259259267,183.83134373276334L146.00000000000006,183.2728872118787L146.40740740740756,183.2728872118787L146.40740740740756,182.15594675471948L146.40740740740756,182.15594675471948L146.40740740740756,181.59746281749176L147.62962962962968,182.15594675471948L150.07407407407413,184.38979111578374L150.8888888888889,185.50665847019627L153.33333333333343,188.29866697679608L154.1481481481482,189.973762467911L154.962962962963,192.20709526733845L155.37037037037038,192.20709526733845L155.77777777777789,192.76540563898743L157.00000000000006,193.32370688031006L159.03703703703712,193.88199899175743L162.29629629629642,195.55682055155194L163.92592592592598,194.9985558268927L165.1481481481482,193.88199899175743L166.77777777777777,191.09044713111507L167.18518518518528,190.53210936562755L167.18518518518528,190.53210936562755L169.22222222222229,192.76540563898743L170.85185185185185,193.88199899175743L171.66666666666674,194.4402819737952L173.2962962962963,196.11507614818765L175.74074074074082,198.34800726414323L176.96296296296305,199.4644180663272L176.96296296296305,199.4644180663272L179.00000000000006,201.69713017779577L181.03703703703712,203.37156846988728L181.85185185185196,204.4878150566219L181.85185185185196,205.04592466900795L181.85185185185196,206.16211653412756L182.25925925925935,206.72019878779247L182.66666666666674,207.83633593971172L183.07407407407413,208.39439083889374L182.66666666666674,208.39439083889374L182.66666666666674,208.39439083889374L181.85185185185196,209.51047328603818L181.85185185185196,209.51047328603818L181.85185185185196,209.51047328603818L183.07407407407413,212.30051987697516L183.8888888888889,213.41647471237593L184.7037037037037,214.53239309573473L185.1111111111112,216.2062023312974L185.92592592592598,218.43782043135434L186.33333333333337,218.99570218316512L187.1481481481482,221.2271381116916L187.1481481481482,221.2271381116916L187.1481481481482,221.2271381116916L188.77777777777789,221.2271381116916L191.22222222222229,221.2271381116916L191.62962962962973,220.66929279043688L193.66666666666674,220.66929279043688L195.7037037037038,220.111438362248L196.1111111111112,220.111438362248L196.92592592592598,219.55357482664476L198.962962962963,218.99570218316512L200.5925925925926,218.43782043135434L202.6296296296298,217.8799295707322L202.6296296296298,217.8799295707322L202.22222222222229,217.32202960081486L201.4074074074075,213.41647471237593L201.4074074074075,210.06850083494282L201.4074074074075,210.06850083494282L201.4074074074075,209.51047328603818L201.8148148148149,208.39439083889374L204.25925925925935,207.83633593971172L205.88888888888903,207.83633593971172L208.33333333333337,207.83633593971172L209.55555555555554,207.27827192284167L210.37037037037044,206.16211653412756L210.37037037037044,206.16211653412756L210.77777777777783,206.16211653412756L210.77777777777783,206.16211653412756L210.77777777777783,205.6040251613449L211.18518518518522,205.04592466900795L211.18518518518522,203.9296963237357L211.5925925925926,203.37156846988728L212,202.25528539738298L212.4074074074075,202.25528539738298L213.22222222222229,201.1389658353619L214.44444444444457,200.02260978009144L218.1111111111112,200.58079236962658L219.33333333333337,200.58079236962658L218.92592592592598,200.02260978009144L216.07407407407413,197.78978817481402L215.66666666666674,196.67332261728734L214.03703703703718,194.9985558268927L212.8148148148149,193.88199899175743L210.77777777777783,191.6487757648647L208.33333333333337,189.41540643752887L207.92592592592598,188.85704127397184L207.5185185185186,187.74028354554684L207.5185185185186,187.18189097971845L207.5185185185186,186.62348927887433L207.5185185185186,186.62348927887433L207.1111111111111,186.62348927887433L206.7037037037038,186.62348927887433L206.2962962962963,187.18189097971845L205.07407407407413,187.18189097971845L202.6296296296298,187.18189097971845L200.5925925925926,187.18189097971845L199.77777777777777,186.62348927887433L199.77777777777777,186.62348927887433L199.37037037037044,186.62348927887433L195.7037037037038,186.0650784425161L193.2592592592594,185.50665847019627L192.8518518518519,185.50665847019627L192.4444444444445,184.94822936145283L190.40740740740745,184.94822936145283L189.59259259259267,184.94822936145283L189.59259259259267,184.94822936145283L189.18518518518528,184.94822936145283L188.77777777777789,184.94822936145283L187.962962962963,184.38979111578374L185.5185185185186,183.83134373276334L184.7037037037037,182.71442155269688L183.8888888888889,181.59746281749176L183.8888888888889,181.59746281749176L183.8888888888889,181.59746281749176L183.8888888888889,178.8049060261801L186.33333333333337,176.0121206831791L186.74074074074088,175.45353618322406L187.1481481481482,174.33633974815893L187.962962962963,172.66047650072142L188.3703703703705,172.10183712441722L188.77777777777789,172.10183712441722L188.77777777777789,172.10183712441722L188.77777777777789,171.5431886004044L188.77777777777789,171.5431886004044L188.3703703703705,169.30850301790633L188.3703703703705,167.07367103457727L188.77777777777789,166.5149401601011L188.77777777777789,165.95620013321604L189.18518518518528,165.3974509534637L189.18518518518528,164.8386926203675L190.40740740740745,164.27992513346544L190.81481481481495,164.27992513346544L191.62962962962973,163.72114849227L192.4444444444445,163.72114849227L194.88888888888903,163.72114849227L196.5185185185186,164.27992513346544L196.92592592592598,165.3974509534637L197.33333333333348,166.5149401601011L197.74074074074082,167.07367103457727L198.1481481481482,167.07367103457727L198.1481481481482,167.07367103457727L198.5555555555556,166.5149401601011L198.5555555555556,166.5149401601011L199.37037037037044,166.5149401601011L199.37037037037044,166.5149401601011L199.77777777777777,165.95620013321604L200.5925925925926,165.3974509534637L201.8148148148149,165.3974509534637L202.22222222222229,165.3974509534637L203.03703703703707,164.8386926203675L205.07407407407413,163.16236269632282L205.07407407407413,162.60356774516185L205.07407407407413,162.60356774516185L204.66666666666674,162.60356774516185L204.25925925925935,162.60356774516185L204.66666666666674,162.04476363830327L204.66666666666674,161.48595037528867L205.88888888888903,160.36829637887422L206.7037037037038,159.80945564455033L207.5185185185186,159.80945564455033L208.33333333333337,159.80945564455033L211.18518518518522,160.9271279556342L212.8148148148149,162.04476363830327L215.25925925925935,163.16236269632282L216.07407407407413,163.16236269632282L216.48148148148164,163.16236269632282L216.48148148148164,163.72114849227L218.1111111111112,162.04476363830327L219.33333333333337,161.48595037528867L220.14814814814815,160.36829637887422L220.55555555555566,160.36829637887422L220.55555555555566,160.36829637887422L220.55555555555566,160.36829637887422L220.96296296296293,160.36829637887422L222.5925925925926,162.04476363830327L223.8148148148149,163.16236269632282L224.22222222222229,163.16236269632282L224.22222222222229,163.16236269632282L226.66666666666674,163.16236269632282L227.48148148148152,162.60356774516185L228.29629629629642,162.04476363830327L228.29629629629642,160.9271279556342L228.29629629629642,160.36829637887422L228.7037037037038,159.80945564455033L229.92592592592598,159.2506057521714L230.33333333333348,159.2506057521714L229.92592592592598,158.13287849141489L229.92592592592598,157.5740011220878L229.92592592592598,157.5740011220878L229.5185185185186,155.33840004081867L229.5185185185186,154.77947686716652L230.33333333333348,155.33840004081867L231.14814814814827,155.33840004081867L234,153.661603032524L234.4074074074075,153.10265237062777L235.22222222222229,152.54369254502308L235.22222222222229,152.54369254502308L237.66666666666674,150.86675808136715L240.9259259259261,150.30776159629022L241.33333333333337,150.30776159629022L241.33333333333337,150.30776159629022L241.74074074074088,150.30776159629022L242.14814814814815,150.30776159629022L242.55555555555566,150.30776159629022L243.37037037037044,150.86675808136715L245.0000000000001,151.42574540086935L245.8148148148149,152.54369254502308L247.44444444444457,150.86675808136715L248.66666666666674,149.7487559451838L249.07407407407413,148.07168399086368L249.8888888888889,146.39452952518332L250.7037037037037,145.27638070214743L250.7037037037037,145.27638070214743L250.7037037037037,144.15819519797515L251.5185185185186,143.0399730088975L251.5185185185186,141.92171413114193L251.92592592592598,140.24425701500513L251.5185185185186,138.56671732812902L251.1111111111112,138.56671732812902L250.7037037037037,138.00751908124948L249.48148148148164,136.88909505780612L248.66666666666674,136.32986928029277L248.66666666666674,136.32986928029277L248.66666666666674,135.77063432494106L248.25925925925935,133.53360271586644L247.85185185185196,132.97432186432707L247.85185185185196,132.4150318321117L247.44444444444457,132.4150318321117L247.03703703703707,132.97432186432707L246.22222222222229,133.53360271586644L242.55555555555566,133.53360271586644L239.7037037037038,132.4150318321117L239.29629629629642,132.4150318321117L239.29629629629642,132.97432186432707L238.88888888888903,132.97432186432707L237.25925925925935,133.53360271586644L235.22222222222229,132.97432186432707L234,131.85573261878017L232.37037037037044,130.73710664686223L230.74074074074076,130.17777988731177L230.74074074074076,130.17777988731177L229.92592592592598,130.17777988731177L228.29629629629642,130.17777988731177L227.48148148148152,129.61844394474974L227.07407407407425,129.61844394474974L226.25925925925935,129.05909881870684L225.44444444444457,129.05909881870684L225.85185185185196,128.49974450869922L228.7037037037038,126.8216264702096L229.5185185185186,126.26223541964646L230.33333333333348,125.7028351827721L231.14814814814827,125.7028351827721L231.14814814814827,124.58400714817617L231.14814814814827,124.0245793494978L230.74074074074076,122.90569618707013L230.74074074074076,122.34624082235314L228.7037037037038,122.90569618707013L227.48148148148152,123.46514236262738L226.25925925925935,122.90569618707013L223.4074074074075,122.34624082235314L221.37037037037044,121.78677626802892L218.92592592592598,121.78677626802892L217.7037037037037,122.34624082235314L216.48148148148164,122.34624082235314L215.66666666666674,121.78677626802892L215.66666666666674,121.78677626802892L215.66666666666674,121.22730252359543L215.66666666666674,121.22730252359543L217.29629629629642,118.42979593346172L218.1111111111112,117.31072895019679L218.1111111111112,115.07248465335942L216.8888888888889,113.39370487684573L215.66666666666674,111.15520307867337L215.25925925925935,110.0358969870249L215.25925925925935,108.91655409528903L214.85185185185196,108.35686884821189L215.25925925925935,107.79717439968226L215.25925925925935,108.35686884821189L217.29629629629642,108.91655409528903L218.92592592592598,109.47623014139754L219.74074074074088,107.23747074923085L219.74074074074088,106.11803584071458L220.14814814814815,103.87905557987688L220.14814814814815,103.31928750279621L220.14814814814815,102.75951021999936L220.14814814814815,102.75951021999936L222.18518518518522,102.75951021999936L223.4074074074075,103.31928750279621L224.22222222222229,103.31928750279621L225.85185185185196,103.31928750279621L226.25925925925935,102.19972373104247L227.07407407407425,101.08012313270228L227.48148148148152,97.72110034028083L227.88888888888903,96.04146460959964L227.88888888888903,96.04146460959964L230.33333333333348,94.3617459722227L232.77777777777783,93.80182133385097L235.62962962962968,92.68194441535161L236.03703703703707,92.68194441535161L236.85185185185196,92.68194441535161L237.25925925925935,92.68194441535161L238.07407407407413,92.68194441535161L239.7037037037038,93.24188748171582L240.5185185185186,93.80182133385097L243.77777777777783,94.3617459722227L244.5925925925926,94.9216613973258L245.0000000000001,94.9216613973258L246.62962962962968,95.48156760963684L247.85185185185196,96.04146460959964L247.85185185185196,96.60135239772353L247.03703703703707,96.60135239772353L245.0000000000001,98.28096049566739L246.22222222222229,101.08012313270228L248.25925925925935,102.75951021999936L249.07407407407413,103.87905557987688L249.48148148148164,105.55830458168566L249.48148148148164,107.23747074923085L250.29629629629642,108.35686884821189L250.7037037037037,108.35686884821189L251.92592592592598,108.35686884821189L252.33333333333337,108.35686884821189L253.14814814814815,109.47623014139754L253.55555555555566,110.59555463263314L254.37037037037044,111.15520307867337L254.77777777777783,111.7148423256549L255.18518518518522,112.27447237402885L256,112.83409322425723L256.4074074074074,112.83409322425723L256.8148148148149,112.83409322425723L258.03703703703707,112.83409322425723L258.44444444444446,113.39370487684573L258.85185185185196,113.39370487684573L259.25925925925935,113.95330733224546L259.66666666666674,113.95330733224546L260.07407407407413,114.51290059092207L260.4814814814815,115.07248465335942L262.1111111111112,117.31072895019679L263.74074074074076,118.42979593346172L264.14814814814827,120.6678195886052L266.1851851851852,122.34624082235314L267,123.46514236262738L269.03703703703707,125.7028351827721L270.25925925925935,127.38100833492717L269.44444444444446,129.05909881870684L269.03703703703707,131.29642422385587L268.6296296296297,134.65213687889263L267.4074074074075,135.77063432494106L266.1851851851852,136.88909505780612L266.1851851851852,138.56671732812902L266.1851851851852,140.24425701500513L265.7777777777778,141.36257093283348L265.7777777777778,142.48084815633047L266.1851851851852,143.0399730088975L266.5925925925927,143.59908868927596L269.44444444444446,144.71729253543162L271.07407407407413,146.95359018246018L271.888888888889,147.51264167086993L272.2962962962964,148.07168399086368L272.7037037037038,148.07168399086368L274.33333333333337,148.63071714294347L275.96296296296305,148.63071714294347L275.96296296296305,148.63071714294347L276.37037037037044,149.1897411275495L278.0000000000001,150.30776159629022L279.6296296296297,150.86675808136715L280.03703703703707,150.86675808136715L280.85185185185185,150.86675808136715L282.888888888889,151.42574540086935L284.925925925926,151.42574540086935L286.14814814814827,152.54369254502308L287.37037037037044,150.86675808136715L287.77777777777794,149.7487559451838L288.1851851851852,149.1897411275495L288.5925925925927,148.63071714294347Z" style="fill: none; stroke: rgb(8, 48, 107);"><title>ARIEGE</title></path><g stroke="#000" stroke-opacity="0.2"><path d="M0,-13.34775705149959L2.9967581703553763,-4.1246837657014135L12.69447132175327,-4.124683765701414L4.848856575698947,1.5754890056530315L7.845614746054325,10.798562291451207L8.881784197001252e-16,5.098389520096762L-7.845614746054323,10.798562291451208L-4.848856575698946,1.5754890056530328L-12.694471321753271,-4.124683765701411L-2.9967581703553776,-4.124683765701413Z" transform="translate(158.22222222222229,282.53463189198374)rotate(17.0818821306992)" fill="white" class="commune"><title>09261 Population : 6353</title></path><path d="M0,-13.34775705149959L2.9967581703553763,-4.1246837657014135L12.69447132175327,-4.124683765701414L4.848856575698947,1.5754890056530315L7.845614746054325,10.798562291451207L8.881784197001252e-16,5.098389520096762L-7.845614746054323,10.798562291451208L-4.848856575698946,1.5754890056530328L-12.694471321753271,-4.124683765701411L-2.9967581703553776,-4.124683765701413Z" transform="translate(344.8148148148149,288.6593447916275)rotate(17.326570856089475)" fill="white" class="commune"><title>09122 Population : 9613</title></path><path d="M0,-15.873247654971056L3.5637661381291506,-4.905103281308338L15.096355617026989,-4.905103281308339L5.766294739448918,1.873582735131148L9.330060877578072,12.841727108793865L8.881784197001252e-16,6.063041092354379L-9.330060877578068,12.841727108793867L-5.766294739448918,1.8735827351311491L-15.09635561702699,-4.905103281308335L-3.563766138129152,-4.905103281308337Z" transform="translate(346.85185185185196,200.02260978009144)rotate(20.86487920387983)" fill="white" class="commune"><title>09225 Population : 15688</title></path></g><text class="text" y="25" x="326" text-anchor="middle" font-size="24" font-family="Helvetica" fill="#6baed6">09 - ARIEGE</text><line x1="344.9506172839507" y1="282.7502291241918" x2="346.71604938271616" y2="205.93172544752719" stroke="yellow" opacity="0.35" stroke-width="2"/><line x1="334.27654320987665" y1="205.5234112542176" x2="170.7975308641976" y2="277.0338304178576" stroke="yellow" opacity="0.35" stroke-width="2"/><line x1="170.6617283950618" y1="282.94294608529333" x2="332.3753086419754" y2="288.2510305983179" stroke="yellow" opacity="0.35" stroke-width="2"/></svg>