<svg viewBox="0,0,955,1146" width="955" height="1146" style="width: 100%; height: auto;" xmlns="http://www.w3.org/2000/svg" xmlns:xlink="http://www.w3.org/1999/xlink"><rect width="955" height="1146" fill="black"/><g stroke="#000" stroke-opacity="0.2"><path d="M0,-13.34775705149959L2.9967581703553763,-4.1246837657014135L12.69447132175327,-4.124683765701414L4.848856575698947,1.5754890056530315L7.845614746054325,10.798562291451207L8.881784197001252e-16,5.098389520096762L-7.845614746054323,10.798562291451208L-4.848856575698946,1.5754890056530328L-12.694471321753271,-4.124683765701411L-2.9967581703553776,-4.124683765701413Z" transform="translate(416.46511627906966,633.7230146348811)rotate(24.044565067850925)" fill="white" class="commune"><title>67300 Population : 9286</title></path><path d="M0,-15.873247654971056L3.5637661381291506,-4.905103281308338L15.096355617026989,-4.905103281308339L5.766294739448918,1.873582735131148L9.330060877578072,12.841727108793865L8.881784197001252e-16,6.063041092354379L-9.330060877578068,12.841727108793867L-5.766294739448918,1.8735827351311491L-15.09635561702699,-4.905103281308335L-3.563766138129152,-4.905103281308337Z" transform="translate(305.62015503875864,425.6236506735513)rotate(12.735426137429613)" fill="white" class="commune"><title>67437 Population : 11151</title></path><path d="M0,-15.873247654971056L3.5637661381291506,-4.905103281308338L15.096355617026989,-4.905103281308339L5.766294739448918,1.873582735131148L9.330060877578072,12.841727108793865L8.881784197001252e-16,6.063041092354379L-9.330060877578068,12.841727108793867L-5.766294739448918,1.8735827351311491L-15.09635561702699,-4.905103281308335L-3.563766138129152,-4.905103281308337Z" transform="translate(389.8062015503874,946.4737397188437)rotate(24.710197079492115)" fill="white" class="commune"><title>67462 Population : 19124</title></path><path d="M0,-18.876579049491834L4.238056047668955,-5.833183721955068L17.952693510379785,-5.833183721955069L6.857318731355415,2.2280779191642193L11.095374779024372,15.271473246700983L8.881784197001252e-16,7.210211605581696L-11.095374779024368,15.271473246700985L-6.857318731355414,2.2280779191642206L-17.952693510379788,-5.833183721955065L-4.238056047668956,-5.833183721955068Z" transform="translate(647.9767441860458,317.0059462488207)rotate(4.245533736453583)" fill="white" class="commune"><title>67180 Population : 34460</title></path><path d="M0,-31.746495309942112L7.127532276258301,-9.810206562616676L30.192711234053977,-9.810206562616678L11.532589478897837,3.747165470262296L18.660121755156144,25.68345421758773L1.7763568394002505e-15,12.126082184708759L-18.660121755156137,25.683454217587734L-11.532589478897837,3.7471654702622983L-30.19271123405398,-9.81020656261667L-7.127532276258304,-9.810206562616674Z" transform="translate(604.4806201550391,604.0439803760892)rotate(4.779627956088838)" fill="white" class="commune"><title>67482 Population : 279284</title></path></g><text class="text" y="40" x="427.5" text-anchor="middle" font-size="36" font-family="Helvetica" fill="#6baed6">67 - BAS RHIN</text><line x1="632.542635658914" y1="338.12041747455805" x2="431.8992248062014" y2="612.6085434091437" stroke="yellow" opacity="0.35" stroke-width="2"/><line x1="409.0754521963823" y1="619.8497237041258" x2="313.009819121446" y2="439.49694160430664" stroke="yellow" opacity="0.35" stroke-width="2"/><line x1="311.23255813953386" y1="460.3469899432375" x2="384.1937984496122" y2="911.7504004491576" stroke="yellow" opacity="0.35" stroke-width="2"/><line x1="404.11782945736417" y1="923.6450890959934" x2="590.1689922480623" y2="626.8726309989395" stroke="yellow" opacity="0.35" stroke-width="2"/><line x1="607.3803617571062" y1="584.9081114342713" x2="645.0770025839787" y2="336.14181519063857" stroke="yellow" opacity="0.35" stroke-width="2"/></svg>