<svg viewBox="0,0,955,1146" width="955" height="1146" style="width: 100%; height: auto;" xmlns="http://www.w3.org/2000/svg" xmlns:xlink="http://www.w3.org/1999/xlink"><rect width="955" height="1146" fill="black"/><g stroke="#000" stroke-opacity="0.2"><path d="M0,-15.873247654971056L3.5637661381291506,-4.905103281308338L15.096355617026989,-4.905103281308339L5.766294739448918,1.873582735131148L9.330060877578072,12.841727108793865L8.881784197001252e-16,6.063041092354379L-9.330060877578068,12.841727108793867L-5.766294739448918,1.8735827351311491L-15.09635561702699,-4.905103281308335L-3.563766138129152,-4.905103281308337Z" transform="translate(499.9537426408748,396.12255997784087)rotate(11.060960035462964)" fill="white" class="commune"><title>53147 Population : 12893</title></path><path d="M0,-15.873247654971056L3.5637661381291506,-4.905103281308338L15.096355617026989,-4.905103281308339L5.766294739448918,1.873582735131148L9.330060877578072,12.841727108793865L8.881784197001252e-16,6.063041092354379L-9.330060877578068,12.841727108793867L-5.766294739448918,1.8735827351311491L-15.09635561702699,-4.905103281308335L-3.563766138129152,-4.905103281308337Z" transform="translate(436.01766190075705,945.1114730687186)rotate(24.729900813885948)" fill="white" class="commune"><title>53062 Population : 16858</title></path><path d="M0,-22.448162112566994L5.039926405668234,-6.936863585267022L21.349470856006818,-6.936863585267023L8.154772225169292,2.649646114250548L13.19469863083753,18.16094464155052L8.881784197001252e-16,8.574434942032948L-13.194698630837525,18.160944641550522L-8.154772225169292,2.649646114250549L-21.34947085600682,-6.936863585267019L-5.0399264056682345,-6.936863585267021Z" transform="translate(385.02102607232985,676.954230942385)rotate(29.677412179719294)" fill="white" class="commune"><title>53130 Population : 49492</title></path></g><text class="text" y="40" x="427.5" text-anchor="middle" font-size="36" font-family="Helvetica" fill="#6baed6">53 - MAYENNE</text><line x1="432.6178861788619" y1="927.2343235936297" x2="388.420801794225" y2="694.831380417474" stroke="yellow" opacity="0.35" stroke-width="2"/><line x1="392.6832071768995" y1="658.2321195447488" x2="492.29156153630515" y2="414.84467137547716" stroke="yellow" opacity="0.35" stroke-width="2"/><line x1="495.6913372582003" y1="432.721820850566" x2="440.28006728343155" y2="908.5122121959935" stroke="yellow" opacity="0.35" stroke-width="2"/></svg>