<svg viewBox="0,0,954,1144.8" width="954" height="1144.8" style="width: 100%; height: auto;" xmlns="http://www.w3.org/2000/svg" xmlns:xlink="http://www.w3.org/1999/xlink"><rect width="954" height="1144.8" fill="black"/><g stroke="#000" stroke-opacity="0.2"><path d="M0,-13.34775705149959L2.9967581703553763,-4.1246837657014135L12.69447132175327,-4.124683765701414L4.848856575698947,1.5754890056530315L7.845614746054325,10.798562291451207L8.881784197001252e-16,5.098389520096762L-7.845614746054323,10.798562291451208L-4.848856575698946,1.5754890056530328L-12.694471321753271,-4.124683765701411L-2.9967581703553776,-4.124683765701413Z" transform="translate(698.768689417076,417.321939125839)rotate(13.871113809150934)" fill="white" class="commune"><title>insee_com : 27016 
Population : 8056
 Nom : ANDELYS</title></path><path d="M0,-15.873247654971056L3.5637661381291506,-4.905103281308338L15.096355617026989,-4.905103281308339L5.766294739448918,1.873582735131148L9.330060877578072,12.841727108793865L8.881784197001252e-16,6.063041092354379L-9.330060877578068,12.841727108793867L-5.766294739448918,1.8735827351311491L-15.09635561702699,-4.905103281308335L-3.563766138129152,-4.905103281308337Z" transform="translate(205.71597397423972,561.7129064941473)rotate(16.126608184672467)" fill="white" class="commune"><title>insee_com : 27056 
Population : 10085
 Nom : BERNAY</title></path><path d="M0,-22.448162112566994L5.039926405668234,-6.936863585267022L21.349470856006818,-6.936863585267023L8.154772225169292,2.649646114250548L13.19469863083753,18.16094464155052L8.881784197001252e-16,8.574434942032948L-13.194698630837525,18.160944641550522L-8.154772225169292,2.649646114250549L-21.34947085600682,-6.936863585267019L-5.0399264056682345,-6.936863585267021Z" transform="translate(538.0389058557959,618.6821514308685)rotate(17.574231970448903)" fill="white" class="commune"><title>insee_com : 27229 
Population : 47733
 Nom : EVREUX</title></path></g><text class="text" y="40" x="427" text-anchor="middle" font-size="36" font-family="Helvetica" fill="#6baed6">27  - EURE</text><line x1="665.8985083875535" y1="426.94800361705956" x2="238.58615500376214" y2="552.0868420029268" stroke="yellow" opacity="0.35" stroke-width="2"/><line x1="227.8708360996768" y1="565.5108561565954" x2="515.8840437303588" y2="614.8842017684204" stroke="yellow" opacity="0.35" stroke-width="2"/><line x1="548.7542247598813" y1="605.2581372771999" x2="688.0533705129906" y2="430.7459532795076" stroke="yellow" opacity="0.35" stroke-width="2"/></svg>