<svg viewBox="0,0,955,1146" width="955" height="1146" style="width: 100%; height: auto;" xmlns="http://www.w3.org/2000/svg" xmlns:xlink="http://www.w3.org/1999/xlink"><rect width="955" height="1146" fill="black"/><g stroke="#000" stroke-opacity="0.2"><path d="M0,-13.34775705149959L2.9967581703553763,-4.1246837657014135L12.69447132175327,-4.124683765701414L4.848856575698947,1.5754890056530315L7.845614746054325,10.798562291451207L8.881784197001252e-16,5.098389520096762L-7.845614746054323,10.798562291451208L-4.848856575698946,1.5754890056530328L-12.694471321753271,-4.124683765701411L-2.9967581703553776,-4.124683765701413Z" transform="translate(465.9597315436243,241.07877523607385)rotate(3.392400546987621)" fill="white" class="commune"><title>24311 Population : 3085</title></path><path d="M0,-13.34775705149959L2.9967581703553763,-4.1246837657014135L12.69447132175327,-4.124683765701414L4.848856575698947,1.5754890056530315L7.845614746054325,10.798562291451207L8.881784197001252e-16,5.098389520096762L-7.845614746054323,10.798562291451208L-4.848856575698946,1.5754890056530328L-12.694471321753271,-4.124683765701411L-2.9967581703553776,-4.124683765701413Z" transform="translate(783.6208053691278,785.9943537203944)rotate(27.306086242010885)" fill="white" class="commune"><title>24520 Population : 8946</title></path><path d="M0,-18.876579049491834L4.238056047668955,-5.833183721955068L17.952693510379785,-5.833183721955069L6.857318731355415,2.2280779191642193L11.095374779024372,15.271473246700983L8.881784197001252e-16,7.210211605581696L-11.095374779024368,15.271473246700985L-6.857318731355414,2.2280779191642206L-17.952693510379788,-5.833183721955065L-4.238056047668956,-5.833183721955068Z" transform="translate(346.3053691275168,823.7074460582917)rotate(22.104752241588784)" fill="white" class="commune"><title>24037 Population : 27269</title></path><path d="M0,-18.876579049491834L4.238056047668955,-5.833183721955068L17.952693510379785,-5.833183721955069L6.857318731355415,2.2280779191642193L11.095374779024372,15.271473246700983L8.881784197001252e-16,7.210211605581696L-11.095374779024368,15.271473246700985L-6.857318731355414,2.2280779191642206L-17.952693510379788,-5.833183721955065L-4.238056047668956,-5.833183721955068Z" transform="translate(482.96644295302025,533.2581641152683)rotate(21.266905637478263)" fill="white" class="commune"><title>24322 Population : 29912</title></path></g><text class="text" y="40" x="427.5" text-anchor="middle" font-size="36" font-family="Helvetica" fill="#6baed6">24 - DORDOGNE</text><line x1="354.28232662192397" y1="784.8655346701438" x2="457.98277404921714" y2="279.92068662422173" stroke="yellow" opacity="0.35" stroke-width="2"/><line x1="467.0935123042507" y1="260.5574011613535" x2="481.83266219239385" y2="513.7795381899887" stroke="yellow" opacity="0.35" stroke-width="2"/><line x1="503.01006711409406" y1="550.1072434222767" x2="763.577181208054" y2="769.145274413386" stroke="yellow" opacity="0.35" stroke-width="2"/><line x1="754.4664429530204" y1="788.5085598762543" x2="375.45973154362423" y2="821.1932399024319" stroke="yellow" opacity="0.35" stroke-width="2"/></svg>