<svg viewBox="0,0,954,1144.8" width="954" height="1144.8" style="width: 100%; height: auto;" xmlns="http://www.w3.org/2000/svg" xmlns:xlink="http://www.w3.org/1999/xlink"><rect width="954" height="1144.8" fill="black"/><g stroke="#000" stroke-opacity="0.2"><path d="M0,-15.873247654971056L3.5637661381291506,-4.905103281308338L15.096355617026989,-4.905103281308339L5.766294739448918,1.873582735131148L9.330060877578072,12.841727108793865L8.881784197001252e-16,6.063041092354379L-9.330060877578068,12.841727108793867L-5.766294739448918,1.8735827351311491L-15.09635561702699,-4.905103281308335L-3.563766138129152,-4.905103281308337Z" transform="translate(359.0903172764697,727.9412607992272)rotate(11.786687929670487)" fill="white" class="commune"><title>insee_com : 42147 
Population : 15641
 Nom : MONTBRISON</title></path><path d="M0,-18.876579049491834L4.238056047668955,-5.833183721955068L17.952693510379785,-5.833183721955069L6.857318731355415,2.2280779191642193L11.095374779024372,15.271473246700983L8.881784197001252e-16,7.210211605581696L-11.095374779024368,15.271473246700985L-6.857318731355414,2.2280779191642206L-17.952693510379788,-5.833183721955065L-4.238056047668956,-5.833183721955068Z" transform="translate(366.24964125844417,280.5362874114362)rotate(29.41836584239256)" fill="white" class="commune"><title>insee_com : 42187 
Population : 34366
 Nom : ROANNE</title></path><path d="M0,-31.746495309942112L7.127532276258301,-9.810206562616676L30.192711234053977,-9.810206562616678L11.532589478897837,3.747165470262296L18.660121755156144,25.68345421758773L1.7763568394002505e-15,12.126082184708759L-18.660121755156137,25.683454217587734L-11.532589478897837,3.7471654702622983L-30.19271123405398,-9.81020656261667L-7.127532276258304,-9.810206562616674Z" transform="translate(596.0054976187303,902.3886985028876)rotate(23.216096534681235)" fill="white" class="commune"><title>insee_com : 42218 
Population : 172565
 Nom : SAINT ETIENNE</title></path></g><text class="text" y="40" x="427" text-anchor="middle" font-size="36" font-family="Helvetica" fill="#6baed6">42  - LOIRE</text><line x1="359.56760554193465" y1="698.1142625733744" x2="365.7723529929792" y2="310.3632856372889" stroke="yellow" opacity="0.35" stroke-width="2"/><line x1="381.5666983491299" y1="321.99311481753296" x2="580.6884405280446" y2="860.9318710967908" stroke="yellow" opacity="0.35" stroke-width="2"/><line x1="580.2111522625795" y1="890.7588693226436" x2="374.8846626326204" y2="739.5710899794711" stroke="yellow" opacity="0.35" stroke-width="2"/></svg>