<svg viewBox="0,0,954,1144.8" width="954" height="1144.8" style="width: 100%; height: auto;" xmlns="http://www.w3.org/2000/svg" xmlns:xlink="http://www.w3.org/1999/xlink"><rect width="954" height="1144.8" fill="black"/><g stroke="#000" stroke-opacity="0.2"><path d="M0,-15.873247654971056L3.5637661381291506,-4.905103281308338L15.096355617026989,-4.905103281308339L5.766294739448918,1.873582735131148L9.330060877578072,12.841727108793865L8.881784197001252e-16,6.063041092354379L-9.330060877578068,12.841727108793867L-5.766294739448918,1.8735827351311491L-15.09635561702699,-4.905103281308335L-3.563766138129152,-4.905103281308337Z" transform="translate(433.01270887267583,320.1555379827987)rotate(23.916822284041775)" fill="white" class="commune"><title>insee_com : 56178 
Population : 14606
 Nom : PONTIVY</title></path><path d="M0,-22.448162112566994L5.039926405668234,-6.936863585267022L21.349470856006818,-6.936863585267023L8.154772225169292,2.649646114250548L13.19469863083753,18.16094464155052L8.881784197001252e-16,8.574434942032948L-13.194698630837525,18.160944641550522L-8.154772225169292,2.649646114250549L-21.34947085600682,-6.936863585267019L-5.0399264056682345,-6.936863585267021Z" transform="translate(543.0607201694518,642.0222265130978)rotate(1.5670153320767288)" fill="white" class="commune"><title>insee_com : 56260 
Population : 53352
 Nom : VANNES</title></path><path d="M0,-22.448162112566994L5.039926405668234,-6.936863585267022L21.349470856006818,-6.936863585267023L8.154772225169292,2.649646114250548L13.19469863083753,18.16094464155052L8.881784197001252e-16,8.574434942032948L-13.194698630837525,18.160944641550522L-8.154772225169292,2.649646114250549L-21.34947085600682,-6.936863585267019L-5.0399264056682345,-6.936863585267021Z" transform="translate(221.1609790538953,570.9685882873055)rotate(29.583064989185765)" fill="white" class="commune"><title>insee_com : 56121 
Population : 57149
 Nom : LORIENT</title></path></g><text class="text" y="40" x="427" text-anchor="middle" font-size="36" font-family="Helvetica" fill="#6baed6">56  - MORBIHAN</text><line x1="235.28442770848065" y1="554.247718267005" x2="418.88926021809044" y2="336.87640800309913" stroke="yellow" opacity="0.35" stroke-width="2"/><line x1="440.34924295912754" y1="341.61331721815196" x2="535.7241860830001" y2="620.5644472777445" stroke="yellow" opacity="0.35" stroke-width="2"/><line x1="521.6007374284146" y1="637.285317298045" x2="242.62096179493238" y2="575.7054975023583" stroke="yellow" opacity="0.35" stroke-width="2"/></svg>