<svg viewBox="0,0,955,1146" width="955" height="1146" style="width: 100%; height: auto;" xmlns="http://www.w3.org/2000/svg" xmlns:xlink="http://www.w3.org/1999/xlink"><rect width="955" height="1146" fill="black"/><g stroke="#000" stroke-opacity="0.2"><path d="M0,-13.34775705149959L2.9967581703553763,-4.1246837657014135L12.69447132175327,-4.124683765701414L4.848856575698947,1.5754890056530315L7.845614746054325,10.798562291451207L8.881784197001252e-16,5.098389520096762L-7.845614746054323,10.798562291451208L-4.848856575698946,1.5754890056530328L-12.694471321753271,-4.124683765701411L-2.9967581703553776,-4.124683765701413Z" transform="translate(425.99911787363135,855.3875113063914)rotate(18.827478036902964)" fill="white" class="commune"><title>07132 Population : 1660</title></path><path d="M0,-13.34775705149959L2.9967581703553763,-4.1246837657014135L12.69447132175327,-4.124683765701414L4.848856575698947,1.5754890056530315L7.845614746054325,10.798562291451207L8.881784197001252e-16,5.098389520096762L-7.845614746054323,10.798562291451208L-4.848856575698946,1.5754890056530328L-12.694471321753271,-4.124683765701411L-2.9967581703553776,-4.124683765701413Z" transform="translate(632.7081379150836,667.0401627819592)rotate(16.109782622868565)" fill="white" class="commune"><title>07186 Population : 8305</title></path><path d="M0,-15.873247654971056L3.5637661381291506,-4.905103281308338L15.096355617026989,-4.905103281308339L5.766294739448918,1.873582735131148L9.330060877578072,12.841727108793865L8.881784197001252e-16,6.063041092354379L-9.330060877578068,12.841727108793867L-5.766294739448918,1.8735827351311491L-15.09635561702699,-4.905103281308335L-3.563766138129152,-4.905103281308337Z" transform="translate(789.3272589021217,337.4356956972115)rotate(14.001807733217401)" fill="white" class="commune"><title>07324 Population : 10234</title></path></g><text class="text" y="40" x="427.5" text-anchor="middle" font-size="36" font-family="Helvetica" fill="#6baed6">07 - ARDECHE</text><line x1="439.77971920972817" y1="842.8310214047626" x2="618.9275365789869" y2="679.596652683588" stroke="yellow" opacity="0.35" stroke-width="2"/><line x1="643.1494126475528" y1="645.0665316429761" x2="778.8859841696525" y2="359.4093268361947" stroke="yellow" opacity="0.35" stroke-width="2"/><line x1="765.1053828335556" y1="371.9658167378235" x2="450.22099394219737" y2="820.8573902657794" stroke="yellow" opacity="0.35" stroke-width="2"/></svg>