<svg viewBox="0,0,954,1144.8" width="954" height="1144.8" style="width: 100%; height: auto;" xmlns="http://www.w3.org/2000/svg" xmlns:xlink="http://www.w3.org/1999/xlink"><rect width="954" height="1144.8" fill="black"/><g stroke="#000" stroke-opacity="0.2"><path d="M0,-13.34775705149959L2.9967581703553763,-4.1246837657014135L12.69447132175327,-4.124683765701414L4.848856575698947,1.5754890056530315L7.845614746054325,10.798562291451207L8.881784197001252e-16,5.098389520096762L-7.845614746054323,10.798562291451208L-4.848856575698946,1.5754890056530328L-12.694471321753271,-4.124683765701411L-2.9967581703553776,-4.124683765701413Z" transform="translate(255.69865684408012,734.9693029798291)rotate(0.056547207803829824)" fill="white" class="commune"><title>insee_com : 65025 
Population : 2901
 Nom : ARGELES GAZOST</title></path><path d="M0,-13.34775705149959L2.9967581703553763,-4.1246837657014135L12.69447132175327,-4.124683765701414L4.848856575698947,1.5754890056530315L7.845614746054325,10.798562291451207L8.881784197001252e-16,5.098389520096762L-7.845614746054323,10.798562291451208L-4.848856575698946,1.5754890056530328L-12.694471321753271,-4.124683765701411L-2.9967581703553776,-4.124683765701413Z" transform="translate(469.48025768120607,661.9644883815927)rotate(24.649865632104824)" fill="white" class="commune"><title>insee_com : 65059 
Population : 7253
 Nom : BAGNERES DE BIGORRE</title></path><path d="M0,-22.448162112566994L5.039926405668234,-6.936863585267022L21.349470856006818,-6.936863585267023L8.154772225169292,2.649646114250548L13.19469863083753,18.16094464155052L8.881784197001252e-16,8.574434942032948L-13.194698630837525,18.160944641550522L-8.154772225169292,2.649646114250549L-21.34947085600682,-6.936863585267019L-5.0399264056682345,-6.936863585267021Z" transform="translate(407.8778488549277,469.7952433473765)rotate(17.031665979671953)" fill="white" class="commune"><title>insee_com : 65440 
Population : 41518
 Nom : TARBES</title></path></g><text class="text" y="40" x="427" text-anchor="middle" font-size="36" font-family="Helvetica" fill="#6baed6">65  - HAUTES PYRENEES</text><line x1="269.95076356655517" y1="730.1023153399467" x2="455.228150958731" y2="666.831476021475" stroke="yellow" opacity="0.35" stroke-width="2"/><line x1="465.3734304261208" y1="649.1532053793115" x2="411.98467611001297" y2="482.6065263496576" stroke="yellow" opacity="0.35" stroke-width="2"/><line x1="397.73256938753786" y1="487.47351398954004" x2="265.84393631147" y2="717.2910323376656" stroke="yellow" opacity="0.35" stroke-width="2"/></svg>