<svg viewBox="0,0,955,1146" width="955" height="1146" style="width: 100%; height: auto;" xmlns="http://www.w3.org/2000/svg" xmlns:xlink="http://www.w3.org/1999/xlink"><rect width="955" height="1146" fill="black"/><g stroke="#000" stroke-opacity="0.2"><path d="M0,-15.873247654971056L3.5637661381291506,-4.905103281308338L15.096355617026989,-4.905103281308339L5.766294739448918,1.873582735131148L9.330060877578072,12.841727108793865L8.881784197001252e-16,6.063041092354379L-9.330060877578068,12.841727108793867L-5.766294739448918,1.8735827351311491L-15.09635561702699,-4.905103281308335L-3.563766138129152,-4.905103281308337Z" transform="translate(696.5220012055456,387.3341858885833)rotate(27.652332943647053)" fill="white" class="commune"><title>05023 Population : 11950</title></path><path d="M0,-22.448162112566994L5.039926405668234,-6.936863585267022L21.349470856006818,-6.936863585267023L8.154772225169292,2.649646114250548L13.19469863083753,18.16094464155052L8.881784197001252e-16,8.574434942032948L-13.194698630837525,18.160944641550522L-8.154772225169292,2.649646114250549L-21.34947085600682,-6.936863585267019L-5.0399264056682345,-6.936863585267021Z" transform="translate(377.9445449065706,633.0918059744072)rotate(20.943904573035496)" fill="white" class="commune"><title>05061 Population : 40805</title></path></g><text class="text" y="40" x="427.5" text-anchor="middle" font-size="36" font-family="Helvetica" fill="#6baed6">05 - HAUTES ALPES</text><line x1="675.2835041189472" y1="403.71802722763823" x2="399.18304199316896" y2="616.7079646353523" stroke="yellow" opacity="0.35" stroke-width="2"/><line x1="399.18304199316896" y1="616.7079646353523" x2="675.2835041189472" y2="403.71802722763823" stroke="yellow" opacity="0.35" stroke-width="2"/></svg>