<svg viewBox="0,0,955,1146" width="955" height="1146" style="width: 100%; height: auto;" xmlns="http://www.w3.org/2000/svg" xmlns:xlink="http://www.w3.org/1999/xlink"><rect width="955" height="1146" fill="black"/><g stroke="#000" stroke-opacity="0.2"><path d="M0,-13.34775705149959L2.9967581703553763,-4.1246837657014135L12.69447132175327,-4.124683765701414L4.848856575698947,1.5754890056530315L7.845614746054325,10.798562291451207L8.881784197001252e-16,5.098389520096762L-7.845614746054323,10.798562291451208L-4.848856575698946,1.5754890056530328L-12.694471321753271,-4.124683765701411L-2.9967581703553776,-4.124683765701413Z" transform="translate(801.9817927170868,842.5820500871814)rotate(5.1698195833198115)" fill="white" class="commune"><title>59036 Population : 4654</title></path><path d="M0,-18.876579049491834L4.238056047668955,-5.833183721955068L17.952693510379785,-5.833183721955069L6.857318731355415,2.2280779191642193L11.095374779024372,15.271473246700983L8.881784197001252e-16,7.210211605581696L-11.095374779024368,15.271473246700985L-6.857318731355414,2.2280779191642206L-17.952693510379788,-5.833183721955065L-4.238056047668956,-5.833183721955068Z" transform="translate(512.145191409897,812.9125601556298)rotate(25.78305233016684)" fill="white" class="commune"><title>59122 Population : 32668</title></path><path d="M0,-18.876579049491834L4.238056047668955,-5.833183721955068L17.952693510379785,-5.833183721955069L6.857318731355415,2.2280779191642193L11.095374779024372,15.271473246700983L8.881784197001252e-16,7.210211605581696L-11.095374779024368,15.271473246700985L-6.857318731355414,2.2280779191642206L-17.952693510379788,-5.833183721955065L-4.238056047668956,-5.833183721955068Z" transform="translate(448.34733893557427,673.4216495699002)rotate(2.5433389773592054)" fill="white" class="commune"><title>59178 Population : 39657</title></path><path d="M0,-22.448162112566994L5.039926405668234,-6.936863585267022L21.349470856006818,-6.936863585267023L8.154772225169292,2.649646114250548L13.19469863083753,18.16094464155052L8.881784197001252e-16,8.574434942032948L-13.194698630837525,18.160944641550522L-8.154772225169292,2.649646114250549L-21.34947085600682,-6.936863585267019L-5.0399264056682345,-6.936863585267021Z" transform="translate(627.9108309990663,687.9946397246567)rotate(5.901677145344956)" fill="white" class="commune"><title>59606 Population : 43680</title></path><path d="M0,-26.69551410299918L5.993516340710753,-8.249367531402827L25.38894264350654,-8.249367531402829L9.697713151397894,3.150978011306063L15.69122949210865,21.597124582902413L1.7763568394002505e-15,10.196779040193524L-15.691229492108645,21.597124582902417L-9.697713151397892,3.1509780113060657L-25.388942643506542,-8.249367531402822L-5.993516340710755,-8.249367531402825Z" transform="translate(129.78057889822583,240.44042844055366)rotate(29.8193872984201)" fill="white" class="commune"><title>59183 Population : 88108</title></path><path d="M0,-31.746495309942112L7.127532276258301,-9.810206562616676L30.192711234053977,-9.810206562616678L11.532589478897837,3.747165470262296L18.660121755156144,25.68345421758773L1.7763568394002505e-15,12.126082184708759L-18.660121755156137,25.683454217587734L-11.532589478897837,3.7471654702622983L-30.19271123405398,-9.81020656261667L-7.127532276258304,-9.810206562616674Z" transform="translate(429.7572362278245,506.6764062135444)rotate(10.035143285717085)" fill="white" class="commune"><title>59350 Population : 232440</title></path></g><text class="text" y="40" x="427.5" text-anchor="middle" font-size="36" font-family="Helvetica" fill="#6baed6">59 - NORD</text><line x1="782.6593526299408" y1="840.6040840917447" x2="531.467631497043" y2="814.8905261510665" stroke="yellow" opacity="0.35" stroke-width="2"/><line x1="507.8920012449422" y1="803.6131661165812" x2="452.6005291005291" y2="682.7210436089488" stroke="yellow" opacity="0.35" stroke-width="2"/><line x1="427.1095549330844" y1="644.5562348279437" x2="151.01836290071572" y2="269.3058431825101" stroke="yellow" opacity="0.35" stroke-width="2"/><line x1="149.77902272019907" y1="258.1894936254197" x2="409.75879240585124" y2="488.92734102867837" stroke="yellow" opacity="0.35" stroke-width="2"/><line x1="442.9674758792406" y1="518.7642884476186" x2="614.7005913476502" y2="675.9067574905825" stroke="yellow" opacity="0.35" stroke-width="2"/><line x1="639.5155617802677" y1="698.3004670821584" x2="790.3770619358854" y2="832.2762227296797" stroke="yellow" opacity="0.35" stroke-width="2"/></svg>