<svg viewBox="0,0,954,1144.8" width="954" height="1144.8" style="width: 100%; height: auto;" xmlns="http://www.w3.org/2000/svg" xmlns:xlink="http://www.w3.org/1999/xlink"><rect width="954" height="1144.8" fill="black"/><g stroke="#000" stroke-opacity="0.2"><path d="M0,-15.873247654971056L3.5637661381291506,-4.905103281308338L15.096355617026989,-4.905103281308339L5.766294739448918,1.873582735131148L9.330060877578072,12.841727108793865L8.881784197001252e-16,6.063041092354379L-9.330060877578068,12.841727108793867L-5.766294739448918,1.8735827351311491L-15.09635561702699,-4.905103281308335L-3.563766138129152,-4.905103281308337Z" transform="translate(469.3794434288036,604.2451162004872)rotate(6.317230439482789)" fill="white" class="commune"><title>insee_com : 60157 
Population : 10147
 Nom : CLERMONT</title></path><path d="M0,-15.873247654971056L3.5637661381291506,-4.905103281308338L15.096355617026989,-4.905103281308339L5.766294739448918,1.873582735131148L9.330060877578072,12.841727108793865L8.881784197001252e-16,6.063041092354379L-9.330060877578068,12.841727108793867L-5.766294739448918,1.8735827351311491L-15.09635561702699,-4.905103281308335L-3.563766138129152,-4.905103281308337Z" transform="translate(572.5170966213016,767.920865855609)rotate(0.4397467162926605)" fill="white" class="commune"><title>insee_com : 60612 
Population : 14277
 Nom : SENLIS</title></path><path d="M0,-22.448162112566994L5.039926405668234,-6.936863585267022L21.349470856006818,-6.936863585267023L8.154772225169292,2.649646114250548L13.19469863083753,18.16094464155052L8.881784197001252e-16,8.574434942032948L-13.194698630837525,18.160944641550522L-8.154772225169292,2.649646114250549L-21.34947085600682,-6.936863585267019L-5.0399264056682345,-6.936863585267021Z" transform="translate(721.1944613717924,568.1284509386751)rotate(6.190598720352174)" fill="white" class="commune"><title>insee_com : 60159 
Population : 40199
 Nom : COMPIEGNE</title></path><path d="M0,-22.448162112566994L5.039926405668234,-6.936863585267022L21.349470856006818,-6.936863585267023L8.154772225169292,2.649646114250548L13.19469863083753,18.16094464155052L8.881784197001252e-16,8.574434942032948L-13.194698630837525,18.160944641550522L-8.154772225169292,2.649646114250549L-21.34947085600682,-6.936863585267019L-5.0399264056682345,-6.936863585267021Z" transform="translate(265.61371792267573,557.2126512051182)rotate(8.347963591911373)" fill="white" class="commune"><title>insee_com : 60057 
Population : 56254
 Nom : BEAUVAIS</title></path></g><text class="text" y="40" x="427" text-anchor="middle" font-size="36" font-family="Helvetica" fill="#6baed6">60  - OISE</text><line x1="279.19809962308426" y1="560.3481488714762" x2="455.79506172839507" y2="601.1096185341293" stroke="yellow" opacity="0.35" stroke-width="2"/><line x1="486.1671112916695" y1="601.8373385163665" x2="704.4067935089265" y2="570.5362286227959" stroke="yellow" opacity="0.35" stroke-width="2"/><line x1="711.282637055093" y1="581.4479452664707" x2="582.4289209380009" y2="754.6013715278134" stroke="yellow" opacity="0.35" stroke-width="2"/><line x1="552.0568713747265" y1="753.8736515455763" x2="286.0739431692508" y2="571.2598655151509" stroke="yellow" opacity="0.35" stroke-width="2"/></svg>