<svg viewBox="0,0,600,600" width="600" height="600" style="width: 100%; height: auto;" xmlns="http://www.w3.org/2000/svg" xmlns:xlink="http://www.w3.org/1999/xlink"><rect width="752" height="902.4" fill="black"/><g stroke="#000" stroke-opacity="0.2"><path d="M0,-13.34775705149959L2.9967581703553763,-4.1246837657014135L12.69447132175327,-4.124683765701414L4.848856575698947,1.5754890056530315L7.845614746054325,10.798562291451207L8.881784197001252e-16,5.098389520096762L-7.845614746054323,10.798562291451208L-4.848856575698946,1.5754890056530328L-12.694471321753271,-4.124683765701411L-2.9967581703553776,-4.124683765701413Z" transform="translate(274.155579224906,441.7090613307628)rotate(23.269794892428553)" fill="white" class="commune"><title>07132 Population : 1660</title></path><path d="M0,-13.34775705149959L2.9967581703553763,-4.1246837657014135L12.69447132175327,-4.124683765701414L4.848856575698947,1.5754890056530315L7.845614746054325,10.798562291451207L8.881784197001252e-16,5.098389520096762L-7.845614746054323,10.798562291451208L-4.848856575698946,1.5754890056530328L-12.694471321753271,-4.124683765701411L-2.9967581703553776,-4.124683765701413Z" transform="translate(377.88729548658375,347.1916875274437)rotate(10.380746172133291)" fill="white" class="commune"><title>07186 Population : 8305</title></path><path d="M0,-15.873247654971056L3.5637661381291506,-4.905103281308338L15.096355617026989,-4.905103281308339L5.766294739448918,1.873582735131148L9.330060877578072,12.841727108793865L8.881784197001252e-16,6.063041092354379L-9.330060877578068,12.841727108793867L-5.766294739448918,1.8735827351311491L-15.09635561702699,-4.905103281308335L-3.563766138129152,-4.905103281308337Z" transform="translate(456.48265729577247,181.78798597944115)rotate(24.645728472499982)" fill="white" class="commune"><title>07324 Population : 10234</title></path></g><text class="text" y="25" x="326" text-anchor="middle" font-size="24" font-family="Helvetica" fill="#6baed6">07 - ARDECHE</text><line x1="281.0710269756845" y1="435.4079030772082" x2="370.9718477358052" y2="353.4928457809983" stroke="yellow" opacity="0.35" stroke-width="2"/><line x1="383.126986273863" y1="336.1647740909102" x2="451.2429665084932" y2="192.81489941597465" stroke="yellow" opacity="0.35" stroke-width="2"/><line x1="444.3275187577147" y1="199.11605766952925" x2="286.31071776296375" y2="424.38098964067467" stroke="yellow" opacity="0.35" stroke-width="2"/></svg>