<svg viewBox="0,0,954,1144.8" width="954" height="1144.8" style="width: 100%; height: auto;" xmlns="http://www.w3.org/2000/svg" xmlns:xlink="http://www.w3.org/1999/xlink"><rect width="954" height="1144.8" fill="black"/><path d="M197.5303933253872,378.0790475662361L196.04886769964196,377.0601995422039L195.24076281287216,376.65265750605613L195.24076281287216,375.83756858843844L194.70202622169245,375.83756858843844L194.70202622169245,373.59604075114476L194.4326579261019,368.7052649513935L191.33492252681708,368.9090519207675L189.85339690107276,368.2976898011402L189.7187127532775,367.27874485740904L189.17997616209732,367.48253465394373L188.77592371871197,366.87116405270353L188.50655542312188,367.07495465701504L188.91060786650723,367.89011303530424L189.3146603098926,368.9090519207675L188.37187127532707,368.9090519207675L186.75566150178747,367.48253465394373L187.02502979737756,367.07495465701504L186.21692491060685,366.2597898164531L187.02502979737756,365.64841194509063L187.96781883194217,366.46358163242985L189.3146603098926,365.4446185134584L189.85339690107276,364.221849441572L189.0452920143025,362.7952671458479L187.8331346841478,360.14584751245275L187.42908224076245,358.9230154249526L187.29439809296764,358.10778595367447L187.42908224076245,355.8658715780475L188.77592371871197,352.4009986590536L191.065554231227,348.9360089687252L191.60429082240717,348.32452807741356L190.39213349225247,346.6938945868751L189.4493444576874,346.2862321731227L188.50655542312188,346.2862321731227L187.15971394517237,346.2862321731227L186.35160905840212,346.082400360101L186.35160905840212,346.49006358202314L186.21692491060685,346.49006358202314L185.54350417163278,346.6938945868751L184.73539928486252,346.49006358202314L184.46603098927244,346.2862321731227L183.38855780691256,345.2670690666273L182.04171632896214,344.85940099511936L179.34803337306312,345.47090249616303L178.4052443384976,345.2670690666273L177.1930870083429,345.47090249616303L168.97735399284784,345.674735521563L167.63051251489833,345.87856814288534L163.58998808104843,347.9168721294409L162.37783075089374,348.32452807741356L165.87961859356346,339.9672580417973L162.1084624553041,337.5210992623033L161.3003575685334,336.0941464275529L160.3575685339688,335.07488227580325L158.47199046483865,334.46331893390743L156.3170441001189,334.25946367812867L153.6233611442185,333.24018133530626L155.64362336114345,328.3474854018132L156.18235995232362,327.32814443712414L156.18235995232362,326.10492193671234L155.91299165673354,322.43516709622054L155.239570917759,316.52250870715943L155.37425506555337,315.5030504706665L155.91299165673354,313.66800016417983L155.91299165673354,312.8524117338966L155.50893921334864,312.0368168318819L155.50893921334864,311.62901695395703L155.77830750893872,311.22121545800474L155.77830750893872,309.79389748023823L160.4922526817636,310.6095101802639L161.70441001191875,311.0173141032428L162.78188319427818,311.4251164081943L168.70798569725775,314.483582122848L170.05482717520863,312.0368168318819L173.825983313468,314.483582122848L178.27056019070278,315.2991576100467L178.67461263408768,311.4251164081943L179.21334922526785,301.4334941113193L179.75208581644756,299.8021165944374L182.1764004767574,293.6842202593107L183.52324195470783,289.40147611479915L184.0619785458871,285.52645856408344L185.13945172824742,282.0592137345666L185.2741358760427,281.0394135788374L185.2741358760427,277.775985067492L185.94755661501677,270.2289096470049L185.4088200238375,268.80102220860135L190.6615017878421,269.61696031746396L190.7961859356369,268.39305072437855L197.5303933253872,268.5970366689435L199.14660309892724,264.51724083031877L198.7425506555419,263.9052574820671L198.338498212157,263.9052574820671L197.1263408820023,263.70126222260296L197.1263408820023,261.66128735138045L198.0691299165669,261.66128735138045L199.82002383790132,257.1732000562479L201.57091775923618,257.1732000562479L201.70560190703145,253.50098280054226L208.70917759237136,253.50098280054226L211.13349225268166,254.31704242285923L211.94159713945146,254.31704242285923L212.34564958283636,254.113028125008L212.615017878426,254.52105631564336L212.88438617401607,254.31704242285923L214.2312276519665,254.92908288580657L214.3659117997613,255.54111970264057L214.90464839094102,255.745131164731L222.5816448152559,255.54111970264057L223.2550655542309,253.70499831385678L224.46722288438605,253.70499831385678L226.6221692491058,254.52105631564336L227.2955899880808,256.15315287347767L229.71990464839064,254.52105631564336L228.9117997616204,253.09295055866824L227.02622169249025,251.2567854153458L226.6221692491058,250.23667948869115L226.6221692491058,249.6246110707143L230.93206197854533,250.44070148438914L232.14421930870049,247.78838393697515L233.76042908224053,248.4004632948927L237.93563766388525,252.07286286384624L239.55184743742484,252.4808991572063L240.22526817640028,252.4808991572063L240.35995232419464,252.2768812131253L240.76400476758,252.2768812131253L240.76400476758,252.4808991572063L242.91895113229975,252.8889338299632L243.72705601907,253.29696688218974L244.8045292014299,255.745131164731L245.7473182359945,257.1732000562479L246.95947556614965,258.3972433074814L247.09415971394492,258.3972433074814L248.03694874850953,259.0092594644666L248.44100119189443,257.1732000562479L250.5959475566142,257.5812160936621L253.4243146603094,250.23667948869115L258.54231227651917,242.07546740015096L256.79141835518385,241.66738977613568L257.3301549463645,240.23910532596346L255.30989272943953,239.01484570580942L255.44457687723434,237.38247684913222L256.65673420738904,235.13792731618742L258.54231227651917,233.91360689909197L258.94636471990407,233.09738518077938L259.0810488676989,232.28115697683825L260.4278903456493,230.85274201323045L261.77473182359927,230.44461980373308L262.71752085816433,233.91360689909197L266.62336114421896,234.93387492670445L267.16209773539913,238.60675592343614L270.93325387365894,239.62697733966343L270.5292014302736,233.30144121841295L271.33730631704384,231.6689815674763L272.54946364719854,228.60804979450768L269.45172824791416,227.38365154524217L270.66388557806886,222.28183506798814L274.7044100119183,222.8940664252441L275.91656734207345,222.07775713798765L276.45530393325316,220.44511910043366L276.5899880810489,220.44511910043366L277.3980929678187,218.60837028783862L278.0715137067932,216.77158862854412L288.7115613825981,197.9937139324029L288.30750893921277,197.78958773500926L287.90345649582787,197.58546113182092L288.0381406436227,195.54417278389155L286.2872467222878,193.5028438592126L285.0750893921336,191.66561313210696L283.7282479141827,189.62420710553124L283.3241954707987,189.42006427087472L283.05482717520863,188.39934400987113L283.5935637663879,187.99105306454294L284.5363528009534,186.97031859883282L284.40166865315814,186.97031859883282L286.01787842669773,185.94957398663973L286.152562574493,186.15372372079582L288.30750893921277,184.52051448287966L290.73182359952307,182.07065191908623L291.00119189511315,181.45817714519217L291.53992848629287,181.45817714519217L291.80929678188295,181.25401807540038L291.2705601907028,180.84569871798158L290.73182359952307,179.2124050512357L290.3277711561377,178.3957484752027L288.57687723480285,176.35407861799467L287.90345649582787,175.53739930785378L287.7687723480326,174.92488556244643L287.0953516090585,173.69984710970311L286.6912991656732,172.06643976966734L286.4219308700831,171.45390531781595L285.2097735399284,170.63718703087943L284.6710369487482,169.82046224729856L283.9976162097728,169.2079143960873L282.3814064362332,168.18699318966537L281.842669845053,167.98280773020815L280.36114421930824,166.9618743417086L278.8796185935639,166.1451203215547L277.9368295589984,165.12416865924024L277.8021454112031,164.91997710851138L277.9368295589984,163.89901326315885L279.8224076281281,160.83606080911704L279.41835518474363,160.6318607297144L278.0715137067932,160.83606080911704L277.53277711561304,160.6318607297144L273.0882002383787,158.58983759742114L272.1454112038132,157.97722273752152L272.1454112038132,157.77301697182702L272.1454112038132,157.1603972377634L273.49225268176406,155.73093697491277L278.47556615017857,150.82977924711304L278.47556615017857,151.03399882421945L278.7449344457682,151.03399882421945L278.8796185935639,151.2382179950073L281.0345649582837,150.21711807839165L287.0953516090585,147.76643683908333L289.3849821215722,147.15375738784496L289.6543504171632,146.54107427997224L291.9439809296773,146.9495300915296L293.15613825983246,147.35798427789996L293.6948748510126,146.7453023889393L296.9272943980927,147.15375738784496L296.79261025029746,144.49877084359468L297.60071513706725,143.88607188945753L298.9475566150177,143.68183809207403L301.23718712753225,141.63947776940768L303.392133492252,143.27336927830765L305.1430274135869,144.29453826522513L308.51013110846225,145.72415778125287L309.04886769964196,146.13261684321333L309.18355184743723,146.7453023889393L309.85697258641176,151.2382179950073L321.84386174016663,151.44243675953476L325.61501787842644,144.90723478146538L326.42312276519624,144.70300301570387L326.82717520858114,143.88607188945753L328.7127532777113,142.0479530847224L327.09654350417077,139.80131873551L324.268176400476,135.10365165358235L324.80691299165665,133.26537557542906L325.74970202622126,133.6738842156483L326.01907032181134,133.0611206456524L327.7699642431462,134.08239123009844L330.1942789034556,133.8781379261345L330.86769964243103,134.28664412768558L330.59833134684095,133.0611206456524L330.05959475566124,132.03983989988046L330.7330154946362,130.20150895018014L332.21454112038055,127.5460838953586L337.0631704410007,123.46068042956176L337.60190703218086,124.07350131613202L342.5852205005958,120.19224056931853L343.25864123957035,118.55798160684935L344.0667461263406,116.51512130870833L345.1442193087005,117.12798366769857L346.22169249106037,118.35369740684109L346.6257449344457,119.37511434090266L350.93563766388525,121.21363920648582L350.3969010727051,122.4393041539588L357.2657926102502,125.70767245916068L363.05721096543493,116.51512130870833L365.077473182359,113.45075461702072L366.55899880810466,112.2249823208258L372.08104886769934,112.2249823208258L373.56257449344366,109.97769508609781L374.1013110846243,110.18199595907936L374.77473182359927,110.99919538409449L378.4112038140638,109.3647900268843L378.5458879618591,109.56909211998573L383.7985697258637,107.7303586400958L387.3003575685334,112.6335747129342L387.97377830750884,113.8593421291298L388.6471990464829,114.67651227331953L390.93682955899794,117.74084236702765L393.3611442193087,117.74084236702765L394.0345649582832,117.53655654055183L395.2467222884384,116.92369662135025L395.516090584028,117.12798366769857L395.65077473182373,116.51512130870833L396.72824791418316,115.69796580384718L397.2669845053633,115.08509490542929L397.2669845053633,114.47222034724837L396.18951132300344,112.02068551476987L396.3241954707978,111.4077926564205L397.40166865315814,110.18199595907936L397.94040524433785,109.97769508609781L398.61382598331284,109.3647900268843L399.4219308700831,106.3002098234283L400.0953516090585,104.87004107618122L400.4994040524425,104.66572962814826L400.23003575685243,104.66572962814826L399.55661501787836,104.87004107618122L397.40166865315814,104.46141777330195L397.94040524433785,102.21396052330965L398.479141835518,102.21396052330965L400.0953516090585,98.12754850722558L398.34445768772275,97.51457266947546L398.8831942789029,96.9015931700851L399.2872467222883,96.9015931700851L399.55661501787836,96.28861000911274L399.9606674612628,96.28861000911274L400.23003575685243,95.87995253418921L398.34445768772275,92.40629828767851L398.2097735399284,91.38461289508268L398.2097735399284,89.95423625527474L398.34445768772275,89.74989510764135L398.2097735399284,87.09342315694084L396.862932061978,82.80205395114899L396.5935637663879,82.39334276126465L395.65077473182373,81.78027292393381L392.14898688915355,80.5541222597385L391.07151370679367,79.94104143277218L394.842669845053,77.07994913568837L396.99761620977324,74.8318920738675L409.65792610250264,73.19691054467694L411.00476758045215,73.40128466064925L410.46603098927244,80.75848172130645L412.2169249106073,81.37155766389333L413.56376638855727,81.98462994337024L415.85339690107185,84.23253029517946L416.9308700834322,85.66298669684329L418.8164481525623,85.0499363951094L422.45292014302686,86.07168486311275L425.68533969010696,81.78027292393381L430.6686531585219,81.78027292393381L431.47675804529126,81.98462994337024L433.90107270560156,82.1889865557896L437.8069129916562,83.21076351300871L440.3659117997613,82.80205395114899L441.7127532777108,82.39334276126465L442.251489868891,84.436882430673L443.32896305125087,84.84558548062341L446.83075089392105,84.64123415914946L448.7163289630507,84.02817775269796L447.7735399284861,82.80205395114899L446.83075089392105,80.96284077588643L446.56138259833097,77.48868149136251L445.4839094159711,74.21877705362567L445.3492252681758,72.5837857540464L446.02264600715125,72.5837857540464L447.1001191895107,73.60565836958995L447.63885578069085,74.8318920738675L448.0429082240762,75.44500343021355L448.177592371871,75.85374229903391L448.3122765196663,75.85374229903391L450.19785458879596,76.67121515175677L450.7365911799757,77.48868149136251L450.87127532777095,78.30614131796756L450.46722288438605,81.16719942340569L450.7365911799757,82.1889865557896L451.0059594755653,82.59769855967897L452.3528009535157,83.00640893554373L453.6996424314657,85.25428690269473L454.1036948748506,86.88907631207258L453.5649582836704,89.54555355302L453.6996424314657,92.61063414548698L453.4302741358756,93.22363927753759L453.8343265792605,93.22363927753759L453.9690107270558,92.8149695963657L461.51132300357494,92.20196202295483L464.33969010727014,97.71889835555339L470.40047675804453,100.1707748559129L472.8247914183544,103.84847976827587L475.92252681763966,101.8053266442148L477.13468414779436,102.41827685270982L477.26936829558963,102.82690829105559L478.8855780691297,104.05279284341668L481.04052443384944,103.23553810227895L482.9261025029796,103.23553810227895L483.59952324195456,102.622592775253L488.85220500595915,103.23553810227895L489.52562574493413,103.43985239771428L493.02741358760386,105.89159221512091L493.566150178784,105.27866275201086L496.9332538736585,102.41827685270982L500.0309892729433,100.78373482756433L502.32061978545835,101.39669113799755L502.4553039332536,101.8053266442148L502.05125148986826,104.05279284341668L505.01430274135873,104.05279284341668L504.3408820023833,106.70882580474427L502.9940405244338,110.18199595907936L504.6102502979734,109.97769508609781L505.6877234803328,109.97769508609781L510.9404052443383,111.81638830197335L512.0178784266982,112.42927872019936L510.53635280095295,115.08509490542929L510.6710369487482,115.28938561155519L511.8831942789029,116.7194091683341L513.768772348033,117.74084236702765L513.6340882002378,118.14941280016501L514.8462455303929,118.55798160684935L516.7318235995226,119.78367826830072L517.9439809296778,121.21363920648582L519.1561382598325,123.66495446498448L520.0989272943975,124.27777413194417L519.9642431466027,124.89059013998485L520.5029797377829,126.11621117958566L522.1191895113225,127.95461529838212L522.6579261025026,128.36314507537463L522.6579261025026,128.77167322636524L524.5435041716328,131.01854899257887L522.7926102502979,133.6738842156483L523.7353992848625,134.89940038173518L521.8498212157324,136.32915074953053L521.3110846245522,136.32915074953053L521.0417163289621,136.94189481092326L520.5029797377829,136.94189481092326L520.3682955899881,137.35038881973014L519.8295589988074,137.55463521457568L519.2908224076273,138.1673719606042L519.1561382598325,138.57586109265685L518.752085816448,138.57586109265685L518.752085816448,138.98434859914414L518.3480333730631,138.78010504912527L517.9439809296778,138.98434859914414L517.2705601907023,140.00556025361584L517.0011918951122,139.80131873551L516.8665077473179,140.20980136541766L516.462455303933,140.20980136541766L516.462455303933,140.6182823698182L516.0584028605481,140.6182823698182L515.9237187127528,140.82252226243145L515.6543504171627,141.02676174875523L515.5196662693679,141.4352395022288L514.9809296781882,141.63947776940768L513.768772348033,142.4564267746464L513.6340882002378,142.8648988391651L513.2300357568529,142.8648988391651L512.1525625744925,144.70300301570387L511.61382598331284,144.90723478146538L510.6710369487482,144.70300301570387L509.9976162097728,144.90723478146538L510.26698450536287,146.13261684321333L510.6710369487482,146.54107427997224L511.0750893921331,147.15375738784496L510.80572109654304,148.1748877751088L511.0750893921331,149.60445325325418L513.6340882002378,155.5267267411691L514.5768772348029,157.1603972377634L515.6543504171627,158.38563305031857L516.3277711561382,159.81505635072244L517.1358760429075,161.24445974934497L518.2133492252678,160.01925805471546L519.0214541120372,159.40665172427543L520.0989272943975,158.79404173840885L530.2002383790223,155.3225161011651L536.1263408820023,152.66774081571202L538.011918951132,151.44243675953476L540.5709177592366,150.01289687627286L543.6686531585215,147.9706625102699L546.4970202622162,145.72415778125287L547.574493444577,144.70300301570387L546.2276519666261,154.09724373083736L546.6317044100115,156.54777384801127L548.2479141835511,162.06125275626255L549.3253873659114,167.77862186463608L554.8474374255061,167.98280773020815L561.5816448152559,166.3493094357109L563.3325387365908,166.1451203215547L563.6019070321809,165.94093080125458L564.9487485101308,160.01925805471546L564.814064362336,159.202448801836L566.4302741358756,158.9982454731944L566.6996424314657,157.56881080000312L567.5077473182355,155.3225161011651L569.3933253873661,152.46352448860125L568.7199046483906,150.62555926377536L563.8712753277705,152.66774081571202L561.7163289630512,150.01289687627286L563.4672228843856,148.78756113197596L563.3325387365908,148.58333708597638L564.9487485101308,147.15375738784496L565.2181168057205,146.54107427997224L565.2181168057205,146.54107427997224L567.103694874851,144.49877084359468L563.4672228843856,139.59707681102736L566.0262216924903,137.55463521457568L566.2955899880803,137.96312678500544L567.3730631704411,136.7376471968455L567.9117997616204,137.14614201852237L569.1239570917755,136.12490191627876L571.817640047675,132.44835341761063L570.2014302741354,131.83558253137744L572.0870083432651,128.36314507537463L574.7806912991655,129.7929864901671L575.45411203814,128.36314507537463L576.5315852204999,127.13755086633319L576.3969010727051,126.72901621114579L577.6090584028602,124.89059013998485L577.2050059594753,124.27777413194417L576.80095351609,122.84785588388331L575.9928486293197,121.21363920648582L576.6662693682952,121.62219581528916L579.4946364719899,122.84785588388331L581.3802145411196,124.27777413194417L582.7270560190696,125.70767245916068L585.2860548271742,129.58872465036984L586.363528009535,130.4057695705269L589.4612634088194,132.44835341761063L593.2324195470792,137.55463521457568L593.0977353992844,137.96312678500544L593.2324195470792,138.57586109265685L595.1179976162093,140.00556025361584L594.1752085816443,141.84371563026798L595.2526817640041,142.8648988391651L596.4648390941593,143.27336927830765L596.5995232419546,143.06913426193933L600.7747318235993,145.72415778125287L601.1787842669837,145.72415778125287L602.7949940405247,145.51992764075112L604.1418355184742,144.90723478146538L605.4886769964237,142.8648988391651L608.3170441001189,143.88607188945753L608.5864123957085,143.27336927830765L616.8021454112031,148.99178477172973L620.5733015494629,150.21711807839165L623.9404052443383,141.23100082865858L628.9237187127524,137.96312678500544L628.9237187127524,133.8781379261345L637.5435041716328,133.8781379261345L638.7556615017875,171.04554698635184L639.5637663885577,187.17446630372433L645.2205005959472,187.7869069830922L647.375446960667,188.19519874011166L648.5876042908221,185.74542384661618L658.8235995232417,189.21592103036528L660.9785458879614,185.13297099119518L663.268176400476,186.15372372079582L663.9415971394515,184.9288192276581L665.4231227651962,185.54127330066694L667.8474374255061,181.66233580904373L675.6591179976158,185.3371223488939L677.4100119189502,177.3749186211935L680.2383790226454,177.57908540389326L681.4505363528006,173.49567261326592L685.0870083432651,173.90402120018553L685.0870083432651,174.31236816309683L690.3396901072706,174.92488556244643L690.3396901072706,174.92488556244643L693.5721096543498,174.72071350199985L693.9761620977351,179.4165681803861L693.9761620977351,181.25401807540038L693.8414779499399,182.07065191908623L693.3027413587597,183.09143509062415L694.3802145411205,183.49974551785272L694.2455303933252,183.7039001226658L695.1883194278903,184.11220811454405L695.4576877234799,183.09143509062415L696.4004767580445,183.29559050718672L696.9392133492252,183.09143509062415L696.9392133492252,183.9080543215823L699.0941597139449,185.13297099119518L700.1716328963043,185.3371223488939L698.9594755661496,187.3786136026756L696.6698450536346,190.0324915574456L698.2860548271747,191.86975150278886L705.6936829558999,185.54127330066694L710.2729439809286,182.8872792681068L714.313468414779,181.25401807540038L716.3337306317039,180.64153843042732L726.0309892729433,178.3957484752027L727.3778307508933,178.19158331629296L732.3611442193087,176.35407861799467L733.7079856972582,178.59991322815767L735.3241954707978,179.2124050512357L737.6138259833128,178.19158331629296L737.3444576877228,181.45817714519217L735.9976162097732,183.7039001226658L736.132300357568,184.52051448287966L736.8057210965435,185.94957398663973L737.3444576877228,185.74542384661618L738.2872467222883,188.19519874011166L739.6340882002378,190.84905559131585L741.2502979737774,193.70697857772757L744.0786650774726,197.1772067083075L744.6174016686527,197.78958773500926L746.9070321811673,198.40196511003887L747.5804529201428,198.60609009026666L747.7151370679376,197.58546113182092L746.6376638855777,196.973078887866L746.5029797377829,196.36069299216615L747.0417163289626,195.54417278389155L746.5029797377829,194.7276460833382L745.5601907032178,193.91111289040418L745.5601907032178,193.09457320488582L745.4255065554225,192.89043726904492L744.3480333730627,192.27802702666668L743.6746126340877,191.66561313210696L744.2133492252678,190.44077438602108L744.2133492252678,190.0324915574456L743.2705601907028,186.97031859883282L743.405244338498,185.54127330066694L744.2133492252678,183.49974551785272L743.8092967818825,182.47896640538238L743.6746126340877,180.84569871798158L744.2133492252678,180.64153843042732L747.0417163289626,184.52051448287966L747.8498212157328,183.7039001226658L748.1191895113225,183.7039001226658L748.2538736591173,183.49974551785272L749.6007151370677,184.52051448287966L749.0619785458875,185.54127330066694L751.8903456495827,186.15372372079582L752.1597139451728,185.54127330066694L751.7556615017875,185.54127330066694L752.4290822407629,183.9080543215823L754.5840286054827,184.72466705819534L754.9880810488671,183.9080543215823L755.1227651966619,183.9080543215823L755.1227651966619,183.7039001226658L754.9880810488671,183.7039001226658L755.1227651966619,183.09143509062415L754.5840286054827,182.8872792681068L751.8903456495827,182.27480936520442L750.2741358760422,181.86649406702782L748.6579261025026,180.84569871798158L749.6007151370677,179.6207309035526L750.812872467222,180.02905513212318L751.8903456495827,177.57908540389326L754.7187127532779,179.00824151611596L759.5673420738972,179.4165681803861L760.1060786650773,174.92488556244643L763.4731823599523,174.31236816309683L764.1466030989268,173.08732240229438L766.301549463647,172.4747940407833L766.301549463647,170.024644052246L767.1096543504168,168.79954713174084L767.5137067938022,167.77862186463608L768.8605482717517,167.57443559303647L770.0727056019064,170.43300644400006L769.938021454112,173.49567261326592L770.3420738974974,173.69984710970311L771.2848629320615,173.49567261326592L773.4398092967817,172.88314668783278L775.3253873659114,171.86226202503894L776.941597139451,171.86226202503894L776.941597139451,171.65808387442667L780.3087008343259,171.45390531781595L781.6555423122763,171.24972635510494L782.0595947556608,171.45390531781595L786.7735399284861,170.84136721164396L788.3897497020257,170.22882545118046L792.8343265792605,168.18699318966537L803.474374255065,163.08223487687064L818.8283671036938,155.73093697491277L819.0977353992844,156.13935622386634L821.9261025029796,154.70988174396916L823.9463647199041,156.54777384801127L823.5423122765192,160.6318607297144L825.966626936829,159.40665172427543L826.5053635280092,157.36460422200616L827.0441001191884,156.95618984739122L834.8557806912986,168.59536289042444L835.1251489868887,175.12905721693824L836.7413587604283,189.62420710553124L837.1454112038136,193.09457320488582L838.0882002383792,195.34004171738343L836.8760429082236,195.54417278389155L837.1454112038136,196.36069299216615L837.8188319427886,196.973078887866L838.8963051251485,197.78958773500926L839.5697258641235,198.40196511003887L840.3778307508928,199.830831451196L841.7246722288437,201.87203459531884L840.1084624553037,202.28027035570994L839.3003575685334,202.28027035570994L837.8188319427886,202.89262095358572L837.9535160905839,203.09673700819258L838.0882002383792,203.09673700819258L839.3003575685334,203.50496790032776L840.9165673420734,203.30085265706293L842.5327771156135,202.89262095358572L844.0143027413587,207.7912942993571L846.4386174016681,207.7912942993571L849.1323003575685,208.4036120387609L849.2669845053633,211.66924499541346L850.479141835518,211.87334360757086L853.0381406436231,211.66924499541346L852.6340882002378,215.13886624397128L853.442193087008,215.3429579614167L853.3075089392132,216.56749974984268L852.768772348033,217.17976516926137L851.6912991656736,217.17976516926137L851.2872467222883,217.7920269389433L849.805721096543,217.58794008793484L849.6710369487482,218.4042850588594L851.2872467222883,219.62879034985963L851.9606674612633,220.44511910043366L853.442193087008,224.3225920675177L854.3849821215726,225.9551684744365L855.1930870083429,227.58771893363155L855.7318235995231,228.81211475047166L856.2705601907023,228.40398443315644L856.1358760429075,228.19991866641794L860.1764004767579,226.56737793736102L860.1764004767579,226.36330852180254L861.6579261025026,225.75109784262895L862.1966626936824,228.40398443315644L862.0619785458875,230.64868111116812L862.3313468414776,233.50549685068836L862.6007151370673,233.91360689909197L862.8700834326573,233.50549685068836L864.3516090584026,232.4852146358462L867.3146603098921,229.83243344922084L868.1227651966624,229.01617930100474L869.2002383790227,227.17958375137823L870.412395709177,228.19991866641794L873.1060786650773,230.85274201323045L873.2407628128722,230.85274201323045L872.4326579261019,232.28115697683825L870.6817640047675,234.52576893169316L871.3551847437425,235.54603087918076L872.1632896305118,237.38247684913222L872.5673420738972,239.01484570580942L872.702026221692,239.01484570580942L873.1060786650773,239.01484570580942L874.5876042908221,237.99461821015575L876.4731823599518,237.38247684913222L876.338498212157,239.01484570580942L876.2038140643617,239.2188899890316L876.338498212157,240.44314717754605L876.6078665077471,240.64718862378504L874.5876042908221,241.05527030052326L874.7222884386169,242.07546740015096L875.2610250297971,241.87142879076418L875.7997616209764,242.07546740015096L877.2812872467221,242.6875807968463L878.7628128724668,243.29969054623507L880.1096543504163,244.9319653807761L880.7830750893918,245.1359979115805L881.7258641239569,246.36018458653416L882.3992848629314,247.58435667393496L882.264600715137,248.19643724741763L881.7258641239569,248.808514174234L879.5709177592366,250.44070148438914L880.6483909415965,251.46080538524257L882.8033373063167,251.46080538524257L886.1704410011916,251.66482494991214L885.9010727056016,253.29696688218974L887.6519666269364,253.29696688218974L887.5172824791412,251.46080538524257L896.0023837902258,249.21656343282666L895.867699642431,246.97227245366958L900.1775923718706,246.36018458653416L902.3325387365912,246.36018458653416L902.6019070321809,244.9319653807761L907.4505363528006,244.72793244480272L907.4505363528006,245.1359979115805L910.2789034564958,244.3198653571162L914.9928486293202,244.5238991035585L915.3969010727055,245.3400300370995L917.0131108462451,245.95212398239528L918.3599523241946,247.38032900574035L920.7842669845049,248.4004632948927L923.8820023837902,249.21656343282666L923.6126340882001,250.23667948869115L922.9392133492247,254.31704242285923L921.3230035756851,255.745131164731L928.3265792610246,270.6368738419842L928.9999999999995,271.04483641717525L927.65315852205,272.67667052046454L927.9225268176401,272.8806479611667L927.5184743742548,273.49257785387454L926.5756853396892,274.30847870859725L925.4982121573298,273.28860162787896L921.72705601907,273.08462499694724L920.5148986889149,273.28860162787896L913.9153754469603,275.532317843652L913.2419547079849,275.9402609828394L912.7032181168051,276.55217265494866L912.1644815256254,276.9601117452985L911.3563766388552,277.775985067492L909.6054827175203,278.59185191181314L909.2014302741354,279.20374779398844L908.7973778307501,281.65129488674575L908.5280095351609,282.67108897009166L908.5280095351609,284.09878368467616L909.0667461263401,287.36201140766207L909.6054827175203,288.38174882059684L910.5482717520854,289.19753146542644L910.2789034564958,292.0527197256597L910.1442193087005,292.46059728726686L909.2014302741354,292.8684732300753L907.8545887961855,294.7038949402777L906.3730631704411,295.92749120283406L905.1609058402855,295.92749120283406L904.3528009535162,295.1117619798024L902.7365911799752,294.90782866236987L901.2550655542309,294.90782866236987L899.234803337306,293.88815600489033L898.6960667461262,293.27634755409963L896.6758045292013,289.80936419921636L894.924910607866,286.3422638755874L893.1740166865306,283.89482851127104L891.6924910607859,280.4275286274642L891.557806912991,279.81564003255335L891.557806912991,279.20374779398844L891.288438617401,278.3878858079988L891.0190703218118,277.775985067492L890.2109654350415,276.9601117452985L889.5375446960661,277.1640806831856L888.9988081048868,276.75614240259165L888.4600715137067,276.9601117452985L886.4398092967817,278.59185191181314L884.284862932062,280.83545233322366L883.8808104886766,282.2631725511892L883.8808104886766,283.89482851127104L883.3420738974964,287.15806271076144L881.8605482717517,290.217250664733L880.9177592371866,291.2369597458164L880.7830750893918,291.2369597458164L879.974970202622,291.0330187390209L879.7056019070319,290.8290773275803L879.1668653158522,289.60542035938124L878.4934445768768,288.9935864113213L877.685339690107,285.52645856408344L874.4529201430269,286.75016410276294L873.9141835518467,286.95411360914295L874.8569725864122,290.01330763437727L873.3754469606674,290.6251355113345L871.7592371871269,292.0527197256597L871.8939213349217,292.0527197256597L871.7592371871269,292.46059728726686L867.8533969010718,299.5981925840024L867.4493444576874,298.3746400242817L867.3146603098921,300.821730577125L866.2371871275323,301.63741448019573L865.6984505363521,302.2491731590999L860.4457687723475,305.30791193385085L865.0250297973771,310.4056076120323L858.5601907032174,315.09526434497093L865.0250297973771,322.43516709622054L866.9106078665077,324.47393595971516L867.1799761620973,325.0855587337428L869.0655542312275,326.92040522099705L872.8367103694873,326.92040522099705L873.1060786650773,326.71653500644607L873.2407628128722,326.92040522099705L873.3754469606674,327.32814443712414L873.9141835518467,327.32814443712414L875.2610250297971,326.71653500644607L876.4731823599518,326.71653500644607L877.4159713945173,326.92040522099705L877.685339690107,329.162950895814L878.0893921334914,330.5899999446701L877.1466030989272,331.2015863298002L873.1060786650773,334.6671737854922L870.0083432657921,337.9287964342657L871.4898688915378,338.13264441395586L872.702026221692,338.9480322905147L871.2205005959477,341.59799822609057L869.8736591179968,345.0632352329121L868.7961859356374,344.85940099511936L868.5268176400473,344.45173130706826L868.3921334922525,344.85940099511936L870.0083432657921,346.8977251875622L868.5268176400473,347.7130435492436L869.8736591179968,349.54748622317857L868.6615017878426,349.95513570574985L868.3921334922525,351.9933588741551L868.3921334922525,351.9933588741551L868.5268176400473,354.84680342870706L869.738974970202,354.84680342870706L870.412395709177,357.088740024803L870.6817640047675,357.088740024803L870.8164481525623,358.31159392750124L870.8164481525623,360.5534549764998L870.412395709177,364.01805318256083L869.6042908224067,364.01805318256083L869.3349225268171,366.0559975965298L864.2169249106073,364.221849441572L862.7353992848625,368.2976898011402L858.0214541120372,367.07495465701504L854.9237187127528,365.8522049727617L854.2502979737774,365.4446185134584L854.1156138259826,365.64841194509063L852.2300357568529,364.83323579515854L850.0750893921327,363.8142565195885L848.189511323003,364.01805318256083L846.4386174016681,364.6294407478854L842.2634088200239,366.87116405270353L840.7818831942782,368.0939016201446L839.3003575685334,369.31662464783585L834.5864123957085,372.37336860877986L835.529201430274,374.00359490128176L836.4719904648382,374.8186983558553L843.6102502979734,383.98816705435456L844.1489868891535,384.3956800207088L847.2467222884379,388.4707208722393L849.1323003575685,388.4707208722393L849.4016686531586,388.67446867625404L849.536352800953,391.1194108396012L849.536352800953,392.54560025986575L848.189511323003,404.97298533524736L868.2574493444572,408.84350352641195L870.8164481525623,413.9360687316075L872.702026221692,423.50940882197756L870.6817640047675,432.06355474342126L870.6817640047675,432.2672162152594L869.4696066746124,437.9695737431175L868.6615017878426,442.65341670853377L868.9308700834326,443.46797632728703L866.6412395709176,444.2825294970389L866.3718712753275,444.6898036636121L865.9678188319422,445.09707621799316L865.9678188319422,445.3007118906535L864.3516090584026,444.6898036636121L863.6781883194271,445.91161649026617L862.6007151370673,447.1334148076712L861.5232419547078,446.9297827623086L859.2336114421928,451.20597108289076L859.6376638855777,453.44580832560314L858.6948748510126,454.05666456601466L857.3480333730631,455.07475024122687L854.1156138259826,456.0928258430213L854.2502979737774,456.5000532632548L853.5768772348033,456.7036663689796L850.6138259833128,458.9433839400881L847.7854588796181,460.3686333756923L846.9773539928483,460.5722388263821L846.7079856972582,459.7578146063024L846.4386174016681,459.554207544119L846.1692491060785,458.53616618968954L843.7449344457686,460.1650275221036L842.8021454112031,460.5722388263821L838.3575685339692,463.2190730246366L837.9535160905839,466.27302788682573L838.7616209773532,467.2909926998691L839.3003575685334,468.51253718309454L839.1656734207386,472.1770836323558L839.7044100119188,474.41646444550133L840.6471990464829,476.04507442959584L843.0715137067932,478.0808006663283L843.4755661501786,478.89507988572586L843.4755661501786,479.9129198497685L843.8796185935635,481.3378788875707L843.6102502979734,482.55925664523966L843.4755661501786,483.7806199079787L843.206197854588,483.7806199079787L843.4755661501786,486.0197482449148L851.825983313468,485.8161931363866L855.7318235995231,485.6126376253087L854.6543504171627,490.70140462777636L849.805721096543,490.0907658722426L848.0548271752082,490.2943125266029L846.8426698450535,490.70140462777636L845.7651966626931,491.51558399952773L844.1489868891535,491.7191278360988L839.3003575685334,492.7368409810733L840.5125148986881,496.1969904033467L840.7818831942782,498.435848633977L841.5899880810484,500.8781838911964L841.3206197854583,502.30285269561864L841.1859356376635,502.30285269561864L840.9165673420734,504.3380596392235L840.6471990464829,504.5415781203337L840.5125148986881,505.96619622127037L840.2431466030989,505.96619622127037L840.2431466030989,508.0013307345944L834.8557806912986,511.6644714655995L834.1823599523236,511.8679754617915L833.3742550655538,514.106492867897L830.1418355184742,519.8043175292405L821.656734207389,530.7920888789376L821.5220500595942,532.6232700958062L820.983313468414,535.8786229528778L820.7139451728249,535.8786229528778L820.5792610250296,536.895899612311L820.4445768772348,537.5062607834552L819.9058402860546,537.9131662206637L819.3671036948745,538.32007004974L818.8283671036938,538.5235213612032L818.5589988081042,538.7269722706842L818.4243146603098,539.3373225869L817.8855780691297,540.3545650735905L817.7508939213344,541.3717975101317L817.4815256257443,541.7786876707687L816.8081048867698,541.5752427914122L814.9225268176397,541.5752427914122L813.03694874851,540.7614592542232L812.6328963051246,543.2027905702271L813.03694874851,544.4234345212462L813.03694874851,545.4406267597078L813.3063170440996,545.4406267597078L812.9022646007147,548.085279551975L813.710369487485,548.288711568588L816.8081048867698,548.288711568588L819.0977353992844,547.4749810904614L820.983313468414,547.4749810904614L825.293206197854,547.4749810904614L828.3909415971393,547.8818471334234L827.1787842669842,550.7298644190741L825.966626936829,554.5949047422764L824.6197854588795,556.4256626820134L823.676996424314,557.8495630212419L824.4851013110847,558.4597999965044L822.3301549463645,561.5109306291706L823.4076281287239,562.3245501966885L821.656734207389,564.3585709919134L820.4445768772348,562.3245501966885L817.7508939213344,565.1721680609044L816.8081048867698,565.7823616444657L820.8486293206188,568.8332753293944L818.6936829558995,571.680713223599L817.0774731823594,571.0705545882956L815.7306317044095,573.5111674397776L815.8653158522047,573.5111674397776L815.1918951132293,575.3415891223995L815.9999999999995,575.5449673011753L815.0572109654349,578.5955917890969L814.7878426698448,579.815816283517L813.710369487485,579.6124465383618L810.8820023837902,579.2057058434148L809.9392133492247,583.8831268567446L812.9022646007147,584.4932095892873L812.6328963051246,586.3234361046634L812.3635280095345,586.3234361046634L811.69010727056,590.3904897035827L810.747318235995,590.5938381679734L811.016686531585,592.8306447804353L809.5351609058393,593.0339884274727L810.6126340881997,597.1007770688011L810.3432657926096,597.1007770688011L810.3432657926096,600.150763183352L811.4207389749699,600.7607495692937L812.0941597139445,600.7607495692937L816.2693682955892,600.7607495692937L816.8081048867698,601.5740591316717L819.3671036948745,601.9807115047879L820.7139451728249,601.1674051531736L820.4445768772348,601.1674051531736L822.4648390941597,599.9474335852865L823.2729439809291,600.150763183352L824.0810488676993,600.9640775619337L824.4851013110847,600.7607495692937L825.4278903456488,601.3707323430717L825.6972586412389,602.3873622725514L825.1585220500588,602.7940114349622L825.293206197854,604.8272331674962L824.3504171632894,605.4371918616816L824.7544696066748,607.0637307223078L823.1382598331338,607.4703614245373L826.3706793802144,616.4158308102051L824.3504171632894,617.0257208919211L825.0238379022644,618.4487837080669L831.6233611442185,616.0092354165536L833.7783075089392,622.7178542182955L834.0476758045293,625.1572436592105L833.3742550655538,627.3932999090175L833.1048867699637,629.8325786528876L832.566150178784,631.6619998125243L832.0274135876039,632.6783308655286L832.0274135876039,633.2881246851757L831.7580452920142,633.897914895846L828.256257449344,637.5565803741483L831.6233611442185,640.8086184061249L831.3539928486289,642.0281062069698L830.6805721096543,642.841090056012L829.8724672228841,644.6702802642685L826.7747318235988,651.3770332320564L826.5053635280092,651.9867164026655L826.5053635280092,653.2060719224683L826.6400476758045,654.8318568383256L827.4481525625738,658.4897791211697L827.4481525625738,658.8962069156114L826.2359952324191,659.505845601816L824.6197854588795,660.3186915734259L820.983313468414,662.1475715683628L815.7306317044095,666.4148320093082L817.3468414779495,668.4467986899544L817.7508939213344,669.2595741447585L817.8855780691297,670.4787253086979L818.0202622169245,673.5265401254001L819.6364719904645,676.7774432567094L817.3468414779495,678.1996811334247L814.9225268176397,680.0282438523573L820.5792610250296,687.7484843764687L816.2693682955892,692.4209806398721L817.2121573301542,693.0304210595787L818.2896305125146,693.6398578761582L819.2324195470792,693.8430026809656L821.1179976162089,694.0461470854061L821.656734207389,694.2492910895671L821.9261025029796,694.6555778968032L822.4648390941597,695.8744287104928L823.1382598331338,696.8901267130568L815.5959475566146,702.7809777825896L818.6936829558995,707.4527927279996L820.0405244338494,710.7026260875573L821.656734207389,713.7492518241343L820.983313468414,714.3585661677062L813.3063170440996,718.2174733870779L810.747318235995,722.0762361770467L811.69010727056,722.8885888884106L811.8247914183544,722.685501310596L812.4982121573298,723.0916760661348L812.7675804529199,722.685501310596L815.4612634088194,724.3101907321252L814.3837902264595,725.9348545526736L818.4243146603098,728.3718022840039L817.4815256257443,729.7933285289764L820.983313468414,731.8240463113034L822.5995232419546,733.2455249627237L822.0607866507744,733.8547241001943L823.2729439809291,735.0731115776725L820.3098927294395,737.306784562621L821.1179976162089,738.1190172880451L818.5589988081042,740.1495711112657L819.7711561382594,741.3678842124937L821.7914183551843,743.1953268758807L823.1382598331338,744.2105588064442L821.2526817640041,747.0531550394662L820.983313468414,747.662272609392L818.9630512514891,749.8956729176425L815.5959475566146,754.3623284317146L814.1144219308694,756.5955836433568L816.1346841477948,757.6106836617982L816.8081048867698,756.5955836433568L817.7508939213344,757.6106836617982L820.983313468414,759.4378385168966L821.2526817640041,760.0468829416932L822.3301549463645,760.2498969506851L823.5423122765192,761.061948990493L820.983313468414,766.5431330257707L823.4076281287239,766.9491350702447L822.5995232419546,768.3701296400686L822.3301549463645,769.385113775119L821.7914183551843,769.7911046324298L822.7342073897498,770.400087921982L822.0607866507744,774.2568985922117L822.7342073897498,774.4598846326408L822.5995232419546,775.8807757301547L820.1752085816447,777.504627302711L819.5017878426693,777.7076069517498L826.9094159713941,778.9254764579819L830.8152562574487,780.9552270145359L834.3170441001189,781.7671160536702L836.4719904648382,781.9700873149995L850.8831942789029,807.135429116126L866.5065554231223,823.5707658413739L877.011918951132,834.9319373543112L876.8772348033372,835.1348040494486L860.1764004767579,829.8601403523935L854.3849821215726,829.2515079600416L848.7282479141832,829.6572632871685L842.8021454112031,828.2371126616927L842.9368295589979,829.6572632871685L842.5327771156135,831.0773943675304L842.6674612634079,831.4831425149896L842.2634088200239,831.6860159903881L841.0512514898683,833.917597896143L841.7246722288437,834.7290702603059L836.4719904648382,839.1920542035077L832.9702026221689,841.017764731514L831.8927294398086,841.8291812650859L830.1418355184742,843.6548451390845L827.8522050059591,845.4804767161258L825.8319427890342,846.6975464921561L825.0238379022644,847.3060759977961L824.2157330154942,847.9146019151958L822.4648390941597,850.1458329143352L821.656734207389,850.7543420876318L817.3468414779495,852.782680086515L813.5756853396897,846.9003900594107L811.8247914183544,845.0747836011287L806.437425506555,847.1032332279719L802.9356376638857,847.7117603414226L800.5113230035754,847.1032332279719L798.4910607866505,846.4947025262518L796.3361144219307,846.0890133983048L791.3528009535157,843.857694686958L789.7365911799752,849.7401581389131L784.887961859356,852.5798480805097L782.0595947556608,855.0138058436569L779.9046483909415,856.2307632003212L778.5578069129915,857.8533506881213L784.6185935637659,863.532206020871L787.9856972586404,866.9799300382438L788.6591179976158,867.3855370573147L788.9284862932059,867.993944597285L789.3325387365912,868.1967463136534L789.8712753277705,868.8051490720973L790.4100119189507,869.210748918762L793.2383790226459,872.0499032195949L785.830750893921,876.5112736337614L784.887961859356,877.5251945640484L780.9821215733014,880.1613423750823L775.1907032181161,883.6085110148415L773.5744934445765,884.419592789418L772.4970202622162,885.4334360461362L771.4195470798568,886.0417372208467L770.3420738974974,886.4472693459538L767.2443384982116,886.6500348110858L763.3384982121565,886.2445034825068L758.6245530393321,886.6500348110858L757.681764004767,886.8527998779755L756.4696066746124,887.6638561629079L756.0655542312275,887.8666192384844L754.8533969010718,887.8666192384844L754.0452920143025,887.6638561629079L752.6984505363525,887.8666192384844L751.082240762812,888.069381915775L750.0047675804526,888.8804286426603L748.9272943980923,889.0831893287977L748.1191895113225,889.4887095063168L743.405244338498,893.341071747258L742.7318235995231,893.7465751997952L743.0011918951127,893.9493263288023L746.3682955899876,903.4781802743237L746.772348033373,904.4918363859906L747.5804529201428,905.5054825458064L742.1930870083429,906.9245704510249L742.0584028605476,903.0727150430321L739.9034564958279,902.8699818302994L739.4994040524425,903.6809122928098L738.152562574493,903.4781802743237L738.4219308700831,902.8699818302994L738.2872467222883,902.4645142105292L738.8259833134684,901.4508381944324L738.0178784266982,900.8426278075058L736.9404052443383,900.2344138375192L734.3814064362332,902.667248219499L731.9570917759233,904.289105959775L730.2061978545885,906.3163923085667L729.8021454112036,906.1136654649745L729.3980929678182,906.3163923085667L724.2800953516085,909.9654074283171L722.3945172824788,911.7898666286783L718.892729439809,915.6413968537672L722.3945172824788,919.8981841734058L723.7413587604283,920.9116790990374L726.8390941597136,919.8981841734058L729.1287246722286,918.0738682388328L733.5733015494629,925.1682491642277L735.0548271752082,923.5467193525401L736.2669845053633,924.7628690984566L736.9404052443383,924.9655593302596L738.152562574493,925.370938600332L736.5363528009534,931.8567905037926L733.842669845053,936.5182449601853L730.0715137067937,935.3022336481226L729.3980929678182,934.8968933621363L728.5899880810484,934.2888799501961L725.896305125148,931.0460812929232L720.2395709177586,941.1794890181773L718.2193087008336,946.4484681117028L719.2967818831944,951.3119025470805L720.6436233611439,955.9724789942265L723.202622169249,961.4433221518702L722.6638855780689,962.8616415968718L722.5292014302736,964.2799415670888L724.2800953516085,971.3711493216251L722.5292014302736,969.7503447524796L720.912991656734,968.9399329310545L717.5458879618591,965.2930010513955L716.8724672228841,965.0903899493569L714.313468414779,965.698222063118L712.1585220500592,966.5086593177693L709.1954707985692,966.9138755606255L707.1752085816443,966.7112676378747L705.96305125149,966.1034414853057L701.1144219308699,966.3060506002075L699.9022646007147,966.7112676378747L698.2860548271747,966.7112676378747L698.016686531585,967.1164830859198L697.3432657926096,967.5216969443718L696.6698450536346,967.5216969443718L695.4576877234799,967.1164830859198L692.8986889153748,967.5216969443718L691.41716328963,968.3321198924677L688.8581644815249,969.3451396365126L686.2991656734207,971.3711493216251L685.3563766388552,971.9789444786293L684.4135876042906,972.9919284600619L682.3933253873656,974.0049025081389L681.8545887961859,974.2074961257167L680.1036948748506,974.0049025081389L677.9487485101308,973.1945240643545L674.8510131108455,972.7893324584729L673.5041716328956,971.9789444786293L672.5613825983314,970.358149446125L669.4636471990457,967.5216969443718L668.5208581644815,968.3321198924677L669.7330154946362,970.1555482789408L670.4064362336112,970.9659505634481L670.5411203814065,971.1685501412139L670.6758045292013,972.9919284600619L671.2145411203805,974.8152745946136L671.2145411203805,976.4359996966377L671.0798569725857,976.8411769991071L670.5411203814065,977.4489399730519L670.1370679380211,978.4618703173037L669.4636471990457,978.6644551942882L669.7330154946362,978.8670396739908L670.2717520858164,978.8670396739908L670.6758045292013,979.2722074416815L670.4064362336112,979.879956113582L670.5411203814065,980.2851199085562L670.1370679380211,980.2851199085562L669.867699642431,980.690282114505L669.598331346841,982.1083373218571L669.598331346841,982.3109150482051L670.6758045292013,983.7289480103063L670.6758045292013,983.9315225588216L670.4064362336112,984.1340967101132L670.2717520858164,985.146961508508L669.867699642431,985.146961508508L670.0023837902263,985.5521046474169L670.6758045292013,986.7675245312712L672.0226460071508,988.3880621339631L672.8307508939215,989.1983214031352L673.6388557806908,989.6034486547142L674.3122765196658,990.211136553422L675.5244338498205,992.4392949351313L675.7938021454106,993.4520783142361L677.1406436233606,993.6546337986656L677.4100119189502,995.0725110708445L678.0834326579256,996.085268637893L678.3528009535157,996.2878189600015L678.7568533969011,996.2878189600015L679.1609058402855,995.68016680234L679.4302741358756,995.68016680234L680.1036948748506,996.6929184130277L680.7771156138256,997.3005646144156L681.0464839094157,997.3005646144156L681.4505363528006,996.8954675439309L681.7199046483906,996.8954675439309L682.1239570917755,997.3005646144156L681.9892729439803,997.9082072421734L681.9892729439803,998.3133003419935L682.9320619785453,999.3260261428659L680.9117997616204,1000.3387420174695L676.8712753277705,1002.9717568378983L677.6793802145403,1004.5920403009659L678.6221692491058,1008.2375851970573L679.1609058402855,1008.8451635085949L677.0059594755658,1009.6552623665339L677.2753277711558,1010.2628323421668L675.6591179976158,1010.8703987453046L675.2550655542304,1014.3132075534813L673.7735399284857,1013.705661392989L671.3492252681758,1011.0729200858623L667.4433849821212,1013.705661392989L667.578069129916,1014.3132075534813L666.5005959475566,1014.5157221465342L666.2312276519665,1014.7182363426546L664.3456495828368,1017.3508847765333L663.6722288438614,1016.7433564756648L662.7294398092963,1015.325776549842L660.7091775923714,1016.7433564756648L659.9010727056011,1016.9458663061378L658.958283671037,1017.9584095057071L657.3420738974964,1018.1609169550211L656.6686531585219,1017.7559016594896L655.8605482717512,1018.3634240074753L655.1871275327771,1017.9584095057071L654.3790226460069,1017.5533934164123L653.9749702026215,1017.5533934164123L651.8200238379018,1018.1609169550211L647.375446960667,1019.375953317227L645.085816448152,1020.1859696218598L637.9475566150172,1023.2234742171859L636.6007151370673,1021.6034828771517L636.1966626936824,1021.8059831834544L634.0417163289621,1016.7433564756648L628.9237187127524,1020.3884727059485L626.2300357568529,1022.6159804407071L622.7282479141827,1024.0334603639494L622.4588796185926,1023.0209766884655L619.8998808104884,1019.578457988624L620.5733015494629,1018.9709427838679L616.9368295589984,1014.920750141915L618.6877234803333,1013.705661392989L615.5899880810489,1011.680481725838L612.8963051251485,1010.667877007887L609.6638855780684,1010.2628323421668L609.9332538736589,1007.4274752243655L609.3945172824783,1007.4274752243655L609.2598331346835,1008.035058299356L608.3170441001189,1008.035058299356L606.296781883194,1008.4401116978843L606.1620977353991,1006.0097674886929L604.0071513706789,1006.8198885766324L600.640047675804,1008.4401116978843L600.9094159713936,1007.2249467387301L598.8891537544687,1001.1489075702848L597.1382598331343,997.3005646144156L595.5220500595942,993.2495224326267L595.3873659117994,993.4520783142361L594.4445768772343,991.0213815249153L592.9630512514891,987.780363511818L591.3468414779495,985.3495332765451L590.6734207389745,985.7546756210213L589.5959475566142,985.957246197504L582.053635280095,987.375229111145L582.8617401668648,985.7546756210213L583.2657926102502,983.9315225588216L583.1311084624549,981.9057591982855L582.8617401668648,980.0825382096809L582.8617401668648,977.4489399730519L583.6698450536346,974.6126821689977L581.3802145411196,973.8023084931483L580.1680572109653,977.854113302601L579.76400476758,980.8928626215493L577.2050059594753,980.8928626215493L577.2050059594753,976.2334104494366L576.2622169249098,976.4359996966377L576.1275327771154,975.6256403240986L568.4505363528006,979.879956113582L567.2383790226459,976.8411769991071L561.3122765196658,979.0696237564698L561.7163289630512,982.7160693092301L560.7735399284857,982.7160693092301L560.6388557806904,983.121221981346L559.2920143027409,982.513492377373L557.2717520858159,986.5649555436248L556.598331346841,988.9957571816049L555.3861740166863,991.8316201421112L554.4433849821207,991.8316201421112L554.1740166865306,992.0341788035585L553.2312276519665,993.8571888860024L551.8843861740165,997.5031125540991L551.2109654350415,997.3005646144156L550.268176400476,999.1234817767836L550.8069129916562,999.5285701119137L550.8069129916562,1000.1361996366177L550.4028605482713,1000.7438255879388L550.5375446960661,1000.9463667776581L549.0560190703213,1004.1869718172238L548.1132300357567,1005.4021725044877L546.7663885578063,1008.035058299356L547.1704410011916,1008.4401116978843L547.0357568533964,1008.6426378016913L546.2276519666261,1009.6552623665339L545.5542312276516,1009.2502137314877L544.0727056019068,1012.2880397935369L543.8033373063167,1013.3006286348245L542.1871275327771,1016.5408462482883L544.4767580452913,1018.1609169550211L543.3992848629314,1019.578457988624L539.628128724672,1023.2234742171859L538.2812872467221,1025.045934119742L537.7425506555419,1024.4384510566015L536.7997616209768,1023.8309644224646L533.028605482717,1022.8184787629725L532.085816448152,1022.4134817216254L531.1430274135869,1022.0084830930136L529.7961859356369,1020.5909753932501L525.7556615017875,1018.7684369219205L523.8700834326573,1017.7559016594896L521.8498212157324,1016.1358246029558L521.7151370679376,1015.1232635443012L518.078665077473,1014.920750141915L518.2133492252678,1016.1358246029558L514.3075089392132,1014.7182363426546L507.0345649582837,1016.9458663061378L506.7651966626936,1013.5031452123367L502.58998808104843,1013.9081771767087L502.8593563766385,1010.667877007887L499.49225268176315,1011.2754410294292L498.6841477949938,1014.7182363426546L496.66388557806886,1015.325776549842L493.566150178784,1020.1859696218598L495.4517282479137,1021.4009821739746L496.7985697258641,1022.0084830930136L495.586412395709,1023.8309644224646L495.8557806912986,1025.653413611828L493.7008343265793,1024.8434401621344L493.02741358760386,1027.0708518731553L488.98688915375396,1025.855905982331L484.4076281287239,1036.7899048430118L483.59952324195456,1038.0047222016728L481.4445768772348,1041.041703128678L480.36710369487446,1040.2318502737762L478.8855780691297,1041.244165350843L470.40047675804453,1044.685962449541L470.6698450536346,1042.0540102736268L470.6698450536346,1040.636777494452L469.8617401668653,1037.397315307273L469.9964243146601,1036.7899048430118L471.3432657926096,1033.9552754740434L472.42073897496994,1029.905670073349L472.1513706793803,1025.045934119742L472.28605482717467,1024.2359559086908L471.74731823599495,1024.0334603639494L474.4410011918949,1015.5282891584211L476.05721096543493,1011.680481725838L480.09773539928483,1007.4274752243655L478.0774731823599,1007.4274752243655L476.4612634088194,1007.8325310046203L471.61263408820014,1007.630003312981L467.70679380214506,1008.035058299356L463.6662693682956,1008.035058299356L460.70321811680515,1008.035058299356L465.14779499403994,998.5158462962572L465.41716328963,998.7183918535302L468.5148986889144,991.6290610835422L470.6698450536346,984.1340967101132L471.74731823599495,981.0954427314136L472.01668653158504,980.0825382096809L471.3432657926096,979.0696237564698L471.74731823599495,977.854113302601L469.3230035756851,976.8411769991071L469.8617401668653,975.8282307632326L467.8414779499403,975.0178666229913L467.97616209773514,974.6126821689977L467.437425506555,974.4100893459981L465.95589988080974,977.6515268365038L468.5148986889144,978.6644551942882L467.57210965435024,980.690282114505L465.2824791418352,979.4747907295678L465.41716328963,979.2722074416815L463.53158522050035,978.2592850430083L463.39690107270553,978.4618703173037L460.4338498212155,975.8282307632326L458.54827175208584,978.0566993714747L457.8748510131104,978.6644551942882L457.33611442193023,978.2592850430083L456.3933253873656,979.4747907295678L455.18116805721047,978.6644551942882L454.7771156138256,979.0696237564698L455.85458879618545,979.879956113582L457.8748510131104,981.703180677403L455.85458879618545,984.9443893432472L452.487485101311,984.9443893432472L453.02622169249025,983.9315225588216L449.79380214541106,981.703180677403L449.5244338498205,981.703180677403L448.98569725864036,982.513492377373L446.9654350417154,981.2980224439816L448.851013110846,977.4489399730519L447.63885578069085,974.2074961257167L445.4839094159711,974.8152745946136L443.8676996424306,970.7633505884005L441.7127532777108,967.3190902138158L435.651966626936,969.3451396365126L433.4970202622162,972.9919284600619L429.9952324195465,971.5737481046381L430.53396901072665,968.7373289822863L430.6686531585219,965.698222063118L426.62812872467157,965.0903899493569L426.76281287246684,964.0773284779134L425.5506555423117,962.8616415968718L426.49344457687675,959.0118720780738L419.2205005959472,956.3777365730202L419.3551847437425,950.0960654081719L415.0452920143025,950.0960654081719L412.4862932061974,950.7039857667405L412.2169249106073,953.5409001293301L416.5268176400473,955.3645896446396L413.42908224076245,962.4564094569796L406.425506555423,967.1164830859198L406.425506555423,968.1295147515484L403.86650774731834,969.9529467143875L403.3277711561377,969.1425364824536L399.55661501787836,971.5737481046381L397.80572109654304,972.9919284600619L398.0750893921331,973.3971192712634L397.13230035756806,975.0178666229913L393.3611442193087,975.4230494877265L393.49582836710306,979.4747907295678L394.0345649582832,979.4747907295678L394.1692491060785,981.5006017592823L393.8998808104884,982.513492377373L393.0917759237186,983.3237977215758L393.49582836710306,984.3366704642394L389.45530393325316,987.5777965100424L385.6841477949938,992.0341788035585L385.28009535160845,992.236737067913L385.4147794994037,993.0469661539537L385.01072705601837,996.6929184130277L385.14541120381364,997.5031125540991L385.54946364719854,997.7056600966898L386.49225268176406,997.0980162777123L388.37783075089374,995.2750633784308L388.6471990464829,995.2750633784308L389.45530393325316,996.4903688850318L389.58998808104843,997.3005646144156L389.45530393325316,998.3133003419935L387.97377830750884,1001.7565275660454L387.70441001191875,1002.7692196185089L387.70441001191875,1003.3768300857191L387.97377830750884,1003.5793661141361L388.2431466030989,1005.4021725044877L387.5697258641235,1005.1996400490607L387.43504171632867,1005.1996400490607L384.7413587604283,1013.705661392989L384.202622169249,1013.705661392989L383.93325387365894,1015.1232635443012L383.7985697258637,1017.7559016594896L383.2598331346835,1017.3508847765333L379.0846245530388,1014.110692563554L376.52562574493413,1012.4905583556538L372.21573301549415,1009.4527382474917L371.2729439809291,1008.6426378016913L370.4648390941593,1010.0603094139369L369.5220500595942,1012.0855208345893L368.4445768772348,1014.110692563554L368.7139451728249,1014.5157221465342L368.04052443384944,1015.1232635443012L357.93921334922516,1012.4905583556538L356.59237187127474,1012.4905583556538L355.91895113229975,1012.0855208345893L351.0703218116805,1010.8703987453046L348.7806912991655,1010.4653548734495L348.10727056019005,1008.4401116978843L345.0095351609052,1008.4401116978843L344.4707985697255,1012.4905583556538L345.1442193087005,1016.5408462482883L347.0297973778306,1024.2359559086908L347.29916567342025,1024.2359559086908L347.4338498212155,1025.4509208445234L349.7234803337301,1032.7404105152964L350.93563766388525,1032.9428890001727L356.8617401668648,1031.525531275489L358.2085816448148,1035.3725998768787L358.2085816448148,1035.777546136218L359.15137067937985,1039.4219910730462L360.4982121573298,1042.6613898014912L360.9022646007147,1044.2810510925337L358.0738974970195,1044.2810510925337L356.18831942788984,1044.078594819206L349.05005959475557,1042.8638488508877L347.0297973778306,1042.6613898014912L335.31227651966583,1042.2564705128752L322.247914183552,1042.6613898014912L316.18712753277714,1043.4712236196792L312.6853396901065,1043.8761381492368L301.91060786650723,1045.6982339021633L288.84624553039293,1047.1153972805623L291.2705601907028,1035.9800186708744L293.29082240762773,1026.0583979560324L292.88676996424283,1026.2608895329613L288.17282479141795,1026.2608895329613L283.4588796185926,1025.4509208445234L281.842669845053,1025.4509208445234L280.7651966626936,1026.0583979560324L278.6102502979729,1027.47583066269L276.5899880810489,1028.6907575093355L275.10846245530365,1030.3106377542426L273.8963051251485,1031.323050013758L273.8963051251485,1031.525531275489L274.03098927294377,1032.335452355488L273.222884386174,1032.7404105152964L273.222884386174,1032.7404105152964L273.49225268176406,1032.9428890001727L273.6269368295584,1033.9552754740434L273.6269368295584,1034.3602272868156L273.3575685339688,1034.562702598152L273.49225268176406,1034.9676520308567L273.3575685339688,1035.1701261521812L271.8760429082231,1036.5874338949943L270.7985697258637,1037.397315307273L270.66388557806886,1037.8022536334756L269.85578069129815,1038.207190373214L268.912991656734,1038.6121255263133L267.83551847437457,1039.0170590929483L267.7008343265793,1039.2195252813399L266.4886769964237,1039.8269214666507L266.3539928486289,1040.0293860685488L265.6805721096539,1040.4343140824058L265.54588796185953,1041.041703128678L265.1418355184742,1041.041703128678L265.1418355184742,1040.4343140824058L264.8724672228841,1040.636777494452L264.7377830750888,1041.244165350843L264.06436233611385,1041.4466271764686L263.2562574493445,1042.458930355453L262.44815256257425,1042.6613898014912L262.58283671036907,1043.268765759989L262.1787842669837,1044.078594819206L262.0441001191889,1044.888417533235L261.2359952324191,1045.6982339021633L260.96662693682947,1045.4957804047735L260.6972586412394,1045.6982339021633L260.5625744934441,1047.1153972805623L260.8319427890342,1048.9374359304202L260.6972586412394,1049.1398826866207L259.8891537544696,1049.9496657464042L259.8891537544696,1050.152110520081L260.02383790226395,1050.7594424620038L260.5625744934441,1051.569212833565L257.4648390941593,1051.9740956403548L253.96305125148956,1053.1887345451105L251.67342073897498,1053.3911729748506L246.15137067937985,1053.5936110081238L233.76042908224053,1052.7838564961276L230.39332538736608,1052.7838564961276L228.9117997616204,1052.7838564961276L222.31227651966583,1051.9740956403548L218.54112038140602,1051.7716544351715L211.13349225268166,1050.354554897218L210.1907032181166,1051.9740956403548L209.9213349225265,1054.8082308821176L210.05601907032133,1058.6544329929166L209.78665077473124,1059.666567657434L210.05601907032133,1060.6786924117769L208.97854588796145,1061.0835395387403L205.61144219308653,1062.7029121910746L201.84028605482627,1066.143994849088L198.7425506555419,1068.370516708761L195.1060786650769,1072.2162142459565L192.54707985697223,1070.7993949554657L192.81644815256186,1069.5849629655277L189.7187127532775,1067.965698119384L190.93087008343218,1064.7270923329197L186.35160905840212,1065.1319236049894L185.2741358760427,1065.1319236049894L182.5804529201423,1064.7270923329197L178.67461263408768,1063.7150072165095L173.69129916567317,1062.9053319889208L172.7485101311081,1065.9415813929081L167.63051251489833,1065.5367532916716L167.22646007151297,1068.7753337129107L155.77830750893872,1069.787369287893L155.50893921334864,1071.6090083562449L152.68057210965435,1070.5969906145037L150.39094159713932,1070.3945858773368L150.52562574493413,1069.1801491318474L150.12157330154923,1069.3825562468119L149.98688915375396,1071.6090083562449L146.4851013110847,1071.6090083562449L146.35041716328942,1067.358467262893L144.0607866507744,1068.7753337129107L143.11799761620978,1067.965698119384L141.09773539928483,1068.370516708761L139.75089392133486,1068.572925408982L137.86531585220428,1068.370516708761L136.3837902264595,1068.1681076122477L131.8045292014299,1067.7632882302132L131.8045292014299,1067.5608779446775L126.82121573301492,1065.9415813929081L126.82121573301492,1067.965698119384L114.96901072705577,1064.7270923329197L114.16090584028552,1067.358467262893L106.07985697258573,1066.7512328394369L106.214541120381,1064.9295081671007L102.84743742550609,1064.9295081671007L104.05959475566124,1059.2617149809084L105.40643623361075,1055.415535466862L108.50417163289603,1055.6179695355531L113.75685339690062,1056.225269362898L116.18116805721047,1050.7594424620038L114.83432657926096,1049.9496657464042L113.21811680572091,1049.3423290463688L107.29201430274088,1049.1398826866207L105.67580452920083,1053.9984858853713L104.86769964243103,1054.8082308821176L101.3659117997613,1054.8082308821176L103.25148986889099,1047.7227470659564L100.82717520858114,1047.3178476055618L98.13349225268121,1048.1276449402212L93.28486293206197,1050.152110520081L91.39928486293138,1045.4957804047735L90.72586412395685,1041.4466271764686L90.86054827175167,1041.4466271764686L89.9177592371866,1037.599784668695L89.64839094159652,1037.599784668695L89.10965435041635,1035.3725998768787L88.03218116805692,1031.1205683552544L89.24433849821207,1030.5131209995598L89.51370679380125,1029.905670073349L84.66507747318246,1027.6783194623567L86.01191895113197,1025.653413611828L85.60786650774708,1025.4509208445234L86.14660309892679,1024.6409458077396L85.20381406436172,1023.425971349061L93.9582836710365,1016.3383356240811L99.48033373063117,1012.8955942890607L99.07628128724627,1012.2880397935369L102.03933253873629,1010.2628323421668L102.03933253873629,1010.0603094139369L104.46364719904614,1008.6426378016913L105.8104886769961,1011.2754410294292L105.8104886769961,1012.6930765208235L105.40643623361075,1015.1232635443012L111.87127532777095,1014.920750141915L111.73659117997568,1012.8955942890607L111.33253873659032,1013.0981116603652L112.00595947556576,1003.3768300857191L114.29558998808034,1003.1742936603405L105.54112038140602,993.8571888860024L111.6019070321804,987.5777965100424L116.45053635280055,983.3237977215758L107.56138259833097,971.3711493216251L102.84743742550609,965.4956117559632L100.42312276519579,962.0511757272907L97.72943980929631,957.1882469603443L100.82717520858114,955.1619590664341L99.61501787842644,953.7435338878713L106.34922526817627,950.5013460447808L105.13706793802066,945.6378734397731L106.214541120381,945.4352237776911L105.27175208581593,937.5315767826833L103.52085816448107,931.4514366939256L104.32896305125132,931.0460812929232L103.52085816448107,927.8031808021333L106.34922526817627,926.5870668622665L105.94517282479092,925.9790045215632L108.23480333730595,924.3574874412589L109.0429082240762,924.1547960158496L108.63885578069085,923.7494119715266L108.77353992848612,923.7494119715266L108.63885578069085,923.5467193525401L109.98569725864081,922.5332502895908L114.56495828367088,919.6954839945247L118.20143027413542,918.4792745652812L119.81764004767547,917.4657557647442L122.24195470798486,915.4386883183615L123.58879618593528,914.0197174277419L124.39690107270553,913.2088681634195L125.60905840286023,912.1952976285684L123.3194278903452,911.3844340368814L120.62574493444527,910.7762821640936L120.0870083432651,910.3708455922315L119.00953516090522,908.9518050532788L118.20143027413542,906.7218448016065L117.6626936829557,904.6945664140658L118.33611442193023,904.4918363859906L118.60548271752032,902.2617798035208L116.45053635280055,901.6535741938133L114.02622169249025,901.4508381944324L109.98569725864081,901.6535741938133L111.6019070321804,899.8289358669717L113.487485101311,898.6124924002797L112.67938021454074,894.5575773266173L113.21811680572091,894.5575773266173L113.35280095351527,893.7465751997952L114.69964243146569,894.1520770595816L115.23837902264586,892.7328135820426L115.50774731823594,891.1107742870954L115.6424314660303,889.6914689976838L113.08343265792564,889.6914689976838L112.67938021454074,886.8527998779755L113.21811680572091,886.8527998779755L113.89153754469544,884.8251312869688L112.94874851013083,884.8251312869688L113.21811680572091,882.1891025748046L109.98569725864081,881.7835537214269L109.44696066746064,879.1474473378039L108.23480333730595,879.1474473378039L108.23480333730595,878.5391055353248L103.65554231227634,877.9307601476903L103.65554231227634,878.3363241377665L102.03933253873629,878.5391055353248L100.82717520858114,878.7418865344953L100.82717520858114,877.5251945640484L95.30512514898646,877.727977555056L94.90107270560156,875.4973427441146L96.65196662693643,875.4973427441146L97.05601907032133,872.0499032195949L97.5947556615015,870.4275388958922L99.34564958283636,870.6303358308942L100.01907032181134,868.8051490720973L101.7699642431462,864.1406362747512L103.25148986889099,860.692817411822L104.5983313468414,861.0984491383715L105.13706793802066,858.4618144194828L103.52085816448107,850.7543420876318L103.65554231227634,848.9288038039958L104.19427890345605,847.1032332279719L108.63885578069085,840.6120540721895L109.44696066746064,839.1920542035077L108.50417163289603,838.7863363663055L110.79380214541106,834.7290702603059L106.61859356376635,835.3376703458198L105.00238379022585,835.7434017420746L104.19427890345605,835.540536243323L100.15375446960661,834.5262027675199L96.51728247914116,833.1061191506014L94.09296781883131,831.4831425149896L89.24433849821207,829.4543858230172L84.12634088200184,828.0342324053781L82.51013110846225,827.8313517501665L75.6412395709176,825.396752772649L75.50655542312234,825.599638214786L69.5804529201423,825.396752772649L64.05840286054809,826.0054079023976L60.15256257449346,827.4255892430083L59.88319427890292,828.0342324053781L54.226460071512975,829.2515079600416L49.377830750893736,831.0773943675304L48.97377830750838,830.8745196954842L48.7044100119183,831.4831425149896L46.28009535160845,830.2658932862541L46.81883194278862,829.6572632871685L43.58641239570852,826.0054079023976L49.512514898689005,816.2664949553291L40.21930870083406,812.4112546156684L42.508939213349095,804.7003417342785L45.471990464838655,805.3091189681145L46.95351609058389,805.3091189681145L48.7044100119183,804.9032678780641L48.83909415971357,796.7859107713884L51.93682955899885,796.9888524834969L52.20619785458848,797.394734710062L58.94040524433785,798.206494372469L59.88319427890292,792.1181411994912L60.28724672228827,786.0294286713906L58.80572109654304,786.6383160968544L58.67103694874777,785.8264653974911L57.86293206197843,786.0294286713906L57.59356376638834,784.2027448298468L56.38140643623319,784.8116430379159L55.573301549463395,782.5789987025346L55.03456495828323,781.7671160536702L57.72824791418316,779.9403567289264L55.30393325387331,776.8956859588507L55.30393325387331,774.8658555149741L56.65077473182282,774.8658555149741L56.38140643623319,773.4449504358927L57.99761620977324,773.2419623981259L58.67103694874777,768.9791213196877L54.361144219308244,768.3701296400686L63.25029797377783,754.9714028310409L59.613825983312836,753.347196438961L58.80572109654304,754.565353631202L57.054827175208175,753.5502236368775L55.169249106078496,754.9714028310409L53.55303933253845,755.7834964345966L53.55303933253845,755.1744268314796L49.91656734207345,752.7381124469102L52.07151370679321,749.4896037320432L47.8963051251485,747.459233819216L48.83909415971357,743.1953268758807L48.7044100119183,743.1953268758807L49.377830750893736,740.3526242943626L48.97377830750838,740.1495711112657L49.377830750893736,738.1190172880451L46.28009535160845,736.4945454392L43.855780691298605,734.6669840180984L46.41477949940372,729.5902545509889L42.77830750893827,727.7625707509433L44.52920143027404,724.5132751097553L45.202622169249025,722.4824133327929L35.10131108462383,721.2638770650665L36.17878426698417,716.592687951852L29.84862932061924,715.1709796907671L30.387365911799407,712.1243959687272L29.04052443384944,711.9212871861673L29.44457687723434,710.7026260875573L27.154946364719308,710.0932901360793L26.75089392133441,711.9212871861673L27.154946364719308,711.9212871861673L26.75089392133441,713.1399338794145L25,712.9368270975247L26.34684147794951,706.4371987931227L27.424314660308937,706.6403183805378L29.57926102502961,698.9214926950226L25,697.9058147077885L25.808104886769343,693.8430026809656L26.616209773539595,693.8430026809656L26.88557806912968,690.795788571224L29.04052443384944,690.795788571224L29.309892729439525,689.1705708783993L25.808104886769343,688.764262451281L33.88915375446959,681.4504368726775L35.10131108462383,679.4187265506334L39.276519666268996,674.33927552143L41.70083432657884,675.1520045085636L42.23957091775901,673.9329086245416L45.87604290822355,675.5583665987797L46.41477949940372,673.729724575227L49.512514898689005,674.7456408160506L49.78188319427818,673.1201700240053L50.32061978545835,669.6659594685043L49.647199046483365,665.398833645042L49.647199046483365,664.1796223863494L52.07151370679321,657.4737026223593L51.93682955899885,657.2704861203674L49.512514898689005,656.0511786928837L49.91656734207345,654.222190500659L49.91656734207345,650.970575780957L50.32061978545835,648.7350311415794L50.859356376638516,645.6864830157865L51.398092967818684,643.6540674907737L54.49582836710306,634.3044396979822L57.99761620977324,626.9867478368542L59.07508939213312,623.9375561586057L60.01787842669819,621.9047115691646L64.05840286054809,617.6356073630304L66.88676996424283,615.3993393170676L68.2336114421928,613.9762343764451L67.69487485101263,611.9431932153966L66.48271752085793,612.3498046574387L65.53992848629287,610.3167313980375L65.94398092967776,610.1134218652442L64.73182359952307,608.8935562422848L66.34803337306266,608.4869311578659L67.15613825983291,607.6736761737557L67.69487485101263,607.6736761737557L67.96424314660271,607.6736761737557L68.09892729439753,607.6736761737557L68.36829558998761,607.8769905216759L68.6376638855777,607.8769905216759L68.77234803337296,607.4703614245373L68.90703218116778,607.4703614245373L69.17640047675786,607.4703614245373L69.5804529201423,607.0637307223078L69.31108462455222,606.6570984148566L69.31108462455222,606.2504645023437L69.04171632896305,606.0471469440963L69.17640047675786,605.6405106237653L68.90703218116778,605.4371918616816L68.90703218116778,604.8272331674962L68.2336114421928,604.4205920315726L67.0214541120381,602.1840370893042L66.88676996424283,601.7773855189298L67.0214541120381,599.3374423830246L70.79261025029746,595.6774193086021L72.4088200238375,595.4740808800561L73.48629320619739,594.6607231519447L74.69845053635254,594.457382716384L75.50655542312234,594.2540418793651L76.31466030989213,593.2373316730227L76.71871275327749,592.4239562821022L77.12276519666239,592.4239562821022L77.12276519666239,592.0172661780525L77.52681764004728,591.6105744681263L77.2574493444572,591.4072280110122L77.52681764004728,589.7804419015156L77.2574493444572,589.1703904862516L76.58402860548222,588.1536300978041L76.71871275327749,587.5435690469167L77.2574493444572,587.1368596721732L79.14302741358733,588.3569829784828L79.00834326579206,588.5603354576888L79.27771156138215,588.7636875353346L80.89392133492174,589.1703904862516L81.56734207389718,588.9670392115077L82.64481525625752,587.3402145603322L82.51013110846225,584.8999294033565L82.77949940405188,584.2898490799853L84.39570917759193,583.0696775917895L85.74255065554189,582.4595864268776L86.95470798569704,581.6461259186035L88.03218116805692,580.629291248144L88.57091775923664,579.815816283517L88.57091775923664,579.4090763917047L88.97497020262199,578.5955917890969L89.64839094159652,577.7821007610037L90.32181168057195,576.9686033072649L92.61144219308653,577.375352837349L95.03575685339638,577.1719782731379L95.9785458879619,577.1719782731379L97.72943980929631,577.9854741204472L97.32538736591141,581.0360263209877L96.65196662693643,581.0360263209877L96.65196662693643,581.8494916479685L96.51728247914116,582.6629505500459L100.15375446960661,582.2562219021202L100.82717520858114,582.0528569758608L106.48390941597108,580.425923109331L106.75327771156117,581.6461259186035L108.10011918951068,583.8831268567446L109.71632896305073,583.4764030273363L111.33253873659032,582.4595864268776L110.79380214541106,580.629291248144L110.6591179976158,578.1888470782433L110.92848629320588,576.7652279398462L110.38974970202571,576.7652279398462L109.58164481525591,576.9686033072649L109.44696066746064,575.7483450783038L109.0429082240762,573.1044026477321L109.851013110846,572.4942524473736L110.92848629320588,570.0536154959264L111.19785458879596,568.0197071844159L110.2550655542309,568.2230998232408L110.2550655542309,567.4095268577948L109.58164481525591,564.7653703299293L109.0429082240762,564.5619708617742L108.90822407628093,564.9687693962915L107.69606674612578,564.7653703299293L107.4266984505357,564.1551707202598L108.90822407628093,563.7483689717628L108.77353992848612,562.9347606537485L108.36948748510076,562.5279540841148L106.214541120381,561.1041184347996L104.86769964243103,559.6802630980237L102.1740166865311,558.256388073205L101.3659117997613,558.0529757481709L100.01907032181134,558.4597999965044L98.67222884386138,559.2734436713799L96.38259833134634,559.6802630980237L95.9785458879619,560.2904892245424L95.57449344457655,560.9007117348956L95.57449344457655,561.1041184347996L96.51728247914116,562.1211459074984L98.67222884386138,563.7483689717628L99.34564958283636,565.1721680609044L99.34564958283636,565.3755663238408L98.40286054827129,566.5959474648989L98.5375446960661,570.2570041177387L95.9785458879619,567.8163141438854L94.7663885578063,567.00273796478L92.34207389749645,565.7823616444657L89.51370679380125,564.1551707202598L88.301549463647,563.951770046915L87.49344457687675,563.951770046915L86.01191895113197,562.5279540841148L84.93444576877164,561.7143361237395L82.77949940405188,560.9007117348956L82.51013110846225,560.0870809174812L82.24076281287216,559.476853585642L81.702026221692,559.476853585642L80.75923718712693,559.476853585642L79.6817640047675,559.0700333553832L78.8736591179968,558.4597999965044L78.20023837902181,556.8324933595286L76.98808104886712,557.2393224296393L75.77592371871242,556.6290782216674L75.37187127532752,556.4256626820134L75.37187127532752,556.0188303971954L76.4493444576874,555.2051610054768L76.4493444576874,554.7983238985471L76.17997616209686,554.1880652242689L75.10250297973744,553.5778029332287L74.29439809296719,552.5606910775823L74.0250297973771,552.5606910775823L72.94755661501722,552.7641142524953L72.00476758045215,552.3572675008618L72.13945172824742,548.4921431833354L72.00476758045215,547.6784143129189L71.06197854588754,546.6612441814796L72.54350417163232,545.2371891159419L73.75566150178793,543.4062322336395L74.69845053635254,540.9649057415372L73.48629320619739,539.3373225869L73.08224076281249,539.7442207876447L73.08224076281249,540.151117380301L72.27413587604224,541.7786876707687L72.00476758045215,542.5924631680973L72.13945172824742,543.6096734951279L71.4660309892729,545.0337510701938L70.52324195470737,546.0509372793313L69.44576877234795,547.2715474661236L68.77234803337296,548.8990052070294L68.2336114421928,549.5092952281993L67.69487485101263,549.712724431447L66.75208581644802,549.5092952281993L64.1930870083429,549.5092952281993L61.09535160905807,548.6955743961153L60.82598331346799,547.6784143129189L61.09535160905807,546.2543733153434L61.49940405244297,545.8475008414243L61.90345649582787,544.8303126224637L61.230035756852885,543.8131143545761L59.88319427890292,543.2027905702271L59.20977353992794,542.3890198967129L58.67103694874777,542.3890198967129L57.72824791418316,542.9993485048035L57.45887961859307,542.1855762233463L56.78545887961809,542.3890198967129L56.24672228843792,542.1855762233463L55.03456495828323,541.9821321480413L54.09177592371816,541.3717975101317L53.01430274135828,540.151117380301L52.07151370679321,539.3373225869L51.66746126340786,538.5235213612032L51.80214541120313,536.2855348228768L52.20619785458848,534.6578776936949L52.340882002383296,532.6232700958062L53.41835518474363,529.3678143032012L53.41835518474363,527.9435200231965L53.68772348033326,526.315731003182L53.41835518474363,526.1122555659967L53.55303933253845,525.9087797266693L53.95709177592289,525.705303485156L54.76519666269314,523.2635572171566L54.361144219308244,522.0426623649546L55.03456495828323,520.4147800383507L55.169249106078496,517.9729082811973L54.63051251489833,514.716989166729L54.63051251489833,513.2924921706435L54.361144219308244,510.64694544955273L54.89988081048841,509.42590095339983L55.573301549463395,508.61186324250593L56.51609058402801,507.39079460548237L62.17282479141795,509.22239212921704L65.67461263408768,510.64694544955273L68.77234803337296,511.25746226614865L70.52324195470737,511.25746226614865L71.60071513706725,513.0889909906109L72.67818831942759,513.9029932970734L73.89034564958229,514.5134908027685L74.83313468414735,514.716989166729L78.33492252681708,514.3099920364912L80.0858164481524,513.6994933238748L83.18355184743677,513.4959929484467L85.4731823599518,513.0889909906109L85.8772348033367,513.2924921706435L86.14660309892679,513.0889909906109L87.49344457687675,512.8854894082324L88.84028605482672,512.4784850365832L90.18712753277669,512.274982247327L92.47675804529126,511.8679754617915L97.05601907032133,512.6819874235953L98.94159713945146,513.6994933238748L99.34564958283636,513.6994933238748L100.55780691299105,514.9204871284601L101.90464839094147,515.32748184503L102.84743742550609,516.3449615965656L104.5983313468414,518.583381650722L105.13706793802066,519.8043175292405L105.94517282479092,520.8217530332913L107.15733015494561,521.8391784819105L107.96543504171586,523.0600757473294L111.33253873659032,526.1122555659967L115.50774731823594,522.8565938752145L116.98927294398027,516.9554446202819L117.52800953516089,516.5484563400823L118.20143027413542,516.9554446202819L119.54827175208538,516.7519506812823L120.49106078665045,516.9554446202819L121.83790226460042,518.3798909298057L122.37663885578013,518.7868719694234L123.05005959475511,518.9903618858516L124.39690107270553,519.1938514000794L124.80095351608998,519.3973405120196L125.74374255065504,520.8217530332913L126.01311084624513,521.2287244193722L126.68653158521965,521.6356941965787L130.3230035756851,520.211292937558L133.82479141835483,518.7868719694234L134.7675804529199,518.7868719694234L135.1716328963048,519.1938514000794L137.86531585220428,522.6531116009282L141.50178784266927,522.246145845842L141.90584028605463,522.4496289244853L142.44457687723434,522.246145845842L142.9833134684145,522.4496289244853L145.27294398092909,522.246145845842L145.67699642431444,522.6531116009282L146.75446960667477,522.6531116009282L147.15852205005876,522.246145845842L148.10131108462429,521.8391784819105L149.71752085816388,521.6356941965787L152.94994040524398,520.211292937558L154.29678188319394,520.6182667369576L156.45172824791416,520.211292937558L158.74135876042828,519.3973405120196L159.6841477949938,519.1938514000794L161.8390941597131,518.583381650722L163.05125148986826,517.9729082811973L162.51251489868855,511.0539570629335L162.24314660309847,511.0539570629335L162.51251489868855,508.0013307345944L162.37783075089374,505.5591644900851L162.1084624553041,505.3556480209518L162.1084624553041,505.1521311493707L162.24314660309847,503.11694030200306L163.58998808104843,497.62172400292184L161.56972586412348,496.80759293232404L161.97377830750884,494.36516108176147L163.85935637663852,493.34746403770987L164.26340882002387,493.1439234213758L164.12872467222815,492.94038240244845L164.26340882002387,492.32975693068875L164.80214541120313,492.12621430172294L168.03456495828368,485.6126376253087L169.92014302741336,482.55925664523966L169.7854588796181,482.3556946922181L171.13230035756806,480.32005301672325L170.59356376638834,479.30221707931196L169.24672228843792,478.2843710751622L169.516090584028,477.2665150039684L169.1120381406431,476.4522228985152L170.7282479141827,475.02719620990683L171.40166865315814,475.6379243498377L171.9404052443383,475.2307726592553L170.59356376638834,472.5842474048404L171.80572109654304,471.5663349530223L179.75208581644756,465.6622441652871L179.75208581644756,464.4406658459484L181.2336114421928,463.01547281116655L180.15613825983246,461.1830527612474L179.6174016686532,460.5722388263821L182.31108462455222,459.14699221099727L184.73539928486252,456.2964397545584L186.35160905840212,456.0928258430213L187.42908224076245,454.8711339120491L188.2371871275318,454.46390004492423L188.77592371871197,452.83494845857786L188.91060786650723,451.00234709754295L188.77592371871197,448.9660850799992L188.2371871275318,447.3370464499749L188.37187127532707,445.91161649026617L188.2371871275318,444.6898036636121L186.08224076281203,445.09707621799316L185.6781883194276,444.893440142303L183.38855780691256,444.4861667818768L182.4457687723475,444.0788918092003L184.60071513706725,435.525744933635L185.6781883194276,431.45256790870917L185.81287246722286,426.7682149507309L186.08224076281203,425.9535230967158L186.75566150178747,424.1204428347846L186.08224076281203,423.71308722953836L185.54350417163278,422.4910107350879L185.13945172824742,420.861552824892L185.13945172824742,420.0468141904712L185.54350417163278,420.6578687712754L186.4862932061974,420.861552824892L188.64123957091715,420.45418431429425L191.60429082240717,420.45418431429425L203.05244338498187,417.3988690615515L203.45649582836722,416.78779512095207L207.09296781883177,414.9545515179052L206.9582836710365,414.7508557673864L209.65196662693643,416.584103000685L213.9618593563764,415.9730242198566L212.88438617401607,406.60269495747343L214.76996424314666,407.01011832834047L217.0595947556617,409.25091802144016L217.86769964243103,404.5655538949941L221.63885578069085,400.69487471443426L222.98569725864127,395.1941852852033L222.4469606674611,393.76803259333246L222.31227651966583,393.9717699030007L221.77353992848566,396.2128536717937L214.3659117997613,395.6016538505646L213.01907032181134,395.6016538505646L212.88438617401607,392.54560025986575L212.48033373063163,392.54560025986575L212.7497020262217,389.89694702350243L213.01907032181134,389.0819630732585L212.34564958283636,389.4894558556698L207.90107270560156,388.67446867625404L207.90107270560156,388.26697266453994L206.15017878426625,388.26697266453994L206.15017878426625,388.0632240532286L203.32181168057195,388.0632240532286L203.32181168057195,388.4707208722393L203.05244338498187,388.4707208722393L203.05244338498187,388.67446867625404L202.91775923718706,388.67446867625404L202.64839094159697,387.8594750382763L202.64839094159697,387.2482255712821L202.24433849821162,386.6369724712713L202.37902264600643,386.6369724712713L202.37902264600643,386.43322063054075L201.97497020262153,386.43322063054075L201.97497020262153,386.2294683861837L202.10965435041635,385.6182092309027L201.97497020262153,385.2107011089829L202.37902264600643,384.8031913722516L202.5137067938017,383.98816705435456L202.10965435041635,382.56185895518865L202.24433849821162,381.135531073538L199.55065554231123,380.93176833260804L198.4731823599518,379.91294857198955L197.5303933253872,380.32047768744815L197.26102502979757,380.32047768744815L196.04886769964196,379.3016518705699Z" style="fill: none; stroke: rgb(8, 48, 107);"><title>ESSONNE</title></path><g stroke="#000" stroke-opacity="0.2"><path d="M0,-18.876579049491834L4.238056047668955,-5.833183721955068L17.952693510379785,-5.833183721955069L6.857318731355415,2.2280779191642193L11.095374779024372,15.271473246700983L8.881784197001252e-16,7.210211605581696L-11.095374779024368,15.271473246700985L-6.857318731355414,2.2280779191642206L-17.952693510379788,-5.833183721955065L-4.238056047668956,-5.833183721955068Z" transform="translate(357.40047675804544,768.1671316144057)rotate(2.8845514134681185)" fill="white" class="commune"><title>insee_com : 91223 
Population : 25092
 Nom : ETAMPES</title></path><path d="M0,-18.876579049491834L4.238056047668955,-5.833183721955068L17.952693510379785,-5.833183721955069L6.857318731355415,2.2280779191642193L11.095374779024372,15.271473246700983L8.881784197001252e-16,7.210211605581696L-11.095374779024368,15.271473246700985L-6.857318731355414,2.2280779191642206L-17.952693510379788,-5.833183721955065L-4.238056047668956,-5.833183721955068Z" transform="translate(471.2085816448148,197.9937139324029)rotate(13.35971372940682)" fill="white" class="commune"><title>insee_com : 91477 
Population : 35514
 Nom : PALAISEAU</title></path><path d="M0,-22.448162112566994L5.039926405668234,-6.936863585267022L21.349470856006818,-6.936863585267023L8.154772225169292,2.649646114250548L13.19469863083753,18.16094464155052L8.881784197001252e-16,8.574434942032948L-13.194698630837525,18.160944641550522L-8.154772225169292,2.649646114250549L-21.34947085600682,-6.936863585267019L-5.0399264056682345,-6.936863585267021Z" transform="translate(718.4886769964237,383.5806524731597)rotate(13.293303465295374)" fill="white" class="commune"><title>insee_com : 91228 
Population : 67967
 Nom : EVRY COURCOURONNES</title></path><path d="M0,-22.448162112566994L5.039926405668234,-6.936863585267022L21.349470856006818,-6.936863585267023L8.154772225169292,2.649646114250548L13.19469863083753,18.16094464155052L8.881784197001252e-16,8.574434942032948L-13.194698630837525,18.160944641550522L-8.154772225169292,2.649646114250549L-21.34947085600682,-6.936863585267019L-5.0399264056682345,-6.936863585267021Z" transform="translate(718.4886769964237,383.5806524731597)rotate(8.777713063250252)" fill="white" class="commune"><title>insee_com : 91228 
Population : 67967
 Nom : EVRY COURCOURONNES</title></path></g><text class="text" y="40" x="427" text-anchor="middle" font-size="36" font-family="Helvetica" fill="#6baed6">91  - ESSONNE</text><line x1="381.473023440604" y1="742.5280330049893" x2="694.4161303138651" y2="409.2197510825761" stroke="yellow" opacity="0.35" stroke-width="2"/><line x1="702.0033373063164" y1="371.2081899037759" x2="487.69392133492204" y2="210.3661765017867" stroke="yellow" opacity="0.35" stroke-width="2"/><line x1="463.6213746523635" y1="236.00527511120308" x2="364.9876837504967" y2="730.1555704356055" stroke="yellow" opacity="0.35" stroke-width="2"/></svg>